<?xml version="1.0" encoding="utf-8"?>
<!-- Generator: Adobe Illustrator 26.5.0, SVG Export Plug-In . SVG Version: 6.00 Build 0)  -->
<svg version="1.1" id="Layer_1" xmlns="http://www.w3.org/2000/svg" xmlns:xlink="http://www.w3.org/1999/xlink" x="0px" y="0px"
	 viewBox="0 0 24 24" style="enable-background:new 0 0 24 24;" xml:space="preserve">
<style type="text/css">
	.st0{fill:#FFFFFF;}
	.st1{fill:#4D5152;}
	.st2{fill:#ECEB96;}
	.st3{fill:#ACF0F2;}
</style>
<path class="st0" d="M14.4,1.6c0-0.6-0.5-1.1-1.1-1.1H4.8v3.7l1.9-0.7c1,0,1.9,0.8,1.9,1.9c0,1-0.8,1.9-1.9,1.9L4.8,6.4l0,3.7h9.6
	L14.4,1.6z"/>
<path class="st1" d="M4.4,10.5V6.1h0.7v3.7H14l0-8.2c0-0.4-0.3-0.7-0.7-0.7H5.1v3.7H4.4l0-4.4h8.9c0.8,0,1.5,0.7,1.5,1.5l0,8.9H4.4z
	"/>
<path class="st1" d="M4.8,6.4c0-0.1,0.1-0.2,0.1-0.3C5.1,6,5.3,6.1,5.4,6.2c0.3,0.4,0.7,0.6,1.2,0.6c0.8,0,1.5-0.7,1.5-1.5
	S7.4,3.8,6.6,3.8c-0.5,0-0.9,0.2-1.2,0.6C5.3,4.6,5.1,4.6,4.9,4.5C4.8,4.4,4.7,4.2,4.8,4c0.4-0.6,1.1-0.9,1.8-0.9
	c1.2,0,2.2,1,2.2,2.2c0,1.2-1,2.2-2.2,2.2c-0.7,0-1.4-0.3-1.8-0.9C4.8,6.6,4.8,6.5,4.8,6.4"/>
<path class="st2" d="M11.1,19.4c0-0.7-2.2-3.3-2.2-3.3l-2.2-5.6c0-0.6,0.5-1.1,1.1-1.1c0.7,0,1.1,0.7,1.1,0.7l1.5,2.2v-7
	c0-0.6,0.5-1.1,1.1-1.1c0.6,0,1.1,0.5,1.1,1.1v4.1c0-0.6,0.5-1.1,1.1-1.1s1.1,0.5,1.1,1.1v0.7c0-0.6,0.5-1.1,1.1-1.1
	c0.6,0,1.1,0.5,1.1,1.1v0.7c0-0.6,0.5-1.1,1.1-1.1c0.6,0,1.1,0.5,1.1,1.1v2.6c0,2.6-1.5,4.1-1.5,4.8v1.1H11.1z"/>
<rect x="10.3" y="19.4" class="st3" width="8.2" height="4.4"/>
<polygon class="st1" points="18.9,23.9 18.1,23.9 18.1,19.8 10.7,19.8 10.7,23.9 10,23.9 10,19 18.9,19 "/>
<rect x="16.6" y="20.5" class="st1" width="0.7" height="0.7"/>
<rect x="15.2" y="20.5" class="st1" width="0.7" height="0.7"/>
<path class="st1" d="M18.1,19.4h-0.7v-1.1c0-0.3,0.2-0.7,0.5-1.2c0.4-0.8,1-2,1-3.6v-2.6c0-0.4-0.3-0.7-0.7-0.7
	c-0.4,0-0.7,0.3-0.7,0.7c0,0.2-0.2,0.4-0.4,0.4c-0.2,0-0.4-0.2-0.4-0.4v-0.7c0-0.4-0.3-0.7-0.7-0.7c-0.4,0-0.7,0.3-0.7,0.7
	c0,0.2-0.2,0.4-0.4,0.4c-0.2,0-0.4-0.2-0.4-0.4V9.4c0-0.4-0.3-0.7-0.7-0.7c-0.4,0-0.7,0.3-0.7,0.7c0,0.2-0.2,0.4-0.4,0.4
	c-0.2,0-0.4-0.2-0.4-0.4V5.3c0-0.4-0.3-0.7-0.7-0.7c-0.4,0-0.7,0.3-0.7,0.7v7c0,0.2-0.1,0.3-0.3,0.4c-0.2,0-0.3,0-0.4-0.1l-1.5-2.2
	c0,0,0,0,0,0c0,0-0.3-0.5-0.8-0.5C7.4,9.8,7,10.1,7,10.5l2.2,5.4c0.6,0.7,2.3,2.7,2.3,3.5h-0.7c0-0.4-1.1-1.9-2.1-3.1
	c0,0,0-0.1-0.1-0.1l-2.2-5.6c0,0,0-0.1,0-0.1C6.3,9.7,6.9,9,7.7,9C8.6,9,9.1,9.8,9.2,10l0.8,1.2V5.3c0-0.8,0.7-1.5,1.5-1.5
	c0.8,0,1.5,0.7,1.5,1.5v2.8c0.2-0.1,0.5-0.2,0.7-0.2c0.6,0,1.2,0.4,1.4,1c0.2-0.2,0.5-0.3,0.8-0.3c0.6,0,1.2,0.4,1.4,1
	c0.2-0.2,0.5-0.3,0.8-0.3c0.8,0,1.5,0.7,1.5,1.5v2.6c0,1.8-0.7,3.1-1.1,3.9c-0.2,0.4-0.4,0.7-0.4,0.9V19.4z"/>
<rect x="16.6" y="10.5" class="st1" width="0.7" height="1.1"/>
<rect x="14.4" y="10.1" class="st1" width="0.7" height="1.1"/>
<rect x="12.2" y="9.4" class="st1" width="0.7" height="1.5"/>
</svg>
