<?xml version="1.0" encoding="UTF-8"?>
<svg id="swipe" data-name="swipe" xmlns="http://www.w3.org/2000/svg" viewBox="0 0 462.34 633.36">
  <path d="m461.36,403.22l.98-116.64c.11-12.95-5.76-25.05-16.52-34.07-10.11-8.47-23.46-13.2-37.57-13.32-.18,0-.35,0-.52,0-11.85,0-22.84,3.27-31.8,8.81-1.62-10.36-7.15-19.86-16-27.26-10.1-8.44-23.46-13.15-37.62-13.26-12.02-.05-23.13,3.16-32.19,8.76-1.61-10.35-7.14-19.85-16-27.26-10.11-8.47-23.47-13.19-37.63-13.31-11.39-.07-22.31,2.82-31.49,8.3l1.65-136.6c.11-12.95-5.74-25.04-16.47-34.04C180.1,4.85,166.74.12,152.59,0c-13.34-.1-23.8,3.87-32.19,12.2-15.37,15.26-22.48,45.01-22.39,93.47l-2.19,169.24-13.1.07c-38.52.21-71.71,27.69-78.93,65.34-7.83,40.89-8.25,137.74,46.22,211.64,34.59,46.92,84.14,74.29,147.28,81.33.43.05.86.07,1.28.07,5.75,0,10.71-4.33,11.37-10.18.7-6.29-3.83-11.95-10.11-12.65-56.53-6.31-100.74-30.59-131.39-72.16-46.17-62.63-50.51-150.17-42.16-193.73,5.17-26.94,28.95-46.6,56.56-46.75l12.68-.07-1.33,102.31c-.08,6.32,4.98,11.52,11.3,11.6.05,0,.1,0,.15,0,6.26,0,11.37-5.03,11.45-11.3l3.82-294.63c-.08-40.95,5.17-66.97,15.62-77.34,3.93-3.9,8.78-5.63,15.85-5.55,8.85.07,17.05,2.9,23.09,7.96,5.39,4.52,8.33,10.32,8.28,16.26l-2.11,174.58c0,.12,0,.25,0,.37-.04,6.31,5.03,11.47,11.34,11.53.04,0,.07,0,.11,0,6.26,0,11.37-5.04,11.45-11.31v-.25c.11-5.87,3.15-11.51,8.57-15.9,6.14-4.96,14.29-7.68,23.19-7.59,8.86.07,17.06,2.9,23.11,7.96,5.39,4.52,8.34,10.28,8.29,16.23l-.27,31.01s0,.06,0,.09c-.05,6.32,5.03,11.49,11.35,11.55h.1c6.28,0,11.4-5.06,11.45-11.35v-.05c.14-12.95,14.71-23.77,31.79-23.63,8.87.07,17.08,2.89,23.12,7.93,5.39,4.5,8.33,10.28,8.28,16.26l-.28,31.01s0,.06,0,.09c-.05,6.32,5.03,11.49,11.35,11.55h.1c6.28,0,11.39-5.06,11.45-11.35v-.05c.15-13.14,14.26-23.72,31.57-23.72.11,0,.23,0,.34,0,8.81.07,17,2.9,23.05,7.97,5.42,4.54,8.37,10.34,8.32,16.32l-.97,116.54-.84,50.11c0,.57.02,1.14.1,1.7.15,1.15,14.32,115.66-63.66,152.88-5.71,2.73-8.13,9.56-5.4,15.27,1.96,4.12,6.07,6.52,10.34,6.52,1.65,0,3.33-.36,4.92-1.12,38.87-18.55,64.41-55.25,73.86-106.11,6.38-34.35,3.42-63.94,2.75-69.56l.83-49.41Z" style="fill: currentColor;"/>
</svg>