<?xml version="1.0" encoding="utf-8"?>
<!-- Generator: Adobe Illustrator 26.5.0, SVG Export Plug-In . SVG Version: 6.00 Build 0)  -->
<svg version="1.1" id="Layer_1" xmlns="http://www.w3.org/2000/svg" xmlns:xlink="http://www.w3.org/1999/xlink" x="0px" y="0px"
	 viewBox="0 0 24 24" style="enable-background:new 0 0 24 24;" xml:space="preserve">
<style type="text/css">
	.st0{fill:#FFFFFF;}
	.st1{fill:#4D5152;}
	.st2{fill:#67DDE0;}
	.st3{fill:#ECEB96;}
	.st4{fill:#B8D376;}
	.st5{fill:#4A6EB5;}
</style>
<path class="st0" d="M23.6,19.5c0,0.6-0.5,1.1-1.1,1.1H1.6c-0.6,0-1.1-0.5-1.1-1.1V4.5c0-0.6,0.5-1.1,1.1-1.1h20.9
	c0.6,0,1.1,0.5,1.1,1.1V19.5z"/>
<path class="st1" d="M22.4,20.9H1.6c-0.8,0-1.5-0.7-1.5-1.5V4.5c0-0.8,0.7-1.5,1.5-1.5h20.9c0.8,0,1.5,0.7,1.5,1.5v14.9
	C23.9,20.3,23.3,20.9,22.4,20.9 M1.6,3.8c-0.4,0-0.7,0.3-0.7,0.7v14.9c0,0.4,0.3,0.7,0.7,0.7h20.9c0.4,0,0.7-0.3,0.7-0.7V4.5
	c0-0.4-0.3-0.7-0.7-0.7H1.6z"/>
<rect x="1.6" y="4.5" class="st2" width="20.9" height="11.9"/>
<polygon class="st0" points="9.3,13.9 9.3,7.5 14.5,10.7 "/>
<rect x="6.8" y="18" class="st3" width="11.9" height="0.7"/>
<rect x="1.6" y="18" class="st4" width="4.5" height="0.7"/>
<rect x="6" y="18" class="st1" width="0.7" height="0.7"/>
<rect x="19.5" y="18" class="st5" width="3" height="0.7"/>
</svg>
