<?xml version="1.0" encoding="utf-8"?>
<!-- Generator: Adobe Illustrator 25.4.1, SVG Export Plug-In . SVG Version: 6.00 Build 0)  -->
<svg version="1.1" id="Layer_1" xmlns="http://www.w3.org/2000/svg" xmlns:xlink="http://www.w3.org/1999/xlink" x="0px" y="0px"
	 viewBox="0 0 157 236.5" style="enable-background:new 0 0 157 236.5;" xml:space="preserve">
<style type="text/css">
	.st0{fill-rule:evenodd;clip-rule:evenodd;fill:#F0F0FF;}
	.st1{fill-rule:evenodd;clip-rule:evenodd;fill:#DBDFFF;}
	.st2{fill-rule:evenodd;clip-rule:evenodd;fill:#00F9C7;}
	.st3{fill-rule:evenodd;clip-rule:evenodd;fill:#FF65A7;}
	.st4{fill-rule:evenodd;clip-rule:evenodd;fill:#175299;}
	.st5{fill-rule:evenodd;clip-rule:evenodd;fill:#ABB1EB;}
	.st6{fill-rule:evenodd;clip-rule:evenodd;fill:#016AFB;}
	.st7{fill-rule:evenodd;clip-rule:evenodd;fill:#ED9870;}
	.st8{fill-rule:evenodd;clip-rule:evenodd;fill:#FFAA83;}
	.st9{fill-rule:evenodd;clip-rule:evenodd;fill:#713D22;}
	.st10{fill-rule:evenodd;clip-rule:evenodd;fill:#013883;}
	.st11{fill-rule:evenodd;clip-rule:evenodd;fill:#CE7C56;}
	.st12{fill-rule:evenodd;clip-rule:evenodd;fill:#A7C4E4;}
	.st13{fill-rule:evenodd;clip-rule:evenodd;fill:#020202;}
	.st14{fill-rule:evenodd;clip-rule:evenodd;fill:#905435;}
	.st15{fill-rule:evenodd;clip-rule:evenodd;fill:#029FA3;}
	.st16{fill-rule:evenodd;clip-rule:evenodd;fill:#FFB087;}
	.st17{fill-rule:evenodd;clip-rule:evenodd;fill:#51DEED;}
	.st18{fill-rule:evenodd;clip-rule:evenodd;fill:#00BDDD;}
	.st19{fill-rule:evenodd;clip-rule:evenodd;fill:#E6E3E3;}
	.st20{fill-rule:evenodd;clip-rule:evenodd;fill:#BFBEBE;}
	.st21{fill-rule:evenodd;clip-rule:evenodd;fill:#FFFFFF;}
	.st22{fill-rule:evenodd;clip-rule:evenodd;fill:#333333;}
	.st23{fill-rule:evenodd;clip-rule:evenodd;fill:#C40000;}
	.st24{fill-rule:evenodd;clip-rule:evenodd;fill:#FF589C;}
	.st25{fill-rule:evenodd;clip-rule:evenodd;fill:#426C94;}
	.st26{fill-rule:evenodd;clip-rule:evenodd;fill:#191919;}
	.st27{fill-rule:evenodd;clip-rule:evenodd;fill:#74A1CC;}
	.st28{fill:#999999;}
	.st29{fill:#F0F0FF;}
</style>
<g>
	<path class="st0" d="M76,87.1l2.2,4.3l7.7,1.4v0l1.6,0.3c0,0,0.1,0,0.1,0h0l1.9,0.3c0,0-0.1,0.1-0.1,0.2l-7-1.2H82l-3.1,0.5
		l0.9,1.8l5.3,0.9h0.6l3-0.5c0.4,0.4,1,0.3,1.8-0.3l2.4-0.4c-0.6,0.6-1,1.2-1.2,1.8c0.1,0,0.2,0,0.2,0c0.9,0,1.6-0.3,2-0.9
		c0.1,0,0.1-0.1,0.2-0.1c0.1-0.1,0.2-0.2,0.2-0.2c0.1-0.1,0.2-0.1,0.3-0.1l0.7-0.4l3.7,0.6c-1.6,0.6-2.8,1.1-3.8,1.6
		c0.3,0.1,1.1-0.1,2.5-0.5c0.1,0,0.2,0,0.3-0.1c0.8-0.3,1.6-0.6,2.2-0.8l4.3,0.7l0.6,0.2v0.1H105l-0.1,0.1l-21.8,3.9
		c-0.2,0-0.4,0.1-0.6,0.1c-0.2,0-0.4,0-0.5-0.1h0v-0.1c-0.2,0-0.2-0.2-0.2-0.3h0l0-0.1h0.1v0l0,0h0.6l11.7-2.1l0-0.2l-0.2,0
		l-14.1-2.5l0.1,0.3l0.4,0.7l0.1,0.2l0.2,0.4l0.2,0.3l0,0.1l0,0.1l0.2,0.4l0.1,0.2l0.2,0.5l0.1,0.1l0.1,0.2l0,0.1l0.2,0.3
		c0,0.1,0.1,0.1,0.1,0.2c0,0,0,0.1,0.1,0.1c0,0.1,0.1,0.2,0,0.3c0,0.2-0.2,0.3-0.6,0.2l-1.3-0.2l-12-23.8c-0.3-0.6-0.8-1-1.5-1.2
		l-31.4-6.1L35,67.6c-0.3-0.6-0.1-0.9,0.5-0.8L55,70.6l13.1,2.6c0.6,0.1,1.1,0.5,1.4,1.2L76,87.1z"/>
	<path class="st0" d="M90.6,88.3l-0.9,0.4c-0.7-1.9-1.8-3.3-3.2-4.3c-0.2-0.2-0.4-0.3-0.6-0.4c-1.8-1.1-3.6-1.2-5.5-0.3
		c0.7-1,1.5-1.8,2.6-2.5c1.1-0.7,2.3-1.2,3.5-1.4c1.1-0.1,2.2,0.1,3.2,0.6c0.8,0.5,1.4,1.2,1.8,2.2c0.4,1,0.5,2,0.4,3
		C91.8,86.5,91.3,87.4,90.6,88.3z"/>
	<path class="st0" d="M106.5,33.6c1.4-0.4,3-1.3,4.8-2.6c2.3-1.9,3.8-3.1,4.5-3.8c0.7-0.6,1.2-1.2,1.5-1.8c0.3-0.5,0.4-1.2,0.1-2.1
		c1-0.2,1.8,0.2,2.3,1.2c0.3,0.6,0.7,1.5,1.1,2.8c-0.5,1.6-1.3,2.9-2.6,4c-1.4,1.2-2.6,2.4-3.8,3.6c-1.2,1.1-3.6,3.4-7.2,6.8
		c-0.6-1.4-1.2-2.9-1.8-4.4l-0.4-0.8c-0.4-1.2-0.2-2,0.5-2.7L106.5,33.6z"/>
	<path class="st0" d="M100.6,32.1L100.6,32.1l0.3,0.2c0,0,0.1,0.1,0.1,0.2c0,0,0.1,0.1,0.1,0.2c0.1,0.1,0.1,0.2,0.2,0.2
		c0.3,0.3,0.6,0.6,0.9,1v1.4v0.5c0,0.1-0.1,0.2-0.1,0.4l-0.1,0.4l0,0.1c-0.1,0.5-0.3,1-0.6,1.5c-0.2,0.6-0.4,1.1-0.6,1.6
		c-0.3,0.6-0.5,0.7-0.6,0.4v-0.1c-0.1-0.3-0.1-0.8-0.1-1.5c0.1-1.9,0.2-3.3,0.2-4.3C100.3,33.3,100.4,32.6,100.6,32.1L100.6,32.1z"
		/>
	<path class="st0" d="M54.4,80.2c0.2,0,0.4,0,0.6,0c1,0,1.9,0.4,2.9,0.9c1.1,0.7,1.9,1.6,2.3,2.8c0.4,1.1,0.3,2.1-0.2,2.9
		c-0.5,0.9-1.3,1.3-2.5,1.5c-0.8,0.1-1.7-0.1-2.5-0.4c-0.3-0.1-0.6-0.3-0.9-0.5c-1.2-0.7-2-1.6-2.4-2.7c-0.4-1.1-0.4-2.1,0.2-3
		C52.4,80.8,53.2,80.3,54.4,80.2z"/>
	<polygon class="st0" points="81.1,101.6 58,105.7 26.3,100 48.9,96 49,96 	"/>
	<path class="st0" d="M90.5,100.4c-0.1,0-0.2,0-0.3,0l0.1,0L90.5,100.4z"/>
	<path class="st0" d="M91.5,93.9c0.1-0.1,0.2-0.1,0.2-0.2l1.5,0.2C93.1,94,93,94.1,93,94.2l-0.2,0c0-0.1,0-0.1,0-0.1L91.5,93.9z"/>
	<path class="st1" d="M95.4,79.2c-0.5,3-1.2,5.8-2.2,8.6L92.6,88c-0.1,0-0.2,0.1-0.3,0.1l0,0l-1.7,0.2c0.7-0.8,1.1-1.8,1.2-2.8
		c0.1-1,0-2-0.4-3c-0.4-0.9-1-1.7-1.8-2.2c-1-0.5-2-0.7-3.2-0.6c0.5-0.5,1.7-1.8,3.7-3.7c1.5-1.5,2.8-2.7,3.8-3.5
		c0-1.5,0-3.6-0.1-6.4c-0.1-2.9-0.1-5-0.1-6.2c1.3,4.6,2,9.3,2,14C95.7,75.7,95.6,77.5,95.4,79.2z"/>
	<path class="st1" d="M97.9,32.5c-5.1,2.9-7.2,9.5-6.4,19.8c-0.4-0.9-0.6-1.5-0.8-2c-0.2-0.6-0.5-1.6-0.8-3.1
		c-0.3-1.6-0.4-2.7-0.4-3.3c0.1-1.1,0.3-2.1,0.5-3.2c0.3-1,0.7-2,1.2-2.8c0.5-0.8,1.2-1.6,2-2.3c0.6-0.6,1.3-1.2,2.1-1.6
		C96.1,33.4,97,32.9,97.9,32.5z"/>
	<path class="st1" d="M82,99.3c0-0.1,0-0.2,0-0.3l1,0.2l-0.6,0.2L82,99.3z"/>
	<path class="st1" d="M81.9,98.8c0,0,0-0.1-0.1-0.2l-0.2-0.3l0.7-0.1h0.1l2.4,0.5l-1.6,0.2L81.9,98.8z"/>
	<polygon class="st1" points="81.6,98.3 81.5,98.1 81.6,98.1 83.3,97.8 84.7,98.1 83.1,98.3 81.6,98.1 81.8,98.2 	"/>
	<polygon class="st1" points="80.4,95.8 80,95.1 82.1,95.5 80.5,95.8 	"/>
	<polygon class="st1" points="80.4,96 80.5,96 82,96.2 80.7,96.4 	"/>
	<polygon class="st1" points="80.8,96.7 81,96.8 80.9,96.8 	"/>
	<polygon class="st1" points="86.9,98.4 85.4,98.7 83.7,98.4 83.6,98.4 85.2,98.1 86.7,98.4 	"/>
	<polygon class="st1" points="81.2,97.5 82.7,97.6 81.5,98 	"/>
	<polygon class="st1" points="80.9,96.9 81.5,96.8 81.6,96.8 82.3,96.9 80.9,96.6 82.5,96.4 82.6,96.3 84,96.6 82.3,96.9 83,97.1 
		83.1,97.1 81.7,97.3 81.1,97.3 	"/>
	<polygon class="st1" points="92.8,97.7 92.1,97.8 90.4,97.6 90.3,97.4 89.8,97.5 89.9,97.5 89.8,97.5 89.8,97.6 90.7,97.7 89.2,98 
		85,97.3 87.2,97 87.4,97 87.4,97 89.1,96.7 90.7,97 90.8,97 90.8,97.1 91.2,97.1 92.8,97.3 	"/>
	<polygon class="st1" points="88.7,96.7 88,96.8 87.8,96.8 86.3,96.5 86.8,96.4 87.2,96.4 88.7,96.6 	"/>
	<polygon class="st1" points="86.8,96.3 85.1,96.6 83.4,96.4 85.1,96 	"/>
	<polygon class="st1" points="85.6,97.5 85.8,97.5 88.7,98.1 87.1,98.3 84.1,97.8 	"/>
	<polygon class="st1" points="83.7,97.7 83.5,97.7 82.1,97.5 83.8,97.1 85.1,97.4 85.1,97.5 	"/>
	<polygon class="st1" points="84.7,97.2 83,97 84.4,96.6 86.3,96.8 86.1,97 	"/>
	<polygon class="st1" points="83.1,96.2 82.7,96.2 80.9,95.9 82.5,95.5 84.7,96 	"/>
	<path class="st1" d="M101.2,44.1l-1-3.8c0.1,0.3,0.3,0.2,0.6-0.4c0.3-0.5,0.5-1,0.6-1.6c0.1,0.1,0.2,0.1,0.3,0.2c0,0.3,0,0.6,0,0.8
		c0,0.1,0,0.2,0,0.2c0,0,0,0,0,0c0,0.4,0,0.9,0,1.5c0,0.5-0.1,1-0.2,1.5c0,0.1,0,0.3,0,0.4C101.4,43.3,101.3,43.7,101.2,44.1z"/>
	<path class="st1" d="M103.1,44.5c0.1-0.3,0.1-0.6,0.1-1c0.1-0.7,0.4-1.4,0.9-2.1c0.1-0.2,0.3-0.5,0.5-0.7c0.8-0.9,1-2.1,0.7-3.4
		c0.6,1.5,1.2,3,1.8,4.4L103.1,44.5z"/>
	<path class="st2" d="M91.5,52.3c-0.8-10.3,1.3-16.9,6.4-19.8c0.6-0.3,1.2-0.5,1.8-0.8c0.2-0.1,0.5-0.2,0.7-0.4l0.2,0.6v0
		c-0.1,0.5-0.2,1.3-0.2,2.3c0,1-0.1,2.4-0.2,4.3c0,0.7,0,1.2,0.1,1.5v0.1l1,3.8l0.5,1.4l1.4-1l4.1-2.8c3.6-3.4,6-5.7,7.2-6.8
		c1.2-1.2,2.4-2.4,3.8-3.6c1.3-1.1,2.1-2.5,2.6-4c0.3,0.2,0.7,0.5,1.2,0.8c0.1,0.1,0.3,0.2,0.5,0.3c0.8,0.5,1.7,1.2,2.8,2.1
		c2,1.6,3.4,2.6,4.4,3.2c1.7,0.7,3.1,1.5,4.3,2.5c-5.4-1.5-9.6,0.3-12.5,5.5c-2.4,4.1-3.2,8.6-2.4,13.5c0.5,2.7,0.2,5.5-0.8,8.2
		c-1.1,3.3-1.7,6.8-1.8,10.2c0,4.2-2.6,6.5-7.8,6.8c-5.2,0.2-8.7,0-10.5-0.5c-1-0.2-1.9-0.5-2.8-0.9c0.2-1.7,0.2-3.4,0.2-5.2
		c0-4.7-0.6-9.4-2-14C92.7,57.5,92,55,91.5,52.3z"/>
	<path class="st3" d="M103.2,214.7c-0.3,1.1-0.7,2.2-1.2,3.2c-0.7,1.5-1.7,3-2.9,4.4c-3.2,3.8-7,6-11.5,6.8l-37.7,6.8v-9l36.1-6.5
		h0.1c1.8-0.4,3.5-1.2,4.9-2.4c0.5-0.4,0.9-0.8,1.3-1.3l0.1,0c0.2-0.2,0.4-0.5,0.5-0.7c1-1.3,1.6-2.8,1.9-4.3
		c0.1-0.6,0.2-1.2,0.2-1.8v-94.3c0-1.6-0.4-2.9-1.2-4c-0.2-0.3-0.5-0.6-0.8-0.9h0c-1.2-1-2.6-1.4-4.2-1.3c-0.3,0-0.7,0.1-1,0.1
		l-24.4,4.4l-5.2,1v-9.1l23.1-4.1l0.4,0.1c0.7,0.2,1.5,0.1,2.4-0.1l6.2-1.1c0.1,0,0.2,0,0.3,0c0.8,0,1.6,0.2,2.4,0.4
		c2,0.5,3.9,1.5,5.6,3c0.8,0.7,1.5,1.4,2.2,2.2c0.8,1,1.4,2,1.9,3.2c0.8,1.9,1.2,4,1.2,6.4v84.3v3.8v5.1v1.1
		C103.8,211.5,103.6,213.1,103.2,214.7z"/>
	<path class="st4" d="M81.5,98.1L81.5,98l1.2-0.4l-1.5-0.1l-0.1-0.2l0.5,0l1.4-0.2l-0.1,0l-0.7-0.2l1.6-0.3l-1.4-0.3l-0.1,0.1
		l-1.5,0.2l1.4,0.3l-0.8-0.1h-0.1l-0.5,0.1l0-0.1l0.1,0l-0.2,0l-0.2-0.3l1.3-0.2L80.5,96h0l-0.1-0.2h0.1l1.6-0.3L80,95.1l-0.1-0.3
		L94,97.3l0.2,0l0,0.2l-11.7,2.1h-0.6l0,0v0h-0.1l0,0.1h0c0,0.2,0.1,0.3,0.2,0.3v0.1h0c0.1,0,0.3,0.1,0.5,0.1c0.2,0,0.4,0,0.6-0.1
		l21.8-3.9l0.1-0.1h0.1l0.1,0.8c-0.1,0.6-0.5,0.9-1.2,0.9l-13.8,2.5l-0.1,0l-6.2,1.1c-0.9,0.2-1.7,0.3-2.4,0.1l-0.4-0.1L49,96l0,0
		l-0.2-0.2l-0.4-0.2l-0.5-0.5v-0.8l32.2,6.3c0.6,0.1,0.8-0.1,0.5-0.8l-0.4-0.7l1.3,0.2c0.4,0.1,0.6,0,0.6-0.2l0.3,0l0.6-0.2l-1-0.2
		c0,0,0-0.1-0.1-0.1l1.4,0.2l1.6-0.2l-2.4-0.5h-0.1l-0.7,0.1l0-0.1l0.2,0L81.5,98.1l1.5,0.2l1.6-0.2l-1.4-0.3L81.5,98.1L81.5,98.1z"
		/>
	<polygon class="st5" points="86.9,98.4 86.7,98.4 85.2,98.1 83.6,98.4 83.7,98.4 85.4,98.7 	"/>
	<path class="st5" d="M90.5,94.7c0.2-0.1,0.3-0.2,0.5-0.4c0.2-0.2,0.4-0.3,0.5-0.5l1.2,0.2c0,0,0,0,0,0.1l0.2,0c0,0-0.1,0.1-0.1,0.1
		L90.5,94.7z"/>
	<path class="st4" d="M89.3,93.5c-0.3,0.3-0.5,0.6-0.7,0.9h-0.1c0,0,0,0.1,0,0.2c0.1,0.2,0.2,0.3,0.3,0.5l-3,0.5h-0.6l-5.3-0.9
		l-0.9-1.8l3.1-0.5h0.4L89.3,93.5z"/>
	<polygon class="st5" points="92.8,97.7 92.8,97.3 91.2,97.1 90.8,97.1 90.8,97 90.7,97 89.1,96.7 87.4,97 87.4,97 87.2,97 85,97.3 
		89.2,98 90.7,97.7 89.8,97.6 89.8,97.5 89.9,97.5 89.8,97.5 90.3,97.4 90.4,97.6 92.1,97.8 	"/>
	<polygon class="st5" points="88.7,96.7 88.7,96.6 87.2,96.4 86.8,96.4 86.3,96.5 87.8,96.8 88,96.8 	"/>
	<polygon class="st5" points="83.1,96.2 84.7,96 82.5,95.5 80.9,95.9 82.7,96.2 	"/>
	<polygon class="st5" points="84.7,97.2 86.1,97 86.3,96.8 84.4,96.6 83,97 	"/>
	<polygon class="st5" points="83.7,97.7 85.1,97.5 85.1,97.4 83.8,97.1 82.1,97.5 83.5,97.7 	"/>
	<polygon class="st5" points="85.6,97.5 84.1,97.8 87.1,98.3 88.7,98.1 85.8,97.5 	"/>
	<polygon class="st5" points="86.8,96.3 85.1,96 83.4,96.4 85.1,96.6 	"/>
	<path class="st6" d="M120.4,204.9c-1-0.2-2-0.4-3-0.6c-0.3-0.2-0.6-0.3-0.8-0.4l-0.9-0.5l0.2-18c-0.1-0.4-0.1-0.7-0.1-1
		c-0.1-1.4-0.2-2.8-0.2-4.2c-0.1-5.6-1-11-2.9-16.2c-1.8-5-3.3-10.2-4.6-15.5c-0.3-1.2-0.6-2.4-0.8-3.6l-0.8-33.2
		c-0.4-0.2-0.7-0.3-1.1-0.5c-1-0.6-1.9-1.2-2.8-1.9c-0.5-1.1-1.1-2.2-1.9-3.2c3.5,0.3,7.7,0.2,12.5-0.4c0.2,1.1,0.4,2.3,0.5,3.4
		c0.8,5.5,1.1,11,0.7,16.5c-0.4,5-0.6,10-0.5,15c0,5.4,0.8,10.5,2.3,15.5c1.6,5.2,2.7,10.4,3.4,15.8c0.7,5.6,1,11.2,0.9,16.8
		C120.4,194,120.4,199.4,120.4,204.9z"/>
	<path class="st6" d="M103.1,44.5l-1.4,1l-0.5-1.4c0.1-0.4,0.2-0.7,0.2-1.1c0-0.1,0-0.3,0-0.4c0.1-0.5,0.2-1,0.2-1.5
		c0.1,0,0.2,0.1,0.2,0.1c0.5,0.3,1,0.4,1.4,0.3c0.3-0.1,0.6-0.1,0.8-0.1c-0.5,0.7-0.8,1.4-0.9,2.1C103.2,43.9,103.1,44.2,103.1,44.5
		z"/>
	<path class="st7" d="M108.6,13c-0.2,0.8-0.2,1.6-0.1,2.4c-0.7-0.2-1.4-0.2-2-0.2c-1.6,0.1-3.1,0.5-4.4,1.2
		c-1.2,0.8-3.4,1.3-6.4,1.5c-0.6,0-1.4-0.1-2.3-0.2c0-0.2-0.1-0.4-0.1-0.5l0-2c0,0,0-0.1,0-0.1c1,0.5,2.3,0.7,3.8,0.5
		c0.9-0.2,2.3-0.6,4-1.2c1.8-0.8,3.1-1.3,3.9-1.4c1.1-0.3,1.9-0.4,2.5-0.2C107.8,12.8,108.2,12.9,108.6,13z"/>
	<path class="st7" d="M113,19.9c0.4-0.5,0.8-1.1,1.1-2c0.2-0.7,0.3-1.3,0.5-1.8c0.4,0.5,0.6,1,0.6,1.6c0,0,0,0.5,0.1,1.4
		c-0.1,1-0.5,1.5-1.2,1.6C113.4,20.7,113,20.5,113,19.9z"/>
	<path class="st8" d="M100.6,32.1L100.6,32.1l-0.2-0.7c-0.4-0.5-0.8-1-1.2-1.5c-1.1-1.4-2-2.8-2.8-4.3c-0.7-1.3-1.3-2.6-1.8-4
		c-0.3-0.7-0.5-1.3-0.8-1.9c-0.3-0.7-0.4-1.4-0.5-2c0.9,0.2,1.7,0.3,2.3,0.2c3-0.2,5.2-0.7,6.4-1.5c1.4-0.7,2.8-1.1,4.4-1.2
		c0.6,0,1.3,0,2,0.2c0.3,1.4,1.2,2.6,2.7,3.7c0.4,0.3,0.8,0.6,1.4,1c0.1-0.1,0.2-0.1,0.4-0.2c0,0.6,0.4,0.9,1.1,0.8
		c0.7-0.1,1.1-0.6,1.2-1.6c0-0.9-0.1-1.4-0.1-1.4c-0.1-0.6-0.3-1.1-0.6-1.6c0.2-0.4,0.4-0.7,0.6-0.9c0.6,0.4,0.9,1,1,1.9
		c0.1,0.5,0.1,1.2,0.2,2.2c0,0.8-0.3,1.7-1.1,2.7c-0.5,0.7-1.3,0.9-2.4,0.7c0.5,2.1,0,4.2-1.5,6.3c-0.6,0.7-1.4,1.5-2.5,2.4
		c-0.6,0.6-1.4,1.4-2.4,2.4l-1,0.3c-0.9,0.1-2,0.1-3.1,0.1c-0.3-0.4-0.6-0.7-0.9-1c-0.1-0.1-0.1-0.2-0.2-0.2
		c-0.1-0.1-0.1-0.1-0.1-0.2c0-0.1-0.1-0.2-0.1-0.2L100.6,32.1L100.6,32.1z"/>
	<path class="st8" d="M108.7,92.6c0.2-0.2,0.3-0.3,0.5-0.5c-0.1,0.2-0.1,0.4-0.2,0.5L108.7,92.6z"/>
	<path class="st9" d="M114.1,3.4c-0.6,1.3-1.2,2.5-1.8,3.7c-0.6,1.1-1.2,2.2-1.8,3.1c-0.6,1.1-1,1.8-1.3,2.2
		c-0.3,0.3-0.5,0.5-0.6,0.5c-0.4-0.1-0.8-0.2-1.2-0.2c-0.6-0.2-1.5-0.1-2.5,0.2c-0.8,0.1-2,0.6-3.9,1.4c-1.7,0.6-3.1,1-4,1.2
		c-1.5,0.2-2.7,0-3.8-0.5c-0.7-0.3-1.5-0.8-2.4-1.4c-0.9-0.7-1.4-1.4-1.5-2.2c0.1,0,0.3,0,0.4,0c2.3,0.5,4.8,0.6,7.2,0.5
		c4.7-0.5,8.4-1.8,10.9-4.1c0.8-0.8,1.4-1.5,2-2.2c0.6-0.8,1-1.4,1.2-1.9c0.2-0.5,0.3-0.8,0.5-1.1c0.1-0.4,0.2-0.7,0.3-0.8
		c0.2,0.1,0.3,0.1,0.4,0.1c0.2,0.1,0.3,0.2,0.4,0.4c0,0,0.1,0,0.2,0C113.3,2.7,113.7,3,114.1,3.4z"/>
	<path class="st9" d="M114.6,16c-0.2,0.5-0.3,1.1-0.5,1.8c-0.3,0.9-0.7,1.6-1.1,2c-0.2,0-0.3,0.1-0.4,0.2c-0.6-0.3-1-0.6-1.4-1
		c1.4-2,2.3-4,2.8-5.8c0.3-1.1,0.6-2.6,0.9-4.6c0.2-1.7,0.4-2.9,0.6-3.8c0.5,0.7,1,1.5,1.4,2.2c1,1.9,1.5,3.9,1.5,6
		c0,2.3-0.6,4.2-1.8,5.7l-0.2,0.2c0-1-0.1-1.7-0.2-2.2c-0.1-0.8-0.4-1.4-1-1.9C115,15.4,114.8,15.7,114.6,16z"/>
	<path class="st10" d="M126.3,202.3c-0.6,0.9-1.4,1.5-2.5,2c-0.9,0.4-2,0.5-3.2,0.5h-0.3c0-5.5,0.1-10.9,0.1-16.2
		c0.1-5.6-0.2-11.2-0.9-16.8c-0.7-5.3-1.8-10.6-3.4-15.8c-1.5-5-2.3-10.2-2.3-15.5c0-5,0.1-10,0.5-15c0.4-5.6,0.2-11.1-0.7-16.5
		c-0.2-1.1-0.4-2.3-0.5-3.4c4.7-0.5,10.1-1.5,16.2-2.8c0.3,0,0.6-0.1,0.9-0.2c0.2,1.4,0.3,2.8,0.4,4c0.1,2.7-0.2,5.2-0.8,7.4
		c-0.7,4.4-1.5,10.7-2.3,19.1c-0.9,8.6-1.8,14.9-2.4,19c0,1.8,0.3,3.8,1,6c0.3,1.1,1,3,2,5.8c1,2.4,1.6,4.3,2,5.8
		c0.6,2.2,0.8,4.2,0.5,6.1c-0.5,2.1-1.1,5-1.9,8.9c0,0.1,0,0.3-0.1,0.4l-1,16.5L126.3,202.3z"/>
	<path class="st10" d="M102.3,35.4c0.9,1,1.8,1.4,2.6,1.2l0.4,0.8c0.4,1.3,0.2,2.5-0.7,3.4c-0.3,0.2-0.5,0.5-0.5,0.7
		c-0.2,0-0.5,0-0.8,0.1c-0.4,0-0.9-0.1-1.4-0.3c-0.1,0-0.2-0.1-0.2-0.1c0-0.6,0-1.1,0-1.5c0,0,0,0,0,0c0-0.1,0-0.2,0-0.2
		c0-0.2,0-0.5,0-0.8c0.1-0.6,0.2-1.2,0.3-1.8l0-0.1l0.1-0.4c0-0.2,0.1-0.3,0.1-0.4V35.4z"/>
	<path class="st10" d="M102.6,109.1c0.9,0.7,1.8,1.3,2.8,1.9c0.4,0.2,0.7,0.4,1.1,0.5l0.8,33.2c-0.1,0.3-0.5,1.9-1.2,4.9
		c-0.5,2-0.7,3.7-0.8,5c0.5,2,1.3,5.1,2.5,9.2c0.9,3.7,1.3,6.8,1.1,9.3c-0.6,2.4-1.1,4.7-1.5,6.8c-1,6.1-1,12,0,17.8l-1,0.6
		c-1,0.5-1.9,1-2.6,1.4v-84.3C103.8,113.2,103.4,111,102.6,109.1z"/>
	<path class="st11" d="M86.5,84.4c1.4,1,2.4,2.4,3.2,4.2l-0.5,0.8c-0.2,0.4-0.4,0.8-0.7,1.2c-0.1,0.1-0.3,0.2-0.4,0.3
		c-0.5,0.5-0.9,1.1-1.3,1.8c0,0,0.1,0.1,0.1,0.1c-0.3,0-0.5-0.1-0.7-0.3c-0.1-0.2-0.3-0.6-0.4-1.2c-0.1-0.7-0.3-1.1-0.4-1.3
		c-0.3-0.4-0.7-0.5-1.3-0.3c-0.6,0.2-1.3,0.5-2.2,0.7c-0.5,0.1-1.3,0.3-2.4,0.5c-0.5,0.1-1,0.3-1.4,0.5L76,87.1
		c1.5-1.7,2.8-2.8,4.1-3.3c0.1,0,0.2-0.1,0.2-0.1c1.9-0.9,3.8-0.8,5.5,0.3C86.1,84.1,86.3,84.2,86.5,84.4z"/>
	<path class="st11" d="M117.3,23.3c0.3,0.9,0.3,1.6-0.1,2.1c-0.3,0.6-0.8,1.2-1.5,1.8c-0.7,0.6-2.2,1.9-4.5,3.8
		c-1.8,1.3-3.4,2.2-4.8,2.6c1-1,1.8-1.8,2.4-2.4c1.1-0.9,1.9-1.7,2.5-2.4c1.5-2.1,2-4.2,1.5-6.3c1.1,0.3,1.9,0,2.4-0.7
		c0.7-1,1.1-1.9,1.1-2.7l0.2-0.2c0.1,0.6,0.2,1.2,0.3,1.9C117,21.5,117.1,22.3,117.3,23.3z"/>
	<path class="st11" d="M105.5,33.9c-0.7,0.6-0.9,1.5-0.5,2.7c-0.8,0.2-1.7-0.2-2.6-1.2V34C103.5,34,104.6,34,105.5,33.9z"/>
	<path class="st12" d="M101.5,38.3c0.3-0.5,0.5-1,0.6-1.5c-0.1,0.6-0.2,1.2-0.3,1.8C101.7,38.4,101.6,38.3,101.5,38.3z"/>
	<path class="st10" d="M126.9,206.5c-2.7,1.2-5.2,1.6-7.5,1.1c-2.2-0.5-3.3-0.9-3.2-1.2c0.2-0.3,0.3-0.6,0.4-0.8c0-0.1,0-0.1,0-0.1
		c0-0.5,0-1,0-1.7c0.3,0.1,0.5,0.2,0.8,0.4c1,0.2,2,0.4,3,0.6h0.3c1.2,0,2.2-0.2,3.2-0.5c1-0.5,1.8-1.1,2.5-2c0.2,0.9,0.3,1.9,0.4,3
		C126.8,205.8,126.8,206.2,126.9,206.5z"/>
	<path class="st10" d="M127.1,214.7c0,0.1,0,0.2,0,0.3c0,0.7,0.1,1.1,0.1,1.4c-0.4,0.5-0.9,0.9-1.5,1.4c-0.3,0.2-0.9,0.5-1.7,0.9
		c-1.5,2.2-4.1,3.3-7.6,3.3c-1.2,0-2.7-0.2-4.6-0.5c-2-0.3-3.4-0.5-4.2-0.7c-0.1-0.5-0.1-0.9-0.1-1.3c0-0.2,0-0.5,0-0.7
		c0-0.1,0-0.2,0.1-0.3c2.5,0.9,5.2,1.4,8.2,1.3c1.7-0.3,3.1-0.7,4.1-1.1c1-0.5,2-1.2,3-2.1c0.8-0.8,2-1.5,3.4-2.1
		c0.3-0.1,0.6-0.3,0.9-0.4C127.1,214.3,127.1,214.5,127.1,214.7z"/>
	<path class="st10" d="M107.3,202.2c-1.1,0.6-2.3,1.1-3.5,1.4v-3.8c0.8-0.4,1.7-0.8,2.6-1.4c0,0.5,0.2,1.2,0.4,2.2
		c0.1,0.1,0.1,0.4,0.1,0.7c0.1,0.2,0.2,0.3,0.2,0.5c0,0,0,0.1,0,0.2C107.3,202,107.3,202.1,107.3,202.2z"/>
	<path class="st10" d="M103.8,208.7c2-0.6,3.6-1,4.8-1.1c0,0,0,0.1,0,0.1c0,0,0,0.1,0,0.1l0,0.2c0,0.1,0,0.1,0,0.2l0.3,2
		c0.1,0.5,0.1,1,0.1,1.4c0,0.2,0,0.4,0,0.6c-0.9,0.6-2.1,1.3-3.6,2c-0.2,0.1-0.5,0.1-0.7,0.2l-1.8,0.2c0.4-1.6,0.6-3.2,0.6-4.9
		V208.7z"/>
	<path class="st6" d="M107.5,218.5c0.1-0.6,0.4-1,0.9-1.5l1.2-1.2c1.2-1.1,2.3-2.3,3.2-3.4c0.1-0.1,0.1-0.2,0.2-0.3
		c0.3-0.6,0.7-1.3,1.2-2.2c0.9-1.3,1.4-2.1,1.5-2.4c0.2-0.4,0.3-0.8,0.5-1c-0.1,0.3,1,0.7,3.2,1.2c2.3,0.4,4.8,0.1,7.5-1.1
		c0.1,0.8,0.1,1.8,0.1,2.8c0,1.1,0,2.1,0,2.9c0.1,0.2,0.1,0.5,0,0.8c0.1,0.4,0.1,0.8,0.1,1.2c-0.3,0.1-0.6,0.2-0.9,0.4
		c-1.4,0.6-2.5,1.3-3.4,2.1c-1,0.9-2,1.6-3,2.1c-1,0.5-2.4,0.8-4.1,1.1C112.7,219.9,109.9,219.5,107.5,218.5z"/>
	<path class="st6" d="M103.8,203.6c1.2-0.3,2.4-0.8,3.5-1.4c0.1,0.3,0.1,0.6,0.2,0.9c0.2,0.8,0.4,1.6,0.7,2.5c0.2,0.7,0.4,1.3,0.5,2
		c-1.2,0.1-2.8,0.5-4.8,1.1V203.6z"/>
	<path class="st6" d="M109.3,212.9c-1.1,0.7-2.6,1.2-4.3,1.6c0.2-0.1,0.5-0.1,0.7-0.2c1.5-0.7,2.7-1.4,3.6-2
		C109.3,212.4,109.3,212.7,109.3,212.9z"/>
	<path class="st13" d="M102,217.9c0.5-1.1,0.9-2.1,1.2-3.2l1.8-0.2c1.7-0.3,3.2-0.8,4.3-1.6l0.3,3l-1.2,1.2
		c-2.6,0.5-4.5,0.8-5.6,0.8C102.5,217.9,102.2,217.9,102,217.9z"/>
	<path class="st13" d="M127.2,216.4c0.3,1.3,0.2,2.5-0.3,3.5c-0.6,1.1-1.6,1.7-3,1.7c-2,1.2-4.5,1.8-7.6,1.8c-0.8,0-3.5-0.2-8-0.6
		c-0.4,0-0.7-0.2-0.8-0.6c0-0.2,0-0.6,0-1.2c0.9,0.1,2.3,0.4,4.2,0.7c1.9,0.3,3.4,0.5,4.6,0.5c3.5,0,6.1-1.1,7.6-3.3
		c0.8-0.4,1.4-0.8,1.7-0.9C126.3,217.3,126.8,216.8,127.2,216.4z"/>
	<path class="st14" d="M111.9,1.8c-0.1,0.1-0.2,0.4-0.3,0.8c-0.2,0.3-0.3,0.6-0.5,1.1c-0.2,0.4-0.7,1.1-1.2,1.9
		c-0.5,0.7-1.2,1.5-2,2.2c-2.5,2.3-6.2,3.6-10.9,4.1c-2.5,0.2-4.9,0-7.2-0.5c-0.1,0-0.3,0-0.4,0v-0.1c2.2-3.1,4.8-5.5,7.7-7.4
		c3.1-2,6.4-3.1,9.9-3.3C108.8,0.6,110.4,1,111.9,1.8z"/>
	<path class="st14" d="M115.5,5c-0.2,0.8-0.4,2.1-0.6,3.8c-0.3,2-0.6,3.5-0.9,4.6c-0.5,1.8-1.4,3.7-2.8,5.8
		c-1.5-1.1-2.4-2.3-2.7-3.7c-0.2-0.8-0.2-1.6,0.1-2.4c0.2,0,0.4-0.2,0.6-0.5c0.3-0.4,0.7-1.2,1.3-2.2c0.6-1,1.2-2,1.8-3.1
		c0.6-1.1,1.1-2.4,1.8-3.7C114.6,3.9,115.1,4.4,115.5,5z"/>
	<path class="st15" d="M100.2,95.1c1.4-0.5,2.3-0.9,2.7-1.1c0.3,0.1,1.4-0.1,3.2-0.7c1.3-0.4,2-0.7,2.4-0.8h0.1l0.2,0
		c0.1-0.1,0.1-0.3,0.2-0.5c0.5-0.9,0.7-1.7,0.8-2.5c0-0.9-0.1-1.8-0.5-2.6c-0.8-1.7-2.2-2.3-4-1.8c0.2,0.3,0.6,0.7,1.4,1.3
		c1.1,0.8,1.6,1.5,1.6,2.1c0.2,1.9-2.4,3.8-7.8,5.7c-0.6,0.2-1.1,0.4-1.7,0.6l-3.7-0.6l1.6-1c0.3-0.2,0.5-0.4,0.9-0.5
		c0.2-0.2,0.4-0.4,0.6-0.7c1-1,1.4-1.7,1.4-2l-0.1-0.4c-1.1,0.1-2.8,1-5,2.8c-0.6,0.5-1.1,0.9-1.5,1.4l-1.5-0.2c0,0,0.1-0.1,0.1-0.1
		c1.9-1.9,3.2-3.4,4.1-4.5c-0.7,0-2,0.6-3.6,1.9l0.5-2c0.4-0.4,0.8-0.7,1-1c-0.1-0.1-0.4-0.2-0.7-0.1l0-0.1c1-2.7,1.8-5.6,2.2-8.6
		c0.9,0.3,1.8,0.6,2.8,0.9c1.8,0.5,5.3,0.7,10.5,0.5c5.2-0.3,7.8-2.6,7.8-6.8c0.1-3.5,0.7-6.9,1.8-10.2c1-2.8,1.2-5.5,0.8-8.2
		c-0.8-4.8,0-9.3,2.4-13.5c2.9-5.2,7.1-7,12.5-5.5c0,0,0.1,0,0.1,0c1.4,1.2,2.3,2.6,2.8,4.1c0,0,0-0.1,0-0.1
		c-2.1-3.1-4.6-4.1-7.4-3.2c-0.8,0.3-1.7,0.8-2.6,1.5c-2.7,1.9-4.3,4.2-5,6.9c-0.2,1.1-0.3,2.3-0.2,3.5c0.2,0.3,0.3,0.6,0.5,1
		c1.5,3.1,2.5,7.1,2.8,12.1c0.1,1.5,0.2,3.8,0.3,6.9c0.2,2.7,0.4,4.9,0.8,6.7v0c-0.2,0.1-0.4,0.2-0.7,0.3c-0.6,0.2-1.2,0.4-2,0.8
		c-1.6,0.7-3.3,1.5-5.2,2.5c-3,1.4-4.7,2.3-5,2.7c1.4,0.6,2.4,1.6,3.1,2.9c0.1,0.3,0.2,0.6,0.3,0.9c0.6,1.7,0.5,3.6-0.2,6
		c2.2-0.7,4.4-1.4,6.5-2.1c1.4-0.4,3.3-1.1,5.5-2.1c0.3,0,0.5-0.1,0.8-0.2c1.2,4,2.1,7.1,2.5,9.5c0.7,3.1,0.2,5-1.5,5.6
		c-0.3,0.1-0.6,0.2-0.9,0.2c-6,1.4-11.4,2.3-16.2,2.8c-4.9,0.6-9,0.7-12.5,0.4c-0.6-0.8-1.4-1.5-2.2-2.2c-1.7-1.5-3.6-2.5-5.6-3
		c-0.8-0.2-1.6-0.3-2.4-0.4l-0.2,0l13.8-2.5c0.6,0,1-0.3,1.2-0.9l-0.1-0.8v-0.1l-0.6-0.2L100.2,95.1z"/>
	<polygon class="st16" points="100.6,32.1 100.6,32 100.6,32 	"/>
	<polygon class="st17" points="26.3,100 58,105.7 58,114.7 55,114.2 26.5,109.1 26.3,109 	"/>
	<polyline class="st17" points="18.2,230 18.2,227.7 18.2,221.1 49.9,226.8 49.9,235.8 33.7,233 	"/>
	<path class="st18" d="M49.9,226.8l-31.7-5.7l36.2-6.5h0c2.4-0.4,4.5-1.7,6.1-3.8l0.1,0c1.7-2,2.6-4.3,2.6-6.7v-11.5v-6.6v-72.3
		l24.4-4.4c0.4-0.1,0.7-0.1,1-0.1c1.6-0.1,3,0.4,4.2,1.3h0c0.3,0.3,0.6,0.6,0.8,0.9c0.8,1.1,1.2,2.4,1.2,4v94.3
		c0,0.6-0.1,1.2-0.2,1.8c-0.3,1.5-0.9,3-1.9,4.3c-0.2,0.2-0.4,0.5-0.5,0.7l-0.1,0c-0.4,0.5-0.8,0.9-1.3,1.3
		c-1.4,1.3-3.1,2.1-4.9,2.4H86L49.9,226.8z"/>
	<path class="st10" d="M80.1,99.2l0.4,0.7c0.3,0.6,0.1,0.9-0.5,0.8l-32.2-6.3l-0.4-0.1c-0.6-0.1-1.1-0.5-1.4-1.2L33.5,68.6
		c-0.3-0.6-0.1-0.9,0.5-0.8l1.2,0.2l31.4,6.1c0.6,0.1,1.1,0.5,1.5,1.2L80.1,99.2z"/>
	<polygon class="st19" points="78.3,41.7 31.2,33 31.2,60.1 78.3,68.7 	"/>
	<polygon class="st20" points="71.5,45.6 37,39.3 37,47.8 71.5,54.2 	"/>
	<polygon class="st21" points="71.5,45.6 37.8,39.4 37.8,47.2 71.5,53.4 	"/>
	<path class="st22" d="M69.5,48.5c0.1-0.9,0.1-1.5,0.1-1.8l-0.9-0.2c0,0.5,0.1,1.1,0.2,1.9c-0.4-0.3-1-0.7-1.5-1l-0.3,1
		c0.6,0.3,1.1,0.5,1.6,0.7c-0.3,0.2-0.6,0.6-1.1,1.2l0.8,0.8c0.3-0.3,0.5-0.8,0.9-1.4c0.3,0.8,0.6,1.3,0.8,1.8l0.8-0.5
		c-0.5-0.8-0.9-1.3-1.1-1.6c0.6,0,1.1-0.1,1.6-0.1L71,48.1C70.3,48.3,69.8,48.4,69.5,48.5z M61.7,46.4l-0.3,1
		c0.6,0.3,1.1,0.5,1.6,0.7c-0.3,0.2-0.6,0.6-1.1,1.2l0.8,0.8c0.3-0.3,0.5-0.8,0.9-1.4c0.3,0.8,0.6,1.3,0.8,1.8l0.8-0.5
		c-0.5-0.8-0.9-1.3-1.1-1.6c0.6,0,1.1-0.1,1.6-0.1l-0.3-1.1c-0.7,0.2-1.2,0.3-1.5,0.4c0.1-0.9,0.1-1.5,0.1-1.8L63,45.5
		c0,0.5,0.1,1.1,0.2,1.9C62.8,47.1,62.2,46.7,61.7,46.4z M57.4,44.5c0,0.5,0.1,1.1,0.2,1.9c-0.4-0.3-1-0.7-1.5-1l-0.3,1
		c0.5,0.3,1.1,0.5,1.6,0.7c-0.3,0.2-0.6,0.6-1.1,1.2L57,49c0.3-0.3,0.5-0.8,0.9-1.4c0.3,0.8,0.6,1.3,0.8,1.8l0.8-0.5
		c-0.5-0.8-0.9-1.3-1.1-1.6c0.6,0,1.1-0.1,1.6-0.1L59.7,46c-0.7,0.2-1.2,0.3-1.5,0.4c0.1-0.9,0.1-1.5,0.1-1.8L57.4,44.5z M46.1,42.4
		c0,0.5,0.1,1.1,0.2,1.9c-0.5-0.3-1-0.7-1.5-1l-0.3,1c0.5,0.3,1.1,0.5,1.6,0.7c-0.3,0.2-0.6,0.6-1.1,1.2l0.8,0.8
		c0.2-0.3,0.5-0.8,0.9-1.4c0.3,0.8,0.6,1.3,0.8,1.8l0.8-0.5c-0.5-0.8-0.9-1.3-1.1-1.6c0.6,0,1.1-0.1,1.6-0.1L48.4,44
		c-0.7,0.2-1.2,0.3-1.5,0.4c0.1-0.9,0.1-1.5,0.1-1.8L46.1,42.4z M39,42.2l-0.3,1c0.5,0.3,1.1,0.5,1.6,0.7c-0.3,0.2-0.6,0.6-1.1,1.2
		l0.8,0.8c0.2-0.3,0.5-0.8,0.9-1.4c0.3,0.8,0.6,1.3,0.8,1.8l0.8-0.5c-0.5-0.8-0.9-1.3-1.1-1.6c0.6,0,1.1-0.1,1.6-0.1l-0.3-1.1
		c-0.7,0.2-1.2,0.3-1.5,0.4c0.1-0.9,0.1-1.5,0.1-1.8l-0.9-0.2c0,0.5,0.1,1.1,0.2,1.9C40.1,42.9,39.6,42.6,39,42.2z M50.4,44.3
		l-0.3,1c0.5,0.3,1.1,0.5,1.6,0.7c-0.3,0.2-0.6,0.6-1.1,1.2l0.8,0.8c0.2-0.3,0.5-0.8,0.9-1.4c0.3,0.8,0.6,1.3,0.8,1.8l0.8-0.5
		c-0.5-0.8-0.9-1.3-1.1-1.6c0.6,0,1.1-0.1,1.6-0.1L54,45c-0.7,0.2-1.2,0.3-1.5,0.4c0.1-0.9,0.1-1.5,0.1-1.8l-0.9-0.2
		c0,0.5,0.1,1.1,0.2,1.9C51.4,45,50.9,44.6,50.4,44.3z"/>
	<polygon class="st23" points="68,56.2 40.8,51.2 40.8,57.8 68,62.7 	"/>
	<polygon class="st24" points="67.4,56.8 40.2,51.8 40.2,58.3 67.4,63.3 	"/>
	<path class="st21" d="M49.2,54.9c0.3-0.3,0.8-0.4,1.4-0.3c0.6,0.1,1.1,0.4,1.5,0.9c0.3,0.5,0.5,1,0.5,1.7c0,0.5-0.1,0.9-0.2,1.2
		c-0.1,0.3-0.4,0.5-0.6,0.6c-0.3,0.1-0.6,0.2-1.1,0.1c-0.4-0.1-0.8-0.2-1.1-0.4c-0.3-0.2-0.5-0.5-0.7-0.9c-0.2-0.4-0.3-0.8-0.3-1.3
		C48.7,55.8,48.9,55.3,49.2,54.9z M50.7,55.6c-0.2,0-0.4,0-0.6,0.2c-0.1,0.2-0.2,0.5-0.2,0.9c0,0.4,0.1,0.8,0.2,1
		c0.1,0.2,0.3,0.4,0.6,0.4c0.3,0,0.4,0,0.6-0.2c0.1-0.2,0.2-0.5,0.2-1c0-0.4-0.1-0.7-0.2-0.9C51.1,55.8,50.9,55.7,50.7,55.6z
		 M53.5,55.2l1.2,0.2V57l1.2-1.4l1.6,0.3L56,57.3l1.4,3L56,60l-0.8-1.9l-0.6,0.6v1.1l-1.2-0.2V55.2z"/>
	<g>
		<path class="st25" d="M54,31.2c-0.1,0.1-0.1,0.1-0.2,0.2c-0.2,0.3-0.2,0.5-0.2,0.7c0,0.1,0.1,0.2,0.4,0.3c0.3,0.1,0.4,0.3,0.5,0.6
			c0,0.1,0,0.3,0.1,0.7c0,0.3,0.1,0.6,0.1,0.7c0.1,0.2,0.3,0.5,0.7,1c0.4,0.5,0.6,0.9,0.7,1.1c0,0.3,0,0.7,0,1.1c0.2,0,0.3,0,0.5,0
			c0-0.1,0-0.2,0.1-0.3c0.1-0.3,0.1-0.5,0.1-0.6c0-0.5-0.3-1.1-0.9-1.7c-0.6-0.6-0.9-1.3-0.9-2.1c0-0.1,0-0.2,0.1-0.3
			c0.1-0.2,0.1-0.3,0.2-0.3c0,0.1,0.1,0.2,0.1,0.3c0-0.1,0.1-0.3,0.2-0.5c0.2-0.4,0.2-0.7,0.2-0.9c0,0,0-0.1,0-0.1
			c0,0.2-0.1,0.3-0.1,0.4c-0.1-0.1-0.2-0.2-0.3-0.5c-0.2-0.2-0.4-0.3-0.8-0.1C54.3,31,54.2,31.1,54,31.2z M54.3,31.6
			c0.2-0.2,0.4-0.2,0.5-0.1c0.1,0.3,0.2,0.4,0.2,0.4l-0.1,0.2c-0.1,0-0.1,0-0.1,0c0,0,0.1,0,0.1,0c0,0.1,0,0.1,0,0.1c0,0,0,0-0.1,0
			l0,0c0,0-0.1,0.1-0.2,0.1c-0.1,0-0.3,0-0.5-0.1c-0.2-0.1-0.3-0.2-0.3-0.4c0-0.1,0-0.2,0-0.3c0-0.1,0.1-0.1,0.1-0.2
			C54.1,31.5,54.2,31.5,54.3,31.6z M56.8,37.7c0,0,0.1,0,0.1,0c0,0,0-0.1,0-0.1c0,0,0,0.1,0,0.1C56.9,37.7,56.8,37.7,56.8,37.7z
			 M53.9,40.8c0.1,0,0.3-0.1,0.5-0.2c0.1-0.1,0.3-0.1,0.4-0.2c0.1-0.1,0.1-0.2,0.1-0.3c0-0.1,0-0.1,0-0.2c0,0,0-0.1,0-0.1
			c0,0-0.1,0-0.1-0.1c0,0,0,0,0.1,0c0,0-0.1,0.1-0.2,0.1c-0.2,0.1-0.3,0.2-0.4,0.2c-0.5,0.2-1,0.1-1.6-0.2c-0.5-0.3-0.7-0.6-0.7-0.9
			c0-0.1,0-0.2,0-0.2c0,0,0,0,0.1-0.1c0,0,0.1,0,0.2,0.1c0,0,0,0.1,0.1,0.1c0,0,0-0.1-0.1-0.1l0-0.1c0,0,0.1,0,0.4,0.1
			c0.2,0,0.3,0,0.4,0c0.1-0.2,0.2-0.4,0.2-0.4l0,0c0,0,0,0,0,0.1c0,0-0.1,0.1-0.1,0.1c-0.3,0.1-0.6-0.1-1-0.4
			c-0.2-0.2-0.3-0.3-0.4-0.4c-0.1,0.4-0.1,0.9,0,1.4c0.1,0.5,0.3,1,0.6,1.3C52.7,40.9,53.2,41,53.9,40.8z"/>
		<path class="st26" d="M54.3,40.7c0.1,0.1,0.2,0.2,0.4,0.4c0.1,0.1,0.2,0.1,0.2,0.2c0.1-0.1,0.1-0.2,0.1-0.3
			c0.1-0.2,0.1-0.4,0.1-0.6c0-0.3,0-0.5-0.1-0.6c-0.1-0.2-0.3-0.3-0.5-0.2c0,0,0,0,0,0c0,0.1-0.1,0.1-0.1,0.2c0,0,0,0,0,0
			c0.1,0,0.1,0.1,0.1,0.1c0,0,0.1,0,0.1,0.1c0,0,0,0.1,0,0.1c0,0.1,0,0.1,0,0.2c0,0.1-0.1,0.2-0.1,0.3
			C54.6,40.6,54.5,40.6,54.3,40.7z"/>
		<path class="st20" d="M55,41.2c-0.1-0.1-0.1-0.1-0.2-0.2c-0.2-0.1-0.3-0.3-0.4-0.4c-0.2,0.1-0.3,0.1-0.5,0.2c0,0,0,0,0,0.1
			c0,0.2,0.1,0.3,0.2,0.5c0.2,0.2,0.3,0.2,0.5,0.2C54.7,41.5,54.9,41.4,55,41.2z M54.6,39.7c0.1-0.1,0.1-0.2,0.1-0.2c0,0,0,0,0,0
			l0,0c-0.2,0.1-0.4,0.2-0.5,0.4C54.3,39.8,54.4,39.8,54.6,39.7C54.6,39.7,54.6,39.7,54.6,39.7z"/>
		<path class="st27" d="M55.6,31.2c-0.1-0.6-0.5-0.7-1.1-0.4c0,0-0.1,0-0.1,0.1c-0.1,0.1-0.2,0.2-0.3,0.3c0,0,0,0,0,0
			c0.2-0.1,0.3-0.2,0.4-0.2c0.4-0.1,0.6-0.1,0.8,0.1c0.1,0.3,0.2,0.4,0.3,0.5C55.5,31.5,55.5,31.3,55.6,31.2z M56.5,37.7
			C56.6,37.7,56.6,37.7,56.5,37.7l0.3,0c0,0,0.1,0,0.1,0c0,0,0-0.1,0-0.1l0,0c0-0.1,0-0.1,0-0.2v-0.6c0,0,0,0,0,0c0,0,0,0,0,0
			c0,0,0,0,0,0c0-0.3-0.1-0.5-0.1-0.5c-0.1-0.4-0.3-0.9-0.8-1.3c-0.5-0.4-0.8-1.1-0.9-2.2c0,0,0-0.1,0.1-0.2c0-0.1-0.1-0.2-0.1-0.3
			c0,0-0.1,0.1-0.2,0.3c-0.1,0.2-0.1,0.3-0.1,0.3c0,0.8,0.3,1.5,0.9,2.1c0.6,0.6,0.9,1.2,0.9,1.7c0,0.1,0,0.3-0.1,0.6
			C56.6,37.5,56.6,37.6,56.5,37.7z M54.8,32.2c-0.2,0-0.4,0-0.5-0.1c-0.1,0-0.1-0.1-0.1-0.1c0-0.1,0-0.2,0-0.2l0,0
			c0.1-0.1,0.1-0.1,0.2-0.1c-0.1,0-0.2-0.1-0.3-0.1c0,0,0,0.1-0.1,0.2c0,0.1,0,0.2,0,0.3c0,0.1,0.1,0.3,0.3,0.4
			c0.2,0.1,0.4,0.1,0.5,0.1c0.1,0,0.2-0.1,0.2-0.1l0,0c0,0,0.1,0,0.1,0c0,0,0,0,0-0.1C54.9,32.2,54.8,32.2,54.8,32.2z M53.2,38.6
			c0,0-0.1-0.1-0.2-0.1c0,0,0,0,0,0c0,0,0,0,0,0c0,0,0,0-0.1,0c0,0,0,0-0.1,0c-0.1,0-0.1-0.1-0.2-0.1c0,0,0,0,0,0
			c-0.4-0.2-0.6-0.5-0.7-0.7l-0.1,0c0,0-0.1,0-0.2,0c0,0.1,0,0.2-0.1,0.3c0.1,0.1,0.2,0.3,0.4,0.4c0.4,0.3,0.7,0.5,1,0.4
			C53.2,38.7,53.2,38.7,53.2,38.6C53.2,38.6,53.2,38.6,53.2,38.6z M52.3,39.1c0,0,0-0.1-0.1-0.1c-0.1-0.1-0.2-0.1-0.2-0.1
			c0,0-0.1,0.1-0.1,0.1c0,0,0,0.1,0,0.2c0,0.3,0.2,0.6,0.7,0.9c0.5,0.3,1,0.4,1.6,0.2c0.1,0,0.2-0.1,0.4-0.2c0.1,0,0.1-0.1,0.2-0.1
			c0,0,0,0-0.1,0c0,0-0.1-0.1-0.1-0.1c0,0,0,0,0,0c0,0,0,0,0,0c-0.1,0.1-0.3,0.1-0.4,0.2c-0.5,0.2-1,0.1-1.4-0.1
			c0,0-0.1-0.1-0.1-0.1C52.6,39.5,52.4,39.3,52.3,39.1z"/>
	</g>
	<g>
		<path class="st28" d="M54.6,31.7c-0.1,0-0.1,0-0.1-0.1V3.2c0-0.1,0.1-0.2,0.1-0.2c0.1,0,0.1,0,0.1,0.1v28.4
			C54.7,31.6,54.7,31.7,54.6,31.7z"/>
	</g>
	<polygon class="st29" points="113.2,82 105.4,85.2 109.4,87 109.9,89.6 108.7,92.6 116.4,91.7 120.8,87.9 118.3,84.2 	"/>
	<path class="st0" d="M116.3,84.9c-0.7-1.3-1.7-2.3-3.1-2.9c0.3-0.4,2-1.3,5-2.7c1.9-1,3.6-1.8,5.2-2.5c0.7-0.3,1.3-0.6,2-0.8
		c0.3-0.1,0.5-0.2,0.7-0.3v0c-0.3-1.8-0.6-4-0.8-6.7c-0.1-3.1-0.2-5.4-0.3-6.9c-0.4-5-1.3-9-2.8-12.1c-0.1-0.3-0.3-0.7-0.5-1
		c-0.1-1.3-0.1-2.5,0.2-3.5c0.7-2.7,2.3-5,5-6.9c1-0.7,1.8-1.1,2.6-1.5c1.5,0.1,2.1,1.6,1.9,4.3c-0.7,3.1-0.8,6.4-0.2,9.8
		c0.5,3.4,0.8,6.5,1,9.2c0,0.2,0,0.4,0,0.5c0.1,1.1,0.1,2,0.2,2.8c0,0.2,0.1,0.4,0.1,0.5c0.1,0.7,0.2,2.8,0.2,6.4
		c0.1,3.6-1.1,6.1-3.4,7.7c-0.8,0.5-1.6,1.1-2.4,1.6c-1.6,0.9-3.3,1.8-5.1,2.6C119,83.8,117.2,84.6,116.3,84.9z"/>
	<path class="st1" d="M129.2,87.4c-0.3,0.1-0.5,0.1-0.8,0.2c-2.3,1-4.1,1.7-5.5,2.1c-2.1,0.7-4.2,1.4-6.5,2.1c0.8-2.3,0.8-4.3,0.2-6
		c-0.1-0.3-0.2-0.5-0.3-0.9c0.9-0.4,2.7-1.1,5.4-2.3c1.8-0.8,3.5-1.7,5.1-2.6c0.8-0.5,1.7-1,2.4-1.6c2.3-1.6,3.5-4.1,3.4-7.7
		c0-3.6-0.1-5.7-0.2-6.4c0-0.2-0.1-0.3-0.1-0.5c-0.1-0.7-0.1-1.7-0.2-2.8c0-0.2,0-0.3,0-0.5c-0.2-2.7-0.5-5.8-1-9.2
		c-0.5-3.4-0.4-6.7,0.2-9.8c0.2-2.7-0.4-4.2-1.9-4.3c2.8-1,5.3,0.1,7.4,3.2c0,0,0,0.1,0,0.1c0.8,1.9,1.2,4.2,1.2,7
		c0,1.6,0,4-0.1,7.2c0.5,3.2,0.8,7.2,0.8,11.8c0,2.6,0,6.6,0,11.9c0,2.6-1.2,4.8-3.4,6.5C133.8,86.1,131.7,87,129.2,87.4z"/>
	<path class="st11" d="M105.4,85.2l-13.1,2.9c0,0,2,8.6,10.7,5.9S110.9,86.9,105.4,85.2z"/>
	<path class="st7" d="M108.7,92.6L108.7,92.6c-0.4,0.1-1.2,0.3-2.5,0.8c-1.9,0.5-3,0.8-3.2,0.7c-0.5,0.2-1.4,0.6-2.7,1.1
		c-0.6,0.2-1.4,0.5-2.2,0.8c-0.1,0-0.2,0.1-0.3,0.1c-1.4,0.4-2.3,0.6-2.5,0.5c1-0.5,2.3-1,3.8-1.6c0.5-0.2,1.1-0.4,1.7-0.6
		c5.4-1.9,8-3.8,7.8-5.7c0-0.6-0.6-1.3-1.6-2.1c-0.8-0.6-1.2-1-1.4-1.3c1.8-0.6,3.1,0,4,1.8c0.4,0.8,0.5,1.7,0.5,2.6
		c0,0.7-0.3,1.5-0.8,2.5C109,92.2,108.9,92.4,108.7,92.6z"/>
	<path class="st7" d="M93,94.2c0.1-0.1,0.2-0.2,0.2-0.2c0.4-0.4,1-0.9,1.5-1.4c2.2-1.8,3.9-2.7,5-2.8l0.1,0.4c0,0.3-0.4,1-1.4,2
		c-0.2,0.2-0.4,0.5-0.6,0.7c-0.3,0.1-0.6,0.2-0.9,0.5l-1.6,1l-0.7,0.4c-0.1,0-0.2,0.1-0.3,0.1c0,0-0.1,0-0.2,0.2
		c-0.1,0-0.1,0.1-0.2,0.1c-0.4,0.6-1.1,0.9-2,0.9c-0.1,0-0.2,0-0.2,0C91.9,95.5,92.3,94.9,93,94.2C92.9,94.3,92.9,94.2,93,94.2z"/>
	<path class="st7" d="M88.7,95c-0.1-0.1-0.2-0.3-0.3-0.5c0-0.1,0-0.1,0-0.2h0.1c0.2-0.3,0.4-0.6,0.7-0.9c0-0.1,0.1-0.1,0.1-0.2
		c0.5-0.5,1-1,1.8-1.6c0.4-0.3,0.8-0.6,1.1-0.8c1.7-1.2,2.9-1.9,3.6-1.9c-0.9,1.2-2.2,2.7-4.1,4.5c0,0-0.1,0-0.1,0.1
		c-0.1,0-0.1,0.1-0.2,0.2c-0.1,0.1-0.3,0.3-0.5,0.5c-0.2,0.1-0.3,0.3-0.5,0.4C89.7,95.3,89.1,95.4,88.7,95z"/>
	<path class="st7" d="M87.4,93.1c-0.2-0.1-0.3-0.2-0.5-0.2c0,0-0.1,0-0.1-0.1c0.4-0.7,0.8-1.3,1.3-1.8c0.1-0.1,0.2-0.2,0.4-0.3
		c0.4-0.3,0.9-0.7,1.5-1.1c0.5-0.3,1.3-0.8,2.3-1.4l0,0c0.1,0,0.2-0.1,0.3-0.1c0.2-0.1,0.4-0.1,0.5-0.1c0.3-0.1,0.6,0,0.7,0.1
		c-0.3,0.3-0.6,0.6-1,1c-0.7,0.6-1.6,1.4-2.7,2.2C88.9,92.2,88,92.8,87.4,93.1L87.4,93.1C87.5,93.1,87.5,93.1,87.4,93.1z"/>
	<path class="st4" d="M54.4,80.2c-1.2,0.1-2,0.6-2.5,1.4c-0.6,0.9-0.6,1.9-0.2,3c0.4,1.1,1.2,2,2.4,2.7c0.3,0.2,0.6,0.4,0.9,0.5
		c0.8,0.3,1.6,0.5,2.5,0.4c1.2-0.1,2-0.6,2.5-1.5c0.5-0.8,0.6-1.8,0.2-2.9c-0.4-1.1-1.2-2-2.3-2.8c-0.9-0.6-1.9-0.9-2.9-0.9
		C54.8,80.2,54.6,80.2,54.4,80.2z"/>
</g>
</svg>
