<?xml version="1.0" encoding="utf-8"?>
<!-- Generator: Adobe Illustrator 25.2.0, SVG Export Plug-In . SVG Version: 6.00 Build 0)  -->
<svg version="1.1" id="Layer_1" xmlns="http://www.w3.org/2000/svg" xmlns:xlink="http://www.w3.org/1999/xlink" x="0px" y="0px"
	 viewBox="0 0 198.73 236.54" style="enable-background:new 0 0 198.73 236.54;" xml:space="preserve">
<style type="text/css">
	.st0{fill-rule:evenodd;clip-rule:evenodd;fill:#AF514A;}
	.st1{fill-rule:evenodd;clip-rule:evenodd;fill:#7FD290;}
	.st2{fill-rule:evenodd;clip-rule:evenodd;fill:#0CA079;}
	.st3{fill-rule:evenodd;clip-rule:evenodd;fill:#D16658;}
	.st4{fill-rule:evenodd;clip-rule:evenodd;fill:#557C83;}
	.st5{fill-rule:evenodd;clip-rule:evenodd;fill:#76A1A3;}
	.st6{fill-rule:evenodd;clip-rule:evenodd;fill:#995F35;}
	.st7{fill-rule:evenodd;clip-rule:evenodd;fill:#784D27;}
	.st8{fill-rule:evenodd;clip-rule:evenodd;fill:#FBD6C5;}
	.st9{fill-rule:evenodd;clip-rule:evenodd;fill:#C0806F;}
	.st10{fill-rule:evenodd;clip-rule:evenodd;fill:#F4CE3C;}
	.st11{fill-rule:evenodd;clip-rule:evenodd;fill:#969471;}
	.st12{fill-rule:evenodd;clip-rule:evenodd;fill:#B5B48E;}
	.st13{fill-rule:evenodd;clip-rule:evenodd;fill:#050E15;}
	.st14{fill-rule:evenodd;clip-rule:evenodd;fill:#EFEFEF;}
	.st15{fill-rule:evenodd;clip-rule:evenodd;fill:#FFD6C4;}
	.st16{fill-rule:evenodd;clip-rule:evenodd;fill:#D7EEE7;}
	.st17{fill-rule:evenodd;clip-rule:evenodd;fill:#58B7B0;}
	.st18{fill-rule:evenodd;clip-rule:evenodd;fill:#2D8780;}
	.st19{fill-rule:evenodd;clip-rule:evenodd;fill:#D67972;}
	.st20{fill-rule:evenodd;clip-rule:evenodd;fill:#DE9A7C;}
	.st21{fill-rule:evenodd;clip-rule:evenodd;fill:#406266;}
	.st22{fill-rule:evenodd;clip-rule:evenodd;fill:#723C25;}
	.st23{fill-rule:evenodd;clip-rule:evenodd;fill:#030303;}
	.st24{fill-rule:evenodd;clip-rule:evenodd;fill:#3AADA8;}
</style>
<g>
	<ellipse class="st0" cx="33.12" cy="172.91" rx="16.21" ry="10.73"/>
	<path class="st1" d="M61.68,78.36c0.33,0.58,0.64,1.17,0.95,1.78c0.14,0.26,0.27,0.53,0.4,0.81c0.04,0.04,0.09,0.1,0.14,0.18
		l0.18,0.4c0.93,2.11,1.35,3.41,1.27,3.89c0-0.09-0.22,0.63-0.67,2.18c-0.83,1.49-2.27,2.08-4.3,1.77c-0.08,0-0.14,0-0.18,0
		c-1.24-0.26-2.78-1.16-4.62-2.7c-0.21-0.21-0.45-0.43-0.71-0.67c-0.12-0.11-0.24-0.21-0.36-0.32c-0.9-0.81-1.69-1.59-2.38-2.33
		c-0.73-0.78-1.34-1.52-1.84-2.23c-2.73-2.89-4.6-4.4-5.61-4.54c-1.32-0.22-3.31,0.62-5.99,2.5c-0.23,0.17-0.47,0.33-0.73,0.46
		c0.56-0.7,1.18-1.49,1.83-2.38c3.43-3.74,5.87-6.46,7.32-8.17c1.67-0.72,3.34-0.89,5-0.49c0.92,0.22,1.83,0.6,2.74,1.16
		c1.05,0.64,2.09,1.51,3.14,2.59c0.32,0.34,0.65,0.69,0.97,1.07c0.17,0.2,0.34,0.41,0.51,0.63c0.24,0.29,0.47,0.6,0.71,0.92
		c0.03,0.05,0.07,0.1,0.1,0.15c0.26,0.39,0.51,0.75,0.75,1.1c0.07,0.1,0.13,0.2,0.19,0.3c0.1,0.15,0.19,0.29,0.27,0.42
		C61.09,77.35,61.39,77.85,61.68,78.36z M42.3,102.33c0.08-0.18,0.17-0.35,0.28-0.51c0.72-1.03,2.08-1.66,4.09-1.87
		c1.41-0.17,2.99-0.11,4.74,0.16c0.87,0.14,1.79,0.33,2.74,0.58c0.97,0.25,1.99,0.56,3.04,0.93c4.21,1.45,7.74,3.34,10.59,5.67
		c3.25,2.59,4.9,5.19,4.94,7.78c0.01,0.08-0.01,0.63-0.08,1.65c-0.43,1.04-1.57,1.58-3.41,1.63c-1.25,0.01-2.33-0.3-3.23-0.95
		c-0.42-0.3-1.16-1.03-2.24-2.2c-0.46-0.46-0.96-0.89-1.51-1.31c-0.59-1.08-1.18-2.26-1.77-3.55c-0.75-0.93-3.34-2.27-7.76-4.02
		c-0.46-0.18-0.94-0.37-1.44-0.56c-0.96-0.37-2-0.76-3.12-1.16c-0.85-0.32-1.64-0.61-2.38-0.9C44.45,103.2,43.29,102.74,42.3,102.33
		z M54.78,130.06c-0.47-1.45-0.69-2.96-0.65-4.54c0-0.27,0-0.54,0-0.81c0.63-0.66,1.3-1.27,2.03-1.84c0.29-0.23,0.58-0.44,0.88-0.66
		c5.35-1.88,13.28,0.34,23.79,6.65c4.09,2.46,7.58,5.01,10.49,7.66c2.89,2.63,4.32,4.59,4.28,5.87l-0.12,1.37
		c-0.2,0.5-0.51,0.87-0.94,1.12c-0.43,0.24-0.98,0.35-1.64,0.33c-1.01-0.04-2.17-0.39-3.49-1.05c-0.7-0.4-1.86-1.09-3.49-2.06
		c-2.65-1.49-4.32-2.26-5.02-2.3c-1.59-0.22-3.56-0.11-5.93,0.32c-1.1,0.04-2.28-0.11-3.55-0.47c-1.42-0.4-2.93-1.06-4.56-1.97
		c-0.66-0.3-2.63-1.57-5.93-3.81c-1.67-1.08-3.08-1.97-4.24-2.68C55.95,130.75,55.31,130.36,54.78,130.06z M8.42,79.12
		c-0.35-0.04-0.66-0.11-0.93-0.2l-1.92-0.79c0-0.04-0.02-0.06-0.06-0.06c-0.52-0.44-0.68-1.22-0.46-2.32
		c0.89-4.17,2.91-5.48,6.07-3.95c0.15,0.08,0.31,0.16,0.46,0.25c2.54,1.44,5.55,4.49,9.03,9.16c2.38,3.16,4.56,6.46,6.53,9.92
		c0.73,1.27,1.43,2.56,2.1,3.87c0.21,0.42,0.41,0.82,0.59,1.21c0.76,1.56,1.36,2.91,1.8,4.04c0.17,0.43,0.32,0.83,0.44,1.2
		c-0.42-0.53-0.87-1.11-1.35-1.74c-0.71-0.91-1.49-1.91-2.34-3.02c-0.4-0.52-0.82-1.06-1.25-1.62c-0.61-0.79-1.24-1.62-1.92-2.5
		c-6.43-8.48-10.49-12.9-12.2-13.25c-0.23-0.07-0.71-0.12-1.45-0.15c-0.7-0.03-1.63-0.05-2.78-0.05C8.63,79.12,8.5,79.12,8.42,79.12
		z"/>
	<path class="st2" d="M48.71,118.59c-0.35,0.94-0.65,1.98-0.91,3.14c-0.27,1.31-0.54,2.61-0.82,3.9c-0.94,4.52-1.86,8.96-2.77,13.32
		c-0.35,1.69-1.7,9.68-4.05,23.97c-0.08,0.46-0.15,0.93-0.23,1.41c-0.54,3.32-1.14,6.96-1.78,10.92l-1.92,0.1
		c0.72-4.05,1.4-7.84,2.03-11.39c0.08-0.46,0.16-0.92,0.24-1.37c3.08-17.44,5.01-28.72,5.78-33.86c0.23-1.54,0.45-2.97,0.65-4.29
		c0.46-3.06,0.82-5.53,1.08-7.4c0.33-2.4,0.49-3.83,0.49-4.28c-0.01-0.35-0.79-1.55-2.32-3.59c-0.61-0.83-1.1-1.6-1.46-2.32
		c-0.5-1-0.76-1.9-0.78-2.7c-0.04-0.66,0.08-1.26,0.36-1.81c0.99,0.41,2.15,0.87,3.49,1.38c0.74,0.28,1.53,0.58,2.38,0.9
		c1.11,0.4,2.15,0.79,3.12,1.16c0.5,0.19,0.98,0.38,1.44,0.56c4.42,1.75,7.01,3.1,7.76,4.02c0.59,1.29,1.18,2.47,1.77,3.55
		c-1.83-1.18-4.15-1.67-6.96-1.47C52.35,112.65,50.15,114.7,48.71,118.59z M49.58,81.14c-2.19,3.08-4.21,6.2-6.07,9.38
		c-1.67,2.98-2.54,4.79-2.62,5.4c-0.19,1.22-0.42,2.73-0.69,4.52c-0.21,1.34-0.43,2.85-0.69,4.51c-0.35,2.27-0.73,4.84-1.17,7.71
		c-0.22,1.48-0.46,3.04-0.71,4.68c-0.12,0.84-0.24,1.75-0.36,2.72c0,0.03-0.01,0.06-0.01,0.09c-1.04,8.8-1.76,22.83-2.17,42.07
		c-0.01,0.45-0.02,0.9-0.03,1.36c-0.07,3.97-0.14,8.15-0.19,12.55h-2.44c0.14-4.57,0.27-8.76,0.39-12.59
		c0.01-0.46,0.03-0.91,0.04-1.35c0.54-16.67,0.88-26.04,1.02-28.1c0.34-4.9,0.73-9.13,1.17-12.67c0.11-0.86,0.22-1.67,0.33-2.45
		c0.03-0.22,0.06-0.43,0.09-0.65c0.26-1.52,0.57-3.79,0.92-6.79c0.26-2.24,0.55-4.88,0.86-7.93c0.04-0.4,0.08-0.81,0.12-1.23
		c0.05-0.79,0.13-1.93,0.23-3.41c0.01-0.16,0.02-0.32,0.03-0.48c0.05-1.71,0.1-3.02,0.14-3.95c0.17-1.98-0.4-3.71-1.71-5.2
		c-1.24-1.45-1.79-2.68-1.65-3.69c0.27-1.72,1.22-3.74,2.84-6.07c0.26-0.13,0.5-0.29,0.73-0.46c2.68-1.88,4.67-2.72,5.99-2.5
		C44.98,76.73,46.85,78.25,49.58,81.14z M43.89,164.13c-0.12,0.5-0.25,1.01-0.37,1.52c-0.82,3.35-1.7,6.97-2.63,10.88h-1.92
		c1-4.26,1.92-8.14,2.74-11.66c0.12-0.49,0.23-0.96,0.34-1.43c3.2-13.56,5.01-21.17,5.42-22.85c0.6-2.94,1.11-5.09,1.51-6.45
		c0.59-2.18,1.42-4.16,2.49-5.94c0.76-1.27,1.64-2.44,2.65-3.5c0,0.27,0,0.54,0,0.81c-0.04,1.57,0.17,3.09,0.65,4.54
		c-0.1-0.05-0.21-0.09-0.31-0.13c-0.07-0.03-0.14-0.05-0.21-0.07c-0.7,0.48-1.77,2.86-3.23,7.12
		C49.87,140.33,47.49,149.39,43.89,164.13z M28.53,163.96c0.28,5.44,0.43,9.31,0.46,11.6h-2.04c-0.27-3.78-0.52-7.46-0.74-11.04
		c-0.03-0.48-0.05-0.96-0.08-1.44c-0.35-6.24-0.61-12.17-0.78-17.79c-0.21-7.17-0.51-13.09-0.92-17.76
		c-0.12-1.4-0.25-2.69-0.39-3.86c-0.1-1.13-0.2-2.13-0.29-2.99c-0.11-1.07-0.22-1.94-0.31-2.61c-0.35-2.15-0.94-3.91-1.77-5.28
		c-0.48-0.77-1.33-1.83-2.55-3.18c-0.78-0.87-1.71-1.85-2.79-2.95c-2.02-2.11-3-3.8-2.96-5.06c0.12-1.1,0.22-2.14,0.31-3.12
		c0.35-3.47,0.57-6.15,0.68-8.04c0.01-0.16,0.02-0.32,0.03-0.47c0.01-0.2,0.01-0.39,0.02-0.58c0.09-3.81-0.67-7.11-2.29-9.89
		c-0.18-0.01-0.35-0.02-0.52-0.03c-1.23-0.08-2.28-0.2-3.17-0.35c0.08,0,0.21,0,0.38,0c1.16,0,2.08,0.02,2.78,0.05
		c0.74,0.03,1.22,0.08,1.45,0.15c1.71,0.35,5.77,4.77,12.2,13.25c0.67,0.88,1.31,1.71,1.92,2.5c0.43,0.56,0.85,1.1,1.25,1.62
		c0.85,1.11,1.63,2.12,2.34,3.02c0.49,0.63,0.94,1.21,1.35,1.74c0.39,1.24,0.54,2.12,0.44,2.64c-0.27,1.21-0.88,2.59-1.82,4.16
		c-0.43,0.73-0.94,1.49-1.52,2.29c-0.98,1.29-1.76,2.46-2.33,3.51c-0.56,1.02-0.93,1.92-1.1,2.7c-0.11,0.51-0.13,1.44-0.08,2.81
		c0.07,1.66,0.26,3.97,0.58,6.92c0.07,0.66,0.15,1.35,0.23,2.07c0.7,7.07,1.03,11.18,0.99,12.32c-0.05,0.58,0.21,6.62,0.79,18.13
		c0.07,1.25,0.13,2.45,0.19,3.58C28.48,163.06,28.5,163.52,28.53,163.96z"/>
	<path class="st3" d="M37.04,206.69c-1.14,0.15-2.33,0.22-3.57,0.21c-4.29,0.01-7.95-0.85-10.99-2.58
		c-0.43-0.26-0.83-0.51-1.21-0.77l-1.31-7.21l-2.65-14.56l-1.56-8.6v-0.01c-0.03-0.24-0.04-0.49-0.04-0.76
		c-0.01-2.8,1.71-5.2,5.18-7.2c1.6-0.92,3.35-1.63,5.25-2.14c0.03,0.48,0.05,0.96,0.08,1.44c-1.34,0.41-2.59,0.94-3.74,1.6
		c-3.04,1.75-4.56,3.84-4.56,6.29c0,0.81,0.16,1.57,0.48,2.3c0.66,1.52,2.02,2.86,4.07,4.03c2.02,1.15,4.31,1.92,6.89,2.3
		c1.3,0.19,2.66,0.29,4.1,0.28c4.27,0.01,7.94-0.85,10.99-2.6c3.02-1.73,4.54-3.83,4.54-6.29c0.01-2.46-1.5-4.56-4.54-6.29
		c-0.31-0.17-0.62-0.34-0.94-0.49c0.13-0.52,0.25-1.02,0.37-1.52c0.74,0.32,1.45,0.67,2.14,1.07c3.47,2,5.2,4.42,5.2,7.24
		c0,0.19-0.01,0.37-0.02,0.54c0,0.03-0.01,0.06-0.02,0.1c0,0.08-0.01,0.17-0.02,0.26l-0.01,0.04c0,0.03,0,0.05-0.01,0.08
		l-3.32,18.26l-1.27,6.96l-0.88,4.83c-0.38,0.26-0.79,0.52-1.23,0.79C42.29,205.54,39.82,206.34,37.04,206.69z M42.06,163.45
		c-0.11,0.47-0.23,0.95-0.34,1.43c-0.58-0.21-1.17-0.39-1.78-0.55c0.08-0.48,0.16-0.95,0.23-1.41
		C40.81,163.07,41.44,163.25,42.06,163.45z M35.1,162.22c1.18,0.06,2.31,0.18,3.4,0.36c-0.08,0.45-0.16,0.91-0.24,1.37
		c-1.02-0.19-2.08-0.31-3.19-0.37C35.08,163.12,35.09,162.67,35.1,162.22z M28.53,163.96c-0.02-0.45-0.05-0.9-0.07-1.37
		c1.4-0.24,2.87-0.37,4.42-0.4c-0.01,0.44-0.03,0.89-0.04,1.35C31.32,163.57,29.88,163.71,28.53,163.96z"/>
</g>
<g>
	<g>
		<path class="st4" d="M106.19,80.83c0.27-0.62,0.41-1.08,0.41-1.39c0-0.65-0.33-1.29-0.98-1.9c-1.17-1.03-3.02-1.54-5.56-1.54
			c-1.03,0-1.95,0.05-2.78,0.15c-1.51,0.41-2.88,0.87-4.11,1.39c-0.93,0.38-1.77,0.79-2.52,1.23h-0.05
			c-0.27,0.17-0.53,0.34-0.77,0.51l-1.29,0.87c-0.75-1.2-1.63-2.54-2.62-4.01l-0.72-0.93c-0.06-0.09-0.12-0.18-0.18-0.28l-0.08-0.1
			c-0.09-0.13-0.18-0.26-0.26-0.39c-0.03-0.02-0.05-0.05-0.08-0.08c-0.94-0.83-1.99-1.77-3.16-2.8c-4.29-3.91-7.37-6.79-9.26-8.64
			c-4.49-3.6-8.25-6.17-11.26-7.71c-2.43-1.27-4.39-1.9-5.86-1.9c2.97-5.47,6.76-10.39,11.37-14.76c1.78-1.78,3.48-3.09,5.09-3.91
			c8.38-5.16,16.77-7.44,25.15-6.84c0.41,0.03,0.82,0.07,1.23,0.1c4.32,0.99,7.99,3.21,11.01,6.63c0.48,0.51,0.98,1.05,1.49,1.59
			c2.85,3.15,5.25,6.7,7.2,10.65c1.85,3.7,4.01,7.25,6.48,10.65c0.62,0.82,1.27,1.63,1.95,2.42c0.75,0.82,1.37,1.73,1.85,2.73
			c1.61,3.36,1.63,6.65,0.05,9.87c-0.48,0.99-1.2,1.87-2.16,2.62c-1.51,1.13-3.24,1.8-5.19,2.01c-2.85,0.41-5.73,0.75-8.64,1.03
			c-1.75,0.21-2.98,0.38-3.7,0.51c-0.96,0.99-1.58,1.65-1.85,1.95C106.33,80.68,106.26,80.76,106.19,80.83z M104.96,82.99
			l2.11,11.62c1.71,2.57,2.66,5.3,2.83,8.18c0.17,3.16-0.67,5.86-2.52,8.13c-0.89,1.61-2.19,3.27-3.91,4.99
			c-2.09,1.89-3.65,3.31-4.68,4.27c-5.79,2.95-11.86,4.61-18.21,4.99c-6.82,0.38-12.96-0.81-18.41-3.55
			c-0.86-0.79-1.06-2.02-0.62-3.7c0.31-0.93,0.51-1.61,0.62-2.06c0.2-0.82,0.26-1.51,0.15-2.06c-0.17,0.48-0.48,1.53-0.93,3.14
			c-0.34,1.3-0.7,2.35-1.08,3.14c-3.29-2.67-4.47-5.19-3.55-7.56c0.07-0.21,0.24-0.89,0.51-2.06c2.06-6.86,4.22-13.61,6.48-20.26
			c0.38-1.13,0.38-2.33,0-3.6c-1.78-6.07-3.98-11.97-6.58-17.69c1.68,2.95,3.43,5.74,5.25,8.38C71,89.9,78.97,96.21,86.34,96.21
			c4.46,0,9.12-2.49,13.99-7.46c1.75-1.82,3.27-3.7,4.58-5.66C104.91,83.06,104.92,83.03,104.96,82.99z"/>
		<path class="st5" d="M106.19,80.83c-0.58,0.72-0.99,1.41-1.23,2.06c0,0.03,0,0.07,0,0.1c-0.03,0.03-0.05,0.07-0.05,0.1
			c-1.3,1.95-2.83,3.84-4.58,5.66c-4.87,4.97-9.53,7.46-13.99,7.46c-7.37,0-15.34-6.31-23.92-18.93c-1.82-2.64-3.57-5.43-5.25-8.38
			c-0.79-1.75-1.63-3.48-2.52-5.19c-1.65-3.39-1.58-6.74,0.21-10.03l0.1-0.15c0.04-0.07,0.07-0.14,0.1-0.21
			c1.47,0,3.43,0.63,5.86,1.9c3.02,1.54,6.77,4.11,11.26,7.71c1.89,1.85,4.97,4.73,9.26,8.64c1.17,1.03,2.22,1.97,3.16,2.8
			c0.03,0.03,0.05,0.05,0.08,0.08c0.08,0.13,0.17,0.26,0.26,0.39l0.08,0.1c0.06,0.1,0.12,0.19,0.18,0.28l0.72,0.93
			c0.99,1.47,1.87,2.81,2.62,4.01l1.29-0.87c0.24-0.17,0.5-0.34,0.77-0.51h0.05c0.75-0.45,1.6-0.86,2.52-1.23
			c1.23-0.51,2.61-0.98,4.11-1.39c0.82-0.1,1.75-0.15,2.78-0.15c2.54,0,4.39,0.51,5.56,1.54c0.65,0.62,0.98,1.25,0.98,1.9
			C106.6,79.75,106.47,80.21,106.19,80.83z"/>
		<path class="st6" d="M86.21,25.09c-2.81-2.82-5.62-5.23-8.44-7.24c-2.3-1.64-4.24-2.7-5.84-3.19c0.79-1.22,1.73-2.32,2.82-3.3
			c2.48-2.19,5.41-3.21,8.8-3.06c0.49,0.01,0.97,0.04,1.44,0.09c0.42,0.09,0.83,0.18,1.25,0.28c5.13,1.33,9.13,4.29,11.99,8.88
			c0.47,0.91,0.86,1.89,1.14,2.95c0.02,0.39,0,0.78-0.05,1.18c-0.22,1.25-0.85,2.15-1.88,2.69c-0.91,0.1-2.38,0.07-4.42-0.07
			c-1.89-0.12-3.37-0.1-4.42,0.07C87.58,23.97,86.79,24.21,86.21,25.09z"/>
		<path class="st7" d="M71.93,14.67c1.6,0.48,3.54,1.55,5.84,3.19c2.82,2.01,5.63,4.42,8.44,7.24c-0.05,0.07-0.1,0.15-0.15,0.24
			c-0.34,0.61-0.71,1.62-1.1,3.02c-0.44,1.5-1.87,2.3-4.27,2.39l0.15,2.28c-0.74-0.07-1.4-0.41-1.99-1
			c-0.27-0.27-0.75-0.9-1.44-1.88c-0.56-0.81-1.08-1.38-1.55-1.69c-0.69-0.49-1.49-0.7-2.39-0.63c-0.39,0.89-0.41,1.82-0.04,2.8
			c0.32,0.83,0.87,1.61,1.66,2.32c-0.34,0.93-0.87,1.77-1.58,2.51l-1.07-1.22c-1.65-3.49-2.58-6.83-2.8-10.02
			c-0.09-1.31-0.06-2.55,0.11-3.72c0.22-1.67,0.74-3.25,1.55-4.75C71.49,15.38,71.71,15.02,71.93,14.67z"/>
		<path class="st8" d="M88.62,24.24c1.05-0.16,2.52-0.18,4.42-0.06c2.04,0.13,3.5,0.16,4.4,0.07c-0.02,0.37-0.16,0.98-0.43,1.84
			c-0.24,0.77-0.34,1.38-0.32,1.84c0.03,0.5-0.06,1.64-0.26,3.44c-0.16,1.41-0.1,2.54,0.17,3.41c-0.47,0.58-0.81,1.08-1.03,1.48
			c-0.33,0.57-0.54,1.13-0.62,1.68c-0.1,1.11-0.19,1.81-0.27,2.11c-0.22,0.76-0.66,1.25-1.33,1.49c-2.77,0.5-5.58,0.12-8.43-1.15
			c-2.84-1.27-5.01-3.1-6.52-5.49c-0.31-0.25-0.86-0.58-1.66-0.99c-0.75-0.38-1.29-0.74-1.63-1.06c-0.79-0.73-1.35-1.5-1.66-2.32
			c-0.38-0.98-0.37-1.92,0.04-2.81c0.91-0.08,1.7,0.13,2.38,0.62c0.46,0.33,0.98,0.91,1.56,1.72c0.68,0.97,1.16,1.58,1.43,1.85
			c0.59,0.59,1.26,0.93,1.99,1l-0.14-2.27c2.4-0.1,3.82-0.91,4.26-2.41c0.39-1.41,0.76-2.41,1.09-3.03
			C86.64,24.12,87.5,23.8,88.62,24.24z"/>
		<path class="st8" d="M105.85,64.98c-1.98,0.47-3.46,0.83-4.44,1.08c0.64-1.45,1.2-2.57,1.68-3.36c0.73-1.2,1.53-2.14,2.41-2.81
			c0.84,0.05,1.7,0.55,2.58,1.52c1.38,1.51,2.1,2.29,2.18,2.35C109.07,64.13,107.6,64.54,105.85,64.98z"/>
		<path class="st8" d="M95.21,69.58c1.01,2.34,1.71,4.58,2.08,6.73c-3.7,0.97-6.61,2.3-8.75,4c-0.74-1.21-1.61-2.54-2.62-3.99
			c-0.61-0.87-1.55-2.16-2.81-3.87c1.39-1.02,3.34-1.69,5.86-2.01c0.7-0.09,1.74-0.2,3.14-0.33C93.36,69.97,94.39,69.79,95.21,69.58
			z"/>
		<path class="st9" d="M75.1,32.84c0.34,0.32,0.89,0.68,1.63,1.06c0.8,0.41,1.36,0.74,1.66,0.99c1.51,2.39,3.68,4.22,6.52,5.49
			c2.85,1.26,5.66,1.64,8.43,1.15l0.69,1.58c-0.33,1.53-0.94,2.61-1.81,3.25c-0.34,0.22-1.15,0.66-2.41,1.33
			c-2.32-0.32-4.09-0.66-5.29-1.03c-1.93-0.6-3.46-1.49-4.6-2.65c-0.31-1.05-1.07-2.06-2.29-3.03c-1.85-1.46-2.86-2.28-3.01-2.45
			c-0.5-0.81-0.87-1.88-1.13-3.2C74.2,34.61,74.74,33.78,75.1,32.84z"/>
		<path class="st2" d="M92.82,49.32c-0.01,0.26-0.14,1.27-0.4,3.04c-0.79,0.26-1.56,0.49-2.29,0.69l-1.41-1.06l1.1-4.29
			c1.26-0.67,2.06-1.11,2.41-1.33C92.68,47.18,92.88,48.16,92.82,49.32z"/>
		<path class="st2" d="M96.42,65.58c-0.74-0.64-1.53-1.52-2.39-2.62c-0.95-1.27-1.67-2.21-2.16-2.83c-0.48-1.55-0.82-2.71-1.03-3.5
			c-0.37-1.36-0.61-2.55-0.7-3.59c0.74-0.2,1.5-0.43,2.29-0.69c1.64,3.02,2.69,5.13,3.14,6.32C96.49,61.17,96.78,63.47,96.42,65.58z
			"/>
		<polygon class="st10" points="95.58,139.72 89.53,136.23 95.61,132.72 101.66,136.2 		"/>
		<path class="st11" d="M80.92,159.51c1.27-5.1,2.35-9.67,3.26-13.7c2.05-9.22,3.32-16.53,3.81-21.94
			c3.71-0.83,7.31-2.14,10.81-3.92c1.01-0.96,2.55-2.39,4.64-4.31c1.72-1.7,3.02-3.35,3.9-4.97c0.64,4.41,0.87,8.66,0.7,12.75
			c-0.88,8.03-2.46,15.94-4.72,23.73c-2.26,7.76-3.65,15.63-4.16,23.61c-0.17,2.65-0.3,5.32-0.37,8c-0.05,2.38,0.02,4.78,0.22,7.18
			c0.09,0.4,0.12,0.77,0.11,1.1c-3.73,1.67-7.21,2.47-10.43,2.39c-4.08-0.07-7.02-1.66-8.84-4.75c-0.86-1.79-1.02-3.98-0.48-6.56
			c0.2-0.86,0.52-1.96,0.96-3.31c0.54-1.72,0.87-2.79,0.99-3.21c0.15-1.62,0.05-4.8-0.29-9.54
			C80.99,161.16,80.94,160.31,80.92,159.51z"/>
		<path class="st12" d="M87.99,123.86c-0.49,5.41-1.76,12.72-3.81,21.94c-0.91,4.03-1.99,8.6-3.26,13.7
			c-0.07-2.83,0.13-5.15,0.61-6.96c0.66-2.14,1.14-3.75,1.44-4.83c0.47-1.89,0.66-3.55,0.59-4.97c-1.23,4.99-2.5,9.26-3.83,12.82
			c-0.82,2.26-1.7,4.38-2.65,6.37c-3.61,6.95-6.14,14.32-7.59,22.1c-1.08,5.75-1.2,11.49-0.37,17.24c0.2,0.71,0.3,1.24,0.3,1.58
			c0.02,0.74-0.23,1.29-0.77,1.66c-2.33,1.25-4.74,1.89-7.22,1.92c-2.95,0-5.03-1.03-6.26-3.09c-0.32-0.78-0.58-1.66-0.77-2.62
			c-0.22-7.07-0.32-14.13-0.29-21.18c0.05-8.45,1.57-16.67,4.57-24.65c2.58-6.9,3.79-14.09,3.65-21.55
			c-0.05-3.04-0.09-6.09-0.11-9.14c-0.01-0.92-0.02-1.88-0.04-2.87c5.48,2.75,11.62,3.94,18.42,3.57c0.17-0.01,0.34-0.02,0.52-0.04
			C83.43,124.72,85.73,124.38,87.99,123.86z"/>
		<path class="st13" d="M79.89,190.04c0.91,1.47,2.37,2.56,4.4,3.26c0.87,0.31,2.7,0.71,5.48,1.2c1.45,0.19,3.02,0.64,4.7,1.35
			c0.88,0.37,2.35,1.09,4.42,2.15c1.85,0.96,3.33,1.64,4.42,2.06c1.67,0.63,3.26,0.99,4.77,1.08c1.38,0.29,2.57,0.27,3.58-0.04
			c1.27-0.38,2.04-1.2,2.29-2.47c0.36,1.62-0.1,2.85-1.38,3.7c-1.21,0.8-2.58,0.95-4.11,0.44c-2.33,0.01-5.18-0.85-8.54-2.59
			c-2.37-1.22-3.71-1.91-4.02-2.05c-1.55-0.72-2.96-1.21-4.23-1.48c-1.07,1.17-2.59,1.51-4.56,1.05c-0.63-0.15-1.46-0.43-2.5-0.83
			c-1.22-0.48-2.01-0.77-2.35-0.87c-1.22-0.38-2.04-1.19-2.44-2.41C79.47,192.48,79.49,191.3,79.89,190.04z"/>
		<path class="st13" d="M55.34,204.95c0.52,1.58,1.39,3.74,2.61,6.5c1.32,2.99,2.22,5.15,2.69,6.48c0.69,1.96,2.09,3.46,4.2,4.5
			c1.72,0.84,3.78,1.32,6.16,1.45c1.88,0.06,3.07,0.05,3.57-0.02c1.37-0.18,2.36-0.74,2.98-1.66c0.31,1.23-0.07,2.14-1.15,2.73
			c-0.81,0.44-1.88,0.64-3.21,0.62c-3.02-0.04-5.47-0.38-7.36-1.03c-2.68-0.94-4.43-2.53-5.28-4.79c-0.32-1.04-0.87-2.25-1.68-3.63
			c-0.95-1.54-1.64-2.7-2.08-3.47C55.24,209.81,54.75,207.25,55.34,204.95z"/>
		<path class="st14" d="M91.55,58.77c0.09,0.31,0.19,0.63,0.29,0.98c-0.09-0.12-0.19-0.23-0.29-0.35V58.77z M89.03,50.38
			c-0.08,0.05-0.16,0.11-0.24,0.18c-1.05,0.89-1.65,2.11-1.81,3.67c-2.45-2.69-3.91-4.3-4.38-4.84c-3.66-4.13-6.32-7.87-7.99-11.24
			c0.17,0.17,1.18,0.98,3.02,2.43c1.23,0.98,1.99,2,2.28,3.06c1.15,1.15,2.69,2.04,4.6,2.65c1.2,0.37,2.97,0.71,5.3,1.03
			L89.03,50.38z M96.91,54.31c-0.52-0.64-1.2-1.36-2.04-2.16c-0.88-0.83-1.62-1.46-2.21-1.91c0.1-0.71,0.15-1.14,0.15-1.29
			c0.07-1.18-0.12-2.17-0.59-2.98c0.88-0.64,1.49-1.72,1.81-3.24c1.42,4.35,2.37,8.1,2.84,11.27C96.87,54.1,96.89,54.21,96.91,54.31
			z"/>
		<path class="st14" d="M96.91,54.31v0.02c0.58,4.12,0.53,7.85-0.17,11.2l-0.33-0.33c0.37-2.11,0.09-4.41-0.85-6.89
			c-0.47-1.2-1.52-3.32-3.17-6.34c0.11-0.7,0.19-1.27,0.26-1.73c0.59,0.45,1.33,1.09,2.21,1.91C95.71,52.95,96.39,53.66,96.91,54.31
			z M86.98,54.23c0.15-1.56,0.75-2.78,1.81-3.67c0.08-0.07,0.16-0.13,0.24-0.18l-0.31,1.22l1.4,1.07c0.1,1.03,0.33,2.22,0.7,3.57
			c0.17,0.61,0.42,1.45,0.74,2.52v0.63c-1.09-1.32-2.52-2.93-4.27-4.84C87.18,54.44,87.08,54.33,86.98,54.23z"/>
		<path class="st5" d="M71.56,34.79c0.17-0.18,0.46-0.41,0.87-0.69l1.06,1.23c0.26,1.32,0.64,2.38,1.13,3.2
			c1.66,3.37,4.32,7.13,7.97,11.26c0.49,0.54,2.05,2.26,4.69,5.13c1.91,2.08,3.44,3.82,4.57,5.21c0.5,0.61,1.22,1.55,2.16,2.82
			c0.86,1.11,1.66,1.98,2.39,2.62l0.34,0.33c0.72-3.43,0.75-7.27,0.1-11.53c-0.48-3.16-1.42-6.91-2.82-11.27l-0.69-1.58
			c0.67-0.24,1.11-0.74,1.33-1.49c0.09-0.3,0.18-1,0.27-2.11c1.05,1.04,2.18,2.05,3.38,3.01l-0.42,1.68
			c1.79-0.19,2.71-0.29,2.77-0.3c-0.57,2.36-0.66,5.9-0.27,10.61c0.2,2.39,0.31,4.16,0.32,5.32c0.02,1.96-0.15,3.71-0.52,5.26
			c-0.11,1.02-0.54,1.89-1.29,2.59c-0.69,0.66-1.55,1.11-2.58,1.35c-1,0.24-1.99,0.23-2.97-0.02c-1.03-0.26-1.87-0.75-2.51-1.48
			c-1.65-1.55-3.83-3.12-6.54-4.7c-3.14-1.72-5.49-3.04-7.04-3.94l1.53-2.74l-2.35,0.47c-2.4-5.11-4.47-10.73-6.22-16.86
			c-0.05-0.55,0.08-1.15,0.37-1.79C70.77,36.08,71.08,35.55,71.56,34.79z"/>
		<path class="st5" d="M90.89,104.73c0.27,2.36,0.39,4.54,0.37,6.56c0.07,0.44-0.09,0.79-0.48,1.03c-0.25,0.15-0.63,0.27-1.14,0.37
			c-3.63,0.74-7.18,1.02-10.65,0.85c-3.68-0.17-7.18-0.82-10.5-1.95c0.12-1.08,0.38-2.35,0.77-3.79c0.49-1.65,0.85-2.89,1.07-3.72
			c0.88-3.04,1.2-5.58,0.96-7.59c2.46,1.25,5.49,1.94,9.1,2.06c0.52,0.03,3.66-0.07,9.43-0.29
			C90.29,100.72,90.64,102.88,90.89,104.73z M105.95,88.52c0.25,1.3,0.61,3.25,1.1,5.86c0.07,1.89-0.22,3.77-0.88,5.64
			c-0.61,1.82-1.52,3.5-2.73,5.05c-0.25-3.32-0.42-5.8-0.52-7.44c-0.2-2.95-0.28-5.43-0.26-7.44c0.74-1.6,1.25-2.81,1.55-3.65
			c0.54-1.4,0.79-2.69,0.74-3.87C105.2,84.3,105.53,86.26,105.95,88.52z"/>
		<path class="st7" d="M74.16,212.97c2.21,3.41,3.34,6.51,3.39,9.28c-0.61,0.93-1.61,1.49-2.98,1.66c-0.49,0.07-1.68,0.09-3.57,0.04
			c-2.38-0.12-4.43-0.61-6.15-1.47c-2.11-1.03-3.51-2.53-4.2-4.5c-0.47-1.33-1.36-3.49-2.69-6.48c-1.23-2.75-2.1-4.91-2.61-6.48
			c-0.05-0.25-0.11-0.8-0.18-1.66c1.23,2.06,3.32,3.09,6.26,3.09c2.48-0.03,4.89-0.66,7.22-1.92
			C69.64,206.47,71.49,209.28,74.16,212.97z M88.71,189.42c3.22,0.07,6.69-0.73,10.43-2.39c0.93,0.64,2.39,1.4,4.38,2.28
			c2.43,1.06,4.02,1.78,4.75,2.17c3.61,1.94,5.5,4.45,5.67,7.52c-0.27,1.25-1.03,2.08-2.28,2.47c-1.03,0.32-2.24,0.33-3.61,0.04
			c-1.5-0.07-3.08-0.43-4.75-1.07c-1.1-0.42-2.58-1.1-4.42-2.06c-2.06-1.06-3.54-1.78-4.42-2.17c-1.67-0.69-3.24-1.13-4.72-1.33
			c-2.78-0.49-4.59-0.9-5.45-1.22c-2.04-0.69-3.51-1.77-4.42-3.24c-0.54-0.88-0.81-1.84-0.81-2.87c0-1.06,0.27-2.01,0.81-2.87
			C81.69,187.77,84.64,189.35,88.71,189.42z"/>
	</g>
</g>
<g>
	<g>
		<path class="st15" d="M135.12,14.04c-0.18-0.05-0.35-0.1-0.52-0.16c0.43-0.16,0.72-0.28,0.89-0.35c0.31-0.14,0.5-0.27,0.57-0.38
			c-0.85-0.68-1.19-1.18-1.01-1.51c0.26-0.44,0.39-0.69,0.36-0.72c-0.11-0.19-0.4-0.47-0.88-0.83c-0.45-0.37-0.74-0.65-0.85-0.84
			c-0.18-0.31-0.29-0.57-0.32-0.77c-0.06-0.25-0.05-0.54,0.02-0.87l0.58-0.19c0.66,1.13,1.15,1.9,1.48,2.32
			c0.28-0.46,0.5-0.83,0.67-1.09c0.35-0.49,0.91-0.9,1.71-1.23c0.56-0.23,1.09-0.1,1.57,0.4c0.18,0.2,0.46,0.63,0.85,1.29
			c0.1,0.17-0.26,0.85-1.06,2.06c-0.78,1.21-1.02,2.07-0.73,2.57c0.98,0.15,1.51,0.21,1.58,0.18c0.34-0.27,0.73-0.56,1.17-0.87
			c0.88-0.62,1.67-1.07,2.35-1.36c0.74-0.31,1.61-0.48,2.6-0.51c-0.21-0.24-0.4-0.47-0.58-0.69c-1.91-2.34-3.33-4.66-4.26-6.97
			c-0.78-0.49-2.09-0.66-3.91-0.53c-1.99,0.14-3.36,0.07-4.11-0.2c-1.46-0.49-3.08-0.76-4.86-0.8c-0.33,0.93,0.11,1.62,1.33,2.05
			c1.52,0.39,2.54,0.76,3.07,1.11c-1.62,0.63-2.55,1.65-2.78,3.09c-0.22,1.38,0.26,2.49,1.45,3.34
			C132.06,12.75,133.27,13.57,135.12,14.04z"/>
		<path class="st16" d="M143.26,20.72c0.88-1.15,1.92-1.97,3.12-2.46c0.32-0.13,0.63-0.25,0.93-0.36c1.38-0.51,2.65-0.83,3.8-0.96
			c0.21-0.02,0.42-0.04,0.63-0.05c-0.9-0.87-1.8-1.74-2.71-2.62c-0.04-0.03-0.08-0.06-0.12-0.09c-0.24-0.27-0.49-0.52-0.74-0.77
			l-0.98-1.07c-0.05-0.04-0.09-0.09-0.14-0.13c-1.19,0.46-2.44,1.14-3.73,2.03c-0.77,0.54-1.48,1.1-2.11,1.66
			c0.07,0.16,0.15,0.33,0.24,0.52c0.1,0.21,0.2,0.44,0.3,0.69c0.03,0.05,0.06,0.1,0.09,0.15c0.35,0.79,0.69,1.59,1,2.4
			C142.97,20.01,143.11,20.37,143.26,20.72z"/>
		<path class="st15" d="M141.2,15.9c0.63-0.56,1.33-1.12,2.11-1.66c1.3-0.89,2.54-1.56,3.73-2.03c0.05,0.04,0.09,0.09,0.14,0.13
			c-0.37-0.4-0.7-0.79-1.02-1.15c-0.99,0.03-1.86,0.2-2.6,0.51c-0.69,0.28-1.47,0.74-2.35,1.36c-0.43,0.31-0.82,0.6-1.17,0.87
			c-0.07,0.03-0.6-0.03-1.58-0.18c-0.29-0.5-0.05-1.36,0.73-2.57c0.8-1.21,1.15-1.89,1.06-2.06c-0.39-0.67-0.67-1.1-0.85-1.29
			c-0.49-0.5-1.01-0.63-1.57-0.4c-0.79,0.33-1.36,0.74-1.71,1.23c-0.17,0.26-0.4,0.63-0.67,1.09c-0.33-0.42-0.83-1.19-1.48-2.32
			l-0.58,0.19c-0.07,0.33-0.08,0.62-0.02,0.87c0.03,0.21,0.14,0.47,0.32,0.77c0.11,0.19,0.4,0.47,0.85,0.84
			c0.47,0.36,0.76,0.64,0.88,0.83c0.02,0.04-0.1,0.28-0.36,0.72c-0.18,0.33,0.16,0.83,1.01,1.51c-0.07,0.11-0.26,0.23-0.57,0.38
			c-0.17,0.07-0.47,0.19-0.89,0.35c0.17,0.05,0.34,0.11,0.52,0.16c0.06,0.01,0.13,0.03,0.19,0.04c0.02,0,0.04,0.01,0.06,0.01
			c0.65,0.14,1.55,0.28,2.69,0.41c1.48,0.18,2.35,0.29,2.61,0.32C140.84,15.15,141.02,15.51,141.2,15.9z"/>
		<path class="st17" d="M147.31,17.9c-0.14,0.06-0.28,0.12-0.42,0.18c1.92,3.18,4.87,6.99,8.86,11.43
			c6.76,7.6,10.2,11.46,10.32,11.59c1.96,2.39,6.27,6.72,12.92,13.01c0.89,0.84,1.71,1.62,2.48,2.34c1.91,0.81,3.14,1.25,3.69,1.33
			c0.87,0.14,1.89,0.39,3.05,0.77c-0.21-0.2-0.43-0.4-0.66-0.6c-2.36-2.03-3.81-3.27-4.34-3.74c-3.15-2.37-5.36-5.21-6.63-8.51
			c-1.23-3.15-3.29-5.89-6.2-8.22c-1.78-1.41-3.37-2.94-4.78-4.6c-0.67-0.82-1.23-1.63-1.68-2.43c-0.22-0.48-0.45-0.95-0.72-1.4
			c-0.49-0.77-1.04-1.52-1.65-2.27c-0.91-1.1-1.87-2.2-2.9-3.28c-0.96-0.97-1.93-1.91-2.92-2.82c-1.2-1.08-2.36-2.18-3.49-3.3
			c-0.18-0.16-0.35-0.32-0.51-0.48c-0.21,0.01-0.42,0.02-0.63,0.05C149.96,17.07,148.69,17.39,147.31,17.9z"/>
		<path class="st18" d="M147.31,17.9c-0.31,0.11-0.62,0.23-0.93,0.36c-1.2,0.5-2.23,1.32-3.12,2.46c0.37,0.93,0.72,1.86,1.06,2.78
			c0.49,1.32,1.07,2.6,1.73,3.82c0.65,1.19,1.44,2.33,2.35,3.42c0.42,0.49,0.87,0.95,1.36,1.37c1.08,0.95,2.04,1.96,2.88,3.03
			c1.37,1.68,2.72,3.58,4.05,5.72c1.1,1.74,2.64,4.4,4.62,7.99c1.5,3.51,3.98,7.89,7.42,13.13c3.44,5.22,7.6,8.06,12.49,8.51
			c3.83,0.21,6.64-0.11,8.42-0.94c1.74-0.83,2.5-2.16,2.27-3.97c-0.03-0.32-0.06-0.58-0.06-0.78c-0.46-2.28-1.68-4.36-3.65-6.23
			c-1.17-0.38-2.18-0.64-3.05-0.77c-0.55-0.08-1.78-0.52-3.69-1.33c-0.77-0.72-1.59-1.5-2.48-2.34
			c-6.66-6.29-10.96-10.63-12.92-13.01c-0.12-0.13-3.56-3.99-10.32-11.59c-3.98-4.44-6.94-8.25-8.86-11.43
			C147.03,18.01,147.17,17.96,147.31,17.9z"/>
		<path class="st16" d="M173.4,50.28c0.07-0.3,0.25-0.56,0.53-0.77C173.76,49.77,173.58,50.03,173.4,50.28z"/>
		<path class="st19" d="M177.58,41.87c-3.37,1.29-5.14,1.93-5.33,1.93c-5.3,0-10.1-1.91-14.41-5.74c-2.53-2.26-3.95-3.49-4.27-3.71
			c-0.7-0.49-1.4-0.83-2.09-1.02c-0.11-0.27-0.22-0.52-0.33-0.72c-0.09-2.01,0.5-3.93,1.77-5.74c1.22-1.75,2.79-3.03,4.69-3.83
			c0.69-1.03,1.69-1.41,3.01-1.15c0.74,0.15,1.82,0.61,3.23,1.4c2.92,0.65,5.15,1.34,6.7,2.08c2.38,1.13,4.08,2.66,5.11,4.59
			c1.1,2.28,1.82,4.31,2.16,6.09C178.22,38.19,178.14,40.12,177.58,41.87z"/>
		<path class="st3" d="M151.47,33.32c0.69,0.19,1.39,0.53,2.09,1.02c0.32,0.22,1.74,1.46,4.27,3.71c4.31,3.83,9.12,5.75,14.41,5.74
			c0.19,0,1.96-0.64,5.33-1.93c-0.06,0.18-0.13,0.36-0.2,0.54c-0.64,1.5-1.12,2.59-1.44,3.29c-0.57,1.21-1.11,2.27-1.63,3.2
			c-0.12,0.21-0.25,0.41-0.38,0.61c-0.28,0.22-0.46,0.47-0.53,0.77c-1.06,1.45-2.25,2.61-3.58,3.47c-2.01,1.29-4.13,1.76-6.36,1.41
			c-1.46-0.7-2.43-1.23-2.91-1.58c-1.03-0.76-1.59-1.66-1.68-2.7c-0.15-1.83-0.33-3.18-0.54-4.07c-0.37-1.54-1.1-2.64-2.17-3.31
			l-1.29,1.14c-0.91-1.21-1.6-3.16-2.07-5.86C152.38,36.34,151.93,34.52,151.47,33.32z"/>
		<path class="st20" d="M151.14,32.6c0.58,1.11,1.14,3.17,1.66,6.18c0.47,2.7,1.16,4.65,2.07,5.86l1.29-1.14
			c1.07,0.67,1.8,1.78,2.17,3.31c0.21,0.89,0.4,2.24,0.54,4.07c0.09,1.04,0.65,1.93,1.68,2.7c0.48,0.36,1.44,0.89,2.91,1.58
			c-1.08,0.37-2.58,0.69-4.5,0.95c-2.22,0.3-3.74,0.55-4.54,0.76c0.25-1.03,0.44-1.83,0.56-2.4c0.22-1.03,0.35-1.89,0.37-2.58
			c0.07-1.99-0.63-3.36-2.1-4.09c-1.52-1.07-2.47-2.7-2.83-4.87c-0.32-1.92-0.16-3.84,0.5-5.76c0.17-0.33,0.21-0.72,0.13-1.17
			c-0.03-0.14-0.14-0.54-0.35-1.21C150.4,33.79,150.55,33.06,151.14,32.6z"/>
		<path class="st21" d="M167.9,165.86c0,1.49-0.13,5.04-0.4,10.64c-0.21,4.39-0.2,7.95,0.03,10.69c0.76-3.04,1.13-6.58,1.09-10.64
			C168.57,174.49,168.33,170.93,167.9,165.86z M164.97,126.78c3.57,0.39,6.65-0.09,9.25-1.44c3.98-2.22,6.45-3.6,7.41-4.13
			c2.77-1.58,5.22-3.01,7.36-4.29c0.12,0.66,0.25,1.27,0.37,1.84c0.52,2.22,0.62,4.42,0.32,6.58c-0.07,0.5-0.2,1.01-0.37,1.55
			c-0.3,1.01-0.63,2-0.99,2.96c-1,2.77-1.72,5.6-2.19,8.48c-0.44,2.84-0.86,5.71-1.25,8.61c-0.3,2.45-0.4,4.93-0.29,7.44
			c0.11,2.7,0.35,5.39,0.72,8.08c0.36,2.58,0.52,5.16,0.48,7.76c-0.05,2.63-0.33,5.22-0.83,7.78c-0.48,2.45-0.99,4.89-1.52,7.3
			c-0.62,2.81-1.31,5.62-2.05,8.45c-1.15,4.85-1.74,7.36-1.76,7.52c-0.11,0.32-0.25,0.68-0.43,1.07c-0.11,0.14-0.33,0.49-0.67,1.04
			c-2.43,0.52-4.7,0.56-6.8,0.13c-2.42-0.5-4.37-1.57-5.86-3.23l-0.91,3.71c-0.84,2.58-1.21,6.16-1.12,10.74
			c0.09,3.07,0.12,4.89,0.08,5.44c0,2.04-0.12,3.84-0.37,5.39c-1.24,0.41-2.89,0.6-4.93,0.56c-2.59-0.09-4.26-0.09-4.98,0
			c-2.17,0.16-4.13-0.44-5.89-1.81c-1.74-1.39-2.75-3.14-3.01-5.25c-0.05-0.39,0.02-0.83,0.21-1.33c1.94-5.78,3.03-11.81,3.28-18.1
			c0.27-6.88,0.42-13.75,0.45-20.63c0.04-6.43-0.57-12.84-1.81-19.22c-0.46-2.47-0.92-4.93-1.39-7.38c-0.01-0.1-0.02-0.2-0.03-0.29
			c-1.89-12.71-1.89-23.09,0-31.14l10.9,3.72C160.11,125.82,162.98,126.53,164.97,126.78z"/>
		<path class="st22" d="M165.84,199.52c1.48,1.7,3.44,2.79,5.86,3.27c2.08,0.41,4.36,0.37,6.83-0.15c0.17,0.87,0.27,1.39,0.3,1.55
			c0.08,0.6,0.09,1.12,0.02,1.58c-0.59,1.07-1.56,1.82-2.9,2.25c-1.21,0.39-2.46,0.46-3.76,0.21c-1.29-0.36-2.56-1.28-3.79-2.78
			c-0.67-0.86-1.17-1.5-1.51-1.92c-0.59-0.74-1.13-1.33-1.63-1.75L165.84,199.52z"/>
		<path class="st22" d="M152.5,230.8c-3.84-0.64-8.05-0.85-12.63-0.61c-0.28,0.02-0.57,0.02-0.84,0.01
			c-1.87-1.68-3.21-3.15-4.02-4.39c-0.39-0.57-0.69-1.45-0.91-2.63c-0.24-1.46-0.44-2.37-0.58-2.75c-0.09-0.25-0.19-0.48-0.33-0.71
			c0.35-0.13,0.74-0.19,1.15-0.2c0.72-0.17,1.59-0.27,2.61-0.29c0.36-0.01,0.82-0.02,1.4-0.01c-0.06,0.29-0.09,0.6-0.1,0.92
			c0,0.97,0.45,1.76,1.33,2.35c1.03,0.71,2.57,1.06,4.62,1.06c1.17,0,2.15-0.14,2.92-0.43c0.18,0.17,0.38,0.33,0.58,0.49
			c1.74,1.36,3.7,1.97,5.86,1.81c0.73-0.09,2.39-0.1,4.98-0.03c1.58,0.04,2.92-0.05,4.01-0.28c-0.45,0.31-1.56,1.11-3.32,2.4
			c-1.26,0.94-2.12,1.44-2.56,1.5C155.08,229.22,153.69,229.82,152.5,230.8z"/>
		<path class="st22" d="M159.23,227.5c-1.26,0.94-2.12,1.44-2.56,1.5c-1.58,0.22-2.97,0.82-4.17,1.8c0.03,0,0.05,0.01,0.07,0.01
			l2.3,0.45c1.74,0.41,3.33,0.44,4.77,0.09c1.73-0.42,2.95-1.35,3.65-2.78c0.35-0.55,0.54-1.17,0.56-1.83
			c0.02-0.65-0.11-1.27-0.39-1.87c-0.28,0.09-0.58,0.17-0.91,0.24C162.1,225.42,160.99,226.22,159.23,227.5z M135,225.8
			c-0.39-0.57-0.69-1.45-0.91-2.63c-0.24-1.46-0.44-2.37-0.58-2.75c-0.09-0.25-0.19-0.48-0.33-0.71c-0.73,0.26-1.32,0.77-1.79,1.54
			c-0.7,1.14-0.77,2.28-0.22,3.43c0.74,1.72,1.9,3.09,3.5,4.13c1.37,0.88,2.82,1.35,4.35,1.4C137.15,228.51,135.81,227.05,135,225.8
			z M144.69,218.32c-1.16,0.6-2.84,0.9-5.06,0.9c-0.47-0.01-0.89-0.01-1.27-0.01c-0.06,0.29-0.09,0.6-0.1,0.92
			c0,0.97,0.45,1.76,1.33,2.35c1.03,0.71,2.57,1.06,4.62,1.06c1.17,0,2.15-0.14,2.92-0.43C145.72,221.81,144.9,220.22,144.69,218.32
			z"/>
		<path class="st23" d="M164.91,203.27l0.35-1.46c0.49,0.42,1.04,1,1.63,1.75c0.34,0.42,0.84,1.06,1.51,1.92
			c1.24,1.5,2.5,2.42,3.79,2.78c1.29,0.25,2.54,0.18,3.76-0.21c1.34-0.44,2.31-1.19,2.9-2.25c0.36,1.43,0.51,2.51,0.45,3.23
			c-0.1,1.23-0.71,2.01-1.82,2.33c-2.18,1.24-4.45,1.13-6.8-0.33c-1.03-0.65-1.89-1.47-2.58-2.48c-0.72-1.04-1.15-2.14-1.3-3.3
			c-0.16-0.36-0.43-0.72-0.82-1.08C165.49,203.75,165.14,203.46,164.91,203.27z"/>
		<path class="st23" d="M162.31,234.09c-1.45,1.03-3.39,1.38-5.81,1.05c-2.74-0.59-4.76-0.92-6.05-1l-0.17-2.03
			c-1.46-0.29-3.63-0.39-6.51-0.3c-2.94,0.08-5.11,0-6.51-0.25c-1.7-0.38-3.13-1.18-4.31-2.41c-1.29-1.33-1.88-2.82-1.78-4.47
			c0.74,1.72,1.9,3.09,3.5,4.13c1.62,1.04,3.35,1.5,5.2,1.39c5.53-0.28,10.53,0.07,15,1.08c1.74,0.41,3.33,0.44,4.77,0.09
			c1.73-0.42,2.95-1.35,3.65-2.78c0.21,1.87,0.31,2.87,0.3,2.99C163.56,232.71,163.13,233.55,162.31,234.09z"/>
		<path class="st24" d="M146.26,63.29c-1.65,1.24-3.22,2.66-4.7,4.28l4.72,54.75l12.21,3.28c4.1,1.3,7.21,2.08,9.33,2.35
			c3.57,0.39,6.65-0.09,9.25-1.44c3.98-2.22,6.45-3.6,7.41-4.13c2.77-1.58,5.22-3.01,7.36-4.29c1.24-1,1.87-2.07,1.89-3.23
			c0.04-1.05-0.12-2.15-0.45-3.31c-1.53-6.68-2.12-14.04-1.79-22.07c0.32-8.05,0.16-14.69-0.48-19.91
			c-0.64-5.22-1.06-8.7-1.25-10.42c-0.05-0.71-0.04-1.68,0.05-2.91c0.11-1.62,0.03-2.89-0.24-3.81c-1.35-2.22-3.63-3.59-6.85-4.11
			c-1.99-0.34-4.8-0.36-8.42-0.05c-0.39,0.67-0.81,1.29-1.25,1.87c-0.04,0.09-0.08,0.19-0.13,0.29c0.2,0.74,0.29,1.65,0.29,2.72
			c0,1.44-0.13,2.37-0.4,2.8c-0.59,0.89-2.12,1.87-4.61,2.96c-2.22,0.96-6.28,1.97-12.18,3.04c-5.1,0.91-8.3,1.36-9.6,1.36
			C146.36,63.3,146.31,63.3,146.26,63.29z"/>
		<path class="st16" d="M151.03,60.14c0.57-0.08,1.73-0.45,3.48-1.11c2.04-0.76,3.27-1.16,3.68-1.2c3.87-0.32,6.31-0.59,7.3-0.8
			c0.75-0.16,1.76-0.6,3.04-1.31c0.55-0.32,1.45-1.26,2.69-2.83c0.81-1.03,1.37-1.86,1.68-2.48c0.05-0.1,0.1-0.2,0.13-0.29
			c-0.96,1.24-2.03,2.25-3.23,3.01c-2.01,1.3-4.13,1.78-6.37,1.44c-1.07,0.36-2.56,0.67-4.48,0.93c-2.22,0.3-3.73,0.54-4.53,0.72
			c-0.68,0.32-1.38,1.08-2.11,2.29C151.87,59.21,151.44,59.74,151.03,60.14z"/>
		<path class="st18" d="M146.26,63.29c0.05,0.01,0.1,0.01,0.15,0.01c1.3,0,4.5-0.45,9.6-1.36c5.9-1.07,9.96-2.08,12.18-3.04
			c2.49-1.08,4.02-2.07,4.61-2.96c0.27-0.43,0.4-1.36,0.4-2.8c0-1.07-0.1-1.98-0.29-2.72c-0.31,0.62-0.87,1.45-1.68,2.48
			c-1.24,1.56-2.14,2.51-2.69,2.83c-1.28,0.71-2.29,1.15-3.04,1.31c-1,0.21-3.43,0.48-7.3,0.8c-0.41,0.04-1.63,0.44-3.68,1.2
			c-1.75,0.66-2.91,1.03-3.48,1.11c-0.29,0.28-0.56,0.49-0.81,0.63l-3.48,2.16c-0.17,0.12-0.33,0.24-0.49,0.36H146.26z"/>
		<path class="st15" d="M126.56,137.52c-0.09,0.04-0.19,0.07-0.28,0.09c1.43-2.95,2.14-5.34,2.12-7.16
			c-0.02-1.42-0.46-2.59-1.32-3.53c-0.87-0.97-1.31-2.13-1.32-3.47c-0.84,0.54-1.89,1.06-3.17,1.56c-2.18,0.85-3.66,2.11-4.43,3.77
			c-0.77,1.66-2.08,3.53-3.93,5.6c-1.46,1.76-2.13,3.42-2,4.98c1.2-0.1,2.47-1.03,3.8-2.78c1.52-2.02,2.72-3.23,3.61-3.64
			c-0.2,0.41-0.55,1.02-1.03,1.85c-0.36,0.71-0.51,1.39-0.44,2.05c0.7,0.42,1.83,0.73,3.4,0.91c1.54,0.18,3.09,0.14,4.63-0.12
			C126.32,137.61,126.44,137.58,126.56,137.52z"/>
		<path class="st20" d="M125.77,123.45c0.01,1.34,0.45,2.5,1.32,3.47c0.86,0.94,1.3,2.11,1.32,3.53c0.01,1.82-0.69,4.21-2.12,7.16
			c0.09-0.02,0.19-0.05,0.28-0.09c0.87-0.33,1.8-1.4,2.79-3.2c0.75-1.4,1.43-3.35,2.05-5.85c0.06-0.05,0.11-0.09,0.15-0.13
			c0.82-0.73,1.64-1.43,2.46-2.12c0.14-0.12,1.06-0.97,2.75-2.57c-0.6-3.34-1.7-5.08-3.29-5.21c-1.59-0.13-2.41-0.15-2.45-0.04
			c-0.04,0.11-0.1,0.21-0.2,0.31c-1.2,1.23-2.4,2.42-3.61,3.58c-0.05,0.05-0.1,0.1-0.15,0.16
			C126.71,122.79,126.28,123.12,125.77,123.45z"/>
		<path class="st16" d="M137.24,124.23c-1.68-0.32-3.18-0.88-4.51-1.69c-1.36-0.83-2.53-1.92-3.51-3.28l-0.07-0.17
			c-0.38,0.4-0.78,0.79-1.18,1.17c-0.67,0.49-1.26,0.92-1.78,1.3c-0.11,0.08-0.16,0.16-0.15,0.24c-1.09,0.92-0.45,2.05,1.94,3.39
			c1.54,0.85,3.58,1.19,6.14,1.02c0.06-0.03,0.11-0.06,0.15-0.1c0.71-0.52,1.53-1.05,2.47-1.59
			C136.89,124.44,137.06,124.34,137.24,124.23z"/>
		<path class="st17" d="M129.15,119.1l0.07,0.17c0.98,1.35,2.15,2.45,3.51,3.28c1.33-1.2,3.31-2.95,5.94-5.27
			c2.86-2.51,4.99-4.63,6.39-6.36c3.99-4.87,5.67-10.84,5.06-17.9c-0.52-5.71-0.83-11.85-0.92-18.44c-0.24-1.69-0.41-3.07-0.52-4.15
			c-0.2-2.01,0.03-3.41,0.7-4.2c0.38-0.48,1.35-1.11,2.9-1.89c-0.63-0.24-1.29-0.44-1.98-0.6c-0.08-0.07-0.17-0.11-0.27-0.14
			c-0.17-0.08-0.32-0.1-0.46-0.08c-1.06,0.08-1.88,0.18-2.47,0.32c-0.89,0.2-1.6,0.46-2.13,0.78c-1.22,0.72-2.03,1.75-2.43,3.08
			c-0.36,1.02-0.47,2.33-0.35,3.91l0.02-0.02c-0.05,2.39,0.2,4.94,0.76,7.65c0.29,1.73,0.46,3.6,0.51,5.6
			c-0.04,1.34-0.12,3.15-0.25,5.42c-0.04,0.16-0.16,1.9-0.33,5.22c-0.11,2.08-0.31,3.78-0.6,5.09l0.03,0.02
			c-0.17,0.73-0.68,1.46-1.54,2.21c-1.6,1.22-2.43,1.89-2.5,2c-1.5,1.64-2.57,3.21-3.23,4.7C133.6,113.3,131.63,116.49,129.15,119.1
			z"/>
		<path class="st18" d="M132.73,122.55c1.32,0.81,2.83,1.37,4.51,1.69c0.99-0.57,2.35-1.37,4.09-2.38c1.89-1.12,4.02-2.67,6.4-4.67
			c1.32-1.11,3.29-2.76,5.89-4.95c1.36-0.96,2.33-2.12,2.9-3.47c0.62-1.42,0.77-2.93,0.46-4.54c-0.21-1.11-0.22-2.35-0.03-3.71
			l-0.02-0.04c0-0.46,0.19-1.68,0.56-3.65c0.73-3.46,1.23-6.52,1.48-9.2c0.06-0.54,0.23-1.68,0.51-3.43c0.21-1.17,0.55-2.35,1-3.54
			l0.02-0.02c0.06-0.13,0.11-0.28,0.16-0.42c0.01-0.03,0.02-0.05,0.03-0.06c0.17-3.79-0.33-7.11-1.51-9.97
			c-0.05-0.03-0.07-0.05-0.08-0.08c-1.74-2.76-4.01-4.68-6.81-5.76c-1.55,0.78-2.52,1.41-2.9,1.89c-0.66,0.78-0.89,2.18-0.7,4.2
			c0.11,1.07,0.28,2.46,0.52,4.15c0.09,6.58,0.4,12.73,0.92,18.44c0.61,7.06-1.07,13.03-5.06,17.9c-1.41,1.73-3.54,3.85-6.39,6.36
			C136.04,119.59,134.06,121.35,132.73,122.55z"/>
	</g>
</g>
</svg>
