<?xml version="1.0" encoding="utf-8"?>
<!-- Generator: Adobe Illustrator 25.2.3, SVG Export Plug-In . SVG Version: 6.00 Build 0)  -->
<svg version="1.1" id="Layer_1" xmlns="http://www.w3.org/2000/svg" xmlns:xlink="http://www.w3.org/1999/xlink" x="0px" y="0px"
	 viewBox="0 0 185.1 254.9" style="enable-background:new 0 0 185.1 254.9;" xml:space="preserve">
<style type="text/css">
	.st0{fill:#FFCDA8;}
	.st1{fill:#344959;}
	.st2{fill:#43847F;}
	.st3{fill:#D9A782;}
	.st4{fill:#E6F6FF;}
	.st5{fill:#DD8260;}
	.st6{fill:#B74729;}
	.st7{fill:#2E373A;}
	.st8{fill:#1B2B38;}
	.st9{fill:#6EBFBC;}
	.st10{fill:#FFFFFF;}
	.st11{fill:#2D605B;}
	.st12{fill:#C1874D;}
	.st13{fill:#604843;}
	.st14{fill:#422E29;}
	.st15{fill:#597B8E;}
	.st16{fill:#49687C;}
	.st17{fill:#EEF5F9;}
</style>
<g>
	<g>
		<path class="st0" d="M122.6,106.5c0,0-1.3,2.5-3.2,10.3c-1.9,7.8-1.7,22.7-1.4,28.3c0.2,5.6,1.2,25.1,0.9,30.4
			c-0.3,5.3-1.5,30.2-2.4,34.5c-0.9,4.3-5.3,13.5-6.2,14.9c-0.9,1.4-3.9,4.4-3.9,4.4l-0.1-0.1c-0.6,0.4-2.1,1.8-2,3.1
			c0.2,1.3,5.1,3,7.9,1.6c2.8-1.4,11.2-9.6,12.8-11.7c1.5-2.1,2.6-6,1.9-7.1c-0.7-1.1-1.5-2.1-1-5.9c0.5-3.8,6.6-18.9,8.4-24.1
			c1.8-5.2,0.2-11,0.2-12.8c0-1.8,0.2-3.6,1.8-8.3c1.7-4.6,7-23.9,7.5-31.8C144.4,124.2,122.6,106.5,122.6,106.5z"/>
		<path class="st0" d="M139.4,244.2c0,0,0.4-1,0.5-1.5c0.1-0.4,0.8-1.5,0.8-1.5s6.6-11.1,7.6-15.7c1-4.7,1-27.9,0.4-32.9
			c-0.6-5-3.3-12.7-4.3-17.9c-1-5.2-2.9-25.4-3.4-32.8c-0.5-7.4,0.8-15.3,2.1-19.9c1.4-4.7,22.9-19.7,24.2-4.5
			c1.3,15.2-2.8,37-4.1,43.1c-1.4,6.1-3.9,13.1-2.7,16.9c1.2,3.8,5.6,12.1,4.1,20c-1.5,7.9-6.5,21.1-6.4,24.6
			c0.1,3.5,1.3,3.9,1.2,5.7c-0.1,1.7-3.3,8.7-4.5,10.7c-1.2,1.9-3.4,8.8-8.8,8.5C140.5,246.6,139.2,245.4,139.4,244.2z"/>
		<path class="st1" d="M124.9,98.6c0,0,5.4,6.6,14.5,7.9c9.1,1.3,21.7-3.9,21.7-3.9s8.2,5,7.1,23.9c-1.2,18.9-5.5,40.3-5.5,40.3
			s-4.3,2.5-8.7,3c-7.2,0.8-36.3-4.6-36.9-10.1c0,0-1.7-25.4,0.7-36.8C120.2,111.4,124.9,98.6,124.9,98.6z"/>
		<path class="st2" d="M123.2,73c0,0,2.8,9.2,3,13.9c0.2,4.7-2,10.9-2,12.6c0,1.6,3.5,6.8,13.2,9.1c9.7,2.2,24.3-2,24.4-4
			c0.1-2-1.2-4.3-1.7-5.9c-0.6-1.5-0.5-11.4,1.3-15.9c1.8-4.4,3.2-7.7,3.2-7.7S127.4,70.9,123.2,73z"/>
		<g>
			<path class="st0" d="M90.7,41.1c-1-1-2.4-2.7-3.4-5.5c-0.9-2.9-3-7.3-3.9-8.5c-0.9-1.2-3-2.9-3.3-2.9c-0.3,0-1.2,1.1-0.2,2.7
				c1,1.5,2.1,3.4,2,4.3c0,0-2.3-1.7-3.4-2.8c-1.1-1-4.4-3.5-5.8-4.2c-1.4-0.6-2.7-0.7-3.3,0c-0.6,0.7,1.2,1.7,2.1,2.2
				c0.9,0.5,5,3.7,5.1,3.9c0.1,0.2-0.1,0.8-0.7,0.5c-0.6-0.3-2.1-1.9-3.1-1.9c-1,0-1.9,0.8-1.5,1.7c0.4,0.9,2,2.8,2,2.8
				s-2.4-0.6-2.7-0.3c-0.3,0.3-0.7,1.4,0,2c0.7,0.5,3.3,1.1,3.6,1.4c0.3,0.3,0.3,0.8,0.3,0.8c0,0.1-1.5-0.4-2.6-0.5
				c-1.1-0.2-1.6,0.4-1.7,0.9c-0.1,0.5,0.8,1.2,3.1,2.1c2.3,0.9,4.3,1.8,6,2.9c1.6,1,3.6,1.8,3.6,1.8s7.2,5.8,8.5,7.4
				c1.2,1.7,12.6,13.6,14,15.1c1.4,1.5,6.7,5,8.9,5.3c2.2,0.2,4.7-2.8,4.7-2.8l-5.3-11.4c0,0-11.7-8.5-15.2-11
				C94.8,44.5,91.1,41.5,90.7,41.1z"/>
			<path class="st3" d="M84.3,44c-0.2-1.6,0.8-2.6,0.8-2.6s-1.8,1.3-3.2,1.2c-1.4-0.1-3.6-1.4-4.5-2.2c-0.9-0.8-1.5-1.2-1.1-3.3
				c0.4-2.2,1.1-3.3,0.8-4.5c-0.2-0.7-0.5-1.3-0.8-1.8c-0.1,0-0.3,0-0.5-0.1c-0.5-0.2-1.4-1.2-2.3-1.7c0.1,0.3,0.2,0.7,0.4,1.1
				c0.4,0.6,2.4,2.6,2,3.3c-0.4,0.7-1.8,0.3-1.8,0.3s1.2,1,1,1.7c-0.3,0.7-0.5,0.8-0.5,0.8l-0.5,0.2c0.2,0.3,0.3,0.6,0.3,0.8
				c0.2,0.2,0.5,0.5,0.3,1c-0.2,0.6-1.9,0.9-2.8,1c0.3,0.2,0.8,0.3,1.2,0.5c2.3,0.9,4.3,1.8,6,2.9c1.6,1,3.6,1.8,3.6,1.8
				s1,0.8,2.4,1.9C84.7,45.3,84.4,44.6,84.3,44z"/>
		</g>
		<path class="st4" d="M134,38.7l-1.9-2.7c0,0-2.3,0-4.6,3.1c-2.3,3.2-5.8,9.8-8.9,12.9c-3.1,3.1-5.3,5.3-5.3,5.3l-22.8-17
			c0,0-1.2,5.3-4.3,7c0,0,7.4,7.7,9.9,10.8c2.5,3.2,12.3,14,16.9,14.4c4.6,0.4,8.8-5.4,8.8-5.4L134,38.7z"/>
		<path class="st5" d="M137.1,13.6l-3.9,0.8c0,0-0.8-1.3,0.9-4.8c1.6-3.5,6.6-9.6,15.4-8.2c8.8,1.4,13.5,8.5,13.1,14.7
			c-0.4,6.2,0.3,22.9,5.7,30.9l-30.3-1.8L137.1,13.6z"/>
		<path class="st6" d="M166.5,45.6c0,0-6.1-15.4-5.2-25.5c0,0-2.6,3.9-4.3,5c-1.7,1-3.7,15.3-3.5,15.8c0.1,0.3,2.5,3.1,4.4,5.4
			l6.9,0.4L166.5,45.6z"/>
		<path class="st3" d="M156.7,27.2c0,0-1.4,7.4,1.4,11c0,0-1,15.9-9.5,21.2c-8.5,5.3-13.5,5.2-14.1-0.2c-0.5-5.5,4.7-23.9,4.7-23.9
			L156.7,27.2z"/>
		<path class="st7" d="M127.9,223.3l-5.1,2.7c0.4,0.3,1.2,2.5,1.2,2.5l2.6-1.2C126.6,227.3,126.7,225.9,127.9,223.3z"/>
		<path class="st7" d="M155.8,237.6c0.3,0.2,0.7,1.5,0.7,1.5l1.9-1.7c0.1-1.4,1-4.1,1-4.1L155.8,237.6z"/>
		<path class="st4" d="M158.1,38.2c0,0-3.9,6.8-11.6,13.5c-1.8,1.6-4,4.1-6.1,5.4c0,0-0.2-3.8-0.5-7.7c-0.3-4-0.5-8.3,2.1-13.9
			c0,0-7.8-0.3-9.7,0.4c-1.9,0.7-4.1,8.2-4.2,11.2c-0.2,3-1.9,7.7-3.2,9.7c-1.2,1.9-8.3,10.9-4,16.1c4.3,5.2,10.3,8.7,18.2,11.3
			c8,2.7,18,1.1,22.2-1.5c0,0,1.2-3.6,3.2-7.7c2-4.2,7.8-23.1,5.6-25.9C167.9,46.3,158.1,38.2,158.1,38.2z"/>
		<path class="st8" d="M106.5,229.1c0,0-2.6,2.7-0.6,3.7c2.1,1,5.1,0.4,7.4-1.6c2.3-2,6.9-5.4,9.5-8.2c2.6-2.7,4.2-6.7,3.8-8.2
			c0,0,2.6,1.4,2.4,4.3c-0.2,2.9-1,5-3.8,6.4c-2.8,1.4-7.7,4.3-9.7,6.6c-2,2.3-3.9,6.7-9,8.7c-5.1,2-7.6,1.4-9,0.4
			c-1.3-0.9,1.3-6.4,4-8.9C104.2,229.9,106.5,229.1,106.5,229.1z"/>
		<path class="st8" d="M140.7,241.2c-0.1,0.1-1.6,3.2,1.5,4.1c3,0.9,5.9,1.6,9.3-4.4c2-3.5,3.8-5.7,4.8-7.9c1.4-3.3,2.7-4.9,2.4-7.3
			c0,0,2.1,3.7,0.9,7.2c-1.3,3.4-3.8,5.4-5.7,7.8c-1.8,2.5-3.3,9.1-6.3,11.4c-3,2.3-7,3.2-10.9,2.6c-3.9-0.6-2.3-4-0.7-7.2
			C137.6,244.3,140.7,241.2,140.7,241.2z"/>
		<path class="st9" d="M170.1,49.2c-2.2-2.8-12-11-12-11s-0.2,0.3-0.6,0.9c-1.9,5.2-8.5,21.2-21.3,31.5c0,0-1.5-19.9,2.9-35.1
			c-2.4,0-5.7,0.1-6.9,0.5c-1.9,0.7-4.1,8.2-4.2,11.2c-0.2,3-1.9,7.7-3.2,9.7c-1.2,1.9-8.3,10.9-4,16.1c4.3,5.2,10.3,8.7,18.2,11.3
			c8,2.7,18,1.1,22.2-1.5c0,0,1.2-3.6,3.2-7.7C166.5,70.9,172.2,52,170.1,49.2z"/>
		<path class="st10" d="M156.9,35.9c0,0-6.4,11.7-10.5,15.8l5.2,6.5l8-18.7L156.9,35.9z"/>
		<path class="st10" d="M139.8,49.4c0,0,0.2-8.5,1.6-12.4l-2.6-0.5L133,53L139.8,49.4z"/>
		<g>
			<path class="st0" d="M134.3,11.6c-1.1,1.9-2.1,6.4-2.1,7.7c0,1.3,0.5,3,0.2,3.9c-0.3,1-0.9,3.3-0.6,4.8c0.3,1.5,2.1,6.1,2.4,8.4
				c0.3,2.3,1.4,4.8,6,4.2c4.6-0.6,10.6-4.7,14-8.2c3.4-3.5,6.9-12.6,6.8-18.1c0-5.5-5.3-10.1-9.4-11.2
				C147.6,2,139.2,2.4,134.3,11.6z"/>
			<path class="st3" d="M136.9,40.4c0.3-3.3-1.2-7.6-2.1-7.7c-1-0.1-1.7-0.8-1.6-1.5c0.1-0.7,1.9-4.4,1.9-7c0-1.7-1.6-2.9-2.7-3.6
				c0.1,1,0.3,2,0.1,2.6c-0.3,1-0.9,3.3-0.6,4.8c0.3,1.5,2.1,6.1,2.4,8.4C134.5,38,135.1,39.6,136.9,40.4z"/>
			<path class="st5" d="M151.9,2.7c-4.1-1.1-12.9-0.6-17.8,8.5c-0.4,0.7-0.6,2.1-0.9,3.2c0.6,0.1,1.1,0.4,1.1,1
				c0.2,1.4,0.7,1.7,2.6,2.2c1.9,0.4,7.3,0.4,8.6,2.6c1.2,2.2,4.3,7.9,6.8,7c2.4-0.9,4-1.7,4.3-1.1c0.1,0.2,0.6,0.6,1.4,1
				c1.9-4.1,3.8-9.1,3.8-12.6C161.6,8.9,156,3.8,151.9,2.7z"/>
			<path class="st6" d="M157,23.8c-1.7,0.4-5,0.3-7.5-2.5c-2.5-2.8-4.8-3.9-8.5-4.3c-2.2-0.2-3.8,0.1-4.8,0.3
				c0.2,0.1,0.4,0.1,0.7,0.2c1.9,0.4,7.3,0.4,8.6,2.6c1.2,2.2,4.3,7.9,6.8,7c2.3-0.9,3.8-1.6,4.2-1.2C157.2,24.8,158,23.6,157,23.8z
				"/>
			<path class="st0" d="M153.7,28.3c-0.4,1.3-0.4,3.4,1.7,2.2c2.1-1.2,4.6-5.8,3.8-7c-0.8-1.2-3.3-1.2-4.4,1.1
				C153.9,26.9,153.7,28.3,153.7,28.3z"/>
		</g>
		<path class="st2" d="M163.8,64.9c0,0-2.4,3.1-2.7,5.6c-0.3,2.5-2.1,13.2-10.8,15.2c3,1.5,9.3-1.9,10.9-2.9c0,0,1.2-3.6,3.2-7.7
			c0.8-1.6,2.1-5.3,3.3-9.5L163.8,64.9z"/>
		<path class="st0" d="M145.4,100.1c0,0-1.5-0.6-2.9-2.3c-1.4-1.8-5-4.2-6.5-5c-1.5-0.8-4.3-2-5.1-1.4c-0.8,0.6,0.1,2.2,1.9,2.9
			c1.8,0.7,4.6,4,4.5,5.2C137.1,100.6,145.4,100.1,145.4,100.1z"/>
		<polygon class="st10" points="119.1,68.2 100.5,73.2 123.6,102 142.3,97 		"/>
		<path class="st0" d="M143.9,99.6c0,0-4.9-1.7-5.9-1.4c-0.9,0.3-4,0.8-5.5,0.7c-1.5-0.1-5.4-1.7-6.6-3c-1.2-1.4-1.8-2.1-2.8-1.7
			c-1,0.4-1,0.8-1,0.8s-1.2-0.6-1.4,0.2c-0.1,0.8,1.3,4.7,2.8,6.8c1.5,2.1,4.9,5.2,8,5.4c3.1,0.2,5.2-0.5,5.3-0.5
			c0.2,0,8.5,0.5,11.1,0.6c2.7,0.1,13.5,0.8,13.5,0.8s14.1-0.3,15.7-0.8c1.6-0.5,3.1-5.7,3.1-5.7s-5.7-4.2-11.3-4.6
			c-5.6-0.4-13.9,2.2-18.5,2.6C146,100.1,143.9,99.6,143.9,99.6z"/>
		<path class="st3" d="M120.8,95.1c-0.1,0.8,1.3,4.7,2.8,6.8c1.5,2.1,4.9,5.2,8,5.4c3.1,0.2,5.2-0.5,5.3-0.5c0.2,0,8.5,0.5,11.1,0.6
			c1.6,0.1,6.3,0.3,9.7,0.5c-0.4-0.3-0.8-0.6-1.2-0.8c-2.1-0.9-14.2-1.4-17-1.3c-2.8,0.1-6.1-1-6.2-1.6c-0.1-0.6-1.4-1.4-4.5-3.2
			c-3.1-1.8-6.9-6.2-6.9-6.2S120.9,94.3,120.8,95.1z"/>
		<path class="st4" d="M161.4,65.9c-0.5-4.5,0.1-11.4,4.2-15.1c4.1-3.7,8.1-1.1,10.4,9.8c2.3,11,2.6,27,3.6,31.3
			c1.1,4.3,2.2,13.6-0.7,15.2c-2.9,1.6-32.3,0.8-32.3,0.8s2.6-4.4,0-8.7c0,0,8-0.5,10.9-1.2c2.8-0.7,11.4-1.3,11.4-1.3
			s-3.8-10.9-4.5-15.3C163.7,76.9,161.6,67.9,161.4,65.9z"/>
		<g>
			<polygon class="st11" points="154,77.1 141,73.8 142.4,64.3 155.4,67.6 			"/>
			<polygon class="st10" points="153.3,76.2 140.3,72.9 142.4,64.3 155.4,67.6 			"/>
			<polygon class="st12" points="146.5,67.1 143.1,66.3 141.7,71.9 145.2,72.7 			"/>
			<polygon class="st8" points="149.4,66.8 147.3,66.2 147.6,64.8 149.7,65.4 			"/>
			<g>
				<polygon class="st12" points="147.3,68.6 147.2,69 152.9,70.5 153.1,70 				"/>
				<polygon class="st12" points="147,70.2 152.8,71.6 152.9,71.2 147.1,69.8 				"/>
			</g>
		</g>
	</g>
</g>
<g>
	<g>
		<path class="st8" d="M80.1,238.2c-3.6-0.8-15-1.5-19-5.7l-15.9,5.2c0,0-1.1,5.1,0,7.7c0,0,4.1,2,7.5,2c3.5,0,6-0.4,9.9,0.6
			c3.9,1,10.1,1.4,15,0c4.9-1.5,8-5.1,8-6.8C85.6,239.5,83.7,239,80.1,238.2z"/>
		<path class="st8" d="M85.6,241.3c-0.1,1.8-3.2,5.3-8,6.8c-4.9,1.4-11.1,1-15,0c-3.9-1-6.4-0.6-9.9-0.6c-3.5,0-7.5-2-7.5-2
			c0-0.1-0.1-0.2-0.1-0.2c0,0.2,0,0.4,0.1,0.5l-0.1,2.4c0,0,0.7,0.6,3.2,1.2c2.4,0.7,9.6,0.2,9.6,0.2s0-0.7,0-1.3
			c1.5,0,3.1,0.2,4.9,0.7c3.9,1,10.1,1.5,15,0c4.9-1.4,8-5.1,8-6.8C85.8,241.8,85.7,241.5,85.6,241.3z"/>
	</g>
	<g>
		<path class="st8" d="M24.7,223.4c0,0-1,6.3,0,7.7c1,1.4,5.1,2.9,7.8,1.3c2.7-1.6,2.9-2.8,5.8-5.4c2.7-2.5,6.8-4.8,8-8.5
			c0.9-2.9,0.2-6.3-1.3-7c-1.4-0.7-7.1,1-9.9,3.5C32.2,217.7,24.7,223.4,24.7,223.4z"/>
		<path class="st8" d="M46.3,218.6c-1.1,3.7-5.2,6.1-8,8.5c-2.9,2.6-3.1,3.8-5.8,5.4c-2.7,1.6-6.8,0.1-7.8-1.3
			c-0.2-0.2-0.3-0.5-0.3-0.9c0,0.5,0,1,0.1,1.3l0.3,1.7c0,0,0.8,1,2.4,1.6c1.5,0.6,3.8,0.7,5.4-0.4c1.6-1.1,4.6-4.3,4.6-4.3
			s0-0.5,0-1c0.4-0.4,0.8-0.8,1.3-1.2c2.7-2.5,6.8-4.8,8-8.5c0.3-1,0.4-2,0.4-3C46.6,217.1,46.5,217.9,46.3,218.6z"/>
	</g>
	<g>
		<path class="st0" d="M52.8,4.9c3.1,1.6,5.4,6.1,6.2,9.6c0.8,3.6,0,4.5,0,4.5s2.5,2.2,2.2,2.9c-0.3,0.7-2.5,2.4-2.5,2.4
			s0.4,2.3,0.2,3.4c-0.2,1.1-1.1,3.4-0.9,4.6c0.2,1.2,0,3.3-1.2,3.9c-1.2,0.6-6.5,0.2-7,1.8c-0.5,1.6-0.5,9.8-0.5,9.8
			S41.2,53,34,49.4c-7.2-3.6-4.5-11.1-4.5-11.1s2.2-4,1.2-6.7c-1-2.7-5.2-7.6-4.4-14.6c0.8-6.9,4.4-10.7,11-12.9
			C43.8,1.8,48.2,2.4,52.8,4.9z"/>
		<path class="st3" d="M49.7,37.8c0.2-0.8,1.7-1.1,3.2-1.3c-2.4-0.6-5.4-1.7-5.6-3.4c-0.3-2.9-1.2-7.7-1.2-7.7L41,27.8
			c0,0-0.4,15.6-2.9,22.8c5.8,0.5,11.1-3,11.1-3S49.2,39.4,49.7,37.8z"/>
		<path class="st0" d="M48.5,29.2c-0.1-1.8-0.7-2.9-2.5-2.2c-1.7,0.7-2.7,3.7-1.1,5.8C46.5,34.8,49,36.6,48.5,29.2z"/>
		<path class="st13" d="M46.3,1c-8.5,0.3-18.7,3.6-20.5,13.4c-1.8,9.8,2.4,12.4,2.4,12.4l0,0c1,2,2,3.6,2.4,4.8
			c0.2,0.6,0.3,1.3,0.2,2c1.7,0.7,3.8,1.4,5.5,1.3c3.3-0.2,3.4,0.6,5.1-2.6c1.7-3.2,3.5-6.5,6-6.1c2.5,0.3,4.2,1,4.5-0.2
			c0.3-1.2,0.4-1.4,0.3-2.6c-0.1-1.2,1.8-2.7,2.4-4.6c0.6-1.9-1.8-3.9,0-5.7c1.2-1.2,2.2-1.8,2.7-2.8c0,0,1.2-0.8,1.1-2.3
			C58.5,6.4,54.9,0.7,46.3,1z"/>
		<path class="st14" d="M47.5,26.1c2.5,0.3,4.2,1,4.5-0.2c0.3-1.2,0.4-1.4,0.3-2.6c-0.1-1.2,1.8-2.7,2.4-4.6
			c0.2-0.5,0.1-1.1-0.1-1.6c-2.2,3.7-15.4,9.9-19.8,10.5c-2.2,0.3-4.7-0.2-6.5-0.7c1,2,2,3.6,2.4,4.8c0.2,0.6,0.3,1.3,0.2,2
			c1.7,0.7,3.8,1.4,5.5,1.3c3.3-0.2,3.4,0.6,5.1-2.6C43.3,29.1,45,25.8,47.5,26.1z"/>
	</g>
	<path class="st15" d="M25,42.9l-2.6-5c0,0-6,1.1-7.4,5.5c-1.4,4.3-5.3,12.4-6.3,16.7c-1,4.3-2.7,17.9,0.2,19.4
		c2.9,1.5,5.3,1.7,8,0.6c2.7-1.1,7.7-5.2,7.7-5.2L25,42.9z"/>
	<path class="st16" d="M16.8,54.6c0,0-0.1,5-1.8,9.9c-1.6,4.9-2.9,7.9-2.4,11.4c0.2,2-1.1,3.7-0.8,4.8c1.7,0.4,3.3,0.2,5.1-0.5
		c2.7-1.1,7.7-5.2,7.7-5.2l0.2-15.4L16.8,54.6z"/>
	<path class="st1" d="M22.6,224.5c0,0-0.8,4.6,5.5,5.5c3.6,0.5,9-4.6,11.4-9.7c1.8-4,1.2-8.2,1.2-8.2s-0.5-21.8,1.3-29.7
		c1.8-7.9,7.2-37.8,7.2-37.8l-8.5-39.4l-19,19.9c0,0,2.8,19.4,2.5,31.7c-0.2,12.3-3.9,25.1-3.2,38C21.9,207.9,22.6,224.5,22.6,224.5
		z"/>
	<path class="st16" d="M70.2,130.6c0,0,3.7,15.7,1.4,31.1c-2.2,15.4-6,47.4-6.5,55.1c-0.5,7.7,5.3,19.7,5.3,19.7s-14.5,7.3-25.8,6.6
		c0,0-2.7-31.3-1.6-40.8c1.2-9.5,4.8-21.2,3.6-27.9c-1.2-6.7-4.7-31.6-4.7-31.6s-4.5-6.8-5.6-13.1C35.3,123.4,70.2,130.6,70.2,130.6
		z"/>
	<path class="st15" d="M69.2,114.9c-1.8-9.2-4.1-13.1-4.3-18.1c-0.1-5,2.5-27.9-5.5-36.5c-7.9-8.6-15.3-10.4-15.3-10.4L29.5,38.3
		c0,0-5.3-0.5-7-0.3c-1.7,0.3-4.4,4-5.4,7.7c-1,3.7-2.1,12.6,0.5,19.8c2.6,7.1,9.3,22.3,7.6,31c-1.7,8.7-6.1,28.7-6.1,28.7
		s2.4,1.9,11.2,5.8l2.6-17L32,131.9c1.3,0.6,2.8,1.2,4.4,1.8c17.3,7.1,36-1,36-1S71,124.1,69.2,114.9z"/>
	<path class="st17" d="M30.3,35.5c0,0,3.8,4.1,8.1,6.2c3.8,1.9,11.3,3.8,11.3,3.8l1.7,6.2c0,0-14-2.2-20.1-5.6
		c-6.1-3.4-3.2-8.3-3.2-8.3L30.3,35.5z"/>
	<path class="st1" d="M32.6,41.2c-3.8-3.2-3.4-5.3-3.4-5.3L26.7,38c0,0-3.2,4.9,2.5,8.4c5.7,3.5,14.2,5.3,18.7,6.9
		c4.5,1.6,9.1,5.5,9.1,5.5l2.4,1.4C54.1,49,36.4,44.3,32.6,41.2z"/>
	<g>
		<path class="st0" d="M96.8,87.1c0.7-1.5,1-3.7,0.8-4.7c-0.2-1-2-3.5-0.9-4c1.1-0.5,2.8,2,2.8,2l1.2-2.3c0,0-0.3-0.6,0.1-1.5
			c0.4-0.8,1.5-0.9,1.9-0.7c0.4,0.2,2,0.3,2,0.3c-0.6-0.5-2-2-1.5-3.2c0.5-1.2,3.5,0.7,5.8,2.4c2.3,1.6,2.2,3.4,2.6,5.3
			c0.4,1.9,1.8,2.4-0.7,6.6c-2.5,4.2-5.6,7.3-8.5,10.7c-0.5,0.6-1.3,1.5-2.4,2.6l-5.5-6.7c1.9-1.1,3.2-1.9,3.2-1.9
			S96.1,88.6,96.8,87.1z"/>
		<path class="st3" d="M102.3,88.7c-0.4,1.8-4.5,3.1-4.5,3.1l-0.1,0c-0.3-0.7-1.4-3.3-0.8-4.7c0.7-1.5,1-3.7,0.8-4.7
			c-0.2-1-2-3.5-0.9-4c1.1-0.5,2.8,2,2.8,2l1.2-2.3c0,0-0.3-0.6,0.1-1.5c0.5-0.8,1.5-0.9,1.9-0.7c0.4,0.2,2,0.3,2,0.3
			c-0.6-0.5-2-2-1.5-3.2c0.4-0.9,2-0.1,3.8,1c1.2,2,2.8,3.8,2.8,3.8l-1.8,3.6l-2.8,1.7C105.1,83.1,102.8,86.9,102.3,88.7z"/>
	</g>
	<g>
		<path class="st0" d="M92.1,68.8c-0.6,0.4-1.9,0.5-3-0.3c-1.1-0.8-2.9-3-4.1-2.8c-1.1,0.1-2.4,0.4-2.4,0.4s1.9,2,1.4,3
			c-0.5,1-1.1,2.8-1.1,2.8s3.3,1.6,2.9,3.3c-0.4,1.7-4,0.7-5.2,0c0,0-1.4,2.4-2.2,2.2c-0.9-0.2-0.4-3.8-0.4-3.8l-0.8,0
			c0,0-3,2.2-4.4,2.5c-1.3,0.3-1.4-0.5-1.1-1.1c0.3-0.6,1.7-2.4,1.7-2.4l-6.2-1.4l-7.4,4.6l-4.6-7.2c0,0,9.7-4.2,11.7-4.2
			c2-0.1,9.5-2.4,11-2.5c1.6-0.1,5.9,0.2,7.5,0.5C87,62.7,93.3,68,92.1,68.8z"/>
		<path class="st3" d="M82.6,66.1c0,0,1.9,2,1.4,3c-0.5,1-1.1,2.8-1.1,2.8c-3.8-1-6-3.8-5.5-4.7C77.7,66.3,82.6,66.1,82.6,66.1z"/>
		<path class="st3" d="M77.7,73.2c2.2,0.5,2.8,1.9,2.8,1.9s-1.4,2.4-2.2,2.2c-0.9-0.2-0.4-3.8-0.4-3.8l-0.8,0c0,0-3,2.2-4.4,2.5
			c-1.3,0.3-1.4-0.5-1.1-1.1c0.3-0.6,1.7-2.4,1.7-2.4l-0.1,0C74.1,72.5,75.5,72.7,77.7,73.2z"/>
		<path class="st1" d="M65.4,63.9c0,0,2.7,2.8,2.1,10L58,80.4l-6.6-11.7L65.4,63.9z"/>
	</g>
	<path class="st0" d="M105.1,90.8c0,0-2.9-2.6-1.9-5.9c1.1-3.2,1.9-4.7,1.6-5.8c-0.3-1.1-1.5-6.3,0.7-6.6c2.2-0.3,2.3,2.8,2.5,4.4
		c0.2,1.5,0.7,3.4,1.5,4.6c0.8,1.2,1.5,3.3,0.2,6.3C108.5,90.8,106.9,92.1,105.1,90.8z"/>
	<path class="st16" d="M69.2,114.9c-1.8-9.2-4.1-13.1-4.3-18.1c-0.1-3.4,1-14.8-0.6-24.6L49.2,69c0,0-3.2,2.6-2.4,8.2
		c0.7,4.8,8.4,41.7,9.1,59.3c9.4-0.7,16.4-3.8,16.4-3.8S71,124.1,69.2,114.9z"/>
	<g>
		<path class="st15" d="M73.2,96.6c5.4-2.2,23.2-8.3,23.2-8.3c3.3,0.6,6,3,6.3,5.5c0.3,3.3-2.3,7.9-2.3,7.9s-14.2,4.6-20.7,8.5
			c-6.5,3.9-9.6,2.7-12,1.2C64.1,109.3,66.7,99.2,73.2,96.6z"/>
		<path class="st16" d="M73.2,96.6c5.4-2.2,23.2-8.3,23.2-8.3c1.2,0.2,2.4,0.7,3.4,1.3l-0.3,0.9c0,0-22.5,8.8-31.9,20.7
			C64.3,108.8,66.9,99.2,73.2,96.6z"/>
	</g>
	<path class="st15" d="M52.2,55.6c0,0,8.2,2.9,11.1,8.8c2.9,5.9,4.1,15.9,5.2,18.5c1.1,2.6,6.7,13.9,8.3,16.2
		c1.6,2.4,2.8,5.3,0.9,8.2c-1.9,2.9-4.4,7-9.5,5.5c-5.1-1.5-13.3-15.9-16-22c-2.7-6.1-5.9-14.9-5.9-20.7
		C46.3,64.5,50.1,56.9,52.2,55.6z"/>
</g>
</svg>
