<?xml version="1.0" encoding="utf-8"?>
<!-- Generator: Adobe Illustrator 26.0.2, SVG Export Plug-In . SVG Version: 6.00 Build 0)  -->
<svg version="1.1" id="Layer_1" xmlns="http://www.w3.org/2000/svg" xmlns:xlink="http://www.w3.org/1999/xlink" x="0px" y="0px"
	 viewBox="0 0 119.3 236.5" style="enable-background:new 0 0 119.3 236.5;" xml:space="preserve">
<style type="text/css">
	.st0{fill-rule:evenodd;clip-rule:evenodd;fill:#DBD1BD;}
	.st1{fill-rule:evenodd;clip-rule:evenodd;fill:#FF9900;}
	.st2{fill-rule:evenodd;clip-rule:evenodd;fill:#FF6B00;}
	.st3{opacity:0.3;fill-rule:evenodd;clip-rule:evenodd;fill:#0F0B0B;}
	.st4{fill-rule:evenodd;clip-rule:evenodd;fill:#453F3F;}
	.st5{fill-rule:evenodd;clip-rule:evenodd;fill:#00558C;}
	.st6{fill-rule:evenodd;clip-rule:evenodd;fill:#ED9870;}
	.st7{fill-rule:evenodd;clip-rule:evenodd;fill:#FFAA83;}
	.st8{fill-rule:evenodd;clip-rule:evenodd;fill:#E8EFFD;}
	.st9{fill-rule:evenodd;clip-rule:evenodd;fill:#7A716D;}
	.st10{fill-rule:evenodd;clip-rule:evenodd;fill:#2E2B2B;}
	.st11{fill-rule:evenodd;clip-rule:evenodd;fill:#2D8E8B;}
	.st12{fill-rule:evenodd;clip-rule:evenodd;fill:#17635F;}
	.st13{fill-rule:evenodd;clip-rule:evenodd;fill:#339999;}
	.st14{fill-rule:evenodd;clip-rule:evenodd;fill:#CE7C56;}
	.st15{fill-rule:evenodd;clip-rule:evenodd;fill:#B19F8F;}
	.st16{fill-rule:evenodd;clip-rule:evenodd;fill:#41B5B2;}
	.st17{fill-rule:evenodd;clip-rule:evenodd;fill:#452312;}
	.st18{fill-rule:evenodd;clip-rule:evenodd;fill:#7A3A1E;}
	.st19{fill-rule:evenodd;clip-rule:evenodd;fill:#676161;}
	.st20{fill-rule:evenodd;clip-rule:evenodd;fill:#565050;}
	.st21{fill-rule:evenodd;clip-rule:evenodd;fill:#FFEA9E;}
</style>
<g>
	<path class="st0" d="M73.8,50.4c0.2-0.5,0.5-1.2,0.7-2c0.1,0.2,0.2,0.5,0.3,0.7c0.9,3.5,1.4,7,1.6,10.5c-0.4-2.4-0.9-4.6-1.5-6.6
		C74.5,52,74.2,51.2,73.8,50.4z"/>
	<path class="st0" d="M71.6,52.3c0.1,0.5,0.2,1.1,0.3,1.7c0.6,4.5,1.2,8.7,1.6,12.5c0.4,3.8,0.6,8.1,0.6,13.1c0,4.9,0,8.3-0.1,10.2
		c0,0.9,0,1.6,0.1,2.3c0,0.2-0.1,0.5-0.1,0.7c-1.1-11-1.9-19.9-2.5-26.8c-0.5-5.5-3-11.8-7.6-19c0,0,0.1,0.1,0.1,0.1
		C67.3,50.3,69.8,52,71.6,52.3z"/>
	<path class="st1" d="M74.1,92.1C74,91.4,74,90.7,74,89.8c0-1.8,0.1-5.2,0.1-10.2c0-4.9-0.1-9.3-0.6-13.1c-0.4-3.8-1-8-1.6-12.5
		c-0.1-0.6-0.2-1.2-0.3-1.7c0-0.1,0-0.3-0.1-0.4l-0.7-3.2c0-0.1-0.1-0.2-0.1-0.3v-0.1c0.2,0,0.4,0.1,0.7,0.1c0.6,0,1-0.2,1.3-0.7
		c0.2,0.6,0.5,1.4,0.9,2.3c0,0.1,0.1,0.2,0.1,0.2c0,0.1,0,0.2,0.1,0.3v-0.1c0.3,0.8,0.7,1.7,1,2.5c0.6,2,1.1,4.2,1.5,6.6l-0.6,35.6
		c-0.7-0.3-1.2-1-1.5-2.1C74.2,92.7,74.1,92.4,74.1,92.1z"/>
	<path class="st2" d="M65.6,214.4v-10.8c0.8,0.3,1.7,0.5,2.6,0.7c1.5,0.3,3.1,0.4,4.7,0.3c0,0,0.1,0,0.1,0h0.1l0.8-0.4l0.4-0.3
		c0,0,0.1,0.1,0.1,0.1l1.5,1.6c0,0.1,0.1,0.2,0.3,0.4c-0.2,0.1-0.5,0.2-0.8,0.3c-1.5,0.4-2.6,0.8-3.6,1c-1.6,0.5-2.9,1.3-3.9,2.3
		C66.7,210.9,65.9,212.5,65.6,214.4c2.3,0,5.5,0.5,9.7,1.6c2,0.6,4.1,1.1,6.1,1.7c3.8,0,7.2-0.5,10-1.6c0.1,0,0.3,0.1,0.5,0.1
		l1.5,3.1v0.2c0,0,0,0.1,0,0.2h-0.1c-3.1,1-6.4,1.4-9.8,1.2c-2.8-0.2-5.5-0.8-8.3-1.7c-0.4-0.2-0.9-0.4-1.4-0.5
		c-0.8-0.1-1.9-0.2-3.3-0.3c-1.8,0-2.9,0-3.3-0.1c-0.6-0.1-1.2-0.1-1.7-0.3V214.4z"/>
	<path class="st3" d="M91.9,216.2c-0.3-0.1-0.7-0.3-1.1-0.4c-1.8-0.5-3.5-1.3-5.1-2.2c-1.4-0.9-2.8-1.8-4.1-2.8
		c3.4,0.5,6.6,1,9.6,1.7c9.4,2.1,14.2,4.6,14.2,7.6s-4.7,5.5-14.2,7.5c-7.3,1.6-15.9,2.6-25.7,3v-9.4c1.1,0.1,2.2,0.1,3.4-0.1
		c1.4-0.2,2.5-0.5,3.3-0.9c1,0.2,2,0.5,2.9,0.7c2.9,0.7,5.5,1.1,7.6,1.4c3.9,0.4,7.4,0.1,10.5-0.9c0.1-0.4,0.2-0.8,0.3-0.9
		c0-0.4,0-0.7-0.3-0.7c0-0.1,0-0.2,0-0.2v-0.2L91.9,216.2z"/>
	<path class="st3" d="M14,225l30.3,5.3c-8-0.5-15.1-1.4-21.4-2.8C19.2,226.8,16.2,226,14,225z"/>
	<path class="st3" d="M11.4,216.5v7.2c-1.8-1.1-2.7-2.3-2.7-3.6S9.6,217.6,11.4,216.5z"/>
	<path class="st4" d="M44.2,191.7c0.2-0.2,0.3-0.5,0.3-0.8v-5.5c0-0.4-0.1-0.7-0.4-1c-0.2-0.3-0.6-0.5-0.9-0.6l-5.4-0.9
		c-0.1-0.9-0.3-1.7-0.4-2.5c-0.1-2,0.2-4.2,0.9-6.5c0.4-1.4,1.1-3.5,2.1-6.2v-0.1l0.7-2c0-0.1,0-0.2,0.1-0.2c0.6-1.6,1-2.9,1.2-3.9
		c0.6-2.4,0.9-4.6,0.9-6.5c0-2.8,0.2-7.4,0.6-13.8c0.4-5.9,0.6-10.5,0.5-13.8c0-4.5,0-7.9,0-10.1c0-1.7,0.1-3.2,0.3-4.7
		c0.1-1.1,0.3-2.1,0.5-3.1c0.1-0.8,0.3-1.6,0.6-2.3l7.3,3.3c1.1,0.4,2.1,0.8,3.1,1.2c0,0.1,0.1,0.3,0.1,0.5c0.4,1.9,0.7,3.6,0.7,4.9
		c0,6.8-0.4,12.8-1.1,18.2c-0.6,3.7-1.5,8.2-2.8,13.4c-1.7,6.6-2.9,11.5-3.5,14.7c-1.3,6.6-2.3,13.9-3.1,21.9v6.8L44.2,191.7z"/>
	<path class="st4" d="M73,204.6c-1.6,0.1-3.2,0-4.7-0.3c-0.9-0.2-1.8-0.4-2.6-0.7v-8.1l-0.9,0.1l1-0.2l-3.3-0.6
		c-0.2-3.6-0.7-7.4-1.5-11.2c-1.2-2.4-1.7-5.1-1.7-8.1c0.1-2,0.5-4.7,1.2-8.2c0.8-4.1,1.3-6.8,1.5-8.3c0.3-3.1,0.2-5.9-0.5-8.3
		c0.3-4.1,1.1-9.1,2.3-15c1.5-6.5,2.5-11.4,3.1-14.7c1.9-0.9,3.4-1.6,4.5-2.3c1.6-1.1,2.8-2.3,3.6-3.6c0.4-0.1,0.8-0.2,1.2-0.4
		c0.9-0.3,1.8-0.6,2.6-0.9c0.4-0.2,0.8-0.4,1.2-0.7c0,2.3,0.3,4.6,0.8,7.1c0.4,2.4,0.2,6.3-0.8,11.6c-0.9,5.2-3.4,12.2-7.6,20.8
		c-1.1,4.4-1.6,10.3-1.6,18l1.4,25.6C72.4,199.1,72.7,202,73,204.6z"/>
	<path class="st4" d="M39.4,190.8c-0.2-1.1-0.4-2.1-0.7-3.1c-0.1-0.5-0.2-1-0.3-1.5l3,0.5v4.2c0,0.1,0,0.2,0.1,0.3L39.4,190.8z"/>
	<path class="st5" d="M62,10.3c0.3-0.1,0.7-0.3,1-0.4c0.1,0.1,0.2,0.2,0.4,0.2C62.8,10.2,62.4,10.3,62,10.3z"/>
	<path class="st5" d="M51.5,29.7c-0.3-0.2-0.7-0.5-1-0.7c0.1,0,0.3,0.1,0.4,0.2C51.1,29.4,51.3,29.6,51.5,29.7z"/>
	<path class="st6" d="M63.4,10.1c1.2-0.2,2.6-0.4,4.3-0.7c0,0,0.1,0.1,0.1,0.1c0.4,0.5,0.8,1,1.2,1.5c0.2,0.3,0.5,0.6,0.7,1
		c-0.1,0-0.3,0-0.4,0c-4.8,0.4-8.2,1.5-10.2,3.3c-1.2,1.4-2.2,2.5-3.1,3.4c-0.2,0.2-0.5,0.5-0.7,0.7c0,0,0-0.1,0-0.2v-0.1L55,17.7
		c0-0.2-0.1-0.3-0.1-0.5c-0.3-0.8-0.7-1.5-1.2-2.1c0-0.1-0.1-0.2-0.3-0.2c1.5-1.9,3.6-3.3,6.5-4.1c0.3-0.1,1.1-0.2,2.2-0.4
		C62.4,10.3,62.8,10.2,63.4,10.1z"/>
	<path class="st6" d="M103.1,12L103.1,12l0.1,0.1l0.3-0.1c0,0,0.1,0,0.2,0c0,0.2-0.2,0.5-0.5,0.7c-0.3,0.2-0.4,0.5-0.4,0.7
		c0,0.1,0.2,0.8,0.6,1.8c0.3,1.3,0.5,2.1,0.6,2.5c0.5-0.1,0.8-0.5,0.8-1.1c-0.1-0.6-0.2-1-0.2-1.3v-1.6c0,0,0.1,0,0.1-0.1
		c0,0,0.1-0.1,0.3-0.1c0.3,0,0.6,0.5,0.7,1.5v2.5h1.1c0.1-0.9,0.2-1.6,0.3-2.1c0.2-0.7,0.5-1.3,0.9-1.8c0.2,0.2,0.3,0.3,0.3,0.4
		c0,0.3-0.2,1.5-0.5,3.6c0,0.2,0,0.3,0.1,0.2l0.1,0.1c0,0,0.1,0,0.3,0c0.1,0,0.4-0.5,0.9-1.6c0.7-1.2,1.1-1.9,1.4-2.2l0.3,0.1
		l0.1,0.1c-0.2,0.5-0.4,1.3-0.6,2.4c-0.5,1.7-1,2.6-1.5,2.6c-0.1,0-0.3,0-0.5-0.1c-0.2-0.2-0.3-0.3-0.4-0.3l-2.1-0.1l-0.9,0.1
		c0.1,0.9,0.3,1.6,0.6,2c0.2,0.4,0.3,0.9,0.3,1.5c0,0.4,0,0.7,0,0.8c-0.1,0.3-0.3,0.5-0.7,0.6c0.6,0.1,1.2,0.2,1.7,0.2
		c0,0,0.7-0.5,1.9-1.4c-0.3,0.7-0.7,1.5-1.2,2.3c0,0-0.1,0-0.1,0c-0.9-0.2-1.8-0.4-2.8-0.6c-1.3-0.3-2.6-0.7-3.9-1.1
		c0-0.5,0-1-0.1-1.5c0-0.1,0-0.3,0-0.4c0.3,0.2,0.8,0.6,1.5,1.1c1,0.6,2,1,2.9,1.2c-0.5-0.7-1-1.4-1.5-2.2c-0.9-1.2-1.3-2-1.3-2.3
		c0-0.1,0.2-0.6,0.5-1.3c0.2-0.7,0.4-1.2,0.4-1.5l-0.7-2.8c-0.3,0-0.7,0.3-1.3,0.9c-0.3,0.3-0.6,0.6-0.8,0.9c0-0.1,0-0.2,0-0.3
		l-0.1-0.6c0.3-0.3,0.7-0.8,1.2-1.3C102.1,12.7,102.7,12.3,103.1,12z"/>
	<path class="st6" d="M81.2,85.4c0-0.1,0-0.3,0-0.4h0.1L81.2,85.4z"/>
	<path class="st6" d="M59.4,36c-1.5-0.4-2.9-1-4.4-1.7l-0.2-0.9l-0.2-0.5c-0.1-0.4-0.4-0.8-0.7-1.2c-0.4-0.5-0.7-0.9-0.8-1.2
		c0-0.1-0.1-0.3-0.1-0.4c0.5,0.2,0.9,0.4,1.4,0.7c4.3,1.9,9,2.9,14.3,2.9v0.1c0,0.4,0.1,1,0.3,1.9c-0.3,1.2-0.8,1.9-1.5,2
		c-0.5,0.2-1.3,0.1-2.4-0.2c-1.3-0.5-2.2-0.9-2.9-1.2C61,35.9,60.1,35.8,59.4,36z"/>
	<path class="st6" d="M43.5,98.1c1-0.4,1.8-0.9,2.5-1.6c0.2-0.3,0.5-0.6,0.7-1c0.8-1.4,0.8-2.7,0.1-3.9c0.2,0,0.6,0,1.1-0.1
		c0.2,0,0.5-0.1,0.7-0.1c0.2,0.7,0.3,1.6,0.3,2.5c0,0.6,0,1.6-0.1,3c0,1.5,0.6,2.9,1.7,4.1c0.2,0.2,0.4,0.5,0.7,0.8
		c0,0-0.1,0.1-0.2,0.1c-0.5,0.1-1.1,0-1.7-0.3h-0.1c-0.8-0.4-1.5-0.8-2.3-1.2c-0.3-0.2-0.7-0.3-1.1-0.4c-0.3-0.2-0.7-0.5-1.1-0.9
		C44.5,98.9,44.2,98.6,43.5,98.1z"/>
	<path class="st6" d="M56.2,27.5c0,0,0.1-0.1,0.1-0.1c0,0,0,0.1,0.1,0.2C56.3,27.5,56.2,27.5,56.2,27.5z"/>
	<path class="st7" d="M70.5,32c-3.3,0.4-6.1,0.4-8.1,0c-3-0.6-4.9-2.1-6-4.4c0-0.1-0.1-0.2-0.1-0.2c0,0-0.1,0.1-0.1,0.1
		c-0.6,0.3-1.3,0.4-2,0.3c-0.6,0-1.3-0.3-2.1-0.7c-0.7-0.7-1.2-1.5-1.5-2.2c-0.4-0.9-0.5-1.8-0.2-2.6c0.3,0,0.9,0.5,2,1.3
		c0.8,0.6,1.5,0.8,2.2,0.6c0.4-2.1,0.6-3.7,0.6-4.7c0.2-0.2,0.5-0.5,0.7-0.7c0.9-0.9,2-2.1,3.1-3.4c1.9-1.8,5.3-3,10.2-3.3
		c0.1,0,0.3,0,0.4,0c0.9,1.6,1.6,3.5,1.9,5.7C71.9,19.9,72,24,72,30C72.1,31.2,71.6,31.9,70.5,32z"/>
	<path class="st7" d="M100.4,21.6c-0.2-2.7-0.3-4.7-0.4-6c0.2-0.2,0.5-0.5,0.8-0.9c0.6-0.6,1-0.9,1.3-0.9l0.7,2.8
		c0,0.3-0.1,0.8-0.4,1.5c-0.3,0.7-0.5,1.2-0.5,1.3c0,0.3,0.4,1,1.3,2.3c0.5,0.8,1,1.5,1.5,2.2c-1-0.2-1.9-0.6-2.9-1.2
		C101.2,22.2,100.7,21.8,100.4,21.6z"/>
	<path class="st7" d="M100,14.7l-0.1-1.5c0-1.5,0.1-2.8,0.3-4.1c0.2-1.6,0.7-3.1,1.3-4.4c0.7,0,1.2,0.4,1.3,0.9
		C103,6.3,103,7,102.8,8c-0.1,0.4-0.2,0.8-0.2,1.2c0,0.6-0.1,1-0.1,1.2c0,0.7,0.2,1.3,0.6,1.6c-0.4,0.3-1,0.8-1.8,1.4
		C100.7,13.9,100.3,14.3,100,14.7z"/>
	<path class="st7" d="M110.1,16.7c0,0.5-0.1,1.1-0.2,1.7c-0.1,1.3-0.6,2.7-1.4,4.3c-1.2,0.9-1.8,1.4-1.9,1.4c-0.6,0-1.2-0.1-1.7-0.2
		c0.3-0.1,0.6-0.3,0.7-0.6c0-0.1,0-0.4,0-0.8c0-0.6-0.1-1.1-0.3-1.5c-0.2-0.4-0.4-1.1-0.6-2l0.9-0.1l2.1,0.1c0,0,0.2,0.1,0.4,0.3
		c0.2,0,0.4,0.1,0.5,0.1C109.1,19.3,109.6,18.4,110.1,16.7z"/>
	<path class="st7" d="M110.7,14.3L110.7,14.3l-0.4-0.2c-0.2,0.2-0.7,1-1.4,2.2c-0.5,1.1-0.8,1.6-0.9,1.6c-0.1,0-0.2,0-0.3,0
		l-0.1-0.1c0,0-0.1,0-0.1-0.2c0.3-2.1,0.5-3.3,0.5-3.6c0-0.1-0.1-0.2-0.3-0.4c-0.4,0.5-0.7,1.1-0.9,1.8c0,0.5-0.1,1.2-0.3,2.1h-1.1
		V15c-0.1-1-0.3-1.5-0.7-1.5c-0.1,0-0.2,0-0.3,0.1c0,0,0,0.1-0.1,0.1v1.6c0,0.3,0.1,0.7,0.2,1.3c0,0.6-0.3,0.9-0.8,1.1
		c0-0.4-0.2-1.3-0.6-2.5c-0.4-1.1-0.6-1.7-0.6-1.8c0-0.2,0.1-0.4,0.4-0.7c0.3-0.2,0.5-0.4,0.5-0.7c-0.1,0-0.2,0-0.2,0
		c1.3-0.2,2.5-0.2,3.9,0c1.5,0.3,2.6,0.9,3.4,1.9C110.8,14,110.7,14.2,110.7,14.3z"/>
	<path class="st7" d="M48.6,91.4c2.1-0.2,3.6,0.8,4.6,2.8c1.1,2.3,0.9,4.5-0.7,6.4c-0.4,0.5-0.9,0.8-1.4,1.1
		c-0.2-0.3-0.5-0.6-0.7-0.8c-1.1-1.2-1.7-2.6-1.7-4.1c0.1-1.4,0.1-2.4,0.1-3C48.9,93,48.8,92.1,48.6,91.4z"/>
	<path class="st1" d="M65.6,214.4c0.3-1.9,1.1-3.5,2.3-4.7c1-1,2.3-1.8,3.9-2.3c0.9-0.2,2.1-0.6,3.6-1c0.3-0.1,0.6-0.2,0.8-0.3
		c-0.1-0.1-0.2-0.3-0.3-0.4c1.8,1.9,3.7,3.6,5.7,5.2c1.3,1,2.7,1.9,4.1,2.8c1.6,0.9,3.3,1.6,5.1,2.2c0.4,0.1,0.8,0.2,1.1,0.4
		c-0.2,0-0.4-0.1-0.5-0.1c-2.9,1.1-6.2,1.6-10,1.6c-2-0.5-4.1-1.1-6.1-1.7C71.1,214.9,67.9,214.4,65.6,214.4z"/>
	<path class="st8" d="M73.5,44.7c0,0,0,0.1-0.1,0.1c-0.3-0.6-0.8-1.5-1.4-2.6l-0.3-0.7c0-0.1-0.1-0.3-0.1-0.4V41c0-0.2,0-0.4,0-0.6
		c0-0.2,0-0.4,0.1-0.5c0.2-0.9,0.4-1.5,0.4-1.6c-0.3-1.6-1.5-3.2-3.3-4.6v-0.1l0.2-0.6c1,0.7,2.1,1.8,3.3,3.5c0.6,1.4,1,2.5,1.2,3.2
		c0.1,0.4,0.2,0.7,0.2,0.9c0.1,0.4,0.2,0.8,0.2,1.1C74,42.8,73.8,43.8,73.5,44.7z"/>
	<path class="st8" d="M104.9,33.3c-0.3,0-0.7-0.1-1-0.1c-1.2-0.1-2.3-0.2-3.5-0.4c0,0,0-0.1-0.1-0.1l0.1-9.4
		c1.3,0.4,2.6,0.8,3.9,1.1c0,0.2,0,0.5,0,0.9l0.4,6.2C104.8,32.2,104.9,32.8,104.9,33.3z"/>
	<path class="st8" d="M55,34.3c1.5,0.7,3,1.3,4.4,1.7c1,0.5,2.4,1.4,4.4,2.5c1.7,0.9,3.3,1.6,4.7,2c0.1,0,0.2,0,0.3,0.1
		c0.4,0.1,0.7,0.4,0.7,0.9c0,0.4-0.1,1-0.3,1.7L69,43.9c-0.3,0.8-0.5,1.3-0.7,1.5c-0.3,0.5-0.8,0.5-1.4,0c-2.9-1.6-5.2-2.9-6.8-3.9
		c-0.2-0.1-0.3-0.2-0.4-0.3c-0.1-0.1-0.9-0.9-2.4-2.2c-1.5-1.3-3.1-2.2-4.9-2.5c0.2-1.5,0.3-2.3,0.4-2.5c0.3-0.8,0.9-1.2,1.8-1.2
		l0.2,0.5h-0.1c-0.4-0.1-0.7-0.1-0.8,0.1v0.1c0,0,0,0.1,0,0.2C54.1,34.2,54.5,34.4,55,34.3z"/>
	<path class="st8" d="M43.2,87.2c0.4,0.5,1,1.2,1.7,2.2c0.8,1,1.4,1.7,1.8,2.2c0.8,1.3,0.8,2.6-0.1,3.9c-0.2,0.4-0.5,0.7-0.7,1
		c0,0-0.1-0.1-0.2-0.1c-1.5-1.6-3-2.9-4.5-4.1c-0.1,0-0.2-0.1-0.2-0.1c0-0.1,0.1-0.2,0.2-0.3C42.9,90.5,43.6,88.9,43.2,87.2z"/>
	<path class="st9" d="M61.3,150.7c0,1.8-0.7,3.9-2.1,6.3c-1.6,2.8-2.5,4.7-2.8,6c-0.1,0.4-0.8,2.2-2,5.5c-0.8,2.2-1.3,4-1.5,5.6
		c0.1,2.5,0,5.4-0.4,8.6c-0.1,0.9-0.3,2.4-0.6,4.6v5.7l-5.2-0.9v-6.8c0.7-8,1.7-15.4,3.1-21.9c0.6-3.1,1.8-8,3.5-14.7
		c1.3-5.3,2.3-9.8,2.8-13.4c0.7-5.3,1.1-11.4,1.1-18.2c0-1.3-0.2-2.9-0.7-4.9c0-0.2-0.1-0.4-0.1-0.5c0.9,0.3,1.7,0.6,2.4,0.8
		c0.4,0.1,0.9,0.2,1.3,0.4c4.5,1.4,8.9,2.2,13.1,2.3c-0.4-4-0.8-8.3-1.1-12.8c-0.3-4.6-0.7-9.2-1.2-13.8c-0.5-4.7-1.5-9.3-3-13.6
		c-1.5-4.4-2.8-8.4-3.9-12.2c-0.8-2.6-3.4-5.3-7.8-7.9c0.1-0.7,0.5-1.7,1-3.2c0.6-1.4,1.1-2.5,1.5-3.2l-6.4-0.1
		c-0.2-5.8-0.3-9.2-0.3-10.4c0,0-0.1-0.3-0.4-0.7c0.2-0.1,0.3-0.2,0.4-0.3c0.1-0.1,0.3-0.3,0.4-0.4c1.8,0.4,3.4,1.2,4.9,2.5
		c1.5,1.3,2.3,2,2.4,2.2c0,0.1,0.2,0.2,0.4,0.3c0.1,0.1,0.2,0.2,0.3,0.2c1.3,1.8,2.5,3.5,3.6,5.2c4.6,7.1,7.1,13.4,7.6,19
		c0.6,6.9,1.4,15.8,2.5,26.8c0-0.2,0.1-0.5,0.1-0.7c0,0.3,0,0.7,0.1,0.9c0.3,1.1,0.8,1.8,1.5,2.1l0.6-35.6c-0.2-3.5-0.7-7-1.6-10.5
		c-0.1-0.2-0.2-0.5-0.3-0.7c-0.4-1.5-0.8-2.7-1-3.6c0.3-0.9,0.5-1.9,0.4-3c0-0.3-0.1-0.7-0.2-1.1c0-0.2-0.1-0.5-0.2-0.9
		c-0.2-0.7-0.7-1.8-1.2-3.2c0.1,0,0.3,0.1,0.6,0.1c0.2,0,0.4,0.1,0.7,0.1v0.1c0.4,0.5,1,1.1,1.6,2c0.4,0.5,1.1,1.4,2.3,2.7
		c0.3,0.4,1,1.7,2.1,4.1c-1.5,0.2-2.3,0.6-2.5,1.2c1.1,1.7,1.8,3,2.3,3.8c0.4,0.7,0.7,1.1,0.7,1.4c-0.1,0.3-0.2,0.8-0.3,1.5
		c-0.4,2.2-0.7,5.6-0.9,10.2c-0.3,4.6-0.4,7.4-0.4,8.4c0,1.1-0.1,3-0.3,5.5c-0.2,2.6-0.3,7.2-0.3,13.7c0,6.4,0,10.2,0,11.3
		c0,1.4,0.2,4.3,0.7,8.6c0.2,0.9,0.3,1.8,0.4,2.6c-0.8,0.3-1.7,0.7-2.6,0.9c-0.4,0.2-0.8,0.3-1.2,0.4c-0.9,1.4-2.1,2.6-3.6,3.6
		c-1.1,0.7-2.6,1.5-4.5,2.3c-0.6,3.2-1.7,8.1-3.1,14.7C62.4,141.6,61.6,146.6,61.3,150.7z"/>
	<path class="st10" d="M54.8,33.4l0.2,0.9c-0.5,0.1-0.9-0.1-1.1-0.5c0-0.1,0-0.2,0-0.2v-0.1C54,33.3,54.3,33.3,54.8,33.4L54.8,33.4z
		"/>
	<polygon class="st11" points="62.5,231.3 60.4,231.8 60.4,231.7 60.4,196.4 62.5,196.1 62.5,196.1 	"/>
	<polygon class="st12" points="60.3,196.4 60.3,196.4 54.4,195.3 56.5,195 62.4,196 	"/>
	<polygon class="st13" points="44.3,230.4 14,225 11.4,224.6 11.4,223.7 11.4,216.5 11.4,189.5 11.4,189.3 16.8,190.3 23.3,191.3 
		44.6,195.1 49.6,196 49.7,196 50.3,196.1 56.2,197.2 56.2,232.5 	"/>
	<polygon class="st12" points="17.7,188.2 23.2,189.1 21,189.5 15.6,188.5 	"/>
	<polygon class="st12" points="50.1,193.9 48,194.3 27.5,190.6 29.6,190.3 	"/>
	<path class="st14" d="M56.4,27.5c1,2.4,3,3.9,6,4.4c2.1,0.4,4.8,0.4,8.1,0l-1.6,1.1l-0.2,0.6c-5.3,0-10.1-1-14.3-2.9
		c-0.4-0.2-0.9-0.5-1.4-0.7c0-0.2-0.1-0.4-0.1-0.6l-0.2-0.6v-0.1c-0.2-1-0.4-1.6-0.5-1.8c0.8,0.4,1.5,0.7,2.1,0.7
		c0.7,0.1,1.3,0,2-0.3C56.2,27.5,56.3,27.5,56.4,27.5z"/>
	<path class="st14" d="M69,35.6c0.7,0.6,1.7,1.5,3.1,2.7c0,0.1-0.1,0.7-0.4,1.6c0,0.1-0.1,0.3-0.1,0.5c-0.3-0.1-0.7-0.2-1.1-0.2
		c-0.8,0-1.4,0.1-1.7,0.5c-0.1,0-0.2-0.1-0.3-0.1c-1.4-0.4-2.9-1.1-4.7-2c-1.9-1.2-3.4-2-4.4-2.5c0.6-0.2,1.5-0.1,2.7,0.2
		c0.7,0.2,1.6,0.6,2.9,1.2c1.1,0.3,1.9,0.4,2.4,0.2C68.2,37.5,68.7,36.8,69,35.6z"/>
	<path class="st0" d="M104.9,33.3c0-0.6-0.1-1.2-0.1-1.8l-0.4-6.2c0-0.3,0-0.6,0-0.9c0.9,0.2,1.8,0.4,2.8,0.6c0,0,0.1,0,0.1,0
		c0.3,0,0.7,0,1.1,0l1.1,8.1c-0.2,0-0.4,0-0.7,0.1c-0.1,0-0.2,0-0.3,0c-0.2,0-0.4,0.1-0.5,0.1C107,33.4,106,33.4,104.9,33.3z"/>
	<path class="st0" d="M36.3,93.9c0.1,0,0.2,0,0.3,0c0,0,0.1,0,0.1,0l0.1-0.1c1.5-0.2,2.8-0.7,4-1.5c0,0,0.1-0.1,0.2-0.1
		c0,0,0.1,0.1,0.2,0.1c1.6,1.2,3.1,2.5,4.5,4.1c0.1,0,0.2,0.1,0.2,0.1c-0.7,0.7-1.5,1.2-2.5,1.6c-1.2-0.2-2.4-0.8-3.8-1.7
		C38.2,95.2,37.1,94.4,36.3,93.9z"/>
	<path class="st2" d="M72.7,47.7c-0.3,0.5-0.7,0.7-1.3,0.7c-0.2,0-0.5,0-0.7-0.1c-0.5-1.6-1-2.9-1.5-3.8c-0.1-0.2-0.2-0.4-0.3-0.7
		l0.1-0.5c0.2-0.8,0.3-1.4,0.3-1.7c0-0.5-0.2-0.8-0.7-0.9c0.4-0.4,1-0.6,1.7-0.5c0.4,0,0.8,0.1,1.1,0.2c0,0.2,0,0.4,0,0.6V41
		c0,0.1,0.1,0.3,0.1,0.4l0.3,0.7c-0.4,1.1-0.4,2.4,0.1,3.9C72.2,46.6,72.5,47.1,72.7,47.7z"/>
	<path class="st15" d="M74.5,48.3c-0.2,0.8-0.4,1.5-0.7,2v0.1c0-0.1-0.1-0.2-0.1-0.3c0,0-0.1-0.1-0.1-0.2c-0.3-0.9-0.6-1.6-0.9-2.3
		c-0.3-0.6-0.5-1.1-0.7-1.5c-0.5-1.6-0.5-2.9-0.1-3.9c0.6,1.2,1,2,1.4,2.6c0,0,0.1-0.1,0.1-0.1C73.7,45.7,74.1,46.9,74.5,48.3z"/>
	<path class="st15" d="M60,41.6c1.6,1,3.9,2.3,6.8,3.9c0.6,0.5,1,0.5,1.4,0c0.2-0.2,0.4-0.8,0.7-1.5c0.1,0.2,0.2,0.5,0.3,0.7
		c0.5,0.9,1,2.1,1.5,3.8v0.1c0,0.1,0,0.2,0.1,0.3l0.7,3.2c0,0.1,0.1,0.3,0.1,0.4c-1.8-0.3-4.3-2-7.5-5.2c0,0-0.1-0.1-0.1-0.1
		c-1.1-1.7-2.3-3.4-3.6-5.2C60.2,41.7,60.1,41.7,60,41.6z"/>
	<path class="st16" d="M38.4,186.2l-2.8-0.5v3.5c0,0.3-0.1,0.7-0.3,0.9c-0.1,0-0.2,0.1-0.2,0.2c-0.3,0.3-0.7,0.4-1.1,0.4
		c-0.4,0-0.8-0.1-1.2-0.4c-0.2-0.2-0.3-0.5-0.4-0.7c0-0.1-0.1-0.3-0.1-0.4v-3.4v-2c0-0.3,0-0.5,0.1-0.7c0-0.1,0.1-0.1,0.1-0.2
		c0.2-0.3,0.4-0.5,0.7-0.6c0.2-0.1,0.5-0.2,0.9-0.1l3.6,0.7l5.4,0.9c0.4,0.1,0.7,0.3,0.9,0.6c0.2,0.3,0.4,0.6,0.4,1v5.5
		c0,0.3-0.1,0.6-0.3,0.8c0,0-0.1,0.1-0.1,0.1c-0.3,0.3-0.7,0.4-1.2,0.4c-0.4,0-0.8-0.1-1.1-0.4c-0.2-0.2-0.3-0.4-0.4-0.7
		c0-0.1-0.1-0.2-0.1-0.3v-4.2L38.4,186.2z"/>
	<path class="st10" d="M68.7,33.7c1.9,1.4,3,2.9,3.3,4.6c-1.4-1.2-2.4-2.1-3.1-2.7C68.8,34.7,68.7,34.1,68.7,33.7z"/>
	<path class="st17" d="M67.7,9.4c-1.6,0.3-3.1,0.5-4.3,0.7c-0.1,0-0.3-0.1-0.4-0.2c-0.3,0.1-0.7,0.3-1,0.4c-1.1,0.2-1.8,0.3-2.2,0.4
		c-2.9,0.8-5,2.2-6.5,4.1c0.1,0,0.2,0.1,0.3,0.2c-0.4,0.2-0.8,0.5-1.1,0.7c-2.4,1.3-4.5,2.2-6.5,2.8c0-1.1,0.1-2.2,0.4-3.2
		c0,0,0-0.1,0-0.1c0,0,0-0.1,0.1-0.1c0-0.1,0-0.1,0.1-0.1c0-0.1,0-0.2,0-0.2c0,0,0.1-0.1,0.1-0.1c1.3-0.3,2.5-0.8,3.7-1.2
		c0.8-0.3,1.9-1,3.3-2c1.7-1.3,3-2.2,3.8-2.6c0.2-0.1,1.7-0.7,4.4-1.7c2.7-1,4.3-1.7,4.9-2.1c0.2,0,0.8-0.5,1.7-1.5
		c0,0,0.1,0.1,0.1,0.2C69,4.2,69.1,5,69,6.2v0.1C68.7,7.4,68.2,8.4,67.7,9.4z"/>
	<polygon class="st12" points="60.3,196.4 64.7,195.6 65.6,195.5 65.6,203.6 65.6,214.4 65.6,218.1 65.6,221.1 65.6,230.6 
		65.6,230.7 62.5,231.3 62.5,196.1 62.5,196.1 60.4,196.4 60.4,231.7 56.2,232.5 56.2,197.2 60.3,196.4 	"/>
	<path class="st17" d="M55.2,19.5c0,1-0.2,2.5-0.6,4.7c-0.7,0.2-1.4,0-2.2-0.6c-1-0.8-1.7-1.3-2-1.3c-0.2,0.8-0.2,1.7,0.2,2.6
		c0.3,0.7,0.8,1.5,1.5,2.2c0.1,0.2,0.3,0.8,0.5,1.8v0.1l0.2,0.6c0,0.2,0.1,0.4,0.1,0.6c0,0.1,0.1,0.2,0.1,0.4
		c-0.5-0.2-1.1-0.5-1.6-0.7c-0.2-0.1-0.4-0.3-0.6-0.4c-0.1-0.1-0.3-0.2-0.4-0.2L49,27.5c0,0-0.1-0.1-0.1-0.1c-0.1,0-0.1-0.1-0.1-0.1
		c0,0-0.1-0.1-0.1-0.1c0,0-0.1,0-0.1-0.1c0,0,0-0.1-0.1-0.2c0,0-0.1-0.1-0.1-0.1c0,0-0.1-0.1-0.1-0.1l-0.1-0.1c0,0-0.1-0.1-0.1-0.1
		c0-0.1,0-0.2-0.1-0.2c-0.9-1.4-1.5-3-1.7-4.7c0,0,0.1-0.1,0.2-0.2c1.4-1.1,2.9-2,4.7-2.8c1.5-0.7,2.7-1.1,3.7-1.3
		c0.1,0.2,0.1,0.3,0.1,0.5l0.1,1.4v0.1C55.2,19.3,55.2,19.4,55.2,19.5z"/>
	<path class="st18" d="M68.5,3.3c-0.9,0.9-1.5,1.4-1.7,1.5c-0.6,0.4-2.2,1.1-4.9,2.1c-2.7,1-4.2,1.6-4.4,1.7
		c-0.8,0.4-2.1,1.3-3.8,2.6c-1.4,1-2.4,1.7-3.3,2c-1.2,0.5-2.4,0.9-3.7,1.2c0.1-0.5,0.3-1,0.6-1.5c1-2.2,2.5-3.9,4.5-5
		c0.8-0.8,1.8-1.4,3.1-1.8c0.7-0.3,1.9-0.7,3.6-1.2c3.1-0.8,5.3-1.9,6.4-3.3c0.4-0.3,0.7-0.4,1-0.2c0.1,0.1,0.3,0.5,0.6,1.1
		c0.2,0.5,0.5,0.8,0.7,0.9c0.3,0.2,0.7,0.2,1.1-0.2C68.3,3.2,68.4,3.3,68.5,3.3z"/>
	<path class="st18" d="M54.9,17.2c-1,0.2-2.3,0.6-3.7,1.3c-1.7,0.8-3.3,1.7-4.7,2.8c-0.1,0.1-0.2,0.2-0.2,0.2
		c-0.1-0.6-0.2-1.2-0.2-1.7c0-0.4,0-0.8,0-1.2c1.9-0.5,4.1-1.5,6.5-2.8c0.3-0.2,0.7-0.4,1.1-0.7C54.2,15.7,54.6,16.4,54.9,17.2z"/>
	<path class="st19" d="M109.7,61.1c-0.2,0-0.4-0.1-0.7-0.1c-6-1.3-9.5-2.2-10.8-2.8c-1.8-1-3.6-2.2-5.4-3.6c-1.8-1.6-3-2.8-3.4-3.9
		c-1.2-3.9-2.5-7-4-9.4l14.5,8.9v-3.8c0-1.2,0-2.4,0.1-3.6c0-1.3,0.1-2.5,0.1-3.9c0-0.3,0-0.6,0.1-1v-0.9c0-1,0.1-2,0.1-3.1
		c0-0.4,0-0.8,0-1.1c1.2,0.1,2.3,0.3,3.5,0.4c0.3,0,0.7,0,1,0.1c1,0,2.1,0,3.1,0c0.1,0,0.3,0,0.5-0.1c0.1,0,0.2,0,0.3,0
		c0.2,0,0.5-0.1,0.7-0.1c0.4,1.7,0.7,3.4,0.8,5.1c0.1,1.6,0.2,3.1,0.3,4.5c0.1,1.2,0.2,2.7,0.2,4.4c0.1,1.3,0.3,2.7,0.4,4.4
		c0,0.7,0.1,1.4,0.1,2.1c0.2,2.6,0,4.5-0.7,5.8C110.5,60.1,110.2,60.6,109.7,61.1z"/>
	<path class="st19" d="M41.1,42.8c3.7,1.4,6.4,3.7,8.1,6.9c-0.2,0.1-0.4,0.3-0.6,0.4c-3.1,2-5.8,4.4-8.2,7.2
		c-1.9,1.9-3.6,3.8-5.2,5.5c-3,3.3-4.4,5.5-4.4,6.5c0,0.3,0.8,1.5,2.3,3.6c1.2,1.6,2.1,2.6,2.9,3.1c1,1.2,2.1,2.7,3.1,4.4
		c2.6,4.3,4,6.5,4.2,6.8c0.3,1.7-0.3,3.3-2,4.7c-0.1,0.1-0.2,0.2-0.2,0.3c-0.1,0-0.2,0.1-0.2,0.1c-3.1-3.2-5.6-5.8-7.4-7.7
		c-7.2-7.7-10.8-13.1-10.8-16.2c0-0.7,0.1-1.5,0.4-2.5c1.9-2.6,3.5-4.9,4.9-7c2.8-3.9,5.1-7.7,6.9-11.2c0.3-0.4,0.6-0.8,1-1.2
		c0.5-0.7,1.1-1.2,1.7-1.7C38.6,43.9,39.8,43.2,41.1,42.8z"/>
	<path class="st20" d="M81.3,84.9L81.3,84.9c-0.1,0.1-0.1,0.3-0.1,0.4c0,1.5,0.1,3.1,0.4,5c0.1,0.4,0.4,2.2,1,5.5
		c0.1,0.7,0.4,1.9,0.9,3.6c0.6,1.8,0.9,3.1,1.1,4c0.6,3.1,0.1,5.6-1.5,7.4c-0.7,0.6-1.5,1.1-2.2,1.6c-0.3,0.2-0.6,0.4-0.9,0.6
		c-0.4,0.2-0.8,0.5-1.2,0.7c0-0.8-0.2-1.7-0.4-2.6c-0.4-4.3-0.7-7.2-0.7-8.6c0-1.1,0-4.9,0-11.3c0-6.5,0.1-11,0.3-13.7
		c0.2-2.6,0.3-4.4,0.3-5.5c0-1.1,0.1-3.9,0.4-8.4c0.2-4.6,0.6-8,0.9-10.2c0.1-0.7,0.2-1.2,0.3-1.5c0-0.2-0.3-0.7-0.7-1.4
		c-0.5-0.8-1.3-2-2.3-3.8c0.2-0.5,1-0.9,2.5-1.2c-1.1-2.3-1.8-3.7-2.1-4.1c-1.1-1.3-1.9-2.2-2.3-2.7c-0.6-0.8-1.2-1.5-1.6-2
		c1,0.1,2.3,0.3,3.9,0.4c1,0.1,1.9,0.3,2.6,0.7h0.1c0.5,0.2,1,0.6,1.4,0.9c0.2,0.1,0.4,0.3,0.5,0.4c0.9,1.3,1.5,2.7,1.7,4.3
		c0,0.2,0.3,0.9,0.8,2.3c0.5,1.3,0.5,5.7-0.1,13.1c0,0.5,0.1,1,0.1,1.5c-0.9,3.4-1.6,7.1-2.1,11.3c-0.4,2.8-0.7,6.3-0.9,10.6
		c0,0.3-0.1,0.5-0.1,0.7L81.3,84.9z"/>
	<path class="st20" d="M40.8,92.3c-1.2,0.8-2.5,1.3-4,1.5l-0.1,0.1c0,0-0.1,0-0.1,0c-0.1,0-0.2,0-0.3,0c-0.1-0.1-0.3-0.2-0.5-0.4
		c-0.9-0.7-2.9-2.4-6.2-5.1c-2.7-2.2-5-4.1-6.8-5.5c-1.9-1.5-3.2-3.5-3.9-6.1c-0.6-2.5-0.3-4.9,1.1-7.1c1-1.3,2-2.5,2.9-3.7
		c-0.2,1-0.4,1.8-0.4,2.5c0,3.1,3.6,8.5,10.8,16.2C35.2,86.5,37.7,89,40.8,92.3z"/>
	<path class="st20" d="M56.3,111.7c-1-0.4-2.1-0.8-3.1-1.2c6.1-12.3,7.6-25.4,4.5-39.2c-1.7-7.6-4.1-14.9-7-22.1
		c-1.3-3.1-3.3-5.9-5.9-8.1c0.7-0.3,1.4-0.6,2.3-1c1.8-0.9,3.3-1.8,4.5-2.8c0.3,0.4,0.4,0.6,0.4,0.7c0,1.2,0.1,4.6,0.3,10.4l6.4,0.1
		c-0.4,0.7-0.9,1.8-1.5,3.2c-0.5,1.5-0.9,2.5-1,3.2c4.4,2.7,7,5.3,7.8,7.9c1.2,3.8,2.5,7.8,3.9,12.2c1.5,4.3,2.5,8.8,3,13.6
		c0.4,4.7,0.8,9.3,1.2,13.8c0.3,4.5,0.7,8.8,1.1,12.8c-4.2-0.1-8.6-0.8-13.1-2.3c-0.4-0.1-0.9-0.3-1.3-0.4
		C57.9,112.2,57.1,112,56.3,111.7z"/>
	<path class="st20" d="M41.6,65c-0.9,1.1-2.2,2.6-3.7,4.5c-0.8,1-1.5,1.9-2.1,2.6c-0.7,0.9-1.2,1.5-1.7,2c0.6,0.5,1.1,1.1,1.7,1.7
		l0.1,0.1c-0.8-0.5-1.7-1.5-2.9-3.1c-1.5-2.1-2.3-3.3-2.3-3.6c0-1,1.5-3.2,4.4-6.5c1.6-1.7,3.3-3.5,5.2-5.5c2.4-2.8,5.1-5.2,8.2-7.2
		c0.2-0.1,0.4-0.3,0.6-0.4c0.3,0.7,0.7,1.5,0.9,2.4c0.3,0.8,0.4,1.6,0.4,2.3c0,1.1-0.4,2-1.3,2.5c-1.3,1-2.5,2.2-3.7,3.4
		C44.1,61.8,42.9,63.4,41.6,65z"/>
	<path class="st4" d="M84.4,58.9c0.5-7.4,0.6-11.8,0.1-13.1c-0.5-1.3-0.8-2.1-0.8-2.3c-0.2-1.6-0.8-3-1.7-4.3
		c-0.1-0.1-0.3-0.3-0.5-0.4l3.9,2.5c1.5,2.4,2.8,5.6,4,9.4c0.4,1,1.6,2.3,3.4,3.9c1.7,1.5,3.5,2.7,5.4,3.6c1.2,0.6,4.8,1.5,10.8,2.8
		c0.3,0,0.5,0.1,0.7,0.1c-0.6,0.7-1.4,1.3-2.4,1.7c-2.1,1.1-4.3,1.6-6.5,1.6c-1.5-0.1-3-0.3-4.4-0.6c-0.6-0.1-1.1-0.2-1.5-0.3
		c-1.9-0.5-3.5-1.1-4.8-1.7C88.6,61.2,86.7,60.2,84.4,58.9z"/>
	<path class="st4" d="M53.1,110.5l-7.3-3.3c-0.8-0.2-1.2-0.7-1.2-1.5c-0.1-2,0.3-3.9,1.2-5.7c0.4,0.1,0.8,0.2,1.1,0.4
		c0.7,0.3,1.5,0.7,2.3,1.2h0.1c0.6,0.3,1.2,0.4,1.7,0.3c0.1,0,0.2,0,0.2-0.1c0.5-0.2,0.9-0.6,1.4-1.1c1.6-1.9,1.8-4.1,0.7-6.4
		c-1-2.1-2.5-3-4.6-2.8c-0.2,0-0.5,0-0.7,0.1c1.1-3.9,1-7.7-0.4-11.6c-1.9-5-3.8-10-5.8-14.9c1.2-1.6,2.5-3.2,3.8-4.7
		c1.2-1.3,2.4-2.4,3.7-3.4c0.9-0.6,1.3-1.4,1.3-2.5c0-0.8-0.1-1.6-0.4-2.3c-0.3-0.9-0.6-1.7-0.9-2.4c-1.6-3.2-4.3-5.5-8.1-6.9
		l3.6-1.8c2.6,2.3,4.6,5,5.9,8.1c3,7.2,5.3,14.5,7,22.1C60.7,85.1,59.2,98.2,53.1,110.5z"/>
	<path class="st4" d="M65.6,221.1v-3.1c0.5,0.1,1.1,0.2,1.7,0.3c0.4,0,1.5,0.1,3.3,0.1c1.4,0,2.5,0.1,3.3,0.3
		c0.5,0.1,0.9,0.3,1.4,0.5c2.8,0.9,5.5,1.5,8.3,1.7c3.4,0.2,6.7-0.2,9.8-1.2h0.1c0.2,0,0.3,0.2,0.3,0.7c-0.1,0.2-0.2,0.5-0.3,0.9
		c-3.1,1-6.7,1.3-10.5,0.9c-2.2-0.2-4.7-0.7-7.6-1.4c-0.9-0.2-1.9-0.5-2.9-0.7c-0.8,0.4-1.9,0.8-3.3,0.9
		C67.8,221.2,66.7,221.3,65.6,221.1z"/>
	<path class="st11" d="M23.2,189.1l-5.5-0.9l3.3-0.6l0.7,0.1l10.8,1.9c0,0.2,0.2,0.5,0.4,0.7c0.3,0.3,0.7,0.4,1.2,0.4
		c0.4,0,0.8-0.1,1.1-0.4c0-0.1,0.1-0.2,0.2-0.2l4.1,0.7l2.1,0.4c0,0.2,0.2,0.5,0.4,0.7c0.3,0.3,0.7,0.4,1.1,0.4
		c0.4,0,0.8-0.1,1.2-0.4c0,0,0.1-0.1,0.1-0.1l2.4,0.4l5.2,0.9l10.6,1.8l3.3,0.6l-1,0.2l-4.4,0.8l2.1-0.4l-5.9-1h0.1l-6.4-1.2
		l-0.1,0.1l-20.6-3.6h0.1L23.2,189.1z"/>
	<polygon class="st11" points="15.6,188.5 21,189.5 16.8,190.3 11.4,189.3 	"/>
	<polygon class="st11" points="48,194.3 43.9,195 44.6,195.1 23.3,191.3 27.5,190.6 	"/>
	<polygon class="st11" points="54.4,195.3 60.3,196.4 56.2,197.2 50.3,196.1 	"/>
	<polygon class="st21" points="23.3,191.3 16.8,190.3 21,189.5 23.2,189.1 29.7,190.3 29.6,190.3 27.5,190.6 	"/>
	<polygon class="st21" points="56.5,195 54.4,195.3 50.3,196.1 49.7,196 49.6,196 44.6,195.1 43.9,195 48,194.3 50.1,193.9 
		50.3,193.8 56.7,195 	"/>
</g>
</svg>
