<?xml version="1.0" encoding="utf-8"?>
<!-- Generator: Adobe Illustrator 25.2.0, SVG Export Plug-In . SVG Version: 6.00 Build 0)  -->
<svg version="1.1" id="Layer_1" xmlns="http://www.w3.org/2000/svg" xmlns:xlink="http://www.w3.org/1999/xlink" x="0px" y="0px"
	 viewBox="0 0 160 236.5" style="enable-background:new 0 0 160 236.5;" xml:space="preserve">
<style type="text/css">
	.st0{fill-rule:evenodd;clip-rule:evenodd;fill:#006D6D;}
	.st1{fill-rule:evenodd;clip-rule:evenodd;fill:#D8D8D8;}
	.st2{fill-rule:evenodd;clip-rule:evenodd;fill:#FFD6C4;}
	.st3{fill-rule:evenodd;clip-rule:evenodd;fill:#E7BCA9;}
	.st4{fill-rule:evenodd;clip-rule:evenodd;fill:#C59178;}
	.st5{fill-rule:evenodd;clip-rule:evenodd;fill:#354959;}
	.st6{fill-rule:evenodd;clip-rule:evenodd;fill:#669999;}
	.st7{fill-rule:evenodd;clip-rule:evenodd;fill:#DD923F;}
	.st8{fill-rule:evenodd;clip-rule:evenodd;fill:#564039;}
	.st9{fill-rule:evenodd;clip-rule:evenodd;fill:#C66A4E;}
	.st10{fill-rule:evenodd;clip-rule:evenodd;fill:#AA6F2D;}
	.st11{fill-rule:evenodd;clip-rule:evenodd;fill:#9B513B;}
	.st12{fill-rule:evenodd;clip-rule:evenodd;fill:#FFFFFF;}
	.st13{fill-rule:evenodd;clip-rule:evenodd;fill:#A0A1A3;}
	.st14{fill-rule:evenodd;clip-rule:evenodd;fill:#010F1A;}
	.st15{fill-rule:evenodd;clip-rule:evenodd;fill:#1B2B38;}
	.st16{fill-rule:evenodd;clip-rule:evenodd;fill:#252525;}
	.st17{fill-rule:evenodd;clip-rule:evenodd;fill:#77392B;}
	.st18{fill-rule:evenodd;clip-rule:evenodd;fill:#DD8260;}
	.st19{fill-rule:evenodd;clip-rule:evenodd;fill:#B76349;}
	.st20{fill-rule:evenodd;clip-rule:evenodd;fill:#99765D;}
	.st21{fill-rule:evenodd;clip-rule:evenodd;fill:#95785E;}
	.st22{fill-rule:evenodd;clip-rule:evenodd;fill:#C7E0E5;}
	.st23{opacity:0.2;fill-rule:evenodd;clip-rule:evenodd;}
</style>
<g>
	<path class="st0" d="M60.5,212.7c0.3,0,0.6-0.1,0.9-0.1c0.1,0,0.2,0,0.3,0C61.3,212.6,60.9,212.6,60.5,212.7z M57.2,212.4
		c1.3,0.2,2.3,0.3,3.3,0.2c-0.9,0-1.9-0.1-3.1-0.2C57.3,212.4,57.3,212.4,57.2,212.4z"/>
	<path class="st1" d="M14,62.1c0.8,0.5,1.8,0.8,3,0.8c0.6,0,1.1-0.1,1.7-0.2c1.3-0.3,2.4-1,3.3-2.1c0.5-0.7,0.9-1.4,1.2-2.1
		c-0.7-0.6-1.2-1.4-1.7-2.3c-0.4-0.8-0.8-1.3-1.2-1.7c-0.1-0.1-0.1-0.1-0.2-0.2L20,55.8c-0.2,0.3-0.4,0.5-0.7,0.8c0,0,0,0,0,0
		c-0.1,0-0.1,0.1-0.1,0.1c-0.3,0.2-0.6,0.4-1,0.5c-1.4,0.6-2.9,0.8-4.6,0.7c0,0.6,0.1,1.3,0.2,2L14,62.1z M136.8,31.8
		c0-0.1,0-0.2,0-0.2c-0.1,0-0.3,0.1-0.4,0.1c-0.1,0.1-0.1,0.2-0.2,0.4c-1,1.8-1.5,3.2-1.5,4.4c0,0.1,0.3,0.9,0.8,2.6
		c0.2,0.3,0.4,0.5,0.6,0.7c1.1,1.2,2.7,1.7,4.8,1.7c0.6,0,1.3-0.1,1.9-0.4c0.4-0.4,0.8-0.7,1.2-1.1c0-0.8-0.1-1.5-0.2-2.2l-0.7,0.4
		c-1.5,0.6-2.9,0.3-4.4-0.9c-1.6-1.3-2.3-2.5-2.2-3.7l0.2-1.5C136.7,31.9,136.7,31.8,136.8,31.8z"/>
	<path class="st2" d="M13,56.6c0.2,0,0.3,0,0.5,0c0.9-0.1,1.7-0.2,2.4-0.2c1-0.1,2-0.8,3.2-1.9c0.2-0.2,0.3-0.3,0.5-0.5
		c0.1-0.2,0.3-0.3,0.4-0.4c0.1,0.1,0.1,0.2,0.2,0.3c-0.1-0.1-0.1-0.3-0.2-0.4c-0.9-4.1-2.9-8.1-5.8-11.8c-2.6-3.2-5.8-6.1-9.8-8.8
		c-0.7,1.5-0.2,3.2,1.4,4.9C6.3,38.3,7,39,7.9,39.9c0.8,0.9,1.3,1.6,1.6,2.3c-2.2,1.6-3.8,3-4.7,4.2c-1.5,1.9-2.1,3.8-1.8,5.8
		c2.2,1.4,3.7,2.4,4.4,2.9c0.3-0.3,0.7-0.6,1.3-1c1.5-0.9,2.3-1.4,2.3-1.5c-0.3-0.9,0.1-1.4,1.3-1.7c1.3-0.3,2-0.8,2-1.5
		c0-0.5-0.4-1.4-1.1-2.8c-0.8-1.5-1.2-2.3-1.3-2.3c0.5-0.3,1,0,1.4,0.7c0.3,0.4,0.6,0.7,0.9,0.9c0.9,1.2,1.5,2.1,1.7,2.6
		c0.2,0.4,0.2,0.9,0.2,1.6c0,1.3-0.2,2.5-0.7,3.6c-0.1,0.2-0.2,0.5-0.3,0.7c-0.4,0.7-1,1.4-1.6,1.9C13.4,56.3,13.2,56.5,13,56.6z
		 M136.8,31.8c0.5,0.3,1.2,0.9,2,1.9c1,1.6,2.6,2.4,4.8,2.6c0.3,0,0.7,0,1.1,0c0.6-0.1,1.2-0.1,1.7,0c0.4-0.2,0.7-0.3,1.1-0.6
		c2.1-1.1,3.6-1.9,4.4-2.5c2.3-1.7,3.8-4.2,4.7-7.3c0.7-2.8,0.6-5.7-0.1-8.7c-0.5-0.6-1.1-1-1.6-1.3c-0.7-0.3-1.3-0.1-1.8,0.4
		c-1.2,1-2.8,2.7-4.8,4.9c-1.3,1.3-2.7,2.3-3.9,3c0.1,0,0.1,0,0.2-0.1c0.8,1,1.2,2.1,1.2,3.2c-0.1,3.2-0.9,5.5-2.6,7l-0.2-0.1
		c0.5-1.1,0.8-1.8,1-2.1c0.2-0.5,0.3-1,0.3-1.6c0-1.6-0.5-3.2-1.4-4.9c-0.9-1.4-1.3-2.2-1.4-2.4c0.1-0.7,0.2-1.1,0.5-1.2
		c0.1-0.5,0.3-1.2,0.5-2.1c0.3-1.1,0.4-2,0.3-2.6c-0.2-0.7-0.8-1.3-1.9-1.7c-1.2,2.3-2.1,4.9-2.8,7.9c-0.4,2-0.7,4.6-1,7.9
		C136.8,31.6,136.8,31.7,136.8,31.8z M78.8,19.1c0.3-0.1,0.6-0.1,0.8-0.2c0.2-0.1,0.4-0.3,0.7-0.4h0.1c0.3-0.5,1.1-1,2.2-1.5
		c-0.1-0.8-0.3-1.6-0.5-2.4c-0.4,0.3-0.9,0.7-1.5,1.1c-0.6,0.6-2.3,0.9-5,1.1c-3.1,0.2-4.7,0.3-4.9,0.4c-0.8,0.2-2,1.5-3.6,3.8
		c0,0.1-0.1,0.1-0.1,0.2h4.9c0.5-0.3,1.3-0.7,2.4-1.1c1.7-0.7,2.9-1,3.5-1c0.3,0,0.6,0.1,0.9,0.2C78.7,19.1,78.7,19.1,78.8,19.1z
		 M82.9,22.2c-0.1,0-0.1,0-0.2,0.1h-0.1c-0.9-0.1-1.6-0.6-2-1.6c-0.1-0.3-0.2-0.6-0.3-0.8c-0.1-0.1-0.2-0.1-0.2-0.1
		c-0.2,0-0.4,0.1-0.6,0.3v0c0,0,0,0.1,0.1,0.1c0,0.3,0,0.8,0,1.4c-0.1,0.8-0.5,1.5-1.3,2.2c-0.7,0.7-1.9,1.1-3.6,1.4
		c-1.8,0.2-2.9-0.8-3.3-3h-5.1c-0.2,0.4-0.5,0.8-0.7,1.2c0,0.8,0.2,1.6,0.5,2.3l0.2-0.1c0.1,0.5,0.7,1.6,2,3c1,1.2,2.3,1.9,3.9,2.2
		c0.7,0.2,1.2,0.2,1.7,0c0.4-0.3,0.7-0.6,1-0.9c0.2-0.3,0.5-0.8,1-1.7c0.5-0.9,1-1.5,1.5-1.8c0.5-0.4,1.3-0.4,2.2-0.2
		c1,0.2,1.9-0.1,2.8-0.9c0.2-0.2,0.4-0.4,0.6-0.5C82.9,23.9,82.9,23.1,82.9,22.2z M79.3,29.9c0.3-0.4,0.6-0.6,1.1-0.6
		c0.4,0,0.7,0,0.9,0.1c0.2,0,0.3,0,0.5,0c0.2-0.1,0.3-0.2,0.5-0.3c0-0.1,0.1-0.3,0.1-0.4c0-0.2,0.1-0.5,0.1-0.7c0-0.1,0-0.1,0-0.2
		c-0.3,0.2-0.6,0.3-1,0.3c-0.2,0-0.5,0.1-0.7,0.1c-0.8,0-1.4,0.1-1.9,0.1c-0.8,0.1-1.3,0.2-1.4,0.2c-0.2,0.1-0.4,0.5-0.7,1.1
		c0,0.1-0.1,0.2-0.2,0.4c-0.1,0.1-0.2,0.2-0.2,0.4c0,0.1,0.1,0.3,0.3,0.6c0.2,0.2,0.3,0.3,0.5,0.3c0.5,0,1-0.3,1.5-1
		C78.8,30.2,79,30,79.3,29.9z M82,30.5c0-0.1,0-0.1,0-0.2c0,0-0.1,0-0.1,0L82,30.5z"/>
	<path class="st3" d="M73.5,14.2c-0.4,0-0.9,0-1.4,0c-0.3,0-0.6,0-1,0c-0.1,0-0.3,0-0.4,0h-0.1c0,0-0.3,0-0.7,0c-0.2,0-0.4,0-0.7,0
		c-0.1,0.3-0.2,0.6-0.3,0.9c-0.2,0.6-0.4,1.3-0.8,2c-0.3,0.5-0.7,1.2-1.2,2.1c-0.1,0.2-0.2,0.4-0.3,0.6c-0.2,0.4-0.4,0.8-0.6,1.2h1
		c0-0.1,0.1-0.1,0.1-0.2c1.6-2.3,2.8-3.6,3.6-3.8c0.2-0.1,1.8-0.2,4.9-0.4c2.7-0.2,4.4-0.5,5-1.1c0.6-0.4,1.1-0.8,1.5-1.1
		c0-0.1,0-0.1,0-0.1c-0.2-0.7-0.4-1.4-0.7-2.1c-0.1-0.4-0.3-0.9-0.5-1.3c-0.2,0.4-0.5,0.7-0.8,1c-0.4,0.3-0.7,0.5-1,0.7
		c-0.1,0.1-0.2,0.1-0.3,0.2h-0.1c-0.2,0.1-0.4,0.2-0.6,0.3l-1.9,0.7c-0.4,0.1-0.8,0.2-1.2,0.2c-0.1,0-0.2,0-0.4,0v0
		c-0.3,0-0.6,0-1,0H73.5z M11.4,57.2c0.1,0,0.2,0,0.3,0l1-0.4c0.1-0.1,0.3-0.1,0.4-0.2c0.2-0.1,0.4-0.3,0.6-0.4
		c0.6-0.5,1.1-1.2,1.6-1.9c0.1-0.2,0.2-0.5,0.3-0.7c0.5-1.1,0.7-2.3,0.7-3.6c0-0.7-0.1-1.2-0.2-1.6c-0.2-0.5-0.8-1.4-1.7-2.6
		c-0.3-0.2-0.6-0.6-0.9-0.9c-0.4-0.7-0.9-1-1.4-0.7c0,0.1,0.5,0.9,1.3,2.3c0.7,1.4,1.1,2.3,1.1,2.8c0,0.7-0.7,1.2-2,1.5
		c-1.2,0.3-1.6,0.9-1.3,1.7c-0.1,0.1-0.9,0.6-2.3,1.5c-0.6,0.4-1,0.8-1.3,1c0.1,0.1,0.3,0.2,0.4,0.2c1,0.7,2.1,1.3,3,1.8
		C11.1,57.1,11.2,57.1,11.4,57.2z M141.8,22.1c-0.2,0.1-0.4,0.5-0.5,1.2c0,0.2,0.5,1,1.4,2.4c0.9,1.7,1.4,3.4,1.4,4.9
		c0,0.6-0.1,1.1-0.3,1.6c-0.2,0.3-0.5,1-1,2.1l0.2,0.1c1.7-1.4,2.6-3.7,2.6-7c0-1.1-0.4-2.2-1.2-3.2c-0.1,0-0.1,0-0.2,0.1
		c-0.4,0.2-0.8,0.5-1.2,0.6c-0.1,0.1-0.2,0.1-0.3,0.1c-0.8-0.6-1.1-1.4-1.1-2.4l0-0.1C141.7,22.5,141.7,22.3,141.8,22.1z M79.3,29.9
		c-0.3,0.1-0.5,0.3-0.7,0.5c-0.4,0.7-0.9,1-1.5,1c-0.1,0-0.3-0.1-0.5-0.3c-0.2-0.2-0.3-0.4-0.3-0.6c0-0.2,0.1-0.3,0.2-0.4
		c0.1-0.2,0.2-0.3,0.2-0.4c0.3-0.6,0.5-1,0.7-1.1c0.1-0.1,0.5-0.2,1.4-0.2c0.5,0,1.1-0.1,1.9-0.1c0.3,0,0.5,0,0.7-0.1
		c0.4-0.1,0.7-0.2,1-0.3l0,0c0-0.1,0-0.1,0-0.2c0-0.1,0-0.1,0-0.2c0-0.1,0-0.1,0-0.2v0c0,0-0.1,0.1-0.1,0.1l0.2-1
		c-0.5,0.3-0.9,0.5-1.3,0.7c0,0,0,0-0.1,0c-0.6,0.2-1.1,0.3-1.6,0.2c-0.8-0.1-1.4,0.1-1.9,0.4c-0.4,0.3-0.8,0.7-1,1.2
		c-0.3,0.5-0.4,0.9-0.5,1.4c-0.1,0.4-0.1,0.7-0.1,0.9c0.1,0.8,0.5,1.1,1.2,0.9c0.7-0.2,1.2-0.7,1.5-1.5
		C79.1,30.3,79.2,30.1,79.3,29.9z M65.7,22.2c-0.1,0.4-0.1,0.7-0.1,1.2c0.2-0.4,0.5-0.8,0.7-1.2H65.7z M82,30.3
		c0.1-0.4,0.2-0.8,0.2-1.2c-0.2,0.1-0.3,0.2-0.5,0.3c-0.2,0-0.3,0-0.5,0c0.1,0.1,0.2,0.2,0.2,0.3l0.4,0.6C82,30.3,82,30.3,82,30.3z"
		/>
	<path class="st4" d="M64.6,33c0.3,1.2,0.5,2.5,0.5,3.9c0.5,1.2,2.8,2.5,6.7,3.9c4.4,1.6,7.2,0.8,8.4-2.3c-0.1-0.9-0.2-1.7-0.3-2.4
		c0-0.2,0-0.4,0-0.6c-0.3,0-0.5,0.1-0.8,0.1c-4.3,0-7.9-0.9-10.6-2.6c-2.7-1.8-3.9-4-3.5-6.8l0,0v0c-0.5-0.6-1.1-1.9-1.8-4h0
		L62.2,21c-0.7-0.6-1.5-0.7-2.4-0.2c-0.4,0.6-0.6,1.3-0.5,1.9c0.1,0.2,0.1,0.4,0.2,0.6c0.2,0.4,0.4,0.9,0.8,1.4
		c0.7,0.7,1.1,1.3,1.4,1.7c0.5,0.7,0.9,1.4,1,1.9c-0.6-0.4-1.1-0.9-1.6-1.4c0.3,0.4,0.6,0.7,0.9,0.9l1,0.8
		C63.7,30,64.2,31.4,64.6,33z M13.6,58c1.6,0.1,3.2-0.1,4.6-0.7c0.4-0.2,0.7-0.3,1-0.5c0-0.1,0.1-0.1,0.1-0.1c0,0,0,0,0,0
		c0.3-0.3,0.5-0.5,0.7-0.8l0.2-1.5l0-0.2l-0.1-0.2c-0.1-0.1-0.1-0.2-0.2-0.3c-0.1,0.1-0.2,0.3-0.4,0.4c-0.1,0.1-0.3,0.3-0.5,0.5
		C18,55.5,17,56.2,16,56.3c-0.8,0.1-1.6,0.2-2.4,0.2c-0.2,0-0.3,0-0.5,0c-0.1,0-0.2,0.1-0.4,0.2l-1,0.4c-0.1,0-0.2,0-0.3,0
		c0.6,0.3,1.1,0.6,1.7,0.8C13.2,58,13.4,58,13.6,58z M146.3,36.4c-0.5-0.1-1-0.1-1.7,0c-0.4,0-0.7,0-1.1,0c-2.3-0.2-3.9-1-4.8-2.6
		c-0.8-1-1.5-1.6-2-1.9c-0.1,0.1-0.1,0.2,0,0.3l-0.2,1.5c-0.1,1.2,0.7,2.5,2.2,3.7c1.5,1.2,3,1.5,4.4,0.9l0.7-0.4l2-1.2
		C146,36.5,146.1,36.5,146.3,36.4C146.3,36.4,146.3,36.4,146.3,36.4z"/>
	<path class="st5" d="M52.9,201.5c-0.1,0.6-0.1,1.2-0.2,1.9c-0.3,2.9-0.3,5.2-0.1,6.9c0.1,0.5,0.3,0.9,0.8,1.2
		c0.2,0.1,0.7,0.3,1.4,0.5c0.6,0.1,1.1,0.2,1.6,0.3c0.1,0,0.1,0,0.2,0c0.2,0,0.3,0.1,0.5,0.1c0.1,0,0.1,0,0.1,0
		c1.2,0.2,2.2,0.2,3.1,0.2h0c0.4-0.1,0.8-0.1,1.2-0.1c-0.1-0.7-0.3-1.9-0.5-3.4c-0.4-2.8-0.6-5.7-0.6-8.7c0-0.1,0-0.2,0-0.2
		c0-18.5,2.8-36.2,8.2-53.3c3-9.5,4.8-15.8,5.6-19C75,125,75.6,122,76,119c-4.4-0.2-8.6-0.8-12.8-2c-1.9-0.5-3.9-1.2-5.8-1.9
		c-0.1,0-0.2-0.1-0.3-0.1c0.1,1,0.1,1.9,0.2,2.9c-0.2,4.4-0.3,11.1-0.2,19.9c-0.1,8-0.9,14.5-2.2,19.7c-1.9,5.4-2.9,11.8-2.8,19.3
		c0,2.7,0.1,5.9,0.3,9.8c0.2,2.2,0.4,5.5,0.7,9.8C53.2,197.5,53.1,199.2,52.9,201.5z M86.3,104.5c0,0.1,0,0.3,0,0.4
		c0.1,1.6,0.1,3.2,0.1,4.7c0,0.4,0,0.9-0.1,1.3c-0.1,1.3-0.1,2.4-0.1,3.5c0,1.3-0.3,2.5-0.9,3.6c-0.3,0.1-0.5,0.2-0.8,0.2
		c-1.1,9.8-4.7,22.9-10.8,39.4v0c0-0.1,0-0.1,0-0.1c-0.1,0.2-0.2,0.5-0.4,0.7c0.3,2.3,0.7,4.8,1.3,7.6c0,0.7,0.1,1.4,0.2,2.2
		c0.3,3.9,0.3,7.2,0.1,10l-0.1,0.4c-0.2,1.9-0.2,3.3-0.2,4.1c0,0.5,0.1,1.1,0.2,1.5c0.2,0.9,0.6,1.7,1.1,2.3c0,0,0.1,0.1,0.1,0.1
		c0.4,0.3,0.8,0.6,1.2,0.9c0.1,0.1,0.2,0.2,0.3,0.2c0.1,0.1,0.2,0.1,0.4,0.2c2.1,1.2,4.6,1.8,7.4,1.8c1.2,0,2.3-0.2,3.4-0.4
		c0,0,0-0.1,0-0.2c-0.4-1.9-0.7-4.7-1-8.5c-0.2-2.9-0.4-6.4-0.6-10.5c-0.4-9.4,0.8-20.3,3.5-32.8c2.6-11.8,4-19.7,4.2-23.8
		c-0.9,0.7-1.9,1.3-2.9,1.9c-0.2,0.1-0.4,0.1-0.7,0c-0.1-0.7-0.2-1.4-0.1-2.1c0.1-3.5,0.1-7-0.1-10.5c-0.2,0.1-0.5,0.2-0.7,0.4
		c-0.1,0-0.2,0.1-0.3,0.2c-0.5,0.2-1,0.4-1.6,0.7c-0.2,0.1-0.5,0.2-0.7,0.2C87.4,104.2,86.9,104.4,86.3,104.5z"/>
	<path class="st6" d="M88.8,189.1c1.2-0.3,2.3-0.8,3.3-1.4c1-0.6,1.8-1.4,2.6-2.3c0.1,0,0.1,0.1,0.2,0.1l0,0
		c0.2-1.1,0.1-2.7-0.4-4.9c0-0.1,0-0.2-0.1-0.3c-0.5-2.2-0.6-3.9-0.6-4.8c0.3-2.8,0.4-7.3,0.2-13.6c-0.2-5.9-0.1-10.4,0.4-13.5
		c1.5-2.8,2.7-6.3,3.4-10.7c1.4-6,2.2-9.5,2.5-10.7c0.8-4.1,1.2-7.8,1.2-10.9c-0.2-2.7-0.5-5.3-0.8-7.7c-1.2,1.1-2.4,2.2-3.7,3.3
		c-0.6,0.6-1.3,1.1-2,1.6c-0.3,4.1-1.7,12.1-4.2,23.8c-2.8,12.5-4,23.5-3.5,32.8c0.2,4.1,0.4,7.6,0.6,10.5c0.3,3.8,0.6,6.6,1,8.5
		C88.7,189,88.7,189,88.8,189.1z"/>
	<path class="st7" d="M136.2,39.8c-0.2-0.2-0.4-0.5-0.6-0.7c-0.5-1.6-0.8-2.5-0.8-2.6c0-1.1,0.5-2.6,1.5-4.4
		c0.1-0.1,0.1-0.2,0.2-0.4c0.1-0.2,0.2-0.4,0.4-0.5c-1,0.4-1.8,1-2.6,1.9c-0.6,0.8-1.4,1.5-2.3,2.2c-2.4,1.7-4.7,3.3-7.1,5
		c-1.3,0.9-2.6,1.7-3.9,2.6c-1.9,1.3-3.8,2.7-5.9,4.2c-3.7-3.8-7.4-6.5-11.2-7.9c-3.7-1.5-6.3-3-7.7-4.5c-1.5-1.6-2.6-3-3.5-4.3
		c-0.9-1.3-2.2-2.2-3.8-2.7c-0.9-0.3-1.7-0.3-2.5-0.2h1.7l0.5,0.7c0.6,1,1.2,2.1,1.8,3.2c1.7,3.2,3.1,6.5,4.2,9.9
		c1.3,1,2.7,2,4.2,3.3c7.8,6,13.5,9,17.2,9c1.2,0,3.8-1.4,7.7-4.3c5-3.8,8.8-6.7,11.3-8.6C135.4,40.3,135.8,40,136.2,39.8z
		 M132.5,37.1c0.1,0,0.1,0.2,0.1,0.7c0,0.8-0.4,1.4-1.1,1.8c-0.4,0.2-0.7,0.4-1.1,0.4c-1,0-1.4-0.5-1.4-1.5c0-0.3,0.1-0.5,0.3-0.7
		c0.2-0.2,0.4-0.4,0.6-0.6c0.2-0.2,0.5-0.3,0.7-0.4c0.5-0.1,1.1-0.1,1.7,0.1C132.3,37,132.4,37,132.5,37.1z"/>
	<path class="st8" d="M18.7,62.7c-0.5,0.1-1.1,0.2-1.7,0.2c-1.3,0-2.3-0.3-3-0.8c-0.2-0.1-0.4-0.3-0.5-0.4l0.1,1.3
		c0,0.1,0,0.1-0.1,0c-0.1-0.1-0.1,0.1,0,0.7c0.1,0.5,0.2,1.3,0.5,2.5c0.2,1.1,0.8,2.6,1.8,4.7c0.3,0.5,0.6,1,0.9,1.4
		c0.4,0.5,0.7,1.1,1.2,1.6c0.6,0.8,1.3,1.6,2,2.3l0,0.1c1.5,1.3,3.2,1.9,5.1,1.9c4-0.1,7.7-1.1,11.1-3.2h0c0.5-0.3,1.1-0.7,1.8-1
		c2.1-1.2,3.7-2,4.6-2.5h0c1.6-1.1,3.3-2.3,5.2-3.7c0.5-0.4,1.3-1,2.2-1.7l5,5.6c1.1,1.9,2,4,2.7,6.3c0.4,1.2,0.7,2.3,1.1,3.5
		c1.6,5.1,1.3,10.1-0.9,15.1c-0.5,1.2-0.9,2.4-1.3,3.6c-1.2,4.5-2,9.1-2.3,13.8c1,0.5,2,0.9,3,1.4c0.1,0,0.2,0.1,0.3,0.1
		c1.9,0.7,3.9,1.4,5.8,1.9v-8.8c0.2-2.1,0.8-4.9,1.8-8.4c0.2-0.6,0.3-1.2,0.5-1.8c0.1-0.5,0.3-1,0.4-1.5c0.1-0.4,0.2-0.8,0.4-1.3
		c1-3.8,1.6-7,1.6-9.8c0-4.4-0.9-8.5-2.6-12.3c-3.6-7.8-5.6-12.6-6.2-14.3c-0.2-3.4-0.7-5.5-1.5-6.3c0-0.3,0-0.6,0-0.9
		c-0.2,0-0.4,0-0.5,0c-0.4,0-0.8,0.1-1.1,0.2l0,0c-1.4,0.7-6.4,4.1-15.2,10.3c-7,5-12,7.4-14.9,7.4c-1.4,0-3.4-1.7-5.8-5.1
		C19.6,63.8,19.1,63.2,18.7,62.7z M142.9,41.1c-0.6,0.3-1.3,0.4-1.9,0.4c-2.1,0-3.7-0.6-4.8-1.7c-0.4,0.3-0.8,0.5-1.2,0.8
		c-2.6,1.9-6.3,4.7-11.3,8.6c-3.9,2.9-6.4,4.3-7.7,4.3c-3.7,0-9.5-3-17.2-9c-1.5-1.2-3-2.3-4.2-3.3c0.3,0.9,0.6,1.7,0.8,2.6
		c0.5,3.6,0.8,7.3,0.9,11c0.5,0.3,1,0.5,1.5,0.7c1.6,0.5,3.1,1,4.6,1.6c1.9,0.6,3.8,1.4,5.7,2.3c0.9,0.4,1.9,0.8,2.8,1.3
		c0.6,0.3,1.3,0.5,1.9,0.7c0.7,0.2,1.4,0.3,2.2,0.3c0.7-0.1,1.4-0.1,2.1-0.2c1-0.2,1.9-0.7,2.8-1.2c1.2-0.8,2.3-1.7,3.3-2.6
		c0.9-0.9,1.9-1.6,3-2.3c2.2-1.2,4.4-2.6,6.5-4.2c0.7-0.5,1.4-1,2.1-1.6c0.5-0.4,1.1-0.9,1.6-1.2c0,0,0.1-0.1,0.1-0.1
		c0.4-0.4,0.8-0.7,1.3-1c2.3-2.2,4.6-4.5,6.8-6.9c0-0.2,0-0.3,0.1-0.5C144.2,40.4,143.5,40.8,142.9,41.1z M19.1,68.7L18.8,69
		c-0.2,0.1-0.4,0.2-0.8,0.2c-0.7,0-1.3-0.5-1.7-1.4c-0.2-0.9-0.3-1.3-0.3-1.2c0-1.6,0.5-2.1,1.6-1.4c1.1,0.7,1.6,1.6,1.6,2.6
		C19.3,68.5,19.2,68.8,19.1,68.7z"/>
	<path class="st9" d="M69,14.2L69,14.2c0.1,0,0.1,0,0.1-0.1c0.1-0.1,0.1-0.1,0.2-0.2c0,0,0,0,0.1-0.1c0.8-1,1.3-2,1.3-3
		c0-0.1,0-0.1,0-0.2c0-0.9-0.3-1.5-0.8-1.9c-0.5-0.4-1-0.7-1.6-0.8c-0.5-0.1-1.3,0-2.3,0.2H66c0.6,0.1,0.9,0.5,0.9,1.3
		c0,0.9-1.1,1.2-3.4,0.9c-1.3-0.4-2.3-1-3.2-1.8c-0.4-0.5-0.8-0.9-1.1-1.2c-0.2,0.2-0.3,0.4-0.5,0.7c-0.2,0.3-0.5,0.6-0.7,1
		c0.3,0.5,0.7,0.9,1,1.4c1.5,1.3,3.6,2.3,6.6,3.1C67.1,13.9,68.2,14.1,69,14.2z"/>
	<path class="st10" d="M66.4,95.3c0.3,0.1,0.6,0.2,1,0.3c2.3,0.7,4.7,1.4,7.2,1.9v4c-4.3-0.3-7.4-0.8-9.5-1.6
		c-1,3.5-1.6,6.2-1.8,8.4v8.8c4.2,1.1,8.4,1.8,12.8,2c0.3,0,0.5,0,0.8,0c2.7,0.1,5.2-0.2,7.7-0.9c0.3-0.1,0.5-0.1,0.8-0.2
		c0.6-1.1,0.9-2.3,0.9-3.6c0-1,0-2.2,0.1-3.5c0.1-0.4,0.1-0.8,0.1-1.3l-0.1,1.1c-0.1-0.7-0.4-1.9-0.8-3.8c-0.1-0.6-0.3-1.3-0.4-2.1
		c-0.1-0.7-0.3-1.6-0.4-2.5c-0.1-0.7-0.2-1.4-0.3-2.2c-0.1-0.4-0.1-0.9-0.2-1.3c-0.5-3.5-0.9-6.5-1.4-9.1c-0.5-2.6-0.9-4.9-1.2-6.9
		c-0.4-2.1-0.9-4.3-1.6-6.7c-0.7-2.4-1.6-5.2-2.5-8.5c-1-3.3-2.4-5.8-4.2-7.7c-1.9-1.9-4-3.6-6.2-5.2l3.6-5.4l-6.5,2.9
		c-3.3-5.3-4.8-10.1-4.4-14.5c0-0.2,0.1-0.5,0.1-0.7L56,39.6c-0.1,0.1-0.2,0.2-0.4,0.3c-2,1.7-4.2,3-6.5,3.9
		c0.5-0.1,0.9-0.2,1.2-0.2c0.3,0,0.7,0,1,0.2h0.1c0.1-0.1,0.2-0.1,0.2-0.1c3.7,0,5.7,2.4,6.1,7.3c0,0.3,0,0.5,0.1,0.8
		c0,0.3,0,0.6,0,0.9c0.8,0.8,1.3,2.9,1.5,6.3c0.6,1.7,2.6,6.5,6.2,14.3c1.7,3.8,2.6,7.8,2.6,12.3C67.9,88.3,67.4,91.5,66.4,95.3z"/>
	<path class="st10" d="M94.9,113.2c0.7-0.5,1.3-1,2-1.6c1.3-1,2.5-2.1,3.7-3.3c0.3-0.3,0.7-0.7,1-1c0.9-4.8,0.9-9.5,0-14.3
		c-0.2-1.1-0.5-2.1-0.8-3c-1.8,1.6-2.8,2.5-3,2.8l-1.5-0.1v-4c0.1-0.1,0.2-0.3,0.4-0.4c1.1-1.1,1.9-2,2.6-2.6
		c0.1,0.4,0.3,0.7,0.4,1.1c-0.9-2.7-1.8-5.5-2.7-8.3c-0.8-2.6-1.1-5.3-0.9-8.1c0.1-2.1,0.2-4.3,0.2-6.4c0-1,0.1-2.1,0.1-3.1
		c0-1.2,0-2.5,0-3.7c0-0.7-0.1-1.5-0.1-2.2c-0.1-3.7-0.5-7.4-0.9-11c-0.2-0.9-0.5-1.7-0.8-2.6c-1.1-3.4-2.5-6.6-4.2-9.9
		c-0.6-1.1-1.2-2.2-1.8-3.2l-0.5-0.7h-1.7h-2.2c-0.5,0-1.1,0-1.6,0c0,0.1,0,0.1,0,0.2c0,0.1,0,0.1,0,0.2l0,0c0,0.1,0,0.1,0,0.2
		c0,0.2,0,0.5-0.1,0.7c0.5,0.4,1,0.7,1.3,1c0.7,0.7,1.7,1.8,3.2,3.2c1.3,1.4,3.2,4.3,5.6,8.8h-4.6c3,3.7,4.8,5.7,5.3,6.1l0,0
		c0,0.6,0,1.9,0,4c0,2,0.1,5,0.3,8.8c0.2,3.9,0.3,7.5,0.1,10.9c-0.2,3.4-0.4,6.7-0.7,9.7c-0.3,3-0.5,5.8-0.7,8.6
		c-0.1,2.1-0.4,4.2-0.8,6.4c-0.2,0.8-0.3,1.6-0.5,2.3c0,1.2,0.1,2.2,0.1,3.2c0,0.2,0,0.4,0,0.6c0.2,3.5,0.2,7,0.1,10.5
		c0,0.7,0,1.4,0.1,2.1c0.2,0.1,0.5,0,0.7,0C93,114.5,94,113.9,94.9,113.2z"/>
	<path class="st10" d="M132.5,37.1c-0.1-0.1-0.2-0.1-0.2-0.2c-0.6-0.2-1.2-0.3-1.7-0.1c-0.3,0.1-0.5,0.2-0.7,0.4
		c-0.3,0.2-0.5,0.4-0.6,0.6c-0.2,0.2-0.3,0.5-0.3,0.7c0,1,0.5,1.5,1.4,1.5c0.4-0.1,0.8-0.2,1.1-0.4c0.7-0.4,1.1-1,1.1-1.8
		C132.6,37.3,132.6,37.1,132.5,37.1z"/>
	<path class="st11" d="M66.9,19.2c0.5-0.9,0.9-1.6,1.2-2.1c0.3-0.7,0.6-1.4,0.8-2c0.1-0.3,0.1-0.6,0.2-0.9c-0.8-0.1-1.9-0.3-3.3-0.6
		c-2.9-0.7-5.1-1.8-6.6-3.1c-0.3-0.5-0.7-1-1-1.4c-0.6,1-1.1,2.1-1.4,3.3v0.1c0.2,0.2,0.4,0.4,0.6,0.7
		C60.1,16.6,63.3,18.7,66.9,19.2L66.9,19.2z M59.3,7.4c0.3,0.4,0.7,0.8,1.1,1.2c0.9,0.9,1.9,1.5,3.2,1.8c2.3,0.3,3.4,0,3.4-0.9
		c-0.1-0.8-0.4-1.2-0.9-1.3h-0.2c1-0.7,2.6-1.6,4.7-2.7c1.5-0.8,2.8-1.3,3.8-1.6C72.6,3.3,70.8,3,69,3C64.8,3.1,61.5,4.6,59.3,7.4z
		 M78.8,19.1c0.2,0.4,0.5,0.8,0.7,1.1v0c0.2-0.2,0.4-0.3,0.6-0.3c0.1,0,0.2,0,0.2,0.1h0c0-0.7-0.1-1.1-0.2-1.4
		c-0.2,0.1-0.4,0.3-0.7,0.4C79.4,19,79.1,19,78.8,19.1z M86.1,99.5c0.1,1.7,0.2,3.3,0.2,5c0.5-0.1,1-0.3,1.5-0.4
		c0.2-0.1,0.5-0.2,0.7-0.2c0.5-0.2,1-0.5,1.6-0.7c0.1-0.1,0.2-0.1,0.3-0.2c0.2-0.1,0.5-0.2,0.7-0.4c0-0.2,0-0.4,0-0.6
		c0-1-0.1-2-0.1-3.2c0-0.7,0-1.3-0.1-2c-0.3,0.3-0.7,0.5-1,0.8c-0.1,0-0.2,0-0.2,0.1C88.5,98.4,87.3,99,86.1,99.5z"/>
	<path class="st6" d="M61.6,212.6c1-0.2,1.9-0.5,2.7-1l0.3-0.2c0.3-0.2,0.6-0.5,0.8-0.8c1.1-0.9,1.5-2.4,1.3-4.5
		c0.2-1.7,0.4-3.6,0.5-5.7c0-0.8,0.1-1.7,0.1-2.6c0-0.7,0-1.4,0-2.1c0-1.7,0-3.3,0.1-4.7c0-2.4,0.1-4.4,0.1-5.9
		c0.1-4.1,0.3-7.5,0.9-10.5c0.6-3.7,1.6-7.1,2.9-10.1c0.2-0.5,0.6-1.7,1.1-3.6c0.3-1.1,0.6-2,0.9-2.8c0.1-0.3,0.2-0.5,0.4-0.7
		c0,0,0,0.1,0,0.1v0c6.1-16.5,9.7-29.6,10.8-39.4c-2.5,0.7-5.1,1-7.7,0.9c-0.3,0-0.5,0-0.8,0c-0.4,3-1,6-1.6,8.9
		c-0.7,3.2-2.6,9.5-5.6,19c-5.4,17.1-8.2,34.9-8.2,53.3c0,0.1,0,0.2,0,0.2c0,3,0.2,5.9,0.6,8.7C61.4,210.7,61.5,211.8,61.6,212.6z"
		/>
	<path class="st12" d="M81.2,20.3c0.4,1.3,0.9,1.9,1.6,1.7c0,0,0.1,0,0.1,0c0.8-0.2,1.4-0.4,1.7-0.7c0.4-0.3,0.6-1.1,0.8-2.5
		c0.1-0.3,0.1-0.5,0-0.7c0,0.1,0,0.3,0,0.6c-0.8,0.2-1.4,0.4-1.8,0.6c-0.3,0.1-0.6,0.2-0.9,0.3c-0.4,0.2-0.8,0.4-1.3,0.6
		C81.5,20.2,81.3,20.2,81.2,20.3z"/>
	<path class="st12" d="M78.9,21.6c-1.5,0.2-2.5,0.4-3,0.5c-0.7,0.2-1.8,0.8-3.4,1.9c0.4,0.8,1.2,1.1,2.1,1c1.5-0.2,2.6-0.5,3.2-1.2
		c0.7-0.6,1-1.2,1.1-1.8C78.9,21.9,78.9,21.8,78.9,21.6z"/>
	<path class="st1" d="M65.6,41.5l10.3,8.8c0.3,0.5,0.6,0.9,1,1.4c0.5,0.7,0.9,1.4,1.3,2.2c0.7,1.6,1.5,3.2,2.2,4.9
		c1.3,3,2.3,6.1,2.8,9.1c0.6,3.1,1,6.2,1.3,9.3c0.3,3.1,0.5,6.2,0.7,9.3c0.2,3.1,0.4,6.1,0.6,9.2c0.1,1.3,0.2,2.6,0.3,3.9
		c1.2-0.5,2.4-1.1,3.6-1.8V90c-0.8-11.7-1.6-21.1-2.3-28c-0.4-4.2-1-8.4-1.8-12.6c-0.1-0.4-0.2-0.9-0.3-1.3
		c-0.9-4.4-2.2-7.9-4.2-10.7c-0.1-0.1-0.2-0.2-0.3-0.3c0,0,0,0-0.1-0.1c0,0.1,0,0.1,0,0.2c0,0.1,0,0.3,0,0.5c0,1.2-0.3,2.1-0.8,2.9
		c-1,1.6-3.2,2.4-6.3,2.4C70.5,43.1,67.8,42.5,65.6,41.5z"/>
	<path class="st13" d="M89.7,97.7c0.1-0.1,0.2-0.1,0.2-0.1c0.4-0.3,0.7-0.5,1-0.8c-0.1-2.4-0.1-4.8-0.2-7.3
		c-0.1-3.1-0.2-6.2-0.2-9.3c-0.1-3.1-0.3-6.2-0.5-9.3c-0.2-3-0.5-6.1-1-9.1c-0.4-3-0.8-6-1.2-9.1c-0.2-1.7-0.5-3.2-0.7-4.4
		c-0.3-1.2-0.6-2.5-0.9-3.7c-0.3-1.2-0.5-2-0.5-2.4c-0.1-0.4-0.2-0.8-0.2-1.3c-0.5-2.6-1.4-5-2.7-7.2c0,0,0,0.1,0,0.1
		c-0.1,0.3-0.4,0.6-0.8,0.9c-0.4,0.2-1.1,0.4-2.2,0.6c0,0.2,0,0.4,0,0.6c0.1,0.7,0.2,1.5,0.3,2.4c-1.1,3.1-3.9,3.9-8.4,2.3
		c-3.9-1.4-6.1-2.7-6.7-3.9c-0.1-1.4-0.3-2.7-0.5-3.9c-0.2,0.7-0.5,1.3-0.9,1.9L63,39.3l2.6,2.2c2.1,1,4.8,1.5,8.1,1.5
		c3.2,0,5.3-0.8,6.3-2.4c0.5-0.8,0.8-1.8,0.8-2.9c0-0.2,0-0.3,0-0.5c0-0.1,0-0.1,0-0.2c0,0,0,0,0.1,0.1c0.1,0.1,0.2,0.2,0.3,0.3
		c1.9,2.7,3.3,6.3,4.2,10.7c0.1,0.4,0.2,0.9,0.3,1.3c0.8,4.2,1.4,8.4,1.8,12.6c0.7,6.9,1.5,16.2,2.3,28V97.7z M96.4,57
		c0,1.2,0,2.5,0,3.7c0-0.5,0-1.1,0.1-1.6C96.5,58.4,96.5,57.7,96.4,57z"/>
	<path class="st7" d="M86.3,104.5c-0.1-1.7-0.1-3.3-0.2-5c-0.1-1.3-0.2-2.6-0.3-3.9c-0.2-3-0.4-6.1-0.6-9.2
		c-0.2-3.1-0.5-6.2-0.7-9.3c-0.3-3.1-0.7-6.2-1.3-9.3c-0.5-3-1.5-6.1-2.8-9.1c-0.7-1.6-1.5-3.3-2.2-4.9c-0.4-0.7-0.8-1.5-1.3-2.2
		c-0.4-0.5-0.7-0.9-1-1.4l-10.3-8.8L63,39.3l0.7-4.4l0-0.1L59.8,37c0,0.2-0.1,0.5-0.1,0.7c-0.4,4.4,1.1,9.2,4.4,14.5l6.5-2.9
		l-3.6,5.4c2.2,1.6,4.3,3.3,6.2,5.2c1.8,1.8,3.2,4.4,4.2,7.7c0.9,3.2,1.8,6.1,2.5,8.5c0.7,2.4,1.3,4.7,1.6,6.7
		c0.4,2.1,0.8,4.4,1.2,6.9c0.5,2.5,0.9,5.5,1.4,9.1c0.1,0.4,0.1,0.9,0.2,1.3c0.1,0.8,0.2,1.5,0.3,2.2c0.1,0.9,0.3,1.7,0.4,2.5
		c0.1,0.8,0.3,1.5,0.4,2.1c0.4,1.9,0.7,3.2,0.8,3.8l0.1-1.1c0-1.6,0-3.1-0.1-4.7C86.4,104.7,86.4,104.6,86.3,104.5z M99.7,86.7
		c-0.1-0.4-0.3-0.7-0.4-1.1c-0.7,0.6-1.6,1.5-2.6,2.6c-0.1,0.1-0.2,0.2-0.4,0.4v4l1.5,0.1c0.3-0.2,1.3-1.1,3-2.8c0,0,0,0,0-0.1
		c0-0.1-0.1-0.2-0.1-0.3v-0.1L99.7,86.7z M65,99.8c2.1,0.8,5.3,1.3,9.5,1.6v-4c-2.5-0.5-4.9-1.2-7.2-1.9c-0.4-0.1-0.7-0.2-1-0.3
		c-0.2,0.4-0.3,0.9-0.4,1.3c-0.2,0.5-0.3,1-0.4,1.5C65.3,98.7,65.2,99.3,65,99.8z M19.1,68.7c0.1,0.1,0.1-0.3,0.1-1
		c0-1-0.5-1.9-1.6-2.6c-1.1-0.7-1.6-0.2-1.6,1.4c0-0.1,0.1,0.3,0.3,1.2c0.4,1,1,1.4,1.7,1.4c0.4,0,0.7-0.1,0.8-0.2L19.1,68.7z
		 M91,96.9c0,0.7,0,1.3,0.1,2c0.2-0.8,0.3-1.6,0.5-2.3c0.4-2.2,0.7-4.3,0.8-6.4c0.2-2.8,0.4-5.7,0.7-8.6c0.2-3,0.4-6.2,0.7-9.7
		c0.2-3.4,0.2-7.1-0.1-10.9c-0.2-3.9-0.3-6.8-0.3-8.8c0-2.1,0-3.4,0-4l0,0c-0.5-0.4-2.3-2.4-5.3-6.1h4.6c-2.4-4.5-4.3-7.5-5.6-8.8
		c-1.4-1.4-2.5-2.5-3.2-3.2c-0.3-0.3-0.8-0.7-1.3-1c0,0.1-0.1,0.3-0.1,0.4c-0.1,0.4-0.2,0.8-0.2,1.2c0,0.1,0,0.1,0,0.2l0,0l0.3-1.6
		c0.5,1.4,0.7,2.4,0.7,3c0,0.9-0.1,1.5-0.2,1.9c1.3,2.2,2.2,4.6,2.7,7.2c0.1,0.4,0.2,0.9,0.2,1.3c0,0.4,0.2,1.2,0.5,2.4
		c0.3,1.2,0.6,2.4,0.9,3.7c0.2,1.2,0.5,2.7,0.7,4.4c0.4,3,0.8,6,1.2,9.1c0.4,3,0.8,6.1,1,9.1c0.2,3.1,0.4,6.2,0.5,9.3
		c0.1,3.1,0.2,6.2,0.2,9.3C90.8,92,90.9,94.5,91,96.9z"/>
	<path class="st14" d="M92,187.7c-1,0.6-2.1,1.1-3.3,1.4c-1,0.3-2.2,0.4-3.4,0.4c-2.8,0.1-5.2-0.5-7.4-1.8c-0.1-0.1-0.2-0.2-0.4-0.2
		c-0.1-0.1-0.2-0.1-0.3-0.2c-0.5-0.3-1-0.7-1.5-1.2c-0.4,0.8-0.6,1.6-0.6,2.5c0,0.9,0.3,1.7,0.8,2.5c1.2,1.6,3.1,2.6,5.7,3
		c0.7,0.1,1.9,0.2,3.4,0.2c1.5,0.1,2.6,0.1,3.3,0.2c1.6,0.1,3.5,0.5,5.8,1.2c2.6,0.9,4.5,1.5,5.7,1.9c2.2,0.7,4.2,1,5.8,1
		c2.1,0.1,4-0.4,5.7-1.3c0.1-0.5,0.1-0.9,0.1-1.3c-0.2-0.3-0.3-0.5-0.4-0.6c-1-0.8-3.9-2.1-8.8-3.7c-4.6-1.5-7.9-2.9-10-3.9
		C92.1,187.8,92.1,187.7,92,187.7z M60.4,212.7c-0.9,0-2-0.1-3.3-0.2c-0.2,0-0.3,0-0.5-0.1c-0.6-0.1-1.2-0.2-1.8-0.4
		c0.3,1.6,0.8,4.2,1.4,7.5c0.6,3,1.2,5.4,1.8,7.4c0.2,0.4,0.5,0.9,0.8,1.3c1.1,1.5,2.6,2.5,4.6,3.1c0.3,0.1,0.7,0.2,1,0.3l1.9,0.3
		c0.7,0,1.3,0,2,0c-0.3-1.6-0.6-2.8-0.8-3.7c-0.2-0.7-0.3-1.1-0.3-1.3c-0.3-0.9-1.5-3.7-3.5-8.4c-1.3-3-2.1-5-2.4-5.9
		C61.1,212.6,60.8,212.7,60.4,212.7L60.4,212.7z"/>
	<path class="st15" d="M68.3,231.9c0.4,0,0.7-0.1,1.1-0.1c0.3,0,0.6-0.1,0.9-0.2c0.1,0,0.1,0,0.1,0c0.8-0.1,1.4-0.6,1.8-1.3
		c0.4-0.7,0.5-1.4,0.4-2.3c0-0.2,0-0.4-0.1-0.6c-0.3-2.4-1.2-5.2-2.8-8.4c-1-1.9-1.8-3.3-2.3-4.2c-0.9-1.6-1.5-3.1-2-4.3
		c-0.3,0.3-0.5,0.5-0.8,0.8l-0.3,0.2c-0.8,0.5-1.7,0.9-2.7,1c-0.1,0-0.2,0-0.3,0c0.3,1,1.1,2.9,2.4,5.9c2,4.7,3.2,7.5,3.5,8.4
		c0.1,0.1,0.2,0.6,0.3,1.3C67.8,229,68,230.3,68.3,231.9z M94.7,185.5c-0.1,0-0.1-0.1-0.2-0.1c-0.7,0.9-1.6,1.7-2.6,2.3
		c0.1,0,0.1,0.1,0.2,0.1c2.1,1.1,5.4,2.4,10,3.9c4.9,1.6,7.8,2.9,8.8,3.7c0.1,0.1,0.2,0.2,0.4,0.6c0-1.3-0.4-2.3-1.1-3
		c0-0.1,0-0.1,0-0.1l0,0c-1.6-1.6-4.2-3.1-7.6-4.3c-0.9-0.3-2.3-0.8-4.1-1.4C97,186.7,95.8,186.1,94.7,185.5z"/>
	<path class="st16" d="M58,226.9c0.1,0.4,0.2,0.8,0.3,1.2c0.7,2.1,2.3,3.6,4.9,4.5c2.6,0.9,5.3,1,8,0.2c1-0.2,1.6-0.9,1.7-2
		c0.1-0.6,0-1.6-0.2-2.8c0.1,0.9-0.1,1.6-0.4,2.3c-0.4,0.7-1,1.2-1.8,1.3c-1.4,0.3-2.8,0.4-4.1,0.3l-1.9-0.3c-0.4-0.1-0.7-0.2-1-0.3
		c-2-0.6-3.6-1.7-4.6-3.1C58.5,227.8,58.2,227.4,58,226.9z M76,191.1c-0.3,1.3-0.4,2.2-0.5,2.6c0,1,0.3,1.8,1,2.2
		c1.3,0.8,3,1.4,5.1,1.6c2.4,0.2,4.2,0.4,5.4,0.5c0.1-0.4,0.2-0.8,0.3-1c0.1-0.4,0.3-0.7,0.5-0.9c1.4,0,2.9,0.2,4.6,0.7
		c0.9,0.2,2.4,0.7,4.4,1.4c1.9,0.7,3.3,1.2,4.4,1.4c1.6,0.4,3.2,0.5,4.6,0.5c1.9,0,3.2-0.1,3.6-0.2c1.4-0.4,2-1.2,1.8-2.6
		c-1.7,0.9-3.6,1.4-5.7,1.3c-1.6,0-3.5-0.4-5.8-1c-1.3-0.4-3.2-1-5.7-1.9c-2.3-0.7-4.2-1.1-5.8-1.2c-0.7-0.1-1.8-0.2-3.3-0.2
		c-1.5-0.1-2.6-0.1-3.4-0.2C79.1,193.7,77.2,192.7,76,191.1z"/>
	<path class="st7" d="M23.2,58.5c-0.3,0.7-0.7,1.4-1.2,2.1c-0.9,1.1-2,1.8-3.3,2.1c0.4,0.5,0.9,1.1,1.3,1.8c2.4,3.4,4.4,5.1,5.8,5.1
		c3,0,7.9-2.5,14.9-7.4C49.6,56,54.6,52.6,56,51.9l0,0c0.3-0.1,0.7-0.2,1.1-0.2c0.2,0,0.3,0,0.5,0c-0.1-0.3-0.1-0.5-0.1-0.8
		c-0.4-4.9-2.4-7.3-6.1-7.3c-0.1,0-0.1,0-0.2,0.1h-0.1c-0.3-0.2-0.7-0.2-1-0.2c-0.3,0-0.6,0.1-1.2,0.2c-0.2,0.1-0.5,0.1-0.7,0.2
		c-3.5,3.2-6,5.8-7.4,7.6h-0.1c-2,2.5-3.2,3.9-3.5,4.2c-3.2,2.5-6.4,3.9-9.6,4.2c-0.2-0.1-0.4-0.2-0.5-0.2h-0.1
		c-1.5-0.3-2.7-0.9-3.6-1.9C23.4,58.1,23.3,58.3,23.2,58.5z"/>
	<path class="st17" d="M61,27c0.5,0.5,1,1,1.6,1.4c-0.1-0.5-0.4-1.2-1-1.9c-0.2-0.4-0.7-1-1.4-1.7c-0.4-0.5-0.6-0.9-0.8-1.4
		c-0.1-0.2-0.1-0.4-0.2-0.6c-0.1-0.7,0.1-1.3,0.5-1.9c0.9-0.4,1.7-0.4,2.4,0.2H66c0.2-0.4,0.3-0.8,0.6-1.2c0.1-0.2,0.2-0.4,0.3-0.6
		h0c-3.5-0.6-6.7-2.6-9.5-6.2c-0.2-0.2-0.5-0.5-0.6-0.7v-0.1c-0.3,1.2-0.4,2.6-0.4,4.1c0.1,0.7,0.2,1.4,0.2,2
		c0.1,0.2,0.1,0.4,0.2,0.5C57.4,22.2,58.9,24.8,61,27z M65.7,22.2h-2.6c0.7,2.1,1.3,3.5,1.8,4l1-0.6c-0.3-0.7-0.5-1.5-0.4-2.3
		C65.5,23,65.6,22.6,65.7,22.2z"/>
	<path class="st18" d="M73.5,14.2h0.3c0.4,0,0.7,0,1,0v0c0.1-0.1,0.2-0.2,0.3-0.3c0.6-0.9,0.9-1.7,0.9-2.7c0-2.9-1-4.5-3-4.9H73
		c1.1,1,1.8,1.7,2.1,2.2c0.2,0.4,0.2,1.1,0.2,2.1c0,1.1-0.5,2.2-1.5,3.3C73.7,14,73.6,14.1,73.5,14.2z M69.8,14.2c0.5,0,0.7,0,0.7,0
		h0.1c0.1,0,0.3,0,0.4,0c0.1-0.1,0.2-0.2,0.3-0.3c0.9-1.1,1.4-2.2,1.4-3.1c0-0.7-0.3-1.4-0.8-2.1c-0.5-0.8-1.2-1.3-2-1.5
		c1.3,1.2,2,2.4,2,3.6c0,1-0.6,2-1.8,3.1C70,14,69.9,14.1,69.8,14.2z M76.3,13.9l1.9-0.7c0.2-0.1,0.4-0.2,0.6-0.3h0.1
		c0.1-0.1,0.1-0.2,0.2-0.3c0.5-0.8,0.8-1.4,0.8-2c0-2.8-1.2-4.6-3.5-5.4l-0.2,0C78,6.5,79,8,79,9.9c0,0.9-0.7,2.1-2.2,3.6
		C76.6,13.6,76.5,13.8,76.3,13.9z"/>
	<path class="st19" d="M71.1,14.2c0.4,0,0.7,0,1,0c0.5,0,1,0,1.4,0c0.1-0.1,0.2-0.2,0.3-0.3c1-1.1,1.5-2.1,1.5-3.3
		c0-1-0.1-1.7-0.2-2.1c-0.3-0.5-1-1.2-2.1-2.2H73c2,0.4,3,2,3,4.9c0,0.9-0.3,1.8-0.9,2.7c-0.1,0.1-0.2,0.2-0.3,0.3
		c0.1,0,0.3,0,0.4,0c0.4-0.1,0.8-0.2,1.2-0.2c0.1-0.1,0.3-0.3,0.4-0.4c1.5-1.4,2.2-2.6,2.2-3.6C79,8,78,6.5,76.2,5.3l0.2,0
		c2.3,0.8,3.5,2.6,3.5,5.4c0,0.5-0.3,1.2-0.8,2c-0.1,0.1-0.1,0.2-0.2,0.3c0.1-0.1,0.2-0.2,0.3-0.2c0.3-0.2,0.6-0.4,1-0.7
		c0.3-0.3,0.6-0.6,0.8-1c0.4-0.7,0.6-1.6,0.6-2.7c0-1.3-0.4-2.4-1.3-3.3c-1-1-2.3-1.6-3.9-1.6c-0.5,0-1.2,0.1-2,0.4
		c-1,0.3-2.3,0.8-3.8,1.6c-2.1,1-3.7,1.9-4.7,2.7c1-0.2,1.8-0.3,2.3-0.2c0.6,0.1,1.1,0.3,1.6,0.8c0.5,0.4,0.8,1,0.8,1.9
		c0,0.1,0,0.1,0,0.2c0,1-0.4,2.1-1.3,3c0,0,0,0-0.1,0.1c-0.1,0.1-0.1,0.2-0.2,0.2c0,0,0,0-0.1,0.1h0c0.3,0,0.6,0,0.7,0
		c0.1-0.1,0.2-0.2,0.3-0.3c1.2-1.1,1.8-2.2,1.8-3.1c0-1.2-0.7-2.4-2-3.6c0.8,0.2,1.4,0.7,2,1.5c0.5,0.7,0.8,1.5,0.8,2.1
		c0,1-0.5,2-1.4,3.1C71.2,14,71.2,14.1,71.1,14.2z"/>
	<path class="st17" d="M79.8,35.5c1.1-0.2,1.9-0.4,2.2-0.6c0.4-0.2,0.6-0.5,0.8-0.9c0,0,0-0.1,0-0.1C83,33.5,83,32.9,83,32
		c0-0.7-0.2-1.7-0.7-3L82,30.6l0,0l-0.1-0.2l-0.4-0.6c0-0.1-0.1-0.2-0.2-0.3c-0.2-0.1-0.5-0.2-0.9-0.1c-0.4,0-0.8,0.2-1.1,0.6
		c-0.1,0.2-0.2,0.4-0.3,0.7c-0.3,0.8-0.8,1.3-1.5,1.5c-0.7,0.2-1.2-0.1-1.2-0.9c0-0.2,0-0.5,0.1-0.9c0.1-0.5,0.2-1,0.5-1.4
		c0.2-0.5,0.6-0.9,1-1.2c0.4-0.4,1-0.5,1.9-0.4c0.5,0,1,0,1.6-0.2c0,0,0.1,0,0.1,0c0.4-0.2,0.9-0.4,1.3-0.7l-0.2,1
		c0,0,0.1-0.1,0.1-0.1c0.5-0.4,0.8-1,0.9-1.8c0.1-0.6-0.1-0.8-0.6-0.6c-0.2,0.1-0.4,0.3-0.6,0.5c-0.9,0.8-1.8,1.1-2.8,0.9
		c-0.9-0.2-1.7-0.1-2.2,0.2c-0.5,0.3-1.1,0.9-1.5,1.8c-0.5,0.9-0.8,1.4-1,1.7c-0.3,0.4-0.6,0.7-1,0.9c-0.4,0.2-1,0.2-1.7,0
		c-1.6-0.3-2.9-1-3.9-2.2c-1.3-1.5-2-2.5-2-3L66,25.7l0,0l-1,0.6v0l0,0c-0.4,2.8,0.8,5,3.5,6.8c2.7,1.7,6.3,2.6,10.6,2.6
		C79.3,35.6,79.5,35.5,79.8,35.5z"/>
	<path class="st20" d="M63.1,22.2h2.6h0.6h5.1c0-0.1,0-0.2,0-0.2c0,0,0-0.1,0-0.1c0-0.3,0.2-0.6,0.6-0.9H67h-1h-3.8L63.1,22.2
		L63.1,22.2z"/>
	<path class="st21" d="M82.9,22.2c0.9-0.3,1.5-0.5,2-0.8c0.5-0.4,0.8-1.4,1-3c0.1-1-0.1-1.7-0.7-1.9c-0.5-0.2-1.2-0.2-2.3,0.2
		c-0.1,0.1-0.3,0.1-0.4,0.2c-1.2,0.5-1.9,1-2.2,1.5h-0.1c0.1,0.3,0.1,0.8,0.2,1.4h0c0.1,0.2,0.2,0.5,0.3,0.8c0.4,1,1.1,1.5,2,1.6
		h0.1C82.8,22.3,82.9,22.2,82.9,22.2z M78.8,19.1c-0.1,0-0.1,0-0.1,0c-0.2-0.1-0.5-0.2-0.9-0.2c-0.6,0-1.7,0.3-3.5,1
		c-1.1,0.4-1.9,0.8-2.4,1.1c-0.5,0.3-0.7,0.6-0.6,0.9c0,0.1,0,0.1,0,0.1c0,0.1,0,0.2,0,0.2c0.4,2.2,1.5,3.3,3.3,3
		c1.7-0.2,2.9-0.7,3.6-1.4c0.8-0.7,1.2-1.5,1.3-2.2c0-0.7,0-1.1,0-1.4c0,0-0.1-0.1-0.1-0.1C79.3,19.9,79,19.5,78.8,19.1z M85.5,18
		c0,0.2,0,0.4,0,0.7c-0.2,1.4-0.5,2.2-0.8,2.5c-0.3,0.3-0.9,0.5-1.7,0.7c0,0-0.1,0-0.1,0c-0.7,0.1-1.2-0.4-1.6-1.7h0v0
		C81.1,20,81,19.8,81,19.6l0-0.1c0-0.4,0.6-0.9,1.7-1.4c0.2-0.1,0.5-0.2,0.7-0.3c1-0.4,1.6-0.5,1.9-0.1C85.5,17.7,85.5,17.8,85.5,18
		z M78.9,21.6c0,0.1,0,0.3,0,0.5c-0.1,0.6-0.5,1.2-1.1,1.8c-0.6,0.6-1.7,1-3.2,1.2c-1,0.1-1.7-0.3-2.1-1c-0.2-0.4-0.4-1-0.5-1.6
		c-0.1-0.1-0.1-0.1-0.1-0.1v0c0-0.1,0.2-0.2,0.4-0.4c0.4-0.3,1.1-0.6,2.2-1c1.6-0.6,2.7-0.9,3.2-0.9c0.6,0,1,0.3,1.1,0.8
		C78.9,20.9,78.9,21.2,78.9,21.6z"/>
	<path class="st22" d="M85.5,18c0-0.2-0.1-0.3-0.2-0.4c-0.3-0.4-1-0.4-1.9,0.1c-0.3,0.1-0.5,0.2-0.7,0.3c-1.1,0.5-1.7,1-1.7,1.4
		l0,0.1c0,0.2,0.1,0.5,0.2,0.7v0h0c0.1,0,0.3-0.1,0.4-0.2c0.4-0.2,0.9-0.4,1.3-0.6c0.3-0.1,0.6-0.2,0.9-0.3c0.4-0.2,1-0.4,1.8-0.6
		C85.5,18.3,85.5,18.1,85.5,18z M72.5,24c1.6-1,2.7-1.7,3.4-1.9c0.5-0.1,1.5-0.3,3-0.5c0-0.4,0-0.7-0.1-0.9
		c-0.1-0.5-0.5-0.8-1.1-0.8c-0.5,0-1.6,0.3-3.2,0.9c-1,0.4-1.8,0.7-2.2,1c-0.2,0.2-0.4,0.3-0.4,0.4v0c0,0,0,0.1,0.1,0.1
		C72.1,23,72.3,23.6,72.5,24z"/>
	<path class="st23" d="M58.3,228.1c-0.1-0.4-0.2-0.8-0.3-1.2c-0.6-2-1.2-4.4-1.8-7.4c-0.6-3.4-1-5.9-1.4-7.5
		c0.6,0.1,1.3,0.3,1.8,0.4c-0.1,0-0.1,0-0.2,0c-0.5-0.1-1-0.2-1.6-0.3c-0.7-0.2-1.2-0.4-1.4-0.5c-0.5-0.3-0.8-0.7-0.8-1.2
		c-0.2-1.7-0.2-4,0.1-6.9c0.1-0.7,0.1-1.3,0.2-1.9c-2.4,0.7-4.7,1.6-6.7,2.8c-4.8,2.7-7.2,6.1-7.2,10c0,3.9,2.4,7.3,7.2,10
		C49.7,226.3,53.7,227.6,58.3,228.1z M67.3,200.3c-0.1,2.1-0.3,4-0.5,5.7c0.2,2.1-0.2,3.6-1.3,4.5c-0.3,0.3-0.5,0.6-0.8,0.8
		c0.3-0.2,0.6-0.5,0.8-0.8c0.5,1.2,1.1,2.6,2,4.3c0.5,1,1.3,2.4,2.3,4.2c1.6,3.1,2.6,5.9,2.8,8.4c3-0.7,5.7-1.7,8.1-3.1
		c4.8-2.8,7.2-6.1,7.2-10c0-2.2-0.8-4.2-2.3-6c1.8,0.2,3.6,0.3,5.6,0.3c6.7,0,12.5-1.4,17.3-4.1c4.8-2.8,7.2-6.1,7.2-10
		c0-3.9-2.4-7.2-7.2-10c-4.1-2.3-8.8-3.7-14.3-4.1c0,0.1,0,0.2,0.1,0.3c0.5,2.1,0.6,3.8,0.4,4.9l0,0c1,0.6,2.3,1.1,3.8,1.7
		c1.8,0.6,3.2,1.1,4.1,1.4c3.4,1.2,5.9,2.6,7.6,4.3l0,0c0,0,0,0,0,0.1c0.7,0.7,1.1,1.7,1.1,3c0,0.4,0,0.9-0.1,1.3
		c0.2,1.3-0.4,2.2-1.8,2.6c-0.5,0.1-1.7,0.2-3.6,0.2c-1.4,0.1-3-0.1-4.6-0.5c-1-0.2-2.5-0.7-4.4-1.4c-2-0.7-3.5-1.2-4.4-1.4
		c-1.6-0.5-3.2-0.7-4.6-0.7c-0.2,0.2-0.4,0.5-0.5,0.9c-0.1,0.2-0.2,0.5-0.3,1c-1.2-0.1-3-0.3-5.4-0.5c-2.1-0.3-3.8-0.8-5.1-1.6
		c-0.7-0.5-1.1-1.2-1-2.2c0-0.4,0.2-1.2,0.5-2.6c-0.5-0.7-0.8-1.6-0.8-2.5c0-0.9,0.2-1.7,0.6-2.5c0.5,0.4,1,0.8,1.5,1.2
		c-0.4-0.3-0.8-0.6-1.2-0.9c0-0.1-0.1-0.1-0.1-0.1c-0.5-0.6-0.9-1.4-1.1-2.3c-0.3,0.2-0.6,0.4-0.9,0.5c-3.3,1.9-5.4,4-6.5,6.4
		c0,1.4,0,3-0.1,4.7c0,0.7,0,1.4,0,2.1c0.4,1,0.9,1.9,1.6,2.7C68.5,200.4,67.9,200.3,67.3,200.3z"/>
</g>
</svg>
