<?xml version="1.0" encoding="utf-8"?>
<!-- Generator: Adobe Illustrator 25.2.1, SVG Export Plug-In . SVG Version: 6.00 Build 0)  -->
<svg version="1.1" id="Layer_1" xmlns="http://www.w3.org/2000/svg" xmlns:xlink="http://www.w3.org/1999/xlink" x="0px" y="0px"
	 viewBox="0 0 257.5 236.5" style="enable-background:new 0 0 257.5 236.5;" xml:space="preserve">
<style type="text/css">
	.st0{fill-rule:evenodd;clip-rule:evenodd;fill:#CC5C3A;}
	.st1{fill-rule:evenodd;clip-rule:evenodd;fill:#EF8152;}
	.st2{fill-rule:evenodd;clip-rule:evenodd;fill:#E5E5E5;}
	.st3{fill-rule:evenodd;clip-rule:evenodd;fill:#564039;}
	.st4{fill-rule:evenodd;clip-rule:evenodd;fill:#DD923F;}
	.st5{fill-rule:evenodd;clip-rule:evenodd;fill:#BB355A;}
	.st6{fill-rule:evenodd;clip-rule:evenodd;fill:#6D524B;}
	.st7{fill-rule:evenodd;clip-rule:evenodd;fill:#F49638;}
	.st8{fill-rule:evenodd;clip-rule:evenodd;fill:#E5BD63;}
	.st9{fill-rule:evenodd;clip-rule:evenodd;fill:#D8D8D8;}
	.st10{fill-rule:evenodd;clip-rule:evenodd;fill:#F8F5FC;}
	.st11{fill-rule:evenodd;clip-rule:evenodd;fill:#020202;}
	.st12{fill-rule:evenodd;clip-rule:evenodd;fill:#354959;}
	.st13{fill-rule:evenodd;clip-rule:evenodd;fill:#4D6677;}
	.st14{fill-rule:evenodd;clip-rule:evenodd;fill:#F7F5FC;}
	.st15{fill-rule:evenodd;clip-rule:evenodd;fill:#DDDDDD;}
	.st16{fill-rule:evenodd;clip-rule:evenodd;fill:#CED1F5;}
	.st17{fill-rule:evenodd;clip-rule:evenodd;fill:#B27762;}
	.st18{fill-rule:evenodd;clip-rule:evenodd;fill:#995C4A;}
	.st19{fill-rule:evenodd;clip-rule:evenodd;fill:#EAECF7;}
	.st20{fill-rule:evenodd;clip-rule:evenodd;fill:#427571;}
	.st21{fill-rule:evenodd;clip-rule:evenodd;fill:#629996;}
	.st22{fill-rule:evenodd;clip-rule:evenodd;fill:#D19A82;}
	.st23{fill-rule:evenodd;clip-rule:evenodd;fill:#E9EEFC;}
	.st24{fill-rule:evenodd;clip-rule:evenodd;fill:#BAE2DF;}
</style>
<g>
	<path class="st0" d="M130.3,45.2c-1.6,6.8-2.2,13.7-1.8,20.7l0.1,8.3c0.7,7.2,2,14.2,4,21c2.1,7.1,4.7,14,8,20.6
		c1.3,2.6,2.6,5.1,3.9,7.6l4.1,6.6c2.3,2.9,4.6,5.8,7.1,8.5c4.5,5.1,9.5,9.6,14.8,13.6c5.9,4.4,12.3,7.6,19.4,9.6
		c7.3,2.1,14.8,2.3,22.4,0.8c7-1.5,13.3-4.6,18.7-9.5c5.4-4.8,9.5-10.5,12.3-17.2c2.5-5.9,4.3-12,5.3-18.4
		c1.1-7.3,1.5-14.7,1.1-22.1c-0.4-7.1-1.4-14.1-3-20.9c-1.7-7.1-4-13.9-6.9-20.5c-3.1-6.8-6.7-13.3-11-19.4
		c-4.1-5.8-8.7-11.1-13.9-15.8c-5.6-5.2-11.9-9.4-18.9-12.5c-6.8-3.1-14-4.5-21.6-4.2c-7.4,0.3-14.2,2.4-20.5,6.3
		c-6.5,4.1-11.7,9.5-15.5,16.3"/>
	<path class="st1" d="M139.5,41.3c4.5-16.6,13.1-27.2,26-31.8c13.4-4.8,27.4-1.8,42.1,9.2c14.6,11,25.6,26.6,33,47
		c7.3,20.3,8.9,39.4,4.6,57.2c-4.3,17.8-13.1,29.1-26.5,33.9c-13.4,4.8-27.4,1.7-42.1-9.2c-0.6-0.4-1.2-0.9-1.7-1.3
		c-13.8-10.9-24.2-26.1-31.2-45.7c-7.3-20.4-8.8-39.4-4.6-57.2C139.2,42.6,139.3,41.9,139.5,41.3z"/>
	<path class="st2" d="M141.2,64.5c-0.1,1.2-0.1,2.5-0.1,3.7c25.2-11.5,47.5-25.3,66.9-41.4c-2-1.6-4.1-3.1-6.3-4.5
		c-6.1-3.9-12.8-6.2-20-6.8c-1.1-0.1-2.3-0.2-3.4-0.2c-3.7,4.9-7.1,9.9-10.3,15c-3.5,5.6-6.9,11.2-10.4,16.8
		c-0.2,0.3-0.4,0.6-0.7,0.8C152.4,53.9,147.2,59.4,141.2,64.5z"/>
	<path class="st2" d="M161.9,126c26.5,2,46.9,7,61.4,14.8c2-1.6,3.8-3.5,5.5-5.5c4.3-5.2,7.1-11,8.6-17.6c0.3-1.4,0.6-2.7,0.8-4.1
		c-12.9-1.3-26.9-1.1-42.2,0.5c-8.6,0.9-17.5,2.4-26.8,4.3c-3.7,0.7-7.4,1.6-11.1,2.4c0.3,0.4,0.6,0.8,0.8,1.2
		C159.8,123.4,160.8,124.7,161.9,126z"/>
	<path class="st0" d="M22.7,111.4c-0.8-0.8-1.6-1.5-2.3-2.2c-0.2,0.5-0.3,1.1-0.5,1.6c-0.2,0.6-0.3,1.1-0.4,1.7L22.7,111.4z"/>
	<path class="st3" d="M45.3,214.9c-1.6-0.2-3.1-0.7-4.6-1.4l-0.1-0.9c-1.4,2.3-2.2,4.1-2.4,5.5c-0.5,2.7-0.7,4.8-0.6,6.5
		c0.6,0.4,1.2,0.6,2,0.9c1.2,0.3,2.5,0.5,4.1,0.6c2.9,0,5,0,6.3,0.2c3.5,0.9,6.7,1.5,9.6,1.6c1.3,0.1,2.6,0.1,3.8,0
		c2.1-0.1,4-0.5,5.9-1.1c0-0.1,0-0.1,0.1-0.1c0.1-0.3,0.1-0.7,0.1-1c0,0,0,0,0,0c0-0.3-0.1-0.6-0.3-0.9c-1.5,0.5-2.9,0.8-4.5,0.9
		c-3.2,0.2-7-0.2-11.6-1.3c-1.5-0.4-3.1-0.8-5-1.4c-1.8-0.6-3-0.9-3.6-1.1c0.4-0.6,1.3-1.4,2.8-2.5c0.4-0.3,1.1-0.8,2.2-1.6
		c0.4-0.7,1.2-1.4,2.3-2.1c0.2-0.1,0.4-0.3,0.6-0.4c-0.4-0.4-0.9-0.9-1.3-1.3c-0.1,0-0.2-0.1-0.3-0.1l0,0.8
		C48.9,215,47.1,215.1,45.3,214.9z"/>
	<path class="st3" d="M19.6,219.3c-1.7,0.2-3.3,0.1-4.8-0.4c-1.5-0.4-2.8-1.2-4.1-2.2c-0.1,0.3-0.1,0.6-0.2,0.8c0,0,0,0,0,0.1
		c-0.2,0.6-0.4,1.3-0.6,1.9c0,0.2-0.1,0.3-0.1,0.5c-0.5,1.7-1.1,3.1-1.7,4.4c-0.7,1.2-1.1,2.4-1.2,3.5c0,0.3,0,0.5,0,0.8
		c0.4,1,1.1,1.8,2.1,2.6c1,0.7,2,1.2,3.2,1.5c0.6,0.1,1.2,0.2,1.7,0.2c1.9,0.1,3.4-0.6,4.4-2c0.1-0.7,0.1-1.4,0.1-2.2
		c-0.4,0.1-0.8,0.1-1.2,0.1c-2,0-3.4-0.3-4.2-0.7c-0.2-0.1-0.3-0.2-0.4-0.3c-0.6-0.6-0.8-2-0.8-4.2c0-1.2,0.6-2.1,1.6-2.7
		c0.9-0.5,2-0.7,3.4-0.6c0.9,0.1,1.7,0.3,2.5,0.6c0-0.3,0.1-0.6,0.1-0.8C19.5,219.9,19.5,219.6,19.6,219.3z"/>
	<path class="st0" d="M104.2,207.6c1.7,2.5,3,5.2,3.8,8.2c0.4,1.6,1.2,3,2.2,4.2c0.3,0.4,0.7,0.6,1.2,0.7c2.9,0.8,5.7,0.2,8.2-1.7
		c1.6-1.3,3.3-2.5,4.9-3.7c2.3-1.7,4-3.7,5.1-6c0.1-0.1,0.1-0.3,0.2-0.4c0.7-1.5,1.1-3.2,1.2-5.1c0.1-1.1,0.1-2.3,0.2-3.5
		c0-2.9-1.3-4.9-3.9-5.8c-3-1.1-5.1-3.1-6.4-5.9c-1.8-3.9-3.7-7.7-5.8-11.4l-1.5-1c1,1.9,2,3.7,3,5.7c1.7,3.4,3.5,6.7,5.4,9.9
		c0.3,0.5,0.6,0.9,1.1,1.3c1.3,1,2.7,1.8,4.3,2.3c0.5,0.2,0.9,0.4,1.3,0.8c1.5,1.5,1.9,3.4,1.2,5.6c-0.5,1.6-1.5,2.8-3,3.6
		c-0.8,0.5-1.4,1.1-1.9,1.9l-2-0.7c-0.1,0.7-0.2,1.4-0.4,2.1c-0.6,2.3-1.8,4.4-3.5,6.3c-0.8-2.1-0.9-4.3-0.5-6.6c0,0,0,0,0,0
		c0.3-1.6-0.1-2.7-1.2-3.5c-0.2-0.1-0.4-0.2-0.6-0.4c-1.4-0.7-2.7-1.5-3.9-2.4c-1.2-0.9-2.2-2.1-2.9-3.5c-2.6-5.5-5.5-10.9-8.7-16.1
		c-2.2-3.6-4.4-7.1-6.6-10.7c-0.4-0.7-0.7-1.3-0.8-2.1c-0.5-2.8-1-5.6-1.7-8.4c-0.2-0.7-0.6-1.4-1.2-1.9c-1.8-1.6-3.5-3.2-5.1-4.9
		l5.9-2.4l2.7-1.1c0.4-0.2,0.8-0.4,1.3-0.5c0.8,0.8,1.5,1.8,2,3l0.3-0.3l-1.1,2.1c1.5-0.9,2.7-2.1,3.7-3.5c0.5-0.8,0.6-1.2,0.3-1.1
		l-2.4,2.1c-0.5-0.8-1.1-1.5-1.9-2.1c-0.1-0.1-0.2-0.2-0.3-0.2c1.3-0.5,2.6-1,3.9-1.5c0.1,0.1,0.2,0.1,0.2,0.2
		c2.5,2,3.7,4.7,3.7,7.9c0,2.1,0.4,4.1,1.2,6c0.1,0.2,0.2,0.3,0.2,0.5l0.7-1c-0.6-2.2-1-4.4-1.1-6.6c-0.1-0.9-0.3-1.8-0.7-2.6
		c-0.8-1.7-2-3.3-3.4-4.6c-0.1,0-0.2,0.1-0.3,0.1c-0.2,0-0.4,0.1-0.6,0.1c-1.9,0.3-3.9,0.3-5.8,0c-0.4-0.1-0.8-0.1-1.2-0.2
		c-2.7-0.6-5.4-1.7-8.2-3.4c-0.6-0.4-1.2-0.8-1.9-1.2c-0.4-0.3-0.8-0.6-1.2-0.9c0.1,0.1,0.3,0.2,0.4,0.3c-0.7-0.5-1.4-1.1-2.1-1.6
		c-0.4-0.4-0.8-0.7-1.3-1.1l-12.6,4.7c-0.2,1.1-0.4,2.2-0.6,3.3c-0.8,4.3-2.3,9.5-4.5,15.6c0.6-0.1,1.1-0.2,1.7-0.4l5.6-2.3
		c2.2,0.8,4.3,1.8,6.2,3.1c1.8,1.2,3.2,2.7,4.3,4.5c1.9,3.4,3.9,6.8,6,10.1c1.9,3.2,3.9,6.3,6,9.4c2.1,3.1,4.2,6.2,6.3,9.3
		c2.2,3.1,4.4,6.1,6.6,9.1C103.9,207.2,104.1,207.4,104.2,207.6z"/>
	<path class="st0" d="M70.1,82.9c-0.1,0.5-0.2,1.1-0.3,1.6c-0.1,0.6-0.3,1.2-0.4,1.8c2.3-3.3,5.3-5.6,9-7c0.1,0,0.1,0,0.2-0.1
		c-2.8,0.7-5.5,1.9-8.1,3.5C70.3,82.9,70.2,82.9,70.1,82.9z"/>
	<path class="st4" d="M56.6,62.2l2.7-0.4c0.7-1.5,0.7-3,0.2-4.4l-0.1-0.1c0,0,0,0,0-0.1c-0.2-0.4-0.5-0.7-0.7-1.1l-2.3,0.2
		c-0.4,1.2-0.9,2.3-1.5,3.3L56.6,62.2z"/>
	<path class="st0" d="M27,98.3c0.5,0.6,0.9,1.1,1.3,1.5c1.4,1.5,2.8,3,4.1,4.6c0.1-0.6,0.1-1.2,0.1-1.9c0.2-2.8,0.2-5.6,0-8.6
		c-0.4,0.3-0.9,0.6-1.3,0.8C29.6,95.9,28.2,97.1,27,98.3z"/>
	<path class="st0" d="M39.6,161.7c1.5,0.8,3.1,1.4,4.8,1.9c0.3,0.1,0.7,0.2,1,0.3c0.5-3.6,0.6-7.3,0.2-10.9l-3.3,1.2
		c-0.9,2.1-1.6,4.3-2.3,6.4C39.9,160.9,39.7,161.3,39.6,161.7z"/>
	<path class="st0" d="M176.4,66.4c-1.3,0.6-2.7,1.8-4.4,3.7c-1.6,1.9-2.6,5.3-2.8,10.1c0.2,4.5,1.7,8.7,4.4,12.7
		c0.5,0.6,1.1,1.3,1.6,1.9c2.6,3,5.8,4.6,9.8,4.6c-5.4-2.3-9.1-6.3-11.3-11.8C171.3,81.3,172.2,74.2,176.4,66.4z"/>
	<path class="st0" d="M156.6,118.8l8-4.2c-4.3-4.4-7.7-10-10.2-16.8c-3.2-8.8-3.9-17.1-2.1-24.8c0.3-1.3,0.7-2.6,1.1-3.7l-12.3,2.5
		c0.1,3.1,0.5,6.1,1.1,9.2c0.5,2.8,1,5.1,1.3,7l4.8,14.5C150.5,108.2,153.2,113.7,156.6,118.8z"/>
	<path class="st5" d="M192.4,89.7l-0.6,4.6c3.2-4.1,4.1-8.7,2.7-13.7c-1.6-5.9-5.3-9.8-10.9-11.5l3,3.2c0.3,0.3,0.6,0.6,0.9,0.9
		C191.9,77.8,193.5,83.3,192.4,89.7z"/>
	<path class="st6" d="M52.4,215.2c-0.2,0.1-0.4,0.3-0.6,0.4c-1.1,0.7-1.9,1.4-2.3,2.1c-1.1,0.8-1.9,1.3-2.2,1.6
		c-1.5,1.1-2.4,1.9-2.8,2.5c0.6,0.2,1.8,0.5,3.6,1.1c1.9,0.6,3.5,1,5,1.4c4.6,1.1,8.4,1.5,11.6,1.3c1.5-0.1,3-0.4,4.5-0.9
		c-0.2-0.4-0.6-0.8-1-1.1c-0.8-0.5-2-0.9-3.5-1.1c-1.9-0.3-3.6-0.9-5.2-1.5c-1-0.5-2-1.1-3.1-1.9c-0.4-0.3-0.9-0.7-1.3-1.1
		c-0.1-0.1-0.2-0.2-0.3-0.3c-0.4-0.3-0.8-0.7-1.1-1.1C53.3,216.1,52.8,215.7,52.4,215.2z"/>
	<path class="st7" d="M81.7,142.9c0.4,0.3,0.8,0.6,1.2,0.9c0.6,0.4,1.2,0.9,1.9,1.2c2.8,1.7,5.5,2.9,8.2,3.4
		c0.4,0.1,0.8,0.2,1.2,0.2c2,0.3,3.9,0.3,5.8,0c0.2,0,0.4-0.1,0.6-0.1c0.1,0,0.2-0.1,0.3-0.1c0.8-0.2,1.6-0.4,2.3-0.7
		c0.5-0.2,1-0.4,1.5-0.6c4.1-1.9,7.3-5.1,9.5-9.7c-5.4,1.9-11,3.4-16.6,4.6c-1,0.2-2.1,0.3-3.2,0.2c-0.3,0-0.7-0.1-1-0.1
		c-2.4-0.4-4.6-1.2-6.6-2.4c-0.7-0.4-1.4-0.9-2-1.4c0,0-0.1-0.1-0.1-0.1c-5.3-4-9.1-9.1-11.7-15.3c-2.5-6.2-3.4-12.6-2.7-19.2
		c0.1-0.9,0.2-1.8,0.3-2.6c1.1-7,4.7-12,11-15.1c1.9-0.8,3.8-1.5,5.8-2.1c2.6-0.8,5.2-1.7,7.9-2.6c0.4-0.1,0.7-0.3,1.1-0.4
		c-1-0.4-2.1-0.8-3.1-1.1c-1.2-0.5-2.5-0.8-3.8-0.9c-0.6-0.1-1.3-0.1-1.9-0.1c-3-0.2-5.9,0.1-8.8,0.9c-0.1,0-0.1,0.1-0.2,0.1
		c-3.7,1.4-6.7,3.7-9,7c-0.6,2.6-1.3,5.3-2.1,8.1c-0.9,3.4-1.3,6.7-1,9.7c0.2,3,0.2,5.9,0,8.7c-0.2,1.9-0.2,3.7-0.2,5.6
		c0.1,0.4,0.2,0.8,0.3,1.1c0,0.1,0.1,0.3,0.1,0.4c0.2,0.7,0.5,1.5,0.8,2.2c2.7,7.5,6.6,13.6,11.6,18.3c0.4,0.4,0.8,0.8,1.2,1.1
		C80.6,142,81.1,142.5,81.7,142.9z"/>
	<path class="st7" d="M122.9,206.6c0.1-0.5,0.1-1.1,0.2-1.7c0-0.5,0-1-0.2-1.5c-0.6-1.9-1.9-3.1-3.9-3.7c-0.8-0.2-1.4-0.6-1.9-1.2
		c-1.7-1.8-3.1-3.9-4.2-6.2c-1.9-4.1-3.9-8.1-6.1-12.1c-2.1-3.9-4.6-7.5-7.4-10.9c-1-1.2-1.6-2.7-1.7-4.3c-0.2-2.4-0.5-4.7-1-7
		c-0.1-0.5-0.3-1-0.7-1.3c-1.5-1.7-3-3.3-4.6-4.8l-5.9,2.4c1.6,1.7,3.3,3.3,5.1,4.9c0.6,0.6,1,1.2,1.2,1.9c0.7,2.8,1.3,5.6,1.7,8.4
		c0.1,0.7,0.4,1.4,0.8,2.1c2.2,3.6,4.4,7.2,6.6,10.7c3.2,5.2,6.1,10.6,8.7,16.1c0.7,1.4,1.6,2.6,2.9,3.5c1.2,0.9,2.5,1.7,3.9,2.4
		c0.2,0.1,0.5,0.2,0.6,0.4c1.2,0.8,1.6,2,1.2,3.5c0,0,0,0,0,0c-0.5,2.3-0.3,4.5,0.5,6.6c1.7-1.9,2.8-4,3.5-6.3
		C122.7,208,122.8,207.3,122.9,206.6z"/>
	<path class="st6" d="M18.4,228.8c0-0.6,0-1.3,0-1.9c0-0.2,0-0.4,0-0.6c0.4-2.5,0.8-4.3,1-5.4c-0.7-0.3-1.6-0.5-2.5-0.6
		c-1.4-0.1-2.5,0.1-3.4,0.6c-1,0.6-1.6,1.5-1.6,2.7c0,2.2,0.2,3.6,0.8,4.2c0.1,0.1,0.2,0.2,0.4,0.3c0.8,0.5,2.2,0.7,4.2,0.7
		C17.6,228.9,18,228.8,18.4,228.8z"/>
	<path class="st7" d="M189.8,69c-0.4-0.2-0.8-0.4-1.3-0.6c-1.1-0.5-2.2-1-3.3-1.4c-2.9-1-5.8-1.1-8.8-0.6
		c-4.2,7.8-5.1,14.9-2.6,21.2c2.1,5.6,5.9,9.5,11.3,11.8c4.2,0.9,7.4-0.6,9.5-4.4c0.9-1.6,1.7-3.2,2.3-4.9c0.3-1.9,0.4-3.7,0.3-5.4
		c-0.2-4.5-1.7-8.6-4.5-12.5C191.8,71,190.8,70,189.8,69z"/>
	<path class="st1" d="M26.5,149.2c0.3-1.5,0.5-3,0.7-4.6c0.2-1.5,0.5-3.6,0.7-6.2c0.2-2.7,0.8-7,1.6-13c0.3-2.4,0.8-4.9,1.5-7.4
		c-1.5-0.8-3.3-2.1-5.2-3.9c-1-0.9-2-1.8-3-2.8l-3.3,1c-1.4,6-1.6,12-0.4,18.1c1.2,6.2,3.4,12,6.6,17.4
		C25.9,148.3,26.2,148.8,26.5,149.2z"/>
	<path class="st8" d="M56.6,62.2l-0.1,12.1c0.9,1.2,1.8,2.4,2.7,3.6c0.6-1.6,1.1-3.4,1.6-5.2l-1.5-10.9L56.6,62.2z"/>
	<path class="st1" d="M45,148.3c-1,1.9-1.8,3.8-2.6,5.8l3.3-1.2C45.5,151.4,45.3,149.9,45,148.3z"/>
	<path class="st1" d="M78.7,140.5c-2-1.8-3.7-3.8-5.3-6c-3.1-4.4-5.5-9.2-7-14.3c0-0.1,0-0.1-0.1-0.2c0-0.1-0.1-0.3-0.1-0.4
		c-0.1-0.4-0.2-0.8-0.3-1.1c0,0.9,0,1.8,0.1,2.7l-0.6,0.4c1,6.6,1.5,11.6,1.5,15.1c0,2.7-0.3,5.5-0.8,8.6L78.7,140.5z"/>
	<path class="st1" d="M105.4,163.3c-0.1-0.2-0.2-0.3-0.2-0.5c-0.9-1.9-1.3-3.9-1.2-6c0-3.2-1.2-5.8-3.7-7.9
		c-0.1-0.1-0.2-0.1-0.2-0.2c-1.3,0.5-2.6,0.9-3.9,1.5c0.1,0.1,0.2,0.2,0.3,0.2c0.7,0.6,1.4,1.3,1.9,2.1l2.4-2.1
		c0.3-0.1,0.2,0.3-0.3,1.1c-0.9,1.5-2.2,2.6-3.7,3.5l1.1-2.1l-0.3,0.3c-0.5-1.1-1.2-2.1-2-3c-0.4,0.2-0.8,0.3-1.3,0.5l-2.7,1.1
		c1.6,1.5,3.1,3.1,4.6,4.8c0.3,0.4,0.6,0.8,0.7,1.3c0.5,2.3,0.8,4.6,1,7c0.1,1.6,0.6,3,1.7,4.3c2.8,3.4,5.2,7,7.4,10.9
		c2.2,4,4.2,8,6.1,12.1c1.1,2.3,2.4,4.4,4.2,6.2c0.5,0.6,1.2,1,1.9,1.2c2,0.6,3.3,1.8,3.9,3.7c0.2,0.5,0.2,0.9,0.2,1.5
		c0,0.6-0.1,1.1-0.2,1.7l2,0.7c0.4-0.8,1-1.4,1.9-1.9c1.6-0.8,2.6-2,3-3.6c0.7-2.2,0.3-4.1-1.2-5.6c-0.4-0.4-0.8-0.6-1.3-0.8
		c-1.6-0.5-3-1.3-4.3-2.3c-0.4-0.4-0.8-0.8-1.1-1.3c-1.9-3.2-3.7-6.5-5.4-9.9c-0.9-1.9-1.9-3.8-3-5.7"/>
	<path class="st1" d="M153.5,69.3c-0.4,1.1-0.8,2.4-1.1,3.7c-1.8,7.7-1.1,16,2.1,24.8c2.5,6.8,5.8,12.4,10.2,16.8l24.8-13.2
		c0.8-0.6,1.5-1.1,2.2-1.8c2.8-2.6,4.5-5.7,5.2-9.5c-0.6,1.7-1.4,3.3-2.3,4.9c-2.1,3.8-5.3,5.3-9.5,4.4c-4,0-7.2-1.6-9.8-4.6
		c-0.5-0.6-1.1-1.3-1.6-1.9c-2.7-3.9-4.2-8.2-4.4-12.7c0.2-4.9,1.2-8.2,2.8-10.1c1.6-1.9,3.1-3.2,4.4-3.7c3-0.6,6-0.4,8.8,0.6
		c1.1,0.4,2.2,0.8,3.3,1.4c0.4,0.2,0.8,0.4,1.3,0.6c-0.5-0.4-1.1-0.7-1.6-1.1c-0.1,0-0.1-0.1-0.2-0.1c-2-1.3-4.2-2.1-6.6-2.3
		c-2.5-0.3-4.9-0.4-7.4-0.4L153.5,69.3z"/>
	<path class="st1" d="M192.4,89.7c1.2-6.4-0.5-11.9-4.9-16.6c-0.3-0.3-0.6-0.6-0.9-0.9c-1.4-1-3-1.6-4.8-1.8c-1-0.1-2,0-2.8,0.5
		c-3.2,1.8-4.8,4.6-4.9,8.5c-0.2,6.4,2.4,11.4,7.6,14.8c0.7,0.5,1.5,0.8,2.3,0.9C188.2,95.8,190.9,94,192.4,89.7z"/>
	<path class="st9" d="M148.6,130.1l-4.1-6.6c-6.6-0.1-13.3,0.6-20.1,2c-2.4,0.5-4.8,1.1-7.3,1.8c-2.1,0.6-4.2,1.3-6.3,2l-26.2,8.8
		c0,0,0.1,0.1,0.1,0.1c0.7,0.5,1.3,1,2,1.4c2,1.2,4.2,2,6.6,2.4c0.3,0.1,0.7,0.1,1,0.1c1.1,0.1,2.2,0,3.2-0.2
		c5.7-1.2,11.2-2.7,16.6-4.6c0.1,0,0.2-0.1,0.3-0.1c4.6-1.8,9.3-3.2,14.2-4c0.1,0,0.2,0,0.3-0.1C135.4,132.2,142,131.1,148.6,130.1z
		"/>
	<path class="st9" d="M128.6,74.2l-0.1-8.3c-5.3,2.8-10.5,5.6-15.7,8.4c-4.1,2.2-8.4,4-12.8,5.4c-1.2,0.4-2.5,0.7-3.8,1.1
		c-0.4,0.1-0.8,0.3-1.1,0.4c-2.6,0.9-5.2,1.8-7.9,2.6c-1.9,0.6-3.8,1.3-5.8,2.1c-6.2,3.1-9.9,8.1-11,15.1l27-8.6
		c2.6-1.1,5.1-2.2,7.5-3.3c0,0,0,0,0.1,0C115,84.4,122.8,79.5,128.6,74.2z"/>
	<rect x="50.8" y="97.5" transform="matrix(0.2398 -0.9708 0.9708 0.2398 -63.75 133.6291)" class="st9" width="5.2" height="20"/>
	
		<rect x="56.3" y="110.3" transform="matrix(0.2382 -0.9712 0.9712 0.2382 -67.2645 143.363)" class="st9" width="2.9" height="8.6"/>
	
		<rect x="49" y="119.2" transform="matrix(0.2398 -0.9708 0.9708 0.2398 -78.0919 147.5388)" class="st9" width="12.4" height="8.9"/>
	<polygon class="st9" points="49,130 48.3,132.8 57,134.9 57.7,132.1 	"/>
	<path class="st9" d="M178.2,15.4c-7.2,0-13.7,2.3-19.3,7c-5.6,4.7-9.9,10.4-12.9,17.2c-3.1,7-4.5,14.3-4.4,21.9
		c-0.1,1-0.2,2-0.3,3.1c6-5.1,11.2-10.6,15.7-16.5c0.3-0.2,0.5-0.5,0.7-0.8c3.4-5.6,6.9-11.2,10.4-16.8
		C171.1,25.2,174.5,20.2,178.2,15.4z"/>
	<path class="st9" d="M223.3,140.8c-14.5-7.9-35-12.8-61.4-14.8c3.7,4.5,7.9,8.6,12.4,12.3c5.9,4.8,12.6,8,20,9.6
		c7.5,1.6,14.7,0.9,21.7-2.3C218.6,144.2,221.1,142.6,223.3,140.8z"/>
	<path class="st10" d="M106.1,27.9c2.4,1.5,4.3,2.1,5.6,1.7c0.2-0.4,0.3-0.7,0.4-0.9c0.1-0.5,0.2-0.9,0.2-1.4
		c-0.3,0.1-0.6,0.2-1,0.3c-2.1,0.1-3.7-0.4-4.7-1.4c-0.4-0.4-0.7-0.9-0.8-1.5c-0.1-0.4-0.1-0.7-0.1-1.1c-0.3,0.2-0.6,0.6-0.9,0.9
		c0,0,0,0.1-0.1,0.1c-0.2,0.3-0.4,0.6-0.7,1C104.5,26.6,105.1,27.3,106.1,27.9C106.1,27.9,106.1,27.9,106.1,27.9z"/>
	<path class="st10" d="M70.5,101c-0.1,0.9-0.2,1.7-0.3,2.6c-0.7,6.6,0.2,13,2.7,19.2c2.5,6.2,6.4,11.3,11.7,15.3l26.2-8.8
		c2.1-0.7,4.2-1.4,6.3-2c2.4-0.7,4.9-1.3,7.3-1.8c6.8-1.4,13.5-2.1,20.1-2c-1.3-2.5-2.6-5.1-3.9-7.6c-3.3-6.6-5.9-13.5-8-20.6
		c-2-6.9-3.3-13.9-4-21c-5.8,5.3-13.6,10.2-23.5,14.8c0,0,0,0-0.1,0c-2.4,1.1-4.9,2.2-7.5,3.3L70.5,101z"/>
	<path class="st10" d="M40,113.7c0.5,0.3,1.1,0.5,1.8,0.6l1.3-5.3l8.3,2.1l-4.9,19.8l-8.3-2.1l0.9-3.8c-0.1,0-0.1-0.1-0.2-0.1
		c-0.6-0.3-1.1-0.6-1.6-0.9l-2.1,8.5l8.2,2.1l7.2,1.8l6.9,1.7l1-4.1l7-28.1L47,101.4l-3.6-0.9l-2.7,10.9L40,113.7z"/>
	<path class="st10" d="M164.6,114.6l-8,4.2c0.5,0.7,0.9,1.4,1.4,2.1c3.8-0.9,7.5-1.7,11.1-2.4c9.3-1.9,18.3-3.3,26.8-4.3
		c15.2-1.7,29.3-1.9,42.2-0.5c1-5.8,1.5-11.7,1.5-17.6c-0.1-7.2-1-14.2-2.8-21.2c-1.8-6.8-4.3-13.4-7.5-19.8
		c-3.2-6.4-7.1-12.5-11.5-18.2c-2.9-3.7-6.2-7.1-9.9-10c-19.4,16.1-41.6,29.8-66.9,41.4c0,1.2,0,2.4,0.1,3.5l12.3-2.5l20.5-4.2
		c2.5,0,4.9,0.1,7.4,0.4c2.4,0.3,4.6,1,6.6,2.3c0,0,0.1,0.1,0.2,0.1c0.5,0.3,1.1,0.7,1.6,1.1c1.1,1,2,2,2.9,3.2
		c2.8,3.9,4.3,8,4.5,12.5c0.1,1.8,0,3.6-0.3,5.4c-0.7,3.8-2.4,6.9-5.2,9.5c-0.7,0.6-1.4,1.2-2.2,1.8L164.6,114.6z"/>
	<path class="st11" d="M16.6,233.7c1.1-0.6,1.6-1.6,1.6-2.8c-1,1.4-2.5,2.1-4.4,2c-0.5,0-1.1-0.1-1.7-0.2c-1.2-0.3-2.3-0.8-3.2-1.5
		c-1-0.7-1.7-1.6-2.1-2.6c-0.3,1.4,0.1,2.6,1.2,3.6c1,1,2.3,1.6,3.9,1.9c1.6,0.3,3.1,0.2,4.2-0.3C16.3,233.9,16.5,233.8,16.6,233.7z
		"/>
	<path class="st11" d="M37.4,225.5c-0.1,0.9,0.1,1.6,0.6,2.1c0.7,0.6,1.7,1,2.9,1.2c1.2,0.1,2.6,0.1,4,0c1.5-0.2,2.5-0.5,3.1-1
		c2.3,0.4,4.1,0.7,5.3,0.9c2.1,0.4,3.9,0.6,5.4,0.7c3.1,0.2,5.8,0.1,8.3-0.5c0.8-0.2,1.6-0.4,2.4-0.7c0-0.4,0-0.8-0.1-1.3
		c-1.9,0.6-3.8,0.9-5.9,1.1c-1.2,0.1-2.5,0.1-3.8,0c-2.9-0.1-6.1-0.7-9.6-1.6c-1.4-0.2-3.5-0.2-6.3-0.2c-1.5,0-2.9-0.2-4.1-0.6
		c-0.7-0.2-1.4-0.5-2-0.9C37.5,225,37.4,225.3,37.4,225.5z"/>
	<path class="st12" d="M32.3,104.4c1.7,2.1,3.3,4.4,4.7,6.7c0.2,0.1,0.3,0.1,0.5,0.2c0.2,0.1,0.4,0.3,0.5,0.5c0.3-0.1,0.6-0.2,1-0.3
		c0.5-0.1,1.1-0.2,1.6-0.2l2.7-10.9l3.6,0.9c0-0.4-0.1-0.9-0.1-1.3c-0.4-3.3-1.1-6.6-2.1-9.8c0-0.1,0-0.1-0.1-0.2
		c-0.4-1.2-0.8-2.9-1.3-5.1c-0.5-2.3-1.1-4.7-1.8-7.2c-0.7-2.4-0.9-5-0.7-7.7c0.2-2.7-0.3-5.8-1.5-9.3c-1.2-3.5-3.9-5.7-8-6.6
		c-0.7,0.4-1.3,0.9-1.9,1.4c1.4-0.5,2.9-0.3,4.5,0.4c0.6,0.4,1.2,0.8,1.7,1.3l0.3,0.3c1.2,1.3,2,2.9,2.3,4.8
		c0.1,0.4,0.2,0.8,0.2,1.2C39,67,38,71,35.5,75.6c-1.6,3-3.3,6.2-5.2,9.4c1.1,2.4,1.8,5,2.1,7.9c0,0.4,0.1,0.8,0.1,1.1
		c0.2,2.9,0.2,5.8,0,8.6C32.4,103.2,32.4,103.8,32.3,104.4z"/>
	<path class="st12" d="M43.5,134.7l-8.2-2.1l2.1-8.5c-0.8-0.6-1.5-1.2-2.1-2c-1.1-1.4-1.9-2.5-2.1-3.1c0-0.1,0-0.1,0-0.2
		c-0.7-0.1-1.4-0.4-2.3-0.9c-0.7,2.5-1.1,5-1.5,7.4c-0.8,6-1.3,10.3-1.6,13c-0.2,2.7-0.5,4.7-0.7,6.2c-0.2,1.5-0.5,3-0.7,4.6
		c-0.5,2.9-1,5.7-1.5,8.6c-0.8,4.2-1.9,8.3-3.4,12.4c-0.5,1.5-1.3,2.9-2.2,4.2c-2.2,3.2-3.6,6.6-4.3,10.4c-0.7,4.2-1.2,8.5-1.3,12.7
		c-0.1,3.4-0.4,6.8-1,10.1l-2.2,9.1c1.3,1,2.7,1.8,4.1,2.2l2.2-9c0.8-4.4,2.1-10,4.1-16.7c0.9-2.9,1.9-6.4,3.2-10.4
		c1.3-4,2.2-6.8,2.7-8.3c0.8-2.5,3.1-8.2,7-16.9c0.1-0.2,0.2-0.4,0.2-0.5c0.4-1,0.9-2.1,1.4-3.2c4.8-10.9,7.3-16.9,7.6-18
		C43.3,135.7,43.4,135.2,43.5,134.7z"/>
	<path class="st12" d="M50.8,136.5L45,148.3c0.3,1.5,0.5,3,0.7,4.5c0.4,3.7,0.3,7.3-0.2,10.9c-0.4,2.6-0.9,5.2-1.8,7.7
		c-3.3,10.6-4.6,21.4-3.8,32.5l0.8,8.6l0.1,0.9c1.5,0.7,3,1.2,4.6,1.4l-0.5-8.9c0-1-0.1-1.7-0.1-2c-0.1-4.7,0.2-9.1,1-13.5
		c0.8-4.3,2-8.8,3.5-13.6c1.1-3.4,2.5-7.5,4-12.1c0.6-1.8,1.2-3.6,1.9-5.6c1.4-4.1,2.3-7.8,2.8-11c0-0.2,0-0.3,0.1-0.5
		c0-0.4,0.1-0.8,0.2-1.1c0.8-4.3,1-8.5,0.5-12.5l-1,4.1L50.8,136.5z"/>
	<path class="st13" d="M19.6,219.3l1.2-9.2c0.3-1.3,0.7-2.5,1-3.8c1.2-4,2.6-7.9,4.3-11.7c1.8-4.1,3.1-8.2,4.1-12.6
		c0.4-1.7,1-3.3,1.9-4.8c0.9-1.6,1.8-3.2,2.7-4.7c1.9-3.5,3.5-7.1,4.8-10.9c0.1-0.4,0.3-0.8,0.4-1.1c0.7-2.2,1.5-4.3,2.3-6.4
		c0.8-2,1.7-3.9,2.6-5.8l5.8-11.8l-7.2-1.8c-0.2,0.5-0.3,1-0.4,1.3c-0.3,1.1-2.8,7.1-7.6,18c-0.5,1.1-1,2.2-1.4,3.2
		c-0.1,0.2-0.2,0.4-0.2,0.5c-3.8,8.7-6.1,14.4-7,16.9c-0.5,1.5-1.4,4.3-2.7,8.3c-1.3,4-2.3,7.4-3.2,10.4c-2,6.7-3.4,12.3-4.1,16.7
		l-2.2,9C16.3,219.4,17.9,219.5,19.6,219.3z"/>
	<path class="st13" d="M45.3,214.9c1.8,0.2,3.6,0.1,5.5-0.4l0-0.8l0.2-8.2c0.8-9.1,2.8-18.9,5.8-29.3c0.7-1.7,2.1-5.6,4.2-11.9
		c0-0.1,0-0.1,0.1-0.2c2.1-6.2,3.6-11.4,4.5-15.6c0.2-1.1,0.4-2.2,0.6-3.3c0.5-3,0.7-5.9,0.8-8.6c0.1-3.5-0.4-8.5-1.5-15.1l0.6-0.4
		c0-0.9-0.1-1.8-0.1-2.7c0-1.9,0.1-3.7,0.2-5.6c0.2-2.8,0.2-5.7,0-8.7c-0.3-3,0.1-6.2,1-9.7c0.8-2.8,1.5-5.5,2.1-8.1
		c0.1-0.6,0.3-1.2,0.4-1.8c0.1-0.6,0.2-1.1,0.3-1.6c0.5-2.6,0.8-4.9,0.9-7.1c0.1-2.5,0.1-4.5,0.1-6.2c0-0.1,0-0.2,0-0.4
		c-0.1-2.8-0.5-5.6-1.4-8.2c-0.2-0.7-0.5-1.3-0.7-2c-0.7-1.6-1.5-3-2.5-4.4c-0.7-0.9-1.4-1.8-2.2-2.6c-1.3-1.4-2.8-2.5-4.6-3.4
		c0.4,0.9,0.8,1.9,1.1,2.9l0.2,0.6c0.2,0.8,0.4,1.6,0.6,2.4c0.2,1,0.4,2.2,0.5,3.4c0.1,1.1,0.1,2.4,0.1,3.7c0,0.9,0,1.9-0.1,2.8
		c0,0.7-0.1,1.4-0.2,2c-0.2,2.1-0.6,4.3-1.1,6.3c-0.5,1.8-1,3.5-1.6,5.2c-0.9-1.2-1.9-2.4-2.7-3.6c-0.6-0.8-1.2-1.6-1.7-2.5
		c-2.4-3.4-4.5-7-6.5-10.7c-0.8-1.5-1.6-3.1-2.3-4.6c-0.6-1.3-1.2-2.5-1.7-3.8c-0.5-0.7-0.9-1.4-1.2-1.9c-0.6-0.9-1-1.8-1.4-2.8
		l-10.1,6.1c4.1,0.9,6.7,3.1,8,6.6c1.2,3.5,1.7,6.6,1.5,9.3c-0.2,2.7,0,5.3,0.7,7.7c0.7,2.5,1.3,4.9,1.8,7.2
		c0.5,2.2,0.9,3.9,1.3,5.1c0,0.1,0,0.1,0.1,0.2c1,3.2,1.8,6.4,2.1,9.8c0,0.4,0.1,0.9,0.1,1.3l18.8,4.7l-7,28.1
		c0.4,4,0.3,8.2-0.5,12.5c-0.1,0.4-0.1,0.8-0.2,1.1c0,0.2,0,0.3-0.1,0.5c-0.5,3.2-1.4,6.9-2.8,11c-0.7,1.9-1.3,3.8-1.9,5.6
		c-1.6,4.6-2.9,8.7-4,12.1c-1.6,4.7-2.8,9.3-3.5,13.6c-0.8,4.3-1.1,8.8-1,13.5c0,0.3,0,1,0.1,2L45.3,214.9z"/>
	<path class="st14" d="M45.4,43.8c-0.9,0-1.7,0.4-2.5,1.2c-0.8,0.8-1.2,1.9-1.3,3.2c0.3,1,0.8,1.9,1.4,2.8c0.3,0.5,0.7,1.1,1.2,1.9
		c0.7,1,1.2,1.9,1.6,2.5c0.4,0.7,1,1.4,1.6,2.1c0.1,0.1,0.1,0.1,0.1,0.2l5.4,5.4c0.8-1,1.4-2,2-3.1c0.6-1,1.1-2.2,1.5-3.3
		c-1.3-0.6-2.5-1.3-3.6-2.1c-1.6-1.1-3.1-2.3-4.4-3.7c-0.8-0.6-1.5-1.3-2.1-2c-0.5-0.6-0.9-1.2-1.1-1.8c-0.1-0.1-0.1-0.2-0.2-0.3
		l-0.7-1.4c0-0.1,0-0.3,0.1-0.5l0.9-0.3L45.4,43.8z"/>
	<path class="st14" d="M66.4,54.7c1,1.4,1.8,2.8,2.5,4.4c0.3,0.7,0.5,1.3,0.7,2c1.9-0.4,4.2-1.1,6.8-2c2.7-0.9,5.7-2,9-3.2
		c0.5-0.2,1.1-0.4,1.5-0.6c0,0,0,0,0-0.1c2.3-2.1,4.4-4.5,6.3-7c0.7-0.9,1.3-1.8,2-2.7c1.1-1.5,2.1-3.1,3.2-4.6
		c1.5-2.3,3-4.7,4.4-7.1c1.1-1.9,2.2-3.8,3.3-5.7c0,0,0,0-0.1,0c-0.9-0.6-1.6-1.3-1.9-2.2c-0.3,0.4-0.6,1-1,1.5c0,0,0,0.1-0.1,0.1
		c0,0.1-0.1,0.1-0.1,0.2c-0.1,0.1-0.1,0.2-0.2,0.3c0,0.1-0.1,0.1-0.1,0.1l-1.5,2.2c0,0.1-0.1,0.1-0.1,0.2c-0.1,0.1-0.2,0.3-0.3,0.4
		c-0.1,0.2-0.3,0.4-0.4,0.6c-2.2,3.3-4.7,6.8-7.5,10.4c-1.6,2.1-2.8,3.8-3.7,5.1c-1.5,0.5-3,1.1-4.5,1.6c-5.3,2-10.7,3.8-16.1,5.4
		C67.7,54.2,67,54.4,66.4,54.7z"/>
	<path class="st14" d="M58.9,49l-0.4,1.3c0.4,1.3,0.5,2.5,0.3,3.6c-0.2,1.3-0.3,2.1-0.3,2.2c0.2,0.4,0.5,0.7,0.7,1.1c0,0,0,0,0,0.1
		l0.1,0.1l2.7,4.1c0-1.3,0-2.5-0.1-3.7c-0.1-1.2-0.3-2.4-0.5-3.4c-0.2-0.8-0.4-1.6-0.6-2.4l-0.2-0.6c-0.3-1-0.7-2-1.1-2.9L58.9,49z"
		/>
	<path class="st14" d="M35.9,57.3c-3.7,5.1-6.9,10.5-9.8,16.2c-1.5,2.9-2.8,5.9-4,9c-1,2.5-1.9,5-2.7,7.5c-0.5-0.1-0.9-0.2-1.4-0.2
		c0,0.5,0.1,1,0.2,1.6c0.1,0.4,0.2,0.9,0.4,1.4c0.5,1.5,1.4,3.2,2.7,5.2c0.1,0.2,0.2,0.3,0.3,0.5c0.8,1.1,1.6,2.3,2.5,3.4
		c1.1,1.4,2.3,2.8,3.6,4.2c1,1,1.9,1.9,2.8,2.8c0.4,0.4,0.8,0.7,1.2,1.1c0.7,0.6,1.3,1.1,2,1.6c0.5-0.3,1.1-0.5,1.7-0.5
		c0.8,0,1.4,0,1.9,0.2c-1.4-2.3-3-4.6-4.7-6.7c-1.3-1.6-2.6-3.1-4.1-4.6c-0.4-0.4-0.8-0.9-1.3-1.5c-0.8-1-1.7-2.3-2.7-3.8
		c0,0,0,0,0,0c0.9-1.3,1.9-2.7,2.9-4.3c1.1-1.8,2.1-3.5,3.1-5.2c1.9-3.2,3.6-6.4,5.2-9.4C38,71,39,67,38.7,63.7
		c0-0.4-0.1-0.8-0.2-1.2c-0.4-1.9-1.1-3.5-2.3-4.8L35.9,57.3z"/>
	<path class="st15" d="M30.9,118c0.8,0.4,1.6,0.7,2.3,0.9c0-0.1,0-0.1,0-0.2c-0.5-0.2-0.9-0.4-1.3-0.7c-0.7-0.7-1-1.6-0.8-2.7
		c0.2-1,0.6-2,1.4-2.8c0.3-0.3,0.7-0.6,1-0.8c-0.6-0.5-1.3-1-2-1.6c-0.4-0.3-0.8-0.7-1.2-1.1c-0.9-0.8-1.9-1.8-2.8-2.8
		c-1.3-1.4-2.5-2.8-3.6-4.2c-0.9-1.1-1.7-2.3-2.5-3.4c-0.1-0.2-0.2-0.3-0.3-0.5c-1.3-1.9-2.1-3.7-2.7-5.2c-0.2-0.5-0.3-0.9-0.4-1.4
		c-0.1-0.5-0.2-1-0.2-1.6c0.5,0,1,0.1,1.4,0.2c0.8-2.5,1.7-5,2.7-7.5c1.2-3.1,2.6-6.1,4-9c2.8-5.7,6.1-11.1,9.8-16.2
		c-0.5-0.5-1.1-0.9-1.7-1.3c-1.6-0.7-3.1-0.9-4.5-0.4c-1.9,0.6-3.6,2.4-5,5.4c-1.6,3.4-3.9,8.1-6.9,14.1c-2.1,4.3-3.7,9.2-4.8,14.6
		c-0.4,2.1-0.7,3.9-0.7,5.4c-0.1,0.7-0.1,1.5,0,2.3c0.3,2.6,1.7,5.2,4.4,8.1c1.2,1.2,2.4,2.5,3.7,3.7c0.8,0.7,1.5,1.5,2.3,2.2
		c1,0.9,2,1.8,3,2.8C27.6,115.9,29.4,117.2,30.9,118z"/>
	<path class="st15" d="M69.6,61.1c0.9,2.7,1.4,5.4,1.4,8.2c0,0.1,0,0.2,0,0.4c1.8-0.3,3.5-0.9,5.3-1.8c3-1.5,6-3.1,8.9-4.6
		c2.9-1.6,5.3-3,7.2-4.4c0.3-0.2,0.5-0.4,0.8-0.6c1.1-0.3,2.2-0.9,3.2-1.9c2-2.1,3.8-4.6,5.4-7.4c1.6-2.9,3.2-5.9,4.9-9
		c1.6-3.1,2.9-5.5,3.7-7.4c0.5-1.2,1-2.2,1.3-2.9c-1.4,0.4-3.2-0.2-5.6-1.7c-1.1,1.9-2.2,3.8-3.3,5.7c-1.4,2.4-2.9,4.8-4.4,7.1
		c-1,1.6-2.1,3.1-3.2,4.6c-0.7,0.9-1.3,1.8-2,2.7c-1.9,2.6-4,4.9-6.3,7c0,0,0,0,0,0.1c-0.5,0.2-1,0.4-1.5,0.6
		c-3.3,1.3-6.3,2.3-9,3.2C73.8,60,71.5,60.6,69.6,61.1z"/>
	<path class="st16" d="M44.9,46.6l0.1-0.2c-0.1-0.4-0.1-0.8,0-1.1l0.2-0.9l-0.9,0.3c-0.1,0.2-0.1,0.3-0.1,0.5L44.9,46.6z"/>
	<path class="st15" d="M59.5,57.5c0.6,1.4,0.5,2.8-0.2,4.4l1.5,10.9c0.5-2.1,0.9-4.2,1.1-6.3c0.1-0.7,0.1-1.3,0.2-2
		c0.1-0.9,0.1-1.9,0.1-2.8L59.5,57.5z"/>
	<path class="st15" d="M56.5,74.3l0.1-12.1l-1.7-2.5c-0.6,1-1.2,2-2,3.1l-5.4-5.4c0,0-0.1-0.1-0.1-0.2c-0.5-0.3-1-0.5-1.4-0.7
		c0.7,1.6,1.5,3.1,2.3,4.6c2.9,2.1,4.7,3.1,5.4,3.2c0.4,0,0.8-0.1,1.2-0.3c0,0.7,0,1.7,0.1,2.8c0,1.5,0,2.5,0,3.1l-0.2,1.8
		C55.3,72.7,55.9,73.5,56.5,74.3z"/>
	<path class="st17" d="M56.4,56.4l2.3-0.2c0-0.2,0.1-0.9,0.3-2.2c0.1-1.1,0-2.3-0.3-3.6l0.4-1.3l0.8-2.8c-1.6-0.7-2.7-1.3-3.4-1.8
		c-2.2-1.5-3.1-3.4-2.8-5.6c-1.6,0.2-2.8-0.5-3.7-2.1C48.9,35,49,33.5,50,32.3c-0.7,0.2-1.1,0.5-1.3,1.1c-0.1,0.4-0.2,1-0.2,1.8
		c0,0.9-0.1,1.5-0.2,1.9c-0.2,0.6-0.6,1.1-1.1,1.4c-0.1,0-0.1-0.1-0.2-0.1l-1.5,5.5l-0.2,0.7L45,45.3c-0.1,0.4-0.1,0.7,0,1.1
		l-0.1,0.2c0.1,0.1,0.1,0.2,0.2,0.3c0.2,0.5,0.6,1.1,1.1,1.8c0.6,0.7,1.3,1.4,2.1,2c1.4,1.4,2.8,2.6,4.4,3.7
		C53.9,55.1,55.1,55.8,56.4,56.4z"/>
	<path class="st18" d="M113.8,15c-1,1.1-1.1,2.4-0.3,3.9c0,0.1,0.1,0.2,0.2,0.3c0.2-0.2,0.4-0.3,0.8-0.3v0c0,0,0,0,0,0.1
		c0,0,0,0,0.1,0c0.4,0,0.8,0.2,1.1,0.5c0,0,0,0,0.1,0v0c0,0,0,0,0.1,0c0,0,0,0,0-0.1c0,0,0-0.1,0-0.1c-0.4-0.3-0.8-0.5-1.2-0.5
		c0-0.2,0.1-0.4,0.3-0.6l1.8-1.4c0,0,0,0,0-0.1c0,0,0,0,0-0.1c0,0,0,0-0.1,0c0,0,0,0-0.1,0l-1.8,1.4c0,0,0,0,0,0c0,0,0,0,0,0
		l-0.4-0.2c0-1.1,0.1-2.1,0.3-3c0.1-0.4,0.2-0.7,0.3-1.1C114.6,14.2,114.2,14.6,113.8,15z"/>
	<path class="st19" d="M44.2,52.8c0.5,1.3,1.1,2.5,1.7,3.8c0.4,0.2,0.9,0.4,1.4,0.7c-0.6-0.7-1.1-1.4-1.6-2.1
		C45.4,54.6,44.9,53.8,44.2,52.8z"/>
	<path class="st19" d="M48.3,61.2c2,3.7,4.1,7.2,6.5,10.7l0.2-1.8c0-0.6,0-1.6,0-3.1c0-1.1-0.1-2.1-0.1-2.8
		c-0.3,0.2-0.7,0.3-1.2,0.3C53,64.4,51.2,63.3,48.3,61.2z"/>
	<path class="st20" d="M69.5,20.1L69.5,20.1C69.5,20.1,69.5,20.2,69.5,20.1c-0.3,0.1-0.6,0.2-0.9,0.3c-2.7,1-5.9,1.3-9.8,0.8
		c-3.9-0.5-7.5-0.7-10.8-0.7c-1.3,0-2.4,0.1-3.3,0.2c-0.1,0-0.1,0.1-0.1,0.1c-0.9,1.3-1.5,2.8-1.8,4.5c0.5,0,1.2,0,2,0
		c1.2,0,2.4,0.1,3.6,0.2l1.1,0.1l6.5,1.3l0-0.1c0.4-0.1,0.9-0.3,1.6-0.6c1.6-0.3,3.3-0.5,5-0.7c2.1-0.1,4.2,0,6.3,0.3
		c1-0.7,1.4-1.8,1.2-3.3C70.1,21.4,69.8,20.5,69.5,20.1C69.6,20.2,69.5,20.2,69.5,20.1C69.5,20.2,69.5,20.2,69.5,20.1L69.5,20.1z"/>
	<path class="st20" d="M47,38.3c0.1,0,0.1,0.1,0.2,0.1c0.6-0.3,0.9-0.8,1.1-1.4c0.2-0.4,0.2-1,0.2-1.9c0-0.8,0.1-1.5,0.2-1.8
		c0.2-0.6,0.6-0.9,1.3-1.1c0.4,0.1,0.8,0.4,1.3,1c0.1,0.2,0.3,0.4,0.4,0.7l0.2,0.3l1,1c0,0,0.1,0,0.1,0.1c0.2,0.1,0.4,0.1,0.6,0.1
		c0.9-1.1,1.7-2,2.3-2.8c0.1-0.2,0.2-0.3,0.3-0.5l0.2-0.4c0-0.1,0.1-0.2,0.1-0.2l0-0.1c0.1-0.1,0.1-0.3,0.2-0.4L54,30.6
		c-1-0.1-2.1-0.3-3.2-0.5c-0.9-0.2-1.9-0.4-2.9-0.7l-5.4-1.9h0c0,0.1,0,0.1,0,0.2c0,0.1,0,0.1,0,0.2c0,0.3,0,0.6,0,0.9l0.6,3.6
		l0.3,0.7C44.1,35.3,45.3,37,47,38.3z"/>
	<path class="st21" d="M42.5,27.6l5.4,1.9c1,0.3,1.9,0.5,2.9,0.7c1.1,0.2,2.1,0.4,3.2,0.5l2.8,0.4c0.5-1.4,0.3-2.7-0.7-4l-6.5-1.3
		l-1.1-0.1c-1.2-0.1-2.4-0.1-3.6-0.2c-0.9,0-1.5,0-2,0c-0.1,0.5-0.1,1-0.2,1.4C42.5,27.1,42.5,27.4,42.5,27.6z"/>
	<path class="st21" d="M44.7,20.8c1-0.1,2.1-0.2,3.3-0.2c3.3,0,6.9,0.2,10.8,0.7c3.9,0.4,7.1,0.1,9.8-0.8c0.3-0.1,0.6-0.2,1-0.3
		c-0.1-0.1-0.1-0.1-0.1-0.1l0,0c-0.1-0.2-0.3-0.4-0.6-0.6c-0.3-0.3-1.4-0.8-3.1-1.6c-1.8-0.8-4.2-1.3-7.3-1.5
		c-3-0.2-5.9,0.1-8.8,0.9C47.6,17.8,45.9,19,44.7,20.8z"/>
	<path class="st22" d="M50,32.3c-1,1.3-1,2.8-0.2,4.4c0.9,1.7,2.1,2.4,3.7,2.1c-0.3,2.2,0.6,4.1,2.8,5.6c0.7,0.5,1.8,1.1,3.4,1.8
		c0.8,0.4,1.8,0.7,2.8,1.1c1.7,0.3,2.9-0.5,3.7-2.2c0.3-0.6,0.5-1.4,0.7-2.3c0.2-0.7,0.3-1.1,0.3-1.1c0.2-0.9,0.4-1.6,0.4-2.1l0-0.2
		c0.7-0.3,1.2-0.8,1.7-1.4l-0.2-1.5c-0.2-0.9-0.3-1.5-0.3-2c-0.1-0.8-0.1-1.3,0.1-1.8c0.1-0.3,0.3-0.5,0.4-0.8h0
		c0-0.1,0-0.2,0.1-0.3c0.1-0.2,0.1-0.5,0.2-0.7c0-0.3,0-0.7-0.1-1c0-0.7-0.1-1.6-0.2-2.7c-0.1-0.5-0.2-0.9-0.3-1.3
		c-2.1-0.4-4.2-0.5-6.3-0.3c-1.7,0.1-3.4,0.4-5,0.7c-0.7,0.2-1.2,0.4-1.6,0.6l0,0.1c0.9,1.3,1.2,2.7,0.7,4c-0.1,0.2-0.1,0.3-0.2,0.4
		l0,0.1c0,0.1-0.1,0.2-0.1,0.2l-0.2,0.4c-0.1,0.1-0.2,0.3-0.3,0.5c-0.6,0.8-1.4,1.7-2.3,2.8c-0.2,0-0.4,0-0.6-0.1
		c-0.1,0-0.1-0.1-0.1-0.1l-1-1L51.7,34c-0.1-0.3-0.3-0.5-0.4-0.7C50.8,32.7,50.4,32.3,50,32.3z"/>
	<path class="st22" d="M33.2,118.8c0,0.1,0,0.1,0,0.2c0.3,0.6,1,1.6,2.1,3.1c0.6,0.8,1.3,1.4,2.1,2c0.5,0.3,1,0.6,1.6,0.9
		c0.1,0,0.1,0.1,0.2,0.1c1.8,0.7,3.5,0.7,5.2-0.1c0.5-0.2,0.9-0.5,1.1-0.9c0.1-0.1,0.2-0.2,0.2-0.4c0.9-1.8,1.5-3.7,1.7-5.7
		c0.1-0.8-0.2-1.5-0.9-1.9c-0.1-0.1-0.3-0.2-0.4-0.3c-1.2-0.7-2.5-1.2-4-1.3c-0.1,0-0.2,0-0.3-0.1c-0.7-0.1-1.3-0.3-1.8-0.6
		c-0.7-0.4-1.4-1-1.9-1.7c0,0,0,0.1-0.1,0.1c-0.1,0-0.2-0.1-0.4-0.1c0,0-0.1,0-0.1,0c-0.8-0.1-1.6,0.1-2.3,0.7
		c-0.3,0.2-0.6,0.5-1,0.9c-0.9,1.4-1.3,3.1-1.1,5.1C33.2,118.7,33.2,118.8,33.2,118.8z"/>
	<path class="st17" d="M37.7,112c0.1,0,0.2,0,0.4,0.1c0,0,0.1-0.1,0.1-0.1c0.5,0.7,1.1,1.3,1.9,1.7l0.6-2.4c-0.6,0-1.1,0-1.6,0.2
		c-0.4,0.1-0.7,0.2-1,0.3C37.9,111.9,37.8,111.9,37.7,112z"/>
	<path class="st23" d="M33.1,118.6c-0.2-2,0.2-3.6,1.1-5.1c0.3-0.4,0.6-0.7,1-0.9c0.7-0.5,1.5-0.8,2.3-0.7c0,0,0.1,0,0.1,0
		c0.1-0.1,0.2-0.1,0.3-0.2c-0.2-0.2-0.3-0.4-0.5-0.5c-0.1-0.1-0.3-0.2-0.5-0.2c-0.5-0.1-1.1-0.2-1.9-0.2c-0.6,0-1.1,0.2-1.7,0.5
		c-0.4,0.2-0.7,0.5-1,0.8c-0.8,0.9-1.3,1.8-1.4,2.8c-0.2,1.1,0.1,2,0.8,2.7C32.2,118.2,32.7,118.4,33.1,118.6z"/>
	<path class="st17" d="M119.4,19.3c0,0.7-0.2,1.2-0.6,1.6c-1.2,0.7-2.2,1.5-3.1,2.5c-1.2,1.2-2.3,2-3.5,2.5c-0.7,0.3-1.3,0.4-2,0.4
		c-1.6,0-3-0.5-4.3-1.6c0.1,0.5,0.4,1,0.8,1.5c1,1,2.5,1.5,4.7,1.4c0.3-0.1,0.7-0.2,1-0.3c1.8-0.7,3.3-2,4.5-3.7
		c0.7-0.8,1.4-1.5,2.1-2c0.8-0.5,1-1.1,0.7-1.8C119.6,19.6,119.5,19.5,119.4,19.3z"/>
	<path class="st17" d="M113.6,19.2c0.7,0.9,1.5,1.3,2.3,0.9c0.6-0.3,1.1-0.9,1.3-1.7l0.6-1.5c0.2-0.7-0.1-1.2-1-1.4l-2.3-0.6
		c-0.2,0.9-0.3,1.9-0.3,3l0.4,0.2c0,0,0,0,0,0c0,0,0,0,0,0l1.8-1.4c0,0,0,0,0.1,0c0,0,0.1,0,0.1,0c0,0,0,0,0,0.1c0,0,0,0.1,0,0.1
		l-1.8,1.4c-0.2,0.1-0.3,0.3-0.3,0.6c0.4,0,0.8,0.2,1.2,0.5c0,0,0,0,0,0.1c0,0,0,0,0,0.1c0,0,0,0-0.1,0v0c0,0-0.1,0-0.1,0
		c-0.4-0.3-0.7-0.4-1.1-0.5c0,0,0,0-0.1,0c0,0,0,0,0-0.1v0C114.1,18.9,113.8,19,113.6,19.2z"/>
	<path class="st17" d="M118.1,4.7c-0.8,4-2.2,7.5-4.3,10.3c0.4-0.4,0.8-0.7,1.2-1.1c0.6-0.7,1.2-1.6,1.6-2.5
		c0.9-1.9,1.5-3.7,1.8-5.5C118.3,5.3,118.2,4.9,118.1,4.7z"/>
	<path class="st22" d="M105.8,23.6c0,0.4,0,0.8,0.1,1.1c1.2,1.1,2.7,1.6,4.3,1.6c0.6,0,1.3-0.1,2-0.4c1.1-0.4,2.3-1.3,3.5-2.5
		c0.9-1,1.9-1.9,3.1-2.5c0.4-0.4,0.6-1,0.6-1.6c-0.4-0.5-0.9-0.9-1.4-1.1c-0.3-0.1-0.5,0-0.7,0.2c-0.2,0.8-0.7,1.4-1.3,1.7
		c-0.8,0.3-1.6,0-2.3-0.9c-0.1-0.1-0.1-0.2-0.2-0.3c-0.8-1.5-0.7-2.8,0.3-3.9c2-2.8,3.5-6.3,4.3-10.3c-0.1-0.2-0.4-0.3-0.6-0.3
		c-2.4,4.7-4.7,8.1-6.9,9.9c-1.1,0.7-1.9,1.8-2.3,3.1l-2.3,5.7C105.8,23.2,105.8,23.4,105.8,23.6z"/>
	<path class="st24" d="M41.8,114.4c0.1,0,0.2,0,0.3,0.1c1.4,0.2,2.8,0.6,4,1.3c0.1,0.1,0.3,0.2,0.4,0.3c0.7,0.5,1,1.1,0.9,1.9
		c-0.2,2-0.8,3.9-1.7,5.7c-0.1,0.1-0.1,0.3-0.2,0.4c-0.3,0.4-0.7,0.7-1.1,0.9c-1.7,0.8-3.4,0.9-5.2,0.1l-0.9,3.8l8.3,2.1l4.9-19.8
		l-8.3-2.1L41.8,114.4z"/>
	<rect x="50.8" y="97.5" transform="matrix(0.239 -0.971 0.971 0.239 -63.7295 133.7211)" class="st24" width="5.2" height="20"/>
	
		<rect x="49" y="119.2" transform="matrix(0.2392 -0.971 0.971 0.2392 -78.0776 147.6186)" class="st24" width="12.4" height="8.9"/>
	<rect x="56.3" y="110.3" transform="matrix(0.239 -0.971 0.971 0.239 -67.2876 143.2629)" class="st24" width="2.9" height="8.6"/>
	<polygon class="st24" points="49,130 57.7,132.1 57,134.9 48.3,132.8 	"/>
</g>
</svg>
