<?xml version="1.0" encoding="utf-8"?>
<!-- Generator: Adobe Illustrator 25.4.1, SVG Export Plug-In . SVG Version: 6.00 Build 0)  -->
<svg version="1.0" id="Layer_1" xmlns="http://www.w3.org/2000/svg" xmlns:xlink="http://www.w3.org/1999/xlink" x="0px" y="0px"
	 viewBox="0 0 157 236.5" style="enable-background:new 0 0 157 236.5;" xml:space="preserve">
<style type="text/css">
	.st0{opacity:0.5;fill-rule:evenodd;clip-rule:evenodd;}
	.st1{fill-rule:evenodd;clip-rule:evenodd;fill:#F0F0FF;}
	.st2{fill-rule:evenodd;clip-rule:evenodd;fill:#51DEED;}
	.st3{fill-rule:evenodd;clip-rule:evenodd;fill:#F18D69;}
	.st4{fill-rule:evenodd;clip-rule:evenodd;fill:#D67958;}
	.st5{fill-rule:evenodd;clip-rule:evenodd;fill:#452312;}
	.st6{fill-rule:evenodd;clip-rule:evenodd;fill:#905435;}
	.st7{fill-rule:evenodd;clip-rule:evenodd;fill:#713D22;}
	.st8{fill-rule:evenodd;clip-rule:evenodd;fill:#FFB087;}
	.st9{fill-rule:evenodd;clip-rule:evenodd;fill:#029FA3;}
	.st10{fill-rule:evenodd;clip-rule:evenodd;fill:#00F9C7;}
	.st11{fill-rule:evenodd;clip-rule:evenodd;fill:#B8EFF2;}
	.st12{fill-rule:evenodd;clip-rule:evenodd;fill:#00BDDD;}
	.st13{fill-rule:evenodd;clip-rule:evenodd;fill:#FF7F8A;}
	.st14{fill-rule:evenodd;clip-rule:evenodd;fill:#016AFB;}
	.st15{fill-rule:evenodd;clip-rule:evenodd;fill:#013883;}
	.st16{fill-rule:evenodd;clip-rule:evenodd;fill:#FFFFFF;}
	.st17{fill:#FF589C;}
</style>
<g>
	<g>
		<path class="st0" d="M17.2,225.3c0.3-0.4,0.6-0.8,0.9-1.2c0.6-0.7,1.7-1.7,3.1-3.1c0.2-0.2,0.5-0.4,0.7-0.6
			c-1.9,0.2-3.7,0.5-5.5,0.8c-8.7,1.5-13.1,3.3-13.1,5.5c0,2.1,4.4,4,13.1,5.5c8.7,1.5,19.3,2.3,31.6,2.3c12.4,0,22.9-0.8,31.6-2.3
			c1.8-0.3,3.4-0.6,4.8-1l1.5,0.3l56.6-10l-14.2-2.5v1.1h-1.7l-42.4,7.5L47,221.2c-0.8,3.1-1.3,5.1-1.6,6c-1.9,1.8-4.4,3-7.4,3.6
			c-2.3,0.5-5.2,0.7-8.4,0.5c-0.5,0-0.8-0.3-1-0.8c-0.2-0.7-0.3-1.1-0.4-1.4c-1.5,0.8-3.4,1.3-5.8,1.6c-2.7,0.3-4.7,0.5-6,0.7
			C15.4,229.4,15.7,227.4,17.2,225.3z"/>
		<path class="st1" d="M78.8,42.3c0.3-0.2,0.6-0.5,1-0.7l0.4-0.2l0.6-0.5v1.4c0,0.6-0.1,1.3-0.5,2.2c-0.2,0.5-0.5,1.2-0.9,2.1
			c-0.2,0.5-0.2,0.8-0.1,1c0,0.1,0.1,0.1,0.2,0.1c0.3,0.1,1.1-0.2,2.2-0.8l8.1-4.7c1.7-0.4,2.7-0.7,3-0.9c1-0.5,1.1-1.4,0.5-2.5
			c0.8-0.3,1.7-0.1,2.8,0.5c1,0.5,1.9,1.3,2.7,2.2c0.8,0.9,1.2,1.8,1.3,2.5c0.1,0.8-0.3,1.3-1.2,1.4c-1.9,0-3.8,0.4-5.6,1.2
			c-1.7,0.8-3.3,1.8-4.7,3.2l-5.2,3.7l-2-2.6c-1-1-2-1.6-3.1-1.7c-0.3,0-0.7,0-1,0c0,0,0,0,0,0c-1.2,0.2-2.2,1-3.3,2.2
			c0,0-0.1-0.1-0.1-0.1c0.2-0.5,0.6-1.2,1.1-2.2c0.4-0.8,0.7-1.5,1-2.1c0.1-0.2,0.2-0.4,0.2-0.7C76.7,44.6,77.6,43.3,78.8,42.3z
			 M69.6,49c-0.1,0.8,0.1,1.7,0.8,2.5c-0.2,0.6-0.5,1.2-0.8,1.9c-0.1,0.2-0.2,0.4-0.3,0.6c-0.9-0.2-1.6-0.2-1.9-0.3
			c-0.7-0.1-1.3,0-1.8,0.1c0.5-1.5,1-2.6,1.4-3.3c0.2-0.4,0.5-0.8,0.8-1.2l4.3-2.9c0.1,0,0.2-0.1,0.4-0.1c-0.3,0.9-0.8,2-1.3,3.3
			C70.6,49.4,70.1,49.2,69.6,49z M64.8,56.5c0.1,0.2,0.2,0.4,0.3,0.6c-0.2,0-0.4,0.1-0.5,0.2C64.7,57,64.7,56.8,64.8,56.5z
			 M59.9,70.9c1.2-3.1,2.3-5.8,3.1-8.1c0.2,0.4,0.5,0.7,0.8,1c0.2,0.1,0.5,0.3,0.8,0.4c-1.1,1.5-1.9,2.8-2.4,4.1
			c-0.7,1.7-0.9,3.3-0.5,4.8c0.1,0.7,0.4,1.3,0.8,1.9c-0.6,1.7-1.2,3.4-1.8,5.2c-0.7,1.7-1.3,3.2-1.8,4.5c-1.1-0.5-2.2-0.7-3.1-0.4
			c0,0-0.1,0-0.1,0c0,0,0,0-0.1,0C56.1,81.1,57.6,76.6,59.9,70.9z M101.7,47.8c0.2,0.2,0.4,0.5,0.7,0.8c2,2.4,3.4,5.9,4.2,10.6
			c0.9,5.2,0.4,9-1.4,11.6c-0.4,0.5-1,0.8-1.9,0.8c-0.4,0-1.2-0.1-2.2-0.3c-0.6-0.3-1.1-0.6-1.6-0.8c-0.2-0.7-0.3-1.7-0.3-3
			c-0.1-1.5-0.1-2.5-0.2-3c-2.2-1.5-3.4-3.8-3.7-6.8c-0.2-2.1,0.1-4.1,0.8-6c0.2-0.6,0.5-1.2,0.8-1.7c1.1-1,2.3-1.7,3.6-2
			C100.9,47.9,101.3,47.8,101.7,47.8z"/>
		<path class="st2" d="M103.3,71.6c0.9,0,1.6-0.3,1.9-0.8c1.8-2.6,2.3-6.4,1.4-11.6c-0.8-4.7-2.2-8.2-4.2-10.6
			c-0.2-0.3-0.4-0.5-0.7-0.8l0,0c0.1,0,0.2,0,0.2,0c0.1,0,0.1,0,0.1,0c0.3,0,0.5,0,0.8,0c1.4,0.1,2.8,0.6,4.2,1.5
			c1,0.6,1.9,1.4,2.6,2.3c0.5,0.5,0.9,1.1,1.2,1.7c0.4,0.6,0.7,1.2,0.9,1.9c0.4,1.1,0.7,2.3,0.7,3.5c-0.2,0.3-0.3,0.6-0.5,0.9
			c-0.5,1.1-0.9,2.3-1.1,3.6c-0.1,0.7-0.2,1.4-0.2,2.1c-0.1,1.7,0.1,3.9,0.6,6.8c0.5,3.4,0.8,5.6,0.9,6.8c0.1,2.5-0.2,4.7-0.9,6.5
			c0.5-2.4,0.6-4.6,0.1-6.4c-0.5-2.3-1.8-3.9-3.8-4.8l-0.1,0c-1,0-2.1-0.3-3.2-0.8c-0.3-0.1-0.6-0.3-0.9-0.5
			c-0.1-0.1-0.2-0.1-0.2-0.2c-0.7-0.4-1.3-0.8-1.9-1.1c0,0-0.1,0-0.1-0.1c0,0,0,0,0,0c0,0,0,0-0.1,0
			C102.1,71.5,102.9,71.6,103.3,71.6z M72.5,46.3c-0.1,0-0.2,0.1-0.4,0.1c0.2,0,0.3-0.1,0.5-0.1c0.5,0,0.9,0,1.3,0.1
			c-0.9,0.9-1.7,2.1-2.5,3.5c-0.1-0.1-0.2-0.1-0.3-0.2C71.7,48.3,72.1,47.2,72.5,46.3z M64,88.8c-1.7-1.5-3-2.6-4-3.3
			c-0.5-0.3-0.9-0.6-1.4-0.8c0.6-1.2,1.2-2.7,1.8-4.5c0.7-1.8,1.3-3.5,1.8-5.2c0.2,0.4,0.4,0.7,0.7,1c0.1,0.1,0.7,0.6,1.7,1.3
			c0.5,0.4,0.9,0.8,1.2,1.2c0.1,0.1,0.1,0.3,0.2,0.4c0,1,0.1,2.1,0.3,3.3c0.1,0.5,0.1,1,0.2,1.6C65.4,86.1,64.5,87.8,64,88.8z
			 M69.6,53.4c0.3-0.7,0.5-1.3,0.8-1.9c0,0.1,0.1,0.1,0.1,0.2c-0.3,0.6-0.5,1.2-0.8,1.8c-0.1,0.2-0.2,0.4-0.2,0.6
			c-0.1,0-0.1,0-0.2,0C69.4,53.8,69.5,53.6,69.6,53.4z M40.4,146.5l0.5,0.1c0.7,6.7,0.8,14.7,0.1,23.9c-0.2,2.5-0.4,5.6-0.8,9.2
			l0.1-15.4c0.2-3.2,0.3-6.2,0-9L40.4,146.5z M52.1,184.8c1.7-5.1,3.1-9.1,4.3-12c3.1-6.2,3.8-13.9,2.1-23.2l25.8,4.6v73.5L47,221.2
			c0.3-1.1,0.5-2.3,0.9-3.6c0.9-4,2-7.2,3.3-9.4c0.5-1.7,0.6-3.5,0.1-5.3c-0.5-2-1.5-3.4-3-4c0-1-0.1-1.7-0.1-2.2
			C48.8,194.9,50.1,190.9,52.1,184.8z"/>
		<path class="st3" d="M61.3,23.4C61.2,23.3,61.2,23.3,61.3,23.4c0.7-0.7,1.9-1.7,3.4-3.2c3.9-3,6.8-2.9,8.6,0.3
			c0.2,0.3,0.4,0.7,0.5,1.1c-1.3-1.7-2.9-1.9-4.7-0.5c-0.4,0.3-0.8,0.6-1.2,1c-2.2,1.7-3.9,2.9-5.2,3.5
			C62.2,24.9,61.8,24.1,61.3,23.4z M108.3,87.5c-1.4,0.3-2.6,0-3.7-0.8c-1.8-1.3-3.4-2.4-4.9-3.5c-2.2-1.6-4.1-2.9-5.5-4
			c0.5,0.1,0.9,0.3,1.1,0.4c1,0.7,2.7,1.5,5,2.3c0.6,0.2,1.2,0.4,1.8,0.6c3.2,1,4.9,1.4,5.1,1c1.2-1.8,1.5-4.1,0.7-7.2
			c-0.2-0.6-0.4-1.4-0.7-2.4c0.1,0,0.2,0,0.2,0l0.1,0c2,0.9,3.2,2.5,3.8,4.8c0.4,1.8,0.4,3.9-0.1,6.4
			C110.7,86.4,109.7,87.1,108.3,87.5z M92.4,34.9c0.1,0.5,0.2,1.1,0.4,2c0.1,0.8,0.3,1.4,0.4,2c0.7,1.1,0.5,1.9-0.5,2.5
			c-0.3,0.2-1.4,0.5-3,0.9L81.7,47c-1.2,0.7-1.9,0.9-2.2,0.8c-0.1,0-0.1-0.1-0.2-0.1c-0.1-0.2-0.1-0.5,0.1-1
			c0.4-0.9,0.7-1.6,0.9-2.1c0.4-0.9,0.5-1.7,0.5-2.2V41c1.8-1.1,3-2.4,3.6-3.9c0.6-1.8,0.6-3.6,0-5.4c-0.5-1.7-0.5-3.5,0.2-5.3
			c0.3,0.3,0.6,0.7,0.9,1.3c0.3,0.5,0.8,1.6,1.6,3.2c0.6,1.2,1.2,2.7,1.9,4.3h1.8L92.4,34.9z M38.1,88.2c-9.9-5.6-16-9-18.4-10.3
			l4.4-0.7c0.8-0.1,1-0.9,0.7-2.5l-0.1-0.5c0.2-0.4,0.2-0.8,0.2-1.3c0-0.9-0.3-1.5-1-1.9l-2.4-10.3c1.2,1,2.2,2.3,3.2,3.9
			c1.7,0.8,2.9,1.8,3.6,2.8c0.3,0.5,0.6,1.6,0.9,3.3c0.2,1.4,0.3,2.8,0.2,4.2c2.8,2.2,6.9,4.2,12.1,5.8c1.5,0.5,3.7,1.2,6.6,2
			c2,0.6,3.7,1.2,5.2,1.8c0.1,0.3,0.3,0.7,0.6,1.1c0.3,0.4,0.9,1.1,1.7,2c1.6,2,2.4,3.8,2.4,5.5c0,0.9-0.3,1.8-0.9,2.6
			c-0.3,0.5-0.6,1-0.7,1.4C51.5,95.4,45.3,92.3,38.1,88.2z M11.8,64.3c-0.4-0.9-0.4-1.8-0.1-2.5c0.2,0.2,0.3,0.4,0.5,0.5
			c-0.2,0.4-0.2,1.1-0.2,1.9c0,0.2,0,0.5,0.1,0.7C12,64.6,11.9,64.4,11.8,64.3z M13.5,71.1c0.1-0.1,0.2-0.2,0.3-0.3
			c0.2,0.4,0.4,0.8,0.5,1.3C13.9,71.6,13.6,71.3,13.5,71.1z M26.3,216.8c4.2-3.2,6.4-6.9,6.4-11.3c0-1.4-0.6-2.5-1.7-3.3
			c-0.8-0.5-2-1.1-3.7-1.5c-0.8-0.2-1.5-0.4-2.1-0.6c0-0.3,0.1-0.5,0.1-0.7l0.4-1.9c0,0,0,0,0,0c0-0.1,0.1-0.2,0.1-0.3
			c0.2,0,1.5,0,3.8,0c0.3,0,0.5,0,0.8,0c1.5,0,2.8,0.1,3.8,0.2c0.3,0,0.5,0.1,0.7,0.1c0,0.2,0,0.3,0,0.5c-0.1,0.8,0.1,1.5,0.6,2.2
			c0.4,0.5,1.1,1.2,2,1.9c0,0,0,0,0,0c0,0.1,0,0.2,0,0.3l-0.7,3.3c-0.8,1-1.7,2.5-2.5,4.6c-0.5,1.1-1.1,2.8-2,5
			c-0.9,2-2,3.4-3.3,4.5c-0.4,0.3-0.8,0.6-1.3,0.8c-0.7,0.4-1.4,0.6-2.2,0.7c0,0-0.1,0-0.1,0c-0.2,0-0.5,0.1-0.7,0.1
			c-1,0.3-1.5,0.1-1.4-0.8c0-0.1,0.1-0.2,0.1-0.3c0.2-0.9,0.4-1.5,0.4-1.9C24.6,217.9,25.4,217.4,26.3,216.8z M36.3,218.5
			c0.7,0.1,1.5,0.2,2.4,0.2c0.5,0,0.9,0,1.3-0.1c2.3-0.5,4.1-2.5,5.5-5.9c0.5-1.3,0.9-2.7,1.2-4.2c0.2-1,0.3-1.7,0.3-2
			c0-3-0.6-5.1-1.8-6.4c-0.9-0.9-2.2-1.4-3.9-1.5c-0.4,0-0.8,0-1.2,0c-0.8,0-1.4,0-1.9-0.1c0-0.1,0-0.1,0-0.1l0.3-1.9
			c0,0,0-0.1,0-0.1c0,0,0,0,0,0c0-0.1,0-0.1,0-0.2c0.4,0,0.9,0,1.5,0.1c0.4,0,0.9,0.1,1.4,0.1v0c0.1,0,0.1,0,0.2,0
			c0.1,0,0.1,0,0.2,0l1.3,0.1c0,0,0.1,0,0.1,0c1.2,0.1,2.3,0.2,3.2,0.2c0.6,0,1.1,0,1.6-0.1c0,0.5,0.1,1.2,0.1,2.2
			c1.5,2.7,1.6,6,0.3,9.9c-0.3,1-0.9,2.6-1.8,5c-0.8,2.1-1.4,3.7-1.7,4.9c-0.1,0.1-0.1,0.1-0.2,0.2c-0.9,0.6-1.8,1.1-2.9,1.5
			c-1.2,0.4-2.5,0.7-4,0.8c-0.1,0-0.2,0-0.4,0c-0.1,0-0.1,0-0.2,0c0,0,0,0-0.1,0c-0.1,0-0.2,0-0.3,0c0,0-0.1,0-0.1,0
			c0,0-0.1,0-0.1,0c0,0,0,0,0,0c-0.1,0-0.1,0-0.1,0c0,0-0.1,0-0.1,0c-0.1,0-0.1,0-0.2,0c0,0-0.1,0-0.1,0c-0.1,0-0.1,0-0.2,0
			c0,0,0,0-0.1,0c-0.1,0-0.1,0-0.1,0l-3-1.7c-0.1-0.1-0.1-0.2-0.2-0.3c-0.1-0.3-0.2-0.7-0.3-1c0.2-0.3,0.5-0.6,0.7-0.9
			C34.1,217.8,35.1,218.2,36.3,218.5z"/>
		<path class="st4" d="M53.8,85c0.3,0.1,0.6,0.2,0.9,0.4l0.8-1c0,0,0,0,0.1,0c0,0,0,0,0.1,0c1-0.3,2-0.1,3.1,0.4
			c0.4,0.2,0.9,0.5,1.4,0.8c0.9,0.7,2.2,1.8,4,3.3c-0.4,1.1-1.1,3-2.1,5.5c-1,2.1-2.4,3.3-4.1,3.6c-0.4-0.1-0.8-0.3-1.1-0.4
			c0.1-0.4,0.4-0.9,0.7-1.4c0.6-0.8,0.9-1.7,0.9-2.6c0-1.7-0.8-3.6-2.4-5.5c-0.8-0.9-1.4-1.6-1.7-2c-0.3-0.4-0.5-0.8-0.6-1.1
			C53.6,84.9,53.7,84.9,53.8,85z M24.9,73c0,0.5-0.1,0.9-0.2,1.3L24,71.1C24.6,71.5,24.9,72.1,24.9,73z"/>
		<path class="st5" d="M93.7,11.1C93.7,11.1,93.7,11.1,93.7,11.1c-0.7-1.4-1.5-2.6-2.5-3.7c-0.7,0.7-1.4,1.3-2.3,2
			c-2,1.5-4.2,2.8-6.8,4c-0.1,0-0.2,0.1-0.3,0.1c-3.5,1.6-6.4,3.9-8.5,6.9c-1.8-3.2-4.7-3.3-8.6-0.3c-1.5,1.5-2.7,2.5-3.5,3.2
			c-0.8-0.9-1.3-1.8-1.5-2.9c0.7-0.7,1.4-1.4,2.2-2.3c3.9-4.2,6.1-6.4,6.6-6.8c2.6-1.9,5.7-3.3,9.3-4.3c2.3-0.7,5.4-1.3,9.2-1.8
			C87.4,5.1,87.8,5,88.2,5c0.1,0.1,0.2,0.1,0.3,0.2c0.1,0,0.1,0.1,0.2,0.1c5.1-4,10-3.6,14.6,1.1c2.2,2.2,3.8,4.9,4.7,7.9
			c0.8,2.4,1.2,5.3,1.3,8.7c0.1,2,0,5-0.1,9.1c0,3.6,0.3,6.7,0.8,9.1c0.9,4.5,2.2,8.4,3.8,11.9c0.8,1.8,2.2,4.3,4.2,7.5
			c1.6,2.7,2.8,4.9,3.4,6.6c0.9,2.7,1.4,5.7,1.4,9.2c0,1-0.2,2.4-0.7,4.1c-0.8,2.8-2,5.3-3.7,7.6c-4.5,6.1-11.6,9.5-21.3,10.4
			c-1.2-3.1-0.6-7.6,1.8-13.3c0.3-0.7,0.6-1.4,0.9-2c1.5,1,3.1,2.2,4.9,3.5c1.1,0.9,2.3,1.2,3.7,0.8c1.4-0.3,2.4-1.1,3-2.3
			c0.7-1.8,1-4,0.9-6.5c-0.1-1.1-0.3-3.4-0.9-6.8c-0.4-2.8-0.6-5.1-0.6-6.8c0-0.7,0.1-1.4,0.2-2.1c0-0.1,0.1-0.2,0.1-0.3
			c0.5-1.1,0.8-2.2,1-3.3c0.1-0.3,0.3-0.6,0.5-0.9c0-1.2-0.3-2.3-0.7-3.5c-0.3-1-0.7-1.9-1.4-2.7c-0.2-0.3-0.5-0.6-0.8-0.9
			c-0.8-0.9-1.6-1.7-2.6-2.3c-1.4-0.9-2.8-1.4-4.2-1.5c-0.3-0.2-0.6-0.4-0.9-0.5c-0.6-0.3-1.1-0.6-1.5-0.9c-0.8-0.5-1.3-0.8-1.6-1
			c0.9-0.1,1.3-0.6,1.2-1.4c-0.1-0.7-0.5-1.5-1.3-2.5c-0.8-0.9-1.7-1.6-2.7-2.2c-1.1-0.6-2-0.7-2.8-0.5c-0.1-0.5-0.3-1.2-0.4-2
			c-0.2-0.9-0.3-1.6-0.4-2l3.2-13.4c-0.4-2.3-0.7-4.1-0.8-5.3c-0.3-1.6-0.5-3-0.8-4.1C93.8,11.8,93.8,11.4,93.7,11.1z M78.8,42.3
			c0-0.1,0-0.2,0.1-0.3c0.5-0.2,0.8-0.4,0.9-0.4C79.4,41.8,79.1,42.1,78.8,42.3z"/>
		<path class="st6" d="M60.3,14.9c0-0.1,0-0.1,0.1-0.2c0,0,0-0.1,0-0.1c0,0,0-0.1,0-0.1c0,0,0-0.1,0-0.1c0-0.1,0-0.1,0.1-0.1
			c1.1-2.7,3-5.5,5.6-8.5c2-1.6,4.3-2.7,7-3.3c2.6-0.6,5.3-0.7,8-0.2c2.6,0.4,4.9,1.3,7,2.6c-0.4,0-0.8,0.1-1.2,0.2
			c-3.8,0.5-6.8,1.1-9.2,1.8c-3.6,1-6.7,2.5-9.3,4.3c-0.5,0.4-2.7,2.7-6.6,6.8c-0.8,0.9-1.6,1.7-2.2,2.3
			C59.3,18.8,59.6,17,60.3,14.9z M73.3,20.4c2.1-3,4.9-5.3,8.5-6.9c0.1,0,0.2-0.1,0.3-0.1c2.6-1.2,4.8-2.5,6.8-4
			c0.9-0.7,1.6-1.3,2.3-2c1,1.1,1.8,2.3,2.5,3.6c0,0,0,0.1,0,0.1c0.1,0.3,0.2,0.6,0.3,1c-2.4,2.2-5.4,4.2-8.8,5.9
			c-0.7,0.3-1.5,1-2.2,1.9c-0.5,0-1,0.1-1.5,0.4c-0.2,0.1-0.4,0.2-0.6,0.3c-0.9,0.5-1.6,1.3-2.2,2.3c-0.8,1.4-1.3,2.9-1.3,4.5
			c0.1,0,0.1-0.1,0.2-0.1c-1.3,0.7-2.1,1.7-2.3,3.1c-0.5-4.2-1-7.1-1.4-8.9C73.7,21.1,73.5,20.8,73.3,20.4z"/>
		<path class="st7" d="M89,35.1h1.8l1.6-0.2l3.2-13.4c-0.4-2.3-0.7-4.1-0.8-5.3c-0.3-1.6-0.5-3-0.8-4.1c-2.4,2.2-5.4,4.2-8.8,5.9
			c-0.7,0.3-1.5,1-2.2,1.9c0.5,0,0.9,0.1,1.3,0.3c0.9,0.5,1.3,1.5,1.3,3c0,0.7-0.3,1.8-1,3.2c0.3,0.3,0.6,0.7,0.9,1.3
			c0.3,0.5,0.8,1.6,1.6,3.2C87.7,32,88.3,33.4,89,35.1z"/>
		<path class="st8" d="M80.1,41.5l-0.4,0.2c-0.1,0-0.4,0.2-0.9,0.4c-0.7,0.3-1.6,0.8-2.9,1.5c-1.5,0.8-2.9,1-4,0.7
			c-1.5-1.8-2.7-3.1-3.5-4c-1.4-1.6-2.8-2.7-4.1-3.3c1.3-2.2,1.4-4.5,0.5-7.1c-0.3-1-1.1-2.5-2.2-4.2c1.3-0.7,3-1.8,5.2-3.5
			c0.4-0.3,0.9-0.7,1.2-1c1.9-1.4,3.4-1.2,4.7,0.5c0.4,1.7,0.8,4.7,1.4,8.9c0.2-1.4,0.9-2.4,2.3-3.1c-0.1,0-0.1,0-0.2,0.1
			c0-1.7,0.5-3.2,1.3-4.5c0.6-1,1.4-1.8,2.2-2.3c0.2-0.1,0.4-0.2,0.6-0.3c0.5-0.2,1.1-0.4,1.5-0.4c0.5,0,0.9,0.1,1.3,0.3
			c0.9,0.5,1.3,1.5,1.3,3c0,0.7-0.3,1.8-1,3.2c-0.6,1.9-0.7,3.6-0.2,5.3c0.6,1.8,0.6,3.6,0,5.4c-0.7,1.6-1.9,2.9-3.6,3.9L80.1,41.5z
			 M70.9,54.3c0.3,0.1,0.6,0.1,0.9,0.1c0.8,0.1,1.3,0.1,1.5,0c0-0.1-0.8-0.9-2.3-2.3c0-0.1-0.1-0.1-0.2-0.2
			c-0.1-0.1-0.2-0.2-0.3-0.4c-0.1-0.1-0.1-0.1-0.1-0.2c-0.6-0.8-0.9-1.6-0.8-2.5c0.5,0.2,1,0.4,1.5,0.6c0.1,0.1,0.2,0.1,0.3,0.2
			c0.1,0.1,0.3,0.2,0.4,0.2c0.6,0.4,1.3,0.8,1.9,1.2c0,0,0.1,0.1,0.1,0.1c0.8,0.6,1.5,1.2,2.3,2c0.2,0.1,0.3,0.3,0.5,0.5
			c2.1,2.2,3.8,3.9,5.2,5c1.4,1.6,2.3,2.6,2.6,2.8c1,1,2,1.9,2.9,2.5c0.9,0.6,1.8,1.2,2.8,1.7c3.2,1.9,6.4,3.5,9.5,4.5
			c0.4,0.2,0.9,0.5,1.6,0.8c0,0,0,0,0.1,0c0,0,0,0,0,0c0,0,0.1,0,0.1,0.1c0.5,0.3,1.2,0.7,1.9,1.1c0.1,0,0.2,0.1,0.2,0.2
			c0.3,0.2,0.6,0.3,0.9,0.5c1.2,0.5,2.2,0.8,3.2,0.8c-0.1,0-0.2,0-0.2,0c0.3,1,0.5,1.8,0.7,2.4c0.8,3,0.5,5.4-0.7,7.2
			c-0.2,0.3-2,0-5.1-1c-0.7-0.2-1.3-0.4-1.8-0.6c-2.3-0.8-3.9-1.6-5-2.3c-0.3-0.1-0.6-0.2-1.1-0.4c-0.1-0.1-0.2-0.1-0.2-0.2
			c-2.6-1.9-5-3.8-7-5.6c-1.1-0.9-2.1-1.9-3.1-2.8c-1.1-1-2.1-1.9-2.9-2.5c-0.7-0.6-1.4-1.1-2-1.4c-0.8-0.4-1.6-0.6-2.3-0.6l-1.1,0
			c-2.7-0.3-4.7-0.5-6.1-0.7c-2-0.3-3.7-0.7-5.1-1.3c-0.3-0.1-0.5-0.3-0.8-0.4c-0.3-0.3-0.6-0.7-0.8-1c-0.4-0.8-0.5-1.7-0.4-2.8
			c0.3-1.4,0.9-2.3,2-2.7c0.2-0.1,0.3-0.1,0.5-0.2c-0.1-0.2-0.2-0.4-0.3-0.6c-0.6-1.5-0.3-2.4,0.8-2.7c0.5-0.1,1-0.1,1.8-0.1
			c0.4,0,1,0.1,1.9,0.3c0.1,0,0.1,0,0.2,0C69.9,54.2,70.4,54.2,70.9,54.3z M12.1,64.9c0-0.2,0-0.5-0.1-0.7c-0.1-0.8,0-1.5,0.2-1.9
			c0.1-0.3,0.3-0.5,0.5-0.6c0.2-0.1,0.5-0.1,0.8,0c0.6,0.2,1.5,0.8,2.4,1.7c0.3,1.3,0.6,2.5,0.9,3.6c0.5,1.9,0.8,3.5,1,4.6
			c0.3,1.6,0.4,2.4,0.2,2.6c-0.3,0.4-0.7,0.6-1,0.7c-0.1,0-0.3,0-0.3,0c0,0-0.1,0-0.1,0c0,0,0,0,0,0l-1.4-1
			c-0.3-0.6-0.6-1.3-0.9-1.9c-0.2-0.4-0.4-0.8-0.5-1.3C12.9,68.7,12.4,66.7,12.1,64.9z M24.8,207.7c0.1-3.3,0.2-6.1,0.6-8.3
			c0,0.2-0.1,0.5-0.1,0.7c0.6,0.2,1.3,0.4,2.1,0.6c1.7,0.5,2.9,1,3.7,1.5c1.1,0.8,1.7,1.9,1.7,3.3c0,4.4-2.1,8.1-6.4,11.3
			c-0.9,0.6-1.7,1.1-2.3,1.5c0,0,0-0.1,0-0.1C24.4,216.1,24.7,212.5,24.8,207.7z M40.2,198.6c0.4,0,0.8,0,1.2,0
			c1.7,0.1,3.1,0.6,3.9,1.5c1.2,1.2,1.8,3.3,1.8,6.4c0,0.3-0.1,1-0.3,2c-0.3,1.5-0.7,2.9-1.2,4.2c-1.3,3.4-3.2,5.3-5.5,5.9
			c-0.4,0.1-0.9,0.1-1.3,0.1c-0.9,0-1.7-0.1-2.4-0.2c-1.2-0.2-2.3-0.7-3.1-1.4c2-3.1,3.2-6.9,3.6-11.4l0.7-3.3c0-0.1,0-0.2,0-0.3
			c0.1-0.6,0.3-1.6,0.6-3c0.1-0.2,0.1-0.4,0.2-0.6C38.8,198.6,39.4,198.6,40.2,198.6z"/>
		<path class="st9" d="M83.1,109.1c4.3-0.7,7.6-2.4,10-5c0.4-0.4,0.7-0.8,1.1-1.2c-0.1-0.1-0.1-0.3-0.2-0.4
			c-0.4-1.3-0.9-2.5-1.4-3.7c-0.8-1.9-1.7-3.6-2.7-5.3c-3.7-5.9-8.4-9.6-14.1-11.2c-2-0.6-4.2-0.8-6.5-0.8c0,0-0.5,0.1-1.4,0.4
			c-0.3,0.1-0.6,0.2-0.9,0.3c-0.2,0.1-0.3,0.1-0.4,0.1c-0.2-1.2-0.3-2.3-0.3-3.3c-0.1-0.1-0.1-0.3-0.2-0.4c-0.3-0.4-0.7-0.8-1.2-1.2
			c-1-0.7-1.5-1.2-1.7-1.3c-0.3-0.3-0.5-0.7-0.7-1c-0.4-0.6-0.6-1.3-0.8-1.9c0.5,0.2,0.9,0.4,1.2,0.6c0.4,0.1,0.6,0.2,0.8,0.2
			c0.7,0,2-0.2,3.9-0.7c0.9-0.2,1.8-0.5,2.7-0.7c0.7,0,1.4,0.1,2.1,0.3c0.7,0.2,1.3,0.5,2,0.9c0.3,0.2,0.6,0.4,0.9,0.6
			c1.7,1.3,3.3,1.9,4.7,1.9c0.1,0,0.2,0,0.3,0c1.9,0.2,3.5-0.1,4.9-0.9c0.7-0.4,1.3-1,1.9-1.8c2,1.8,4.4,3.6,7,5.6
			c0.1,0.1,0.2,0.1,0.2,0.2c1.4,1,3.3,2.4,5.5,4c-0.3,0.6-0.6,1.3-0.9,2c-2.4,5.7-3,10.1-1.8,13.3c0.7,1.9,2.1,3.3,4.1,4.3
			c0.9,0.6,1.4,1,1.5,1.1c0.1,0.1,0.1,0.2,0.2,0.3c-4.7,2.9-10.5,5-17.6,6.3c-3.5,0.5-6.5,0.5-9-0.1c-1.3-0.3-2.4-0.8-3.3-1.3
			L83.1,109.1z M110.9,53.2c-0.4-0.6-0.8-1.2-1.2-1.7c0.3,0.3,0.5,0.6,0.8,0.9c0.6,0.8,1.1,1.7,1.4,2.7
			C111.6,54.5,111.3,53.8,110.9,53.2z M111.1,62.8c0,0.1-0.1,0.2-0.1,0.3c0.2-1.3,0.6-2.5,1.1-3.6C111.9,60.6,111.6,61.7,111.1,62.8
			z M102.9,47.8c-0.3,0-0.5,0-0.8,0c0,0-0.1,0-0.1,0c-0.1,0-0.2,0-0.2,0l0,0c-0.4,0-0.8,0.1-1.1,0.2c0.5-0.3,0.9-0.5,1.4-0.7
			C102.3,47.4,102.6,47.6,102.9,47.8z M88.8,53.8l-5.9,3.6l-2.1-1.7c-0.1-0.2-0.3-0.3-0.4-0.5c-1.2-1.5-1.9-2.2-2.1-2.2
			c-0.7,0-1.4,0.1-2.1,0.4c-0.7-0.7-1.5-1.4-2.3-2c1-1.2,2.1-2,3.3-2.2c0,0,0,0,0,0c0.3-0.1,0.7-0.1,1,0c1.1,0.1,2.1,0.7,3.1,1.7
			l2,2.6l5.2-3.7c1.4-1.4,3-2.4,4.7-3.2c1.8-0.8,3.7-1.2,5.6-1.2c0.3,0.2,0.9,0.5,1.6,1C97.9,48.1,94,50.5,88.8,53.8z M95.4,57.7
			c0.3,3,1.5,5.3,3.7,6.8c0.1,0.5,0.1,1.5,0.2,3c0.1,1.2,0.2,2.2,0.3,3c-3.1-1.1-6.3-2.6-9.5-4.5c0.2-0.8,0.3-1.7,0.4-2.6v0
			c0-0.1,0-0.1,0-0.1c0-0.8,0.4-2.2,1.2-4c1-2.3,2.2-4.4,3.7-6.3c0.3-0.4,0.6-0.7,0.9-1.1C95.4,53.6,95.1,55.6,95.4,57.7z
			 M73.3,54.5c-0.2,0.1-0.7,0.1-1.5,0c-0.2-0.2-0.4-0.5-0.5-0.8c-0.2-0.4-0.2-0.9-0.2-1.4c0,0,0,0,0,0
			C72.5,53.6,73.3,54.4,73.3,54.5z M72.4,49.4c0.7-1.1,1.5-2,2.3-2.9c0.1-0.1,0.2-0.2,0.2-0.2c0,0,0.1,0,0.1,0c0.3,0,0.7,0.1,1,0.1
			c0,0,0,0,0,0c-0.1,0.2-0.2,0.4-0.2,0.7c-0.2,0.6-0.6,1.3-1,2.1c-0.5,1-0.8,1.7-1.1,2.2c-0.6-0.5-1.2-0.9-1.9-1.2
			C72.1,49.9,72.2,49.6,72.4,49.4z"/>
		<path class="st10" d="M95.2,52.8c-1.5,1.9-2.7,4-3.7,6.3c-0.8,1.9-1.2,3.2-1.2,4c0,0,0,0.1,0,0.1v0c-0.1,0.9-0.3,1.8-0.4,2.6
			c-0.9-0.5-1.8-1.1-2.8-1.7c-0.9-0.6-1.9-1.4-2.9-2.5c-0.3-0.3-1.1-1.2-2.6-2.8c-1.4-1.1-3.1-2.8-5.2-5c-0.2-0.2-0.3-0.3-0.5-0.5
			c0.7-0.3,1.4-0.4,2.1-0.4c0.1,0,0.8,0.7,2.1,2.2c0.2,0.2,0.3,0.3,0.4,0.5l2.1,1.7l5.9-3.6c5.2-3.2,9.1-5.7,11.8-7.4
			c0.4,0.2,0.9,0.5,1.5,0.9c-0.5,0.2-0.9,0.5-1.4,0.7c-1.3,0.3-2.5,1-3.6,2c-0.3,0.6-0.6,1.1-0.8,1.7C95.8,52,95.5,52.4,95.2,52.8z
			 M74.1,46.2c0.2,0,0.5,0,0.8,0c-0.1,0.1-0.2,0.2-0.2,0.2c-0.8,0.8-1.6,1.8-2.3,2.9c-0.2,0.2-0.3,0.5-0.4,0.7
			c-0.1-0.1-0.3-0.2-0.4-0.2c0.8-1.4,1.6-2.5,2.5-3.5C74,46.3,74.1,46.3,74.1,46.2z M68.8,93.2c-0.8-3.2-1.4-5.5-1.7-7.1
			c-0.2-0.8-0.3-1.6-0.4-2.3c-0.1-0.5-0.2-1.1-0.2-1.6c0.1,0,0.3-0.1,0.4-0.1c0.3-0.1,0.6-0.2,0.9-0.3c0.9-0.3,1.4-0.4,1.4-0.4
			c2.3,0,4.5,0.3,6.5,0.8c5.7,1.6,10.4,5.3,14.1,11.2c1,1.7,2,3.4,2.7,5.3c0.5,1.2,1,2.4,1.4,3.7c0.1,0.1,0.1,0.3,0.2,0.4
			c-0.3,0.4-0.7,0.8-1.1,1.2c-2.4,2.6-5.7,4.3-10,5L72.9,109c-0.2-0.1-0.4-0.3-0.6-0.4c-1.1-0.8-2-1.8-2.6-2.9
			C70.3,102.2,70,98.1,68.8,93.2z M70.9,52c0.1,0.1,0.1,0.1,0.2,0.2c0,0,0,0,0,0c0,0.5,0.1,1,0.2,1.4c0.1,0.3,0.3,0.6,0.5,0.8
			c-0.3,0-0.5-0.1-0.9-0.1c-0.5-0.1-1-0.2-1.4-0.2c0.1-0.2,0.2-0.4,0.2-0.6c0.2-0.6,0.5-1.2,0.8-1.8C70.6,51.8,70.8,51.9,70.9,52z
			 M69.6,65.5c1.3,0.2,3.4,0.4,6.1,0.7l1.1,0c0.8-0.1,1.6,0.1,2.3,0.6c0.6,0.3,1.3,0.8,2,1.4c0.8,0.6,1.8,1.5,2.9,2.5
			c0.9,0.9,1.9,1.8,3.1,2.8c-0.6,0.7-1.2,1.3-1.9,1.8c-1.4,0.9-3,1.2-4.9,0.9c-0.1,0-0.2,0-0.3,0c-1.5,0-3-0.6-4.7-1.9
			c-0.3-0.2-0.6-0.4-0.9-0.6c-0.7-0.4-1.3-0.7-2-0.9c-0.7-0.2-1.4-0.3-2.1-0.3c-0.9,0.3-1.7,0.5-2.7,0.7c-1.9,0.5-3.2,0.7-3.9,0.7
			c-0.2,0-0.5-0.1-0.8-0.2c-0.3-0.1-0.7-0.3-1.2-0.6c-0.4-1.5-0.2-3.1,0.5-4.8c0.5-1.2,1.3-2.6,2.4-4.1
			C65.9,64.8,67.5,65.3,69.6,65.5z"/>
		<path class="st11" d="M58.5,149.6c-0.3-1.4-0.6-2.9-1-4.4c4.2,0.3,8.9,0.8,14.2,1.5c2.6,0.3,7.3,1,14.2,2
			c3.3,1.2,6.7,1.3,10.1,0.3c3.2-0.9,6.1-2.6,8.7-5.1c0.5-0.5,0.9-0.9,1.4-1.4l22.2,3.9l-44,7.7L58.5,149.6z M41,146.5l-0.5-0.1
			l0.5-0.1C41,146.4,41,146.5,41,146.5z"/>
		<path class="st12" d="M128.3,146.5l-44,7.7v73.5l42.4-7.5h1.7v-1.1v-72.5v-0.1v-0.1C128.4,146.3,128.3,146.4,128.3,146.5z"/>
		<polygon class="st13" points="128.4,146.5 128.4,146.5 128.6,146.5 		"/>
		<path class="st14" d="M71.4,109c-0.3,0.2-0.7,0.5-1.1,0.8c-0.4,0.3-0.7,0.7-1,1.2c-0.5,0.9-0.9,2.1-1.2,3.7
			c-0.4,2.5-0.6,4-0.4,4.7c-11.8,1.1-21,3-27.5,5.9c-6.5,2.9-10.8,5.6-12.9,8c-2.1,2.4-3,5.2-2.7,8.4c0.3,3.2,1.1,11.6,2.4,25.4
			c1.3,13.8,2.1,23.8,2.4,30.1c-2.3,0-3.5,0-3.8,0c-0.9-6-1.7-12-2.3-18.1c-0.7-6.8-1.2-13-1.6-18.5c-0.2-2.1-0.4-4.7-0.5-7.6
			c-0.2-3-0.5-6.3-0.9-9.9c-0.4-3.7,0.4-7.2,2.4-10.5c2.3-2.9,5.8-5.4,10.6-7.5c2.7-1.2,6.6-2.7,11.8-4.5c2.1-0.8,3.9-1.3,5.4-1.6
			c1.5-0.3,3.2-0.5,5.1-0.8c4.1-0.7,7.1-0.9,8.9-0.5c0.3-0.8,0.7-1.9,1-3.3c0.3-1.7,0.6-2.9,0.8-3.7c0.7-2.9,1.7-4.8,3-5.5
			c0.1,0.2,0.2,0.4,0.3,0.6c0.7,1.2,1.5,2.1,2.6,2.9C72.1,108.6,71.8,108.7,71.4,109z M28.1,220.4c-2.8,4.6-5.6,7-8.4,7
			c-1.3,0-2.1-0.5-2.4-1.4c0-0.3,0-0.5-0.1-0.7c0.3-0.4,0.6-0.8,0.9-1.2c0.6-0.7,1.7-1.7,3.1-3.1c0.2-0.2,0.5-0.4,0.7-0.6
			c1-1,1.8-1.7,2.2-2.2c0,0.1,0,0.1,0,0.1c-0.1,0.4-0.2,1-0.4,1.9c0,0.1-0.1,0.2-0.1,0.3c-0.1,0.8,0.4,1.1,1.4,0.8
			c0.2,0,0.5-0.1,0.7-0.1c0,0,0,0,0.1,0c0.8-0.1,1.5-0.4,2.2-0.7C27.9,220.5,28,220.4,28.1,220.4z M109.5,116.4
			c1.4,3.4,2.1,6.3,2.2,8.8c0.2,1.1,0.2,2.4,0.2,4.1c-0.4,0.7-1.9,1.7-4.7,3.2c-2.8,1.4-6.5,2.4-11.1,2.9c-4.6,0.5-8.8,0.4-12.7-0.4
			c-3.9-0.8-7.1-1.6-9.6-2.4c-2.5-0.8-5.2-1.2-8.3-1.2c-6.9,0-12,2.4-15.4,7.1c-1.3,1.7-2.3,4-3,6.7c-0.2,0.7-0.4,1.5-0.6,2.3
			c0,0.1,0,0.2,0,0.2v18.1c-0.2,2.1-1.2,8.5-3,19.3c-0.8,4.7-1.4,8.4-1.9,11.2c-0.5,0-1-0.1-1.4-0.1c-0.7,0-1.2-0.1-1.5-0.1
			c0.7-6.4,1.2-11.9,1.6-16.5c0.3-3.6,0.6-6.7,0.8-9.2c0.7-9.2,0.7-17.2-0.1-23.9c0-0.1,0-0.1,0-0.2c-0.1-0.6-0.1-1.1-0.2-1.7
			c-1-6.5,0.5-11.3,4.4-14.3c3.9-3.1,8.8-5.2,14.8-6.4c4.4-0.8,8.6-1,12.6-0.9c14.1,1,23.3-0.8,27.7-5.3c4.3-4.5,6.6-7,6.8-7.3
			C107.6,112.2,108.5,114.1,109.5,116.4z M30,222.8c0.5-1,1.1-2.2,1.9-3.6c0.1-0.1,0.1-0.2,0.2-0.3c0,0,0-0.1,0.1-0.1
			c0,0,0-0.1,0-0.1c0.1-0.2,0.3-0.5,0.4-0.7c0.1,0.4,0.2,0.7,0.3,1c0,0.1,0.1,0.2,0.2,0.3l3,1.7c0,0,0.1,0,0.1,0c0,0,0,0,0.1,0
			c0.1,0,0.1,0,0.2,0c0,0,0.1,0,0.1,0c0,0,0.1,0,0.2,0c0,0,0.1,0,0.1,0c0,0,0.1,0,0.1,0c0,0,0,0,0,0c0,0,0.1,0,0.1,0
			c0.1,0,0.1,0,0.1,0c0.1,0,0.2,0,0.3,0c0,0,0,0,0.1,0c0.1,0,0.1,0,0.2,0c0.1,0,0.2,0,0.4,0c1.5-0.1,2.8-0.4,4-0.8
			c1.1-0.4,2-0.9,2.9-1.5c-0.2,0.6-0.5,1.3-0.8,1.9c-0.4,0.7-0.8,1.3-1.2,1.9c-2.4,3.3-5.6,4.9-9.5,4.9c-1.7,0-2.8-0.5-3.3-1.5
			c-0.2-0.3-0.2-1-0.2-2c0-0.3,0-0.6,0.1-0.9C29.9,222.9,29.9,222.9,30,222.8z"/>
		<path class="st15" d="M43.5,185.1c1.8-10.7,2.9-17.2,3-19.3v-18.1c0-0.1,0-0.2,0-0.2c0.2-0.8,0.4-1.5,0.6-2.3
			c0.8-2.7,1.8-4.9,3-6.7c3.4-4.7,8.5-7.1,15.4-7.1c3,0,5.8,0.4,8.3,1.2c2.5,0.8,5.7,1.6,9.6,2.4c3.9,0.8,8.1,0.9,12.7,0.4
			c4.6-0.5,8.3-1.5,11.1-2.9c2.8-1.4,4.4-2.5,4.7-3.2c-0.2,2-0.6,3.9-1.4,5.9l-0.2,0.4c-1,2.5-2.5,4.7-4.2,6.7
			c-0.4,0.5-0.9,1-1.4,1.4c-2.6,2.5-5.6,4.2-8.7,5.1c-3.4,1-6.8,0.9-10.1-0.3c-6.9-1-11.6-1.7-14.2-2c-5.3-0.7-10.1-1.2-14.2-1.5
			c0.4,1.5,0.7,3,1,4.4c1.7,9.3,1,17-2.1,23.2c-1.2,2.9-2.6,6.9-4.3,12c-2,6.1-3.3,10-3.9,11.8c-0.5,0.1-1,0.1-1.6,0.1
			c-0.9,0-2-0.1-3.2-0.2c-0.1,0-0.1,0-0.1,0l-1.3-0.1c-0.1,0-0.1,0-0.2,0c-0.1,0-0.1,0-0.2,0v0C42,193.6,42.7,189.8,43.5,185.1z
			 M27.2,167.1c-1.3-13.8-2.1-22.2-2.4-25.4c-0.3-3.2,0.6-5.9,2.7-8.4c2.1-2.4,6.3-5.1,12.9-8c6.5-2.9,15.7-4.9,27.5-5.9
			c-0.2-0.7,0-2.2,0.4-4.7c0.3-1.6,0.7-2.8,1.2-3.7c0.3-0.5,0.6-0.9,1-1.2c0.4-0.3,0.8-0.6,1.1-0.8c0.4-0.3,0.7-0.4,0.8-0.4
			c0.2,0.1,0.4,0.3,0.6,0.4c1,0.6,2.1,1,3.3,1.3c2.5,0.6,5.5,0.6,9,0.1c7-1.2,12.9-3.3,17.6-6.3c0.1-0.1,0.3-0.2,0.4-0.3
			c2.1,3.5,3.4,5.7,3.8,6.7c-0.2,0.3-2.5,2.7-6.8,7.3c-4.3,4.5-13.6,6.3-27.7,5.3c-4-0.2-8.2,0.1-12.6,0.9c-6,1.2-10.9,3.3-14.8,6.4
			c-3.9,3.1-5.4,7.9-4.4,14.3c-1.2-0.1-2-0.1-2.6-0.1c1.2,3.2,2,6.7,2.3,10.6c0.2,2.8,0.2,5.8,0,9c-0.2,2.2-0.4,4.4-0.8,6.8
			c-0.2,1.4-1.1,5.8-2.6,13.3c-1.1,5.4-1.8,9.8-2,13.2c-0.2-0.1-0.5-0.1-0.7-0.1c-1.1-0.2-2.3-0.3-3.8-0.2c-0.3,0-0.5,0-0.8,0
			C29.3,190.9,28.5,180.9,27.2,167.1z M22.3,230.7c-2.7,0.3-4.7,0.5-6,0.7c-0.9-1.9-0.6-3.9,0.9-6c0,0.2,0,0.4,0.1,0.7
			c0.3,0.9,1.1,1.4,2.4,1.4c2.9,0,5.7-2.3,8.4-7c-0.1,0.1-0.2,0.1-0.3,0.2c0.4-0.2,0.9-0.5,1.3-0.8c1.3-1,2.4-2.5,3.3-4.5
			c0.9-2.2,1.5-3.9,2-5c0.8-2,1.6-3.5,2.5-4.6c-0.4,4.5-1.5,8.3-3.6,11.4c-0.2,0.3-0.4,0.6-0.7,0.9c-0.1,0.2-0.3,0.5-0.4,0.7
			c0,0,0,0.1,0,0.1c0,0,0,0.1-0.1,0.1c-0.1,0.1-0.1,0.2-0.2,0.3c-0.8,1.4-1.4,2.6-1.9,3.6c-0.1,0.1-0.1,0.1-0.1,0.2
			c-0.1,0.1-0.1,0.2-0.2,0.3c-0.9,2-1.4,3.9-1.6,5.7C26.6,229.8,24.7,230.3,22.3,230.7z"/>
		<path class="st15" d="M29.9,223c-0.1,0.1-0.1,0.2-0.2,0.3c-0.9,2-1.4,3.9-1.6,5.7c0.1,0.3,0.2,0.7,0.4,1.4c0.2,0.6,0.5,0.8,1,0.8
			c3.3,0.2,6.1,0,8.4-0.5c3.1-0.6,5.5-1.8,7.4-3.6c0.3-0.9,0.9-2.9,1.6-6c0.3-1.1,0.5-2.3,0.9-3.6c0.9-4,2-7.2,3.3-9.4
			c0.5-1.7,0.6-3.5,0.1-5.3c-0.5-2-1.5-3.4-3-4c1.5,2.7,1.6,6,0.3,9.9c-0.3,1-0.9,2.6-1.8,5c-0.8,2.1-1.4,3.7-1.7,4.9
			c-0.1,0.1-0.1,0.1-0.2,0.2c-0.2,0.6-0.5,1.3-0.8,1.9c-0.4,0.7-0.8,1.3-1.2,1.9c-2.4,3.3-5.6,4.9-9.5,4.9c-1.7,0-2.8-0.5-3.3-1.5
			c-0.2-0.3-0.2-1-0.2-2C29.8,223.6,29.8,223.3,29.9,223z"/>
		<path class="st16" d="M24.7,74.3L24,71.1l-2.4-10.3l-1.3-5.5c-0.3-1.5-0.9-2.2-1.7-2.1l-5.4,0.8c-0.8,0.1-1.1,0.9-0.7,2.5l1.2,5
			c0.6,0.2,1.5,0.8,2.4,1.7c0.3,1.3,0.6,2.5,0.9,3.6c0.5,1.9,0.8,3.5,1,4.6c0.3,1.6,0.4,2.4,0.2,2.6c-0.3,0.4-0.7,0.6-1,0.7
			c-0.1,0-0.3,0-0.3,0c0,0-0.1,0-0.1,0l0.2,1.1c0.4,1.5,0.9,2.2,1.8,2.1l1-0.2l4.4-0.7c0.8-0.1,1-0.9,0.7-2.5L24.7,74.3z"/>
		<g>
			<path d="M89,35.3h1.8c0.1,0,0.2-0.1,0.2-0.2c0-0.1-0.1-0.2-0.2-0.2H89c-0.1,0-0.2,0.1-0.2,0.2C88.8,35.2,88.9,35.3,89,35.3z"/>
		</g>
	</g>
	<g>
		<path class="st17" d="M26.2,33.4c0-0.2,0-0.4,0.1-0.5c0.1-0.1,0.3-0.2,0.4-0.2h5.9c0.2,0,0.3,0.1,0.4,0.2c0.1,0.1,0.2,0.3,0.2,0.4
			v0.1l-1.6,13.4c0,0.3-0.1,0.5-0.2,0.6c-0.1,0.1-0.3,0.2-0.6,0.2h-2.2c-0.4,0-0.6-0.1-0.8-0.2c-0.1-0.1-0.2-0.4-0.3-0.7L26.2,33.4z
			 M26.5,50.4c0-0.4,0.2-0.6,0.6-0.6h5.4c0.2,0,0.3,0.1,0.4,0.2c0.1,0.1,0.2,0.3,0.2,0.5v4.7c0,0.3-0.1,0.5-0.2,0.6
			c-0.1,0.1-0.3,0.2-0.7,0.2h-4.7c-0.4,0-0.6-0.1-0.8-0.2c-0.2-0.1-0.2-0.4-0.2-0.7V50.4z"/>
	</g>
</g>
</svg>
