<?xml version="1.0" encoding="utf-8"?>
<!-- Generator: Adobe Illustrator 26.0.1, SVG Export Plug-In . SVG Version: 6.00 Build 0)  -->
<svg version="1.1" id="Layer_1" xmlns="http://www.w3.org/2000/svg" xmlns:xlink="http://www.w3.org/1999/xlink" x="0px" y="0px"
	 viewBox="0 0 124.6 238.9" style="enable-background:new 0 0 124.6 238.9;" xml:space="preserve">
<style type="text/css">
	.st0{fill-rule:evenodd;clip-rule:evenodd;fill:#6CA4DF;}
	.st1{fill-rule:evenodd;clip-rule:evenodd;fill:#FFFFFF;}
	.st2{fill-rule:evenodd;clip-rule:evenodd;fill:#FF65A7;}
	.st3{fill-rule:evenodd;clip-rule:evenodd;fill:#ECFAFF;}
	.st4{fill-rule:evenodd;clip-rule:evenodd;fill:#C3D9E1;}
	.st5{fill-rule:evenodd;clip-rule:evenodd;fill:#029FA3;}
	.st6{fill-rule:evenodd;clip-rule:evenodd;fill:#00F9C7;}
	.st7{fill-rule:evenodd;clip-rule:evenodd;fill:#D8D8D8;}
	.st8{fill-rule:evenodd;clip-rule:evenodd;fill:#C2C1C1;}
	.st9{fill-rule:evenodd;clip-rule:evenodd;fill:#A2A2A2;}
	.st10{fill-rule:evenodd;clip-rule:evenodd;fill:#FFE270;}
	.st11{fill-rule:evenodd;clip-rule:evenodd;fill:url(#SVGID_1_);}
	.st12{fill-rule:evenodd;clip-rule:evenodd;fill:url(#SVGID_00000062874322002535974070000013922893842658318213_);}
	.st13{fill-rule:evenodd;clip-rule:evenodd;fill:#B08C00;}
	.st14{fill-rule:evenodd;clip-rule:evenodd;fill:#D1A000;}
	.st15{fill-rule:evenodd;clip-rule:evenodd;fill:#8F7200;}
	.st16{fill-rule:evenodd;clip-rule:evenodd;fill:#CE7C56;}
	.st17{fill-rule:evenodd;clip-rule:evenodd;fill:#183792;}
	.st18{fill-rule:evenodd;clip-rule:evenodd;fill:#97CAFF;}
	.st19{opacity:0.1;fill-rule:evenodd;clip-rule:evenodd;}
	.st20{fill-rule:evenodd;clip-rule:evenodd;fill:#FFAA83;}
	.st21{fill-rule:evenodd;clip-rule:evenodd;fill:#008484;}
	.st22{fill-rule:evenodd;clip-rule:evenodd;fill:#727272;}
	.st23{fill-rule:evenodd;clip-rule:evenodd;fill:#003675;}
	.st24{fill-rule:evenodd;clip-rule:evenodd;fill:#AAAAAA;}
	.st25{fill-rule:evenodd;clip-rule:evenodd;fill:#0059C2;}
	.st26{fill-rule:evenodd;clip-rule:evenodd;fill:#FF589C;}
	.st27{fill-rule:evenodd;clip-rule:evenodd;fill:#00C9D9;}
	.st28{fill-rule:evenodd;clip-rule:evenodd;fill:#00A9AD;}
	.st29{fill-rule:evenodd;clip-rule:evenodd;fill:#ED9870;}
	.st30{fill-rule:evenodd;clip-rule:evenodd;fill:#C2EDF6;}
</style>
<g>
	<path class="st0" d="M30.8,72.3v-0.1H31L30.8,72.3z"/>
	<path class="st1" d="M71.9,32.4L69,38.9c-0.1,0.3-0.3,0.5-0.6,0.8C68.2,39.8,68,40,67.7,40c-0.2,0-0.4,0-0.6-0.1L64,37.4
		c-0.2-0.2-0.2-0.4-0.2-0.7c0-0.3,0.2-0.6,0.5-1c0.2-0.3,0.5-0.5,0.8-0.6c0.3-0.1,0.6-0.1,0.7,0.1l2.1,1.7l2-4.6
		c0.2-0.3,0.4-0.6,0.7-0.9c0.3-0.2,0.6-0.3,0.8-0.3c0.3,0,0.5,0.1,0.5,0.4C72.1,31.8,72.1,32.1,71.9,32.4z"/>
	<polygon class="st2" points="27.5,63.5 9,74.1 9,69.7 27.5,59.1 	"/>
	<polygon class="st3" points="78.6,40.1 53.1,54.7 53.1,17.9 66.5,10.2 72.2,6.8 73.3,6.2 75.9,4.8 79,3 79,12.5 79,20.4 79,23.7 
		79,34.1 79,35.7 79,39.8 	"/>
	<polygon class="st3" points="75.3,18.4 75.3,14 56.8,24.6 56.8,29 	"/>
	<path class="st3" d="M62,43.7c0.1,0,0.1,0.1,0.2,0.1c1.2,0.6,2.6,0.6,4.1,0.1c0.5-0.2,1-0.4,1.6-0.6c2.2-1.1,4.1-2.7,5.7-5
		c0.2-0.2,0.3-0.5,0.5-0.7c1.3-2,1.9-4,2-5.9c0-2.2-0.8-3.7-2.4-4.4c-0.5-0.3-1.1-0.4-1.7-0.5c-0.1,0-0.2-0.1-0.2-0.1
		c-1.6-0.8-3.5-0.6-5.7,0.4c-1.6,0.8-3.1,1.9-4.3,3.4c-0.5,0.5-0.9,1.1-1.4,1.7c-1.6,2.3-2.4,4.6-2.4,6.7c0,0.1,0,0.1,0,0.2
		c0,2,0.8,3.4,2.4,4.1C60.8,43.5,61.4,43.7,62,43.7z"/>
	<path class="st3" d="M5.3,76V45.3l8-4.6v5c0.2,0.2,0.4,0.3,0.6,0.4c0.4,0.2,0.8,0.3,1.3,0.4h0.2c0.6,0,1.1-0.1,1.5-0.4l7.6-4.3
		c0.4-0.2,0.6-0.5,0.6-0.9v-7l2.3-1.3l3.8-2.2v11.7V45v22.3l-0.9,0.5l-25,14.4v-4.5V76z"/>
	<polygon class="st3" points="27.5,47.6 27.5,43.1 9,53.7 9,58.2 	"/>
	<polygon class="st3" points="27.5,55 27.5,50.5 9,61.1 9,65.6 	"/>
	<polygon class="st4" points="75.3,18.4 56.8,29 56.8,24.6 75.3,14 	"/>
	<polygon class="st4" points="27.5,47.6 9,58.2 9,53.7 27.5,43.1 	"/>
	<polygon class="st4" points="27.5,55 9,65.6 9,61.1 27.5,50.5 	"/>
	<path class="st5" d="M71.9,26.7c-1.2-0.1-2.5,0.2-3.9,0.9c-1.7,0.9-3.3,2.1-4.7,3.7c-0.4,0.4-0.7,0.9-1.1,1.4
		c-1.6,2.3-2.4,4.5-2.4,6.7c0,0.3,0,0.5,0,0.8c0.1,1.6,0.8,2.8,2.1,3.4c-0.6-0.1-1.2-0.2-1.7-0.5c-1.6-0.7-2.3-2.1-2.4-4.1
		c0-0.1,0-0.1,0-0.2c0-2.2,0.8-4.4,2.4-6.7c0.4-0.6,0.9-1.2,1.4-1.7c1.3-1.4,2.7-2.5,4.3-3.4c2.2-1.1,4.1-1.2,5.7-0.4
		C71.8,26.7,71.8,26.7,71.9,26.7z"/>
	<path class="st6" d="M62,43.7c-1.2-0.7-1.9-1.8-2.1-3.4c0-0.2,0-0.5,0-0.8c0-2.2,0.8-4.4,2.4-6.7c0.3-0.5,0.7-1,1.1-1.4
		c1.4-1.6,2.9-2.8,4.7-3.7c1.4-0.7,2.8-1,3.9-0.9c0.6,0.1,1.2,0.2,1.7,0.5c1.6,0.8,2.4,2.2,2.4,4.4c0,1.9-0.7,3.9-2,5.9
		c-0.1,0.2-0.3,0.5-0.5,0.7c-1.6,2.3-3.5,4-5.7,5c-0.5,0.3-1.1,0.5-1.6,0.6c-1.6,0.5-2.9,0.4-4.1-0.1C62.1,43.8,62.1,43.8,62,43.7z
		 M71.9,32.4c0.2-0.3,0.2-0.6,0.1-0.9c-0.1-0.3-0.2-0.4-0.5-0.4c-0.3,0-0.6,0.1-0.8,0.3c-0.3,0.2-0.5,0.5-0.7,0.9l-2,4.6l-2.1-1.7
		C65.6,35,65.4,35,65,35.1c-0.3,0.1-0.6,0.3-0.8,0.6c-0.3,0.3-0.4,0.6-0.5,1c0,0.3,0,0.6,0.2,0.7l3.1,2.5c0.2,0.1,0.4,0.1,0.6,0.1
		c0.3-0.1,0.5-0.2,0.7-0.4c0.2-0.2,0.4-0.5,0.6-0.8L71.9,32.4z"/>
	<path class="st7" d="M21.9,24.9C21.9,25,21.9,25,21.9,24.9c0,0.4-0.1,0.6-0.2,0.7c-0.1,0.1-0.3,0.2-0.6,0.2c-0.4,0.1-0.8,0.2-1,0.2
		c-0.5,0.2-0.9,0.4-1.3,0.7c-0.1,0.1-0.5,0.5-1.1,1.3c-0.6,0.7-1.1,1.1-1.5,1.1c-0.3,0-0.5-0.1-0.7-0.3c0,0,0,0,0-0.1l0.1-0.2
		c0,0,0,0,0,0c0.1-0.3,0.3-0.5,0.5-0.7l0.1-0.1c0.2-0.1,0.3-0.3,0.3-0.5c0.6-0.8,1.4-1.5,2.2-1.9c0,0,0.1,0,0.1-0.1c0,0,0,0,0,0
		c0,0,0,0,0,0c0,0,0,0,0,0h0c0,0,0,0,0.1,0c0,0,0,0,0,0c0.7-0.3,1.3-0.5,1.8-0.5h0L21.9,24.9C21.9,24.9,21.9,24.9,21.9,24.9z"/>
	<path class="st8" d="M14.4,35.5v-2.6c0-1.3,0.4-2.6,1.1-3.9c0.2,0.2,0.4,0.3,0.7,0.3c0.4,0,0.9-0.4,1.5-1.1
		c0.6-0.8,0.9-1.2,1.1-1.3c0.4-0.3,0.8-0.6,1.3-0.7c0.2-0.1,0.6-0.2,1-0.2c0.3-0.1,0.5-0.1,0.6-0.2c0.2-0.1,0.2-0.3,0.2-0.6
		c0,0,0-0.1,0-0.1c0.2,0.1,0.3,0.2,0.5,0.2v0c1,0.5,1.6,1.6,1.6,3.3v1.9c-0.4-0.3-0.7-0.9-0.8-2c-0.1-0.2-0.1-0.5-0.2-0.7
		c-0.5-1.2-1.4-1.5-2.8-0.9c-0.2,0.1-0.3,0.1-0.5,0.2c-1,0.6-1.8,1.4-2.4,2.6c-0.7,1.2-1,2.3-1,3.4v1.7v1.7c0,0,0,0,0,0.1
		c0,0.2-0.1,0.4-0.2,0.5c-0.2,0.2-0.4,0.2-0.6,0.2c-0.2,0-0.4-0.1-0.6-0.2c-0.1-0.1-0.2-0.3-0.2-0.5c0,0,0,0,0-0.1V35.5z"/>
	<path class="st9" d="M20.1,26.7c1.4-0.6,2.3-0.3,2.8,0.9c0.1,0.2,0.2,0.5,0.2,0.7c0.1,1,0.4,1.7,0.8,2v1.1v0.8c0,0,0,0.1,0,0.1
		c0,0.2-0.1,0.4-0.2,0.5c-0.2,0.2-0.4,0.2-0.6,0.2c-0.2,0-0.4-0.1-0.6-0.2c-0.1-0.2-0.2-0.3-0.2-0.5c0,0,0,0,0-0.1v-0.9v-2.8
		c0-0.6-0.1-1-0.3-1.4c-0.1-0.2-0.2-0.3-0.4-0.4C21.1,26.5,20.6,26.5,20.1,26.7z"/>
	<path class="st10" d="M13.3,37c0-0.1-0.1-0.2-0.1-0.3c0,0,0,0,0-0.1c0-0.3,0.2-0.6,0.6-0.8l0.6-0.4v0.7c0,0,0,0,0,0.1
		c-0.1,0.1-0.2,0.2-0.2,0.3c0,0.2,0.1,0.3,0.3,0.4c0.2,0.1,0.4,0.2,0.7,0.2c0.3,0,0.5-0.1,0.7-0.2c0.2-0.1,0.3-0.2,0.3-0.4
		c0-0.1-0.1-0.2-0.2-0.3c0,0,0,0,0-0.1v-1.7l5.2-3c0.2-0.2,0.5-0.3,0.9-0.3v0.9c0,0,0,0,0,0.1c-0.1,0.1-0.2,0.2-0.2,0.3
		c0,0.2,0.1,0.3,0.3,0.4c0.2,0.1,0.4,0.2,0.7,0.2c0.3,0,0.5-0.1,0.7-0.2c0.2-0.1,0.3-0.3,0.3-0.4c0-0.1-0.1-0.2-0.2-0.3
		c0,0,0-0.1,0-0.1v-0.8c0.2,0,0.3,0.1,0.4,0.2c0.3,0.2,0.5,0.4,0.6,0.6c0,0.1,0.1,0.2,0.1,0.3c0,0.3-0.2,0.6-0.6,0.9l-7.5,4.4
		c-0.4,0.2-0.9,0.3-1.5,0.3c-0.6,0-1.1-0.1-1.5-0.3C13.5,37.4,13.3,37.2,13.3,37z"/>
	<linearGradient id="SVGID_1_" gradientUnits="userSpaceOnUse" x1="13.2373" y1="39.2674" x2="24.9992" y2="39.2674">
		<stop  offset="3.529410e-02" style="stop-color:#BE9800"/>
		<stop  offset="0.298" style="stop-color:#FFCC00"/>
		<stop  offset="0.898" style="stop-color:#FFCC00"/>
		<stop  offset="1" style="stop-color:#E0B300"/>
	</linearGradient>
	<path class="st11" d="M25,33.9v7c0,0.3-0.2,0.6-0.6,0.9l-7.6,4.3c-0.4,0.2-0.9,0.4-1.5,0.4h-0.2c-0.5,0-0.9-0.1-1.3-0.4
		c-0.2-0.1-0.4-0.3-0.6-0.4v-5V37c0.1,0.2,0.3,0.4,0.6,0.6c0.4,0.2,0.9,0.4,1.5,0.3c0.6,0,1.1-0.1,1.5-0.3l7.5-4.4
		c0.4-0.2,0.6-0.5,0.6-0.9c0-0.1,0-0.2-0.1-0.3l0.1-0.1V33.9z"/>
	
		<linearGradient id="SVGID_00000030448558630154243410000004432597643864307892_" gradientUnits="userSpaceOnUse" x1="19.6135" y1="39.9431" x2="22.0737" y2="39.9431">
		<stop  offset="3.529410e-02" style="stop-color:#BE9800"/>
		<stop  offset="0.298" style="stop-color:#FFCC00"/>
		<stop  offset="0.898" style="stop-color:#FFCC00"/>
		<stop  offset="1" style="stop-color:#E0B300"/>
	</linearGradient>
	<path style="fill-rule:evenodd;clip-rule:evenodd;fill:url(#SVGID_00000030448558630154243410000004432597643864307892_);" d="
		M20.3,42.2l0.3,0.1l1.1-0.7v-2.1c0,0,0-0.1,0.1-0.1c0.2-0.4,0.3-0.7,0.3-1.1c0-0.3-0.1-0.6-0.3-0.7c-0.1-0.1-0.2-0.1-0.3-0.1
		c0,0,0,0-0.1,0c-0.2-0.1-0.5-0.1-0.8,0.1c-0.3,0.2-0.5,0.4-0.7,0.8c-0.2,0.4-0.3,0.7-0.3,1.1c0,0.3,0.1,0.6,0.3,0.7
		c0.1,0,0.2,0.1,0.3,0.1h0L20.3,42.2L20.3,42.2z"/>
	<path class="st13" d="M23.9,32.2c0.1,0.1,0.2,0.2,0.2,0.3c0,0.2-0.1,0.3-0.3,0.4c-0.2,0.1-0.4,0.2-0.7,0.2c-0.3,0-0.5,0-0.7-0.2
		c-0.2-0.1-0.3-0.3-0.3-0.4c0-0.1,0.1-0.2,0.2-0.3c0,0.2,0.1,0.4,0.2,0.5c0.2,0.2,0.4,0.2,0.6,0.2c0.2,0,0.4-0.1,0.6-0.2
		C23.8,32.6,23.9,32.4,23.9,32.2z"/>
	<path class="st13" d="M14.4,36.3c0,0.2,0.1,0.4,0.2,0.5c0.2,0.2,0.4,0.2,0.6,0.2c0.2,0,0.4-0.1,0.6-0.2c0.2-0.1,0.2-0.3,0.2-0.5
		c0.1,0.1,0.2,0.2,0.2,0.3c0,0.2-0.1,0.3-0.3,0.4c-0.2,0.1-0.4,0.2-0.7,0.2c-0.3,0-0.5-0.1-0.7-0.2c-0.2-0.1-0.3-0.2-0.3-0.4
		C14.3,36.5,14.3,36.4,14.4,36.3z"/>
	<path class="st14" d="M21.5,37.7c0.1,0,0.2,0,0.3,0.1c0.2,0.1,0.3,0.3,0.3,0.7c0,0.3-0.1,0.7-0.3,1.1c0,0,0,0.1-0.1,0.1v2.1
		l-1.1,0.7l-0.3-0.1l1.1-0.6v-2.1c0,0,0-0.1,0.1-0.1c0.2-0.4,0.3-0.7,0.3-1C21.7,38,21.7,37.8,21.5,37.7z"/>
	<path class="st15" d="M21.5,37.7c0.2,0.1,0.2,0.4,0.2,0.7c0,0.3-0.1,0.7-0.3,1c0,0,0,0.1-0.1,0.1v2.1l-1.1,0.6l0,0v-1.9h0
		c-0.1,0-0.2,0-0.3-0.1c-0.2-0.1-0.3-0.4-0.3-0.7c0-0.3,0.1-0.7,0.3-1.1c0.2-0.4,0.5-0.6,0.7-0.8C21,37.5,21.2,37.5,21.5,37.7
		C21.4,37.6,21.5,37.6,21.5,37.7z"/>
	<g>
		<path class="st16" d="M40.4,72.8c-0.1-0.1-0.2-0.2-0.3-0.2c-0.2-0.2-0.5-0.4-0.9-0.7C39.6,72.2,40,72.5,40.4,72.8z M39.9,76.7
			c0.2,0.2,0.3,0.4,0.2,0.6c-0.1,0.1-0.1,0.2-0.2,0.2c-0.2,0-0.4,0-0.6-0.1c-0.5-0.2-1.1-0.6-1.7-1.1c-0.7-0.5-1-1-1-1.2
			c0.4-0.2,1,0,1.7,0.5c0.4,0.3,0.8,0.5,1.2,0.8c0,0,0,0,0,0C39.6,76.5,39.7,76.6,39.9,76.7z M37.9,78.6c0.2,0.3,0.6,0.7,1.2,1.4
			c0.5,0.7,0.7,1.3,0.5,1.8c-1.1-0.9-1.7-1.4-1.8-1.6c-0.1-0.2-0.2-0.3-0.3-0.3C37.5,79.6,37.6,79.2,37.9,78.6z M35.8,71l1.6-0.1
			h0.1c0.6,0.3,1,0.5,1.1,0.6l3.1,3.1v-0.3c0.1,0.1,0.1,0.2,0.3,0.5c0.1,0.2,0.1,0.4,0,0.4c-0.1,0-0.3,0-0.6,0
			c-0.9-0.9-1.8-1.7-2.8-2.4c-0.2-0.2-0.5-0.4-0.7-0.5C37.2,71.8,36.5,71.4,35.8,71z M96.2,57.4c-1.7,0.7-3.3,1.8-4.7,3.3
			c-0.3,0.4-0.6,0.8-0.9,1.2c-0.3,0.5-0.6,1-0.9,1.6c-0.3-0.1-0.6-0.3-0.8-0.5c0,0,0-0.3,0.1-1c0,0,0,0-0.1,0
			c0.1-0.3,0.1-0.6,0.2-0.9c0.3-1.5,0.3-3-0.2-4.4l-0.1-0.1c0.1,0,0.3,0,0.4-0.1c0-0.5-0.1-1.1-0.3-1.9h-0.1c0,0,0-0.1-0.1-0.1
			c0.2-0.1,0.3-0.2,0.4-0.4c0.2-0.3,0.5-0.7,0.7-1.3c0.2-0.5,0.2-1.1,0-1.6c0.1,0.1,0.1,0.2,0.2,0.2c0.6,1,1.1,2,1.7,3
			c0.3,0.5,0.7,0.9,1.2,1.2c0.4,0.2,0.9,0.5,1.3,0.8C94.8,57,95.4,57.3,96.2,57.4z M37.5,70.6c0.5-0.7,1.1-1,1.8-0.8
			c0.4,0.1,0.7,0.2,1.1,0.3c0.5,0.2,1,0.5,1.6,0.8c0.5,0.4,1.3,1.1,2.4,2.1l2.2,1.6l0.1,0.1c0.6,0.4,1.1,0.7,1.7,0.9
			c0.1,0,0.3,0.2,0.7,0.4c-0.1,0.2-0.1,0.3-0.2,0.4c0.1,0-0.1,0-0.5,0c-0.9-0.1-2-0.7-3.4-1.9c-1.8-1.6-3-2.6-3.5-3
			c-0.2-0.1-0.4-0.2-0.6-0.3c-0.5-0.2-1-0.4-1.6-0.6c-0.9-0.2-1.4-0.2-1.6,0.1l-0.1,0.1C37.6,70.7,37.6,70.7,37.5,70.6z M51.9,76.2
			l1.4,4.8c0,0,0.2,0.3,0.4,0.9c0,0,0,0,0,0.1c-1.2-0.3-2.3-0.3-3.5,0.1c0,0-0.1,0-0.1,0.1c0.4-1.2,0.7-2.5,0.8-4.1
			c0-0.4,0-0.8-0.1-1.2c-0.1-0.4-0.2-0.8-0.3-1.2c-0.2-0.8-0.6-1.7-1.1-2.7c-1.1-2.1-1.7-3.2-1.7-3.4c0.8,0.2,1.7,1.1,2.6,2.7
			c0.9,1.6,1.3,2.5,1.3,2.6l0.1,0.2L51.9,76.2z M68.6,72.7c-2-0.2-3.3-0.9-4.1-2.2c-0.2-0.4-0.4-0.8-0.5-1.3l4.8-2.8
			c0,0.1,0.1,0.8,0.3,2c0.2,0.4,0.4,0.8,0.6,1.1c-0.1,0.1-0.2,0.2-0.2,0.4c-0.4,0.6-0.6,1.2-0.8,2c0,0,0,0.1,0,0.1
			c0,0.1-0.1,0.1-0.1,0.2c0,0.1-0.1,0.1-0.1,0.1C68.6,72.5,68.6,72.6,68.6,72.7z"/>
		<path class="st17" d="M39.9,76.7c-0.2-0.1-0.3-0.2-0.4-0.3c0,0,0,0,0,0l-0.3-0.7c0.1,0.1,0.3,0.2,0.4,0.4l0.1,0.1
			c0.1,0.1,0.2,0.2,0.3,0.4c0,0.1,0.1,0.1,0.1,0.2C40,76.7,40,76.7,39.9,76.7z M68.9,66.5l-4.8,2.8l-12.1,7l-0.3-1.1l15-8.7
			c1.3-0.7,1.7-1.9,1.1-3.5l-0.9-2.5c0.4,0.4,0.9,0.9,1.5,1.6c0.5,0.6,1,1.1,1.5,1.7C69.2,64.3,68.9,65.2,68.9,66.5L68.9,66.5z
			 M69.8,59.6c-0.7-0.3-1.4-0.4-2-0.5c-0.6-0.1-1.1,0-1.4,0.1l-5.6-15.5c-0.6-1.6-1.5-2-2.8-1.3l-20.8,12c-1.3,0.8-1.7,1.9-1.1,3.5
			l4.4,12.1c-0.4-0.2-0.8-0.3-1.1-0.3c-0.7-0.1-1.2,0.2-1.8,0.8c0,0.1,0,0.2,0,0.3h-0.1L33,58.8c-0.6-1.7-0.1-3.1,1.4-4l25.4-14.7
			c1.6-0.9,2.7-0.5,3.4,1.2L69.8,59.6z M42.8,66.6c-0.6,0-1-0.5-1.3-1.3l-2-5.6c-0.5-1.3-0.1-2.4,1.1-3.1L57.3,47
			c0.9-0.5,1.6-0.5,2.1,0.2c-0.4,0-0.8,0.1-1.2,0.4l-16.8,9.7c-1.2,0.7-1.6,1.7-1.1,3.1l2,5.6C42.5,66.2,42.6,66.4,42.8,66.6z
			 M39.1,71.9c0.4,0.3,0.7,0.5,0.9,0.7c0.1,0.1,0.2,0.1,0.3,0.2c0.2,0.2,0.3,0.3,0.5,0.5c0.4,0.4,0.7,0.7,0.9,1.1v0.3l-3.1-3.1
			L39.1,71.9z"/>
		<path class="st18" d="M59.4,47.1c-0.5-0.6-1.2-0.7-2.1-0.2l-16.8,9.7c-1.2,0.7-1.6,1.7-1.1,3.1l2,5.6c0.3,0.8,0.7,1.3,1.3,1.3
			c0.5,0.6,1.2,0.7,2.1,0.1l16.8-9.7c1.2-0.7,1.6-1.7,1.1-3l-2-5.6C60.5,47.6,60,47.2,59.4,47.1z M66.4,59.2
			c-0.2,0.1-0.3,0.3-0.4,0.5c0.1,0,0.3,0.2,0.8,0.7l0.9,2.5c0.6,1.6,0.2,2.8-1.1,3.5l-15,8.7l-0.1-0.2c0-0.1-0.4-0.9-1.3-2.6
			c-0.9-1.7-1.8-2.6-2.6-2.7c-0.6,0.9-0.7,1.9-0.1,3c0.6,1.2,1,2,1.2,2.6c0.1,0.3,0.2,0.6,0.3,0.8c-0.4-0.2-0.6-0.4-0.7-0.4
			c-0.5-0.2-1.1-0.6-1.7-0.9l-0.1-0.1L44.4,73c-1.1-1-1.9-1.7-2.4-2.1c-0.6-0.3-1.1-0.6-1.6-0.8L36.1,58c-0.6-1.6-0.2-2.8,1.1-3.5
			l20.8-12c1.3-0.7,2.3-0.3,2.8,1.3L66.4,59.2z"/>
		<path class="st19" d="M62.2,222.4c-0.1,0.2-0.1,0.4-0.2,0.6c0,0.5,0,1,0.2,1.6c1.7,2.1,4.6,3.4,8.6,4c1.4,0.3,3.6,0.5,6.5,0.5
			c2.9,0.1,5,0.3,6.5,0.6l0.4,1.6c2.2,0.5,4,0.7,5.2,0.8c1.9,0.1,3.7-0.1,5.2-0.7c0.8-0.3,1.2-0.9,1.2-1.9v0
			c0.7-0.1,1.3-0.1,1.7-0.2c1-0.2,1.8-0.6,2.4-1.2c0.2-1,0.3-1.9,0.3-2.5c0-0.6-0.1-1-0.3-1.4c0.1-0.6,0.1-1.3,0.1-2.1
			c-0.1-0.7-0.1-1.3-0.1-1.9c0.3-0.3,0.4-0.6,0.5-1l0,0l0.6-1.7c0.6-1.9,1.1-3.8,1.4-5.8c0.1-0.9,0.3-1.8,0.5-2.8
			c5.1,3,7.7,6.6,7.9,10.8c0,0.2,0,0.4,0,0.6h-0.2c-0.2,4.3-3,8-8.3,11.2c-5.4,3.2-11.9,4.9-19.4,5.1v0.1
			c-7.7,0.1-14.2-1.4-19.6-4.5c-5.2-3-7.8-6.7-7.9-11v-1.6h0.1c0.5-4,3.3-7.5,8.3-10.5l0.2,0.1c4.3-2.5,9.2-4,14.8-4.6
			c0,1.3,0,2.6,0,4v0c-0.1,0-0.1,0-0.2,0c-0.3,0-0.6-0.1-0.9-0.1c0,0,0,0,0,0c-1.1-0.1-1.9,0.4-2.6,1.4c-0.6,1-0.8,2-0.4,3l0.1,0.2
			c-0.1,0.4-0.1,0.7-0.1,1c0,0.8,0.2,1.5,0.6,2.1c0.1,0.1,0.2,0.3,0.2,0.4c-0.3,0.1-0.5,0.2-0.7,0.3c-0.6,0.3-1.2,0.4-1.8,0.4
			l-7.3,0.9c-1.5,0.2-2.5,0.6-3,1.3c-0.5,0.6-0.8,1.4-0.7,2.3C62,221.9,62.1,222.2,62.2,222.4z"/>
		<path class="st20" d="M103,57.5C103,57.5,103,57.5,103,57.5c0,0.1,0,0.2,0.1,0.3c0,0,0,0,0,0c0,0.9,0.2,1.5,0.7,1.9v0.1
			c0.1,0.1,0.2,0.2,0.3,0.4c0,0.2-0.1,0.3-0.3,0.5c-0.1,0.1-0.3,0.4-0.6,0.7c-0.2,0.3-0.7,0.6-1.4,1.1c-0.7,0.4-1.6,0.7-2.6,1
			c-1,0.3-2,0.5-3,0.6c-1,0-2,0.1-3,0.1c-1,0.1-1.9,0-2.7-0.2c-0.3-0.1-0.6-0.2-0.9-0.3c0.3-0.5,0.6-1,0.9-1.6
			c0.2-0.4,0.5-0.8,0.9-1.2c1.4-1.5,3-2.6,4.7-3.3c0.5,0.1,1,0.1,1.5,0.1l1.6-0.2c0.1,0,0.3,0,0.5-0.1c0.6-0.2,1.2-0.4,1.7-0.7
			c0.7-0.4,1.4-0.7,2.2-1.1c0.1,0,0.2-0.1,0.2-0.1c0,0,0,0,0,0C103.4,56.1,103.1,56.8,103,57.5z M37.5,70.9c0-0.2,0-0.3,0-0.3
			C37.6,70.7,37.6,70.7,37.5,70.9l0.1-0.1c0.1-0.3,0.6-0.3,1.6-0.1c0.6,0.2,1.2,0.4,1.6,0.6c0.2,0.1,0.4,0.2,0.6,0.3
			c0.6,0.4,1.7,1.4,3.5,3c1.4,1.2,2.5,1.8,3.4,1.9c0.4,0,0.5,0,0.5,0c0.1-0.1,0.2-0.2,0.2-0.4c-0.1-0.2-0.2-0.5-0.3-0.8
			c-0.3-0.5-0.7-1.4-1.2-2.6c-0.5-1.2-0.5-2.2,0.1-3c0.1,0.2,0.6,1.3,1.7,3.4c0.5,1,0.9,1.9,1.1,2.7c0.1,0.4,0.2,0.8,0.3,1.2
			c0.1,0.4,0.1,0.9,0.1,1.2c-0.1,1.6-0.3,2.9-0.8,4.1c-1.5,0.6-2.6,1.6-3.3,3.1c-0.2,0.5-0.4,0.9-0.5,1.4c-0.7-0.3-1.4-0.7-2.4-1.2
			c-0.8-0.4-1.5-0.7-2.1-1c-0.4-0.2-0.7-0.4-1-0.5c-0.9-0.3-1.4-0.5-1.6-0.6c-0.2-0.2-0.3-0.3-0.4-0.3c-0.1-0.1-0.2-0.2-0.6-0.5
			c-0.3-0.3-0.7-0.7-1.1-1.1c0-0.2,0-0.7,0-1.3c0-0.1,0-0.3,0-0.4v0c0.1,0,0.2,0.1,0.3,0.3c0.1,0.2,0.7,0.7,1.8,1.6
			c0.2-0.5,0.1-1.1-0.5-1.8c-0.5-0.6-0.9-1.1-1.2-1.4l-1.2-1c-1.1-1.2-1.1-2-0.1-2.4c0,0.3,0.3,0.7,1,1.2c0.6,0.5,1.2,0.9,1.7,1.1
			c0.3,0.1,0.5,0.2,0.6,0.1c0.1,0,0.2-0.1,0.2-0.2c0.1-0.3,0-0.5-0.2-0.6c0.1,0,0.1,0,0.2,0.1C40,76.7,40,76.7,40,76.6
			c-0.1-0.2-0.2-0.3-0.3-0.4l-0.1-0.1c-0.2-0.1-0.3-0.3-0.4-0.4c-0.4-0.3-0.6-0.6-0.8-0.7c-0.2-0.2-0.4-0.3-0.5-0.4
			c-0.9-0.8-1.9-1.5-2.8-2.1c-0.4-0.3-0.5-0.6-0.2-1c0.3-0.2,0.6-0.4,0.9-0.5c0.7,0.4,1.4,0.9,2.1,1.4c0.2,0.2,0.5,0.3,0.7,0.5
			c0.9,0.7,1.8,1.5,2.8,2.4c0.3,0,0.5,0,0.6,0c0.1-0.1,0.1-0.2,0-0.4c-0.1-0.2-0.2-0.4-0.3-0.5c-0.2-0.3-0.6-0.7-0.9-1.1
			c-0.2-0.2-0.3-0.3-0.5-0.5c-0.4-0.3-0.8-0.6-1.2-0.9l-0.5-0.3C38.5,71.4,38.1,71.2,37.5,70.9z M69.8,59.6c0.6,0.2,1.1,0.4,1.7,0.7
			c3.6,1.8,5.3,3.9,5.2,6.4c0,0.3,0,0.6-0.1,0.8c-0.2-0.1-0.5-0.2-0.8-0.2c-0.3-0.1-0.7-0.1-1-0.1c-1.3-0.1-2.4,0.2-3.5,1
			c-0.6,0.4-1.2,0.9-1.6,1.4c-0.2-0.3-0.4-0.6-0.6-1.1c-0.2-1.2-0.3-1.9-0.3-2v0c0.1-1.3,0.4-2.2,0.9-2.7c-0.5-0.5-1-1.1-1.5-1.7
			c-0.6-0.7-1.1-1.2-1.5-1.6c-0.5-0.5-0.7-0.7-0.8-0.7c0-0.2,0.2-0.4,0.4-0.5c0.3-0.2,0.7-0.2,1.4-0.1
			C68.4,59.2,69.1,59.3,69.8,59.6z M89.8,51.2c0.2,0.6,0.2,1.1,0,1.6c-0.2,0.6-0.4,1.1-0.7,1.3c-0.1,0.2-0.3,0.3-0.4,0.4
			c0,0.1,0.1,0.1,0.1,0.1c-0.1,0.1-0.2,0.1-0.3,0.2c-0.5,0.2-1.1,0.3-1.8,0.1c-0.3-0.1-0.6-0.2-0.9-0.3c-0.7-1.7-1.3-3.6-1.8-5.7
			c-0.6-2.2-0.7-4.6-0.3-7.3c0,0,0-0.1,0-0.1c0.6,1.7,1.3,2.9,2.1,3.6c0,0.2,0,0.4,0,0.6c0,0.2,0,0.3,0,0.5l1.4,4.5
			c0.2,0,0.3-0.1,0.4-0.1c0.1-0.7,0.3-1.3,0.6-1.8c0.6,0.5,1.1,1,1.5,1.7C89.7,50.8,89.7,51,89.8,51.2z M88,50.1c0,0.1,0,0.2,0,0.4
			c0,0.1,0.1,0.2,0.1,0.2c0.2,0.3,0.2,0.6,0.2,0.8c0,0.2-0.1,0.4-0.2,0.7c-0.1,0.1-0.1,0.2-0.2,0.3c-0.1,0.2-0.2,0.3-0.2,0.4
			c0,0.1-0.1,0.1-0.1,0.2c0.1,0.1,0.2,0.2,0.3,0.3c0,0,0.1,0,0.2,0.1c0.5-0.2,0.8-0.5,0.9-0.8c0-0.1,0-0.2,0-0.4c0-0.2,0-0.3,0-0.6
			c0-0.5,0-0.8-0.1-1c0,0,0,0,0-0.1C88.8,50.3,88.5,50.1,88,50.1z"/>
		<path class="st21" d="M72.5,80.2c-1.1-1.2-2.1-2.4-2.9-3.8c-0.2-0.4-0.4-0.7-0.6-1.1c0.1,0.1,0.1,0.2,0.2,0.4
			c2.9-2.6,6.2-4.8,9.9-6.5c0.2,0.2,0.3,0.5,0.5,0.7c0.1,0.1,0.2,0.2,0.2,0.3c-0.4,0.3-0.7,0.5-1.1,0.8c-1.7,1.2-3,2.6-3.9,4.2
			c-1,1.6-1.6,2.9-2,3.8C72.8,79.4,72.6,79.8,72.5,80.2z M69.8,69.5c0.4-0.6,0.9-1,1.6-1.4c1.1-0.7,2.3-1.1,3.5-1
			c-1.5,0.4-3.1,1.2-4.9,2.4c0,0-0.1,0.1-0.1,0.1c-0.1,0.1-0.2,0.2-0.4,0.2C69.6,69.8,69.7,69.7,69.8,69.5z"/>
		<path class="st1" d="M57.1,84.3c-1,0.1-2,0.3-2.9,0.5c-2.8,0.6-5,1.3-6.5,2.2c-0.1,0-0.1,0.1-0.2,0.1c-0.5,0.4-0.9,0.7-1.3,1
			c0-0.4,0-0.9,0.1-1.3c0.1-0.5,0.3-0.9,0.5-1.4c0.7-1.4,1.8-2.5,3.3-3.1c0,0,0.1,0,0.1-0.1c1.2-0.4,2.4-0.5,3.5-0.1
			c0.3,0.1,0.7,0.2,1,0.4C55.7,82.9,56.5,83.5,57.1,84.3z M79.1,69.2c-3.7,1.7-7,3.9-9.9,6.5c-0.1-0.1-0.1-0.2-0.2-0.4c0,0,0,0,0,0
			c0,0,0,0,0-0.1c-0.3-0.8-0.4-1.6-0.4-2.5c0-0.1,0-0.3,0-0.4c0,0,0-0.1,0.1-0.1c0-0.1,0-0.1,0.1-0.2c0-0.1,0-0.1,0-0.1
			c0.2-0.7,0.4-1.4,0.8-2c0.1-0.1,0.2-0.2,0.4-0.2c0,0,0.1-0.1,0.1-0.1c1.8-1.2,3.4-2,4.9-2.4c0.3,0,0.6,0.1,1,0.1
			c0.3,0.1,0.5,0.1,0.8,0.2C77.6,67.8,78.5,68.4,79.1,69.2z M105.2,58.4c0.2,0.1,0.5,0.3,0.7,0.5c0.1,0.2,0.2,0.3,0.2,0.5
			c0,0.5-0.1,1.1-0.4,1.6c-0.3,0.5-0.7,1-1.1,1.3c-0.7,0.7-1.6,1.3-2.5,1.8c-1,0.5-1.9,1-2.9,1.2c-0.6,0.2-1.2,0.3-1.8,0.5
			c-1,0.2-2.1,0.3-3.1,0.3c-0.5,0-1.1,0-1.7,0c-1,0-2,0-3.1,0c-0.6,0-1.2,0-1.8,0c-1,0.1-1.9,0.2-2.9,0.5l0,0l1-2.6
			c0.1-0.2,0.1-0.3,0.2-0.4c0.5-0.8,1.5-1.3,2.8-1.6c0,0,0,0,0.1,0c-0.1,0.7-0.1,1-0.1,1c0.2,0.2,0.4,0.3,0.8,0.5
			c0.2,0.1,0.5,0.2,0.9,0.3c0.8,0.2,1.7,0.3,2.7,0.2c1-0.1,2-0.1,3-0.1c1-0.1,2-0.2,3-0.6c1-0.3,1.9-0.6,2.6-1
			c0.7-0.4,1.2-0.8,1.4-1.1c0.2-0.3,0.4-0.5,0.6-0.7c0.2-0.2,0.2-0.3,0.3-0.5c0-0.1,0.1-0.1,0.1-0.2c0.2-0.4,0.4-0.7,0.6-0.9
			c0.1-0.1,0.1-0.2,0.2-0.2C105,58.6,105.2,58.5,105.2,58.4z M45,58.8c-0.4,0.2-0.7,0.6-0.9,1.1c-0.2,0.5-0.2,0.9,0,1.4
			c0.2,0.4,0.4,0.7,0.8,0.9c0.4,0.1,0.8,0.1,1.2-0.1c0.4-0.2,0.7-0.6,0.9-1.1c0.2-0.5,0.2-0.9,0-1.4c-0.2-0.4-0.4-0.7-0.8-0.9
			C45.9,58.5,45.5,58.6,45,58.8z M44.4,57.2c0.8-0.5,1.7-0.6,2.5-0.3c0.8,0.3,1.4,0.9,1.7,1.8c0.3,0.9,0.3,1.8,0,2.8
			c-0.4,1-1,1.7-1.8,2.2c-0.8,0.5-1.6,0.6-2.4,0.3c-0.8-0.3-1.4-0.9-1.7-1.8c-0.3-0.9-0.3-1.8,0-2.8C43,58.4,43.6,57.6,44.4,57.2z
			 M60.1,52.3l-9.5,5.5c-0.2,0.1-0.5,0.2-0.7,0.1c-0.2-0.1-0.4-0.3-0.5-0.5v0c-0.1-0.3-0.1-0.5,0-0.8c0.1-0.3,0.3-0.5,0.5-0.6
			l9.5-5.5c0.2-0.1,0.5-0.2,0.7-0.1c0.2,0.1,0.4,0.2,0.5,0.5v0c0.1,0.3,0.1,0.5,0,0.8C60.5,52,60.3,52.2,60.1,52.3z"/>
		<path class="st22" d="M99.9,220c0,0.5,0.1,1.2,0.1,1.9c0,0.8,0,1.6-0.1,2.1c0.2,0.4,0.3,0.9,0.3,1.4c0,0.7-0.1,1.5-0.3,2.5
			c-0.6,0.6-1.4,1-2.4,1.2c-0.4,0.1-1,0.2-1.7,0.2v0c0,1-0.5,1.7-1.2,1.9c-1.5,0.6-3.2,0.8-5.2,0.7c-1.2-0.1-3-0.3-5.2-0.8l-0.4-1.6
			c-1.4-0.3-3.6-0.5-6.5-0.6c-2.9,0-5-0.2-6.5-0.5c-4.1-0.6-6.9-1.9-8.6-4c-0.2-0.5-0.3-1.1-0.2-1.6c0-0.2,0.1-0.4,0.2-0.6
			c0.2,0.5,0.5,1,0.9,1.3c1.4,1.2,3.1,2.1,5.2,2.7c0.8,0.2,1.6,0.4,2.5,0.5c1.4,0.3,3.7,0.4,7,0.5c1.3,0,2.5,0.1,3.6,0.2
			c0.7,0.2,1.4,0.3,2,0.3l2.1,0.4c0.9,0.2,1.7,0.3,2.3,0.4c0.4,0.1,0.8,0.1,1.2,0.1c1.1,0.1,2.1,0.1,3-0.1c0.9-0.1,1.8-0.4,2.5-0.7
			c0.5-0.2,0.9-0.6,1.1-1.3v0c0.1-0.4,0.2-1,0.2-1.8c0-1.2-0.2-2.5-0.6-3.9c0.7,0.1,1.4,0.2,2.2,0.1c0.3,0,0.6-0.1,0.9-0.2
			c0.3-0.1,0.6-0.2,0.8-0.4C99.4,220.4,99.7,220.2,99.9,220z M78.7,208.4c0,2.4-0.2,4.6-0.5,6.7l-1.7,0.8c-0.4,0.2-0.7,0.3-1,0.5
			c-0.1-0.1-0.2-0.3-0.2-0.4c-0.4-0.6-0.6-1.3-0.6-2.1c0-0.3,0-0.7,0.1-1l-0.1-0.2c-0.4-1-0.2-2,0.4-3c0.7-1,1.5-1.5,2.6-1.4
			c0,0,0,0,0,0c0.3,0,0.6,0.1,0.9,0.1C78.6,208.4,78.7,208.4,78.7,208.4z"/>
		<path class="st23" d="M85.6,29.2L85.6,29.2l0.2-2.5c0.2-0.9,0.5-1.7,0.9-2.2c0,0,0,0,0.1,0c0,0,0,0,0.1,0c0.2,1,0.2,2.1,0.2,3.1
			c0,0.6-0.1,1.2-0.1,1.9c0,0,0,0-0.1,0c-0.1,0-0.2,0-0.3,0c-0.1,0-0.2,0-0.3-0.1c-0.1,0-0.2-0.1-0.3-0.1
			C85.8,29.3,85.7,29.3,85.6,29.2z M91.8,25.2c-0.3,0.8-0.4,1.5-0.4,2.3c0,0.2,0,0.3,0,0.5c-0.5-0.1-1-0.3-1.4-0.8c0,0,0-0.1,0-0.2
			c0,0,0,0,0.1,0L91.8,25.2C91.7,25.2,91.7,25.2,91.8,25.2z M95.1,27.8l2.1,0.6c0.1,0,0.1,0,0.2,0l0.9,0.2c0.1,0,0.1,0,0.2,0.1
			c-0.3,0-0.7,0.1-1,0.1C96.4,28.9,95.7,28.6,95.1,27.8z M83.8,28.8c1.3,1.5,2.1,3.4,2.3,5.4c0,0.1,0,0.2,0,0.2
			c0.1,1.3,0.5,2.5,1,3.6c0.5,1,1.1,2,2,2.9c0.1,0.1,0.2,0.2,0.4,0.4c0.7,0.8,1.5,1.5,2.3,2.1c1,0.8,2,1.5,3,2.2
			c2.1,1.3,4.3,2.2,6.8,2.7c2,0.5,4,0.5,6,0c0.7-0.2,1.4-0.4,2.2-0.7l0,0.2l-0.5,1.7c0,0,0,0.1-0.1,0.1c0,0,0,0,0,0.1
			c-0.1,0.2-0.2,0.5-0.4,0.7c0,0,0,0,0,0.1c-0.4,0.1-0.8,0.2-1.2,0.3c-0.3,0-0.5,0.1-0.8,0.1c-2.3,0.2-4.6-0.1-6.9-0.9
			c-2.4-0.8-4.7-1.9-6.8-3.3c-0.8-0.5-1.6-1.1-2.4-1.7c-1.1-0.9-2.1-1.9-3.1-3c-0.2-0.2-0.7-0.7-1.4-1.5c-0.7-0.7-1.1-1.3-1.2-1.8
			c-0.1-0.4-0.2-1-0.3-1.8c0-0.1,0-0.2,0-0.4c-0.1-1-0.2-1.7-0.1-2.2c0-0.5,0-1-0.2-1.5c-0.2-0.5-0.3-0.9-0.5-1.2
			c-0.1-0.4-0.2-0.8-0.1-1.4L83.8,28.8z M103.8,55.3c-0.1,0-0.2,0.1-0.2,0.1c-0.7,0.4-1.4,0.7-2.2,1.1c-0.5,0.2-1.1,0.5-1.7,0.7
			c-0.2,0.1-0.3,0.1-0.5,0.1l-1.6,0.2c-0.5,0-1,0-1.5-0.1c-0.7-0.1-1.4-0.4-2-0.9c-0.5-0.3-0.9-0.6-1.3-0.8
			c-0.5-0.3-0.9-0.7-1.2-1.2c-0.5-1-1.1-2-1.7-3c0-0.1-0.1-0.2-0.2-0.2c-0.1-0.2-0.1-0.4-0.2-0.6c-0.4-0.7-0.9-1.2-1.5-1.7
			c-0.3,0.5-0.5,1.1-0.6,1.8c-0.1,0-0.3,0.1-0.4,0.1l-1.4-4.5c0.3-0.2,0.7-0.3,1-0.4c0.7-0.2,1.3-0.3,1.9-0.2
			c1.1,0.1,2.2,0.6,3.2,1.6c1.8,1.8,3.9,3.3,6.4,4.5c2.4,1.2,4.6,1.6,6.6,1.2c0.4-0.1,0.7-0.1,1-0.2c1.3-0.3,2.1-0.7,2.4-1.1
			C107.1,53.1,105.6,54.4,103.8,55.3z M108.6,118.7h-0.2c0,0,0.1-0.1,0.1-0.1C108.6,118.6,108.6,118.6,108.6,118.7z M102.9,208.7
			c-0.2,1-0.4,1.9-0.5,2.8c-0.3,2-0.7,4-1.4,5.8l-0.6,1.7l0,0c-0.1,0.4-0.3,0.7-0.5,1c-0.2,0.2-0.5,0.5-0.8,0.6
			c-0.3,0.2-0.6,0.3-0.8,0.4c-0.3,0.1-0.6,0.1-0.9,0.2c-0.7,0.1-1.5,0-2.2-0.1c0,0,0,0,0-0.1c0,0,0-0.1,0-0.1
			c0.3-1.5,0.4-3.2,0.3-5.3c-0.2-2.3-0.4-4.1-0.4-5.5c-0.3-2.1-0.4-4.7-0.3-7.8c0.2-3.7,0.5-6.5,0.8-8.4c0.3-1.9,0.4-4.3,0.1-7.3
			c-0.2-3-1-6.4-2.3-10.3c-1.3-3.9-1.5-8.4-0.7-13.5c0.6-5.5,0.8-11,0.6-16.5c0-0.7,0.2-1.3,0.5-1.7c0.6-0.5,1.2-1,1.7-1.4
			c0.5-0.4,1.4-1.7,2.6-3.9c1-1.7,1.3-4.8,1.1-9.4c0.6-0.3,1.1-0.5,1.7-0.8c3.4-1.8,5.9-3.8,7.4-6.1c0.5-0.8,1-1.7,1.3-2.6
			c0.3,0.9,0.6,2,0.8,3.2c0.7,4.3,0.6,7.7-0.4,10.3l-0.7,2.9c-0.3,1.2-0.5,2.1-0.6,2.9c-0.2,1.2-0.6,3.9-1.4,8.1
			c-0.6,3.4-1,6.1-1.1,8.1c-0.1,1.1-0.2,3.4-0.5,7.1c0.4,2.1,0.9,4.4,1.6,7.1c0.7,2.6,1.1,4.5,1.3,5.7c0.2,1.2,0.3,2.7,0.4,4.7
			c0.1,1.9-0.2,4-0.7,6c-0.6,2.1-1.3,4.8-2.3,8.1l-1.2,6c-0.4,2-0.8,3.8-1.2,5.5C103.3,207,103.1,207.8,102.9,208.7z"/>
		<path class="st24" d="M75.5,216.4c0.3-0.1,0.6-0.3,1-0.5l1.7-0.8c-0.1,0.4-0.1,0.8-0.2,1.2l0.2,0.3c0.4,0.8,0.9,1.5,1.4,2.1
			c2.7,3.4,6.3,5.1,11,5.1c0.8,0,1.6-0.1,2.3-0.3l0.1,0c0.1,0,0.1,0,0.2-0.1c0.8-0.3,1.5-1.2,2-2.5c0-0.1,0-0.2,0.1-0.2
			c0,0,0,0.1,0,0.1c0,0,0,0,0,0.1c0.4,1.4,0.6,2.7,0.6,3.9c0,0.8-0.1,1.4-0.2,1.8v0c-0.2,0.7-0.6,1.1-1.1,1.3
			c-0.8,0.3-1.6,0.6-2.5,0.7c-0.9,0.1-1.9,0.2-3,0.1c-0.4,0-0.8-0.1-1.2-0.1c-0.6-0.1-1.3-0.2-2.3-0.4l-2.1-0.4
			c-0.7,0-1.3-0.1-2-0.3c-1.1-0.1-2.3-0.1-3.6-0.2c-3.2-0.1-5.5-0.2-7-0.5c-0.9-0.1-1.7-0.3-2.5-0.5c-2.1-0.6-3.8-1.5-5.2-2.7
			c-0.4-0.3-0.7-0.8-0.9-1.3c-0.1-0.2-0.1-0.5-0.2-0.8c-0.1-0.9,0.1-1.7,0.7-2.3c0.5-0.7,1.5-1.2,3-1.3l7.3-0.9
			c0.6,0,1.2-0.2,1.8-0.4C74.9,216.6,75.2,216.5,75.5,216.4z"/>
		<path class="st25" d="M90.1,27C90,27,90,27,90.1,27C90,27.1,90,27.2,90,27.2c0.4,0.4,0.8,0.7,1.4,0.8c0-0.2,0-0.3,0-0.5
			c0-0.8,0.1-1.5,0.4-2.3l3.3,2.6c0.6,0.8,1.3,1.1,2.3,1c0.3,0,0.7-0.1,1-0.1c2,1.6,3.9,3.4,5.7,5.2c1.6,1.7,2.9,3.5,4,5.5
			c1.1,2.3,1.7,4.6,1.7,7.1c0,0.4,0,0.8,0,1.2c-0.7,0.3-1.4,0.5-2.2,0.7c-1.9,0.4-3.9,0.4-6,0c-2.4-0.5-4.7-1.4-6.8-2.7
			c-1.1-0.7-2.1-1.4-3-2.2c-0.8-0.7-1.6-1.4-2.3-2.1c-0.1-0.1-0.2-0.2-0.4-0.4c-0.8-0.9-1.5-1.8-2-2.9c-0.5-1.1-0.9-2.3-1-3.6
			c0-0.1,0-0.2,0-0.2c-0.3-2.1-1-3.9-2.3-5.4l1.8,0.4c0.1,0.1,0.2,0.1,0.3,0.2c0.1,0,0.2,0.1,0.3,0.1c0.1,0,0.2,0,0.3,0.1
			c0.1,0,0.2,0,0.3,0c0,0,0,0,0.1,0c0-0.6,0.1-1.3,0.1-1.9c0-1,0-2.1-0.2-3.1c1,0.4,1.9,1,2.6,1.8C89.7,26.6,89.9,26.8,90.1,27z
			 M85.7,45.1c0.1-1.3,0.8-2.3,1.9-3c0.9,1.1,2,2.1,3.1,3c0.8,0.6,1.5,1.2,2.4,1.7c2.1,1.4,4.4,2.5,6.8,3.3c2.3,0.8,4.6,1.1,6.9,0.9
			c0.3,0,0.5,0,0.8-0.1c0.4-0.1,0.8-0.2,1.2-0.3l-0.5,0.8c0,0,0,0,0,0l0,0c-0.3,0.4-1.1,0.8-2.4,1.1c-0.3,0.1-0.6,0.2-1,0.2
			c-2,0.4-4.2,0-6.6-1.2c-2.4-1.2-4.5-2.7-6.4-4.5c-1-1-2.1-1.5-3.2-1.6c-0.6-0.1-1.3,0-1.9,0.2c-0.3,0.1-0.7,0.2-1,0.4
			c0-0.2,0-0.3,0-0.5C85.6,45.5,85.6,45.3,85.7,45.1z M78.2,215.2c0.4-2.1,0.5-4.3,0.5-6.7v0c0-1.3,0-2.6,0-4
			c-0.1-3.7-0.2-7.4-0.5-11.1v-0.1l-0.5-7.4c-0.3-4.8-1.4-9.5-3.2-14c-1.8-4.7-3.4-9.2-5-13.7c-0.9-3.2-1.5-6.4-1.8-9.4
			c-0.3-3.2-0.3-6.2,0-9.2c0-0.8,0.1-2,0.4-3.6c0.2-1.2,1.1-5.4,2.5-12.6c0.4,1.2,0.9,2.4,1.8,3.4c3,3.8,8.5,5.6,16.4,5.6
			c0.8,0,1.7-0.1,2.8-0.4c0.7-0.1,1.4-0.2,2.1-0.5c1.9-0.5,3.7-1.1,5.4-1.8c0.3,4.5-0.1,7.6-1.1,9.4c-1.2,2.2-2.1,3.5-2.6,3.9
			c-0.5,0.4-1.1,0.9-1.7,1.4c-0.3,0.5-0.5,1.1-0.5,1.7c0.2,5.5,0,11.1-0.6,16.5c-0.8,5.1-0.5,9.6,0.7,13.5c1.3,3.9,2,7.3,2.3,10.3
			c0.2,3,0.2,5.4-0.1,7.3c-0.3,1.9-0.6,4.7-0.8,8.4c-0.1,3.1,0,5.7,0.3,7.8c0.1,1.4,0.2,3.2,0.4,5.5c0.1,2.1,0,3.8-0.3,5.3
			c0,0.1,0,0.2-0.1,0.2c-0.5,1.3-1.2,2.1-2,2.5c-0.1,0-0.1,0-0.2,0.1l-0.1,0c-0.7,0.2-1.5,0.3-2.3,0.3c-4.6,0-8.3-1.7-11-5.1
			c-0.5-0.7-1-1.4-1.4-2.1l-0.2-0.3C78,216,78.1,215.6,78.2,215.2z"/>
		<path class="st26" d="M108.4,118.7h0.2h1.3c-0.1,0.6-0.2,1.2-0.4,1.7c-0.3,0.9-0.7,1.7-1.3,2.6c-1.5,2.3-4,4.3-7.4,6.1
			c-0.6,0.3-1.1,0.5-1.7,0.8c-1.7,0.7-3.5,1.3-5.4,1.8c-0.7,0.2-1.4,0.4-2.1,0.5c-1.1,0.2-2,0.4-2.8,0.4c-7.9,0-13.4-1.9-16.4-5.6
			c-0.8-1-1.4-2.2-1.8-3.4c-0.3-0.9-0.4-1.9-0.4-3c0-0.5,0-1,0.1-1.7h0.2c0.3,1.5,1,2.9,2,4.2c3,3.7,8.5,5.6,16.4,5.6
			c0.8,0,1.7-0.1,2.8-0.4c0.7-0.1,1.4-0.2,2.1-0.5c2.6-0.6,4.9-1.5,7.1-2.6c3.4-1.7,5.9-3.8,7.4-6
			C108.3,118.9,108.4,118.8,108.4,118.7z M45,58.8c0.4-0.2,0.8-0.3,1.2-0.1c0.4,0.1,0.7,0.4,0.8,0.9c0.2,0.4,0.1,0.9,0,1.4
			c-0.2,0.5-0.5,0.8-0.9,1.1c-0.4,0.2-0.8,0.3-1.2,0.1c-0.4-0.1-0.7-0.4-0.8-0.9c-0.2-0.4-0.2-0.9,0-1.4
			C44.4,59.4,44.6,59.1,45,58.8z M44.4,57.2c-0.8,0.5-1.4,1.2-1.7,2.2c-0.4,1-0.4,1.9,0,2.8c0.3,0.9,0.9,1.5,1.7,1.8
			c0.8,0.3,1.6,0.2,2.4-0.3c0.8-0.5,1.4-1.2,1.8-2.2c0.3-1,0.4-1.9,0-2.8c-0.3-0.9-0.9-1.5-1.7-1.8C46.1,56.6,45.3,56.7,44.4,57.2z
			 M59.4,47.1c0.6,0,1,0.5,1.3,1.3l2,5.6c0.5,1.3,0.1,2.3-1.1,3l-16.8,9.7c-0.9,0.5-1.6,0.5-2.1-0.1c-0.2-0.2-0.3-0.5-0.4-0.8
			l-2-5.6c-0.5-1.3-0.1-2.4,1.1-3.1l16.8-9.7C58.7,47.2,59.1,47.1,59.4,47.1z M60.1,52.3c0.2-0.1,0.4-0.4,0.5-0.6
			c0.1-0.3,0.1-0.6,0-0.8v0c-0.1-0.3-0.3-0.4-0.5-0.5c-0.2-0.1-0.5-0.1-0.7,0.1l-9.5,5.5c-0.2,0.1-0.4,0.4-0.5,0.6
			c-0.1,0.3-0.1,0.5,0,0.8v0c0.1,0.3,0.3,0.4,0.5,0.5c0.2,0.1,0.5,0.1,0.7-0.1L60.1,52.3z"/>
		<path class="st27" d="M108.5,118.5c0,0-0.1,0.1-0.1,0.1c-0.1,0.1-0.1,0.2-0.2,0.3c-1.5,2.3-4,4.3-7.4,6c-2.2,1.1-4.6,2-7.1,2.6
			c-0.7,0.2-1.4,0.4-2.1,0.5c-0.1-1.3-0.2-2.5-0.5-3.5c-0.3-1-0.8-2.3-1.5-3.8c-0.4-0.8-0.7-1.5-0.9-2.1c-0.2-0.6-0.4-1.1-0.6-1.6
			c-0.5-1.6-0.7-3.5-0.7-5.7c0-0.3,0-0.7,0-1c0.1-1.2,0.3-2.3,0.6-3.3c0.2-0.6,0.6-1.7,1.2-3.2c1.2-2.9,2.2-6.1,2.9-9.7
			c0.4-2.4,0.6-4.8,0.6-7.2c0-1.3-0.1-2.5-0.3-3.8c-0.4-2.9-1.4-5.3-3.1-7.3c-0.3-0.3-0.6-0.6-0.8-0.9c0,0,0,0-0.1-0.1
			c-1.2-1.2-2.5-2.1-4-2.6c-1.1-0.4-2.4-0.7-3.7-1c-0.6-0.1-1.2-0.2-1.9-0.3c0.3-0.3,0.7-0.5,1.1-0.8l0,0c1-1.5,2.3-2.5,4-3.2
			c0.3-0.1,0.7-0.3,1-0.4l0,0c1-0.2,2-0.4,2.9-0.5c0.6,0,1.2,0,1.8,0c1,0,2.1,0,3.1,0c0.6,0,1.1,0,1.7,0c1,0,2.1-0.1,3.1-0.3
			c0.6-0.2,1.2-0.3,1.8-0.5c1-0.3,2-0.7,2.9-1.2c1-0.5,1.8-1.1,2.5-1.8c0.4-0.4,0.8-0.8,1.1-1.3c0.3-0.5,0.4-1.1,0.4-1.6
			c0-0.2-0.1-0.4-0.2-0.5c-0.2-0.2-0.5-0.4-0.7-0.5c-0.5-0.2-1.2-0.5-2.1-0.6c0-0.1-0.1-0.2-0.1-0.2c0,0,0,0,0,0
			c0.4-0.1,0.9-0.1,1.3-0.2l0.8-0.5c1-0.6,1.9-1,2.6-1.2c7.6-0.5,11.3,4.7,11.2,15.6c0,2.6-0.4,5.2-1.1,8.1c-0.6,1.5-1.6,4-3.2,7.4
			c-1.5,3.1-2.5,5.6-3.1,7.4c0,0.2-0.1,0.4-0.1,0.6c-0.8,3.6-1.3,7.1-1.5,10.7c0,0.9,0,1.9,0.1,3.2c-0.1,0.4-0.1,0.8-0.1,1.3
			c0,0.1,0,0.3,0,0.4c0.1,0.8,0.2,1.6,0.3,2.4C110.1,114.9,109.6,116.8,108.5,118.5z M71.8,82.9l4.1-6.8c0.8-1.4,2.1-2.3,3.7-2.7
			c1.6-0.4,3.1-0.2,4.5,0.7c1.4,0.8,2.3,2.1,2.7,3.7c0.4,1.6,0.2,3.1-0.7,4.5L71.3,107l-1.3,2.2c-0.5,0.8-1.1,1.4-1.9,1.9
			c-0.8,0.5-1.6,0.8-2.5,0.9c-6.7,1.8-13-5.6-19-22.2c-0.2-0.6-0.3-1.2-0.4-1.8c0.4-0.3,0.8-0.6,1.3-1c0.1,0,0.1-0.1,0.2-0.1
			c1.5-0.9,3.7-1.7,6.5-2.2c0.9-0.2,1.9-0.3,2.9-0.5c0.3,0.5,0.6,1,0.8,1.6c2.1,5.8,3.7,9.9,4.8,12.2L71.8,82.9z"/>
		<path class="st28" d="M91.7,128.1c-1.1,0.2-2,0.4-2.8,0.4c-7.9,0-13.4-1.9-16.4-5.6c-1-1.2-1.6-2.6-2-4.2
			c-0.1-0.7-0.2-1.5-0.2-2.3c0-0.9,0.1-2.3,0.3-4c0.1-1.6,0.4-3.3,0.7-5.4l14.9-24.7c0.8-1.4,1.1-2.9,0.7-4.5
			c-0.4-1.6-1.3-2.8-2.7-3.7c-1.4-0.9-2.9-1.1-4.5-0.7c-1.6,0.4-2.8,1.3-3.7,2.7l-4.1,6.8c0,0,0-0.1,0-0.1c0.2-1,0.4-1.9,0.7-2.6
			c0.1-0.4,0.3-0.8,0.4-1.1c0.4-0.9,1-2.2,2-3.8c1-1.6,2.3-3,3.9-4.2c0.6,0.1,1.3,0.2,1.9,0.3c1.3,0.2,2.6,0.5,3.7,1
			c1.5,0.5,2.8,1.3,4,2.6c0,0,0,0,0.1,0.1c0.3,0.3,0.6,0.6,0.8,0.9c1.7,2,2.7,4.4,3.1,7.3c0.2,1.3,0.3,2.5,0.3,3.8
			c0.1,2.4-0.1,4.8-0.6,7.2c-0.7,3.6-1.6,6.8-2.9,9.7c-0.6,1.6-1.1,2.6-1.2,3.2c-0.3,1-0.5,2.1-0.6,3.3c0,0.3,0,0.7,0,1
			c0,2.2,0.2,4.1,0.7,5.7c0.1,0.5,0.3,1,0.6,1.6c0.2,0.6,0.6,1.3,0.9,2.1c0.7,1.5,1.3,2.8,1.5,3.8C91.4,125.6,91.6,126.8,91.7,128.1
			z"/>
		<path class="st29" d="M88.8,54.7L88.8,54.7c0.3,0.7,0.4,1.4,0.4,1.9c-0.1,0-0.3,0.1-0.4,0.1c-0.8,0.1-1.5-0.2-2.1-0.8
			c-0.3-0.3-0.6-0.7-0.9-1.1l0,0c0,0,0-0.1,0-0.1c0.3,0.1,0.6,0.3,0.9,0.3c0.6,0.1,1.2,0.1,1.8-0.1C88.5,54.8,88.7,54.7,88.8,54.7z
			 M87.6,42.1c-1.1,0.8-1.8,1.8-1.9,3c-0.8-0.7-1.5-1.9-2.1-3.6c0-0.1,0-0.2,0-0.4c0.3-1.8,0.6-3.2,1-4.2c0.1,0.8,0.2,1.4,0.3,1.8
			c0.2,0.5,0.6,1.1,1.2,1.8C86.9,41.4,87.3,41.9,87.6,42.1z M88,50.1c0.5,0,0.8,0.1,1,0.4c0,0,0,0,0,0.1c0,0.1,0.1,0.5,0.1,1
			c0,0.2,0,0.4,0,0.6c0,0.2,0,0.3,0,0.4c-0.1,0.4-0.4,0.6-0.9,0.8c-0.1,0-0.1,0-0.2-0.1c-0.1-0.1-0.3-0.2-0.3-0.3c0,0,0-0.1,0.1-0.2
			c0.1-0.1,0.1-0.2,0.2-0.4c0.1-0.1,0.1-0.2,0.2-0.3c0.1-0.2,0.2-0.5,0.2-0.7c0-0.2-0.1-0.5-0.2-0.8c0-0.1-0.1-0.2-0.1-0.2
			C88,50.4,88,50.2,88,50.1z"/>
		<path class="st30" d="M103.1,57.8c0.9,0.2,1.6,0.4,2.1,0.6c-0.1,0.1-0.2,0.2-0.3,0.4c-0.1,0.1-0.1,0.1-0.2,0.2
			c-0.2,0.3-0.4,0.6-0.6,0.9c0,0.1-0.1,0.1-0.1,0.2c-0.1-0.1-0.2-0.3-0.3-0.4v-0.1C103.3,59.3,103.1,58.6,103.1,57.8
			C103.1,57.8,103.1,57.8,103.1,57.8z"/>
	</g>
	<polygon class="st27" points="27.5,63.5 27.5,59.1 9,69.7 9,74.1 	"/>
</g>
</svg>
