<?xml version="1.0" encoding="utf-8"?>
<!-- Generator: Adobe Illustrator 25.2.3, SVG Export Plug-In . SVG Version: 6.00 Build 0)  -->
<svg version="1.1" id="Layer_1" xmlns="http://www.w3.org/2000/svg" xmlns:xlink="http://www.w3.org/1999/xlink" x="0px" y="0px"
	 viewBox="0 0 204.1 254.9" style="enable-background:new 0 0 204.1 254.9;" xml:space="preserve">
<style type="text/css">
	.st0{fill-rule:evenodd;clip-rule:evenodd;fill:#422E29;}
	.st1{fill-rule:evenodd;clip-rule:evenodd;fill:#F5D6C4;}
	.st2{fill-rule:evenodd;clip-rule:evenodd;fill:#C6684B;}
	.st3{fill-rule:evenodd;clip-rule:evenodd;fill:#E5BCA9;}
	.st4{fill-rule:evenodd;clip-rule:evenodd;fill:#B74729;}
	.st5{fill-rule:evenodd;clip-rule:evenodd;fill:url(#SVGID_1_);}
	.st6{fill-rule:evenodd;clip-rule:evenodd;fill:url(#SVGID_2_);}
	.st7{fill-rule:evenodd;clip-rule:evenodd;fill:#F0F7F7;}
	.st8{fill-rule:evenodd;clip-rule:evenodd;fill:#C4E4E7;}
	.st9{fill-rule:evenodd;clip-rule:evenodd;fill:#B1D7DA;}
	.st10{fill-rule:evenodd;clip-rule:evenodd;fill:#43847F;}
	.st11{fill-rule:evenodd;clip-rule:evenodd;fill:#C59178;}
	.st12{fill-rule:evenodd;clip-rule:evenodd;fill:#629E9B;}
	.st13{fill-rule:evenodd;clip-rule:evenodd;fill:#C17643;}
	.st14{fill-rule:evenodd;clip-rule:evenodd;fill:#DD8260;}
	.st15{fill-rule:evenodd;clip-rule:evenodd;fill:url(#SVGID_3_);}
	.st16{fill-rule:evenodd;clip-rule:evenodd;fill:#6E3A27;}
	.st17{fill-rule:evenodd;clip-rule:evenodd;fill:url(#SVGID_4_);}
	.st18{fill-rule:evenodd;clip-rule:evenodd;fill:url(#SVGID_5_);}
	.st19{fill-rule:evenodd;clip-rule:evenodd;fill:#1B2B38;}
	.st20{fill-rule:evenodd;clip-rule:evenodd;fill:#344959;}
	.st21{fill-rule:evenodd;clip-rule:evenodd;fill:#174F72;}
	.st22{fill-rule:evenodd;clip-rule:evenodd;fill:#49687C;}
	.st23{fill-rule:evenodd;clip-rule:evenodd;fill:#F1F2F2;}
	.st24{fill-rule:evenodd;clip-rule:evenodd;fill:#252525;}
	.st25{fill-rule:evenodd;clip-rule:evenodd;fill:url(#SVGID_6_);}
	.st26{fill-rule:evenodd;clip-rule:evenodd;fill:#94B4BE;}
	.st27{fill-rule:evenodd;clip-rule:evenodd;fill:url(#SVGID_7_);}
	.st28{fill-rule:evenodd;clip-rule:evenodd;}
	.st29{fill-rule:evenodd;clip-rule:evenodd;fill:url(#SVGID_8_);}
	.st30{fill-rule:evenodd;clip-rule:evenodd;fill:#0F263D;}
	.st31{fill-rule:evenodd;clip-rule:evenodd;fill:url(#SVGID_9_);}
	.st32{fill-rule:evenodd;clip-rule:evenodd;fill:#C1874D;}
	.st33{fill-rule:evenodd;clip-rule:evenodd;fill:#A67F5E;}
	.st34{fill-rule:evenodd;clip-rule:evenodd;fill:url(#SVGID_10_);}
	.st35{fill-rule:evenodd;clip-rule:evenodd;fill:#FFFFFF;}
	.st36{fill-rule:evenodd;clip-rule:evenodd;fill:#D4D3D3;}
	.st37{fill-rule:evenodd;clip-rule:evenodd;fill:url(#SVGID_11_);}
	.st38{fill-rule:evenodd;clip-rule:evenodd;fill:url(#SVGID_12_);}
	.st39{fill-rule:evenodd;clip-rule:evenodd;fill:#944B19;}
	.st40{fill-rule:evenodd;clip-rule:evenodd;fill:#723A1A;}
	.st41{fill-rule:evenodd;clip-rule:evenodd;fill:#2D605B;}
	.st42{fill-rule:evenodd;clip-rule:evenodd;fill:#E99F3F;}
	.st43{fill-rule:evenodd;clip-rule:evenodd;fill:#3C1D0C;}
	.st44{fill-rule:evenodd;clip-rule:evenodd;fill:#F5D299;}
	.st45{fill-rule:evenodd;clip-rule:evenodd;fill:#6EBFBC;}
	.st46{fill-rule:evenodd;clip-rule:evenodd;fill:#1B3F3B;}
	.st47{fill-rule:evenodd;clip-rule:evenodd;fill:url(#SVGID_13_);}
	.st48{fill-rule:evenodd;clip-rule:evenodd;fill:#102623;}
</style>
<g>
	<path class="st0" d="M128.9,219.7c6.3,3.8,9.5,8.3,9.5,13.6c0,5.5-3.3,10.1-10,14c-6.7,3.9-14.7,5.8-24.2,5.8
		c-9.4,0-17.5-1.9-24.1-5.8c-6.7-3.9-10-8.5-10-14c0-5.2,3-9.6,8.9-13.3c-0.9,1.6-1.9,3.1-2.9,4.6c-1.5,2-2.2,4.3-2.2,6.7
		c0,4.8,2.9,9,8.8,12.4c5.9,3.4,13.1,5.1,21.4,5.1c8.4,0,15.5-1.7,21.4-5.1c5.9-3.4,8.8-7.5,8.8-12.3c0-1.5-0.3-3-0.9-4.4
		c-1-1.3-1.9-2.6-2.7-4C130.2,221.9,129.6,220.8,128.9,219.7z"/>
	<path class="st1" d="M163.9,21.5c-0.2,1.5-1,2.5-2.2,3c-0.2,0.3,0.1,0.7,0.8,1.1c0.7,0.4,2.1-0.4,4-2.4l1.8-0.4
		c1.1-0.1,1.8,0.8,2,2.7c0.1,1-0.2,1.8-0.9,2.6l-0.2,0.2c0,0,0,0,0,0l-0.4,0.4c-0.8,0.6-1.6,1.1-2.6,1.3l0,0c-0.2,0-0.8-0.1-1.6-0.2
		c-0.7,0.8-1.5,1.5-2.3,2.2c-2.2,1.9-4.4,3-6.8,3.2c-0.2,0-0.8,0.1-1.6,0.2c-0.3,0-0.6,0.1-0.9,0.1l-1.4,0.2l-0.9,0.1
		c-0.3,0-0.6,0-0.7,0l-0.6-0.1c-0.1,0-0.2-0.1-0.3-0.1c-0.2-0.1-0.4-0.3-0.7-0.5v0l-0.3-0.4c-0.2-0.4-0.5-0.9-0.6-1.6l0-0.1
		l-0.6-1.7l-0.8-2.8c-0.3-1.1-0.6-2.1-0.6-3l-0.1-0.8c0-0.4,0-0.9-0.1-1.4c0,0,0.1,0,0.1,0c0-0.6,0-1.2,0-1.7c0.1-0.9,0.2-1.9,0.4-3
		l-0.1,0.1c0.3-1.3,0.6-2.4,1.2-3.4c1.3-0.3,2.1-0.5,2.4-0.5c1.2,0,2.4,0.2,3.8,0.7c1.9,0.6,4.1,1.7,6.5,3.2
		c1.3,0.8,2.5,1.6,3.8,2.6C163.6,21.2,163.8,21.4,163.9,21.5z M149.9,85.2c0.6-0.4,1.3-0.8,1.9-1.1c0.3-0.1,0.6-0.3,0.9-0.4
		c0.1,0,0.2,0,0.3-0.1c2.2-0.9,4.2-1.4,6.2-1.2c0.5,0,1.1,0.1,1.8,0.2l1.3,0.2c0,0.1-0.1,0.3-0.1,0.4c0,0.2-0.1,1.5-0.3,3.9
		c-0.1,1.5-0.5,2.8-1.2,3.8c-0.8,1.1-2.1,2.3-3.7,3.6c-0.1,0-0.1,0-0.1,0.1c-0.3,0.2-0.5,0.4-0.8,0.6h0c-0.2,0.1-0.4,0.1-0.6,0.1
		c-0.1,0-0.1,0-0.1,0c-0.3-0.1-0.4-0.2-0.5-0.5c0-0.1,0-0.2,0-0.3c0,0,0.1-0.4,0.2-1.1l-1.6-0.3c0-0.1,0-0.3,0-0.4
		c0.3,0,0.4-0.1,0.5-0.3c0-0.1,0-0.2,0-0.4c0-0.4-0.1-0.7-0.3-1c-0.3-0.5-0.7-0.8-1.4-1l0.2-0.6c0.1-0.2,0.1-0.3,0.1-0.5
		c0-0.1-0.1-0.2-0.2-0.3c-0.2-0.1-0.3-0.3-0.4-0.6c0.2-0.3,0.5-0.4,0.8-0.6c0.2-0.1,0.3-0.1,0.3-0.3c0,0,0-0.1,0-0.1
		c0,0,0-0.1-0.1-0.1c0-0.1-0.1-0.1-0.2-0.1c-0.2-0.1-0.4-0.2-0.5-0.2c0.1,0,0.3,0,0.5,0c0.1,0,0.2,0,0.3-0.1
		c0.2-0.1,0.4-0.2,0.6-0.3c0.1-0.1,0.1-0.1,0.2-0.2c0-0.1,0.1-0.1,0.1-0.2c-0.1-0.1-0.2-0.1-0.2-0.1c0,0-0.1,0-0.1,0
		c0-0.2-0.1-0.2-0.3-0.3c-0.2-0.1-0.5-0.1-1,0.1c-0.1,0-0.3,0-0.4,0.1c-0.6,0.2-1.2,0.4-1.9,0.6c-0.1,0-0.2,0-0.5-0.1
		c-0.1,0-0.2,0-0.3-0.1c-0.1,0-0.2,0-0.2,0c-0.2,0-0.3,0.1-0.4,0.2c0-0.1,0-0.1,0-0.2C149.1,85.7,149.5,85.4,149.9,85.2z
		 M102.9,48.3c1.1-3.4,2.2-6.6,3.5-9.8c0,2.4-0.4,4.7-1.3,6.7C104.4,46.4,103.7,47.4,102.9,48.3z M93.4,47.6c0,0.1-0.1,0.2-0.1,0.3
		l-0.2,0.4l0,0.1c-0.2,0.4-0.4,0.7-0.6,1c-0.2,0.2-0.3,0.5-0.6,0.6l0.1,0.2c0.2-0.1,0.5-0.3,0.7-0.4c0.5-0.4,0.9-0.9,1.2-1.4
		l2.6,3.4c-0.3,0.1-0.6,0.2-1,0.3c-0.3,0.1-0.6,0.2-1,0.3c-0.4-0.2-0.9-0.3-1.5-0.3c-1-0.2-1.9-0.5-2.6-0.9c-0.7-0.4-1.3-1-1.7-1.7
		c-0.1-0.2-0.3-0.4-0.4-0.7c0,0,0-0.1,0-0.1l-0.2-0.3c-0.1-0.1-0.1-0.2-0.2-0.3c-0.1-0.1-0.1-0.3-0.2-0.4L87.3,47
		c-0.1-0.1-0.1-0.1-0.1-0.1c0.8-2.8,1.6-5.1,2.2-6.7c0.5-1.1,1-2.1,1.5-3.1c0.7-1.2,1.4-2.3,2.2-3.3c0.9,0.5,1.3,1.1,1.3,1.8
		c0,0.5-0.2,1.2-0.6,2.1c-0.3,0.7-0.6,1.3-0.8,1.7c-0.1,0.2-0.1,0.4-0.2,0.6c-0.1,0.6-0.1,1.1,0.1,1.6c0.1,0.2,0.2,0.4,0.4,0.6
		c0.2,0.4,0.4,0.8,0.5,1.4c0.1,1.1,0.1,2.1-0.1,3c0,0.1,0,0.1,0,0.2l-0.1,0.5C93.5,47.3,93.5,47.5,93.4,47.6z M151.7,91.2
		C151.8,91.2,151.8,91.2,151.7,91.2L151.7,91.2C151.8,91.2,151.7,91.2,151.7,91.2z M151.3,89.2l-0.2-0.2c0.1,0,0.2,0,0.2,0
		C151.3,89.1,151.3,89.2,151.3,89.2z M51.4,18.5c0.8,3.2,1,6.8,0.7,10.7c-0.2,0.1-0.4,0.2-0.7,0.5c-0.9,0.8-1.9,1.1-2.9,0.9
		c-1-0.2-1.7-0.1-2.3,0.2c-0.6,0.4-1.1,1-1.6,1.9c-0.1,0.2-0.2,0.3-0.2,0.5c-0.2,0.3-0.4,0.8-0.8,1.5c-0.6,1.3-1,2.3-1,3.2
		c0,0.2,0,0.4,0.1,0.7c-1.2-0.3-2.4-0.7-3.4-1.2C36,35.9,34,33.8,33.4,31l1.4-0.5c-0.4-1-0.6-2-0.6-3c0.5-0.8,1-1.6,1.5-2.4
		c1.6-2.4,2.9-3.7,3.7-3.9c0.2-0.1,1.8-0.2,5-0.4c2.8-0.2,4.6-0.6,5.2-1.2C50.4,19.2,50.9,18.8,51.4,18.5z M51.5,33.6L51.5,33.6
		l-0.3,1.6l-0.5-0.9c-0.1-0.3-0.5-0.5-1.2-0.4c-0.7,0-1.2,0.4-1.4,1.3c-0.3,0.8-0.9,1.4-1.6,1.6c-0.2,0.1-0.4,0.1-0.5,0
		c0-0.6,0-1.3,0-2.1c0-0.5,0.1-0.8,0.3-1.1c0.2-0.3,0.6-0.4,1.1-0.5c0.5,0.1,0.9,0.1,1.4,0.1c0.1,0,0.3-0.1,0.4-0.1
		c0.6-0.1,1.2-0.4,1.9-0.9c0.3-0.2,0.6-0.3,0.8-0.4c-0.1,0.2-0.1,0.4-0.1,0.6C51.7,32.9,51.6,33.2,51.5,33.6z M37,109.3
		c0.3-0.6,0.6-1,0.8-1.2c0.1-0.1,0.1-0.1,0.2-0.2c1.2,0.4,2.3,0.8,3.2,1.2c1,0.4,2,0.7,2.8,1.1c0.7,0.3,1.4,0.7,2,1
		c1.6,0.8,2.9,1.7,4.1,2.6h0c-0.3,0-0.6,0-0.8,0c-0.9-0.1-1.8-0.3-2.7-0.6c-0.2-0.1-0.4-0.2-0.5-0.2c-1-0.5-1.6-0.8-1.9-0.9
		c-0.5-0.2-0.9,0-1,0.6c0.1,0.2,0.3,0.3,0.5,0.4c-0.7-0.1-1.4,0-2.1,0.4c0,0.1,0,0.2,0.1,0.3c0,0.2,0.1,0.4,0.2,0.6
		c-3.2,0.1-5.1,0.1-5.7,0c-0.7-0.1-1.1-0.4-1.1-1.1c0-0.3,0.1-0.6,0.3-1.1c0.6-0.8,1-1.4,1.2-1.8C36.7,110,36.9,109.6,37,109.3z
		 M164.9,203.1c0-0.1,0-0.1,0-0.2c0.1,0.1,0.2,0.1,0.3,0.1c1.5,0.6,3.3,0.5,5.5-0.2c0.1,0.6,0.2,1.2,0.3,1.8
		c-0.7,0.4-1.5,0.7-2.4,0.9c-1.1,0.3-2,0-2.6-1C165.6,204.3,165.3,203.7,164.9,203.1z M162.1,219.7c0.1-0.2,0.1-0.3,0.2-0.5
		c0.7-1.9,1-3.2,1.2-4c0.2-1.3,0.4-2.6,0.8-4.1c0.5-2.4,0.7-3.8,0.8-4.1c0.1-0.3,0.1-0.8,0-1.3c0.2,0.7,0.4,1.2,0.7,1.5
		c0.1,0.1,0.2,0.2,0.3,0.2c1.7,0.3,3.5,0.1,5.3-0.7c0.1,0.6,0.1,1,0.1,1.4c0,4.7-0.6,9.3-1.7,13.7c-0.7,0.3-1.1,0.4-1.2,0.4
		c-2.9,0-4.9-0.7-6-2.1C162.4,220.1,162.2,220,162.1,219.7z"/>
	<path class="st2" d="M50.2,15c-0.2,0.3-0.5,0.7-0.8,0.9c-0.3,0.3-0.7,0.5-1,0.6c-0.1,0.1-0.2,0.2-0.3,0.2c0.1-0.1,0.2-0.2,0.2-0.3
		c0.5-0.8,0.8-1.5,0.8-2c0-2.9-1.2-4.8-3.6-5.6L45.4,9c1.9,1.3,2.8,2.9,2.8,4.8c0,0.9-0.8,2.2-2.4,3.7c-0.1,0.1-0.2,0.2-0.4,0.4
		c-0.4,0.1-0.8,0.2-1.2,0.2c-0.1,0-0.3,0-0.4,0c0.1-0.1,0.2-0.2,0.2-0.3c0.6-0.9,1-1.9,1-2.8c0-2.9-1-4.6-3.1-5h-0.1
		c1.2,1,1.9,1.8,2.2,2.3c0.2,0.3,0.3,1.1,0.3,2.2c0,1.1-0.5,2.3-1.6,3.5c-0.1,0.1-0.2,0.2-0.3,0.3c-0.5,0-0.9,0-1.5,0
		c-0.3,0-0.6,0-1,0c0.1-0.1,0.2-0.2,0.3-0.3c1-1.2,1.5-2.3,1.5-3.2c0-0.7-0.3-1.5-0.9-2.3c-0.6-0.9-1.2-1.4-2-1.6
		c1.4,1.3,2,2.5,2,3.7c0,1-0.6,2.1-1.9,3.3c-0.1,0.1-0.2,0.2-0.3,0.3c-0.2,0-0.4,0-0.8,0c0.1-0.1,0.2-0.2,0.2-0.3
		c0.9-1,1.4-2.1,1.4-3.2c0-0.1,0-0.1,0-0.2c-0.1-0.9-0.3-1.6-0.9-2c-0.5-0.5-1-0.7-1.6-0.8c-0.6-0.1-1.4,0-2.5,0.2
		c1-0.7,2.7-1.7,4.9-2.8c1.6-0.8,2.9-1.4,3.9-1.7c0.9-0.3,1.6-0.4,2.1-0.4c1.6,0,3,0.5,4,1.6c0.9,1,1.3,2.1,1.3,3.5
		C50.8,13.3,50.6,14.3,50.2,15z"/>
	<path class="st3" d="M146.9,15c0.6-1.3,1.5-2.4,2.5-3.3c0.6-0.1,1.3-0.1,1.9,0c0.3,0,0.7,0.1,1.1,0.1c0.3,0.1,0.7,0.1,1,0.2
		c0.6,0.5,1.2,0.6,1.8,0.5c0.3,0.1,0.7,0.3,1,0.4c1,1.1,2,1.7,3,1.6c0,0,0,0,0.1,0c1.5,0.9,2.8,1.9,3.7,2.8c0.5,0.4,0.8,1,1,1.8
		c0.1,0.9,0.1,1.6,0,2.3c-0.2-0.1-0.3-0.3-0.5-0.4c-1.3-1-2.6-1.9-3.8-2.6c-2.4-1.5-4.6-2.6-6.5-3.2c-1.4-0.5-2.6-0.7-3.8-0.7
		C149,14.5,148.2,14.7,146.9,15z M94,48.4c-0.3,0.5-0.8,1-1.2,1.4c-0.2,0.2-0.4,0.3-0.7,0.4l-0.1-0.2c0.2-0.2,0.4-0.4,0.6-0.6
		c0.2-0.3,0.4-0.6,0.6-1l0-0.1l0.2-0.4c0.1-0.1,0.1-0.2,0.1-0.3L94,48.4z M152.5,85.9c-0.2,0.1-0.3,0.2-0.5,0.4v0l0,0
		c0.1,0,0.1,0.1,0.2,0.1v0c0.1,0.1,0.3,0.2,0.5,0.2c0.1,0,0.1,0.1,0.2,0.1c0.1,0,0.1,0,0.1,0.1c0,0,0,0,0,0.1c0,0.1-0.1,0.2-0.3,0.3
		c-0.3,0.1-0.6,0.3-0.8,0.6c0.1,0.3,0.3,0.5,0.4,0.6c0.1,0.1,0.2,0.2,0.2,0.3c0,0.2,0,0.4-0.1,0.5l-0.2,0.6c0.6,0.1,1.1,0.5,1.4,1
		c0.2,0.3,0.3,0.7,0.3,1c0,0.2,0,0.3,0,0.4c-0.1,0.2-0.3,0.3-0.5,0.3v0c0-0.1,0-0.2,0-0.3c0-0.3,0-0.6,0-0.9c0,0,0,0,0-0.1
		c0,0,0,0,0-0.1c0,0,0,0,0-0.1h-1.5c0,0,0,0-0.1,0c-0.3-0.5-0.4-1.1-0.4-1.9l-0.1-0.1c0,0,0-0.1,0-0.1c-0.1,0-0.2,0-0.2,0l0,0
		l-0.3-0.2c-0.1-0.1-0.2-0.2-0.3-0.2l0-1.4c-0.5-0.1-0.8-0.2-1.1-0.3c0,0,0,0-0.1,0c-0.2-0.1-0.3-0.3-0.4-0.4c0-0.1,0-0.2-0.1-0.2
		c0.1-0.2,0.2-0.2,0.4-0.2c0.1,0,0.1,0,0.2,0c0.1,0,0.2,0.1,0.3,0.1c0.2,0.1,0.4,0.1,0.5,0.1c0.7-0.2,1.3-0.5,1.9-0.6
		c0.1,0,0.3-0.1,0.4-0.1c0.5-0.1,0.8-0.2,1-0.1c0.2,0,0.3,0.1,0.3,0.3c0,0-0.1,0-0.1,0h0c-0.1,0-0.3,0-0.5,0.1
		C152.8,85.8,152.7,85.8,152.5,85.9z M35.6,23.4c0.5-0.9,0.9-1.7,1.2-2.2c0.5-1.1,0.8-2.1,1-3h0.1c0.3,0,0.6,0,0.8,0
		c0.5,0,0.8,0,0.8,0h0.1c0.2,0,0.3,0,0.4,0c0.4,0,0.7,0,1,0c0.5,0,1,0,1.5,0h0.4c0.3,0,0.7,0,1,0v-0.1c0.1,0,0.2,0,0.4,0
		c0.4-0.1,0.8-0.2,1.2-0.2l1.9-0.7c0.2-0.1,0.4-0.2,0.6-0.3h0.1c0.1-0.1,0.2-0.2,0.3-0.2c0.3-0.2,0.7-0.4,1-0.6
		c0.3-0.3,0.6-0.6,0.8-0.9c0.2,0.4,0.3,0.8,0.4,1.3c0.2,0.7,0.5,1.4,0.7,2.2c0.1,0,0.1,0,0.1,0.1c-0.5,0.3-1,0.7-1.6,1.1
		c-0.6,0.6-2.4,1-5.2,1.2c-3.2,0.2-4.9,0.3-5,0.4c-0.9,0.2-2.1,1.5-3.7,3.9c-0.5,0.8-1,1.6-1.5,2.4c0.1-1.1,0.4-2.3,1-3.5
		C35.4,23.8,35.5,23.6,35.6,23.4z M51.8,31.9c-0.2,0.1-0.5,0.2-0.8,0.4c-0.6,0.4-1.3,0.7-1.9,0.9c-0.1,0-0.3,0-0.4,0.1
		c-0.5,0.1-0.9,0-1.4-0.1c-0.5,0.1-0.8,0.2-1.1,0.5c-0.2,0.3-0.4,0.6-0.3,1.1c0,0.8,0,1.5,0,2.1c-0.5-0.1-0.7-0.4-0.8-1
		c-0.1-0.2,0-0.5,0-1c0.1-0.5,0.3-1,0.6-1.4c0.2-0.5,0.6-1,1-1.2c0.4-0.3,1.1-0.5,1.9-0.4c0.9,0.1,1.9-0.3,3.1-1l-0.2,1
		c0.1-0.1,0.1-0.1,0.2-0.1v0.1V31.9z M41.8,114.3c0,0.1,0.1,0.2,0.1,0.3l-9.9,2.7c-0.2-0.6-0.3-1.3-0.6-2c1.3-0.4,2.4-1.2,3.3-2.5
		c0.2-0.2,0.4-0.5,0.5-0.7c-0.2,0.5-0.3,0.8-0.3,1.1c0,0.7,0.4,1.1,1.1,1.1C36.8,114.3,38.7,114.3,41.8,114.3z M38,107.8
		c-0.1,0.1-0.1,0.1-0.2,0.2c-0.2,0.3-0.5,0.7-0.8,1.2c0.1-0.4,0.3-0.9,0.4-1.4c0-0.1,0-0.1,0-0.2l0.3,0.1
		C37.9,107.8,37.9,107.8,38,107.8z M46,114c-0.2-0.1-0.4-0.2-0.6-0.2v-0.2l-0.2,0.1c-0.3-0.2-0.5-0.3-0.8-0.4
		c-0.1-0.1-0.3-0.1-0.4-0.2l-0.1-0.1c-0.1,0-0.1,0-0.2,0l-0.1,0c-0.2-0.1-0.4-0.3-0.5-0.4c0.1-0.6,0.4-0.8,1-0.6
		c0.3,0.2,0.9,0.5,1.9,0.9c0.2,0.1,0.3,0.2,0.5,0.2c0.9,0.4,1.8,0.6,2.7,0.6c0.3,0,0.5,0,0.8,0h0c-0.6,0.7-1.2,1.1-1.8,1.1
		c-0.5-0.1-1.3-0.4-2.2-0.8C46.1,114,46,114,46,114z M165.5,199.9c0.6,0.6,1.3,0.9,2.1,1c0.1,0,0.3,0,0.4,0c1.3,0,3.1-0.8,5.3-2.3
		c-0.1,0.6,0,1.3,0,2c0,0.4,0.1,0.9,0.2,1.5c-0.6,1.1-1.5,2-2.5,2.7c-0.1-0.7-0.2-1.3-0.3-1.8c-2.1,0.7-3.9,0.7-5.5,0.2
		c-0.1,0-0.2-0.1-0.3-0.1c0-0.1,0-0.2,0-0.3C165.1,201.8,165.3,200.9,165.5,199.9z M174,204.4c0.1,0.6,0.2,1.4,0.1,2.2
		c-0.1,0.4-0.2,1.3-0.4,2.6c-0.3,1.3-0.5,3.6-0.6,6.9c-0.1,2.4-0.2,4.4-0.4,6c0,0.4-0.2,0.7-0.5,1c-1.4,1-3.1,1.4-5.3,1.3
		c-1.2-0.1-2.5-0.2-3.8-0.4c-1.3-0.2-1.9-0.8-1.7-1.7c0,0,0,0,0-0.1v0c0.2-0.7,0.4-1.6,0.7-2.6c0.1,0.2,0.3,0.4,0.4,0.6
		c1.1,1.4,3.1,2.1,6,2.1c0,0,0.4-0.1,1.2-0.4c1.1-4.4,1.7-9,1.7-13.7c0-0.4,0-0.9-0.1-1.4c0.2-0.1,0.4-0.2,0.5-0.3
		C172.8,206,173.5,205.3,174,204.4z M149.2,192.4c0.1-0.3,0.1-0.6,0.1-0.9c0.2-1.6,0.3-3,0.2-4.2c0.7,0.2,1.7,0.4,3,0.8
		c1.9,0.5,3.2,1,4.1,1.6v0c-0.1,0.1-0.1,0.1-0.2,0.1l-0.1,0.1c-1.9,1.1-4,1.8-6.1,2.3l-0.8,0.1C149.3,192.4,149.3,192.4,149.2,192.4
		z M157.6,190.7c0.5,0.7,0.8,1.7,0.8,2.8c0,0.4-0.9,1.9-2.6,4.4c-1.8,2.5-2.6,3.8-2.6,3.8c-0.1,0.2-0.1,0.8-0.1,1.8
		c0,1-0.1,1.7-0.2,2.3c-0.5,2-1.7,2.9-3.7,2.9c-1.2,0-2.3-0.6-3.3-1.8v0c0.1-0.1,0.2-0.3,0.2-0.4c1.7-2.5,2.6-5.5,2.7-9
		c0-0.5,0.1-1.6,0.3-3.4c2.5-0.2,4.7-0.9,6.5-2l0.8-0.4C156.7,191.4,157.2,191.1,157.6,190.7z"/>
	<path class="st4" d="M50.5,40c-0.4,0.1-1,0.2-1.8,0.4c-0.2,0.1-0.5,0.1-0.8,0.1c-1.7,0-3.2-0.2-4.7-0.5c-0.3-0.5-0.5-0.9-0.6-1.3
		c-0.1-0.2-0.1-0.5-0.1-0.7c0-0.9,0.3-2,1-3.2c0.4-0.7,0.6-1.2,0.8-1.5c0.1-0.2,0.2-0.3,0.2-0.5c0.5-0.9,1-1.5,1.6-1.9
		c0.6-0.3,1.4-0.4,2.3-0.2c1,0.2,1.9-0.1,2.9-0.9c0.3-0.2,0.5-0.4,0.7-0.5c0.5-0.2,0.7,0,0.6,0.6c-0.1,0.8-0.4,1.4-0.8,1.8
		c-0.1,0-0.1,0.1-0.2,0.1l0.2-1c-1.2,0.8-2.2,1.1-3.1,1c-0.9-0.1-1.5,0-1.9,0.4c-0.5,0.3-0.8,0.7-1,1.2c-0.3,0.5-0.5,1-0.6,1.4
		c-0.1,0.5-0.1,0.8,0,1c0.1,0.6,0.3,0.9,0.8,1c0.2,0,0.3,0,0.5,0c0.7-0.2,1.3-0.7,1.6-1.6c0.3-0.9,0.7-1.3,1.4-1.3
		c0.6-0.1,1,0.1,1.2,0.4l0.5,0.9l0.3-1.6v0c0.5,1.4,0.7,2.4,0.7,3.1c0,0.3,0,0.6,0,0.8c0,0.2,0,0.5,0,0.6c-0.1,0.2-0.1,0.4-0.2,0.6
		c-0.2,0.3-0.5,0.7-0.9,0.9C51,39.8,50.8,39.9,50.5,40z"/>
	<linearGradient id="SVGID_1_" gradientUnits="userSpaceOnUse" x1="57.1805" y1="66.152" x2="64.5778" y2="65.8125">
		<stop  offset="0" style="stop-color:#391715"/>
		<stop  offset="1" style="stop-color:#6E3A27"/>
	</linearGradient>
	<path class="st5" d="M65.2,56.2c-0.1,0.1-0.3,0.1-0.4,0.2c-0.1,0-0.2,0-0.3,0.1c-1.3,0.6-2.2,1.1-2.8,1.3v2.8l1.6,0.1
		c0.3,0,0.9-0.2,1.9-0.7c0.1-0.1,0.2-0.1,0.3-0.2h0c0.1,0.7,0.2,1.3,0.3,2c0.1,0.7,0.1,1.5,0.1,2.3c-0.1,1.5-0.1,2.9-0.3,4.3
		c-0.1,1.7-0.3,3.5-0.6,5.3c-0.5,4-0.6,8-0.3,11.9c0.1,1.2,0.2,2.3,0.2,3.5c0,0.6,0,1.2,0,1.8c0,2.4-0.3,4.7-0.8,6.9
		c-0.1,0.2-0.1,0.5-0.2,0.8c-0.2,0.7-0.5,1.4-1,1.8l-0.3-0.4L60.7,97c0-0.5,0-1.1,0-1.6c0-0.1,0-0.1,0-0.2
		c-0.2-11.9-1.2-21.6-2.9-29.2c0.1-1.2,0.1-2.3,0.1-3.3c0.1-3.7-0.1-6.8-0.6-9.3c-0.5-2.7-0.9-4.6-1.2-5.7c-0.1-0.2-0.1-0.5-0.2-0.6
		c-0.2-1-0.5-1.8-0.6-2.4c-0.2-0.5-0.5-1.2-0.9-2.4c-0.2-0.5-0.4-1-0.6-1.6c-0.1-0.3-0.2-0.6-0.3-0.9c-0.3-0.8-0.7-1.6-1.1-2.3
		c0-0.3,0-0.5,0-0.8c0-0.7-0.2-1.7-0.7-3.1c0.1-0.4,0.2-0.7,0.2-1.1c0-0.2,0.1-0.5,0.1-0.6v-0.1c1.8-0.1,3.6,0.1,5.4,0.5
		c0.1,0.2,0.2,0.3,0.3,0.5c0.9,1.7,1.8,3.4,2.6,5c1.8,3.6,3.3,7.3,4.3,11.2c0.2,1.9,0.3,3.9,0.5,5.9C65.1,55.3,65.2,55.8,65.2,56.2z
		"/>
	
		<linearGradient id="SVGID_2_" gradientUnits="userSpaceOnUse" x1="-2353.3401" y1="-1423.1802" x2="-2311.8953" y2="-1423.1802" gradientTransform="matrix(-1 0 0 -1 -2260 -1365.1746)">
		<stop  offset="0" style="stop-color:#9ECDD2"/>
		<stop  offset="1" style="stop-color:#BDE3E6"/>
	</linearGradient>
	<path class="st6" d="M88,51.9c1.1,1.3,2.3,1.7,3.6,1.5l1.2-0.4c-0.1,0.3-0.3,0.7-0.4,1.1c-0.6,1.7-1.2,3.7-1.9,6.1
		c-1.3,4.4-2.3,7.6-3.2,9.6c-0.5,1.1-1.1,2.7-1.9,4.6c-0.7,1.7-1.5,3.2-2.2,4.4c-0.3,0.5-0.7,1.4-1.3,2.7c-0.6,1-1.5,1.6-2.4,1.8
		c-1.4,0.1-2.6-0.1-3.8-0.7c-1.2-0.5-2.2-1.2-3-2.1c-0.8-0.9-1.5-2.1-2.2-3.6l-1.7-3.8c-0.6-1.2-1.5-2.7-2.6-4.3
		c-0.1-0.1-0.1-0.2-0.2-0.3c0.1-1.4,0.2-2.9,0.3-4.3c0-0.8,0-1.6-0.1-2.3c-0.1-0.7-0.2-1.3-0.3-2c-0.1-0.9-0.2-1.8-0.3-2.6
		c-0.1-0.3-0.1-0.6-0.1-0.9c-0.1-0.5-0.2-0.9-0.2-1.4c-0.2-2-0.4-3.9-0.5-5.9c-1.1-3.8-2.5-7.6-4.3-11.2c-0.9-1.7-1.7-3.4-2.6-5
		c0.4,0.1,0.8,0.1,1.1,0.2c0.1,0,0.2,0.1,0.3,0.1c0.2,0.2,0.3,0.5,0.5,0.8c0.8,1.2,1.3,2.2,1.7,3.1c1.9,4.4,3.6,8.7,5.1,12.7
		c1.1,3.2,3,8.6,5.6,16.2c2.4,6.2,4.5,9.2,6.2,9.2c1.4,0,3.7-4.9,6.9-14.6C86.2,57,87.2,54.1,88,51.9z"/>
	<path class="st7" d="M168.6,38.5c-0.1,0.1-0.2,0.3-0.4,0.6c-0.1,0.1-0.2,0.2-0.2,0.3c-0.4,0.4-2,1.2-4.9,2.3
		c-2.6,1-4.9,2.1-6.9,3.1c-0.1-1-0.1-1.8-0.2-2.6c-0.2-2.9-0.4-4.6-0.4-4.9c0.7,0.2,1.5,0.2,2.3,0.2c0.7-0.1,1.6-0.2,2.6-0.5
		c1.1-0.3,1.9-0.5,2.3-0.6c0.9-0.3,1.6-0.6,2.1-1c0.5-0.4,0.9-1,1.2-1.8c0.1-0.3,0.2-0.7,0.2-0.9c0.2,0.4,0.4,0.7,0.5,0.9
		c0.1,0.2,0.3,0.6,0.4,1.1c0.2,0.5,0.5,1.1,0.8,1.8c0.1,0.2,0.1,0.3,0.2,0.5C168.3,37.4,168.5,38,168.6,38.5z M152.5,40.7
		c-1,1.1-1.7,1.7-2,1.7c-0.2,0-0.4,0-0.5-0.1c0.4-2.8,0.9-5,1.6-6.8l1.4-0.2c0.3-0.1,0.6-0.1,0.9-0.1l0.4,1c0.2,0.5,0.5,0.8,0.9,1
		c0.1,0,0.2,0.1,0.2,0.1h0c-0.2,0.2-1.1,1.2-2.5,2.9C152.8,40.4,152.6,40.5,152.5,40.7z M151.5,63.7L151.5,63.7l-2,1.3l1.4,0.4
		l-1.2,0.7l-1.2,0.7c-0.2,0.1-0.3,0.2-0.4,0.3c-0.5,0.4-0.8,0.8-0.9,1.3c-0.1,0.4-0.1,0.9,0.2,1.4l5.3,13.8
		c-0.3,0.1-0.6,0.3-0.9,0.4l-0.7-1.9l-1.5-3.7l-3.5-9.1c-0.4-1-0.2-1.8,0.5-2.5c0.2-0.2,0.4-0.4,0.7-0.6l0.6-0.4l2.6-1.6L151.5,63.7
		z M163,56.7l1.8-1.2c0.2-0.1,0.4-0.2,0.6-0.3c0.8-0.3,1.4-0.2,1.8,0.4c-0.3,0.1-0.7,0.2-1.2,0.4l-1.7,1L163,56.7z M152.7,86.5
		l-0.2-0.6c0.1-0.1,0.3-0.2,0.4-0.2c0.2-0.1,0.4-0.1,0.5-0.1l0.2,0.5c-0.2,0.1-0.4,0.2-0.6,0.3C152.9,86.4,152.8,86.5,152.7,86.5z
		 M158.6,98.7c-0.7,0.1-1.2-0.3-1.5-1.1l-1-2.5c0.3-0.1,0.6-0.1,0.9-0.2h0l1.2,3.2C158.4,98.4,158.5,98.6,158.6,98.7z M58.7,33
		c0.9,0.2,1.8,0.6,2.6,1.1c2,1.1,3.5,2.6,4.4,4.6c1.5,3.4,2.5,6.2,3.2,8.4c0.8,2.4,2,5.1,3.6,8.3c1.1,2.2,2.5,4.8,4.3,8
		c2.1-2.6,3.6-4.7,4.7-6.3c1.7-2.5,2.9-4.7,3.7-6.8c0.1-0.4,0.2-0.6,0.3-0.6c0.3-0.5,0.6-0.9,1-1.1c-0.2,1,0.3,2.1,1.3,3.3v0
		c-0.8,2.2-1.8,5.1-2.9,8.5c-3.2,9.7-5.5,14.6-6.9,14.6c-1.8,0-3.8-3.1-6.2-9.2c-2.7-7.6-4.6-13-5.6-16.2c-1.5-4-3.2-8.3-5.1-12.7
		c-0.4-0.9-1-1.9-1.7-3.1c-0.2-0.3-0.4-0.5-0.5-0.8C58.9,33.1,58.8,33,58.7,33z M53.5,41.1c1,2.5,1.6,5.1,1.8,7.8
		c0.1,0.6,0,1.2-0.1,1.7c-0.1,0.3-0.2,0.7-0.3,1c-0.1,0.2-0.2,0.4-0.4,0.5c-0.2-0.4-0.3-0.8-0.5-1.2c-0.4-0.8-0.8-1.6-1.3-2.3h0
		c0,0,0,0,0-0.1c-0.2-0.4-0.5-0.7-0.9-1c-0.1-0.2-0.3-0.3-0.5-0.5c0,0-0.1,0-0.1,0c-0.1-0.1-0.2-0.1-0.3-0.1c0,0,0,0-0.1-0.1
		c-0.1,0-0.1,0-0.1,0c-0.1,0-0.1,0-0.2,0c-0.7,0.3-1.2,0.8-1.5,1.6c-0.1,0.1-0.1,0.3-0.1,0.4c0,0.1-0.1,0.2-0.1,0.2c0,0,0,0.1,0,0.1
		c0,0.1-0.1,0.1-0.1,0.2c0,0.1,0,0.2,0,0.4V50c-0.1,1.5-0.2,3-0.2,4.5c0,0,0,0,0,0.1c-1.7,0.5-3.1,0.2-4.3-1
		c-2.7-2.3-5.5-4.5-8.6-6.4c-2.1-1.3-4.1-2.7-6.2-4L29,43.1c-0.5-0.3-1-0.6-1.5-0.9c0-0.1,0-0.1,0-0.2c0.6-1.9,1.9-3.8,3.7-5.8
		c0.1-0.1,0.2-0.2,0.2-0.2c0,0.1,0,0.3,0.1,0.4c0.1,1.1,0.9,2,2.4,2.9c0.8,0.4,2.8,1,6,1.9c1.4,0.4,3,1.1,4.6,2.2l4.3,2.7
		c0-0.2,0-0.3,0-0.4c0.2,0.4,0.5,0.6,0.6,0.6c1.2,0,1.8-0.6,1.8-1.8c0-1.3-0.1-2.3-0.2-2.9c-0.1-0.3-0.3-0.8-0.6-1.6
		c0.3-0.1,0.5-0.2,0.6-0.3c0.4-0.3,0.7-0.6,0.9-0.9c0.1-0.2,0.1-0.4,0.2-0.6c0.3,0.6,0.6,1.2,0.9,1.8C53.2,40.4,53.4,40.7,53.5,41.1
		z M84.3,54.7c0,0.4,0.1,0.7,0.2,0.9l0.4,0.1c0.2,0,0.5-0.2,0.8-0.5c0.2-0.3,0.4-0.6,0.4-0.9v-1.5c-0.7-0.1-1.2,0.2-1.6,0.8
		C84.4,53.9,84.3,54.3,84.3,54.7z M20.9,48.9c0.4-0.2,1-0.1,1.7,0.4c0.8,0.5,2.1,2,4.1,4.6c1.7,2.2,2.8,5.5,3.6,10
		c0.1,0.7,0.2,1.4,0.3,2.2c-0.6,5-1.2,8.6-1.9,10.7v0.1c-0.8,3-1.2,4.7-1.3,5.3c0,0.8,0,1.5,0,2.3c0,3.9,0.7,8,1.9,12.2
		c0.1,0.3,0.2,0.6,0.4,0.8l0,0.1c0,0,0,0.1,0,0.1c0.2,0.5,0.5,0.9,0.8,1.4c0.9,1.3,2.1,2.7,3.8,4l2,1.5c0.2,0.3,0.5,0.5,0.6,0.8
		c0.6,0.9,0.8,1.7,0.7,2.4c0,0.1,0,0.1,0,0.2c-0.2,0.5-0.3,1-0.4,1.4c-0.2,0.4-0.3,0.7-0.4,1c-0.2,0.4-0.7,1-1.2,1.8
		c-0.2,0.2-0.3,0.4-0.5,0.7l-8.6-8.6c-1.8-2.2-3-4-3.5-5.4c-1.6-4.6-2.3-12.2-2.1-22.6c0-1.5,0-2.9,0-4.3c0.1-10.5,0-16.6-0.2-18.5
		v-0.1C20.3,52.5,20.5,51.1,20.9,48.9z M30.7,104l-0.1,0.2c-0.1,0.1-0.1,0.2-0.1,0.6c0,0.5,0.3,1,1,1.6c0.7,0.6,1.2,0.9,1.6,0.9
		c0.2,0,0.4,0,0.5,0c0.1-0.1,0.2-0.1,0.3-0.1c0.3-0.2,0.5-0.4,0.6-0.8c0-0.1,0-0.2,0-0.3c0-0.6-0.3-1.1-1-1.5
		c-0.1-0.1-0.3-0.2-0.4-0.2c-0.5-0.3-1.2-0.4-1.8-0.3C31.1,104,30.9,104,30.7,104z"/>
	<path class="st8" d="M173.4,43c0.5,0.4,1,0.8,1.5,1.3c0,0-0.1,0-0.1,0c-0.1,0-0.2,0.1-0.3,0.1c-0.5,0.1-0.9,0.2-1.4,0.4
		c-0.6,0.2-1.2,0.4-1.8,0.7c-0.9,0.4-1.7,0.8-2.4,1.3c-1.3,0.8-2.4,1.7-3.3,2.8c-1.7,2-2.6,4.1-2.6,6.4c0,0.1,0,0.4,0,0.8l-1.9,1.2
		c-0.3-0.5-0.7-0.8-1.3-0.9v0c-0.7-0.2-1.4,0-2.2,0.4l-4.4,2.6c-0.7,0.4-1.2,1-1.5,1.7c-0.2,0.7-0.3,1.3-0.1,1.9l-0.9,0.6
		c-0.7-0.9-1.3-2.1-1.8-3.5c0.3-1.3,0.9-2.8,1.7-4.7c0.6-1.2,1.7-3.3,3.4-6.4c1.8-3.1,5.1-5.7,9.9-7.8c2.1-0.8,3.6-1.4,4.4-1.7
		c0.1,0,0.2-0.1,0.2-0.1c0.6-0.2,1-0.4,1.3-0.6c0.2,0.2,0.4,0.3,0.4,0.4C171.2,41,172.2,42,173.4,43z M153,42.2
		c-3.8,5-6.5,10.3-8.2,15.9c-0.3,0.3-0.6,0.6-1,0.8c-0.9,0.4-2.2,0.6-3.9,0.6c-2.5,0-3.9-1.2-4.3-3.6c0-0.3-0.1-0.5-0.1-0.8
		c0.2-0.3,0.4-0.7,0.6-1.1c0.6-0.9,1.5-2.2,2.9-3.8c0.4-0.5,0.7-0.9,1-1.4c0.6-1,1.1-2,1.4-3.2c0,0,0-0.1,0-0.1
		c0.3-1.5,0.6-2.5,0.9-3c1.8-3.8,3.1-6.4,4-7.8c0.4-0.7,0.9-1.3,1.3-1.8l0,0.1c0.2,0.7,0.4,1.2,0.6,1.6l0.3,0.4v0
		c0.2,0.2,0.5,0.4,0.7,0.5c0.1,0.1,0.2,0.1,0.3,0.1l0.6,0.1c0.2,0,0.4,0,0.7,0l0.9-0.1c-0.7,1.7-1.3,4-1.6,6.8
		c0.1,0.1,0.3,0.1,0.5,0.1c0.3,0,1-0.6,2-1.7c0,0.5,0.1,0.9,0.2,1.2C152.8,42,152.9,42.1,153,42.2z M152.5,63.2
		c-0.1-0.3,0-0.7,0.2-1.1c0.2-0.6,0.6-1,1.1-1.3l4.4-2.7c0.4-0.3,0.8-0.4,1.2-0.3l0,0c0.4,0.1,0.7,0.4,0.8,0.7l-0.6,0.3
		c-0.1,0.1-0.1,0.1-0.2,0.1c-0.1,0.1-0.2,0.1-0.3,0.1C157,60.4,154.8,61.8,152.5,63.2z M184.7,72.7L184.7,72.7
		c-0.3-0.3-0.8-0.7-1.3-1.2c-0.4-0.3-1.5-1.6-3.3-3.8c-2-2.3-3.5-4-4.8-5c-0.1-0.1-0.5-0.5-1.2-1.2c-0.1-0.1-0.1-0.1-0.2-0.2
		c-0.7-0.7-1.1-1.1-1.2-1.1c0,0-0.3,0.1-0.8,0.3c-0.5,0.2-1.1,0.3-1.6,0.3l-1.6-4.1c-0.3-0.9-0.9-1.2-1.6-1.1
		c-0.4-0.6-1-0.7-1.8-0.4c0.1-0.4,0.2-0.8,0.4-1.3c0.4-0.5,0.7-1,0.8-1.4c0.1-0.2,0.3-0.3,0.7-0.4c0.5-0.2,1.2-0.3,2.2-0.3
		c1.8-0.1,3.1,0.2,4.1,0.8c1,0.6,1.9,1.3,2.7,2.1c0.9,0.8,1.4,1.4,1.6,1.6c1.8,1.9,3.5,3.9,5.3,6.1c3.6,4.2,5.3,6.7,5.3,7.6
		c0,0.7-0.5,1.3-1.4,1.8l-0.1,0c-0.5,0.3-1.2,0.6-1.9,0.8c-0.2,0.1-0.5,0.1-0.7,0.1C184.6,72.8,184.7,72.8,184.7,72.7z M151.8,84.1
		c-0.6,0.3-1.3,0.7-1.9,1.1c0.4-0.7,0.8-1.8,1.2-3L151.8,84.1z M154.8,94.8c-2.8-0.2-5.4-0.9-7.9-2.1c-0.3-0.7-0.7-1.2-1.3-1.5
		c-0.3-0.2-0.6-0.3-0.9-0.3l-3.4-2c-1.3-1.4-2.1-3-2.2-4.7v-0.4c0,0,0,0,0-0.1c0-0.9,0-1.3,0.1-1.4c0-0.1,0.1-0.2,0.1-0.3
		c0.2-0.6,0.2-0.9,0.2-1c0,0,0,0,0-0.1c0.1-0.4,0.3-0.9,0.8-1.6c0.7-1,1-1.6,1.1-1.8c0.2-0.5,0.3-0.7,0.3-0.8
		c0.1-0.3,0.1-0.8,0.1-1.5c0-0.5-0.2-1.4-0.6-2.8c-0.2-0.8-0.4-1.4-0.6-1.9c0.1-0.1,0.3-0.1,0.4-0.1c1.1-0.4,2-0.6,2.6-0.7
		c0.2,1.6,0.5,4.1,0.9,7.4c0.2,1.5,0.4,2.6,0.6,3.6c0.1,0.9,0.2,1.7,0.3,2.5c0.1,0.7,0.4,1.4,1,1.9c0.1-0.1,0.3-0.1,0.4-0.2
		c0.3,1.3,0.6,1.9,1.1,1.9c0.3,0,0.6-0.1,0.8-0.2c0.1,0.2,0.3,0.3,0.4,0.4c0,0,0.1,0,0.1,0c0.2,0.1,0.6,0.2,1.1,0.3l0,1.4
		c0.1,0.1,0.2,0.2,0.3,0.2L151,89l0,0l0.2,0.2l0.1,0.1c0,0.7,0.1,1.4,0.4,1.9c0,0,0,0,0,0h0h1.5c0,0,0,0.1,0,0.1c0,0,0,0.1,0,0.1
		c0,0,0,0.1,0,0.1c0,0.3,0,0.6,0,0.9c0,0.1,0,0.2,0,0.3v0c0,0.1,0,0.3,0,0.4l1.6,0.3c-0.1,0.7-0.2,1.1-0.2,1.1
		C154.8,94.6,154.8,94.7,154.8,94.8z M152.5,85.9l0.2,0.6c-0.2,0.1-0.4,0.1-0.5,0v0c-0.1,0-0.1,0-0.2-0.1l0,0v0
		C152.2,86.2,152.4,86,152.5,85.9z M52.2,38.2c0-0.2,0-0.4,0-0.6c0.4,0.7,0.8,1.5,1.1,2.3c0.1,0.3,0.2,0.6,0.3,0.9
		c0.2,0.6,0.5,1.1,0.6,1.6c-0.1-0.2-0.2-0.3-0.3-0.4c-0.2-0.3-0.4-0.6-0.6-0.8c-0.1-0.4-0.3-0.7-0.4-1.1
		C52.8,39.4,52.5,38.8,52.2,38.2z M57.9,62.7c-0.6-1.8-1.4-3.4-2.3-5c0.2-0.7,0.2-1.2,0.2-1.3c0-1.2,0-2.7,0.1-4.7
		c0-1.1,0.1-2.3,0.1-3.7c0-0.1,0-0.3,0-0.4c0.3,1.1,0.7,3.1,1.2,5.7C57.7,56,57.9,59.1,57.9,62.7z M48.7,49.8L48.7,49.8
		c-0.1-0.1-0.1-0.3,0-0.4c0-0.1,0-0.1,0.1-0.2c0,0,0-0.1,0-0.1c0-0.1,0-0.2,0.1-0.2C48.8,49.2,48.7,49.4,48.7,49.8L48.7,49.8z
		 M50.8,46.9c-0.1,0-0.1,0-0.2,0C50.6,46.8,50.7,46.8,50.8,46.9C50.7,46.9,50.8,46.9,50.8,46.9z M84.3,54.7c0-0.4,0.1-0.8,0.3-1.1
		c0.3-0.6,0.9-0.8,1.6-0.8v1.5c-0.1,0.3-0.2,0.6-0.4,0.9c-0.3,0.3-0.5,0.5-0.8,0.5l-0.4-0.1C84.4,55.4,84.3,55.1,84.3,54.7z
		 M30.7,104c0.2,0,0.4,0,0.6,0c0.7-0.1,1.3,0.1,1.8,0.3c0.1,0.1,0.3,0.1,0.4,0.2c0.6,0.4,1,0.9,1,1.5c0,0.1,0,0.2,0,0.3
		c-0.1,0.4-0.3,0.6-0.6,0.8c-0.1,0-0.2,0.1-0.3,0.1c-0.1,0-0.3,0-0.5,0c-0.4,0-0.9-0.3-1.6-0.9c-0.7-0.6-1-1.2-1-1.6
		c0-0.3,0-0.5,0.1-0.6L30.7,104z"/>
	<path class="st9" d="M150.6,64.3l-2.6,1.6c-0.1-1.5-0.2-3.1-0.2-4.9c0-0.9,0.1-1.7,0.2-2.6c0.5-3,1.8-6,4.1-8.9
		c1.4-3.3,2.4-5.5,2.9-6.7c0-0.1,0.1-0.1,0.1-0.2c0.3-0.1,0.6-0.3,0.9-0.5c0.1,0.8,0.1,1.6,0.2,2.6c2-1,4.3-2.1,6.9-3.1
		c2.9-1.1,4.5-1.9,4.9-2.3c0.1-0.1,0.2-0.2,0.2-0.3c0.2-0.3,0.3-0.5,0.4-0.6c0,0,0.1,0.1,0.1,0.1c0.5,0.5,0.8,0.8,1.1,1
		c-0.3,0.2-0.7,0.4-1.3,0.6c-0.1,0-0.1,0-0.2,0.1c-0.8,0.3-2.3,0.9-4.4,1.7c-4.8,2.1-8.1,4.7-9.9,7.8c-1.7,3-2.8,5.2-3.4,6.4
		c-0.8,1.8-1.4,3.4-1.7,4.7C149.3,62.2,149.9,63.3,150.6,64.3z M177,46.4c-0.6-0.5-1.1-0.7-1.5-0.7c-1.8,0-3.9,1.2-6.3,3.5
		c-1.6,1.6-2.8,3.2-3.4,4.8c-0.2,0.4-0.3,0.9-0.4,1.3c-0.2,0.1-0.4,0.2-0.6,0.3l-1.8,1.2l0,0l0,0c0-0.4,0-0.7,0-0.8
		c0-2.3,0.9-4.4,2.6-6.4c1-1.1,2.1-2,3.3-2.8c0.7-0.5,1.6-0.9,2.4-1.3c0.6-0.3,1.2-0.5,1.8-0.7c0.5-0.2,1-0.3,1.4-0.4
		c0.1,0,0.2,0,0.3-0.1c0,0,0.1,0,0.1,0l0.8,0.7c0.1,0.1,0.2,0.1,0.2,0.2C176.4,45.6,176.8,46,177,46.4z M174.2,61.5
		c-0.3,0.8-0.7,1.7-1.2,2.7c-0.1,0.1-0.3,0.6-0.8,1.5l-1.8-4.9c0.6,0,1.1-0.1,1.6-0.3c0.5-0.2,0.8-0.3,0.8-0.3
		c0.1,0,0.5,0.4,1.2,1.1C174.1,61.4,174.1,61.5,174.2,61.5z M143.7,69.7c-0.6,0.1-1.5,0.3-2.6,0.7c-0.1,0-0.2,0.1-0.4,0.1
		c-0.1-0.4-0.1-0.7-0.2-0.9c0-0.1,0-0.2-0.1-0.2c0,0,0-0.1,0-0.1c-0.2-1-0.4-1.8-0.5-2.4c0-0.1,0-0.3,0-0.4c-0.1-0.3-0.3-0.7-0.8-1
		c-0.1-0.1-0.2-0.1-0.2-0.2c-0.2-0.1-0.3-0.2-0.5-0.3c-1.6-1.4-2.6-2.3-2.9-2.6c-0.6-0.8-1-1.9-1.1-3.2c0-0.2,0-0.4,0-0.5v-0.5
		c0-0.9,0.3-2,1-3.3c0,0.3,0.1,0.6,0.1,0.8c0.4,2.4,1.8,3.6,4.3,3.6c1.7,0,3-0.2,3.9-0.6c0.4-0.2,0.8-0.5,1-0.8l-0.1,0.5
		c-0.1,0.3-0.1,0.5-0.2,0.8c-0.1,0.4-0.1,0.8-0.1,1.1c-0.1,0.3-0.1,0.5-0.1,0.8c-0.3,2.2-0.5,4-0.6,5.4c0,0.5,0,0.9,0,1.3
		C143.6,68.5,143.6,69,143.7,69.7z M151.1,82.2c-0.4,1.3-0.8,2.3-1.2,3c-0.4,0.2-0.8,0.5-1.2,0.8c0,0.1,0,0.1,0,0.2
		c0,0.1,0.1,0.2,0.1,0.2c-0.2,0.2-0.5,0.2-0.8,0.2c-0.5,0-0.8-0.6-1.1-1.9c0.1-0.1,0.1-0.1,0.2-0.1c0.6-0.4,1.1-1.1,1.5-2.2
		c0-0.1,0.1-0.1,0.1-0.2c0,0,0,0,0-0.1c0-0.1,0-0.1,0.1-0.2c0-0.1,0-0.1,0-0.1c0.1-0.3,0.2-0.6,0.3-0.9c0.2-0.8,0.4-1.7,0.5-2.6
		L151.1,82.2z M166.1,88.8c-0.3-0.4-0.6-0.9-0.9-1.6c-0.1-0.1-0.1-0.2-0.1-0.3c0,0,0,0,0,0v-0.1c1-0.5,2.2-1.1,3.7-1.8
		c0.4-0.2,0.8-0.3,1.2-0.5c4.1-1.8,7.1-3,8.9-3.7c3.5-1.3,6.8-2.6,10-4.1c4.7-2.2,7-3.7,7-4.8c0-0.4-0.1-0.9-0.2-1.5
		c0-0.2-0.1-0.4-0.2-0.6c0.5,0.6,0.8,1.2,1.2,1.9c0.5,1,0.8,1.9,0.8,2.7c0,0,0,0.1,0,0.1v0c0,0,0,0,0,0.1v0c0,0.3,0,0.6,0,0.8
		c0,0.1,0,0.3,0,0.4c-0.1,0.4-0.1,0.7-0.2,0.9c-0.2,0.4-0.6,0.9-1.4,1.5c-0.5,0.3-2.4,1.2-5.8,2.6c-3.2,1.3-5.7,2.3-7.6,3
		c-0.4,0.2-1.4,0.5-2.8,1c-2.6,0.9-6.7,2.5-12.6,4.6C166.8,89.4,166.5,89.3,166.1,88.8C166.1,88.9,166.1,88.8,166.1,88.8z
		 M55.6,57.8c-0.1-0.1-0.1-0.2-0.2-0.4c-1-0.8-1.7-2-2.1-3.5h0c-0.1-0.3-0.2-0.6-0.3-1c0,0,0-0.1,0-0.1c-0.1-1.7-0.3-3.1-0.5-4.2h0
		c0.5,0.7,0.9,1.5,1.3,2.3c0.2,0.4,0.3,0.8,0.5,1.2c0.2-0.2,0.3-0.3,0.4-0.5c0.2-0.3,0.3-0.7,0.3-1c0.2-0.6,0.2-1.1,0.1-1.7
		c-0.2-2.7-0.8-5.3-1.8-7.8c0.2,0.2,0.3,0.4,0.6,0.8c0.1,0.1,0.2,0.3,0.3,0.4c0.5,1.1,0.8,1.9,0.9,2.4c0.2,0.6,0.4,1.4,0.6,2.4
		c0.1,0.2,0.1,0.4,0.2,0.6c0,0.1,0,0.3,0,0.4c-0.1,1.3-0.1,2.6-0.1,3.7c-0.1,1.9-0.1,3.5-0.1,4.7C55.8,56.6,55.7,57,55.6,57.8z
		 M48.8,40.3c0.7-0.1,1.3-0.2,1.8-0.4c0.3,0.7,0.5,1.2,0.6,1.6c0.2,0.6,0.2,1.5,0.2,2.9c0,1.2-0.6,1.8-1.8,1.8
		c-0.2,0-0.4-0.2-0.6-0.6c0.1-1,0.1-2,0-3.2c0-0.5-0.1-1.1-0.2-1.8C48.8,40.6,48.8,40.5,48.8,40.3z M53.1,62.4L29.3,43.3
		c2.1,1.3,4.2,2.6,6.2,4c3,1.9,5.9,4.1,8.6,6.4c1.2,1.1,2.7,1.4,4.3,1c0,0,0-0.1,0-0.1c0.1-1.5,0.1-3,0.2-4.5v-0.2h0.1
		c-0.2,2.7,0.3,4.5,1.6,5.4c0.1,0.1,0.3,0.2,0.4,0.3C51.3,57.1,52.1,59.4,53.1,62.4z"/>
	<path class="st10" d="M173,6.4c-0.1,0.5-0.1,1-0.1,1.5l-2.1-3.1c-0.1-0.1-0.2-0.2-0.3-0.2c0.4-0.3,0.8-0.7,1.1-1.2c0,0,0,0,0,0
		c0.2-0.3,0.5-0.6,0.6-0.9c0.7,0.6,1,1.3,0.9,2.1L173,6.1l0,0.2V6.4z M155.9,42.2c-0.3,0.2-0.6,0.4-0.9,0.5
		c-0.2,0.1-0.4,0.1-0.6,0.1c-0.7,0-1.2-0.2-1.6-0.6c-0.1-0.1-0.2-0.2-0.2-0.3c-0.2-0.3-0.2-0.7-0.2-1.2c0.1-0.1,0.3-0.3,0.4-0.4
		c1.5-1.7,2.3-2.7,2.5-2.9h0h0C155.6,37.7,155.7,39.3,155.9,42.2z M50.3,55.2c-1.3-0.9-1.9-2.7-1.6-5.4v0c0-0.3,0.1-0.6,0.1-0.9
		c0-0.1,0.1-0.3,0.1-0.4c0.3-0.8,0.8-1.4,1.5-1.6c0.1,0,0.1,0,0.2,0c0.1,0,0.1,0,0.2,0c0.1,0,0.2,0,0.3,0.1c0.1,0,0.1,0,0.1,0
		c0.2,0.1,0.4,0.3,0.5,0.5c0.3,0.3,0.6,0.7,0.9,1c0,0,0,0.1,0,0.1c0.2,1.1,0.4,2.5,0.5,4.2c0,0.1,0,0.1,0,0.1c0.1,0.3,0.1,0.6,0.3,1
		h0C52.4,54.6,51.4,55,50.3,55.2z"/>
	<path class="st11" d="M155.5,37.3L155.5,37.3c-0.1,0-0.2-0.1-0.2-0.1c-0.4-0.1-0.7-0.4-0.9-1l-0.4-1c0.8-0.1,1.4-0.2,1.6-0.2
		c2.3-0.2,4.6-1.3,6.8-3.2c0.8-0.7,1.6-1.4,2.3-2.2c0.8,0.1,1.4,0.2,1.6,0.2c-0.3,0.3-0.5,0.6-0.7,1.1l-0.3,1.3
		c0.5,0.1,0.9-0.1,1.3-0.3c-0.1,0.2-0.1,0.5-0.2,0.7c-0.1,0.3-0.2,0.6-0.2,0.9c-0.3,0.8-0.7,1.4-1.2,1.8c-0.5,0.4-1.2,0.7-2.1,1
		c-0.4,0.1-1.1,0.3-2.3,0.6c-1,0.2-1.9,0.4-2.6,0.5C157,37.6,156.2,37.5,155.5,37.3z M157,94.9L157,94.9c-0.4,0.1-0.7,0.1-1,0.2
		c0.3-0.2,0.5-0.4,0.8-0.6c0,0,0.1-0.1,0.1-0.1c1.6-1.3,2.9-2.5,3.7-3.6c0.8-1,1.2-2.2,1.2-3.8c0.1-2.4,0.2-3.7,0.3-3.9
		c0.1-0.1,0.1-0.3,0.1-0.4l0.5-0.2l2.2,4.3c0,0,0,0,0,0c0,0.1,0.1,0.2,0.1,0.3l0.7,1.6c-0.7,0.3-1.2,0.7-1.6,1.1
		c-0.4,0.5-0.8,0.9-1.3,1.4l-1.4,1.2c-0.3,0.2-0.7,0.6-1.2,1.1c-0.5,0.4-1,0.7-1.5,0.8l-1.7,0.4C157.1,94.9,157.1,94.9,157,94.9z
		 M92.8,53l-1.2,0.4c-1.3,0.3-2.5-0.2-3.6-1.5v0c-1-1.2-1.5-2.3-1.3-3.3c0-0.1,0-0.2,0-0.2l0.4-1.3c0-0.1,0-0.1,0-0.2
		c0,0,0.1,0.1,0.1,0.1l0.6,0.7c0.1,0.1,0.2,0.3,0.2,0.4c0.1,0.1,0.2,0.2,0.2,0.3l0.2,0.3c0,0,0,0,0,0.1c0.1,0.3,0.2,0.5,0.4,0.7
		c0.4,0.7,1,1.3,1.7,1.7c0.7,0.4,1.6,0.7,2.6,0.9c0.5,0.1,1,0.2,1.5,0.3h0c-0.2,0.1-0.4,0.1-0.5,0.1L92.8,53z M31.6,36
		c-0.1-0.9-0.2-1.8-0.2-2.6c0-0.3,0-0.5,0-0.6c0,0,0.1,0,0.1,0c-0.1-0.6-0.5-1.2-1-2c-0.3-0.4-0.8-1-1.4-1.8
		c-1.2-1.4-1.4-2.8-0.5-4.1c1.4-0.7,2.5-0.2,3.3,1.3c0.1,0.2,0.2,0.4,0.2,0.6c0.7,1.9,1.2,3.2,1.5,4c0.6,2.8,2.5,5,5.9,6.5
		c1.1,0.5,2.2,0.9,3.4,1.2c0.1,0.4,0.3,0.9,0.6,1.3c1.5,0.3,3,0.5,4.7,0.5c0.3,0,0.5-0.1,0.8-0.1c0,0.1,0,0.3,0,0.4
		c0.1,0.7,0.1,1.3,0.2,1.8c0.1,1.1,0.1,2.2,0,3.2c0,0.1,0,0.3,0,0.4l-4.3-2.7c-1.7-1-3.2-1.8-4.6-2.2c-3.2-0.9-5.1-1.5-6-1.9
		c-1.5-0.8-2.3-1.8-2.4-2.9C31.6,36.3,31.6,36.2,31.6,36z M158,186.7c-0.5,1.5-1,2.5-1.5,3v0c-0.9-0.6-2.2-1.2-4.1-1.6
		c-1.3-0.3-2.3-0.6-3-0.8c0-0.6,0-1.2-0.1-1.8c-0.1-0.5-0.1-1.1-0.2-1.7c0.8,0.8,1.8,1.3,2.8,1.6c0.1,0,0.2,0,0.3,0l1.7,0.2h0.1
		c1.3,0,2.5-0.4,3.5-1.1c0,0.1,0,0.1,0,0.2c0,0.5,0.1,0.9,0.1,1.3C157.8,186.3,157.9,186.5,158,186.7z M161.3,195.8
		c-0.5,0.7-1.3,1.4-2.2,2.2c-1.1,1-1.9,1.9-2.5,2.6l0-0.1c-0.1,0.1-0.2,0.3-0.3,0.4c-0.1,0.2-0.2,0.3-0.3,0.5
		c-0.1,0.1-0.1,0.2-0.2,0.4c-1.1,2.1-1.8,4.7-2,7.6c-1,1.2-2.4,1.7-4.1,1.6c-1.6-0.1-3-0.6-4.1-1.7c-0.2-0.3-0.3-0.6-0.4-1.1
		c0-0.1,0.2-0.6,0.5-1.5c1,1.2,2.1,1.8,3.3,1.8c2,0,3.3-1,3.7-2.9c0.1-0.6,0.2-1.4,0.2-2.3c0-1,0.1-1.6,0.1-1.8c0,0,0.9-1.3,2.6-3.8
		c1.7-2.5,2.6-3.9,2.6-4.4c0-1.1-0.3-2-0.8-2.8c0.2-0.2,0.4-0.4,0.6-0.6c0.5-0.3,1-0.3,1.6,0.2c0.3,0.3,0.7,0.8,1.2,1.4
		c0.6,0.8,0.8,1.8,0.7,2.9C161.6,195,161.5,195.4,161.3,195.8z"/>
	<path class="st12" d="M169.5,2.1c0.9-0.2,1.6-0.2,2.1,0c0.2,0.1,0.4,0.3,0.6,0.4c-0.2,0.3-0.4,0.6-0.6,0.9c0,0,0,0,0,0
		c-0.4,0.4-0.8,0.8-1.1,1.2c-0.3-0.3-0.6-0.5-0.8-0.6l0,0v0l-0.9-0.4l0,0c0,0,0.1,0,0.1,0l-1.3-1.1c0.1,0,0.1,0,0.2,0l0.6-0.1
		C168.5,2.3,168.9,2.2,169.5,2.1C169.5,2.1,169.5,2.1,169.5,2.1z M149.7,78.4c-0.1,1-0.3,1.8-0.5,2.6c-0.1,0.3-0.2,0.6-0.3,0.9
		c0,0,0,0.1,0,0.1c0,0.1-0.1,0.1-0.1,0.2c0,0,0,0.1,0,0.1c0,0.1,0,0.2-0.1,0.2c-0.4,1-0.9,1.7-1.5,2.2c-0.1,0-0.1,0.1-0.2,0.1
		c-0.2,0.1-0.3,0.2-0.4,0.2c-0.6-0.5-0.9-1.1-1-1.9c-0.1-0.7-0.2-1.6-0.3-2.5c-0.2-0.9-0.3-2.1-0.6-3.6c-0.4-3.3-0.7-5.8-0.9-7.4
		c-0.1-0.7-0.1-1.2-0.1-1.6c0-0.4,0-0.8,0-1.3c0.1-1.4,0.3-3.2,0.6-5.4c0-0.2,0.1-0.5,0.1-0.8c0-0.4,0.1-0.7,0.1-1.1
		c0.1-0.3,0.1-0.6,0.2-0.8l0.1-0.5c1.7-5.5,4.4-10.8,8.2-15.9c0.3,0.4,0.9,0.6,1.6,0.6c0.2,0,0.4,0,0.6-0.1c0,0.1,0,0.1-0.1,0.2
		c-0.5,1.2-1.5,3.5-2.9,6.7c-2.2,2.9-3.6,5.8-4.1,8.9c-0.1,0.9-0.2,1.7-0.2,2.6c0,1.8,0.1,3.4,0.2,4.9l-0.6,0.4
		c-0.3,0.2-0.5,0.4-0.7,0.6c-0.7,0.7-0.9,1.5-0.5,2.5L149.7,78.4z M143.9,91.9c-0.6,0-1.3,0.2-2.1,0.6c-0.3,0.2-0.6,0.4-0.9,0.6
		c-1.1,0.8-2.1,2-3,3.4c-0.5,0.9-0.9,1.8-1.1,2.6c-0.1,0.3-0.2,0.6-0.3,1c-0.1,0.6-0.2,1.2-0.2,1.8l-1.1,0.6V102
		c0-0.4,0-0.8,0.1-1.1c0-0.3,0.1-0.6,0.2-0.9c0.2-1.3,0.7-2.6,1.5-4c1-1.7,2.2-3.1,3.6-4c0.2-0.1,0.4-0.3,0.7-0.4
		c0.3-0.2,0.7-0.4,1-0.5c0.2-0.1,0.3-0.1,0.4-0.2c0.3-0.1,0.6-0.2,0.9-0.2c0.4,0,0.8,0,1.1,0.1c0.3,0.1,0.6,0.2,0.9,0.3
		c0.6,0.4,1,0.9,1.3,1.5c0.2,0.4,0.3,1,0.4,1.6c0,0.2,0,0.5,0,0.8v12.4v4v1v7.4v2.6l-11.9,6.8h0v-2.3c0-0.1,0-0.2,0-0.4v-22.5
		l1.1-0.6v21.8v2l9.7-5.6V95.1c0-0.1,0-0.1,0-0.2c0-1.3-0.4-2.2-1.2-2.7v0c-0.1-0.1-0.2-0.1-0.3-0.1c0-0.1-0.1-0.1-0.2-0.1
		c0,0-0.1,0-0.1,0c0,0-0.1,0-0.2,0C144.1,91.9,144.1,91.9,143.9,91.9z M53.3,53.9c0.4,1.5,1.1,2.7,2.1,3.5c0.1,0.1,0.2,0.3,0.2,0.4
		c0.9,1.5,1.7,3.2,2.3,5c0,1-0.1,2.1-0.1,3.3l-4.6-3.7c-1-3-1.8-5.3-2.3-6.9c-0.2-0.1-0.3-0.2-0.4-0.3C51.4,55,52.4,54.6,53.3,53.9z
		 M61.3,101.4c-0.8,0.6-1.6,1.2-2.4,1.7l1.7-6.1l2.3,3.1c-0.1,0.1-0.2,0.2-0.2,0.2C62.3,100.7,61.8,101.1,61.3,101.4z"/>
	<path class="st13" d="M115.2,100.4v4.4l-1.6-0.9v-4.4L115.2,100.4z M118.4,102.6h1v3.9l-1,1V102.6z M65.7,59.8L65.7,59.8
		c-0.2,0.1-0.3,0.1-0.4,0.2c-1,0.5-1.6,0.7-1.9,0.7l-1.6-0.1v-2.8c0.6-0.2,1.5-0.7,2.8-1.3c0.1,0,0.2-0.1,0.3-0.1
		c0.1-0.1,0.3-0.1,0.4-0.2c0,0.3,0.1,0.6,0.1,0.9C65.5,58,65.6,58.9,65.7,59.8z M62.1,104.1c-0.2,0.1-0.3,0.3-0.5,0.4
		c0-0.5-0.1-1.1-0.2-1.7c0-0.2,0-0.5-0.1-0.7c0-0.2,0-0.4,0-0.6c0.5-0.4,0.9-0.8,1.4-1.2c0.1-0.1,0.2-0.1,0.2-0.2l0.3,0.4
		c0.5-0.5,0.8-1.1,1-1.8c0.1-0.3,0.1-0.5,0.2-0.8c0.4,1,0.5,2.1,0.2,3.1c-0.2,0.8-0.6,1.5-1.2,2C63,103.4,62.6,103.7,62.1,104.1z
		 M36.9,105.2c2.1,0.9,4.4,1.5,6.8,1.7c0.2,0,0.5,0,0.6,0c0.5,0,0.9,0.1,1.4,0.1c0.1,0.9,0.2,1.7,0.3,2.4c-0.5,0-1-0.1-1.4-0.1
		c-0.2,0-0.4,0-0.6,0c-0.9-0.1-1.8-0.2-2.6-0.4c-1-0.4-2-0.8-3.2-1.2c-0.1,0-0.1,0-0.2,0l-0.3-0.1C37.7,106.9,37.4,106.1,36.9,105.2
		z M54.7,108.3c-0.2,0.1-0.5,0.1-0.7,0.2c-1.8,0.5-3.6,0.9-5.5,1l-0.1-2.4c2.1-0.2,4.2-0.6,6.1-1.2c0,0.6,0,1.3,0.1,1.9
		C54.6,107.8,54.6,108,54.7,108.3z M57.2,86.5c-0.2-0.2-0.4-0.5-0.4-0.8c0-0.3,0.1-0.6,0.4-0.8c0.2-0.2,0.5-0.4,0.8-0.4
		c0.3,0,0.6,0.1,0.8,0.4c0.2,0.2,0.4,0.5,0.4,0.8c0,0.3-0.1,0.6-0.4,0.8c-0.2,0.2-0.5,0.4-0.8,0.4C57.7,86.8,57.4,86.7,57.2,86.5z
		 M57.3,75.5c0.4,0,0.7,0.1,1,0.4c0.2,0.2,0.4,0.5,0.4,0.9c0,0.4-0.1,0.7-0.4,1c-0.3,0.2-0.6,0.3-1,0.3c-0.4,0-0.7-0.1-1-0.3
		c-0.1-0.1-0.1-0.1-0.2-0.2c-0.2-0.2-0.2-0.5-0.2-0.8c0-0.2,0.1-0.4,0.2-0.6c0.1-0.1,0.1-0.2,0.2-0.3C56.6,75.7,56.9,75.5,57.3,75.5
		z M59.5,93.9c0,0.3-0.1,0.6-0.4,0.8c-0.2,0.2-0.5,0.3-0.8,0.3c-0.3,0-0.6-0.1-0.8-0.3c-0.2-0.2-0.4-0.5-0.4-0.8
		c0-0.3,0.1-0.6,0.4-0.8c0.2-0.2,0.5-0.4,0.8-0.4c0.3,0,0.6,0.1,0.8,0.4C59.3,93.3,59.5,93.6,59.5,93.9z"/>
	<path class="st4" d="M37.9,18.2L37.9,18.2c-0.9-0.1-2-0.3-3.5-0.7c-3-0.8-5.3-1.8-6.8-3.2c-0.3-0.5-0.7-1-1-1.5
		c0.2-0.3,0.4-0.7,0.6-1c0.2-0.2,0.3-0.5,0.5-0.7c0.3,0.4,0.7,0.8,1.2,1.3c0.9,0.9,2,1.5,3.3,1.9c2.4,0.3,3.6,0,3.5-0.9
		c-0.1-0.9-0.4-1.3-1-1.4h-0.2c1.1-0.2,1.9-0.3,2.5-0.2c0.6,0.1,1.1,0.4,1.6,0.8c0.5,0.4,0.8,1.1,0.9,2c0,0,0,0.1,0,0.2
		c0,1.1-0.5,2.1-1.4,3.2C38,18,38,18.1,37.9,18.2z"/>
	<path class="st14" d="M45.5,17.8c0.1-0.1,0.3-0.3,0.4-0.4c1.6-1.5,2.4-2.8,2.4-3.7c0-2-0.9-3.6-2.8-4.8l0.2-0.1
		c2.4,0.9,3.6,2.7,3.6,5.6c0,0.5-0.3,1.1-0.8,2c-0.1,0.1-0.2,0.2-0.2,0.3H48c-0.2,0.1-0.4,0.2-0.6,0.3L45.5,17.8z M43.9,18.1
		L43.9,18.1c-0.3,0.1-0.7,0.1-1,0.1h-0.4c0.1-0.1,0.2-0.2,0.3-0.3c1.1-1.2,1.6-2.3,1.6-3.5c0-1.1-0.1-1.8-0.3-2.2
		c-0.3-0.5-1-1.3-2.2-2.3H42c2.1,0.4,3.1,2.1,3.1,5c0,1-0.3,1.9-1,2.8C44.1,17.9,44,18,43.9,18.1z M40,18.2c-0.1,0-0.3,0-0.4,0h-0.1
		c0,0-0.3,0-0.8,0c0.1-0.1,0.2-0.2,0.3-0.3c1.3-1.2,1.9-2.3,1.9-3.3c0-1.2-0.7-2.5-2-3.7c0.8,0.2,1.5,0.7,2,1.6
		c0.6,0.8,0.9,1.5,0.9,2.3c0,1-0.5,2-1.5,3.2C40.2,18,40.1,18.1,40,18.2z"/>
	<path class="st14" d="M34.6,11.9h0.2c0.6,0.1,0.9,0.6,1,1.4c0,0.9-1.2,1.2-3.5,0.9c-1.3-0.4-2.4-1-3.3-1.9
		c-0.5-0.5-0.8-0.9-1.2-1.3c2.4-2.9,5.8-4.4,10.1-4.5c1.9-0.1,3.8,0.2,5.6,0.9c-1,0.3-2.3,0.9-3.9,1.7
		C37.2,10.3,35.6,11.2,34.6,11.9z M25.2,16.2c0.3-1.2,0.7-2.3,1.4-3.4c0.3,0.5,0.7,1,1,1.5c1.5,1.3,3.8,2.4,6.8,3.2
		c1.4,0.4,2.6,0.6,3.4,0.7c-0.1,0.9-0.4,1.9-1,3c-0.3,0.5-0.7,1.3-1.2,2.2c0,0-0.1,0-0.1,0c-3.6-0.6-6.9-2.7-9.8-6.4
		C25.5,16.7,25.4,16.5,25.2,16.2L25.2,16.2z"/>
	<path class="st4" d="M35.6,23.4c-0.1,0.2-0.2,0.4-0.3,0.6c-0.6,1.2-1,2.4-1,3.5c-0.1,1,0.1,2,0.6,3L33.4,31c-0.3-0.7-0.8-2-1.5-4
		c-0.1-0.2-0.1-0.3-0.2-0.5c0-0.1-0.1-0.1-0.1-0.1c-0.8-1.5-1.9-2-3.3-1.3c-0.8,1.3-0.6,2.6,0.5,4.1c0.7,0.8,1.1,1.4,1.4,1.8
		c0.6,0.8,0.9,1.4,1,2c0,0,0,0-0.1,0c-2.8-2.1-4.7-4.9-5.7-8.3c-0.7-2.1-1-4-0.7-5.7c0-0.9,0.2-1.8,0.4-2.6v0.1
		c0.2,0.2,0.3,0.4,0.5,0.7c2.9,3.7,6.2,5.8,9.8,6.4C35.6,23.4,35.6,23.4,35.6,23.4z"/>
	<linearGradient id="SVGID_3_" gradientUnits="userSpaceOnUse" x1="33.7733" y1="75.8404" x2="21.9273" y2="96.432">
		<stop  offset="0" style="stop-color:#391715"/>
		<stop  offset="1" style="stop-color:#6E3A27"/>
	</linearGradient>
	<path class="st15" d="M44.3,107c-0.2,0-0.4,0-0.6,0c-2.5-0.2-4.7-0.8-6.8-1.7c-0.2-0.3-0.4-0.5-0.6-0.8l-2-1.5
		c-1.6-1.3-2.9-2.7-3.8-4l-0.1-1c-0.1-0.5-0.2-0.9-0.2-1.4c-0.1-0.5-0.2-1.1-0.2-1.6l-0.9-4.7c0-0.1,0-0.2,0-0.2l-1.6-5.7
		c0-0.8,0-1.6,0-2.3c0.1-0.5,0.5-2.3,1.3-5.3v-0.1c0.6-2.1,1.3-5.7,1.9-10.7c-0.1-0.7-0.2-1.5-0.3-2.2c-0.1-1.7-0.3-3.2-0.7-4.7
		c-0.6-2.1-1.8-4.5-3.7-7.2c-1.8-2.6-3.1-4.2-3.9-4.8c0-0.1-0.1-0.1-0.1-0.1c0.2-0.1,0.5-0.3,0.8-0.4c0,0,0.1,0.1,0.1,0.1
		c1.3,1,2.5,2.4,3.8,4.1c3.1,4.8,5.1,8,5.9,9.4c2,3.4,3.3,6.5,4,9.1c2.8,9.2,4.7,15.5,5.6,19c1.6,5.8,2.4,11.6,2.4,17.4
		c0,0.2-0.1,0.5-0.1,0.8C44.4,106.7,44.4,106.8,44.3,107z"/>
	<path class="st16" d="M29.3,43.3l23.9,19.1l4.6,3.7c1.7,7.6,2.7,17.3,2.9,29.2c0,0.1,0,0.1,0,0.2c0,0.5,0,1,0,1.6l-1.7,6.1
		l-0.2,0.7c-1.4,0.8-2.8,1.4-4.3,1.9c-1.9,0.7-4,1.1-6.1,1.2c-0.9,0.1-1.7,0.1-2.6,0c-0.5,0-0.9,0-1.4-0.1c0-0.1,0-0.2,0-0.4
		c0-0.3,0-0.6,0.1-0.8c0-5.9-0.8-11.7-2.4-17.4c-1-3.5-2.9-9.8-5.6-19c-0.7-2.7-2-5.7-4-9.1c-0.8-1.4-2.7-4.5-5.9-9.4
		c-1.3-1.7-2.5-3.1-3.8-4.1c-0.1,0-0.1,0-0.1-0.1c1.2-0.8,2.3-1.7,3.3-2.7c0.1-0.2,0.2-0.3,0.4-0.4l1.2-1.3c0-0.1,0-0.1,0.1-0.2
		c0,0.1,0,0.1,0,0.2c0.5,0.3,1,0.6,1.5,0.9L29.3,43.3z M57.3,75.5c-0.4,0-0.7,0.1-1,0.4c-0.1,0.1-0.2,0.2-0.2,0.3
		c-0.1,0.2-0.2,0.3-0.2,0.6c0,0.3,0.1,0.5,0.2,0.8c0.1,0.1,0.1,0.2,0.2,0.2c0.2,0.2,0.6,0.3,1,0.3c0.4,0,0.7-0.1,1-0.3
		c0.2-0.3,0.4-0.6,0.4-1c0-0.3-0.1-0.6-0.4-0.9C58,75.7,57.7,75.5,57.3,75.5z M57.2,86.5c0.2,0.2,0.5,0.4,0.8,0.4
		c0.3,0,0.6-0.1,0.8-0.4c0.2-0.2,0.4-0.5,0.4-0.8c0-0.3-0.1-0.6-0.4-0.8c-0.2-0.2-0.5-0.4-0.8-0.4c-0.3,0-0.6,0.1-0.8,0.4
		c-0.2,0.2-0.4,0.5-0.4,0.8C56.8,86,56.9,86.2,57.2,86.5z M59.5,93.9c0-0.3-0.1-0.6-0.4-0.8c-0.2-0.2-0.5-0.4-0.8-0.4
		c-0.3,0-0.6,0.1-0.8,0.4c-0.2,0.2-0.4,0.4-0.4,0.8c0,0.3,0.1,0.6,0.4,0.8c0.2,0.2,0.5,0.3,0.8,0.3c0.3,0,0.6-0.1,0.8-0.3
		C59.3,94.5,59.5,94.2,59.5,93.9z"/>
	<linearGradient id="SVGID_4_" gradientUnits="userSpaceOnUse" x1="31.1925" y1="68.6225" x2="45.7233" y2="93.8007">
		<stop  offset="0" style="stop-color:#9ECDD2"/>
		<stop  offset="1" style="stop-color:#BDE3E6"/>
	</linearGradient>
	<path class="st17" d="M22,47.2c0.8,0.6,2.1,2.2,3.9,4.8c1.9,2.7,3.1,5.1,3.7,7.2c0.4,1.4,0.6,3,0.7,4.7c-0.7-4.5-1.9-7.8-3.6-10
		c-1.9-2.6-3.3-4.1-4.1-4.6c-0.7-0.5-1.3-0.6-1.7-0.4c-1.8,0.3-3.2,1-4.4,2c1-1.3,1.8-2,2.3-2.2C19.9,48.3,21,47.8,22,47.2z"/>
	<linearGradient id="SVGID_5_" gradientUnits="userSpaceOnUse" x1="31.5434" y1="82.192" x2="12.6346" y2="82.201">
		<stop  offset="0" style="stop-color:#9ECDD2"/>
		<stop  offset="1" style="stop-color:#BDE3E6"/>
	</linearGradient>
	<path class="st18" d="M34.8,112.7c-1,1.2-2.1,2.1-3.3,2.5c-0.8,0.3-1.7,0.4-2.7,0.3l-2.6-2.1c-0.1-0.1-0.1-0.1-0.2-0.2
		c-0.1-0.2-0.3-0.3-0.4-0.4c-0.6-0.6-1.2-1.2-1.8-2c-0.9-1-1.9-2.1-2.9-3.2l0,0c-1.9-2.3-3.2-5-4.2-8c-2-6.1-3.1-11.8-3.4-16.9
		l-0.1-0.1c0.1-0.7,0-1.6-0.1-2.7c-0.2-3.2-0.4-5.5-0.5-6.9v0c0-2.4,0.1-5,0.2-7.7c0.1-1.5,0.2-3.8,0.5-6.9c0.1-0.1,0.1-0.2,0.1-0.3
		h0c0.4-3.1,1.4-5.4,3.1-6.8c1.1-1,2.6-1.7,4.4-2c-0.4,2.2-0.6,3.6-0.5,4.3v0.1c0.2,1.9,0.3,8,0.2,18.5c0,1.4,0,2.8,0,4.3
		c-0.2,10.4,0.6,18,2.1,22.6c0.5,1.4,1.7,3.2,3.5,5.4L34.8,112.7z"/>
	<path class="st19" d="M48.3,107l0.1,2.4c-0.1,0-0.2,0-0.3,0c-0.2,0-0.4,0-0.6,0s-0.4,0-0.6,0c-0.3,0-0.6,0-1,0h0
		c-0.1-0.7-0.1-1.5-0.3-2.4C46.6,107.1,47.5,107.1,48.3,107z M32.1,219.1l0.5-0.2c0.6-0.3,1.2-0.7,1.7-1.2c0.1-0.1,0.1-0.1,0.2-0.2
		c0.5,1.2,1.2,2.7,2,4.4c0.5,1,1.3,2.4,2.3,4.3c1.8,3.5,2.8,6.5,2.9,9.1c0.1,0.8-0.1,1.6-0.4,2.2c-0.4,0.8-1,1.2-1.8,1.3
		c-0.3,0.1-0.7,0.2-1,0.2c-0.1,0-0.3,0.1-0.4,0.1H38c-0.2,0-0.4,0-0.6,0c-0.6-3-1-4.7-1.1-5c-0.3-0.9-1.5-3.7-3.6-8.5
		c-1.3-3-2.1-5-2.4-6C30.9,219.5,31.6,219.4,32.1,219.1z M81,202.8c-0.2-0.3-0.4-0.5-0.4-0.6c-1-0.8-4-2.1-8.9-3.7
		c-4.7-1.6-8.2-3-10.3-4.1c1-0.6,1.8-1.4,2.6-2.3c1.1,0.6,2.4,1.2,4,1.8c1.9,0.6,3.3,1.1,4.2,1.4c3.4,1.2,6,2.7,7.7,4.3c0,0,0,0,0,0
		c0,0,0,0.1,0,0.1C80.6,200.5,81,201.5,81,202.8z M158,186.7c0.1-0.1,0.1-0.3,0.2-0.4l0,0c0.3,0.2,0.6,0.4,0.6,0.8
		c0.6,0.3,1.5,0.7,2.8,1.3c1.1,0.6,1.8,1.2,2.1,2c0.6,1.2,0.7,2.4,0.2,3.7c-0.5,1.3-1.3,2.2-2.4,2.8l-1,0.6c0.3-0.5,0.6-1,0.8-1.5
		c0.1-0.4,0.2-0.8,0.3-1.2c0.1-1.1-0.1-2-0.7-2.9c-0.5-0.7-0.8-1.1-1.2-1.4c-0.6-0.5-1.1-0.6-1.6-0.2c-0.2,0.2-0.4,0.4-0.6,0.6
		c-0.5,0.4-0.9,0.7-1.3,1l-0.8,0.4c-1.9,1.1-4.1,1.8-6.5,2c0,0,0,0-0.1,0l0-1.9h0v0.1c0.1,0,0.1,0,0.2,0c0.1,0,0.1,0,0.2,0l0.8-0.1
		c2.2-0.5,4.2-1.2,6.1-2.3l0.1-0.1c0.1,0,0.1-0.1,0.2-0.1C157,189.2,157.5,188.2,158,186.7z M156.6,200.7l-1.2,3
		c-0.4,1.3-0.7,2.3-0.8,3.2l-0.3,2.8c0,0.5-0.1,1-0.2,1.4c-0.2,0-0.5,0.1-0.7,0.2c-0.1,0.1-0.2,0.1-0.2,0.2c-0.2,0.2-0.5,0.6-1,1
		c-0.3,0.3-0.6,0.6-1,0.8c-0.6,0.4-1.4,0.6-2.2,0.8c-0.3,0.1-0.7,0.1-1.1,0.1c-1.1,0.2-2.7,0.3-5,0.5c-1.1,0.1-2.4,0.2-3.8,0.2
		c1-1.3,1.9-2.5,2.5-3.5c0.3-0.5,0.9-1.2,1.6-2.1c1.1-1.3,2-2.2,2.5-2.8c-0.1,0.1-0.1,0.2-0.2,0.3v0c-0.3,0.9-0.5,1.3-0.5,1.5
		c0.1,0.5,0.2,0.9,0.4,1.1c1.2,1.1,2.6,1.6,4.1,1.7c1.7,0.1,3-0.5,4.1-1.6c0.2-3,0.9-5.5,2-7.6c0.1-0.1,0.2-0.3,0.2-0.4
		c0.1-0.2,0.2-0.3,0.3-0.5C156.5,200.9,156.6,200.7,156.6,200.7L156.6,200.7z M174,204.4c-0.5,0.9-1.3,1.6-2.2,2.1
		c-0.2,0.1-0.3,0.2-0.5,0.3c-1.8,0.8-3.5,1-5.3,0.7c-0.1-0.1-0.2-0.1-0.3-0.2c-0.3-0.3-0.5-0.8-0.7-1.5c0-0.1,0-0.3-0.1-0.4
		c-0.2-0.8-0.2-1.6-0.2-2.5c0.1,0.1,0.1,0.2,0.1,0.3c0.4,0.7,0.8,1.2,1.2,1.6c0.6,0.9,1.5,1.3,2.6,1c0.9-0.2,1.7-0.5,2.4-0.9
		c1.1-0.6,1.9-1.5,2.5-2.7c0.1-0.1,0.1-0.2,0.2-0.4c0.3,0.7,0.5,1.5,0.4,2.4C174.1,204.1,174.1,204.3,174,204.4z M153.1,213.4
		c-0.3,0.3-0.6,0.6-1,0.9l-0.2,0.1c-0.6,0.3-1.2,0.5-1.9,0.8c0.2-0.1,0.4-0.1,0.5-0.2C151.6,214.4,152.5,213.9,153.1,213.4z
		 M160.4,224.8c0.2-0.8,0.5-1.6,0.9-2.4c0,0,0,0,0-0.1c-0.2,0.9,0.4,1.5,1.7,1.7c1.3,0.2,2.6,0.4,3.8,0.4c2.1,0.1,3.9-0.3,5.3-1.3
		c0.3-0.2,0.5-0.6,0.5-1c0.1,0.1,0.2,0.3,0.2,0.6l-0.1,1c0,0.7-0.1,1.3-0.2,1.8c-0.2,0.1-0.5,0.2-0.8,0.4c-0.7,0.3-1.5,0.8-2.4,1.2
		c-0.5,0.3-1.1,0.6-1.6,0.8c-1.4,0.7-2.5,1.1-3.5,1.4c-0.6,0.2-1.2,0.3-1.7,0.3c-0.2,0-0.3-0.1-0.4-0.2c-0.4-0.3-0.7-1.2-1-2.5
		c-0.1-0.6-0.2-1.1-0.4-1.5C160.6,225.2,160.5,225,160.4,224.8z"/>
	<path class="st20" d="M154.4,117.4c-1.9-2.1-4.3-4-7.1-5.9v-4c0.1,0.1,0.2,0.2,0.3,0.3c1.9,2,3.6,3,5,3c0.1,0,0.1,0,0.1,0
		c0.4,0.3,0.6,0.5,0.8,0.5C153.6,111.2,153.9,113.3,154.4,117.4z M173.4,198.6c-2.2,1.5-4,2.3-5.3,2.3c-0.1,0-0.3,0-0.4,0
		c0.1-1.1,0.2-2.2,0.3-3.3c0.2-1.8,0.4-3.6,0.5-5.4c0.8-8.6,1.2-13.9,1.2-15.9c0-3.8-0.3-7.4-0.9-10.8c-0.3-1.7-0.9-4.3-1.8-7.8
		c-0.1-0.2-0.2-0.5-0.2-0.8c-0.9-3.7-1.6-6.7-2-9.2c-0.6-3.8-0.9-8-0.9-12.6c0-0.6,0.3-3.8,0.9-9.6c0.6-5.8,0.9-9.4,0.9-11
		c0-5.3-1.2-10.8-3.5-16.4l12.1-7.4c0.3,0.3,0.5,0.6,0.8,0.9c0.9,1.3,1.7,3.2,2.4,5.6c0.8,2.7,1.2,5.1,1.2,7.4
		c0,1.4-0.1,3.3-0.4,5.7c-0.5,3.6-0.9,7.1-1.2,10.6c-0.1,0.9-0.5,4.8-1.2,11.6c0,0.5-0.3,2.6-0.8,6.5c-0.5,4-0.8,6.7-0.8,8.1
		c0,1.6,0.1,2.9,0.3,3.7c0.2,0.9,1,4,2.3,9.2c0.5,1.9,1,4.1,1.6,6.5c0.4,1.9,0.6,4,0.6,6.3c0,2.7-0.9,7.3-2.7,13.7
		c-0.5,1.7-0.9,3.3-1.3,4.8c0,0.1,0,0.1,0,0.2L174,197c0,0.1,0,0.2,0,0.2c-0.1,0.4-0.1,0.7-0.1,1
		C173.7,198.4,173.5,198.5,173.4,198.6z M29.7,97.5c0.1-0.3,0.3-0.7,0.4-1c0.1,0.5,0.2,0.9,0.2,1.4l0.1,1
		C30.1,98.4,29.9,98,29.7,97.5z M42.3,164.6c0.2-0.3,0.3-0.7,0.5-1c0,0.1,0,0.1,0,0.1v0.1c2.7-7.4,5-14.1,6.7-20.2
		c1.9,3.3,4.7,6.3,8.4,9.1c-1.4,8.7-2,16.5-1.7,23.5c0.4,9.4,0.9,15.8,1.6,19.2c0,0.1,0,0.2,0,0.3c-0.3,0.1-0.6,0.1-0.9,0.2
		l-2.3,0.2c-0.1,0-0.1,0-0.1,0h-0.1c-2.8,0-5.3-0.6-7.4-1.8c-0.2-0.2-0.5-0.3-0.7-0.4c-0.5-0.3-1-0.7-1.4-1.1
		c-0.1,0-0.1-0.1-0.1-0.1c-0.8-1-1.3-2.3-1.3-3.8c-0.1-0.8,0-2.2,0.2-4.1l0-0.4c0.2-2.9,0.2-6.3-0.1-10.2c-0.1-0.8-0.1-1.5-0.2-2.2
		C43.1,169.3,42.6,166.9,42.3,164.6z M30.5,219.5c-0.4,0-0.8,0.1-1.2,0.1h0c-0.9,0-2-0.1-3.2-0.2c0,0-0.1,0-0.1,0
		c-0.2,0-0.5-0.1-0.7-0.1c-0.5-0.1-1.1-0.2-1.7-0.4c-0.7-0.2-1.2-0.4-1.4-0.5c-0.5-0.3-0.8-0.7-0.9-1.2c-0.3-1.7-0.2-4,0.1-7
		c0.3-3.4,0.5-5.7,0.4-7.1c-0.3-4.4-0.5-7.7-0.6-9.9c-0.2-4-0.4-7.3-0.4-10c0-7.5,0.9-14,2.9-19.5c1.3-5.2,2.1-11.9,2.2-20
		c-0.1-9,0-15.7,0.2-20.1c-0.3-3.6-0.4-7.2-0.1-10.6c0.1,0.1,0.2,0.1,0.2,0.2l2.6,2.1c1,0.1,1.9,0,2.7-0.3c0.2,0.8,0.4,1.5,0.6,2
		l-2.1,0.6v4.2l15.4-6.5v-1.8c0.2,0.1,0.4,0.1,0.6,0.2c-0.1,2.7-0.3,5.4-0.6,8c-0.5,4-1.1,8-2,11.8c-0.8,3.2-2.6,9.6-5.6,19.2
		c-5.6,17.4-8.3,35.4-8.3,54.2c0,3,0.2,6,0.6,8.8C30.3,217.6,30.4,218.8,30.5,219.5z M46,109.5c0,0.4,0,0.8,0,1.2c0,0.1,0,0.3,0,0.4
		c-0.6-0.4-1.3-0.7-2-1c-0.8-0.3-1.7-0.7-2.8-1.1c0.9,0.2,1.7,0.3,2.6,0.4c0.2,0,0.5,0,0.6,0C45,109.4,45.5,109.5,46,109.5L46,109.5
		z M41.9,114.5c0-0.1,0-0.2-0.1-0.3c-0.1-0.2-0.1-0.4-0.2-0.6c-0.1-0.1-0.1-0.2-0.1-0.3c0.6-0.4,1.3-0.5,2.1-0.4l0.1,0
		c0,0,0.1,0,0.2,0l0.1,0.1c0.2,0.1,0.3,0.1,0.4,0.2c0.2,0.1,0.5,0.3,0.8,0.4L41.9,114.5z M61.6,104.5c0.2-0.1,0.4-0.3,0.5-0.4
		c0.5,1.1,1,2.4,1.3,3.9c0.1,0.5,0.2,1,0.3,1.5c-0.1,0.1-0.2,0.1-0.3,0.2c-3.8,2.2-6.9,4.5-9.4,7v-8.2c0.2-0.1,0.5-0.1,0.7-0.2
		c0.2-0.1,0.5-0.2,0.7-0.3c0.5-0.2,1.1-0.5,1.6-0.7c0.1-0.1,0.2-0.1,0.3-0.2C58.8,106.4,60.2,105.6,61.6,104.5z M152.1,185.3
		c-0.1-0.7-0.2-1.4-0.2-2.2c-0.3-3.8-0.5-8.9-0.7-15.4c-0.1-7-0.5-12.1-1.3-15.1c3.1-2.3,5.5-4.8,7.3-7.5c0.3,0.9,0.6,1.8,0.9,2.7
		c0.5,1.4,0.9,2.7,1.2,3.8l0.1,0.5c0.1,0.4,0.2,0.7,0.3,1.1c0.2,0.9,0.4,1.6,0.5,2.2c0.5,3.2,0.5,6.3,0,9.2
		c-0.3,1.9-0.6,3.7-0.8,5.4l-0.8,5.4c-0.3,1.6-0.4,3.4-0.5,5.4c0,1,0,2.1,0,3.2c-0.1,0.1-0.3,0.3-0.4,0.4c-1,0.7-2.2,1.1-3.5,1.1
		H154l-1.7-0.2C152.3,185.4,152.2,185.4,152.1,185.3z M81,202.8c0,0.4,0,0.9-0.1,1.4c-1.8,0.9-3.7,1.3-5.8,1.3
		c-1.6-0.1-3.5-0.4-5.8-1.1c-1.3-0.4-3.2-1-5.8-1.9c-2.3-0.7-4.2-1.1-5.8-1.2c-0.7-0.1-1.8-0.2-3.3-0.2c-1.5-0.1-2.7-0.1-3.5-0.2
		c-2.6-0.4-4.5-1.4-5.7-3c-0.5-0.7-0.8-1.5-0.8-2.4c0-0.9,0.2-1.8,0.6-2.5c2.6,2.3,5.8,3.5,9.7,3.4c2.6-0.1,4.9-0.7,6.7-1.8
		c2.1,1.1,5.5,2.5,10.3,4.1c5,1.7,7.9,2.9,8.9,3.7C80.6,202.3,80.7,202.5,81,202.8z M37.4,239.2c-0.9,0.1-1.7,0-2.6,0l-2.4-0.6
		c-2.6-0.8-4.4-2.3-5.5-4.4c-0.6-2-1.2-4.5-1.8-7.5c-0.6-3.4-1.1-5.9-1.4-7.6c2.3,0.5,4.2,0.8,5.7,0.7c0.3,0,0.6-0.1,0.9-0.1
		c0.3,1,1.1,3,2.4,6c2.1,4.8,3.2,7.6,3.6,8.5C36.4,234.5,36.7,236.1,37.4,239.2z M161.5,196.8c-0.4,1.4-0.5,3.2-0.3,5.2
		c0.1,0.9,0.4,2.6,0.8,5.2c-0.4-0.1-0.8-0.1-1.2,0l-0.3-4.4c-0.2-1.8-0.4-3.2-0.8-4.4l0.8-1L161.5,196.8z M154.2,211
		c-0.1,0.5-0.3,0.9-0.4,1.2l-0.2,0.3c0,0.1,0,0.2-0.1,0.2c0,0,0,0.1,0,0.1v0l-0.2,0.2c-0.1,0.1-0.1,0.2-0.2,0.2
		c-0.6,0.5-1.5,1-2.6,1.5c-0.2,0.1-0.3,0.1-0.5,0.2l-1.7,0.5h0l-2.1,0.4c-0.1,0-0.2,0.1-0.4,0.1l-4,0.8c-1.1,0.2-2,0.3-2.7,0.3
		c-0.3,0-0.6-0.2-0.7-0.6c-0.1-0.4,0-0.7,0.2-0.9c0.2-0.2,0.4-0.5,0.6-0.7c1.4-0.1,2.7-0.2,3.8-0.2c2.3-0.2,3.9-0.3,5-0.5
		c0.4,0,0.7-0.1,1.1-0.1c0.8-0.2,1.6-0.4,2.2-0.8c0.3-0.2,0.7-0.5,1-0.8c0.4-0.5,0.8-0.8,1-1c0.1-0.1,0.1-0.1,0.2-0.2
		C153.8,211.1,154,211.1,154.2,211z M172.5,225.6c0,0.3-0.1,0.5-0.2,0.7c-0.3,0.9-0.8,1.6-1.5,2c-1.9,0.9-3.2,1.5-3.8,1.9
		c-1.4,0.7-2.4,1.2-3.2,1.3c-0.3,0.1-0.6,0.1-1,0c-0.5-0.1-0.8-0.3-1-0.6c-0.2-0.3-0.4-0.6-0.5-0.8l-0.4-0.8c0-0.1-0.1-0.2-0.1-0.3
		v0c-0.5-1.3-0.6-2.7-0.3-4.1c0.1,0.2,0.2,0.5,0.3,0.8c0.1,0.4,0.3,0.9,0.4,1.5c0.3,1.3,0.6,2.1,1,2.5c0.1,0.1,0.3,0.2,0.4,0.2
		c0.5,0,1-0.1,1.7-0.3c1-0.3,2.2-0.7,3.5-1.4c0.5-0.2,1-0.5,1.6-0.8c0.9-0.5,1.7-0.9,2.4-1.2C172,225.8,172.3,225.7,172.5,225.6z"/>
	<polygon class="st21" points="32.1,117.2 41.9,114.5 45.2,113.7 45.4,113.6 45.4,113.7 45.4,115.5 30,122 30,117.8 	"/>
	<path class="st22" d="M48.5,109.5c1.9-0.2,3.7-0.5,5.5-1v8.2c-4.9,4.9-7.3,10.3-7.3,16.3c0,3.8,1,7.3,2.9,10.7
		c-1.7,6.1-4,12.8-6.7,20.2v-0.1c0,0,0-0.1,0-0.1c-0.2,0.3-0.3,0.6-0.5,1c-0.3,0.7-0.6,1.6-0.8,2.6c-0.5,1.9-0.8,3.1-1,3.6
		c-1.4,3-2.4,6.5-3,10.2c-0.5,2.9-0.8,6.5-0.9,10.6c-0.1,2.4-0.1,6-0.2,10.7c0,4.2-0.2,7.7-0.6,10.6c0.2,2.1-0.2,3.6-1.3,4.6
		c0,0,0,0,0,0c-0.1,0.1-0.1,0.2-0.2,0.2c-0.5,0.5-1,0.9-1.7,1.2l-0.5,0.2c-0.5,0.2-1,0.3-1.6,0.4c-0.1-0.8-0.3-1.9-0.5-3.5
		c-0.4-2.8-0.6-5.8-0.6-8.8c0-18.8,2.8-36.8,8.3-54.2c3-9.6,4.9-16,5.6-19.2c0.9-3.9,1.6-7.8,2-11.8c0.3-2.6,0.5-5.3,0.6-8
		c0,0,0.1,0,0.1,0c0.9,0.5,1.6,0.7,2.2,0.8c0.6,0,1.3-0.4,1.8-1.1c-1.2-0.9-2.5-1.8-4.1-2.6c0-0.1,0-0.3,0-0.4c0-0.4,0-0.8,0-1.2
		c0.4,0,0.7,0,1,0c0.2,0,0.4,0,0.6,0s0.4,0,0.6,0C48.3,109.5,48.4,109.5,48.5,109.5z"/>
	<path class="st22" d="M68.6,107c-1.7,0.8-3.3,1.6-4.9,2.5c-0.1-0.5-0.2-1-0.3-1.5c-0.3-1.5-0.8-2.8-1.3-3.9
		c0.5-0.4,0.9-0.7,1.3-1.1c0.6-0.5,1-1.1,1.2-2c0.3-1,0.2-2.1-0.2-3.1c0.5-2.2,0.8-4.6,0.8-6.9c0-0.6,0-1.2,0-1.8
		c0.6,1,0.9,2.5,0.7,4.4c-0.1,1.4-0.2,2.3-0.2,2.6c0,1,0.2,1.8,0.5,2.5C67.1,101.3,67.9,104,68.6,107z M57,196
		c0.3-0.1,0.6-0.1,0.9-0.2c0-0.1,0-0.2,0-0.3c-0.7-3.4-1.2-9.8-1.6-19.2c-0.3-7,0.3-14.8,1.7-23.5c1.6,1.2,3.4,2.4,5.4,3.5
		c-0.3,3-0.4,7-0.2,11.9c0.2,6.4,0.2,11-0.2,13.8c-0.1,1,0.1,2.8,0.6,5.2c0.5,2.2,0.6,3.8,0.3,4.9C62.2,194.2,59.8,195.5,57,196z"/>
	<path class="st23" d="M59,103.1c0.8-0.5,1.6-1.1,2.4-1.7c0,0.2,0,0.4,0,0.6c0,0.2,0.1,0.5,0.1,0.7c0.1,0.6,0.1,1.2,0.2,1.7
		c-1.4,1.1-2.8,2-4.3,2.7c-0.1,0-0.2,0.1-0.3,0.2c-0.5,0.2-1,0.4-1.6,0.7c-0.2,0.1-0.5,0.2-0.7,0.3c-0.1-0.2-0.1-0.4-0.1-0.6
		c-0.1-0.6-0.1-1.2-0.1-1.9c1.5-0.5,2.9-1.1,4.3-1.9L59,103.1z"/>
	<path class="st24" d="M45.1,197.8c1.1,1.7,3,2.7,5.7,3c0.8,0.1,1.9,0.2,3.5,0.2c1.5,0.1,2.6,0.2,3.3,0.2c1.6,0.1,3.5,0.5,5.8,1.2
		c2.6,0.9,4.5,1.5,5.8,1.9c2.3,0.7,4.2,1,5.8,1.1c2.1,0,4-0.4,5.8-1.3c0.2,1.3-0.5,2.2-1.8,2.6c-0.5,0.1-1.7,0.2-3.7,0.2
		c-1.4,0.1-3-0.1-4.7-0.5c-1.1-0.2-2.5-0.7-4.4-1.4c-2.1-0.7-3.5-1.2-4.4-1.5c-1.7-0.5-3.2-0.7-4.6-0.6c-0.2,0.2-0.4,0.5-0.5,0.9
		c-0.1,0.2-0.2,0.5-0.3,1c-1.2-0.1-3-0.3-5.5-0.5c-2.1-0.3-3.8-0.9-5.1-1.7c-0.7-0.5-1.1-1.2-1.1-2.2
		C44.7,200,44.8,199.2,45.1,197.8z M41.8,235.3c0.2,1.3,0.3,2.2,0.2,2.9c-0.2,1.1-0.7,1.8-1.7,2c-2.8,0.8-5.5,0.7-8.2-0.3
		c-3-1.1-4.8-3-5.2-5.7c1.1,2.1,2.9,3.6,5.5,4.4l2.4,0.6c0.9,0.1,1.7,0.1,2.6,0c0.2,0,0.4,0,0.6,0h0.1c0.1,0,0.3,0,0.4-0.1
		c0.3-0.1,0.7-0.1,1-0.2c0.8-0.1,1.4-0.6,1.8-1.3C41.7,236.8,41.9,236.1,41.8,235.3z"/>
	<path class="st14" d="M173.4,43c-1.1-1-2.2-2-3.2-3.1c0,0-0.2-0.1-0.4-0.4c-0.2-0.2-0.6-0.6-1.1-1c0,0,0,0-0.1-0.1
		c-0.1-0.5-0.3-1.1-0.5-1.6c0-0.9,0-1.7,0-2.4c0-1.5,0.1-2.9,0.2-4.2c0.8-0.7,1.5-1.5,2.1-2.3c0.5-0.6,1-1.3,1.4-2
		c0.1-0.1,0.2-0.2,0.2-0.4c0.1-0.1,0.2-0.3,0.2-0.4c0.1-0.1,0.2-0.2,0.2-0.3c0-0.1,0-0.1,0.1-0.2l0.1-0.2c0.1-0.1,0.1-0.2,0.1-0.2
		c0.7-1.2,1.2-2.5,1.6-3.8c0.5-1.4,0.8-2.9,0.9-4.3c0.1-1,0-2.1-0.2-3.1c0-0.5,0-1,0-1.5c-0.5-1.2-0.9-2.1-1.3-2.5l-0.2-0.2l0,0
		c0.4-1,0.6-1.7,0.6-2.1c-0.1-0.9-0.4-1.6-1-2.1c0.1-0.8-0.2-1.5-0.9-2.1c-0.2-0.1-0.4-0.3-0.6-0.4c0.9-0.5,1.8-0.6,2.8-0.5
		c1,0.2,1.9,0.6,2.6,1.3c1.2,1.3,2,2.7,2.6,4.4c0.2,0.7,0.4,1.3,0.5,2l0.1,2.9c0.1,1.3,0,2.7-0.2,4.2c-0.2,1.5-0.5,2.9-0.9,4.4
		L175.5,32c-0.5,1.5-0.9,3-1.1,4.5c-0.3,1.6-0.5,3.2-0.7,4.8l0,0.2C173.6,42,173.5,42.5,173.4,43z M169.5,2.1
		C169.5,2.1,169.5,2.1,169.5,2.1L169.5,2.1L169.5,2.1z"/>
	<path class="st2" d="M175.1,13.2C175.1,13.2,175.1,13.2,175.1,13.2c-0.2,2.8-1.4,5.6-3.8,8.6l-1.4-1.3c1.3-1.9,2.2-3.2,2.6-4.1
		c0.9-1.6,1.3-3.2,1.2-4.6l-0.2-2.9l0.2,0.2c0.4,0.5,0.8,1.3,1.3,2.5C175.1,12.2,175.1,12.6,175.1,13.2z M172.7,24.3
		c0,0.1-0.1,0.2-0.1,0.2l-0.1,0.2c0,0.1-0.1,0.1-0.1,0.2c-0.1,0.1-0.1,0.2-0.2,0.3c-0.1,0.1-0.1,0.2-0.2,0.3c0,0-0.1,0.1-0.1,0.1
		c-0.1,0.1-0.1,0.2-0.2,0.4c0,0,0,0.1-0.1,0.1v-1.8l0.6-1.1c1-1.8,1.6-3,2-3.7C174,21.1,173.5,22.7,172.7,24.3z M170.8,4.9
		c-0.6,1.9-1.7,3.6-3.5,5.1c-1.6,1.3-3.4,2.3-5.6,2.9c-1-0.8-2.1-1.6-3.3-2.3l0.9,3.6c0,0.1,0,0.3,0,0.4c-1,0.1-2-0.4-3-1.6
		c-0.1-0.5-0.1-0.9-0.2-1.4c-0.2-2-0.4-3.4-0.6-4.4h-0.8c-0.2,0.6-0.3,1.3-0.2,2.2l0.4,2.2c0.1,0.3,0.1,0.7,0.2,1.1
		c-0.6,0.1-1.2,0-1.8-0.5c0.2-1.4,0.4-2.5,0.4-3.2c-0.5,0.9-1,1.9-1.4,3c-0.4-0.1-0.7-0.1-1.1-0.1c0.4-1.2,0.8-2.4,1.4-3.6L150.9,8
		c1.5-0.4,2.6-0.8,3.5-1.3c-0.2-1.2,0.2-2.2,1.2-3.2c0.6-0.7,1.6-1.3,3-1.9l1.1-0.2c2.4-0.4,4.6-0.2,6.6,0.6
		c-2.8-0.5-5.2-0.3-7.2,0.6c-1,0.4-1.8,0.9-2.4,1.3c-0.7,0.6-1.2,1.4-1.2,2.2l0.3,0c1.1-1.3,2.3-2.2,3.6-2.8c1.5-0.7,3-1,4.5-0.8
		c0.7-0.1,1.5-0.3,2.4-0.6l1.1,0.4l1.3,1.1c0,0,0,0-0.1,0c-3.9,0.2-8,1.4-12.2,3.8l1.3,2.1l2.8-1.3c1.1-0.5,2.1-0.9,2.8-1.2
		c1.4-0.5,2.5-1,3.2-1.3c1.3-0.5,2.3-1,3.1-1.5l0,0c0.2,0.1,0.5,0.3,0.8,0.6C170.5,4.7,170.6,4.8,170.8,4.9z M151.4,4.7
		c1.6-1.1,3-1.9,4.2-2.2c-1.1,0.9-2.1,1.7-3,2.5L151.4,4.7z M163.5,2.7c-3.1,0.5-5.3,1.6-6.7,3.4l3.6-1.8c1.4-0.7,2.7-1,3.8-1.2
		L163.5,2.7z M145.9,12.3c0.1-1,0.4-2,0.9-3.1l1.7-2.8c1.2-0.4,2.2-0.4,3.1,0.1c-1.3,0.6-2.5,1.3-3.5,2.3
		C147.1,9.8,146.4,10.9,145.9,12.3z"/>
	<path class="st4" d="M172.2,25.3c-0.1,0.1-0.2,0.3-0.2,0.4c0,0,0.1-0.1,0.1-0.1C172.1,25.4,172.1,25.3,172.2,25.3z M172.7,24.3
		c0.8-1.6,1.3-3.2,1.5-4.9c-0.4,0.6-1,1.8-2,3.7l-0.6,1.1v1.8c0,0,0-0.1,0.1-0.1c-0.4,0.7-0.9,1.3-1.4,2c-0.6,0.8-1.3,1.6-2.1,2.3
		c-0.2,0.2-0.3,0.3-0.5,0.4c-0.5,0.6-0.9,0.9-1.1,1.1c-0.1,0.1-0.1,0.1-0.2,0.1c-0.4,0.3-0.9,0.4-1.3,0.3l0.3-1.3
		c0.2-0.5,0.4-0.8,0.7-1.1l0,0c1-0.2,1.8-0.7,2.6-1.3l0.4-0.4c0,0,0,0,0,0l0.2-0.2c0.7-0.7,1-1.6,0.9-2.6c-0.2-1.9-0.8-2.8-2-2.7
		l-1.8,0.4c-1.9,2.1-3.3,2.9-4,2.4c-0.7-0.4-1-0.8-0.8-1.1c1.2-0.5,1.9-1.5,2.2-3c0.1-0.7,0.1-1.4,0-2.3c-0.2-0.8-0.5-1.4-1-1.8
		c-0.9-0.9-2.2-1.9-3.7-2.8c0,0-0.1,0-0.1,0c0-0.1,0-0.2,0-0.4l-0.9-3.6c1.2,0.7,2.3,1.5,3.3,2.3c2.1-0.7,4-1.6,5.6-2.9
		c1.8-1.5,2.9-3.2,3.5-5.1l2.1,3.1c0-0.5,0.1-1,0.1-1.5l-0.1,1.5c0,0,0,0,0,0.1l0.6,1l0,0l0.2,2.9c0,1.4-0.4,3-1.2,4.6
		c-0.4,0.8-1.3,2.2-2.6,4.1l1.4,1.3c2.4-3,3.7-5.8,3.8-8.5c0,0,0-0.1,0-0.1c0.2,1,0.2,2,0.2,3.1c-0.1,1.5-0.4,2.9-0.9,4.3
		C173.9,21.9,173.4,23.1,172.7,24.3z M168.6,3.5L168.6,3.5l1,0.5v0c-0.8,0.5-1.8,1-3.1,1.5c-0.7,0.3-1.8,0.8-3.2,1.3
		c-0.8,0.3-1.7,0.7-2.8,1.2l-2.8,1.3l-1.3-2.1C160.6,5,164.7,3.7,168.6,3.5z M166.2,2.1c-0.9,0.2-1.7,0.4-2.4,0.6
		c-1.5-0.2-2.9,0-4.5,0.8c-1.3,0.6-2.5,1.6-3.6,2.8l-0.3,0c0.1-0.9,0.5-1.6,1.2-2.2c0.6-0.5,1.4-0.9,2.4-1.3
		C161,1.8,163.4,1.6,166.2,2.1z M148.5,6.3c0.9-1.4,1.8-2,2.9-1.6l1.2,0.3c0.9-0.8,2-1.7,3-2.5c0.6-0.3,1.6-0.6,2.9-0.8
		c-1.4,0.6-2.4,1.3-3,1.9c-1,0.9-1.3,2-1.2,3.2c-0.8,0.5-2,0.9-3.5,1.3l1.8,0.1c-0.5,1.2-1,2.4-1.4,3.6c-0.6-0.1-1.3-0.1-1.9,0
		c-1,0.9-1.9,2-2.5,3.3c-0.5,1-0.9,2.1-1.2,3.4l0.1-0.1c-0.2,1.1-0.4,2.2-0.4,3c0,0.5,0,1.1,0,1.7c0,0,0,0-0.1,0
		c-0.1-0.1-0.2-0.2-0.3-0.3c-0.1-0.1-0.2-0.2-0.3-0.4c-0.1-0.1-0.1-0.2-0.1-0.4c0-0.5,0-0.9,0-1.1c-0.3-2.6,0.1-5.5,1.3-8.7
		c0.5-1.3,1.2-2.5,2.2-3.5c1-1,2.1-1.8,3.5-2.3C150.7,6,149.7,5.9,148.5,6.3z M153.4,12.1c-0.3-0.1-0.6-0.2-1-0.2
		c0.4-1.2,0.9-2.2,1.4-3C153.8,9.6,153.7,10.7,153.4,12.1z M156.2,13c-0.3-0.1-0.7-0.3-1-0.4c-0.1-0.4-0.2-0.7-0.2-1.1l-0.4-2.2
		c-0.1-0.9-0.1-1.6,0.2-2.2h0.8c0.2,1,0.4,2.4,0.6,4.4C156.1,12,156.2,12.5,156.2,13z M169.4,2.1L169.4,2.1
		c-0.5,0.2-0.9,0.2-1.2,0.3C168.5,2.3,168.9,2.2,169.4,2.1z M163.5,2.7l0.8,0.5c-1.1,0.1-2.4,0.5-3.8,1.2l-3.6,1.8
		C158.1,4.3,160.4,3.2,163.5,2.7z"/>
	
		<linearGradient id="SVGID_6_" gradientUnits="userSpaceOnUse" x1="-2570.3308" y1="-1176.4316" x2="-2554.4551" y2="-1176.4316" gradientTransform="matrix(-0.9824 -0.187 0.187 -0.9824 -2112.4404 -1564.9611)">
		<stop  offset="0" style="stop-color:#BDE3E6"/>
		<stop  offset="1" style="stop-color:#F0F7F7"/>
	</linearGradient>
	<path class="st25" d="M151.6,63.7l0.9-0.6c2.2-1.4,4.5-2.8,6.7-4.2c0.1,0,0.2-0.1,0.3-0.1c0,0,0.1-0.1,0.2-0.1l0.6-0.3l0.8-0.5
		l1.9-1.2l0,0l0,0l1.4,0.4l1.7-1c0.4-0.2,0.8-0.4,1.2-0.4l-2.7,1.6c0-0.1-0.1-0.1-0.2,0l-12.1,7.4l-2.4,1.5l1.2-0.7l-1.4-0.4
		L151.6,63.7z M176.5,76.9c4.3-2.5,7-3.9,8.2-4.2c0,0-0.1,0.1-0.1,0.1c0.2,0,0.5-0.1,0.7-0.1c0.7-0.2,1.3-0.4,1.9-0.8l0.1,0
		c0.9-0.6,1.4-1.2,1.4-1.8c0-0.9-1.8-3.4-5.3-7.6c-1.8-2.1-3.5-4.1-5.3-6.1c-0.2-0.2-0.7-0.7-1.6-1.6c-0.9-0.8-1.8-1.5-2.7-2.1
		c-1-0.6-2.3-0.9-4.1-0.8c-1,0.1-1.8,0.2-2.2,0.3c-0.4,0.1-0.6,0.2-0.7,0.4c-0.2,0.4-0.5,0.9-0.8,1.4c0.6-1.6,1.7-3.2,3.4-4.8
		c2.4-2.4,4.5-3.5,6.3-3.5c0.3,0,0.8,0.2,1.5,0.7c0.2,0.2,0.4,0.3,0.6,0.5c0.9,0.7,1.6,1.5,2.2,2.3c1.1,1.6,3.3,4.6,6.5,9
		c4,5.4,6.8,9.1,8.6,11.1c0,0,0.1,0.1,0.1,0.1l-0.8,0.2l-0.9,0.3l0.9-0.3l0.8-0.3c0.1,0.2,0.3,0.3,0.4,0.5c0.1,0.2,0.1,0.4,0.2,0.6
		c0.2,0.6,0.2,1.1,0.2,1.5c0,1-2.3,2.6-7,4.8c-3.2,1.5-6.5,2.9-10,4.1c-1.8,0.6-4.7,1.9-8.9,3.7c-0.4,0.2-0.8,0.4-1.2,0.5
		c-1.5,0.7-2.8,1.3-3.7,1.8v0.1l-2.2-4.3L176.5,76.9z M165.2,87.2c0.3,0.7,0.6,1.2,0.9,1.6l-0.2,0L165.2,87.2z"/>
	<path class="st26" d="M151.6,63.7L151.6,63.7c-0.2-0.6-0.2-1.3,0.1-1.9c0.3-0.7,0.8-1.3,1.5-1.7l4.4-2.6c0.7-0.5,1.5-0.6,2.2-0.4v0
		c0.6,0.1,1,0.4,1.3,0.9l-0.8,0.5c-0.2-0.3-0.5-0.6-0.8-0.7l0,0c-0.4-0.1-0.8,0-1.2,0.3l-4.4,2.7c-0.5,0.3-0.9,0.8-1.1,1.3
		c-0.2,0.4-0.2,0.8-0.2,1.1L151.6,63.7z"/>
	
		<linearGradient id="SVGID_7_" gradientUnits="userSpaceOnUse" x1="294.2537" y1="-854.9634" x2="331.9316" y2="-854.9634" gradientTransform="matrix(0.7982 0.6023 -0.8249 0.6303 -791.5615 427.8237)">
		<stop  offset="3.921570e-03" style="stop-color:#646464"/>
		<stop  offset="1" style="stop-color:#AFAEAE"/>
	</linearGradient>
	<path class="st27" d="M164.6,57.3l2.7-1.6c0.7-0.1,1.3,0.3,1.6,1.1l1.6,4.1l1.8,4.9l4.3,11.1l-13.7,5.6l-0.5,0.2l-1.3-0.2
		c-0.7-0.1-1.4-0.2-1.8-0.2c-2-0.1-4.1,0.3-6.2,1.2c-0.1,0-0.2,0.1-0.3,0.1l-5.3-13.8c-0.2-0.5-0.3-1-0.2-1.4
		c0.1-0.5,0.4-0.9,0.9-1.3c0.1-0.1,0.3-0.2,0.4-0.3l1.2-0.7l2.4-1.5l-1,0.6c-0.1,0.1-0.1,0.2-0.1,0.2l1.1,2.9
		c0.1,0.1,0.5-0.1,1.3-0.6l11.1-6.8c0.8-0.5,1.2-0.8,1.1-0.9L164.6,57.3z M153.5,85.6L153.5,85.6c0.1,0,0.1,0,0.2,0c0,0,0,0,0.1,0
		c0.1,0,0.2,0,0.2,0.1c-0.1,0.1-0.1,0.1-0.1,0.2c-0.1,0.1-0.2,0.1-0.2,0.2L153.5,85.6z M174.3,90.7l-12.1,7.4l-1.2,0.8
		c-1,0.6-1.8,0.6-2.4-0.1c-0.1-0.2-0.2-0.4-0.3-0.6l-1.2-3.2c0.1,0,0.1,0,0.1,0l1.7-0.4c0.5-0.1,1-0.4,1.5-0.8
		c0.5-0.5,0.9-0.9,1.2-1.1l1.4-1.2c0.5-0.4,0.9-0.9,1.3-1.4c0.3-0.5,0.8-0.8,1.6-1.1l0.2,0c0,0,0.1,0,0.1,0.1
		c0.3,0.4,0.6,0.6,0.9,0.6c5.8-2.1,10-3.6,12.6-4.6l0.1,0.2c0.5,1.3,0.1,2.3-1.2,3.1L174.3,90.7z"/>
	<path class="st28" d="M152.2,64.7l12.1-7.4c0.1-0.1,0.2-0.1,0.2,0l1.1,2.9c0.1,0.1-0.3,0.4-1.1,0.9l-11.1,6.8
		c-0.8,0.5-1.3,0.7-1.3,0.6l-1.1-2.9c0-0.1,0-0.1,0.1-0.2L152.2,64.7z"/>
	
		<linearGradient id="SVGID_8_" gradientUnits="userSpaceOnUse" x1="-2527.7383" y1="-1173.144" x2="-2514.0464" y2="-1173.144" gradientTransform="matrix(-0.9824 -0.1868 0.1868 -0.9824 -2112.9106 -1564.0729)">
		<stop  offset="0" style="stop-color:#BDE3E6"/>
		<stop  offset="1" style="stop-color:#F0F7F7"/>
	</linearGradient>
	<path class="st29" d="M147.5,32.8c-0.5,0.5-0.9,1.1-1.3,1.8c-0.9,1.4-2.2,4-4,7.8c-0.3,0.5-0.6,1.5-0.9,3c0-0.1,0-0.2,0-0.3
		c0-1.2,0-2.2,0-3c0-2.3,0.2-4.2,0.4-5.5c0.3-1.3,0.7-2.3,1.2-3.2c0.9-1.4,2.2-2.2,3.9-2.5L147.5,32.8z M139.5,80.9
		c-0.1,0.2-0.2,0.4-0.3,0.6c0,0,0,0,0,0c-0.7,1.8-1.1,3.5-1.4,5.3l-0.9-0.5c0.1-1.3,0.2-2.2,0.2-2.6c0-2.2,0-3.9,0-5
		c0,0,0-0.1,0-0.1c-0.1-1.2,0-2.5,0.1-3.8v-0.2c0-0.2,0.1-0.5,0.1-0.7c0,0,0-0.1,0-0.2c0.2-2,0.7-4.2,1.3-6.4
		c0.1-0.6,0.2-1.2,0.4-1.8c0.1,0.1,0.2,0.1,0.2,0.2c0.5,0.3,0.8,0.7,0.8,1c0,0.1,0,0.2,0,0.4c0.1,0.6,0.2,1.3,0.5,2.4c0,0,0,0,0,0.1
		c0,0.1,0.1,0.1,0.1,0.2c0.1,0.2,0.1,0.5,0.2,0.9c0.2,0.5,0.3,1.1,0.6,1.9c0.4,1.4,0.6,2.3,0.6,2.8c0,0.7,0,1.2-0.1,1.5
		c0,0.1-0.1,0.3-0.3,0.8c-0.1,0.2-0.5,0.8-1.1,1.8C139.9,79.9,139.6,80.5,139.5,80.9z"/>
	<path class="st22" d="M139.1,84.2c0,1,0.2,2.2,0.5,3.7l-1.9-1.1c0.3-1.7,0.8-3.5,1.4-5.3c0,0,0,0,0,0c0.1-0.2,0.2-0.5,0.3-0.6
		c0,0,0,0.1,0,0.1c0,0-0.1,0.4-0.2,1c0,0.1,0,0.2-0.1,0.3c-0.1,0.1-0.1,0.6-0.1,1.4c0,0,0,0.1,0,0.1V84.2z M152.1,185.3
		c-1.1-0.3-2-0.8-2.8-1.6c-0.1-0.1-0.3-0.3-0.4-0.4c-0.2-1.8-0.6-4-1.1-6.6c-0.9-5.2-1.4-8.1-1.5-8.7c-0.7-3.7-1.1-7.7-1.3-12.1
		c1.8-1.1,3.5-2.2,5-3.4c0.7,3.1,1.2,8.1,1.3,15.1c0.1,6.5,0.4,11.6,0.7,15.4C151.9,183.9,152,184.6,152.1,185.3z"/>
	<path class="st30" d="M139.6,87.9c-0.3-1.5-0.5-2.7-0.5-3.7c0.1,1.7,0.8,3.2,2.2,4.7L139.6,87.9z M146.9,92.7
		c2.4,1.1,5.1,1.8,7.9,2.1c0.1,0.3,0.3,0.4,0.5,0.5h0c-1.1,1.9-2.1,4.2-2.9,6.8c-0.7,2.4-1,4.4-1,5.9c0,0.8,0.3,1.6,1,2.4
		c0.1,0.1,0.2,0.3,0.3,0.4c0,0-0.1,0-0.1,0c-1.4,0-3.1-1-5-3c-0.1-0.1-0.2-0.2-0.3-0.3V95.1c0-0.3,0-0.6,0-0.8
		C147.2,93.7,147.1,93.1,146.9,92.7z"/>
	<linearGradient id="SVGID_9_" gradientUnits="userSpaceOnUse" x1="194.8194" y1="69.7226" x2="165.6793" y2="69.7226">
		<stop  offset="3.921570e-03" style="stop-color:#D99984"/>
		<stop  offset="1" style="stop-color:#F3DAC2"/>
	</linearGradient>
	<polygon class="st31" points="194.3,69.6 194.3,69.6 193.4,69.9 	"/>
	<path class="st22" d="M159.3,151.6c-0.7-2.5-1.3-4.9-1.7-7.1c2.2-3.5,3.4-7.4,3.4-11.4c0-5.7-2.2-10.9-6.6-15.6
		c-0.5-4.1-0.7-6.2-0.9-6.2c-0.2,0-0.5-0.2-0.8-0.5c-0.1-0.1-0.2-0.2-0.3-0.4c-0.7-0.7-1-1.5-1-2.4c0-1.6,0.3-3.6,1-5.9
		c0.8-2.6,1.7-4.9,2.9-6.8h0c0,0,0.1,0,0.1,0c0.2,0,0.4-0.1,0.6-0.1h0l1,2.5c0.3,0.8,0.8,1.2,1.5,1.1c0.5,0.7,1.3,0.8,2.4,0.1
		l1.2-0.8c2.4,5.6,3.5,11.1,3.5,16.4c0,1.6-0.3,5.3-0.9,11c-0.6,5.8-0.9,9-0.9,9.6c0,4.6,0.3,8.8,0.9,12.6c0.4,2.5,1.1,5.6,2,9.2
		c0.1,0.3,0.1,0.5,0.2,0.8c0.9,3.5,1.5,6.1,1.8,7.8c0.6,3.4,0.9,7,0.9,10.8c0,2-0.4,7.3-1.2,15.9c-0.2,1.8-0.3,3.6-0.5,5.4
		c-0.1,1.1-0.2,2.2-0.3,3.3c-0.8-0.1-1.5-0.4-2.1-1c-0.1-0.1-0.3-0.3-0.4-0.4c0-0.1,0-0.1,0-0.2c0.4-2.8,0.6-5.6,0.6-8.5
		c0-1.8-0.3-5.2-0.8-10.3c-0.5-4.4-0.6-8-0.4-10.7c0.2-2.8-0.3-5.5-1.4-8.2c-1.5-2.8-2.4-5-2.9-6.7c-0.2-0.6-0.3-1.1-0.5-1.6
		c-0.1-0.3-0.2-0.7-0.3-1.1L159.3,151.6z"/>
	<path class="st32" d="M147.3,112.5c3.3,2.6,5.8,5.3,7.5,8.2c1.8,3.1,2.7,6.4,2.7,10c0,2.1-0.3,4.1-0.9,6.1
		c-0.1,0.5-0.3,0.9-0.5,1.4c-1.4,3.5-4,6.8-7.6,9.8c-1.2,1-2.5,2-3.9,2.9c-0.9,0.6-1.8,1.1-2.7,1.7c-10.4,6-23,9-37.8,9
		c-14.8,0-27.3-3-37.8-9c-0.5-0.3-0.9-0.5-1.4-0.8c-2.2-1.4-4.2-2.8-5.9-4.3c-3.8-3.3-6.3-7-7.5-10.9c-0.6-1.8-0.8-3.8-0.8-5.7
		c0-3.9,1.1-7.6,3.3-11c2.2-3.4,5.5-6.5,9.9-9.3c0.8-0.5,1.6-1,2.4-1.5c0.8-0.5,1.6-0.9,2.5-1.3c4.3-2.2,8.9-4,13.9-5.3l6.1-1.2
		l7.3-0.9c0.9-0.1,1.7-0.1,2.6-0.2v3.2v0.7l-6.1,3.5l42.1,25.1l17.1-9.9l-4.5-2.7V112.5z M95.7,122.9l3-1.7l-21.5-12.3l-17.8,10.3
		l0.2,0.1l-1.9,1.1L81,134.2l17.1-9.9L95.7,122.9z"/>
	<path class="st33" d="M98.7,104v4.6l36.7,20.8h0l11.9-6.8V120l4.5,2.7l-17.1,9.9l-42.1-25.1L98.7,104z M59.6,119.2l21.3,12.2
		l14.8-8.6l2.3,1.4L81,134.2l-23.3-13.9L59.6,119.2z"/>
	
		<linearGradient id="SVGID_10_" gradientUnits="userSpaceOnUse" x1="-2418.7444" y1="-1502.4457" x2="-2304.6133" y2="-1502.4457" gradientTransform="matrix(-1 2.500000e-03 -2.500000e-03 -1 -2261.6365 -1362.4149)">
		<stop  offset="3.921570e-03" style="stop-color:#944B19"/>
		<stop  offset="1" style="stop-color:#F6D9BA"/>
	</linearGradient>
	<path class="st34" d="M154.4,117.4c4.4,4.7,6.6,9.9,6.6,15.6c0,4.1-1.1,7.9-3.4,11.4c-0.1,0.2-0.3,0.4-0.4,0.7
		c-1.8,2.7-4.2,5.2-7.3,7.5c-1.5,1.2-3.2,2.3-5,3.4c-0.2,0.1-0.4,0.3-0.7,0.4c-6.6,3.8-14.1,6.5-22.4,8.1c-5.6,1.1-11.6,1.6-18,1.6
		c-6.3,0-12.2-0.5-17.8-1.5c-8.4-1.5-15.9-4.3-22.6-8.1c0,0-0.1,0-0.1,0c-2-1.1-3.8-2.3-5.4-3.5c-3.7-2.8-6.5-5.9-8.4-9.1
		c-1.9-3.3-2.9-6.9-2.9-10.7c0-6,2.4-11.5,7.3-16.3c2.5-2.5,5.7-4.8,9.4-7c0.1-0.1,0.2-0.1,0.3-0.2c1.6-0.9,3.2-1.7,4.9-2.5
		c4.4-2,9-3.6,14-4.7c-5,1.3-9.6,3-13.9,5.3c-0.8,0.4-1.7,0.9-2.5,1.3c-0.8,0.5-1.6,1-2.4,1.5c-4.4,2.8-7.7,5.9-9.9,9.3
		c-2.2,3.4-3.3,7.1-3.3,11c0,2,0.3,3.9,0.8,5.7c1.2,4,3.7,7.6,7.5,10.9c1.7,1.5,3.7,3,5.9,4.3c0.5,0.3,0.9,0.6,1.4,0.8
		c10.4,6,23,9,37.8,9c14.8,0,27.3-3,37.8-9c0.9-0.5,1.9-1.1,2.7-1.7c1.4-0.9,2.7-1.9,3.9-2.9c3.6-3,6.1-6.3,7.6-9.8
		c0.2-0.4,0.3-0.9,0.5-1.4c0.6-2,0.9-4,0.9-6.1c0-3.5-0.9-6.9-2.7-10c-1.7-2.9-4.2-5.7-7.5-8.2v-1
		C150.1,113.4,152.4,115.3,154.4,117.4z"/>
	<path class="st35" d="M96.6,51.8L94,48.4l-0.6-0.8c0-0.1,0.1-0.3,0.1-0.4l0.1-0.5c0-0.1,0-0.1,0-0.2c0.2-0.9,0.2-1.9,0.1-3
		c-0.1-0.6-0.2-1-0.5-1.4c-0.2-0.2-0.3-0.4-0.4-0.6c-0.2-0.5-0.2-1-0.1-1.6c0.1-0.2,0.2-0.4,0.2-0.6c0.2-0.4,0.4-1,0.8-1.7
		c0.4-0.9,0.6-1.6,0.6-2.1c0-0.6-0.5-1.2-1.3-1.8c-0.8,1-1.5,2.1-2.2,3.3c0.9-8.9,3.2-17,7-24.4l16.2,10.1c-3,5-5.6,10.3-7.8,15.8
		c-1.3,3.2-2.4,6.5-3.5,9.8c-0.9,2.8-1.6,5.7-2.3,8.7L96.6,51.8z M95.7,122.9l-14.8,8.6l-21.3-12.2l-0.2-0.1l17.8-10.3l21.5,12.3
		L95.7,122.9z M71.2,120.6L72,121l8.6-4.9l-0.8-0.5L71.2,120.6z M69,119.3l0.8,0.5l8.6-4.9l-0.8-0.5L69,119.3z M66.9,118.1l0.8,0.5
		l8.6-5l-0.8-0.5L66.9,118.1z M88.5,121.3l-0.8-0.5l-8.7,5l0.8,0.5L88.5,121.3z M93.5,120.8l-0.8-0.5L81.1,127l0.8,0.5L93.5,120.8z
		 M84.2,118.9l-0.8-0.5l-8.6,4.9l0.8,0.5L84.2,118.9z M86.3,120.1l-0.8-0.5l-8.6,4.9l0.8,0.5L86.3,120.1z"/>
	<path class="st36" d="M66.9,118.1l8.6-4.9l0.8,0.5l-8.6,5L66.9,118.1z M69,119.3l8.6-4.9l0.8,0.5l-8.6,4.9L69,119.3z M71.2,120.6
		l8.7-4.9l0.8,0.5L72,121L71.2,120.6z M86.3,120.1l-8.6,5l-0.8-0.5l8.6-4.9L86.3,120.1z M84.2,118.9l-8.6,4.9l-0.8-0.5l8.6-4.9
		L84.2,118.9z M93.5,120.8l-11.6,6.7l-0.8-0.5l11.6-6.7L93.5,120.8z M88.5,121.3l-8.6,5l-0.8-0.5l8.7-5L88.5,121.3z"/>
	<linearGradient id="SVGID_11_" gradientUnits="userSpaceOnUse" x1="104.1863" y1="136.9924" x2="104.1465" y2="242.1814">
		<stop  offset="0.2" style="stop-color:#70A5C2"/>
		<stop  offset="0.4039" style="stop-color:#ACC5D2"/>
		<stop  offset="0.5569" style="stop-color:#ACC5D2"/>
		<stop  offset="1" style="stop-color:#DAE4E7"/>
	</linearGradient>
	<path class="st37" d="M121.8,164.5c-3.7,21.6-1.3,40,7.1,55.2c0.6,1.1,1.3,2.2,1.9,3.3c0.8,1.3,1.7,2.7,2.7,4
		c0.6,1.4,0.9,2.8,0.9,4.4c0,4.8-2.9,8.9-8.8,12.3c-5.9,3.4-13.1,5.1-21.4,5.1c-8.3,0-15.5-1.7-21.4-5.1c-5.9-3.4-8.9-7.5-8.8-12.4
		c0-2.4,0.7-4.6,2.2-6.7c1.1-1.5,2-3,2.9-4.6c8.7-15,11.1-33.5,7-55.5c5.6,1,11.5,1.5,17.8,1.5C110.2,166,116.2,165.5,121.8,164.5z
		 M84.5,220c-5.5,3.2-8.2,7-8.2,11.4c0,4.5,2.7,8.3,8.2,11.4c5.5,3.2,12,4.7,19.8,4.7c7.7,0,14.3-1.6,19.8-4.7
		c5.5-3.1,8.2-6.9,8.2-11.4c0-4.5-2.7-8.3-8.2-11.4c-5.5-3.2-12-4.7-19.8-4.7C96.5,215.3,89.9,216.9,84.5,220z"/>
	<linearGradient id="SVGID_12_" gradientUnits="userSpaceOnUse" x1="104.2532" y1="247.6449" x2="104.2532" y2="215.3628">
		<stop  offset="7.843140e-03" style="stop-color:#E7EEEF"/>
		<stop  offset="1" style="stop-color:#9DB9C9"/>
	</linearGradient>
	<path class="st38" d="M84.5,220c5.5-3.1,12-4.7,19.8-4.7c7.7,0,14.3,1.6,19.8,4.7c5.5,3.2,8.2,7,8.2,11.4c0,4.5-2.7,8.3-8.2,11.4
		c-5.5,3.2-12,4.7-19.8,4.7c-7.7,0-14.3-1.6-19.8-4.7c-5.5-3.2-8.2-7-8.2-11.4C76.3,227,79,223.2,84.5,220z"/>
	<path class="st39" d="M130,82.3L130,82.3l0-2.3c0,0,0-0.1,0-0.1c0-1.1-0.1-2-0.3-2.8c0.2,0.8,0.3,1.8,0.3,3c0,0,0,0.1,0,0.1V82.3z
		 M127.8,85.4C127.8,85.4,127.8,85.4,127.8,85.4c0.1,0,0.1,0,0.2,0c0.6,0,1-0.2,1.4-0.6c0.3-0.3,0.5-0.8,0.6-1.2c0-0.1,0-0.2,0-0.3
		V83c0,0,0,0,0,0c0.1,0,0.1,0.1,0.2,0.1c0.1,0,0.1,0.1,0.2,0.1c0.4,0.3,0.7,0.6,0.8,0.9c0,0,0,0.1,0,0.1c0,0.1,0,0.2,0,0.3
		c0,0.6-0.3,1-1,1.4c-0.7,0.4-1.5,0.6-2.5,0.5c-0.1,0-0.3,0-0.4,0c-0.8-0.1-1.4-0.2-2-0.6c-0.5-0.3-0.9-0.6-1-1.1c0-0.1,0-0.2,0-0.3
		c0-0.5,0.3-1,1-1.4l0,0c0.1-0.1,0.3-0.2,0.5-0.2v0.4c0,0.2,0,0.3,0.1,0.5c0.1,0.4,0.3,0.7,0.6,1c0.3,0.3,0.6,0.5,1,0.6
		C127.6,85.4,127.7,85.4,127.8,85.4c0,0.1,0,0.1,0,0.3L127.8,85.4z M117,79.4C117,79.4,117,79.4,117,79.4c0.5-0.1,0.8-0.3,1.1-0.6
		c0.4-0.4,0.6-0.9,0.6-1.5v-0.8c0,0,0,0,0,0c0.1,0,0.2,0.1,0.3,0.2c0,0,0,0,0,0c0.5,0.2,0.8,0.5,0.9,0.9c0,0,0,0.1,0,0.1
		c0.1,0.1,0.1,0.2,0.1,0.3c0,0.6-0.3,1.1-1,1.5c-0.7,0.4-1.5,0.6-2.4,0.5c-0.9,0-1.8-0.2-2.4-0.6c-0.5-0.3-0.9-0.7-1-1.1
		c0-0.1,0-0.2,0-0.3c0-0.4,0.2-0.7,0.5-1c0.1-0.1,0.3-0.2,0.5-0.3c0,0,0,0,0,0c0,0,0,0,0,0c0.1-0.1,0.2-0.1,0.3-0.2v0.8
		c0,0.3,0,0.5,0.1,0.7c0.1,0.3,0.3,0.6,0.5,0.8c0.2,0.2,0.3,0.3,0.5,0.4c0,0,0,0,0,0c0.3,0.1,0.5,0.1,0.9,0.1
		C116.8,79.5,116.9,79.5,117,79.4z"/>
	<path class="st40" d="M125.8,78.9c-0.1-0.6-0.3-1-0.7-1.2c-0.1,0-0.2-0.1-0.2-0.1l-6.1-3.6c0,0,0,0,0,0v-0.1l6.1,3.6
		c0.1,0.1,0.1,0.1,0.2,0.1C125.5,77.8,125.7,78.3,125.8,78.9z"/>
	<path class="st41" d="M135.3,127.1l-33.7-19.1c-1.1-0.9-1.8-1.5-2-1.7c-0.5-0.5-0.8-1.3-0.9-2.3c0-0.2,0-0.4,0-0.7V100V82.9
		l11.4,16.5v4.7l8.9,5l1.2-1.2v-3.7h15.2v22.5C135.3,126.8,135.3,127,135.3,127.1z M120.7,78.2L120.7,78.2l5.2,3v1.6
		c-0.3,0.1-0.7,0.3-1,0.4c-0.8,0.5-1.2,1-1.2,1.6c0,0.2,0,0.4,0.1,0.5c0.2,0.4,0.5,0.8,1.2,1.2c0.4,0.3,0.9,0.5,1.4,0.6
		c0,0-0.1,0-0.1,0.1c-0.2,0.1-0.4,0.3-0.7,0.5c-1.1,0.8-1.8,1.2-2,1.2c-2.1-0.9-4.3-1.9-6.4-3c-4.2-2.2-6.3-3.8-6.3-5
		c0-1.1,0.6-2.2,1.8-3.2c-0.1,0.2-0.2,0.4-0.2,0.7c0,0.2,0.1,0.5,0.2,0.7c0.2,0.4,0.6,0.7,1.1,1c0.8,0.5,1.8,0.7,2.9,0.7
		c1.1,0,2.1-0.2,2.9-0.7c0.8-0.5,1.2-1,1.2-1.7C120.8,78.4,120.7,78.3,120.7,78.2z M146.2,121.7l-1.7-1v0c0.1-0.6,0.2-1.2,0.2-1.8
		V95.7v-1.4c0-1-0.2-1.8-0.7-2.4c0.1,0,0.2,0,0.3,0c0.1,0,0.1,0,0.2,0c0.1,0,0.1,0,0.1,0c0.1,0,0.1,0,0.2,0.1c0.1,0,0.2,0.1,0.3,0.1
		v0c0.8,0.5,1.1,1.4,1.2,2.7c0,0.1,0,0.1,0,0.2V121.7z"/>
	<path class="st42" d="M115.8,79.3c-0.2-0.1-0.4-0.3-0.5-0.4c-0.2-0.2-0.4-0.5-0.5-0.8c-0.1-0.2-0.1-0.5-0.1-0.7v-0.8
		c-0.1,0-0.2,0.1-0.3,0.2c0,0,0,0,0,0c0,0,0,0,0,0c-0.2,0.1-0.4,0.2-0.5,0.3c-0.3,0.3-0.5,0.6-0.5,1c0,0.1,0,0.2,0,0.3
		c0.1,0.4,0.4,0.8,1,1.1c0.7,0.4,1.5,0.6,2.4,0.6c0.9,0,1.8-0.1,2.4-0.5c0.7-0.4,1-0.9,1-1.5c0-0.1,0-0.2-0.1-0.3c0,0,0-0.1,0-0.1
		c-0.1-0.4-0.4-0.7-0.9-0.9c0,0,0,0,0,0c-0.1-0.1-0.2-0.1-0.3-0.2c0,0,0,0,0,0v0.8c0,0.6-0.2,1.1-0.6,1.5c-0.3,0.3-0.7,0.5-1.1,0.6
		c0,0,0,0-0.1,0v-4.7c0.3-1.3,0.9-1.6,1.7-0.9v0.1v1.8v0.9c0,0,0,0,0,0c0.3,0.1,0.6,0.2,0.8,0.4c0.5,0.3,0.9,0.7,1.1,1.1
		c0,0.1,0,0.1,0.1,0.2c0.1,0.1,0.1,0.2,0.1,0.4c0,0.6-0.4,1.2-1.2,1.7c-0.8,0.5-1.8,0.7-2.9,0.7c-1.1,0-2.1-0.2-2.9-0.7
		c-0.5-0.3-0.9-0.7-1.1-1c-0.1-0.2-0.2-0.4-0.2-0.7c0-0.2,0.1-0.5,0.2-0.7c0.2-0.4,0.6-0.7,1.1-1c0.3-0.1,0.6-0.3,0.9-0.4v-1.9v-0.8
		c0-0.1,0-0.1,0-0.1c0-0.1,0-0.3,0-0.4c0.2-1.7,0.7-2.8,1.5-3.3c0.9-1,2.2-1.1,4-0.3c0.1,0,0.1,0.1,0.2,0.1l6.5,3.9
		c1.5,0.6,2.4,1.7,2.9,3.4c0.2,0.8,0.3,1.7,0.3,2.8c0,0,0,0,0,0.1v2.2V83c0,0,0,0,0,0c0.3,0.1,0.5,0.2,0.7,0.3
		c0.7,0.4,1.1,0.8,1.2,1.4c0,0.1,0,0.2,0,0.3c0,0.6-0.4,1.2-1.2,1.7c-0.8,0.5-1.8,0.7-2.9,0.7c-0.5,0-1,0-1.5-0.1
		c-0.5-0.1-1-0.3-1.4-0.6c-0.6-0.3-1-0.7-1.2-1.2c-0.1-0.2-0.1-0.3-0.1-0.5c0-0.6,0.4-1.2,1.2-1.6c0.3-0.2,0.6-0.3,1-0.4v0.1
		c-0.2,0.1-0.3,0.1-0.5,0.2l0,0c-0.7,0.4-1,0.8-1,1.4c0,0.1,0,0.2,0,0.3c0.1,0.4,0.5,0.8,1,1.1c0.6,0.3,1.2,0.5,2,0.6
		c0.2,0,0.3,0,0.4,0c0.9,0,1.8-0.1,2.5-0.5c0.7-0.4,1-0.9,1-1.4c0-0.1,0-0.2,0-0.3c0,0,0-0.1,0-0.1c-0.1-0.3-0.4-0.6-0.8-0.9
		c-0.1,0-0.1-0.1-0.2-0.1c-0.1,0-0.1-0.1-0.2-0.1c0,0,0,0,0,0v0.3c0,0.1,0,0.2,0,0.3c0,0.5-0.2,0.9-0.6,1.2
		c-0.4,0.4-0.9,0.6-1.4,0.6c0,0-0.1,0-0.1,0c0,0,0,0,0,0l-0.2-4.5c0-0.4,0-1-0.1-1.8c0-0.3-0.1-0.6-0.1-0.9c-0.3-1.1-1-2-2.2-2.7
		l-5.1-3.2c-0.8-0.5-1.5-0.9-2.2-1c-0.7-0.3-1.3,0.1-1.6,1.1c-0.2,0.6-0.4,1.2-0.4,1.7c-0.1,0.4-0.1,0.7-0.1,1.1c0,0.1,0,0.2,0,0.2
		c0,0.4,0,0.7,0,1c0,0,0,0.1,0,0.1c0,0.2,0,0.3,0,0.3V79.3z M115.2,100.4l-1.6-0.9v4.4l1.6,0.9V100.4z M118.4,107.6l-7.7-4.3v-5
		v-2.3l7.7,4.3v2.3V107.6z"/>
	<path class="st43" d="M118.8,75.7L118.8,75.7l0-1.8c0,0,0,0,0,0c0,0,0,0.1,0,0.1V75.7z"/>
	<path class="st44" d="M125.9,79.9c0-0.4,0-0.7,0-1c-0.1-0.6-0.3-1.1-0.7-1.4c-0.1,0-0.2-0.1-0.2-0.1l-6.1-3.6
		c-0.9-0.7-1.4-0.4-1.7,0.9v4.7c-0.1,0-0.2,0-0.3,0c-0.3,0-0.6,0-0.9-0.1c0,0,0,0,0,0v-2.6c0-0.1,0-0.2,0-0.3c0-0.1,0-0.1,0-0.1
		c0-0.3,0-0.6,0-1c0-0.1,0-0.1,0-0.2c0-0.3,0-0.7,0.1-1.1c0.1-0.6,0.2-1.1,0.4-1.7c0.3-1,0.9-1.3,1.6-1.1c0.7,0.2,1.4,0.5,2.2,1
		l5.1,3.2c1.2,0.7,1.9,1.6,2.2,2.7c0.1,0.3,0.1,0.6,0.1,0.9c0.1,0.9,0.1,1.5,0.1,1.8l0.2,4.5l0,0.3c0-0.1-0.1-0.2-0.1-0.3
		c-0.1,0-0.1,0-0.2,0c-0.4-0.1-0.7-0.2-1-0.6c-0.3-0.3-0.5-0.6-0.6-1c0-0.2-0.1-0.3-0.1-0.5v-0.4v-0.1v-1.6V79.9
		C125.9,79.9,125.9,79.9,125.9,79.9z M110.7,95.9l1-0.6l7.7,4.3v2.9h-1v-2.3L110.7,95.9z M138.1,107.5c0.1-0.2,0.2-0.3,0.3-0.4
		c0.1-0.1,0.2-0.2,0.3-0.3c0.3-0.3,0.6-0.5,0.9-0.7l2.5-1.5c0.2-0.1,0.4-0.2,0.5-0.2c1-0.4,1.6,0.1,1.6,1.5v2.9c0,0.3,0,0.6-0.1,0.9
		c0,0.2-0.1,0.4-0.2,0.6c-0.3,0.9-0.9,1.7-1.9,2.2l-2.5,1.5c-1.4,0.8-2.1,0.4-2.1-1.2v-2.9C137.5,108.9,137.7,108.1,138.1,107.5z
		 M139.6,109.7v1.7c0,0.1,0,0.1,0,0l2.5-1.5c0,0,0-0.1,0-0.1v-1.7V107c0-0.1,0-0.1,0,0l-2.5,1.4c0,0,0,0.1,0,0.1V109.7z"/>
	<path class="st45" d="M98.8,80.8L98.8,80.8l-0.1-0.2c0-1.9,0.6-3.8,1.7-5.8c1.2-2,2.6-3.5,4.2-4.4c0.6-0.3,1.2-0.6,1.7-0.7
		c0.9-0.3,1.8-0.2,2.6,0.2l5.7,3.4c0,0.1,0,0.2,0,0.4c0,0,0,0.1,0,0.1v0.8l-5.7-3.3c-0.8-0.4-1.6-0.5-2.6-0.3
		c-0.5,0.1-1.1,0.4-1.7,0.7c-1.7,0.9-3.1,2.4-4.2,4.4C99.5,77.7,98.9,79.3,98.8,80.8z M136.9,86.3l0.9,0.5l1.9,1.1l1.7,1l3.4,2
		c-0.4-0.1-0.7-0.1-1.1-0.1c-0.3,0-0.6,0.1-0.9,0.2l-10.8-6.3c-0.1-0.5-0.5-1-1.2-1.4c-0.2-0.1-0.4-0.2-0.7-0.3c0,0,0,0,0,0v-0.7
		l0,0L136.9,86.3z M118.8,75.7l7.1,4.2c0,0,0,0,0,0.1v1.2l-5.1-3l0,0c0-0.1,0-0.1-0.1-0.2c-0.2-0.4-0.5-0.8-1.1-1.1
		c-0.3-0.1-0.5-0.3-0.8-0.4c0,0,0,0,0,0L118.8,75.7L118.8,75.7z M144.4,120.7l1.7,1l-9.7,5.6v-2L144.4,120.7L144.4,120.7z
		 M136.5,102v1.5l-1.1,0.6v-1.6L136.5,102z M144.6,95.7l-8,4.4c0.1-0.3,0.2-0.6,0.3-1l7-3.8L144.6,95.7z M142.7,104.4
		c-0.2,0.1-0.3,0.1-0.5,0.2l-2.5,1.5c-0.4,0.2-0.7,0.4-0.9,0.7c-0.1,0.1-0.2,0.2-0.3,0.3c-0.1,0.1-0.2,0.3-0.3,0.4v-3.6l4.6-2.7
		V104.4z M142.2,108.2l-2.6,1.5v-1.2c0-0.1,0-0.1,0-0.1l2.5-1.4c0,0,0,0,0,0V108.2z"/>
	<path class="st10" d="M110.7,98.3L98.8,80.8c0.2-1.5,0.7-3.1,1.6-4.7c1.2-2,2.6-3.5,4.2-4.4c0.6-0.3,1.2-0.6,1.7-0.7
		c0.9-0.2,1.8-0.1,2.6,0.3l5.7,3.3v1.9c-0.3,0.1-0.6,0.2-0.9,0.4c-0.5,0.3-0.9,0.6-1.1,1c-1.2,1-1.8,2-1.8,3.2c0,1.1,2.1,2.8,6.3,5
		c2.1,1.1,4.3,2.1,6.4,3c0.2,0,0.8-0.4,2-1.2c0.3-0.2,0.5-0.3,0.7-0.5c0,0,0.1,0,0.1-0.1c0.5,0.1,0.9,0.1,1.5,0.1
		c1.1,0,2.1-0.2,2.9-0.7c0.8-0.5,1.2-1,1.2-1.7c0-0.1,0-0.2,0-0.3l10.8,6.3c-0.1,0.1-0.2,0.1-0.4,0.2c-0.3,0.1-0.6,0.3-1,0.5
		c-0.2,0.1-0.4,0.3-0.7,0.4c-1.4,0.9-2.6,2.3-3.6,4c-0.8,1.3-1.3,2.7-1.5,4c-0.1,0.3-0.1,0.6-0.2,0.9c-0.1,0.4-0.1,0.7-0.1,1.1v0.6
		h-15.8v-2.9l-7.7-4.3l-1,0.6V98.3z M144.4,120.7L144.4,120.7l-8,4.6v-21.8V102c0-0.6,0.1-1.2,0.2-1.8l8-4.4h0v23.2
		C144.6,119.5,144.6,120.1,144.4,120.7L144.4,120.7z M138.1,107.5c-0.4,0.6-0.6,1.4-0.6,2.3v2.9c0,1.7,0.7,2.1,2.1,1.2l2.5-1.5
		c0.9-0.6,1.6-1.3,1.9-2.2c0.1-0.2,0.1-0.4,0.2-0.6c0-0.3,0.1-0.6,0.1-0.9v-2.9c0-1.4-0.5-1.9-1.6-1.5v-3.1l-4.6,2.7V107.5z
		 M142.2,108.2v1.7c0,0.1,0,0.1,0,0.1l-2.5,1.5c0,0,0,0,0,0v-1.7L142.2,108.2z"/>
	<path class="st46" d="M98.8,80.8l11.9,17.4v5l7.7,4.3l1-1v-3.9h15.8v1.6h-15.2v3.7L119,109l-8.9-5v-4.7L98.7,82.9v-1.3
		C98.7,81.3,98.7,81.1,98.8,80.8z M143.9,91.9c0.5,0.5,0.7,1.3,0.7,2.4v1.4h0l-0.7-0.4l-7,3.8c0.2-0.8,0.6-1.7,1.1-2.6
		c0.9-1.4,1.8-2.6,3-3.4c0.3-0.2,0.6-0.4,0.9-0.6C142.6,92.1,143.3,91.9,143.9,91.9z"/>
	
		<linearGradient id="SVGID_13_" gradientUnits="userSpaceOnUse" x1="-1106.5659" y1="-2128.4111" x2="-1068.9727" y2="-2128.4111" gradientTransform="matrix(-0.5047 0.8633 -0.8633 -0.5047 -2289.5103 -51.0253)">
		<stop  offset="0" style="stop-color:#723F18"/>
		<stop  offset="1" style="stop-color:#AB6630"/>
	</linearGradient>
	<path class="st47" d="M98.7,80.8L98.7,80.8c0,0.3,0,0.6,0,0.8V80.8z"/>
	<path class="st48" d="M135.3,129.4l-36.7-20.8V104v-0.7c0,0.2,0,0.5,0,0.7c0.1,1,0.4,1.7,0.9,2.3c0.2,0.2,0.8,0.8,2,1.7l33.7,19.1
		V129.4z"/>
</g>
</svg>
