<?xml version="1.0" encoding="utf-8"?>
<!-- Generator: Adobe Illustrator 26.0.3, SVG Export Plug-In . SVG Version: 6.00 Build 0)  -->
<svg version="1.1" id="Layer_1" xmlns="http://www.w3.org/2000/svg" xmlns:xlink="http://www.w3.org/1999/xlink" x="0px" y="0px"
	 viewBox="0 0 233.2 236.5" style="enable-background:new 0 0 233.2 236.5;" xml:space="preserve">
<style type="text/css">
	.st0{opacity:0.1;}
	.st1{fill:#354959;}
	.st2{fill:#4D6677;}
	.st3{fill:#E1E2E5;}
	.st4{fill:#DBA88D;}
	.st5{fill:#BC7D6C;}
	.st6{fill:#DD923F;}
	.st7{fill:#427571;}
	.st8{fill:#AA6F2D;}
	.st9{fill:#C98D79;}
	.st10{fill:#629996;}
	.st11{fill:#858689;}
	.st12{fill:#D7D8DC;}
	.st13{fill:#ADAEB2;}
	.st14{fill:#B2B3B7;}
	.st15{fill:#CACCD3;}
	.st16{fill:#42414D;}
	.st17{fill:#2D2C34;}
	.st18{fill:#454450;}
	.st19{fill:#27272E;}
	.st20{fill:#9D9FA2;}
</style>
<g>
	<path class="st0" d="M206,176.6l10.2-5.9c17.7-10.2,15.5-28.2-5-40L192,119.6c-20.4-11.8-51.6-13.1-69.3-2.9l-10.2,5.9
		c-17.7,10.2-15.5,28.2,5,40l19.2,11.1C157.2,185.5,188.4,186.8,206,176.6z"/>
	<path class="st0" d="M18.8,195.3c-1.5-0.9-1.5-2.4,0-3.3L83.2,155c1.6-0.9,4.1-0.9,5.6,0l66.9,38.9c1.5,0.9,1.5,2.4,0,3.3l-64.4,37
		c-1.6,0.9-4.1,0.9-5.6,0L18.8,195.3z"/>
	<g>
		<g>
			<path class="st1" d="M176,134.8c-1.4,2.7-2.8,4.9-3.9,5.6c-3.3,2.4-21.4,1.9-27.8-2.2c-1.8-1.1-5.5-2.5-9.9-4
				c-11.4-3.7-27.4-7.8-27.6-7.9c-0.3-0.2-7.5-4.7-7.7-8.6c-0.2-3.9,0.1-9.5,3.4-12.1c3.3-2.6,20.1-2.8,32.7-1.3
				c12.7,1.4,24.4,6.9,26.2,5c0,0,19.1,5.2,19.7,9.7C181.4,122,178.7,129.4,176,134.8z"/>
			<path class="st1" d="M176,134.8c-1.4,2.7-2.8,4.9-3.9,5.6c-3.3,2.4-21.4,1.9-27.8-2.2c-1.8-1.1-5.5-2.5-9.9-4
				c-0.1-0.1-0.1-0.1-0.2-0.2c-5.4-5.5-11.3-10.8-17.9-14.7c4.6-1.7,9.7-1.2,14.4-0.1c4.4,1,8.9,2.7,11.8,6.2
				c1.2,1.4,2.1,3.1,3.4,4.5c3.1,3.4,8.1,4.7,12.7,4.1c1.2-0.2,2.4-0.5,3.3-1.2c0.6-0.5,1.1-1.2,1.5-1.8c1.4-2.3,2.5-4.7,3.2-7.3
				l3.5-1.3c1.5-0.4,3,0.4,4,1.6c0.9,1.2,1.4,2.7,1.7,4.2C176,130.2,176.1,132.5,176,134.8z"/>
			<path class="st2" d="M128.1,118.9c-5.3-1.4-10-1.9-12.2-2.3c-2.1-0.4-9.7-1.3-12.2-0.2c-2.4,1.1-4.2,1.5-3,5
				c1.2,3.5,11,9.4,13.2,11.1c2.2,1.7,34.6,20.7,36.4,21.5c1.8,0.8,18.8,8.7,18.8,8.7s-3.7-15.6-6.9-17.8
				c-3.3-2.3-15.5-10.8-16.5-13.6C144.6,128.4,136.3,121.1,128.1,118.9z"/>
			<path class="st3" d="M176.2,166.8c1.2,2.1,5.4,7.4,5.4,8.3c0,0.9-0.5,4.8,1.6,8c2.1,3.2,7,1,7.4,0.6c0.5-0.4,3-7.2,2.9-10
				c-0.2-2.8,6.3-17.3-13.5-15.9C178.2,157.9,176.2,166.8,176.2,166.8z"/>
			<path class="st1" d="M137.8,137.8c-1.1-3-4.6-4.5-7.5-5.5c-2.2-0.8-4.7-0.7-7-1.4c-2.7-0.8-7.4-1.8-9.6-3.7
				c3.4,3.1,7.3,5.7,11.5,7.7c2.9,1.4,6,2.5,8.5,4.5c1.9,1.5,3.4,3.4,5.6,4.2C139.1,141.6,138.5,139.7,137.8,137.8z"/>
			<path class="st3" d="M119.6,135.1c-4.2-0.3-5.3,0.6-5.6,1.6c-0.3,1,2.6,8.3,3.2,9.6c0.7,1.3,3.6,3,5.3,3.2c1.7,0.2,3,1.6,3,1.6
				s6.9,6.5,9.3,7.6c2.4,1.1,6.1,3.2,9.7,2.9c3.6-0.3,1.1-11.3,1.1-11.3l-20.9-14.3L119.6,135.1z"/>
			<path class="st2" d="M190.6,154.2c0,1.2-1.2,4.1-3.4,7c-2,2.6-5,5.2-8.6,6.3c0,0-0.1,0-0.1,0c-1.1,0.3-2.2,0.5-3.5,0.5
				c-10,0.1-30.2-5.3-31.8-5.5c-1-0.2-2.4-0.8-3.5-1.7c-0.8-0.7-1.4-1.5-1.5-2.5c-0.4-2.5,2.6-9.7,4.4-8.6c1.8,1.1,8.1-1.3,11.1-1.9
				c3-0.7,10-4.8,14.3-3.1c0,0,7.7-3.2,12.4-2.2C185,143.4,190.6,151.5,190.6,154.2z"/>
			<path class="st2" d="M207.3,155.2c-6.3,7.5-14.8,10.5-18.1,10c-3.3-0.5-6.5,1.2-10.6,2.3c0,0-0.1,0-0.1,0c-1,0.2-2.2-0.7-3.4-2.3
				c-3.9-5.3-8.3-17.8-7.2-20.6c1.5-3.6,5.3-5.4,8.3-6.8c3-1.4,5.7-7.2,10-8.8c4.3-1.7,13.4-2.3,20-1.7c0,0,1.7-0.8,2.2-0.6
				c0.4,0.1,1.3,0.5,1.9,1.5c0.3,0.5,0.6,1.2,0.7,2.1C211.4,132.9,213.7,147.8,207.3,155.2z"/>
			<path class="st1" d="M207.3,155.2c-6.3,7.5-14.8,10.5-18.1,10c-3.3-0.5-6.5,1.2-10.6,2.3c0,0-0.1,0-0.1,0
				c-1.1,0.3-2.2,0.5-3.5,0.5c-10,0.1-30.2-5.3-31.8-5.5c-1-0.2-2.4-0.8-3.5-1.7c0.1-0.1,0.2-0.3,0.4-0.4c0.3-0.2,0.7-0.2,1.1-0.2
				c1.4,0,2.9,0,4.3,0.4c1.3,0.4,2.4,1.1,3.6,1.6c3.5,1.6,7.2,1.8,10.9,2c3.1,0.2,4.8-0.4,5-4c1,2,2.8,3.3,4.8,4.1
				c1.7,0.6,3.5,0.8,5.3,1c0.4,0,0.8,0.1,1.2,0.1c0.9,0.1,1.7,0.1,2.6-0.1c0.7-0.2,1.3-0.6,1.9-0.9c1.4-0.9,2.9-1.7,4.5-2.4
				c0.7-0.3,1.4-0.5,2.1-0.6c2-0.5,4-0.8,5.9-1.3c3.5-1,6.9-2.7,9.5-5.3c4.1-3.9,6.4-9.4,7.3-15c0.6-3.8,0.6-7.6,0.4-11.4
				c0,0,0,0,0-0.1c0.3,0.5,0.6,1.2,0.7,2.1C211.4,132.9,213.7,147.8,207.3,155.2z"/>
			<path class="st2" d="M159.1,108.2c0,5.5,0.6,7.4,1.4,11.4c0.9,4.1,4.8,14,5.6,16.4c0.8,2.4,3.6,5.2,3.6,5.2s7.3-2.8,8.7-2.9
				c1.3-0.1,5.9-7.5,9-8.5c3.1-1,18.5-2.4,20.5-2.3c2,0,3.6,3.1,3.6,3.1s-0.2-9.4-0.2-10.9C211.3,118.2,159.1,108.2,159.1,108.2z"/>
			<path class="st4" d="M159.1,78.8c-3.7,6.4-10.6,15.5-12.7,16c-0.5,0.1-1.4-0.4-2.4-1.3c-1.5-1.3-3.3-3.5-4.5-5.5
				c-1-1.6-1.6-3.1-1.2-3.7c0.6-1,3.2-4.5,5.8-8.1c2.1-3,4.1-6.1,4.8-7.8c1.4-3.9,2.6-10.9,5.7-16.5c0,0,5.6,0.2,8.7,4
				c0.3,0.4,0.6,0.9,0.8,1.5C165.5,62.4,162.4,73.1,159.1,78.8z"/>
			<path class="st4" d="M146.3,94.8c-1.9,5.9-39.6,8.7-42.8,9.8c-1.3,0.4-3.4,0.6-5.5,0.8c-3.4,0.2-7.1,0.1-7.9,0.2
				c-1.3,0.1-8.8,0.9-10.5,1c-1.7,0.1-0.9-1-0.9-1s-2.8,0.9-3.4,0.5c-0.6-0.5-0.4-0.8-0.4-0.8s-1.6,0.4-1.9-0.4
				c-0.4-0.7,0.1-1.3,1-1.8c0.9-0.5,12.7-3.4,12.7-3.4l0.4-0.4c0,0-3.7-2.8-3.6-3.6c0.1-0.8,2.8-3.7,2.8-3.7s0.1-1.4,0.5-1.9
				c0.3-0.5,0.8-0.3,0.8-0.3s0-0.6,0.6-0.9c0.7-0.3,1.2,0,1.2,0s0.9-1,1.7-0.9c0.8,0.1,2,1.4,2,1.4s5.5,3,6.2,3.4
				c0.7,0.4,1.4,3.4,3.3,3.3c1.8-0.1,14.9-3.2,18.7-5.2c0.8-0.4,2-1,3.4-1.7c4.8-2.3,11.7-5.3,13.3-4.7c1.9,0.7,0.6,0.8,3,2.3
				c0.1,0.1,0.2,0.1,0.3,0.2c0,0,4,1.2,5,4.4C146.8,92.3,146.8,93.4,146.3,94.8z"/>
			<path class="st5" d="M159.1,78.8c-3.7,6.4-10.6,15.5-12.7,16c-1.9,5.9-39.6,8.7-42.8,9.8c-1.3,0.4-3.4,0.6-5.5,0.8
				c1.4-0.8,3.1-1.1,4.7-1.4c8.1-1.3,16.1-2.9,24.2-4.5c2.8-0.5,5.5-1.1,8.3-1.6c1.6-0.3,3.3-0.7,4.8-1.4c1.5-0.7,2.7-1.8,3.9-2.8
				c0,0,0.1,0,0.1-0.1c0.8-0.7,1.7-1.5,2.5-2.2c1.4-1.3,2.6-2.6,3.6-4.2c2-3.3,2.5-7.2,3.2-11c0.8-4.5,1.9-9,3.2-13.4
				c0.7-2.3,1.6-5.5,4.2-5.8c1.1-0.1,2.2,0.1,3.2,0.5C165.5,62.4,162.4,73.1,159.1,78.8z"/>
			<path class="st5" d="M88.4,90.5c0.1,0.3,0.2,1.8-0.2,2.5c-0.4,0.7-0.9,2-0.9,2s1.4,0.8,1.6,1c0.2,0.3,2.7,1.2,2.7,1.2
				s0.5-2,0.9-2.6c0.4-0.6,0.3-1.1,0.3-1.1s0.2-0.5-0.5-1.2c-0.7-0.6-1.5-1.3-1.5-1.3S89.4,91.4,88.4,90.5z"/>
			<path class="st6" d="M175.3,38.2c-4.6-1.1-9.4-2.5-14.7,3.5c-4.2,4.6-8.3,12.1-10.4,18.8c-0.6,1.9,6.2,7.3,12.7,7.3
				c2.4,0,3.5-18.8,4.6-21.7C168.6,43.1,175.3,38.2,175.3,38.2z"/>
			<path class="st7" d="M180.4,14.8c-1.7-12.5,19.4-18,26-10.2c12.3,14.7-4.7,35.1,12.6,39.9c-12.1,19.3-25.4,9.9-33.1,3.5
				C178.2,41.7,180.4,14.8,180.4,14.8z"/>
			<path class="st8" d="M213.2,56.6c-1.9-3.3-4.6-4.8-8.9-8.1c-4.3-3.3-11.3-7.5-13.7-8.5c-2.4-1-15.2-2.4-17.8-2.5
				c-7-0.3-10.6,10-13,17.2c-2.2,6.6-5.6,19.8-5.5,23.2c0.1,3.5,2.1,8.8,3.3,13.9c1.1,5,1.5,16.6,1.6,18.2c0.2,1.5,2.4,8.3,9.1,12.3
				c6.7,4,17.8,4.4,23.3,3.9c5.5-0.5,16.5-3.3,17.8-6.9c1.3-3.5-2.2-17.8-2.6-22.3c-0.5-4.5,2.8-23.1,4.6-26.3
				C213.1,67.5,213.2,56.6,213.2,56.6z"/>
			<path class="st9" d="M194.2,33.6c-0.3,1.4-0.5,2.9-0.5,4c0,3.4,1.4,4.9,1.4,4.9s1.1,1.7,0.6,4.7c-0.2,1.2-1.1,3.3-2.5,5.4
				c-1.9,2.9-4.9,5.9-8.8,6.9c-4.4,1.1-6.8-0.2-8.1-1.5c-0.7-0.7-1.1-1.3-1.3-1.6c-0.7-1-0.3-4.3,0.4-6c0.7-1.6,0.2-5.1-0.7-7
				c-0.1-0.1-0.1-0.2-0.2-0.3l4.6-17.8c0,0,11.9-8.9,13.9-7.8c2,1.1,3.5,8.3,3.2,9.4C196,27.5,194.9,30.6,194.2,33.6z"/>
			<path class="st5" d="M195.7,47.2c-0.2,1.2-1.1,3.3-2.5,5.4c-0.5,0.2-1,0.2-1.4-0.2c-0.5-0.4-0.6-1.6-0.6-2.2
				c0.1-1.4,1.8-2.2,2.1-3.7c0.2-1-0.5-2.5-0.8-3.4c-0.9-2.9-1-6,0.4-8.9c-0.4-0.7,0.7-0.8,1.2-0.6c-0.3,1.4-0.5,2.9-0.5,4
				c0,3.4,1.4,4.9,1.4,4.9S196.2,44.2,195.7,47.2z"/>
			<path class="st5" d="M179.1,38.5c-1,2.7-3,5.3-2.8,8.2c0.1,1.2,0.5,2.3,0.6,3.5c0.1,1,0,1.9-0.1,2.9c-0.2,1.6-0.3,3.2-0.6,4.8
				c-0.7-0.7-1.1-1.3-1.3-1.6c-0.7-1-0.3-4.3,0.4-6c0.7-1.6,0.2-5.1-0.7-7v-0.1c0.1-2.2,1.7-4.7,3.7-5.6c0.2-0.1,0.5-0.2,0.7,0
				C179.3,37.8,179.2,38.2,179.1,38.5z"/>
			<path class="st4" d="M193.2,26.1c0,0-2.7,12.9-4.1,14.8c-1.4,1.9-13.8,6-15.6,5.6c-1.8-0.4-3-1.6-3-1.6l-4.2-13.9
				c0,0,0.6-8.6,1.9-12.9c1.2-4.3,2.2-6,3.6-6.5c1.4-0.5,15.4,0.3,15.4,0.3L193.2,26.1z"/>
			<path class="st10" d="M179.3,15.8c1,2.4,10.4,9.2,10.4,9.2s0.4,5.4,1,7c0.6,1.6,1.1,2.9,1.1,2.9s0.3-4,2.6-5.7
				c2.3-1.7,1.7,1.5,1.7,1.5s-1.6,1.8-1.9,3.5c-0.3,1.7-0.4,3.5-0.4,3.5s5.1-3.8,7.3-9.6c2.3-5.8,0.1-13.9-2.6-19.1
				c-2.6-5.1-9.8-5.8-9.8-5.8s-7.1-1.5-11.7,1.4c-4.6,2.9-7.9,6.5-8.5,8c-0.6,1.5,0,5.1,0,5.1s0.7-2.4,1.9-3.2
				C171.5,13.5,175.9,16.6,179.3,15.8z"/>
			<path class="st4" d="M197,27.8c1.5-0.1,1.9,1.3,1.7,3.1c-0.2,1.8-0.9,3.6-3.1,4.6c-2.2,0.9-2.5,0.5-2.9,0.1
				c-0.4-0.4,0.9-2.4,0.9-2.4s0.4-2.6,1.2-3.4C195.5,28.9,197,27.8,197,27.8z"/>
			<path class="st5" d="M94.3,94.1c-0.1,1-0.9,3.9-1.6,4.2c-0.7,0.3-4.9,1.6-5.2,1.2c-0.3-0.4-2.3,0.4-2.3,0.4l0.5,1.4L87,102
				l0.6,1.1c0,0,1.5-0.5,1.5-0.8c0-0.3,1.7-1,1.7-1s4.5-0.2,6.1-0.7c1.5-0.5,5.3-2.7,5.3-2.7L96.6,99l-2,0L94,98.5
				C94,98.5,94.6,96.8,94.3,94.1z"/>
			<path class="st5" d="M144,76.2c-0.2,1.3-0.4,2.6-0.5,3.9c-0.2,2-0.5,4.1-1.6,5.8c-0.2,0.3-0.4,0.5-0.6,0.8
				c-0.5,0.5-1.1,1-1.7,1.4c-0.4,0.3-0.9,0.6-1.4,0.8c-0.2,0.1-0.4,0.2-0.6,0.2c-0.8,0-0.9-1.1-1.3-1.7c-0.5-0.9-1.6-1.2-2.6-1
				c-1,0.1-1.9,0.6-2.8,1c-1.8,0.8-3.8,1.4-5.8,1.7c4.8-2.3,11.7-5.3,13.3-4.7C138.8,83.4,141.4,79.8,144,76.2z"/>
			<path class="st1" d="M206.1,140.9c0,0.8,0,1.8-0.7,2.3c-2-2.6-2.8-5.9-3.8-8.9c-0.8-2.3-1.7-4.6-2.1-7c-0.3-1.7,0-9.7,3.3-6.3
				c1.4,1.4,1.4,3.4,1.7,5.2c0.4,2.3,0.7,4.6,1,6.9C205.9,135.6,206.1,138.3,206.1,140.9z"/>
			<path class="st4" d="M180.1,156.9c0.2,0.1,0.4,0.1,0.4,0.1s-0.1,0.2-0.2,0.5h0c-0.2,0.8-0.7,2.3-0.6,2.8c0.1,0.6,1.5,1.2,1.6,1.1
				c0,0,0.1,0.1,0.1,0.2c0,0.2,0.1,0.4,0.2,0.6c0,0,0,0,0,0c0.1,0.3,0.3,0.6,0.6,0.7c0.7,0.2,2-0.5,2.1-0.6c0.1-0.1,4.5-7.5,5-8.4
				c0.5-0.9,0.5-0.9,0.5-0.9l0.9-0.2c0,0,1.2,0.7,2.8-0.4c1.6-1.1,1.3-2.5,1.3-2.5s-0.7-2.5-0.6-3.1c0-0.5,0.5-3.4,1.1-5.3
				c0.2-0.8,0.5-1.4,0.7-1.7c0.8-0.7,14.2-17.1,14.4-22.2c0-0.2,0-0.5-0.1-0.6c-0.1-0.4-0.2-0.7-0.4-1c-0.9-1.7-2.7-2.7-4.4-3.2
				c-1.8-0.6-3.4-0.8-3.4-0.8c-5-0.2-6.3,1.7-7.3,3.4v0c-1,1.7-5.9,13.2-7.9,17.7c-0.1,0.2-0.2,0.5-0.3,0.7c0,0,0,0,0,0
				c-1.7,3.8-2.8,4.1-4.2,5.9c-1.4,1.9-2.2,3.5-2.4,4.8c-0.2,1.3-0.8,3.3-0.6,3.6c0.2,0.2-0.4,3.5-0.6,4.4c-0.1,0.9-0.1,3.7,0.4,4.2
				C179.6,156.6,179.9,156.8,180.1,156.9z"/>
			<path class="st4" d="M212.8,100.9c-0.3,0.8-0.5,1.6-0.7,2.2c-2.1,5.5-0.7,9.8-1.7,14.3c-0.2,0.7-0.4,1.5-0.7,2.2
				c-0.3,0.6-0.7,1.1-1.2,1.3c-2.8,1.5-8.6-1.6-11.6-3.9c-1.2-0.9-1.9-1.6-1.9-1.9v0c0-0.7,0.7-3.6,1.4-6.7c0.4-1.7,0.9-3.5,1.4-5.1
				c1.2-4.3,2.1-14.8,2-17.4c-0.1-2.6-0.9-11.2,2.3-15.2l13-4.8c0,0,2.4,5.5,2.7,9C217.9,78.1,215.1,93.2,212.8,100.9z"/>
			<path class="st6" d="M202.5,60.3c-1.4,2.8-2.1,10.2-2.9,22c-0.1,1.8,10.8,2.9,14.5,2.6c2.2-0.2,4-1.4,4.6-2.2
				c0.7-0.8-0.8-17.1-1.9-20.7c-1.2-3.6-4.1-7.1-5.3-7.7C210.4,53.7,204.3,56.7,202.5,60.3z"/>
			<path class="st4" d="M190.7,140c-0.6,0.3-1.1,1.1-0.9,2c0.2,0.9,0.1,3.6,0,4.4c-0.1,0.8-0.2,3.4,0,4.2c0.2,0.8,0.5,1.8,0.8,2.1
				c0.3,0.3,1.5,0.7,2.7,0.2c1.2-0.5,1.8-2,1.8-2s0-5.3-0.2-5.7c-0.2-0.4-1-0.3-1-0.3l-0.3,4.1c0,0-0.5-4.5-0.5-5
				c0-0.5-0.4-2.9-0.7-3.4C192.1,140.2,190.7,140,190.7,140z"/>
			<path class="st5" d="M182.7,158.9c-0.2,0.5-1,2.3-1.3,2.6c0,0.2,0.1,0.4,0.2,0.6c0.1-0.5,0.3-1.1,0.5-1.4
				c0.3-0.5,1.3-2.2,1.5-2.5c0.2-0.3,2-5,2.1-5.2c0.2-0.2,1-0.8,1-0.8l-1.5-0.6l0.2,1.2C185.4,152.8,182.9,158.5,182.7,158.9z"/>
			<path class="st5" d="M180.5,156.9c0,0-0.1,0.2-0.2,0.5c0.5-0.3,1-0.7,1.2-1.3c0.2-0.6,1-4.2,1.2-4.4c0.1-0.3,0.8-1.2,0.8-1.2
				l-1.2-1c0,0.2,0.2,1.3-0.1,2.3c-0.3,0.9-1,3.8-1.3,4.4c-0.3,0.6-0.4,0.9-0.7,0.7C180.4,156.9,180.5,156.9,180.5,156.9z"/>
			<path class="st5" d="M192.4,140.7l1.6,1.7c0,0,1.3,0.5,1.2,0.7c0,0.1-0.5,1.8-1,2.1c-0.5,0.3-0.9,0.2-1.1,1.1
				c-0.2,0.9-0.5,2.5-0.5,2.5l-1.2-5L192.4,140.7z"/>
			<path class="st5" d="M205.5,112.5c-0.1,0.1-0.2,0.2-0.4,0.3c-0.6,0.3-1.9,0.2-2.6,0.4c-0.8,0.2-1.6,0.6-2.3,1
				c-1.3,0.8-2.4,1.7-3.4,2.8c-0.4,0.4-0.8,0.9-1.2,1.3c-1.1,1.3-2.2,2.6-2.9,4.2c-0.6,1.4-0.9,3-1.6,4.4c-0.9,1.8-2.5,3.1-3.6,4.9
				c-0.3,0.5-0.6,1.1-0.9,1.7c0.1-0.2,0.2-0.5,0.3-0.7c1.9-4.5,6.9-15.9,7.9-17.7v0c0-0.7,0.7-3.6,1.4-6.7c0.5,1.1,1.3,2.1,2.4,2.5
				c1.3,0.5,2.7,0.1,4,0.2C203.4,111.1,205.9,111.8,205.5,112.5z"/>
			<path class="st1" d="M212.8,100.9c-0.3,0.8-0.5,1.6-0.7,2.2c-2.1,5.5-0.7,9.8-1.7,14.3c-0.2,5.2-13.7,21.5-14.4,22.3
				c-0.2,0.2-0.5,0.9-0.7,1.7c-0.5-0.9-1-1.9-0.6-2.7c0.2-0.4,0.7-0.7,1.1-0.9c3.5-2.3,6-5.9,8.4-9.4c1.6-2.3,3.2-4.7,4.3-7.3
				c0.3-0.6,0.5-1.2,0.7-1.8c0.4-1.1,0.6-2.2,0.8-3.4c0.4-2.4,0.5-4.8,0.8-7.2c0.2-1.5,0.4-3,0.8-4.5
				C211.7,103.4,212,101.5,212.8,100.9z"/>
			<path class="st4" d="M190.8,137.6c-0.6,0.1-1.1,0.7-1.1,0.7s0.2,1.6,0.6,2c0.4,0.4,2.1,2.6,2.1,2.6s0.2,2.1,1.8,1.7
				c1.6-0.3,1.6-1.2,1.7-1.5c0-0.2,0.6-3.1,0.1-4.2c-0.4-1.1-2-1.6-2.4-1.7c-0.4-0.1-1.2,0.8-1.2,0.8L190.8,137.6z"/>
		</g>
		<g>
			<g>
				<polygon class="st11" points="40.5,182.5 40.5,184.4 47.2,188.2 47.2,186.4 				"/>
				<polygon class="st11" points="90.9,211.8 90.9,213.7 97.6,217.5 97.6,215.7 				"/>
				<path class="st12" d="M32.7,181.4c-1.5-0.9-1.5-2.4,0-3.3l44.5-25.7c1.6-0.9,4.1-0.9,5.6,0l66.9,38.9c1.5,0.9,1.5,2.4,0,3.3
					l-44.5,25.7c-1.6,0.9-4.1,0.9-5.6,0l-4.9-2.8l2.9-1.7l-6.7-3.9l-2.9,1.7l-43.7-25.4l2.9-1.7l-6.7-3.9l-2.9,1.7L32.7,181.4z"/>
				<polygon class="st13" points="37.6,184.2 37.6,186 40.5,184.4 40.5,182.5 				"/>
				<polygon class="st14" points="44.3,188.1 44.3,189.9 88,215.3 88,213.5 				"/>
				<polygon class="st13" points="88,213.5 88,215.3 90.9,213.7 90.9,211.8 				"/>
				<g>
					<path class="st14" d="M32.7,181.4l4.9,2.8l0,1.8l-4.9-2.8c-0.8-0.4-1.2-1-1.2-1.6l0-1.8C31.6,180.3,31.9,180.9,32.7,181.4z"/>
					<path class="st14" d="M105.2,220.2l44.5-25.7c0.8-0.5,1.2-1,1.2-1.6l0,1.8c0,0.6-0.4,1.2-1.2,1.6L105.2,222
						c-1.6,0.9-4.1,0.9-5.6,0l-4.9-2.8l0-1.8l4.9,2.8C101.1,221.1,103.6,221.1,105.2,220.2z"/>
				</g>
				<path class="st15" d="M126.3,199.1l-22.9,13.2l-57.1-33.2L69.2,166L126.3,199.1z"/>
				<path class="st16" d="M43.5,181.1c-0.3,0.2-0.3,0.4,0,0.5L99.1,214c0.3,0.2,0.7,0.1,0.9,0l1.8-1.1c0.3-0.1,0.3-0.4,0-0.5
					L46.3,180c-0.3-0.2-0.7-0.2-0.9,0L43.5,181.1z"/>
				<g>
					<g>
						<path class="st17" d="M72.1,168.7l-2.6,1.5c-0.3,0.2-0.7,0.2-0.9,0l-2.6-1.5c-0.1-0.1-0.2-0.2-0.2-0.3l0-0.3
							c0,0.1,0.1,0.2,0.2,0.3l2.6,1.5c0.3,0.1,0.7,0.1,0.9,0l2.6-1.5c0.1-0.1,0.2-0.2,0.2-0.3l0,0.3
							C72.3,168.5,72.2,168.6,72.1,168.7z"/>
						<path class="st17" d="M76.1,171l-2.6,1.5c-0.3,0.2-0.7,0.2-0.9,0L70,171c-0.1-0.1-0.2-0.2-0.2-0.2l0-0.4
							c0,0.1,0.1,0.2,0.2,0.3l2.6,1.5c0.3,0.1,0.7,0.1,0.9,0l2.6-1.5c0.1-0.1,0.2-0.2,0.2-0.3l0,0.3C76.3,170.8,76.2,170.9,76.1,171
							z"/>
						<path class="st17" d="M69.7,174.7l2.6-1.5c0.1-0.1,0.2-0.2,0.2-0.3l0,0.3c0,0.1-0.1,0.2-0.2,0.3l-2.6,1.5
							c-0.3,0.2-0.7,0.1-0.9,0l-6.9-4c-0.1-0.1-0.2-0.2-0.2-0.2l0-0.4c0,0.1,0.1,0.2,0.2,0.3l6.9,4C69,174.8,69.4,174.8,69.7,174.7z
							"/>
						<path class="st17" d="M65.6,177l2.6-1.5c0.1-0.1,0.2-0.2,0.2-0.2l0,0.2c0,0.1-0.1,0.2-0.2,0.3l-2.6,1.5
							c-0.3,0.1-0.7,0.1-0.9,0l-6.9-4c-0.1-0.1-0.2-0.2-0.2-0.3l0-0.3c0,0.1,0.1,0.2,0.2,0.3l6.9,4C64.9,177.2,65.3,177.2,65.6,177z
							"/>
						<path class="st17" d="M59.5,178.2l2.6-1.5c0.1-0.1,0.2-0.2,0.2-0.3l0,0.3c0,0.1-0.1,0.2-0.2,0.3l-2.6,1.5
							c-0.3,0.2-0.7,0.2-0.9,0l-4.9-2.8c-0.1-0.1-0.2-0.2-0.2-0.3l0-0.3c0,0.1,0.1,0.2,0.2,0.3l4.9,2.8
							C58.8,178.4,59.2,178.4,59.5,178.2z"/>
						<path class="st17" d="M55.9,177.5l0,0.3c0,0.1-0.1,0.2-0.2,0.3l-2.6,1.5c-0.3,0.2-0.7,0.2-0.9,0l-2.6-1.5
							c-0.1-0.1-0.2-0.2-0.2-0.3l0-0.3c0,0.1,0.1,0.2,0.2,0.3l2.6,1.5c0.3,0.2,0.7,0.2,0.9,0l2.6-1.5
							C55.8,177.7,55.9,177.6,55.9,177.5z"/>
						<path class="st17" d="M80.1,173.4l-2.6,1.5c-0.3,0.1-0.7,0.1-0.9,0l-2.6-1.5c-0.1-0.1-0.2-0.2-0.2-0.3l0-0.3
							c0,0.1,0.1,0.2,0.2,0.3l2.6,1.5c0.3,0.2,0.7,0.2,0.9,0l2.6-1.5c0.1-0.1,0.2-0.2,0.2-0.3l0,0.3
							C80.3,173.2,80.3,173.3,80.1,173.4z"/>
						<path class="st17" d="M70.2,175.5l2.6,1.5c0.3,0.1,0.7,0.1,0.9,0l2.6-1.5c0.1-0.1,0.2-0.2,0.2-0.3l0,0.3
							c0,0.1-0.1,0.2-0.2,0.3l-2.6,1.5c-0.3,0.1-0.7,0.1-0.9,0l-2.6-1.5c-0.1-0.1-0.2-0.2-0.2-0.3l0-0.3
							C70,175.3,70.1,175.4,70.2,175.5z"/>
						<path class="st17" d="M66.1,177.9l2.6,1.5c0.3,0.1,0.7,0.1,0.9,0l2.6-1.5c0.1-0.1,0.2-0.2,0.2-0.3l0,0.3
							c0,0.1-0.1,0.2-0.2,0.3l-2.6,1.5c-0.3,0.2-0.7,0.2-0.9,0l-2.6-1.5c-0.1-0.1-0.2-0.2-0.2-0.3l0-0.3
							C65.9,177.7,66,177.8,66.1,177.9z"/>
						<path class="st17" d="M62.6,180.9l-2.6-1.5c-0.1-0.1-0.2-0.2-0.2-0.3l0-0.3c0,0.1,0.1,0.2,0.2,0.3l2.6,1.5
							c0.3,0.1,0.7,0.1,0.9,0l2.6-1.5c0.1-0.1,0.2-0.2,0.2-0.3l0,0.3c0,0.1-0.1,0.2-0.2,0.3l-2.6,1.5
							C63.2,181.1,62.8,181.1,62.6,180.9z"/>
						<path class="st17" d="M56.2,181.9l-2.6-1.5c-0.1-0.1-0.2-0.2-0.2-0.3l0-0.3c0,0.1,0.1,0.2,0.2,0.3l2.6,1.5
							c0.3,0.2,0.7,0.2,0.9,0l2.6-1.5c0.1-0.1,0.2-0.2,0.2-0.3l0,0.3c0,0.1-0.1,0.2-0.2,0.3l-2.6,1.5
							C56.9,182.1,56.5,182.1,56.2,181.9z"/>
						<path class="st17" d="M84.2,175.7l-2.6,1.5c-0.3,0.2-0.7,0.2-0.9,0l-2.6-1.5c-0.1-0.1-0.2-0.2-0.2-0.3l0-0.3
							c0,0.1,0.1,0.2,0.2,0.3l2.6,1.5c0.3,0.1,0.7,0.1,0.9,0l2.6-1.5c0.1-0.1,0.2-0.2,0.2-0.3l0,0.3
							C84.4,175.5,84.3,175.6,84.2,175.7z"/>
						<path class="st17" d="M77.8,179.4l2.6-1.5c0.1-0.1,0.2-0.2,0.2-0.3l0,0.3c0,0.1-0.1,0.2-0.2,0.3l-2.6,1.5
							c-0.3,0.2-0.7,0.2-0.9,0l-2.6-1.5c-0.1-0.1-0.2-0.2-0.2-0.3l0-0.3c0,0,0.1,0.2,0.2,0.3l2.6,1.5
							C77.1,179.5,77.5,179.5,77.8,179.4z"/>
						<path class="st17" d="M73.7,182.1c-0.3,0.2-0.7,0.2-0.9,0l-2.6-1.5c-0.1-0.1-0.2-0.2-0.2-0.3l0-0.3c0,0.1,0.1,0.2,0.2,0.3
							l2.6,1.5c0.3,0.1,0.7,0.1,0.9,0l2.6-1.5c0.1-0.1,0.2-0.2,0.2-0.3l0,0.3c0,0.1-0.1,0.2-0.2,0.3L73.7,182.1z"/>
						<path class="st17" d="M66.6,183.3l-2.6-1.5c-0.1-0.1-0.2-0.2-0.2-0.3l0-0.3c0,0.1,0.1,0.2,0.2,0.3l2.6,1.5
							c0.3,0.1,0.7,0.1,0.9,0l2.6-1.5c0.1-0.1,0.2-0.2,0.2-0.3l0,0.3c0,0.1-0.1,0.2-0.2,0.3l-2.6,1.5
							C67.3,183.4,66.8,183.4,66.6,183.3z"/>
						<path class="st17" d="M60.3,184.3l-2.6-1.5c-0.1-0.1-0.2-0.2-0.2-0.3l0-0.3c0,0.1,0.1,0.2,0.2,0.3l2.6,1.5
							c0.3,0.1,0.7,0.1,0.9,0l2.6-1.5c0.1-0.1,0.2-0.2,0.2-0.3l0,0.3c0,0.1-0.1,0.2-0.2,0.3l-2.6,1.5
							C60.9,184.4,60.5,184.4,60.3,184.3z"/>
						<path class="st17" d="M108.9,190.1l-2.6,1.5c-0.3,0.2-0.7,0.2-0.9,0L82.1,178c-0.1-0.1-0.2-0.2-0.2-0.3l0-0.3
							c0,0.1,0.1,0.2,0.2,0.3l23.3,13.5c0.3,0.2,0.7,0.2,0.9,0l2.6-1.5c0.1-0.1,0.2-0.2,0.2-0.3l0,0.3
							C109.1,189.9,109,190,108.9,190.1z"/>
						<path class="st17" d="M81.8,181.7l2.6-1.5c0.1-0.1,0.2-0.2,0.2-0.3l0,0.3c0,0.1-0.1,0.2-0.2,0.3l-2.6,1.5
							c-0.3,0.2-0.7,0.2-0.9,0l-2.6-1.5c-0.1-0.1-0.2-0.2-0.2-0.3l0-0.3c0,0.1,0.1,0.2,0.2,0.3l2.6,1.5
							C81.1,181.8,81.5,181.8,81.8,181.7z"/>
						<path class="st17" d="M77.7,184.1l2.6-1.5c0.1-0.1,0.2-0.2,0.2-0.3l0,0.3c0,0.1-0.1,0.2-0.2,0.3l-2.6,1.5
							c-0.3,0.2-0.7,0.2-0.9,0l-2.6-1.5c-0.1-0.1-0.2-0.2-0.2-0.3l0-0.3c0,0.1,0.1,0.2,0.2,0.3l2.6,1.5
							C77,184.2,77.4,184.2,77.7,184.1z"/>
						<path class="st17" d="M70.6,185.6l-2.6-1.5c-0.1-0.1-0.2-0.2-0.2-0.3l0-0.3c0,0.1,0.1,0.2,0.2,0.3l2.6,1.5
							c0.3,0.2,0.7,0.2,0.9,0l2.6-1.5c0.1-0.1,0.2-0.2,0.2-0.3l0,0.3c0,0.1-0.1,0.2-0.2,0.3l-2.6,1.5
							C71.3,185.8,70.9,185.8,70.6,185.6z"/>
						<path class="st17" d="M64.3,186.6l-2.6-1.5c-0.1-0.1-0.2-0.2-0.2-0.3v-0.3c0,0,0.1,0.2,0.2,0.3l2.6,1.5c0.3,0.2,0.7,0.2,0.9,0
							l2.6-1.5c0.1-0.1,0.2-0.2,0.2-0.3l0,0.3c0,0.1-0.1,0.2-0.2,0.3l-2.6,1.5C65,186.8,64.5,186.8,64.3,186.6z"/>
						<path class="st17" d="M85.8,184l2.6-1.5c0.1-0.1,0.2-0.2,0.2-0.3l0,0.3c0,0.1-0.1,0.2-0.2,0.3l-2.6,1.5
							c-0.3,0.2-0.7,0.2-0.9,0l-2.6-1.5c-0.1-0.1-0.2-0.2-0.2-0.3l0-0.3c0,0.1,0.1,0.2,0.2,0.3l2.6,1.5
							C85.2,184.2,85.6,184.2,85.8,184z"/>
						<path class="st17" d="M81.7,186.4l2.6-1.5c0.1-0.1,0.2-0.2,0.2-0.3l0,0.3c0,0.1-0.1,0.2-0.2,0.3l-2.6,1.5
							c-0.3,0.1-0.7,0.1-0.9,0l-2.6-1.5c-0.1-0.1-0.2-0.2-0.2-0.3l0-0.3c0,0.1,0.1,0.2,0.2,0.3l2.6,1.5
							C81,186.6,81.5,186.6,81.7,186.4z"/>
						<path class="st17" d="M74.7,188l-2.6-1.5c-0.1-0.1-0.2-0.2-0.2-0.3l0-0.3c0,0.1,0.1,0.2,0.2,0.3l2.6,1.5
							c0.3,0.1,0.7,0.1,0.9,0l2.6-1.5c0.1-0.1,0.2-0.2,0.2-0.3l0,0.3c0,0.1-0.1,0.2-0.2,0.3l-2.6,1.5
							C75.3,188.1,74.9,188.1,74.7,188z"/>
						<path class="st17" d="M68.3,189l-2.6-1.5c-0.1-0.1-0.2-0.2-0.2-0.3v-0.3c0,0.1,0.1,0.2,0.2,0.3l2.6,1.5c0.3,0.1,0.7,0.1,0.9,0
							l2.6-1.5c0.1-0.1,0.2-0.2,0.2-0.3l0,0.3c0,0.1-0.1,0.2-0.2,0.3l-2.6,1.5C69,189.1,68.6,189.1,68.3,189z"/>
						<path class="st17" d="M89.9,186.4l2.6-1.5c0.1-0.1,0.2-0.2,0.2-0.3l0,0.3c0,0.1-0.1,0.2-0.2,0.3l-2.6,1.5
							c-0.3,0.2-0.7,0.2-0.9,0l-2.6-1.5c-0.1-0.1-0.2-0.2-0.2-0.3l0-0.3c0,0.1,0.1,0.2,0.2,0.3l2.6,1.5
							C89.2,186.5,89.6,186.5,89.9,186.4z"/>
						<path class="st17" d="M85.8,188.8l2.6-1.5c0.1-0.1,0.2-0.2,0.2-0.3l0,0.3c0,0.1-0.1,0.2-0.2,0.3l-2.6,1.5
							c-0.3,0.1-0.7,0.1-0.9,0l-2.6-1.5c-0.1-0.1-0.2-0.2-0.2-0.3l0-0.3c0,0.1,0.1,0.2,0.2,0.3l2.6,1.5
							C85.1,188.9,85.5,188.9,85.8,188.8z"/>
						<path class="st17" d="M78.7,190.3l-2.6-1.5c-0.1-0.1-0.2-0.2-0.2-0.3l0-0.3c0,0.1,0.1,0.2,0.2,0.3l2.6,1.5
							c0.3,0.1,0.7,0.1,0.9,0l2.6-1.5c0.1-0.1,0.2-0.2,0.2-0.3l0,0.3c0,0.1-0.1,0.2-0.2,0.3l-2.6,1.5
							C79.4,190.5,78.9,190.5,78.7,190.3z"/>
						<path class="st17" d="M72.4,191.3l-2.6-1.5c-0.1-0.1-0.2-0.2-0.2-0.3l0-0.3c0,0.1,0.1,0.2,0.2,0.3l2.6,1.5
							c0.3,0.1,0.7,0.1,0.9,0l2.6-1.5c0.1-0.1,0.2-0.2,0.2-0.3l0,0.3c0,0.1-0.1,0.2-0.2,0.3l-2.6,1.5
							C73,191.5,72.6,191.5,72.4,191.3z"/>
						<path class="st17" d="M93.9,188.7l2.6-1.5c0.1-0.1,0.2-0.2,0.2-0.3v0.3c0,0.1-0.1,0.2-0.2,0.3l-2.6,1.5
							c-0.3,0.2-0.7,0.2-0.9,0l-2.6-1.5c-0.1-0.1-0.2-0.2-0.2-0.3l0-0.3c0,0.1,0.1,0.2,0.2,0.3l2.6,1.5
							C93.2,188.9,93.6,188.9,93.9,188.7z"/>
						<path class="st17" d="M89.8,191.1l2.6-1.5c0.1-0.1,0.2-0.2,0.2-0.3l0,0.3c0,0.1-0.1,0.2-0.2,0.3l-2.6,1.5
							c-0.3,0.1-0.7,0.1-0.9,0l-2.6-1.5c-0.1-0.1-0.2-0.2-0.2-0.3l0-0.3c0,0.1,0.1,0.2,0.2,0.3l2.6,1.5
							C89.1,191.3,89.5,191.3,89.8,191.1z"/>
						<path class="st17" d="M82.7,192.6l-2.6-1.5c-0.1-0.1-0.2-0.2-0.2-0.3l0-0.3c0,0.1,0.1,0.2,0.2,0.3l2.6,1.5
							c0.3,0.1,0.7,0.1,0.9,0l2.6-1.5c0.1-0.1,0.2-0.2,0.2-0.3l0,0.3c0,0.1-0.1,0.2-0.2,0.3l-2.6,1.5
							C83.4,192.8,83,192.8,82.7,192.6z"/>
						<path class="st17" d="M76.4,193.7l-2.6-1.5c-0.1-0.1-0.2-0.2-0.2-0.3l0-0.3c0,0.1,0.1,0.2,0.2,0.3l2.6,1.5
							c0.3,0.1,0.7,0.1,0.9,0l2.6-1.5c0.1-0.1,0.2-0.2,0.2-0.3l0,0.3c0,0.1-0.1,0.2-0.2,0.3l-2.6,1.5
							C77.1,193.8,76.6,193.8,76.4,193.7z"/>
						<path class="st17" d="M97.9,191.1l2.6-1.5c0.1-0.1,0.2-0.2,0.2-0.3v0.3c0,0.1-0.1,0.2-0.2,0.3l-2.6,1.5
							c-0.3,0.1-0.7,0.1-0.9,0l-2.6-1.5c-0.1-0.1-0.2-0.2-0.2-0.3l0-0.3c0,0.1,0.1,0.2,0.2,0.3l2.6,1.5
							C97.2,191.2,97.7,191.2,97.9,191.1z"/>
						<path class="st17" d="M93.8,193.4l2.6-1.5c0.1-0.1,0.2-0.2,0.2-0.3l0,0.3c0,0.1-0.1,0.2-0.2,0.3l-2.6,1.5
							c-0.3,0.2-0.7,0.2-0.9,0l-2.6-1.5c-0.1-0.1-0.2-0.2-0.2-0.3l0-0.3c0,0.1,0.1,0.2,0.2,0.3l2.6,1.5
							C93.1,193.6,93.6,193.6,93.8,193.4z"/>
						<path class="st17" d="M86.8,195l-2.6-1.5c-0.1-0.1-0.2-0.2-0.2-0.3l0-0.3c0,0.1,0.1,0.2,0.2,0.3l2.6,1.5
							c0.3,0.1,0.7,0.1,0.9,0l2.6-1.5c0.1-0.1,0.2-0.2,0.2-0.2v0.2c0,0.1-0.1,0.2-0.2,0.3l-2.6,1.5C87.4,195.1,87,195.1,86.8,195z"
							/>
						<path class="st17" d="M80.4,196l-2.6-1.5c-0.1-0.1-0.2-0.2-0.2-0.3l0-0.3c0,0.1,0.1,0.2,0.2,0.3l2.6,1.5
							c0.3,0.1,0.7,0.1,0.9,0l2.6-1.5c0.1-0.1,0.2-0.2,0.2-0.3l0,0.3c0,0.1-0.1,0.2-0.2,0.3l-2.6,1.5
							C81.1,196.2,80.7,196.2,80.4,196z"/>
						<path class="st17" d="M102,193.4l2.6-1.5c0.1-0.1,0.2-0.2,0.2-0.3l0,0.3c0,0.1-0.1,0.2-0.2,0.3l-2.6,1.5
							c-0.3,0.1-0.7,0.1-0.9,0l-2.6-1.5c-0.1-0.1-0.2-0.2-0.2-0.3l0-0.3c0,0.1,0.1,0.2,0.2,0.3l2.6,1.5
							C101.3,193.6,101.7,193.6,102,193.4z"/>
						<path class="st17" d="M97.8,195.8l2.6-1.5c0.1-0.1,0.2-0.2,0.2-0.3l0,0.3c0,0.1-0.1,0.2-0.2,0.3l-2.6,1.5
							c-0.3,0.1-0.7,0.1-0.9,0l-2.6-1.5c-0.1-0.1-0.2-0.2-0.2-0.3l0-0.3c0,0.1,0.1,0.2,0.2,0.3l2.6,1.5
							C97.2,195.9,97.6,195.9,97.8,195.8z"/>
						<path class="st17" d="M90.8,197.3l-2.6-1.5c-0.1-0.1-0.2-0.2-0.2-0.3l0-0.3c0,0.1,0.1,0.2,0.2,0.3l2.6,1.5
							c0.3,0.1,0.7,0.1,0.9,0l2.6-1.5c0.1-0.1,0.2-0.2,0.2-0.3l0,0.3c0,0.1-0.1,0.2-0.2,0.3l-2.6,1.5
							C91.5,197.5,91,197.5,90.8,197.3z"/>
						<path class="st17" d="M84.4,198.4l-2.6-1.5c-0.1-0.1-0.2-0.2-0.2-0.3l0-0.3c0,0.1,0.1,0.2,0.2,0.3l2.6,1.5
							c0.3,0.1,0.7,0.1,0.9,0l2.6-1.5c0.1-0.1,0.2-0.2,0.2-0.3l0,0.3c0,0.1-0.1,0.2-0.2,0.3l-2.6,1.5
							C85.1,198.5,84.7,198.5,84.4,198.4z"/>
						<path class="st17" d="M112.9,192.4l-2.6,1.5c-0.3,0.2-0.7,0.2-0.9,0l-2.6-1.5c-0.1-0.1-0.2-0.2-0.2-0.3l0-0.3
							c0,0.1,0.1,0.2,0.2,0.3l2.6,1.5c0.3,0.2,0.7,0.1,0.9,0l2.6-1.5c0.1-0.1,0.2-0.2,0.2-0.3l0,0.3
							C113.1,192.2,113,192.3,112.9,192.4z"/>
						<path class="st17" d="M106,195.8l2.6-1.5c0.1-0.1,0.2-0.2,0.2-0.3l0,0.3c0,0.1-0.1,0.2-0.2,0.3l-2.6,1.5
							c-0.3,0.2-0.7,0.2-0.9,0l-2.6-1.5c-0.1-0.1-0.2-0.2-0.2-0.3l0-0.3c0,0.1,0.1,0.2,0.2,0.3l2.6,1.5
							C105.3,195.9,105.7,195.9,106,195.8z"/>
						<path class="st17" d="M101.9,198.1l2.6-1.5c0.1-0.1,0.2-0.2,0.2-0.3l0,0.3c0,0-0.1,0.2-0.2,0.3l-2.6,1.5
							c-0.3,0.1-0.7,0.1-0.9,0l-2.6-1.5c-0.1-0.1-0.2-0.2-0.2-0.3v-0.3c0,0.1,0.1,0.2,0.2,0.3l2.6,1.5
							C101.2,198.3,101.6,198.3,101.9,198.1z"/>
						<path class="st17" d="M94.8,199.7l-2.6-1.5c-0.1-0.1-0.2-0.2-0.2-0.2l0-0.4c0,0.1,0.1,0.2,0.2,0.3l2.6,1.5
							c0.3,0.1,0.7,0.1,0.9,0l2.6-1.5c0.1-0.1,0.2-0.2,0.2-0.3l0,0.3c0,0.1-0.1,0.2-0.2,0.3l-2.6,1.5
							C95.5,199.8,95.1,199.8,94.8,199.7z"/>
						<path class="st17" d="M88.5,200.7l-2.6-1.5c-0.1-0.1-0.2-0.2-0.2-0.3l0-0.3c0,0.1,0.1,0.2,0.2,0.3l2.6,1.5
							c0.3,0.2,0.7,0.2,0.9,0l2.6-1.5c0.1-0.1,0.2-0.2,0.2-0.3v0.3c0,0.1-0.1,0.2-0.2,0.3l-2.6,1.5
							C89.2,200.8,88.7,200.8,88.5,200.7z"/>
						<path class="st17" d="M116.9,194.8l-2.6,1.5c-0.3,0.1-0.7,0.2-0.9,0l-2.6-1.5c-0.1-0.1-0.2-0.2-0.2-0.3l0-0.3
							c0,0.1,0.1,0.2,0.2,0.3l2.6,1.5c0.3,0.2,0.7,0.2,0.9,0l2.6-1.5c0.1-0.1,0.2-0.2,0.2-0.3l0,0.3
							C117.1,194.6,117.1,194.7,116.9,194.8z"/>
						<path class="st17" d="M109.1,198.4l-2.6-1.5c-0.1-0.1-0.2-0.2-0.2-0.3l0-0.3c0,0.1,0.1,0.2,0.2,0.3l2.6,1.5
							c0.3,0.1,0.7,0.1,0.9,0l2.6-1.5c0.1-0.1,0.2-0.2,0.2-0.3l0,0.3c0,0.1-0.1,0.2-0.2,0.3l-2.6,1.5
							C109.8,198.6,109.3,198.6,109.1,198.4z"/>
						<path class="st17" d="M108.5,199.3l-2.6,1.5c-0.3,0.1-0.7,0.1-0.9,0l-2.6-1.5c-0.1-0.1-0.2-0.2-0.2-0.3l0-0.3
							c0,0.1,0.1,0.2,0.2,0.3l2.6,1.5c0.3,0.1,0.7,0.1,0.9,0l2.6-1.5c0.1-0.1,0.2-0.2,0.2-0.3l0,0.3
							C108.7,199.1,108.6,199.2,108.5,199.3z"/>
						<path class="st17" d="M102.6,199.9l0,0.3c0,0.1-0.1,0.2-0.2,0.3l-2.6,1.5c-0.3,0.2-0.7,0.2-0.9,0l-2.6-1.5
							c-0.1-0.1-0.2-0.2-0.2-0.3l0-0.3c0,0.1,0.1,0.2,0.2,0.3l2.6,1.5c0.3,0.1,0.7,0.1,0.9,0l2.6-1.5
							C102.5,200.1,102.6,200,102.6,199.9z"/>
						<path class="st17" d="M92.5,203l-2.6-1.5c-0.1-0.1-0.2-0.2-0.2-0.3l0-0.3c0,0.1,0.1,0.2,0.2,0.3l2.6,1.5
							c0.3,0.1,0.7,0.1,0.9,0l2.6-1.5c0.1-0.1,0.2-0.2,0.2-0.3l0,0.3c0,0.1-0.1,0.2-0.2,0.3l-2.6,1.5
							C93.2,203.2,92.8,203.2,92.5,203z"/>
						<path class="st17" d="M121,197.1l-0.7,0.4c-0.3,0.1-0.7,0.1-0.9,0l-2.6-1.5c-0.1-0.1-0.2-0.2-0.2-0.3l0-0.3
							c0,0,0.1,0.2,0.2,0.3l2.6,1.5c0.3,0.1,0.7,0.1,0.9,0l0.7-0.4c0.1-0.1,0.2-0.2,0.2-0.3v0.3C121.2,196.9,121.1,197,121,197.1z"
							/>
						<path class="st17" d="M114.7,196.8l0-0.3c0,0.1,0.1,0.2,0.2,0.3l2.6,1.5c0.3,0.2,0.7,0.2,0.9,0l0.7-0.4
							c0.1-0.1,0.2-0.2,0.2-0.3l0,0.3c0,0.1-0.1,0.2-0.2,0.3l-0.7,0.4c-0.3,0.2-0.7,0.2-0.9,0l-2.6-1.5
							C114.7,197,114.7,196.9,114.7,196.8z"/>
						<path class="st17" d="M116.6,199.3l-2.6,1.5c-0.3,0.2-0.7,0.2-0.9,0l-2.6-1.5c-0.1-0.1-0.2-0.2-0.2-0.3l0-0.3
							c0,0.1,0.1,0.2,0.2,0.3l2.6,1.5c0.3,0.2,0.7,0.2,0.9,0l2.6-1.5c0.1-0.1,0.2-0.2,0.2-0.3l0,0.3
							C116.8,199.1,116.8,199.2,116.6,199.3z"/>
						<path class="st17" d="M118.8,199.2l0-0.3c0,0.1,0.1,0.2,0.2,0.3l2.6,1.5c0.3,0.1,0.7,0.1,0.9,0l2.6-1.5
							c0.1-0.1,0.2-0.2,0.2-0.3l0,0.3c0,0.1-0.1,0.2-0.2,0.3l-2.6,1.5c-0.3,0.2-0.7,0.2-0.9,0l-2.6-1.5
							C118.9,199.4,118.8,199.3,118.8,199.2z"/>
						<path class="st17" d="M114.4,201.4l0-0.3c0,0.1,0.1,0.2,0.2,0.3l2.9,1.7c0.3,0.2,0.7,0.2,0.9,0l2.6-1.5
							c0.1-0.1,0.2-0.2,0.2-0.3l0,0.3c0,0.1-0.1,0.2-0.2,0.3l-2.6,1.5c-0.3,0.2-0.7,0.2-0.9,0l-2.9-1.7
							C114.5,201.6,114.4,201.5,114.4,201.4z"/>
						<path class="st17" d="M106.2,201.4l0-0.3c0,0.1,0.1,0.2,0.2,0.3l7,4c0.3,0.2,0.7,0.2,0.9,0l2.6-1.5c0.1-0.1,0.2-0.2,0.2-0.3
							l0,0.3c0,0.1-0.1,0.2-0.2,0.3l-2.6,1.5c-0.3,0.1-0.7,0.1-0.9,0l-7-4C106.3,201.6,106.2,201.5,106.2,201.4z"/>
						<path class="st17" d="M106.6,202.3l0,0.3c0,0.1-0.1,0.2-0.2,0.3l-2.6,1.5c-0.3,0.1-0.7,0.1-0.9,0l-2.6-1.5
							c-0.1-0.1-0.2-0.2-0.2-0.3l0-0.3c0,0.1,0.1,0.2,0.2,0.3l2.6,1.5c0.3,0.1,0.7,0.1,0.9,0l2.6-1.5
							C106.5,202.5,106.6,202.4,106.6,202.3z"/>
						<path class="st17" d="M96.5,205.4l-2.6-1.5c-0.1-0.1-0.2-0.2-0.2-0.3l0-0.3c0,0.1,0.1,0.2,0.2,0.3l2.6,1.5
							c0.3,0.1,0.7,0.1,0.9,0l2.6-1.5c0.1-0.1,0.2-0.2,0.2-0.3l0,0.3c0,0.1-0.1,0.2-0.2,0.3l-2.6,1.5
							C97.2,205.5,96.8,205.5,96.5,205.4z"/>
						<path class="st17" d="M104.2,204.9l0-0.3c0,0.1,0.1,0.2,0.2,0.3l4.9,2.9c0.3,0.1,0.7,0.1,0.9,0l2.6-1.5
							c0.1-0.1,0.2-0.2,0.2-0.3l0,0.3c0,0.1-0.1,0.2-0.2,0.3l-2.6,1.5c-0.3,0.2-0.7,0.2-0.9,0l-4.9-2.9
							C104.2,205.1,104.2,205,104.2,204.9z"/>
						<path class="st17" d="M104.3,205.6l0,0.3c0,0.1-0.1,0.2-0.2,0.3l-2.6,1.5c-0.3,0.2-0.7,0.2-0.9,0l-2.6-1.5
							c-0.1-0.1-0.2-0.2-0.2-0.2l0-0.4c0,0.1,0.1,0.2,0.2,0.3l2.6,1.5c0.3,0.1,0.7,0.1,0.9,0l2.6-1.5
							C104.2,205.8,104.3,205.7,104.3,205.6z"/>
						<path class="st17" d="M101.8,208.3l0-0.3c0,0.1,0.1,0.2,0.2,0.3l3.2,1.9c0.3,0.1,0.7,0.1,0.9,0l2.6-1.5
							c0.1-0.1,0.2-0.2,0.2-0.3l0,0.3c0,0.1-0.1,0.2-0.2,0.3l-2.6,1.5c-0.3,0.1-0.7,0.1-0.9,0l-3.2-1.9
							C101.9,208.5,101.8,208.4,101.8,208.3z"/>
						<path class="st17" d="M47.4,179l3.2,1.9c0.3,0.1,0.7,0.1,0.9,0l0.7-0.4c0.1-0.1,0.2-0.2,0.2-0.3l0,0.3c0,0.1-0.1,0.2-0.2,0.3
							l-0.7,0.4c-0.3,0.1-0.7,0.1-0.9,0l-3.2-1.9c-0.1-0.1-0.2-0.2-0.2-0.3l0-0.3C47.3,178.8,47.3,178.9,47.4,179z"/>
						<path class="st17" d="M52.1,181.7l2.6,1.5c0.3,0.2,0.7,0.2,0.9,0l0.7-0.4c0.1-0.1,0.2-0.2,0.2-0.3l0,0.3
							c0,0.1-0.1,0.2-0.2,0.3l-0.7,0.4c-0.3,0.1-0.7,0.1-0.9,0l-2.6-1.5c-0.1-0.1-0.2-0.2-0.2-0.3l0-0.3
							C51.9,181.6,52,181.7,52.1,181.7z"/>
						<path class="st17" d="M56.1,184.1l2.6,1.5c0.3,0.1,0.7,0.1,0.9,0l0.7-0.4c0.1-0.1,0.2-0.2,0.2-0.3l0,0.3
							c0,0.1-0.1,0.2-0.2,0.3l-0.7,0.4c-0.3,0.1-0.7,0.1-0.9,0l-2.6-1.5c-0.1-0.1-0.2-0.2-0.2-0.3l0-0.3
							C55.9,183.9,56,184,56.1,184.1z"/>
						<path class="st17" d="M60.2,186.4l2.6,1.5c0.3,0.1,0.7,0.1,0.9,0l0.7-0.4c0.1-0.1,0.2-0.2,0.2-0.3l0,0.3
							c0,0.1-0.1,0.2-0.2,0.3l-0.7,0.4c-0.3,0.1-0.7,0.1-0.9,0l-2.6-1.5c-0.1-0.1-0.2-0.2-0.2-0.3l0-0.3
							C60,186.2,60,186.3,60.2,186.4z"/>
						<path class="st17" d="M64.2,188.8l2.6,1.5c0.3,0.1,0.7,0.1,0.9,0l0.7-0.4c0.1-0.1,0.2-0.2,0.2-0.3l0,0.3
							c0,0.1-0.1,0.2-0.2,0.3l-0.7,0.4c-0.3,0.1-0.7,0.1-0.9,0l-2.6-1.5c-0.1-0.1-0.2-0.2-0.2-0.3l0-0.3
							C64,188.6,64.1,188.7,64.2,188.8z"/>
						<path class="st17" d="M68.2,191.1l2.6,1.5c0.3,0.1,0.7,0.1,0.9,0l0.7-0.4c0.1-0.1,0.2-0.2,0.2-0.3l0,0.3
							c0,0.1-0.1,0.2-0.2,0.3l-0.7,0.4c-0.3,0.1-0.7,0.1-0.9,0l-2.6-1.5c-0.1-0.1-0.2-0.2-0.2-0.2l0-0.4
							C68,190.9,68.1,191,68.2,191.1z"/>
						<path class="st17" d="M72.3,193.4l2.6,1.5c0.3,0.2,0.7,0.2,0.9,0l0.7-0.4c0.1-0.1,0.2-0.2,0.2-0.3l0,0.3
							c0,0.1-0.1,0.2-0.2,0.3l-0.7,0.4c-0.3,0.1-0.7,0.1-0.9,0l-2.6-1.5c-0.1-0.1-0.2-0.2-0.2-0.3l0-0.3
							C72.1,193.3,72.1,193.4,72.3,193.4z"/>
						<path class="st17" d="M76.3,195.8l2.6,1.5c0.3,0.1,0.7,0.1,0.9,0l0.7-0.4c0.1-0.1,0.2-0.2,0.2-0.3l0,0.3
							c0,0.1-0.1,0.2-0.2,0.3l-0.7,0.4c-0.3,0.1-0.7,0.1-0.9,0l-2.6-1.5c-0.1-0.1-0.2-0.2-0.2-0.3l0-0.3
							C76.1,195.6,76.2,195.7,76.3,195.8z"/>
						<path class="st17" d="M80.3,198.1l2.6,1.5c0.3,0.1,0.7,0.1,0.9,0l0.7-0.4c0.1-0.1,0.2-0.2,0.2-0.3l0,0.3
							c0,0.1-0.1,0.2-0.2,0.3l-0.7,0.4c-0.3,0.2-0.7,0.2-0.9,0l-2.6-1.5c-0.1-0.1-0.2-0.2-0.2-0.3l0-0.3
							C80.1,198,80.2,198.1,80.3,198.1z"/>
						<path class="st17" d="M84.4,200.5l2.6,1.5c0.3,0.1,0.7,0.1,0.9,0l0.7-0.4c0.1-0.1,0.2-0.2,0.2-0.3l0,0.3c0,0-0.1,0.2-0.2,0.3
							l-0.7,0.4c-0.3,0.1-0.7,0.1-0.9,0l-2.6-1.5c-0.1-0.1-0.2-0.2-0.2-0.3l0-0.3C84.2,200.3,84.2,200.4,84.4,200.5z"/>
						<path class="st17" d="M88.4,202.8l2.6,1.5c0.3,0.2,0.7,0.2,0.9,0l0.7-0.4c0.1-0.1,0.2-0.2,0.2-0.3l0,0.3
							c0,0.1-0.1,0.2-0.2,0.3l-0.7,0.4c-0.3,0.1-0.7,0.1-0.9,0l-2.6-1.5c-0.1-0.1-0.2-0.2-0.2-0.3l0-0.3
							C88.2,202.6,88.3,202.7,88.4,202.8z"/>
						<path class="st17" d="M92.4,205.2l2.6,1.5c0.3,0.2,0.7,0.2,0.9,0l0.7-0.4c0.1-0.1,0.2-0.2,0.2-0.3l0,0.3
							c0,0.1-0.1,0.2-0.2,0.3l-0.7,0.4c-0.3,0.1-0.7,0.1-0.9,0l-2.6-1.5c-0.1-0.1-0.2-0.2-0.2-0.3l0-0.3
							C92.2,205,92.3,205.1,92.4,205.2z"/>
						<path class="st17" d="M96.5,207.5L99,209c0.3,0.1,0.7,0.1,0.9,0l0.7-0.4c0.1-0.1,0.2-0.2,0.2-0.3l0,0.3c0,0.1-0.1,0.2-0.2,0.3
							l-0.7,0.4c-0.3,0.1-0.7,0.1-0.9,0l-2.6-1.5c-0.1-0.1-0.2-0.2-0.2-0.3l0-0.3C96.3,207.3,96.3,207.4,96.5,207.5z"/>
						<path class="st17" d="M100.5,209.8l2.6,1.5c0.3,0.1,0.7,0.1,0.9,0l0.7-0.4c0.1-0.1,0.2-0.2,0.2-0.3l0,0.3
							c0,0.1-0.1,0.2-0.2,0.3l-0.7,0.4c-0.3,0.1-0.7,0.1-0.9,0l-2.6-1.5c-0.1-0.1-0.2-0.2-0.2-0.3l0-0.3
							C100.3,209.7,100.4,209.8,100.5,209.8z"/>
					</g>
					<g>
						<path class="st18" d="M66,167.8c-0.3,0.2-0.3,0.4,0,0.5l2.6,1.5c0.3,0.1,0.7,0.1,0.9,0l2.6-1.5c0.3-0.2,0.3-0.4,0-0.5
							l-2.6-1.5c-0.3-0.2-0.7-0.2-0.9,0L66,167.8z"/>
						<path class="st18" d="M70,170.1c-0.3,0.2-0.3,0.4,0,0.5l2.6,1.5c0.3,0.1,0.7,0.1,0.9,0l2.6-1.5c0.3-0.2,0.3-0.4,0-0.5
							l-2.6-1.5c-0.3-0.1-0.7-0.1-0.9,0L70,170.1z"/>
						<path class="st18" d="M61.9,170.1c-0.3,0.2-0.3,0.4,0,0.5l6.9,4c0.3,0.1,0.7,0.2,0.9,0l2.6-1.5c0.3-0.1,0.3-0.4,0-0.5l-6.9-4
							c-0.3-0.1-0.7-0.1-0.9,0L61.9,170.1z"/>
						<path class="st18" d="M57.8,172.5c-0.3,0.1-0.3,0.4,0,0.5l6.9,4c0.3,0.2,0.7,0.2,0.9,0l2.6-1.5c0.3-0.1,0.3-0.4,0-0.5l-6.9-4
							c-0.3-0.1-0.7-0.1-0.9,0L57.8,172.5z"/>
						<path class="st18" d="M53.7,174.9c-0.3,0.2-0.3,0.4,0,0.5l4.9,2.8c0.3,0.2,0.7,0.2,0.9,0l2.6-1.5c0.3-0.2,0.3-0.4,0-0.5
							l-4.9-2.8c-0.3-0.2-0.7-0.2-0.9,0L53.7,174.9z"/>
						<path class="st18" d="M49.6,177.2c-0.3,0.1-0.3,0.4,0,0.5l2.6,1.5c0.3,0.2,0.7,0.2,0.9,0l2.6-1.5c0.3-0.2,0.3-0.4,0-0.5
							l-2.6-1.5c-0.3-0.1-0.7-0.2-0.9,0L49.6,177.2z"/>
						<path class="st18" d="M74,172.5c-0.3,0.1-0.3,0.4,0,0.5l2.6,1.5c0.3,0.2,0.7,0.2,0.9,0l2.6-1.5c0.3-0.2,0.3-0.4,0-0.5
							l-2.6-1.5c-0.3-0.1-0.7-0.1-0.9,0L74,172.5z"/>
						<path class="st18" d="M70.2,175c-0.3,0.2-0.3,0.4,0,0.5l2.6,1.5c0.3,0.1,0.7,0.1,0.9,0l2.6-1.5c0.3-0.2,0.3-0.4,0-0.5
							l-2.6-1.5c-0.3-0.2-0.7-0.2-0.9,0L70.2,175z"/>
						<path class="st18" d="M66.1,177.3c-0.3,0.2-0.3,0.4,0,0.5l2.6,1.5c0.3,0.1,0.7,0.1,0.9,0l2.6-1.5c0.3-0.2,0.3-0.4,0-0.5
							l-2.6-1.5c-0.3-0.1-0.7-0.1-0.9,0L66.1,177.3z"/>
						<path class="st18" d="M60,178.6c-0.3,0.1-0.3,0.4,0,0.5l2.6,1.5c0.3,0.1,0.7,0.1,0.9,0l2.6-1.5c0.3-0.2,0.3-0.4,0-0.5
							l-2.6-1.5c-0.3-0.2-0.7-0.2-0.9,0L60,178.6z"/>
						<path class="st18" d="M53.7,179.6c-0.3,0.1-0.3,0.4,0,0.5l2.6,1.5c0.3,0.2,0.7,0.2,0.9,0l2.6-1.5c0.3-0.2,0.3-0.4,0-0.5
							l-2.6-1.5c-0.3-0.1-0.7-0.1-0.9,0L53.7,179.6z"/>
						<path class="st18" d="M78.1,174.8c-0.3,0.2-0.3,0.4,0,0.5l2.6,1.5c0.3,0.1,0.7,0.1,0.9,0l2.6-1.5c0.3-0.2,0.3-0.4,0-0.5
							l-2.6-1.5c-0.3-0.1-0.7-0.2-0.9,0L78.1,174.8z"/>
						<path class="st18" d="M74.3,177.3c-0.3,0.1-0.3,0.4,0,0.5l2.6,1.5c0.3,0.1,0.7,0.1,0.9,0l2.6-1.5c0.3-0.2,0.3-0.4,0-0.5
							l-2.6-1.5c-0.3-0.1-0.7-0.1-0.9,0L74.3,177.3z"/>
						<path class="st18" d="M70.1,179.7c-0.3,0.1-0.3,0.4,0,0.5l2.6,1.5c0.3,0.1,0.7,0.1,0.9,0l2.6-1.5c0.3-0.1,0.3-0.4,0-0.5
							l-2.6-1.5c-0.3-0.2-0.7-0.2-0.9,0L70.1,179.7z"/>
						<path class="st18" d="M64,180.9c-0.3,0.2-0.3,0.4,0,0.5l2.6,1.5c0.3,0.1,0.7,0.1,0.9,0l2.6-1.5c0.3-0.2,0.3-0.4,0-0.5
							l-2.6-1.5c-0.3-0.1-0.7-0.1-0.9,0L64,180.9z"/>
						<path class="st18" d="M57.7,181.9c-0.3,0.1-0.3,0.4,0,0.5l2.6,1.5c0.3,0.1,0.7,0.1,0.9,0l2.6-1.5c0.3-0.1,0.3-0.4,0-0.5
							l-2.6-1.5c-0.3-0.1-0.7-0.2-0.9,0L57.7,181.9z"/>
						<path class="st18" d="M82.1,177.2c-0.3,0.2-0.3,0.4,0,0.5l23.3,13.5c0.3,0.2,0.7,0.2,0.9,0l2.6-1.5c0.3-0.2,0.3-0.4,0-0.5
							l-23.3-13.5c-0.3-0.2-0.7-0.2-0.9,0L82.1,177.2z"/>
						<path class="st18" d="M78.3,179.7c-0.3,0.2-0.3,0.4,0,0.5l2.6,1.5c0.3,0.2,0.7,0.2,0.9,0l2.6-1.5c0.3-0.2,0.3-0.4,0-0.5
							l-2.6-1.5c-0.3-0.1-0.7-0.1-0.9,0L78.3,179.7z"/>
						<path class="st18" d="M74.2,182c-0.3,0.2-0.3,0.4,0,0.5l2.6,1.5c0.3,0.1,0.7,0.1,0.9,0l2.6-1.5c0.3-0.1,0.3-0.4,0-0.5
							l-2.6-1.5c-0.3-0.2-0.7-0.2-0.9,0L74.2,182z"/>
						<path class="st18" d="M68.1,183.2c-0.3,0.1-0.3,0.4,0,0.5l2.6,1.5c0.3,0.2,0.7,0.2,0.9,0l2.6-1.5c0.3-0.2,0.3-0.4,0-0.5
							l-2.6-1.5c-0.3-0.1-0.7-0.1-0.9,0L68.1,183.2z"/>
						<path class="st18" d="M61.7,184.3c-0.3,0.1-0.3,0.4,0,0.5l2.6,1.5c0.3,0.2,0.7,0.2,0.9,0l2.6-1.5c0.3-0.2,0.3-0.4,0-0.5
							l-2.6-1.5c-0.3-0.1-0.7-0.1-0.9,0L61.7,184.3z"/>
						<path class="st18" d="M82.3,182c-0.3,0.2-0.3,0.4,0,0.5l2.6,1.5c0.3,0.1,0.7,0.1,0.9,0l2.6-1.5c0.3-0.2,0.3-0.4,0-0.5
							l-2.6-1.5c-0.3-0.2-0.7-0.2-0.9,0L82.3,182z"/>
						<path class="st18" d="M78.2,184.4c-0.3,0.1-0.3,0.4,0,0.5l2.6,1.5c0.3,0.2,0.7,0.2,0.9,0l2.6-1.5c0.3-0.2,0.3-0.4,0-0.5
							l-2.6-1.5c-0.3-0.2-0.7-0.2-0.9,0L78.2,184.4z"/>
						<path class="st18" d="M72.1,185.6c-0.3,0.2-0.3,0.4,0,0.5l2.6,1.5c0.3,0.1,0.7,0.1,0.9,0l2.6-1.5c0.3-0.1,0.3-0.4,0-0.5
							l-2.6-1.5c-0.3-0.2-0.7-0.2-0.9,0L72.1,185.6z"/>
						<path class="st18" d="M65.7,186.6c-0.3,0.2-0.3,0.4,0,0.5l2.6,1.5c0.3,0.1,0.7,0.1,0.9,0l2.6-1.5c0.3-0.2,0.3-0.4,0-0.5
							l-2.6-1.5c-0.3-0.1-0.7-0.1-0.9,0L65.7,186.6z"/>
						<path class="st18" d="M86.4,184.3c-0.3,0.2-0.3,0.4,0,0.5l2.6,1.5c0.3,0.2,0.7,0.1,0.9,0l2.6-1.5c0.3-0.2,0.3-0.4,0-0.5
							l-2.6-1.5c-0.3-0.2-0.7-0.2-0.9,0L86.4,184.3z"/>
						<path class="st18" d="M82.2,186.7c-0.3,0.1-0.3,0.4,0,0.5l2.6,1.5c0.3,0.2,0.7,0.1,0.9,0l2.6-1.5c0.3-0.1,0.3-0.4,0-0.5
							l-2.6-1.5c-0.3-0.2-0.7-0.2-0.9,0L82.2,186.7z"/>
						<path class="st18" d="M76.1,187.9c-0.3,0.1-0.3,0.4,0,0.5l2.6,1.5c0.3,0.1,0.7,0.1,0.9,0l2.6-1.5c0.3-0.1,0.3-0.4,0-0.5
							l-2.6-1.5c-0.3-0.1-0.7-0.1-0.9,0L76.1,187.9z"/>
						<path class="st18" d="M69.8,188.9c-0.3,0.2-0.3,0.4,0,0.5l2.6,1.5c0.3,0.1,0.7,0.1,0.9,0l2.6-1.5c0.3-0.2,0.3-0.4,0-0.5
							l-2.6-1.5c-0.3-0.2-0.7-0.2-0.9,0L69.8,188.9z"/>
						<path class="st18" d="M90.4,186.7c-0.3,0.2-0.3,0.4,0,0.5l2.6,1.5c0.3,0.1,0.7,0.1,0.9,0l2.6-1.5c0.3-0.2,0.3-0.4,0-0.5
							l-2.6-1.5c-0.3-0.2-0.7-0.2-0.9,0L90.4,186.7z"/>
						<path class="st18" d="M86.3,189.1c-0.3,0.1-0.3,0.4,0,0.5l2.6,1.5c0.3,0.2,0.7,0.2,0.9,0l2.6-1.5c0.3-0.2,0.3-0.4,0-0.5
							l-2.6-1.5c-0.3-0.2-0.7-0.2-0.9,0L86.3,189.1z"/>
						<path class="st18" d="M80.1,190.3c-0.3,0.2-0.3,0.4,0,0.5l2.6,1.5c0.3,0.1,0.7,0.1,0.9,0l2.6-1.5c0.3-0.1,0.3-0.4,0-0.5
							l-2.6-1.5c-0.3-0.1-0.7-0.1-0.9,0L80.1,190.3z"/>
						<path class="st18" d="M73.8,191.3c-0.3,0.2-0.3,0.4,0,0.5l2.6,1.5c0.3,0.1,0.7,0.1,0.9,0l2.6-1.5c0.3-0.1,0.3-0.4,0-0.5
							l-2.6-1.5c-0.3-0.1-0.7-0.1-0.9,0L73.8,191.3z"/>
						<path class="st18" d="M94.4,189c-0.3,0.2-0.3,0.4,0,0.5l2.6,1.5c0.3,0.2,0.7,0.2,0.9,0l2.6-1.5c0.3-0.2,0.3-0.4,0-0.5
							l-2.6-1.5c-0.3-0.2-0.7-0.2-0.9,0L94.4,189z"/>
						<path class="st18" d="M90.3,191.4c-0.3,0.2-0.3,0.4,0,0.5l2.6,1.5c0.3,0.1,0.7,0.1,0.9,0l2.6-1.5c0.3-0.1,0.3-0.4,0-0.5
							l-2.6-1.5c-0.3-0.1-0.7-0.1-0.9,0L90.3,191.4z"/>
						<path class="st18" d="M84.2,192.6c-0.3,0.1-0.3,0.4,0,0.5l2.6,1.5c0.3,0.1,0.7,0.1,0.9,0l2.6-1.5c0.3-0.2,0.3-0.4,0-0.5
							l-2.6-1.5c-0.3-0.1-0.7-0.1-0.9,0L84.2,192.6z"/>
						<path class="st18" d="M77.8,193.6c-0.3,0.1-0.3,0.4,0,0.5l2.6,1.5c0.3,0.1,0.7,0.1,0.9,0l2.6-1.5c0.3-0.1,0.3-0.4,0-0.5
							l-2.6-1.5c-0.3-0.2-0.7-0.2-0.9,0L77.8,193.6z"/>
						<path class="st18" d="M98.5,191.4c-0.3,0.2-0.3,0.4,0,0.5l2.6,1.5c0.3,0.2,0.7,0.2,0.9,0l2.6-1.5c0.3-0.2,0.3-0.4,0-0.5
							l-2.6-1.5c-0.3-0.2-0.7-0.2-0.9,0L98.5,191.4z"/>
						<path class="st18" d="M94.3,193.8c-0.3,0.2-0.3,0.4,0,0.5l2.6,1.5c0.3,0.2,0.7,0.2,0.9,0l2.6-1.5c0.3-0.1,0.3-0.4,0-0.5
							l-2.6-1.5c-0.3-0.2-0.7-0.2-0.9,0L94.3,193.8z"/>
						<path class="st18" d="M88.2,195c-0.3,0.1-0.3,0.4,0,0.5l2.6,1.5c0.3,0.1,0.7,0.1,0.9,0l2.6-1.5c0.3-0.1,0.3-0.4,0-0.5
							l-2.6-1.5c-0.3-0.1-0.7-0.1-0.9,0L88.2,195z"/>
						<path class="st18" d="M81.9,196c-0.3,0.2-0.3,0.4,0,0.5l2.6,1.5c0.3,0.1,0.7,0.1,0.9,0l2.6-1.5c0.3-0.2,0.3-0.4,0-0.5
							l-2.6-1.5c-0.3-0.1-0.7-0.2-0.9,0L81.9,196z"/>
						<path class="st18" d="M106.8,191.5c-0.3,0.2-0.3,0.4,0,0.5l2.6,1.5c0.3,0.2,0.7,0.1,0.9,0l2.6-1.5c0.3-0.2,0.3-0.4,0-0.5
							l-2.6-1.5c-0.3-0.2-0.7-0.2-0.9,0L106.8,191.5z"/>
						<path class="st18" d="M102.5,193.7c-0.3,0.2-0.3,0.4,0,0.5l2.6,1.5c0.3,0.2,0.7,0.2,0.9,0l2.6-1.5c0.3-0.1,0.3-0.4,0-0.5
							l-2.6-1.5c-0.3-0.1-0.7-0.1-0.9,0L102.5,193.7z"/>
						<path class="st18" d="M98.4,196.1c-0.3,0.1-0.3,0.4,0,0.5l2.6,1.5c0.3,0.2,0.7,0.2,0.9,0l2.6-1.5c0.3-0.1,0.3-0.4,0-0.5
							l-2.6-1.5c-0.3-0.2-0.7-0.2-0.9,0L98.4,196.1z"/>
						<path class="st18" d="M92.2,197.3c-0.3,0.1-0.3,0.4,0,0.5l2.6,1.5c0.3,0.1,0.7,0.1,0.9,0l2.6-1.5c0.3-0.2,0.3-0.4,0-0.5
							l-2.6-1.5c-0.3-0.1-0.7-0.1-0.9,0L92.2,197.3z"/>
						<path class="st18" d="M85.9,198.3c-0.3,0.2-0.3,0.4,0,0.5l2.6,1.5c0.3,0.2,0.7,0.2,0.9,0l2.6-1.5c0.3-0.2,0.3-0.4,0-0.5
							l-2.6-1.5c-0.3-0.2-0.7-0.2-0.9,0L85.9,198.3z"/>
						<path class="st18" d="M110.8,193.9c-0.3,0.1-0.3,0.4,0,0.5l2.6,1.5c0.3,0.2,0.7,0.2,0.9,0l2.6-1.5c0.3-0.2,0.3-0.4,0-0.5
							l-2.6-1.5c-0.3-0.1-0.7-0.2-0.9,0L110.8,193.9z"/>
						<path class="st18" d="M106.5,196.1c-0.3,0.2-0.3,0.4,0,0.5l2.6,1.5c0.3,0.1,0.7,0.1,0.9,0l2.6-1.5c0.3-0.1,0.3-0.4,0-0.5
							l-2.6-1.5c-0.3-0.1-0.7-0.1-0.9,0L106.5,196.1z"/>
						<path class="st18" d="M102.4,198.4c-0.3,0.2-0.3,0.4,0,0.5l2.6,1.5c0.3,0.1,0.7,0.1,0.9,0l2.6-1.5c0.3-0.1,0.3-0.4,0-0.5
							l-2.6-1.5c-0.3-0.2-0.7-0.2-0.9,0L102.4,198.4z"/>
						<path class="st18" d="M96.3,199.6c-0.3,0.1-0.3,0.4,0,0.5l2.6,1.5c0.3,0.1,0.7,0.1,0.9,0l2.6-1.5c0.3-0.1,0.3-0.4,0-0.5
							l-2.6-1.5c-0.3-0.2-0.7-0.2-0.9,0L96.3,199.6z"/>
						<path class="st18" d="M89.9,200.7c-0.3,0.1-0.3,0.4,0,0.5l2.6,1.5c0.3,0.1,0.7,0.1,0.9,0l2.6-1.5c0.3-0.1,0.3-0.4,0-0.5
							l-2.6-1.5c-0.3-0.1-0.7-0.2-0.9,0L89.9,200.7z"/>
						<path class="st18" d="M116.8,195.1c-0.3,0.1-0.3,0.4,0,0.5l2.6,1.5c0.3,0.1,0.7,0.1,0.9,0l0.7-0.4c0.3-0.2,0.3-0.4,0-0.5
							l-2.6-1.5c-0.3-0.2-0.7-0.2-0.9,0L116.8,195.1z"/>
						<path class="st18" d="M114.9,196.2c-0.3,0.2-0.3,0.4,0,0.5l2.6,1.5c0.3,0.2,0.7,0.2,0.9,0l0.7-0.4c0.3-0.1,0.3-0.4,0-0.5
							l-2.6-1.5c-0.3-0.2-0.7-0.2-0.9,0L114.9,196.2z"/>
						<path class="st18" d="M110.6,198.4c-0.3,0.1-0.3,0.4,0,0.5l2.6,1.5c0.3,0.1,0.7,0.1,0.9,0l2.6-1.5c0.3-0.2,0.3-0.4,0-0.5
							l-2.6-1.5c-0.3-0.1-0.7-0.1-0.9,0L110.6,198.4z"/>
						<path class="st18" d="M119,198.6c-0.3,0.2-0.3,0.4,0,0.5l2.6,1.5c0.3,0.1,0.7,0.1,0.9,0l2.6-1.5c0.3-0.2,0.3-0.4,0-0.5
							l-2.6-1.5c-0.3-0.2-0.7-0.2-0.9,0L119,198.6z"/>
						<path class="st18" d="M114.6,200.7c-0.3,0.1-0.3,0.4,0,0.5l2.9,1.7c0.3,0.1,0.7,0.1,0.9,0l2.6-1.5c0.3-0.2,0.3-0.4,0-0.5
							l-2.9-1.7c-0.3-0.2-0.7-0.2-0.9,0L114.6,200.7z"/>
						<path class="st18" d="M106.4,200.8c-0.3,0.1-0.3,0.4,0,0.5l7,4c0.3,0.2,0.7,0.2,0.9,0l2.6-1.5c0.3-0.2,0.3-0.4,0-0.5l-7-4
							c-0.3-0.2-0.7-0.2-0.9,0L106.4,200.8z"/>
						<path class="st18" d="M100.3,202c-0.3,0.2-0.3,0.4,0,0.5l2.6,1.5c0.3,0.1,0.7,0.1,0.9,0l2.6-1.5c0.3-0.1,0.3-0.4,0-0.5
							l-2.6-1.5c-0.3-0.2-0.7-0.1-0.9,0L100.3,202z"/>
						<path class="st18" d="M94,203c-0.3,0.2-0.3,0.4,0,0.5l2.6,1.5c0.3,0.1,0.7,0.1,0.9,0l2.6-1.5c0.3-0.2,0.3-0.4,0-0.5l-2.6-1.5
							c-0.3-0.1-0.7-0.2-0.9,0L94,203z"/>
						<path class="st18" d="M104.4,204.3c-0.3,0.2-0.3,0.4,0,0.5l4.9,2.9c0.3,0.1,0.7,0.1,0.9,0l2.6-1.5c0.3-0.2,0.3-0.4,0-0.5
							l-5-2.9c-0.3-0.1-0.7-0.1-0.9,0L104.4,204.3z"/>
						<path class="st18" d="M98,205.3c-0.3,0.2-0.3,0.4,0,0.5l2.6,1.5c0.3,0.1,0.7,0.1,0.9,0l2.6-1.5c0.3-0.1,0.3-0.4,0-0.5
							l-2.6-1.5c-0.3-0.2-0.7-0.2-0.9,0L98,205.3z"/>
						<path class="st18" d="M102,207.7c-0.3,0.2-0.3,0.4,0,0.5l3.2,1.9c0.3,0.1,0.7,0.1,0.9,0l2.6-1.5c0.3-0.2,0.3-0.4,0-0.5
							l-3.2-1.9c-0.3-0.1-0.7-0.2-0.9,0L102,207.7z"/>
						<path class="st18" d="M47.5,178.5c-0.3,0.2-0.3,0.4,0,0.5l3.2,1.9c0.3,0.1,0.7,0.1,0.9,0l0.7-0.4c0.3-0.2,0.3-0.4,0-0.5
							l-3.2-1.9c-0.3-0.1-0.7-0.1-0.9,0L47.5,178.5z"/>
						<path class="st18" d="M52.1,181.2c-0.3,0.1-0.3,0.4,0,0.5l2.6,1.5c0.3,0.2,0.7,0.2,0.9,0l0.7-0.4c0.3-0.2,0.3-0.4,0-0.5
							l-2.6-1.5c-0.3-0.1-0.7-0.2-0.9,0L52.1,181.2z"/>
						<path class="st18" d="M56.1,183.5c-0.3,0.1-0.3,0.4,0,0.5l2.6,1.5c0.3,0.1,0.7,0.1,0.9,0l0.7-0.4c0.3-0.1,0.3-0.4,0-0.5
							l-2.6-1.5c-0.3-0.2-0.7-0.2-0.9,0L56.1,183.5z"/>
						<path class="st18" d="M60.2,185.9c-0.3,0.1-0.3,0.4,0,0.5l2.6,1.5c0.3,0.1,0.7,0.1,0.9,0l0.7-0.4c0.3-0.2,0.3-0.4,0-0.5
							l-2.6-1.5c-0.3-0.1-0.7-0.2-0.9,0L60.2,185.9z"/>
						<path class="st18" d="M64.2,188.2c-0.3,0.2-0.3,0.4,0,0.5l2.6,1.5c0.3,0.1,0.7,0.1,0.9,0l0.7-0.4c0.3-0.1,0.3-0.4,0-0.5
							l-2.6-1.5c-0.3-0.1-0.7-0.1-0.9,0L64.2,188.2z"/>
						<path class="st18" d="M68.2,190.6c-0.3,0.1-0.3,0.4,0,0.5l2.6,1.5c0.3,0.1,0.7,0.1,0.9,0l0.7-0.4c0.3-0.2,0.3-0.4,0-0.5
							l-2.6-1.5c-0.3-0.1-0.7-0.1-0.9,0L68.2,190.6z"/>
						<path class="st18" d="M72.3,192.9c-0.3,0.2-0.3,0.4,0,0.5l2.6,1.5c0.3,0.2,0.7,0.2,0.9,0l0.7-0.4c0.3-0.2,0.3-0.4,0-0.5
							l-2.6-1.5c-0.3-0.2-0.7-0.2-0.9,0L72.3,192.9z"/>
						<path class="st18" d="M76.3,195.2c-0.3,0.1-0.3,0.4,0,0.5l2.6,1.5c0.3,0.1,0.7,0.1,0.9,0l0.7-0.4c0.3-0.2,0.3-0.4,0-0.5
							l-2.6-1.5c-0.3-0.1-0.7-0.1-0.9,0L76.3,195.2z"/>
						<path class="st18" d="M80.3,197.6c-0.3,0.1-0.3,0.4,0,0.5l2.6,1.5c0.3,0.1,0.7,0.1,0.9,0l0.7-0.4c0.3-0.2,0.3-0.4,0-0.5
							l-2.6-1.5c-0.3-0.1-0.7-0.2-0.9,0L80.3,197.6z"/>
						<path class="st18" d="M84.4,199.9c-0.3,0.2-0.3,0.4,0,0.5l2.6,1.5c0.3,0.1,0.7,0.1,0.9,0l0.7-0.4c0.3-0.1,0.3-0.4,0-0.5
							l-2.6-1.5c-0.3-0.2-0.7-0.2-0.9,0L84.4,199.9z"/>
						<path class="st18" d="M88.4,202.3c-0.3,0.2-0.3,0.4,0,0.5l2.6,1.5c0.3,0.2,0.7,0.2,0.9,0l0.7-0.4c0.3-0.1,0.3-0.4,0-0.5
							l-2.6-1.5c-0.3-0.1-0.7-0.2-0.9,0L88.4,202.3z"/>
						<path class="st18" d="M92.4,204.6c-0.3,0.2-0.3,0.4,0,0.5l2.6,1.5c0.3,0.2,0.7,0.2,0.9,0l0.7-0.4c0.3-0.2,0.3-0.4,0-0.5
							l-2.6-1.5c-0.3-0.2-0.7-0.2-0.9,0L92.4,204.6z"/>
						<path class="st18" d="M96.5,207c-0.3,0.1-0.3,0.4,0,0.5L99,209c0.3,0.1,0.7,0.1,0.9,0l0.7-0.4c0.3-0.2,0.3-0.4,0-0.5l-2.6-1.5
							c-0.3-0.2-0.7-0.2-0.9,0L96.5,207z"/>
						<path class="st18" d="M100.5,209.3c-0.3,0.1-0.3,0.4,0,0.5l2.6,1.5c0.3,0.1,0.7,0.1,0.9,0l0.7-0.4c0.3-0.2,0.3-0.4,0-0.5
							l-2.6-1.5c-0.3-0.2-0.7-0.2-0.9,0L100.5,209.3z"/>
					</g>
				</g>
				<g>
					<path class="st15" d="M85.9,173.3c-0.8,0.5-0.8,1.2,0,1.7l24.7,14.4c0.8,0.5,2.1,0.5,2.9,0l14-8.1c0.8-0.5,0.8-1.2,0-1.7
						l-24.7-14.4c-0.8-0.5-2.1-0.5-2.9,0L85.9,173.3z"/>
					<path class="st13" d="M127.6,180.2l-24.7-14.4c-0.8-0.5-2.1-0.5-2.9,0l-14,8.1c-0.3,0.2-0.5,0.4-0.6,0.6
						c-0.2-0.4,0-0.8,0.6-1.1l14-8.1c0.8-0.5,2.1-0.5,2.9,0l24.7,14.4c0.5,0.3,0.7,0.7,0.6,1.1C128,180.5,127.9,180.3,127.6,180.2z"
						/>
				</g>
			</g>
			<g>
				<g>
					<polygon class="st14" points="35.2,186.9 36.5,185.5 35.6,183.7 34.4,185.1 					"/>
					<polygon class="st13" points="41.1,189 34.4,185.1 35.4,186.7 42.2,190.6 					"/>
					<polygon class="st14" points="86,216.2 87.3,214.8 86.4,213 85.1,214.4 					"/>
					<polygon class="st13" points="91.8,218.3 85.1,214.4 86.2,216 92.9,219.9 					"/>
					<path class="st14" d="M9.7,141.4c0.1-0.1,0.2-0.1,0.3-0.1c0.3,0,0.8,0.1,1.4,0.5l0,0c0,0,0.1,0,0.1,0.1l0,0l67.3,38.9
						c0.5,0.3,1.1,0.7,1.6,1.2c0.3,0.3,0.6,0.6,0.9,0.9c0.6,0.6,1.1,1.3,1.4,1.9l17.9,36.3c0.3,0.5,0.3,0.9,0.1,1.1l-1.3,1.4
						c0.2-0.2,0.1-0.5-0.1-1.1L81.5,186c-0.3-0.6-0.8-1.2-1.4-1.9c-0.3-0.3-0.6-0.6-0.9-0.9c-0.5-0.5-1.1-0.9-1.6-1.2
						c0,0-67.4-38.9-67.4-38.9l0,0c-0.6-0.4-1.1-0.5-1.4-0.5c-0.1,0-0.2,0.1-0.3,0.1L9.7,141.4z"/>
					<path class="st19" d="M100.2,222.5c0.2-0.2,0.1-0.5-0.1-1.1l-17.9-36.3c-0.3-0.6-0.8-1.2-1.4-1.9c-0.3-0.3-0.6-0.6-0.9-0.9
						c-0.5-0.5-1.1-0.9-1.6-1.2L11,142.4c0,0-0.1,0-0.1-0.1c-0.6-0.3-1.1-0.5-1.4-0.5c-0.1,0-0.2,0.1-0.3,0.1l0.5-0.6
						c0.1-0.1,0.2-0.1,0.3-0.1c0.3,0,0.8,0.1,1.4,0.5c0,0,0.1,0,0.1,0.1l67.3,38.9c0.5,0.3,1.1,0.7,1.6,1.2c0.3,0.3,0.6,0.6,0.9,0.9
						c0.6,0.6,1.1,1.3,1.4,1.9l17.9,36.3c0.3,0.5,0.3,0.9,0.1,1.1l-1.3,1.4l0,0L100.2,222.5z"/>
					<path class="st20" d="M10.2,143.2c-1.6-0.9-2.3-0.6-1.7,0.7l17.9,36.3c0.6,1.3,2.4,3,4,3.9l4.9,2.8l-0.9-1.8l6.7,3.9l0.9,1.8
						l44,25.4l-0.9-1.8l6.7,3.9l0.9,1.8l4.9,2.8c1.6,0.9,2.3,0.6,1.7-0.7L81.5,186c-0.6-1.3-2.4-3-4-3.9L10.2,143.2z"/>
				</g>
			</g>
		</g>
	</g>
</g>
</svg>
