<?xml version="1.0" encoding="utf-8"?>
<!-- Generator: Adobe Illustrator 25.2.0, SVG Export Plug-In . SVG Version: 6.00 Build 0)  -->
<svg version="1.1" id="Layer_1" xmlns="http://www.w3.org/2000/svg" xmlns:xlink="http://www.w3.org/1999/xlink" x="0px" y="0px"
	 viewBox="0 0 160 292.7" style="enable-background:new 0 0 160 292.7;" xml:space="preserve">
<style type="text/css">
	.st0{opacity:0.1;}
	.st1{fill-rule:evenodd;clip-rule:evenodd;}
	.st2{fill-rule:evenodd;clip-rule:evenodd;fill:#E6E4E4;}
	.st3{fill-rule:evenodd;clip-rule:evenodd;fill:#726D7D;}
	.st4{fill-rule:evenodd;clip-rule:evenodd;fill:#A4A5A5;}
	.st5{fill-rule:evenodd;clip-rule:evenodd;fill:#3A3742;}
	.st6{fill-rule:evenodd;clip-rule:evenodd;fill:#D1CFD6;}
	.st7{fill-rule:evenodd;clip-rule:evenodd;fill:#656565;}
	.st8{fill-rule:evenodd;clip-rule:evenodd;fill:#A2A2A2;}
	.st9{fill-rule:evenodd;clip-rule:evenodd;fill:#FFFFFF;}
	.st10{fill-rule:evenodd;clip-rule:evenodd;fill:#4B8C8A;}
	.st11{fill-rule:evenodd;clip-rule:evenodd;fill:#70B7B5;}
	.st12{fill-rule:evenodd;clip-rule:evenodd;fill:#CE6342;}
	.st13{fill-rule:evenodd;clip-rule:evenodd;fill:#EF9478;}
	.st14{fill-rule:evenodd;clip-rule:evenodd;fill:#DDE4ED;}
	.st15{fill-rule:evenodd;clip-rule:evenodd;fill:#868588;}
	.st16{fill-rule:evenodd;clip-rule:evenodd;fill:#232323;}
	.st17{fill-rule:evenodd;clip-rule:evenodd;fill:#565656;}
	.st18{fill-rule:evenodd;clip-rule:evenodd;fill:#B7C2CA;}
	.st19{fill-rule:evenodd;clip-rule:evenodd;fill:#DD8260;}
	.st20{fill-rule:evenodd;clip-rule:evenodd;fill:#599CC9;}
	.st21{fill-rule:evenodd;clip-rule:evenodd;fill:#EAC373;}
	.st22{fill-rule:evenodd;clip-rule:evenodd;fill:#BA5E42;}
	.st23{fill-rule:evenodd;clip-rule:evenodd;fill:#E7F5F8;}
	.st24{fill-rule:evenodd;clip-rule:evenodd;fill:#354959;}
	.st25{fill-rule:evenodd;clip-rule:evenodd;fill:#01253D;}
	.st26{fill-rule:evenodd;clip-rule:evenodd;fill:#D1D1D1;}
	.st27{fill-rule:evenodd;clip-rule:evenodd;fill:#6D411A;}
	.st28{fill-rule:evenodd;clip-rule:evenodd;fill:#EEFCFF;}
	.st29{fill-rule:evenodd;clip-rule:evenodd;fill:#3F5D72;}
	.st30{fill-rule:evenodd;clip-rule:evenodd;fill:#DD923F;}
	.st31{fill-rule:evenodd;clip-rule:evenodd;fill:#AA6F2D;}
	.st32{fill-rule:evenodd;clip-rule:evenodd;fill:#1B2B38;}
	.st33{fill-rule:evenodd;clip-rule:evenodd;fill:#252525;}
	.st34{fill-rule:evenodd;clip-rule:evenodd;fill:#FFD6C4;}
	.st35{fill-rule:evenodd;clip-rule:evenodd;fill:#E7BCA9;}
	.st36{fill-rule:evenodd;clip-rule:evenodd;fill:#C59178;}
	.st37{fill-rule:evenodd;clip-rule:evenodd;fill:#E3F0FA;}
	.st38{fill-rule:evenodd;clip-rule:evenodd;fill:#36200B;}
	.st39{fill-rule:evenodd;clip-rule:evenodd;fill:#C17643;}
	.st40{fill-rule:evenodd;clip-rule:evenodd;fill:url(#SVGID_1_);}
	.st41{fill-rule:evenodd;clip-rule:evenodd;fill:#669999;}
	.st42{fill-rule:evenodd;clip-rule:evenodd;fill:url(#SVGID_2_);}
</style>
<g class="st0">
	<polygon class="st1" points="102.1,188.3 44.3,221.6 91.1,248.7 148.9,215.3 	"/>
	<path class="st1" d="M71.3,241.8c-4.5-2.6-10-3.9-16.4-3.9c-6.4,0-11.8,1.3-16.4,3.9c-4.5,2.6-6.8,5.8-6.8,9.5c0,2,0.7,3.9,2.1,5.6
		c-1.7-0.2-3.5-0.3-5.3-0.3c-6.4,0-11.8,1.3-16.4,3.9c-4.5,2.6-6.8,5.8-6.8,9.4c0,3.7,2.3,6.8,6.8,9.5c4.5,2.6,10,3.9,16.4,3.9
		c6.4,0,11.8-1.3,16.4-3.9c4.5-2.6,6.8-5.8,6.8-9.5c0-2-0.7-3.9-2.1-5.6c1.7,0.2,3.5,0.3,5.3,0.3c6.4,0,11.8-1.3,16.4-3.9
		c4.5-2.6,6.8-5.8,6.8-9.5C78.1,247.6,75.8,244.5,71.3,241.8z"/>
</g>
<g>
	<g>
		<g>
			<polygon class="st2" points="138,8.5 71,47 52.3,143.6 50.8,142.4 70,44.9 136.4,6.8 			"/>
			<polygon class="st3" points="52.3,143.6 71,47 138,8.5 119.3,105.2 			"/>
		</g>
		<g>
			<path class="st4" d="M82.8,44.4c-0.4,0-0.8,0.1-1.2,0.4c-0.4,0.3-0.7,0.7-0.8,1.3L52.9,221.3c-0.1,0.4,0,0.8,0.2,1.2
				c-0.1,0-0.2,0-0.2,0c-0.5-0.1-0.9-0.3-1.3-0.8c-0.3-0.4-0.4-0.9-0.3-1.4L79.1,45.1c0.1-0.6,0.3-1,0.8-1.3
				c0.4-0.3,0.9-0.4,1.4-0.3c0.5,0.1,0.9,0.3,1.3,0.8C82.7,44.3,82.7,44.4,82.8,44.4z M84,64.3c-0.3,0.1-0.6,0.3-0.9,0.6
				c-0.4,0.4-0.6,0.8-0.6,1.4l9.2,177.1c0,0.3,0.1,0.6,0.2,0.9c-0.2,0-0.3,0.1-0.5,0.1c-0.5,0-1-0.2-1.4-0.5
				c-0.4-0.4-0.6-0.8-0.7-1.4L80.6,71.8l-0.3-6.4c0-0.6,0.1-1,0.6-1.4c0.3-0.4,0.7-0.6,1.1-0.7c0.1,0,0.1,0,0.2,0
				c0.6,0,1,0.2,1.4,0.6C83.7,64,83.9,64.1,84,64.3z"/>
			<path class="st5" d="M53.1,222.5c-0.2-0.4-0.3-0.8-0.2-1.2L80.8,46.1c0.1-0.6,0.3-1,0.8-1.3c0.4-0.3,0.8-0.4,1.2-0.4
				c0.1,0,0.2,0,0.2,0c0.5,0.1,0.9,0.3,1.3,0.8c0.3,0.4,0.4,0.9,0.3,1.5L82,63.3c-0.4,0.1-0.8,0.3-1.1,0.7c-0.4,0.4-0.6,0.8-0.6,1.4
				l0.3,6.4L56.7,221.9c-0.1,0.5-0.3,0.9-0.8,1.3c-0.4,0.3-0.9,0.4-1.4,0.3c-0.5-0.1-0.9-0.3-1.3-0.8
				C53.2,222.7,53.1,222.6,53.1,222.5z M84,64.3c0.1-0.1,0.3-0.1,0.5-0.1c0.6,0,1,0.2,1.4,0.6c0.4,0.4,0.6,0.8,0.7,1.3l9.1,177.2
				c0,0.6-0.1,1-0.5,1.4c-0.4,0.4-0.8,0.6-1.3,0.6c-0.5,0-1-0.2-1.4-0.5c-0.2-0.2-0.3-0.3-0.4-0.5c-0.1-0.3-0.2-0.5-0.2-0.9
				L82.6,66.3c0-0.6,0.1-1,0.6-1.4C83.4,64.6,83.6,64.4,84,64.3z"/>
		</g>
		<g>
			<path class="st4" d="M128.8,18.1c-0.5-0.1-1,0-1.4,0.3c-0.4,0.3-0.7,0.7-0.8,1.3L98.8,194.9c-0.1,0.4,0,0.8,0.1,1.1h0
				c-0.5-0.1-0.9-0.3-1.3-0.8c-0.3-0.4-0.4-0.9-0.3-1.4l27.9-175.3c0.1-0.6,0.3-1,0.8-1.3c0.4-0.3,0.9-0.4,1.4-0.3
				c0.5,0.1,0.9,0.3,1.3,0.8C128.7,17.9,128.8,18,128.8,18.1z M129.7,37.4c-0.4,0.1-0.7,0.3-1,0.7c-0.4,0.4-0.6,0.8-0.6,1.4
				l9.2,177.1c0,0.3,0.1,0.6,0.2,0.8c-0.1,0-0.2,0-0.3,0.1c-0.5,0-1-0.2-1.4-0.5c-0.4-0.4-0.6-0.8-0.7-1.4L126.4,46l-0.4-7.5
				c0-0.6,0.1-1,0.6-1.4c0.4-0.4,0.8-0.7,1.3-0.7h0c0.5,0,1,0.2,1.4,0.6C129.4,37.1,129.6,37.3,129.7,37.4z"/>
			<path class="st5" d="M137.5,217.5c-0.1-0.2-0.2-0.5-0.2-0.8l-9.2-177.1c0-0.6,0.1-1,0.6-1.4c0.3-0.3,0.6-0.6,1-0.7
				c0.1,0,0.2,0,0.4-0.1c0.6,0,1,0.2,1.4,0.6c0.4,0.4,0.6,0.8,0.7,1.3l9.1,177.2c0,0.6-0.1,1-0.5,1.4c-0.4,0.4-0.8,0.6-1.3,0.6
				c-0.5,0-1-0.2-1.4-0.5C137.8,217.8,137.7,217.7,137.5,217.5z M128.8,18.1L128.8,18.1c0.6,0.1,1,0.3,1.3,0.8
				c0.3,0.4,0.4,0.9,0.3,1.4l-2.6,16.1h0c-0.5,0-1,0.3-1.3,0.7c-0.4,0.4-0.6,0.8-0.6,1.4l0.4,7.5l-23.8,149.6
				c-0.1,0.5-0.3,0.9-0.8,1.2c-0.4,0.3-0.9,0.4-1.4,0.3c-0.5-0.1-0.9-0.3-1.3-0.8c-0.1-0.1-0.1-0.2-0.2-0.3
				c-0.2-0.3-0.2-0.7-0.1-1.1l27.9-175.3c0.1-0.6,0.3-1,0.8-1.3C127.8,18.1,128.3,18,128.8,18.1z"/>
		</g>
		<g>
			<g>
				<path class="st6" d="M154.5,128.1C154.6,128.1,154.6,128.1,154.5,128.1v0.1V128.1z M154.5,127.9l-73,42.1l-10.7-5.9l73.1-42.2
					L154.5,127.9z"/>
				<path class="st7" d="M81.6,170l73-42.1c0,0,0,0.1,0,0.1v0.1v8.6l-73,42.2V170z"/>
				<polygon class="st8" points="70.9,164.1 81.6,170 81.6,179 70.9,172.9 				"/>
			</g>
		</g>
		<polygon class="st9" points="138.9,8.7 143,126.3 76.1,164.9 72,47.4 		"/>
		<g>
			<g>
				<path class="st10" d="M89.3,162.7l-4.3,2.5c-0.4,0.3-0.9,0.2-1.4-0.1l-3.1-1.8c-0.2-0.1-0.3-0.2-0.3-0.4l-0.1,0v-2.3l0.1,0.1
					c0,0.1,0.1,0.2,0.3,0.3l3.1,1.8c0.5,0.3,0.9,0.3,1.4,0.1l4.3-2.5V162.7z"/>
				<path class="st11" d="M89.3,160.3l-4.3,2.5c-0.4,0.3-0.9,0.2-1.4-0.1l-3.1-1.8c-0.2-0.1-0.3-0.2-0.3-0.3c-0.1-0.2,0-0.3,0.3-0.5
					l4.4-2.5L89.3,160.3z"/>
				<path class="st12" d="M90.6,161.9v-2.3l3.8-2.2c0.2-0.1,0.3-0.3,0.3-0.4l0.1-0.1v2.4l-0.1,0c0,0.1-0.1,0.2-0.3,0.4L90.6,161.9
					L90.6,161.9z"/>
				<path class="st13" d="M90.6,159.5l-4.5-2.6l3.8-2.2c0.2-0.1,0.4-0.2,0.6-0.2c0.2,0,0.5,0.1,0.7,0.2l3.2,1.8
					c0.2,0.1,0.3,0.3,0.3,0.4c0,0.1-0.1,0.3-0.3,0.4L90.6,159.5L90.6,159.5z"/>
				<polygon class="st9" points="86.2,156.9 90.6,159.5 89.3,160.3 84.9,157.6 86.2,157 				"/>
				<polygon class="st14" points="90.6,161.9 89.3,162.7 89.3,160.3 90.6,159.5 90.6,159.6 				"/>
			</g>
		</g>
		<g>
			<polygon class="st15" points="132.1,134.4 132.1,134.3 128.2,132 143.1,123.4 147.1,125.8 			"/>
			<polygon class="st16" points="132.1,137.7 132.1,134.4 147.1,125.8 147.1,129.2 			"/>
			<polygon class="st17" points="132.1,134.4 132.1,137.7 128.2,135.3 128.2,132 132.1,134.3 			"/>
		</g>
	</g>
	<path class="st18" d="M91,58.8v1.5l-13.4,7.8v-1.5L91,58.8z M91,55.2v1.5l-13.4,7.8v-1.5L91,55.2z M91,51.3v1.5l-13.4,7.8V59
		L91,51.3z M95.6,44.8v1.5l-18,10.5v-1.5L95.6,44.8z"/>
	<path class="st19" d="M122.4,37.1v-1.4l13.2-7.7v1.4L122.4,37.1z M135.6,24.3v1.4l-13.2,7.7v-1.4L135.6,24.3z M135.6,20.5v1.4
		l-13.2,7.7v-1.4L135.6,20.5z"/>
	<path class="st20" d="M124.8,125.9v-1.4l13.2-7.7v1.4L124.8,125.9z M138,113.1v1.4l-13.2,7.7v-1.4L138,113.1z M138,109.2v1.4
		l-13.2,7.7V117L138,109.2z"/>
	<g>
		<path class="st21" d="M135.6,72.2l-17.8,13l2.2,18.6c4.4-3.8,8.1-8.8,11.1-14.8C134.1,83,135.6,77.4,135.6,72.2z"/>
		<path class="st20" d="M115,83.3l17.8-13c0.2-2.9-0.1-5.6-0.9-8c-1.6-4.8-5.2-5.8-10.8-3.2c-2.2,1-4.5,2.5-6.7,4.4l-2.8,2.4
			c0.2-0.1,0.2-0.1,0,0.1c-3.8,3.5-7.3,8.6-10.5,15.1L115,83.3z"/>
		<path class="st19" d="M115,83.3L101,81c-0.9,2.1-1.7,4.1-2.3,6.3c-1.7,5.6-1.9,10.4-0.8,14.2c1.1,3.8,3.4,5.9,6.9,6.2
			c3.5,0.3,7.3-1.3,11.4-4.8L115,83.3z"/>
	</g>
	<path class="st19" d="M137.2,85.6c0.2-0.2,0.4-0.3,0.6-0.2c0.1,0.1,0.2,0.2,0.2,0.4c0,0.2-0.1,0.4-0.2,0.6
		c-0.1,0.3-0.3,0.4-0.6,0.6l-2.5,1.9v7.5c0,0.2-0.1,0.4-0.3,0.7c-0.1,0.3-0.3,0.4-0.5,0.6l-4.7,3.4v7.4c0,0.2-0.1,0.4-0.2,0.7
		c-0.1,0.3-0.3,0.4-0.6,0.6l-7.2,5.3v17.6c0,0.2-0.1,0.4-0.2,0.7c0,0-0.1,0.1-0.1,0.1c-0.1,0.2-0.3,0.4-0.4,0.5
		c-0.2,0.2-0.4,0.2-0.6,0.2c-0.1,0-0.2-0.1-0.2-0.4v-18.3c0-0.2,0.1-0.4,0.2-0.6c0.1-0.3,0.3-0.5,0.6-0.6l7-5.1l0.1,0l0.2-0.2v-7.4
		c0-0.2,0.1-0.4,0.2-0.7c0.1-0.3,0.3-0.4,0.6-0.6l4.6-3.4v-7.5c0-0.2,0.1-0.4,0.2-0.7c0.1-0.2,0.3-0.4,0.6-0.6L137.2,85.6z"/>
	<g>
		<path class="st20" d="M104.2,131.2l5.2-3l0.3,11.3l-5.2,3.1L104.2,131.2z M96.3,129.8l0.5,17.6l-5.2,3.1L91.1,133L96.3,129.8z
			 M98,137.8l5.2-3.1l0.3,8.3l-5.2,3.1L98,137.8z M84.5,138.6l5.2-3l0.4,16.1l-5.2,3.1L84.5,138.6z M111,132.8l5.2-3.7l0.2,6.5
			l-5.2,3.1L111,132.8z"/>
		<path class="st21" d="M109.4,128.3l-5.2,3l-0.1-3.1l5.2-2.8L109.4,128.3z M116.1,126.3l0.1,2.8l-5.2,3.7l0-3.5L116.1,126.3z
			 M98,137.8l-0.2-8.1l5.1-2.9l0.2,8L98,137.8z M96.3,129.8l-5.2,3.2l-0.1-3.4l5.2-3.4L96.3,129.8z M89.7,135.6l-5.2,3l-0.2-8.6
			l5.2-3.2L89.7,135.6z"/>
		<path class="st19" d="M109.3,125.4l-5.2,2.8l-0.1-2.3l5.2-3.1L109.3,125.4z M116.1,126.3l-5.1,3l-0.2-4.6l5.2-3.1L116.1,126.3z
			 M103,126.8l-5.1,2.9l-0.2-2.6l5.2-3.1L103,126.8z M89.5,126.7l-5.2,3.2l-0.1-2.5l5.2-3.1L89.5,126.7z M96.2,126.2l-5.2,3.4
			l-0.1-3.1l5.2-3.2L96.2,126.2z"/>
	</g>
	<g>
		<path class="st22" d="M110.1,37.1l-1.9,1.1v17.1l1.9-1.1V37.1z M120.7,48.2v-5.9l-2,1.1v5.9L120.7,48.2z M99.1,60.4v-4.6l-1.9,1.1
			v4.6L99.1,60.4z"/>
		<path class="st21" d="M117.3,39.3l-2.3,1.3v10.8l2.3-1.3V39.3z M106.4,40.8l-1.9,1.1v15.4l1.9-1.1V40.8z"/>
		<path class="st20" d="M103,46.6l-1.9,1.1v11.6l1.9-1.1V46.6z M113.6,38.5l-1.9,1.1v13.7l1.9-1.1V38.5z"/>
	</g>
	<g>
		<path class="st19" d="M85.1,70.7c-1.9,2.1-3.3,4.4-4.2,7.1c-0.9,2.7-1,5-0.5,6.9c0.6,2,1.7,3.1,3.5,3.4c1.7,0.3,3.6-0.3,5.7-1.9
			c2.1-1.5,3.8-3.6,5.2-6.1c1.4-2.6,2-5,2-7.4l2.4-1.4c0,3-0.9,6.2-2.6,9.5c-1.7,3.3-3.9,5.9-6.6,7.9c-2.6,1.9-5.1,2.7-7.3,2.4
			c-2.2-0.4-3.7-1.8-4.5-4.3c-0.7-2.5-0.5-5.4,0.6-8.9c1.1-3.4,2.9-6.4,5.4-9.1L85.1,70.7z"/>
		<path class="st21" d="M89.4,68.6c1.9-0.8,3.5-0.7,4.7,0.2l-1.3,1.9c-1-0.8-2.2-0.8-3.7-0.2c-1.5,0.7-2.9,1.8-4.1,3.5
			c-1.2,1.7-2,3.5-2.3,5.3c-0.3,1.9-0.1,3.3,0.7,4.3c0.8,1,1.9,1.4,3.3,1c1.4-0.4,2.8-1.3,4.2-2.8c1.3-1.5,2.3-3.3,2.8-5.2
			c0.5-1.9,0.5-3.5-0.1-4.8l1.5-1.6c0.7,1.6,0.8,3.7,0.1,6.1c-0.7,2.4-1.9,4.7-3.6,6.6c-1.7,2-3.5,3.2-5.4,3.6
			c-1.8,0.5-3.3,0-4.3-1.3c-1-1.3-1.3-3.2-0.9-5.5c0.4-2.4,1.4-4.6,3-6.8C85.7,70.9,87.5,69.4,89.4,68.6z"/>
		<path class="st20" d="M89.1,72l-0.3,2.5c-0.6,0.2-1.2,0.7-1.6,1.4c-0.5,0.7-0.8,1.4-1,2.1c-0.2,0.8-0.1,1.4,0.1,1.9
			c0.2,0.5,0.6,0.7,1.2,0.7c0.5,0,1.1-0.3,1.7-0.8c0.6-0.5,1-1.2,1.4-1.9c0.3-0.8,0.5-1.5,0.4-2.1l2.1-1.5c0.1,1.2-0.1,2.5-0.7,3.9
			c-0.6,1.4-1.5,2.6-2.5,3.6c-1.1,1-2.1,1.5-3.1,1.5c-1,0-1.7-0.4-2.2-1.3c-0.5-0.9-0.5-2-0.2-3.4c0.3-1.4,0.9-2.7,1.9-3.9
			C87,73.3,88,72.5,89.1,72z"/>
	</g>
</g>
<g>
	<path class="st23" d="M104.7,103.8c0.1,0.4,0.1,0.9,0.1,1.4c-0.2,0.2-0.5,0.5-0.7,0.7c-0.8,0.4-1.7,0.7-2.5,0.7
		c-2,0-3.5-0.5-4.5-1.6c-0.2-0.2-0.4-0.5-0.6-0.7c-0.5-1.6-0.8-2.4-0.8-2.5c0-1.1,0.5-2.4,1.4-4.1l0,0c0.4-0.3,0.9-0.5,1.3-0.5
		c0.2,0,0.4,0,0.6,0.1c-0.3,0.7-0.5,1.5-0.6,2.2c-0.1,0.2-0.1,0.4-0.2,0.5l-0.1,0.1l0.2,1.6c0.2,0.3,0.4,0.5,0.7,0.8c0,0,0,0,0,0
		c0.1,0.1,0.1,0.1,0.1,0.1c0.3,0.2,0.6,0.4,0.9,0.5C101.7,103.7,103.1,103.9,104.7,103.8z"/>
	<path class="st24" d="M59.5,119.2c-0.2-3.5-0.5-7-0.9-10.5c-0.2-0.8-0.4-1.6-0.7-2.4c1.2,0.9,2.5,1.9,3.9,3
		c7.3,5.7,12.7,8.5,16.3,8.5c1.1,0,3.6-1.3,7.3-4c4.7-3.6,8.3-6.3,10.7-8.1c0.4-0.3,0.7-0.5,1.1-0.8c1,1.1,2.5,1.6,4.5,1.6
		c0.8,0,1.6-0.2,2.5-0.7c0.4-0.2,0.8-0.5,1.2-0.9c-0.1,0.2-0.1,0.3-0.1,0.5c-2.1,2.3-4.2,4.4-6.4,6.4c-0.4,0.3-0.8,0.7-1.2,1
		c-0.1,0-0.1,0.1-0.1,0.1c-0.5,0.4-1,0.7-1.5,1.1c-0.7,0.5-1.4,1-2,1.5c-2,1.5-4,2.8-6.1,4c-1.1,0.6-2,1.3-2.9,2.1
		c-0.9,0.9-2,1.7-3.1,2.5c-0.8,0.5-1.7,0.9-2.6,1.1c-0.7,0.1-1.3,0.1-2,0.2c-0.7-0.1-1.4-0.2-2-0.4c-0.6-0.2-1.2-0.4-1.8-0.6
		c-0.9-0.5-1.8-0.9-2.7-1.3c-1.8-0.8-3.6-1.5-5.4-2.1c-1.4-0.5-2.9-1-4.4-1.5C60.4,119.7,60,119.5,59.5,119.2z M37.9,217.2
		c0.1-0.4,0.3-0.7,0.4-0.9c0,0,0,0.1,0,0.1v0c5.8-15.7,9.2-28.1,10.2-37.4l2.4-1.1v-7.2l0-1.1c0.4-0.2,0.7-0.4,1.1-0.5
		c0.1-0.1,0.2-0.1,0.3-0.2c0.8-0.4,1.6-0.9,2.4-1.3c0.1,2.2,0,4.5,0,6.7c-0.1,0.6,0,1.3,0.1,2c0.2,0,0.4,0,0.6,0
		c1-0.6,1.9-1.2,2.9-1.8c-0.3,3.9-1.6,11.4-4.1,22.6c-2.6,11.8-3.7,22.2-3.4,31c0.4,8.8,0.9,14.8,1.5,18c0,0.1,0,0.2,0,0.3
		c-0.2,0.1-0.4,0.1-0.5,0.2c0.4-0.1,0.9-0.2,1.3-0.4c0.2-0.1,0.3-0.1,0.5-0.2c0.7-0.3,1.4-0.6,2-1c2,1,5.1,2.3,9.6,3.8
		c4.6,1.6,7.4,2.7,8.3,3.5c0.1,0.1,0.2,0.3,0.4,0.5c0,0.4,0,0.8,0,1.3c-1.7,0.9-3.5,1.3-5.4,1.2c-1.5,0-3.3-0.4-5.4-1
		c-1.2-0.4-3-1-5.4-1.8c-2.2-0.7-4-1-5.4-1.1c-0.7-0.1-1.7-0.2-3.1-0.2c-1.5,0-2.5-0.1-3.2-0.2c-2.4-0.4-4.2-1.3-5.4-2.8
		c-0.5-0.7-0.7-1.5-0.8-2.3c0-0.9,0.2-1.7,0.6-2.4c-0.7-0.9-1.1-2.1-1.2-3.6c-0.1-0.8,0-2.1,0.2-3.9l0-0.4c0.2-2.7,0.2-5.8-0.1-9.5
		c-0.1-0.7-0.1-1.4-0.2-2.1C38.5,221.5,38.1,219.3,37.9,217.2z M33.2,286.7c-0.8,0-1.6,0-2.4,0c-0.8-0.1-1.6-0.3-2.3-0.6
		c-2.4-0.8-4.1-2.1-5.1-4.1c-0.6-1.9-1.1-4.2-1.6-7c-0.6-3.2-1-5.5-1.3-7.1c-0.7-0.2-1.1-0.4-1.3-0.5c-0.5-0.3-0.8-0.6-0.8-1.1
		c-0.3-1.6-0.2-3.8,0-6.5c0.3-3.1,0.5-5.3,0.4-6.6c-0.3-4.1-0.5-7.2-0.6-9.2c-0.2-3.7-0.4-6.8-0.4-9.3c0-7.1,0.9-13.1,2.7-18.2
		c1.3-4.9,1.9-11.1,2-18.6c0-3.9,0-7.4,0-10.4c-2,0.5-3.9-1.4-5.9-5.9c-2.1-4.8-2.3-9-0.7-12.6c-1.3-2.1-2.4-4.5-3.1-7.2
		c-1.9-6.5-2.9-12.4-3.1-17.8l-0.1-0.1c0.1-0.8,0-1.7-0.1-2.9c-0.2-3.4-0.3-5.8-0.5-7.3v-0.1c0-2.6,0.1-5.3,0.2-8.1
		c0.1-1.6,0.2-4,0.5-7.3c0-0.1,0-0.3,0-0.4l0.1,0c0.5-4.7,2.3-7.7,5.4-8.9c0.7-0.4,1.4-0.8,2-1.2c0.4,0,0.7,0,1.1,0.1
		c2.9,0.5,5,3.6,6.3,9.3c1.4,6.2,3.2,12,5.6,17.3c2.4,5.4,3.6,9.8,3.8,13.4c0.2,3.6-0.7,7.5-2.5,11.7c-0.2,0.3-0.3,0.6-0.4,0.9
		c-0.5,1.3-1,2.4-1.4,3.6c-0.2,0.5-0.3,1.1-0.5,1.6c-2.2-2-3.6-4-4.4-6l0-0.1c-0.1-0.3-0.2-0.5-0.4-0.9c-0.2-0.5-0.3-1-0.4-1.6
		c0.3-0.6,0.6-1.2,0.8-1.8c1-2.7,1-5.5,0-8.4c-0.8-2.5-1.4-4.3-1.7-5.5c0.2-0.9,0.5-2.1,0.8-3.6v-0.1c0.6-2.2,1.2-6,1.7-11.3
		c-0.6-5.9-1.8-10.1-3.6-12.8c-1.8-2.7-3-4.3-3.8-4.8c-0.7-0.5-1.2-0.7-1.6-0.4c-0.4,2.3-0.6,3.8-0.5,4.5v0.1
		c0.2,1.8,0.3,7.7,0.2,17.5c0,2,0,4.2-0.1,6.6c-0.1,11,0.5,19,2,23.9c0.3,0.8,0.7,1.7,1.3,2.7c0.8,1.4,2,3,3.4,4.8
		c0.5,0.7,1.1,1.4,1.8,2.2c0.5,0.6,1,1.1,1.4,1.6c0.1,0.2,0.3,0.3,0.4,0.5c-0.3,0.7-0.7,1.3-1,1.9c-0.2,0.3-0.5,0.9-0.8,1.8
		c-0.2,0.6-0.5,1.3-0.8,2.2c-0.4-0.4-0.9-0.8-1.4-1.3c-0.9,2.3-1.3,4.4-1.3,6.4c0,1,0.4,2.1,1.2,3.2c0.1,0.1,0.2,0.2,0.2,0.3
		c-0.1-0.2,0.1-1.7,0.5-4.7c0.2-1.6,0.8-3.7,1.9-6.1c0.2-0.1,0.5-0.3,1-0.7l0.2,0.7c0.1,0.4,0.2,0.9,0.3,1.4c0.2,1,0.4,1.9,0.6,2.6
		l-1.9,0.6v4.4l14.4-6.8v-1.9c0.2,0.1,0.4,0.2,0.7,0.3c0.5,0.3,1,0.5,1.4,0.7c0,2.1-0.1,3.9-0.3,5.6c-0.3,2.6-0.7,4.8-1.3,6.5
		c-1.3,3.5-4,11.2-8,23c-4.1,11.8-6.1,26.5-6.1,44c0,2.8,0.2,5.6,0.5,8.2c0.2,1.4,0.4,2.5,0.5,3.2c-0.1,0-0.2,0-0.3,0v0.1
		c0.3,0.9,1,2.8,2.3,5.6c1.9,4.5,3,7.1,3.3,8C32.3,282.3,32.6,283.9,33.2,286.7z M40.7,174.4c-0.8-0.5-1.6-1-2.5-1.4
		c-1.4-0.7-3.3-1.5-5.6-2.3c-0.1-0.1-0.1-0.1-0.2-0.1l-0.4-0.2c-0.1-0.1-0.1-0.1-0.1-0.1c0,0-0.1,0-0.2,0c0-0.1,0-0.1,0,0
		c0-0.2,0-0.3,0-0.5C35.9,170.5,38.9,172,40.7,174.4z M44.1,155.4c0.4,0,0.8,0.2,1.1,0.5c0.3,0.3,0.5,0.7,0.5,1.2c0,0.1,0,0.2,0,0.2
		c0,0.4-0.2,0.7-0.5,1c-0.4,0.3-0.8,0.5-1.3,0.5c-0.5,0-0.9-0.2-1.2-0.5c-0.3-0.3-0.5-0.6-0.5-1c0-0.1,0-0.2,0-0.2
		c0-0.5,0.2-0.9,0.5-1.2c0.3-0.3,0.6-0.5,1-0.5H44.1z M44.1,166.7c0-0.5,0.2-1,0.5-1.3c0.3-0.4,0.7-0.5,1.2-0.5
		c0.5,0,0.9,0.2,1.3,0.5c0.2,0.2,0.4,0.5,0.5,0.8c0,0.1,0,0.3,0,0.5c0,0.5-0.2,0.9-0.5,1.3c-0.4,0.3-0.8,0.5-1.3,0.5
		c-0.5,0-0.9-0.2-1.2-0.5c-0.3-0.3-0.5-0.7-0.5-1.1C44.1,166.8,44.1,166.7,44.1,166.7z M19.8,170.6c0-0.1,0.2,0.4,0.5,1.4
		c0.5,1,1.1,1.5,1.7,1.5c0.1,0,0.2,0,0.3,0c0.5-0.2,0.8-0.7,0.8-1.5c0-0.8-0.5-1.5-1.6-2C20.4,169.3,19.8,169.5,19.8,170.6z
		 M36.2,177.4c-0.1-0.2-0.1-0.5-0.2-0.7c-0.1-0.1-0.1-0.2-0.1-0.3c0.6-0.4,1.2-0.6,1.9-0.5l0.1,0.1c0.1,0,0.1,0,0.2,0l0,0
		c0.2,0.1,0.3,0.2,0.4,0.2c0.2,0.1,0.4,0.2,0.7,0.4l-3.1,0.9C36.2,177.6,36.2,177.5,36.2,177.4z"/>
	<path class="st25" d="M90.4,103.7c0-0.1,0-0.3,0.1-0.4c0.1-0.3,0.3-0.6,0.7-0.8c0.3-0.2,0.7-0.3,1.1-0.4c0.4-0.1,0.8,0,1.2,0.2
		c0,0.1,0.1,0.1,0.2,0.2c0.1,0,0.1,0.2,0.1,0.6c0,0.8-0.4,1.4-1.1,1.7c-0.3,0.2-0.7,0.4-1.1,0.4C90.8,105.2,90.4,104.7,90.4,103.7z"
		/>
	<path class="st26" d="M59.6,124.5c0-1.1,0-2.1,0-3.2c0,0.6,0,1.3,0,1.9C59.7,123.7,59.6,124.1,59.6,124.5z M24.1,102.8
		c0,0.1,0.1,0.1,0.1,0.1l-0.4,0.2C23.9,103,24,102.9,24.1,102.8z M45.4,115c0.1,0.1,0.2,0.2,0.4,0.2c0.6,2,1.6,4.9,3,8.8
		c1.1,3.4,1.7,6.4,1.8,9.1c0.3,2.1,0.3,5.5,0.2,10.2c-0.2,4.4,0,7.8,0.4,10.1c0.2,0.4,0.4,0.7,0.8,1.1c0.3,0.2,0.7,0.4,1.2,0.7
		c0.4-0.5,0.8-1,1.2-1.5c0,1.8,0.1,3.6,0.1,5.4c-1.4,1-2.9,1.8-4.4,2.4c-0.2-1.1-0.3-2.3-0.4-3.6c-0.2-2.9-0.4-5.8-0.5-8.7
		c-0.2-2.9-0.5-5.8-0.7-8.8c-0.3-2.9-0.7-5.9-1.2-8.8c-0.5-2.9-1.4-5.8-2.7-8.6c-0.7-1.6-1.4-3.1-2.1-4.6c-0.3-0.7-0.7-1.4-1.2-2
		c-0.4-0.4-0.7-0.9-0.9-1.3l-9-7.7c0.1,0,0.2,0.1,0.3,0.2c2.8,1.8,5.5,3.8,8,6c0.6,0.5,1.2,0.9,2,1.1c0.2,0.1,0.5,0.1,0.8,0.1
		c0.3-0.1,0.5-0.1,0.8-0.1c0.1-0.1,0.2-0.1,0.2-0.1c0,0,0.1,0,0.2,0c0-0.3,0-0.5,0-0.8c0-0.1,0-0.2,0-0.4V113
		c0.1-0.8,0.1-1.7,0.2-2.6V110c0-0.3,0-0.5,0.1-0.7c0-0.1,0-0.1,0.1-0.2c-0.1,0.2-0.1,0.5-0.1,0.8c0,0.2,0,0.4,0,0.5
		C43.7,112.6,44.2,114.2,45.4,115z M27.1,171.9c1.1-0.5,1.9-0.5,2.4,0c0.1,0.1,0.2,0.2,0.2,0.4c-0.3,0.3-0.6,0.6-0.9,0.9
		c-1.2,1.2-2.1,2.1-2.7,2.6c-0.4,0.4-0.8,0.6-1,0.7c0,0-0.1,0-0.1,0c-0.1,0-0.1,0-0.1,0l-0.1,0c0.3-0.9,0.6-1.5,0.8-1.8
		c0.3-0.6,0.7-1.3,1-1.9C26.7,172.5,26.9,172.2,27.1,171.9z M52,120.9c-0.6-1.4-1.2-2.7-2-3.9c-0.9-0.8-1.6-1.8-2-3.2h0
		c-0.1-0.3-0.2-0.6-0.2-0.9c0,0,0-0.1,0-0.1c-0.1-1.7-0.3-3-0.4-4c0,0,0,0,0.1,0.1c0.4,0.7,0.8,1.4,1.2,2.1c0.2,0.4,0.3,0.8,0.4,1.1
		c0.2-0.2,0.3-0.3,0.4-0.5c0.3-0.6,0.4-1.2,0.5-1.8v0.1c0.3,1.1,0.6,2.3,0.8,3.5c0.2,1.1,0.4,2.5,0.7,4.1
		C51.6,118.5,51.8,119.7,52,120.9z M45.5,107.2c0,0,0.1,0,0.2,0c0.1,0,0.2,0.1,0.3,0.1C45.8,107.2,45.7,107.2,45.5,107.2z"/>
	<path class="st27" d="M31.9,85.5c-0.1,0-0.1,0-0.2,0c-0.4-0.1-0.7-0.2-1.1-0.2c-0.4-0.1-0.9-0.3-1.2-0.4c-0.6-0.3-1.2-0.6-1.8-0.9
		c-0.6-0.3-1.2-0.7-1.8-1.2c-0.5-0.4-1-0.9-1.6-1.5c-0.4-0.4-0.7-0.8-1.1-1.2c-0.4-0.4-0.8-0.9-1.1-1.4c0.3-1.1,0.7-2.2,1.3-3.2
		c-0.1,0.4,0.2,0.9,1,1.4c1,0.8,2.9,1.6,5.7,2.6c1.5,0.5,2.7,0.9,3.7,1c0.1,0,0.1,0,0.2,0c-0.1,0.8-0.4,1.8-0.9,2.9
		C32.8,83.9,32.4,84.6,31.9,85.5z M50.5,165.1c0.1,0,0.2-0.1,0.2-0.1c0.1-0.1,0.2-0.1,0.3-0.2c1.2-0.6,2.4-1.3,3.6-2.1
		c0,0.4,0,0.7,0,1.1c0.1,1.3,0.1,2.5,0.2,3.8c-0.8,0.5-1.5,0.9-2.4,1.3c-0.1,0-0.2,0.1-0.3,0.2c-0.4,0.2-0.7,0.3-1.1,0.5v-0.9
		c-0.1-0.9-0.2-2-0.4-3.2C50.5,165.4,50.5,165.3,50.5,165.1z"/>
	<path class="st28" d="M24.2,102.9c-0.1,0-0.1-0.1-0.1-0.1l0.3-0.7c0.6-1.7,1.6-3.3,2.9-4.8c0.3-0.3,0.5-0.5,0.8-0.7
		c0,0.3,0.1,0.6,0.1,0.9c0.1,1.1,0.9,2.1,2.3,2.8c0.7,0.4,2.5,0.9,5.4,1.7c1.3,0.4,2.7,1,4.2,2c0,2.9,0,4.7,0.1,5.3
		c0.2,2.1,0.6,3.9,1.3,5.2c-0.8-0.2-1.4-0.5-2-1.1c-2.5-2.2-5.2-4.2-8-6c-0.1-0.1-0.2-0.1-0.3-0.2l0,0c-2.1-1.3-4.1-2.6-6.2-3.9
		C24.7,103.1,24.4,103,24.2,102.9z M44.4,107.9c0-0.1,0-0.2,0-0.2c0-0.4,0-0.8,0-1.1c0-0.9-0.1-1.8-0.3-2.7
		c-0.1-0.2-0.1-0.4-0.1-0.7c0-0.4-0.1-1-0.2-1.6c-0.1-0.4-0.1-0.9-0.1-1.4c1.1-0.4,1.7-1,1.9-1.5c0.2-0.4,0.3-0.9,0.4-1.3
		c0.7,1.1,1.3,2.3,1.8,3.5c1.2,2.7,1.9,5.4,2.1,8.3c0.1,0.2,0.1,0.5,0.1,0.7c-0.1,0.6-0.2,1.2-0.5,1.8c-0.1,0.2-0.2,0.4-0.4,0.5
		c-0.1-0.4-0.3-0.7-0.4-1.1c-0.4-0.7-0.8-1.4-1.2-2.1c0,0-0.1,0-0.1-0.1c0,0,0,0,0-0.1c-0.2-0.3-0.5-0.6-0.7-0.9
		c-0.2-0.2-0.3-0.3-0.5-0.5c-0.1,0-0.2-0.1-0.2-0.1c-0.1-0.1-0.2-0.1-0.3-0.1c-0.1,0-0.1,0-0.2,0h-0.1
		C45,107.3,44.6,107.6,44.4,107.9z M43.1,114.4c0.2-0.4,0.3-0.8,0.4-1.3c0,0.1,0,0.2,0,0.4c0,0.3,0,0.6,0,0.8c-0.1,0-0.1,0-0.2,0
		C43.3,114.3,43.2,114.4,43.1,114.4z"/>
	<path class="st29" d="M54.5,160.8c0-0.6,0-1.3,0-1.9c-0.1-1.8-0.1-3.6-0.1-5.4c1.1-1.8,1.4-3.5,1.1-5c-0.4-2.1-0.7-4.8-0.8-8
		c-0.2-3.6-0.3-6.3-0.4-8.1c-0.2-3.1-0.6-5.8-1.1-8c-0.3-1.2-0.6-2.4-1-3.5c-0.2-1.2-0.4-2.4-0.5-3.6c-0.2-1.6-0.5-3-0.7-4.1
		c-0.3-1.2-0.5-2.3-0.8-3.5v-0.1c0-0.2,0-0.4-0.1-0.7c-0.2-2.8-0.9-5.6-2.1-8.3c-0.5-1.2-1.1-2.4-1.8-3.5c0-0.3,0.1-0.6,0.1-0.9
		c0.1-0.6,0.1-1.2,0.2-1.8c0.5,0.3,0.9,0.7,1.2,1c0.7,0.7,1.7,1.7,3,3c1.3,1.3,3,4.1,5.3,8.4h-4.3c2.9,3.5,4.6,5.4,5,5.7l0,0
		c0,0.5,0,1.8,0,3.8c0,1.9,0.1,4.7,0.3,8.3c0.2,3.7,0.2,7.1,0,10.4c-0.2,3.3-0.4,6.3-0.6,9.1c-0.3,2.8-0.5,5.5-0.6,8.2
		c-0.2,2-0.4,4-0.8,6.1C54.8,159.3,54.6,160.1,54.5,160.8z M50,161.4c0.1,1.3,0.3,2.6,0.5,3.8c0,0.1,0,0.2,0.1,0.4
		c0.2,1.2,0.4,2.2,0.4,3.2v0.9l0,1.1c-0.4,0-0.7-0.2-0.9-0.6c-0.1,0-0.1-0.1-0.1-0.1c-0.2-0.4-0.3-0.7-0.4-1
		c-0.1-0.3-0.2-0.5-0.2-0.6c-0.2-0.7-0.3-1.6-0.5-2.6c-0.2-1.1-0.4-2.4-0.6-3.8c-0.1-0.4-0.1-0.8-0.2-1.3c-0.4-3.3-0.9-6.2-1.3-8.6
		c-0.4-2.4-0.8-4.6-1.1-6.5c-0.3-2-0.9-4.1-1.6-6.4c-0.7-2.3-1.5-5-2.4-8c-0.9-3.1-2.2-5.5-4-7.3c-1.8-1.8-3.7-3.4-5.9-4.9l3.4-5.2
		l-6.1,2.8c-3.1-4.9-4.5-9.3-4.2-13.4c2.1,1.3,4.2,2.6,6.2,3.9l0,0l9,7.7c0.3,0.4,0.6,0.9,0.9,1.3c0.5,0.7,0.9,1.3,1.2,2
		c0.7,1.5,1.4,3,2.1,4.6c1.3,2.9,2.1,5.7,2.7,8.6c0.5,2.9,1,5.8,1.2,8.8c0.3,2.9,0.5,5.8,0.7,8.8c0.2,2.9,0.4,5.8,0.5,8.7
		C49.7,159,49.8,160.2,50,161.4z M19.8,170.6c0-1.1,0.6-1.3,1.7-0.7c1.1,0.6,1.6,1.2,1.6,2c0,0.8-0.3,1.3-0.8,1.5
		c-0.1,0-0.2,0-0.3,0c-0.7,0-1.2-0.5-1.7-1.5C20,171,19.8,170.6,19.8,170.6z M36.2,177.7l3.1-0.9l0.2-0.1v0.2v1.9l-14.4,6.8v-4.4
		l1.9-0.6L36.2,177.7z"/>
	<path class="st30" d="M52,120.9c0.4,1.1,0.7,2.3,1,3.5c0.5,2.2,0.9,4.9,1.1,8c0.1,1.8,0.2,4.5,0.4,8.1c0.1,3.2,0.4,5.9,0.8,8
		c0.4,1.6,0,3.3-1.1,5c-0.3,0.5-0.7,1-1.2,1.5c-0.5-0.3-1-0.5-1.2-0.7c-0.4-0.3-0.7-0.7-0.8-1.1c-0.4-2.3-0.5-5.7-0.4-10.1
		c0.2-4.7,0.1-8.1-0.2-10.2c-0.1-2.6-0.7-5.7-1.8-9.1c-1.4-3.9-2.4-6.8-3-8.8c-0.2-0.1-0.3-0.2-0.4-0.2c1-0.2,1.9-0.6,2.7-1.2
		c0.4,1.4,1,2.5,2,3.2C50.8,118.2,51.4,119.5,52,120.9z"/>
	<path class="st31" d="M45.5,107.2c0.2,0,0.3,0,0.4,0.1c0.1,0,0.2,0.1,0.2,0.1c0.2,0.1,0.4,0.3,0.5,0.5c0.3,0.3,0.5,0.5,0.7,0.9
		c0,0,0,0,0,0.1c0.2,1,0.3,2.4,0.4,4c0,0.1,0,0.1,0,0.1c0,0.3,0.1,0.6,0.2,0.9h0c-0.8,0.6-1.7,1-2.7,1.2c-1.2-0.8-1.7-2.3-1.6-4.5
		c0-0.2,0-0.4,0-0.5c0-0.3,0.1-0.6,0.1-0.8c0-0.1,0.1-0.2,0.1-0.4c0.1-0.3,0.2-0.5,0.4-0.8C44.6,107.6,45,107.3,45.5,107.2
		L45.5,107.2z"/>
	<path class="st32" d="M73.9,252.8c-0.2-0.3-0.3-0.5-0.4-0.5c-0.9-0.8-3.7-1.9-8.3-3.5c-4.4-1.5-7.6-2.8-9.6-3.8
		c0.4-0.3,0.9-0.6,1.3-1c0.4-0.4,0.7-0.8,1.1-1.2c1,0.6,2.2,1.2,3.8,1.7c1.7,0.6,3.1,1,3.9,1.4c3.2,1.1,5.6,2.5,7.1,4v0
		c0.1,0.1,0.1,0.1,0.1,0.1C73.6,250.6,73.9,251.5,73.9,252.8z M37.4,283c0,0.8-0.1,1.5-0.5,2.1c-0.4,0.7-0.9,1.1-1.6,1.2
		c0,0-0.1,0-0.2,0c-0.3,0.1-0.5,0.1-0.8,0.2c-0.2,0-0.3,0.1-0.4,0.1c-0.2,0-0.5,0-0.7,0c-0.6-2.8-1-4.4-1.1-4.7
		c-0.3-0.9-1.4-3.5-3.3-8c-1.2-2.8-2-4.7-2.3-5.6v-0.1c0.1,0,0.2,0,0.3,0c0.8-0.1,1.5-0.4,2.1-0.7c0.6-0.3,1.1-0.8,1.5-1.3
		c0.5,1.1,1.1,2.5,2,4.1c0.5,0.9,1.2,2.2,2.1,4C36.3,277.8,37.2,280.6,37.4,283z"/>
	<path class="st33" d="M40.5,248.1c1.1,1.5,2.9,2.4,5.4,2.8c0.7,0.1,1.8,0.2,3.2,0.2c1.4,0.1,2.4,0.2,3.1,0.2
		c1.5,0.1,3.3,0.4,5.4,1.1c2.4,0.8,4.2,1.4,5.4,1.8c2.1,0.6,3.9,1,5.4,1c2,0.1,3.8-0.4,5.4-1.2c0.1,1.3-0.5,2-1.8,2.4
		c-0.4,0.2-1.5,0.2-3.4,0.2c-1.3,0.1-2.8,0-4.3-0.4c-1-0.3-2.4-0.7-4.1-1.3c-1.9-0.7-3.3-1.2-4.1-1.4c-1.6-0.4-3-0.7-4.3-0.7
		c-0.2,0.2-0.3,0.5-0.5,0.9c-0.1,0.2-0.1,0.5-0.3,1c-1.1-0.2-2.8-0.3-5.1-0.5c-2-0.3-3.6-0.8-4.8-1.6c-0.7-0.4-1-1.1-1-2
		C40,250.2,40.2,249.4,40.5,248.1z M33.9,286.7c0.4-0.1,0.9-0.2,1.4-0.3c0.7-0.1,1.3-0.5,1.6-1.2c0.3-0.6,0.5-1.3,0.5-2.1
		c0.2,1.2,0.2,2.1,0.2,2.7c-0.2,1-0.7,1.7-1.6,1.8c-2.6,0.8-5.1,0.7-7.6-0.2c-2.8-1-4.5-2.8-4.9-5.4c1,2,2.7,3.4,5.1,4.1
		c0.8,0.3,1.6,0.5,2.3,0.6c0.8,0.1,1.5,0.1,2.4,0C33.5,286.7,33.7,286.7,33.9,286.7z"/>
	<path class="st34" d="M98.4,100c0-0.2,0.1-0.3,0.2-0.5c0.2-0.7,0.4-1.5,0.6-2.2c1-3.1,2.6-6.1,4.9-8.9c2.4-3,5.5-5.8,9.2-8.3
		c0.7,1.5,0.2,3-1.3,4.6c-0.4,0.4-1.1,1.1-2,2c-0.8,0.8-1.3,1.5-1.5,2.1c2.1,1.6,3.6,2.9,4.5,4c1.4,1.8,1.9,3.6,1.7,5.4
		c-2.1,1.4-3.5,2.3-4.2,2.8c-0.3-0.3-0.7-0.6-1.3-0.9c-1.4-0.9-2.1-1.4-2.2-1.4c0.3-0.8-0.1-1.4-1.2-1.6c-1.3-0.3-1.9-0.8-1.9-1.4
		c0-0.4,0.3-1.3,1-2.6c0.8-1.4,1.2-2.1,1.3-2.2c-0.5-0.3-0.9,0-1.3,0.7c-0.3,0.4-0.5,0.7-0.9,0.9c-0.9,1.1-1.4,2-1.6,2.5
		c-0.1,0.3-0.2,0.8-0.2,1.5c0,0.8,0.1,1.5,0.3,2.3c0.2,0.6,0.4,1.2,0.7,1.7c0.4,0.6,0.8,1.1,1.2,1.6c0.3,0.3,0.5,0.5,0.8,0.7
		c-0.2,0-0.4,0-0.7-0.1c-0.8-0.1-1.5-0.1-2.1-0.2c-0.9-0.1-1.9-0.7-3-1.8c-0.3-0.3-0.5-0.6-0.8-0.8C98.6,99.7,98.5,99.8,98.4,100z
		 M46.5,93.3c0,0.2-0.1,0.4-0.1,0.5c-0.1,0.2-0.1,0.5-0.1,0.7c-0.1,0.6-0.2,1.2-0.2,1.8c0,0.3-0.1,0.6-0.1,0.9
		c-0.1,0.5-0.2,0.9-0.4,1.3c-0.2,0.6-0.8,1.1-1.9,1.5c-0.1,0-0.2,0-0.3,0.1c-3.3-0.2-6.1-0.8-8.5-1.8c-2-0.9-3.4-2-4.3-3.4
		c-0.5-0.8-0.9-1.6-1-2.5l1.3-0.4c-0.1-0.4-0.2-0.9-0.3-1.4c-0.1-0.4-0.1-0.9,0-1.3c0-0.2,0.1-0.4,0.1-0.5c0.3-0.6,0.7-1.1,1.1-1.7
		c1.5-2.2,2.6-3.3,3.4-3.5c0.2-0.1,1.7-0.2,4.6-0.4c2.6-0.2,4.2-0.5,4.8-1.1c0.5-0.4,1-0.7,1.4-1C46.9,84.7,47.1,88.8,46.5,93.3z
		 M37.9,176c-0.7-0.1-1.3,0.1-1.9,0.5c0,0.1,0,0.1,0.1,0.3c0,0.2,0.1,0.4,0.2,0.7c-3,0.1-4.8,0.1-5.4,0c-0.7-0.1-1-0.4-1-1.2
		c0-0.6,0.5-1.8,1.5-3.5c0.6-1.1,1-1.8,1.3-2.1c2.3,0.9,4.2,1.6,5.6,2.3c0.9,0.5,1.7,1,2.5,1.4c1.2,0.8,2.3,1.6,3.2,2.5h0
		c-0.3,0-0.5,0-0.8,0c-0.3,0-0.7,0-1-0.1c-0.2-0.1-0.4-0.1-0.5-0.1c-0.4-0.1-0.7-0.2-1.1-0.4c-1.2-0.7-1.9-1.1-2.3-1.3
		c-0.5-0.2-0.8,0-0.9,0.6C37.5,175.8,37.7,175.9,37.9,176z"/>
	<path class="st35" d="M110.4,101c-0.2,0.1-0.3,0.2-0.4,0.2c-1,0.6-2,1.2-2.9,1.6c-0.1,0.1-0.2,0.1-0.4,0.2c-0.1,0-0.2,0-0.4,0
		l-0.9-0.4c-0.1-0.1-0.2-0.1-0.4-0.2c-0.3-0.2-0.6-0.4-0.8-0.7c-0.4-0.4-0.8-1-1.2-1.6c-0.3-0.5-0.5-1.1-0.7-1.7
		c-0.2-0.7-0.3-1.5-0.3-2.3c0-0.7,0.1-1.1,0.2-1.5c0.2-0.5,0.7-1.4,1.6-2.5c0.3-0.2,0.6-0.5,0.9-0.9c0.4-0.7,0.8-0.9,1.3-0.7
		c-0.1,0.1-0.5,0.8-1.3,2.2c-0.7,1.3-1,2.2-1,2.6c0,0.7,0.6,1.1,1.9,1.4c1.1,0.3,1.5,0.8,1.2,1.6c0.1,0.1,0.8,0.6,2.2,1.4
		C109.7,100.4,110.2,100.8,110.4,101z M30.9,88.8c0.1-0.3,0.2-0.7,0.3-1c0.2-0.7,0.5-1.5,0.8-2.3c0.5-0.9,0.9-1.6,1.1-2.1
		c0.5-1.1,0.8-2,0.9-2.9h1.2c0.1,0,0.2,0,0.4,0h0.9c0.2,0,0.4,0,0.6,0c1.2,0,2.3,0,3.1-0.1c2.1-0.3,3.8-1.1,4.9-2.5
		c0.2,0.4,0.3,0.8,0.4,1.1c0.2,0.7,0.4,1.3,0.6,2c0,0,0,0,0,0c-0.4,0.3-0.9,0.7-1.4,1c-0.6,0.5-2.2,0.9-4.8,1.1
		c-2.9,0.2-4.4,0.3-4.6,0.4c-0.8,0.2-1.9,1.4-3.4,3.5C31.5,87.6,31.2,88.2,30.9,88.8z M41.6,177.9c-0.4-0.2-0.8-0.4-1.4-0.7
		c-0.3-0.1-0.5-0.2-0.7-0.3v-0.2l-0.2,0.1c-0.3-0.2-0.6-0.3-0.7-0.4c-0.1-0.1-0.3-0.2-0.4-0.2l0,0c-0.1,0-0.1,0-0.2,0l-0.1-0.1
		c-0.2-0.1-0.4-0.3-0.5-0.4c0.1-0.6,0.4-0.8,0.9-0.6c0.3,0.2,1.1,0.6,2.3,1.3c0.3,0.2,0.7,0.3,1.1,0.4c0.1,0,0.3,0.1,0.5,0.1
		c0.3,0.1,0.6,0.1,1,0.1c0.3,0,0.5,0,0.8,0h0c-0.3,0.5-0.6,0.8-1,1c-0.3,0.1-0.5,0.2-0.7,0.2C42,178,41.8,177.9,41.6,177.9z
		 M29.7,172.3c1.1-1.2,1.8-1.8,2.1-2c0.1,0,0.1,0,0.2,0c0,0,0.1,0,0.1,0.1l0.4,0.2c0,0,0.1,0,0.2,0.1c-0.3,0.4-0.7,1.1-1.3,2.1
		c-1,1.7-1.5,2.9-1.5,3.5c0,0.7,0.3,1.1,1,1.2c0.6,0.1,2.4,0.1,5.4,0c0,0.1,0,0.2,0,0.3l-9.2,2.8c-0.2-0.7-0.4-1.6-0.6-2.6
		c-0.1-0.5-0.2-0.9-0.3-1.4l-0.2-0.7c0.6-0.5,1.5-1.4,2.7-2.6C29.1,172.9,29.4,172.6,29.7,172.3z"/>
	<path class="st36" d="M106.8,103.1c-0.6,0.3-1.1,0.6-1.6,0.7c-0.1,0-0.3,0-0.4,0c-1.6,0.1-3-0.2-4.4-0.7c-0.4-0.2-0.7-0.3-0.9-0.5
		c0,0-0.1-0.1-0.1-0.1c0,0,0,0,0,0c-0.3-0.3-0.5-0.5-0.7-0.8l-0.2-1.6l0.1-0.1c0.1-0.2,0.1-0.3,0.2-0.4c0.2,0.2,0.5,0.5,0.8,0.8
		c1.1,1.1,2.1,1.7,3,1.8c0.7,0.1,1.4,0.1,2.1,0.2c0.2,0.1,0.5,0.1,0.7,0.1c0.1,0,0.2,0.1,0.4,0.2l0.9,0.4
		C106.6,103,106.7,103,106.8,103.1z M44.1,103.8c0,1,0,1.8-0.1,2.6l-3.9-2.5c-1.5-1-2.9-1.6-4.2-2c-2.9-0.8-4.7-1.4-5.4-1.7
		c-1.4-0.7-2.1-1.7-2.3-2.8c-0.1-0.3-0.1-0.6-0.1-0.9C28,95.8,28,95,27.9,94.3c0-0.1,0-0.1,0-0.1l-0.1-0.1c-0.2-0.4-0.4-0.7-0.6-1.1
		c-0.2-0.3-0.4-0.6-0.5-0.8c-0.4-0.5-0.8-1-1.3-1.4c-0.7-0.8-0.9-1.7-0.7-2.8c0.1-0.4,0.2-0.7,0.3-1c0.5-0.4,1-0.5,1.4-0.2
		c0.4,0.2,0.7,0.5,1,0.7c0.4,0.5,0.8,1,1,1.6c0.2,0.6,0.4,1.1,0.6,1.7c0.2,0.5,0.4,1,0.6,1.4h0.1c0.2,0.9,0.5,1.8,1,2.5
		c0.9,1.4,2.3,2.6,4.3,3.4c2.4,1.1,5.2,1.7,8.5,1.8c0.1-0.1,0.2-0.1,0.3-0.1c0,0.5,0.1,1,0.1,1.4c0.1,0.7,0.1,1.2,0.2,1.6
		C44.1,103.4,44.1,103.6,44.1,103.8z"/>
	<path class="st37" d="M31.8,170.3c-0.3,0.2-1,0.9-2.1,2c-0.1-0.2-0.2-0.3-0.2-0.4c-0.5-0.5-1.3-0.5-2.4,0c0.4-0.9,0.9-1.7,1.3-2.5
		c0.4-0.9,1.1-1.6,2-2c0.9,0.4,1.3,1.2,1.4,2.5C31.8,169.9,31.8,170.1,31.8,170.3C31.8,170.2,31.8,170.2,31.8,170.3z"/>
	<path class="st9" d="M43.6,113.1c-0.1,0.5-0.3,0.9-0.4,1.3c-0.3,0-0.6,0.1-0.8,0.1c-0.3,0-0.6,0-0.8-0.1c-0.7-1.3-1.1-3.1-1.3-5.2
		c-0.1-0.6-0.1-2.4-0.1-5.3l3.9,2.5c0.1-0.8,0.1-1.7,0.1-2.6c0.2,0.9,0.3,1.8,0.3,2.7c0,0.4,0,0.7,0,1.1c0,0.1,0,0.2,0,0.2
		c-0.2,0.2-0.3,0.5-0.4,0.8c-0.1,0.2-0.1,0.3-0.1,0.4c-0.1,0.1-0.1,0.1-0.1,0.2c-0.1,0.2-0.1,0.5-0.1,0.7v0.4
		c-0.1,0.9-0.1,1.7-0.2,2.6V113.1z"/>
	<path class="st38" d="M27.9,94.1c0,0.1,0,0.1,0.1,0.2c-0.1-0.1-0.2-0.1-0.5-0.2c-0.3-0.1-0.7-0.5-1.2-1.1c-0.4-0.6-0.8-1.2-1.2-1.7
		c-0.4-0.5-0.7-0.9-1-1.2c-0.4-0.5-0.8-1.1-1.1-1.7c-0.3-0.5-0.5-1-0.6-1.4c-0.2-0.7-0.4-1.4-0.5-2c-0.1-0.4-0.1-0.8-0.2-1.2
		c-0.1-0.7-0.1-1.3,0-1.9c0-0.5,0-1,0.1-1.4c0.1-0.6,0.1-1.2,0.3-1.8c0.3,0.5,0.7,1,1.1,1.4c0.4,0.4,0.7,0.8,1.1,1.2
		c0.5,0.5,1,1,1.6,1.5c0.6,0.5,1.2,0.9,1.8,1.2c0.6,0.3,1.2,0.6,1.8,0.9c0.4,0.1,0.8,0.3,1.2,0.4c0.3,0.1,0.7,0.2,1.1,0.2
		c0.1,0,0.1,0,0.2,0c-0.3,0.8-0.6,1.6-0.8,2.3c-0.1,0.3-0.2,0.7-0.3,1c-0.1,0.2-0.1,0.4-0.1,0.5c-0.1,0.4,0,0.9,0,1.3
		c0.1,0.5,0.2,0.9,0.3,1.4l-1.3,0.4h-0.1c-0.2-0.5-0.4-1-0.6-1.4c-0.2-0.6-0.4-1.1-0.6-1.7c-0.3-0.6-0.6-1.2-1-1.6
		c-0.3-0.3-0.6-0.5-1-0.7c-0.5-0.3-1-0.2-1.4,0.2c-0.2,0.3-0.3,0.6-0.3,1c-0.2,1.1,0.1,2,0.7,2.8c0.4,0.5,0.9,1,1.3,1.4
		c0.2,0.3,0.4,0.5,0.5,0.8C27.4,93.4,27.6,93.8,27.9,94.1z M24.5,73.9c0.3,0.4,0.7,0.8,1.1,1.2c1.5,1.4,3.5,2.1,6.1,2.1
		c4.5,0,8.3-0.6,11.3-1.9c0.9-0.4,1.7-0.8,2.4-1.2c0.2,0.4,0.3,0.8,0.3,1.4c0.1,0.7-0.1,1.5-0.5,2.2c0,0.1-0.1,0.1-0.1,0.2
		c-1.1,1.4-2.8,2.2-4.9,2.5c-0.8,0.1-1.9,0.1-3.1,0.1c-0.2,0-0.4,0-0.6,0h-0.9c-0.1,0-0.2,0-0.4,0H34c-0.1,0-0.1,0-0.2,0
		c-0.9-0.2-2.2-0.5-3.7-1c-2.9-1-4.8-1.8-5.7-2.6c-0.8-0.5-1.1-1-1-1.4c0.2-0.4,0.4-0.7,0.6-1C24.2,74.2,24.3,74.1,24.5,73.9z"/>
	<path class="st39" d="M42.7,72c-0.3,1.2-1.7,2.1-4.2,2.7c-5.3,0.7-9.1,0.3-11.4-1.3l-0.3-0.8c3.5,0.9,7,1,10.4,0.3
		c1.5-0.4,2.7-1,3.4-2l0.5,0.2L42.7,72z"/>
	
		<linearGradient id="SVGID_1_" gradientUnits="userSpaceOnUse" x1="-848.7592" y1="-40.2726" x2="-848.7145" y2="-42.7285" gradientTransform="matrix(2.5691 0 0 2.569 2215.4231 179.9803)">
		<stop  offset="0" style="stop-color:#723F18"/>
		<stop  offset="1" style="stop-color:#AC6630"/>
	</linearGradient>
	<path class="st40" d="M45.4,74.1c-0.7,0.4-1.5,0.8-2.4,1.2c-3,1.3-6.8,1.9-11.3,1.9c-2.5,0-4.5-0.7-6.1-2.1
		c-0.4-0.4-0.8-0.8-1.1-1.2c2.2-2.8,4.9-4.2,8-4.3c3-0.1,5.1,0,6.3,0.4c1.1,0.4,1.7,0.7,1.9,0.8c-0.7,1-1.9,1.7-3.4,2
		c-3.4,0.7-6.8,0.6-10.4-0.3l0.3,0.8c2.3,1.6,6.1,2.1,11.4,1.3c2.5-0.6,3.9-1.5,4.2-2.7c0.7,0.4,1.4,1,2,1.5
		C45,73.8,45.2,74,45.4,74.1z"/>
	<path class="st41" d="M57.9,106.3c-1.1-3.2-2.4-6.3-4-9.3c-0.6-1-1.1-2.1-1.7-3l-0.5-0.6H51c0.6-0.1,1.3,0,2,0.2
		c1.5,0.4,2.6,1.3,3.3,2.6c0.6,1.3,1.6,2.6,3,4.1c1.4,1.5,3.8,2.9,7.3,4.3c3.5,1.4,7,3.9,10.5,7.5c2-1.4,3.8-2.7,5.6-3.9
		c1.2-0.8,2.4-1.6,3.6-2.4c2.2-1.6,4.5-3.1,6.8-4.7c0.9-0.7,1.6-1.3,2.2-2.1c0.7-0.9,1.5-1.5,2.4-1.8c-0.2,0.3-0.3,0.5-0.4,0.8l0,0
		c-1,1.7-1.4,3.1-1.4,4.1c0,0.1,0.3,0.9,0.8,2.5c0.2,0.2,0.4,0.5,0.6,0.7c-0.4,0.3-0.7,0.5-1.1,0.8c-2.4,1.8-6,4.5-10.7,8.1
		c-3.7,2.7-6.1,4-7.3,4c-3.5,0-9-2.8-16.3-8.5C60.4,108.2,59.1,107.2,57.9,106.3z M90.4,103.7c0,1,0.4,1.4,1.3,1.4
		c0.4,0,0.7-0.2,1.1-0.4c0.7-0.4,1.1-0.9,1.1-1.7c0-0.4,0-0.6-0.1-0.6c-0.1-0.1-0.2-0.1-0.2-0.2c-0.4-0.2-0.8-0.3-1.2-0.2
		c-0.4,0.1-0.8,0.2-1.1,0.4c-0.4,0.3-0.6,0.5-0.7,0.8C90.4,103.5,90.4,103.6,90.4,103.7z"/>
	<path class="st41" d="M63.5,169.8c-1.1,1.1-2.3,2.2-3.5,3.1c-0.6,0.5-1.2,1-1.8,1.5c-0.9,0.7-1.9,1.3-2.9,1.8
		c-0.2,0.1-0.4,0.1-0.6,0c-0.1-0.7-0.2-1.3-0.1-2c0.1-2.2,0.1-4.5,0-6.7c0-1.3-0.1-2.5-0.2-3.8c0-0.3,0-0.7,0-1.1
		c0-0.6-0.1-1.3-0.1-1.9c0.2-0.8,0.4-1.5,0.5-2.3c0.4-2.1,0.6-4.1,0.8-6.1c0.1-2.7,0.3-5.4,0.6-8.2c0.2-2.8,0.4-5.9,0.6-9.1
		c0.2-3.2,0.2-6.7,0-10.4c-0.2-3.6-0.3-6.4-0.3-8.3c0-2,0-3.2,0-3.8l0,0c-0.5-0.3-2.1-2.3-5-5.7h4.3c-2.3-4.3-4-7.1-5.3-8.4
		c-1.3-1.3-2.3-2.3-3-3c-0.3-0.3-0.7-0.7-1.2-1c0-0.2,0-0.4,0.1-0.7c0-0.2,0.1-0.4,0.1-0.5c0.6,0,1.1,0,1.7,0H51h0.7l0.5,0.6
		c0.5,1,1.1,2,1.7,3c1.6,3,3,6.2,4,9.3c0.3,0.8,0.5,1.6,0.7,2.4c0.4,3.5,0.7,7,0.9,10.5c0,0.7,0.1,1.4,0.1,2.1c0,1,0,2.1,0,3.2
		c0,1.1,0,2.1-0.1,3.2c0,2-0.1,4.1-0.2,6.1c-0.2,2.7,0.1,5.2,0.8,7.7c1.1,3.5,2.2,7,3.4,10.5c0.4,1.1,0.7,2.2,0.9,3.3
		c0.8,4.5,0.8,9,0,13.5C64.2,169.2,63.9,169.5,63.5,169.8z"/>
	<path class="st41" d="M24.9,103.3c-0.3,4.1,1.1,8.6,4.2,13.4l6.1-2.8l-3.4,5.2c2.1,1.5,4.1,3.2,5.9,4.9c1.7,1.7,3.1,4.2,4,7.3
		c0.9,3,1.7,5.7,2.4,8c0.7,2.3,1.2,4.4,1.6,6.4c0.3,2,0.7,4.1,1.1,6.5c0.4,2.4,0.9,5.2,1.3,8.6c0.1,0.4,0.1,0.8,0.2,1.3
		c0.2,1.4,0.4,2.7,0.6,3.8c0.2,1,0.3,1.9,0.5,2.6c0,0.1,0.1,0.3,0.2,0.6c0.1,0.3,0.2,0.6,0.4,1c0,0,0,0.1,0.1,0.1
		c0.2,0.4,0.5,0.6,0.9,0.6v7.2l-2.4,1.1l-0.2,0c-2,1.1-3.8,0.7-5.4-1.2c0.3-0.2,0.7-0.5,1-1c-1-0.9-2-1.7-3.2-2.5
		c-1.8-2.4-4.8-4-8.9-4.6c-0.1-1.3-0.6-2.1-1.4-2.5c0.2-0.1,0.3-0.2,0.5-0.2c-0.6-0.5-1.2-1-1.7-1.5c0.1-0.5,0.3-1.1,0.5-1.6
		c0.4-1.1,0.8-2.3,1.4-3.6c0.1-0.3,0.2-0.6,0.4-0.9c1.9-4.2,2.7-8.1,2.5-11.7c-0.2-3.6-1.5-8.1-3.8-13.4c-2.4-5.3-4.3-11.1-5.6-17.3
		c-1.3-5.6-3.3-8.7-6.3-9.3c-0.4-0.1-0.8-0.1-1.1-0.1c1.7-0.9,3-1.8,3.9-2.7c0.1-0.1,0.2-0.1,0.3-0.3l2.5-1.6l0.4-0.2
		C24.4,103,24.7,103.1,24.9,103.3z M44.1,155.4h-0.4c-0.4,0-0.7,0.2-1,0.5c-0.4,0.3-0.5,0.7-0.5,1.2c0,0.1,0,0.2,0,0.2
		c0.1,0.4,0.2,0.7,0.5,1c0.3,0.3,0.7,0.5,1.2,0.5c0.5,0,0.9-0.2,1.3-0.5c0.3-0.3,0.5-0.6,0.5-1c0-0.1,0-0.2,0-0.2
		c0-0.5-0.2-0.9-0.5-1.2C44.8,155.6,44.5,155.4,44.1,155.4z M44.1,166.7c0,0.1,0,0.1,0,0.2c0,0.4,0.2,0.8,0.5,1.1
		c0.3,0.3,0.7,0.5,1.2,0.5c0.5,0,0.9-0.2,1.3-0.5c0.3-0.4,0.5-0.8,0.5-1.3c0-0.2,0-0.4,0-0.5c-0.1-0.3-0.2-0.6-0.5-0.8
		c-0.4-0.4-0.8-0.5-1.3-0.5c-0.5,0-0.9,0.2-1.2,0.5C44.3,165.7,44.1,166.1,44.1,166.7z M25.1,176.5c-1.1,2.4-1.7,4.5-1.9,6.1
		c-0.4,2.9-0.5,4.5-0.5,4.7c-0.1-0.1-0.2-0.2-0.2-0.3c-0.8-1.1-1.2-2.2-1.2-3.2c0-1.9,0.4-4,1.3-6.4c0.5,0.5,0.9,0.9,1.4,1.3
		c0.3-0.9,0.6-1.6,0.8-2.2l0.1,0C24.9,176.5,24.9,176.5,25.1,176.5C25,176.5,25.1,176.5,25.1,176.5z"/>
	<path class="st41" d="M23,141.4c-0.3,1-0.4,1.6-0.4,1.9c-0.2,4.5,0.3,9.1,1.4,13.8c0.1,0.5,0.2,1,0.4,1.6c0.1,0.3,0.2,0.6,0.4,0.9
		l0,0.1c0.8,2,2.3,4,4.4,6c0.5,0.5,1.1,1,1.7,1.5c-0.2,0.1-0.4,0.2-0.5,0.2c-0.9,0.4-1.6,1.1-2,2c-0.4,0.8-0.8,1.7-1.3,2.5
		c-0.2,0.3-0.3,0.6-0.5,0.9c-0.1-0.2-0.3-0.3-0.4-0.5c-0.4-0.5-0.9-1-1.4-1.6c-0.7-0.8-1.2-1.5-1.8-2.2c-1.5-1.8-2.6-3.4-3.4-4.8
		c-0.6-1-1-1.9-1.3-2.7c-1.5-4.9-2.1-12.8-2-23.9c0.1-2.3,0.1-4.5,0.1-6.6c0-9.8-0.1-15.7-0.2-17.5v-0.1c-0.1-0.7,0.1-2.1,0.5-4.5
		c0.4-0.3,0.9-0.1,1.6,0.4c0.7,0.5,2,2.1,3.8,4.8c1.8,2.7,3,7,3.6,12.8c-0.5,5.3-1.1,9.1-1.7,11.3v0.1
		C23.5,139.3,23.2,140.5,23,141.4z"/>
	<path class="st41" d="M48.6,179c-1,9.2-4.5,21.7-10.2,37.4v0c0-0.1,0-0.1,0-0.1c-0.2,0.3-0.3,0.6-0.4,0.9c-0.3,0.7-0.5,1.4-0.8,2.4
		c-0.4,1.7-0.8,2.8-1,3.4c-1.3,2.8-2.2,6-2.8,9.5c-0.5,2.8-0.7,6.1-0.8,9.9c-0.1,2.2-0.1,5.6-0.2,10c0,3.9-0.2,7.2-0.6,9.8
		c0.2,2-0.2,3.4-1.2,4.3c-0.4,0.5-1,0.9-1.5,1.3c-0.6,0.3-1.3,0.5-2.1,0.7c-0.1-0.7-0.3-1.8-0.5-3.2c-0.4-2.7-0.5-5.4-0.5-8.2
		c0-17.5,2-32.2,6.1-44c4-11.8,6.7-19.5,8-23c0.6-1.7,1.1-3.9,1.3-6.5c0.2-1.7,0.3-3.6,0.3-5.6c0.3,0.1,0.5,0.1,0.7,0.2
		c0.2,0,0.5-0.1,0.7-0.2c1.6,2,3.4,2.4,5.4,1.2L48.6,179z"/>
	
		<linearGradient id="SVGID_2_" gradientUnits="userSpaceOnUse" x1="-852.1628" y1="-6.9815" x2="-839.7538" y2="-6.9815" gradientTransform="matrix(2.5691 0 0 2.569 2215.4231 179.9803)">
		<stop  offset="0" style="stop-color:#9FCED5"/>
		<stop  offset="1" style="stop-color:#BBEEF6"/>
	</linearGradient>
	<path class="st42" d="M54.5,160.8c0.1,0.7,0.1,1.3,0.1,1.9c-1.2,0.8-2.4,1.5-3.6,2.1c-0.1,0.1-0.2,0.1-0.3,0.2
		c-0.1,0.1-0.2,0.1-0.2,0.1c-0.2-1.2-0.4-2.4-0.5-3.8c1.5-0.6,3-1.4,4.4-2.4C54.4,159.6,54.5,160.2,54.5,160.8z"/>
	<path class="st41" d="M58,242.8c-0.4,0.4-0.7,0.8-1.1,1.2c-0.4,0.4-0.8,0.7-1.3,1c-0.6,0.4-1.3,0.8-2,1c-0.2,0-0.3,0.1-0.5,0.2
		c-0.4,0.1-0.9,0.2-1.3,0.4c0.2-0.1,0.4-0.1,0.5-0.2c0-0.1,0-0.1,0-0.3c-0.6-3.2-1.1-9.2-1.5-18c-0.4-8.9,0.8-19.2,3.4-31
		c2.4-11.1,3.8-18.7,4.1-22.6c0.6-0.5,1.2-1,1.8-1.5c1.2-1,2.4-2,3.5-3.1c0.3,2.4,0.6,4.8,0.8,7.3c0,3-0.4,6.5-1.1,10.4
		c-0.2,1.1-1,4.5-2.3,10.1c-0.7,4.1-1.7,7.5-3.2,10.1c-0.4,3-0.6,7.3-0.4,12.8c0.2,6,0.1,10.3-0.2,12.9c-0.1,1,0.1,2.6,0.6,4.8
		C58.1,240.2,58.2,241.7,58,242.8z"/>
</g>
</svg>
