<?xml version="1.0" encoding="utf-8"?>
<!-- Generator: Adobe Illustrator 25.2.3, SVG Export Plug-In . SVG Version: 6.00 Build 0)  -->
<svg version="1.1" id="Layer_1" xmlns="http://www.w3.org/2000/svg" xmlns:xlink="http://www.w3.org/1999/xlink" x="0px" y="0px"
	 viewBox="0 0 204.1 236.5" style="enable-background:new 0 0 204.1 236.5;" xml:space="preserve">
<style type="text/css">
	.st0{opacity:0.2;}
	.st1{fill:#639E9B;}
	.st2{fill:#D1D3D5;}
	.st3{fill:#E9EAEB;}
	.st4{fill:#C1874D;}
	.st5{fill:#DD923F;}
	.st6{fill:#DD8260;}
	.st7{fill:#C6684B;}
	.st8{fill:#E65734;}
	.st9{fill:#B74729;}
	.st10{fill:#FFB759;}
	.st11{fill:#FFB887;}
	.st12{fill:#E0DEDD;}
	.st13{fill:#F1A169;}
	.st14{fill:#FFFFFF;}
	.st15{fill:#FBFBFB;}
	.st16{fill:#354959;}
	.st17{fill:#EDA370;}
	.st18{fill:#4A687C;}
	.st19{fill:#D9915F;}
	.st20{fill:#A0A1A3;}
	.st21{fill:#0A0B0C;}
	.st22{fill:#9A9EA4;}
	.st23{fill:#F2F2F3;}
	.st24{fill:#FFB683;}
	.st25{fill:#84BCBB;}
	.st26{fill:#422E29;}
	.st27{fill:#AA6F2D;}
</style>
<g>
	<path class="st0" d="M157.5,18.7c1.8-5.7,5.4-10.1,10.7-13.1c3.2-1.8,6.4-2.8,9.7-3c0.8-0.1,1.7-0.1,2.5,0c1.4,0.1,2.8,0.3,4.2,0.7
		c6.2,1.5,11,5.3,14.5,11.4c2.7,4.9,3.7,9.8,3.1,14.7c-0.2,1.3-0.5,2.6-0.9,3.9c-1.7,6.3-5.5,11-11.5,14.2c-6,3.2-11.9,3.7-17.8,1.5
		c-5.9-1.9-10.4-5.9-13.4-12c-1.3-2.6-2.1-5.2-2.4-7.7C155.8,25.6,156.2,22.1,157.5,18.7z"/>
	<path class="st1" d="M157.5,16.6c1.8-5.7,5.4-10.1,10.7-13.1c3.2-1.8,6.4-2.8,9.7-3c0.8-0.1,1.7-0.1,2.5,0c1.4,0.1,2.8,0.3,4.2,0.7
		c6.2,1.5,11,5.3,14.5,11.4c2.7,4.9,3.7,9.8,3.1,14.7c-0.2,1.3-0.5,2.6-0.9,3.9c-1.7,6.3-5.5,11-11.5,14.2c-6,3.2-11.9,3.7-17.8,1.5
		c-5.9-1.9-10.4-5.9-13.4-12c-1.3-2.6-2.1-5.2-2.4-7.7C155.8,23.6,156.2,20.1,157.5,16.6z"/>
	<path class="st2" d="M78.7,122.5l-2.6-5.2L65.2,95.7c-0.4-0.7-0.2-1,0.5-0.9l1.3,0.3l34.5,6.7c0.7,0.1,1.2,0.6,1.6,1.3l13.2,26.1
		l0.4,0.7c0.4,0.7,0.2,1-0.5,0.9l-35.8-7C79.6,123.6,79.1,123.2,78.7,122.5z"/>
	<path class="st2" d="M94.4,112.5c-0.5-1.2-1.3-2.2-2.6-3c-1.2-0.8-2.5-1.1-3.8-1c-1.3,0.1-2.2,0.6-2.8,1.6c-0.6,0.9-0.6,2-0.2,3.2
		c0.5,1.2,1.3,2.2,2.5,3c1.2,0.8,2.5,1.1,3.8,1c1.3-0.1,2.2-0.6,2.8-1.6C94.8,114.8,94.9,113.7,94.4,112.5z"/>
	<path class="st0" d="M49.4,225.2c5.3,1.2,7.9,2.6,7.9,4.2c0,1.7-2.6,3.1-7.9,4.2c-5.3,1.2-11.6,1.7-19.1,1.7
		c-7.4,0-13.8-0.6-19.1-1.7c-5.3-1.2-7.9-2.6-7.9-4.2c0-1.6,2.6-3,7.9-4.2c3.5-0.8,7.5-1.3,12-1.5c-1.1,0.9-2.1,1.4-2.9,1.7
		c-0.8,0.2-1.5,0.6-2.2,1.4c-0.5,0.6-0.9,1.3-1.1,2.2c-0.3,1.6,0.2,2.8,1.4,3.5c0.3,0.1,0.5,0.3,0.9,0.4c0,0,0.1,0,0.1,0
		c3.7,1.3,7.8,0.8,12.4-1.3c1.2-0.5,3.1-1.4,5.7-2.9c2.4-1.4,4.3-2.3,5.6-2.8c0.5-0.4,1-0.8,1.3-1.4
		C46.2,224.6,47.8,224.9,49.4,225.2z"/>
	<path class="st0" d="M97.4,207c0,0.6,0,1.5,0,2.6l-0.1,1.7c-0.1,0.6-0.4,1.3-0.7,2.2c-0.3,0.7-0.8,1.8-1.5,3.3
		c-0.7,1.6-0.9,3-0.7,4.2c0.1,0.4,0.2,0.8,0.4,1.1c0.2,0.3,0.4,0.7,0.7,1c0,0,0,0,0,0.1c0,0,0.1,0,0.1,0c3.6,1.8,8,0,13.1-5.3
		c0.9-1.9,1.6-4.9,2.3-8.9c0.6-3.3,1.1-5.9,1.7-7.8c0.1,0.2,0.3,0.4,0.5,0.6c0.7,0.7,1.4,1,2.4,1c0.9,0,1.7-0.3,2.4-1
		c0.7-0.7,1-1.4,1-2.4v-1.8c1.4-0.1,2.6,0,3.6,0.2l10,1.7l-2.7,19c-0.1,0.9,0.1,1.7,0.6,2.5c0.6,0.7,1.3,1.2,2.2,1.3
		c0.9,0.1,1.7-0.1,2.5-0.6c0.7-0.6,1.2-1.3,1.3-2.2l2.7-18.8l37.9,6.5v2.3c0,0.9,0.3,1.7,1,2.4c0.7,0.7,1.4,1,2.4,1
		c0.9,0,1.7-0.3,2.4-1c0.7-0.7,1-1.4,1-2.4v-1.2l7.1,1.2l-0.7,5.7l-49.4,8.5c-3.8,0.7-6.7,0.8-8.8,0.5l-4.7-0.8
		c-1.3,0.7-3.2,1.3-5.7,1.8c-5.3,1.2-11.6,1.7-19.1,1.7c-7.4,0-13.8-0.6-19.1-1.7c-5.3-1.2-7.9-2.6-7.9-4.2c0-1.6,2.6-3,7.9-4.2
		c0.9-0.2,1.8-0.4,2.7-0.5l-34.8-6c0.6-0.5,1.2-1.1,1.9-1.6c0,0,0.1,0,0.1,0l12.3-2.1l-0.3,1.8c-0.1,0.9,0.1,1.7,0.6,2.5
		c0.6,0.7,1.3,1.2,2.2,1.3c0.9,0.1,1.7-0.1,2.5-0.6c0.7-0.6,1.2-1.3,1.3-2.2l0.6-3.9l26.5-4.6c0,1.8,0,3.5,0.1,5.2
		C97.9,205.7,97.4,206.1,97.4,207z"/>
	<path class="st3" d="M134.7,126.3c-0.9-0.2-1.7,0-2.5,0.5c-0.5,0.4-0.9,0.8-1.1,1.3l-10.9,2h0l-1.9,0.2h0l-0.5-0.9
		c0.5,0,0.6-0.2,0.3-0.9l-4-8l4.1,0.7l24.9,4.2l0.4,0.2l0.1,0.1l0,0.1v0.1h-0.2l-5.4,1L134.7,126.3z"/>
	<path class="st4" d="M66.7,160.1l0.3,0c-0.2-6.1,1-10.1,3.4-11.9l7.9,1.4c-3,3.6-5.7,7.3-8.1,11.1L66.7,160.1z"/>
	<path class="st4" d="M168.7,132.5c0-2.3-0.3-4.7-1-7.1h-12.3c0-0.6,0-1.2,0-1.8c0.1-4.8,1.7-9.3,4.9-13.5c3.8-5,7.9-8.6,12.4-10.8
		l-27.4-4.7c1.1-2.4,2-4.3,2.6-5.7c0.8-1.7,1.5-3.2,2.3-4.6l34.9,6c-4.6-0.7-8.7,2.3-12.3,9.1c0,0,0,0,0,0l10,1.7l-4.7,33.1
		L168.7,132.5z"/>
	<path class="st4" d="M80.5,146.5l0.6-0.1c-0.1,0.2-0.3,0.3-0.4,0.5l-1.3-0.2L80.5,146.5z"/>
	<path class="st4" d="M94.7,161.9c-0.1,1-0.1,2,0,3.1l-4.1-0.7c1.2-0.9,2.6-1.9,4.1-2.9C94.6,161.5,94.6,161.7,94.7,161.9z"/>
	<path class="st4" d="M176.7,140.8v3l-1.1,7.4l-14-2.4c2.8-3.2,4.7-6.4,5.8-9.7L176.7,140.8z"/>
	<path class="st4" d="M146.2,149.6c1.3-0.7,2.5-1.7,3.6-2.8l12,2.1l-16,4L146.2,149.6z"/>
	<path class="st4" d="M122.5,169.8c-0.2-6.1,1-10.1,3.4-11.9l-15.9-2.8c0-0.1,0-0.1,0-0.2c-0.2-1.3-0.4-2.6-0.8-3.8
		c2.8,0.6,5,0.9,6.9,0.7h20.6l2.2-0.5c0.1,0,0.2,0,0.3,0l-0.5,3.3l-12.8,3.2l6,1c-2.4,1.8-3.6,5.8-3.4,11.9L122.5,169.8z"/>
	<path class="st5" d="M78.4,149.7l-7.9-1.4c0,0,0,0,0,0l3.1-0.5l5.8-1l1.3,0.2C79.9,147.8,79.1,148.7,78.4,149.7z"/>
	<path class="st5" d="M172.8,99.4C172.8,99.4,172.8,99.4,172.8,99.4c3.7-6.8,7.8-9.8,12.3-9.1l10,1.7c-0.2,0-0.4,0-0.6-0.1
		c-4.3-0.4-8.3,2.7-11.8,9.1L172.8,99.4z"/>
	<polygon class="st5" points="145.7,152.9 161.7,148.8 175.7,151.2 145.2,156.6 	"/>
	<polygon class="st5" points="125.9,157.9 138.7,154.7 138.3,157.8 131.9,158.9 	"/>
	<path class="st6" d="M113.6,37c2.2,2.6,3.1,4.8,2.9,6.6c-0.2,1.7-0.8,3.3-1.8,4.6c-0.6,0.8-1.7,2-3.2,3.4c-1.4,1.3-2.4,2.4-3.1,3.3
		c-1,1.5-1.6,3.1-1.9,4.9c0,0.3,0,0.9,0,1.9c0.3,0.5,0.6,1.1,0.8,2c0.4,1.3,0.6,2.3,0.4,2.8c0,0.3-0.1,1.3-0.3,2.9
		c-0.3,1.8-0.8,3.4-1.5,4.7c-2.1,4.2-5.8,5.9-11.1,5.2c-5.4-0.8-8.9-3.3-10.3-7.5c-0.3-0.7-0.5-1.4-0.6-2.2c1-1.7,2-3.2,3.3-4.3
		c1.1-0.9,2-1.9,2.7-2.7c0.8-1.1,1.4-2.2,1.6-3.2c0.3-1.7,0.3-3.9-0.1-6.6c-0.3-2.7,0.4-5,2.3-6.8c1.9-1.9,4.1-2.9,6.6-3.2
		c2.5-0.3,4.4-0.7,5.6-0.9c2.6-0.8,4.3-2.5,5.3-5c0.2-0.7,0.6-1.2,1-1.7C112.5,35.7,113,36.3,113.6,37z"/>
	<path class="st6" d="M123.2,37.1c-0.1-0.5-0.1-1-0.1-1.6l0.6-5.6l0.2-1.8c0.1-0.7,0.3-1.4,0.5-2.2c1.2-2.3,3.1-4.2,5.7-5.6
		c2.5-1.3,5.1-2,7.9-2.1c2.3-0.1,4.4,0.3,6.3,1.1c-0.1,0.7-0.1,1.7-0.1,2.8c0,0.9-1,2.1-3.1,3.6c-1.3,0.9-3.5,2.5-6.9,4.6
		c-1.6,1.2-3,2.3-4.3,3.5c-2.1,2.1-3.7,4.1-4.6,6.3c0,0.1-0.1,0.2-0.1,0.3c-0.3,0.6-0.5,1.2-0.6,1.8c-0.3-0.7-0.5-1.5-0.7-2.2
		C123.5,39.1,123.3,38.1,123.2,37.1z"/>
	<path class="st7" d="M148.5,26.6c0-1.5-0.5-3.3-1.4-5.6c1.7,1.3,2.8,3,3.6,5.1c0.7,1.5,1.2,3,1.6,4.5c0-0.1-0.1-0.2-0.1-0.3
		c-1.1,0.3-2.1,0.8-2.8,1.7c-0.3-1.3-0.7-2.6-1.3-3.9C148.3,27.7,148.5,27.1,148.5,26.6z"/>
	<path class="st8" d="M31.2,225.5c-0.3-0.7-0.7-1.3-1.2-2c-0.6-0.8-1.4-1.5-2.3-2.2c-1.4,0.5-2.2,1-2.5,1.6c-0.1,0.3-0.1,0.5,0,0.8
		c0.1,0.4,0.3,0.7,0.7,1c0.6,0.5,1.4,0.9,2.4,1.1C29.3,225.9,30.3,225.8,31.2,225.5z"/>
	<path class="st7" d="M123.7,40.1c-0.9-0.2-1.7-0.6-2.4-1.2c-1.1-0.9-1.7-2.1-1.8-3.6c0-0.7,0-1.3,0.2-1.9c-0.5-0.2-0.9-0.3-1.4-0.3
		c-1.3-0.2-2.6-0.1-3.9,0.4c-1,0.4-1.7,1-2.3,1.7c0.4,0.5,0.8,1.2,1.4,1.9c2.2,2.6,3.1,4.8,2.9,6.6c-0.2,1.7-0.8,3.3-1.8,4.6
		c-0.6,0.8-1.7,2-3.2,3.4c-1.4,1.3-2.4,2.4-3.1,3.3c-1,1.5-1.6,3.1-1.9,4.9c0,0.3,0,0.9,0,1.9c0.3,0.5,0.6,1.1,0.8,2
		c0.4,1.3,0.6,2.3,0.4,2.8c0,0.3-0.1,1.3-0.3,2.9c-0.3,1.8-0.8,3.4-1.5,4.7c-2.1,4.2-5.8,5.9-11.1,5.2c-5.4-0.8-8.9-3.3-10.3-7.5
		c-0.3-0.7-0.5-1.4-0.6-2.2c-0.8,1.7-1.6,3.7-2.1,6c-0.3,2-0.1,4,0.6,5.9c0.4,0.3,0.9,0.6,1.4,1c1.7,1.3,3.7,2.1,6.1,2.4
		c4.1,0.6,7.8,0.6,11-0.1c0.4-0.6,0.8-1.3,1.3-2.1c0.8-1.3,1.8-2.8,2.9-4.6c2.5-3.9,4.3-7.2,5.5-9.9c1.6-3.8,3.1-6.5,4.5-8.2
		c0.1-0.1,0.1-0.1,0.1-0.2c0.5-1.5,1.4-3.7,2.7-6.4c1.8-3.9,3.5-6.4,5.1-7.5c1-0.7,1.6-1.6,2-2.7c-0.1-0.3-0.3-0.6-0.4-0.9
		C124.2,41.6,123.9,40.8,123.7,40.1z"/>
	<path class="st9" d="M125.1,40.5c0-0.1,0.1-0.2,0.1-0.3c0.9-2.1,2.5-4.2,4.6-6.3c1.2-1.2,2.6-2.4,4.3-3.5c3.3-2.2,5.6-3.7,6.9-4.6
		c2.1-1.5,3.1-2.7,3.1-3.6c0-1.1,0-2.1,0.1-2.8c0.1,0,0.2,0.1,0.3,0.1c0.3,0.1,0.7,0.3,1,0.5c0,0,0.1,0,0.1,0c0.5,0.3,1,0.6,1.5,1
		c0.9,2.3,1.4,4.2,1.4,5.6c0,0.5-0.2,1.1-0.5,1.6c-0.1-0.3-0.2-0.5-0.4-0.8c-1.1,1-2.6,2-4.4,3c-2.1,1.1-3.7,1.9-4.8,2.4
		c-4,2-6.8,4.2-8.4,6.5c-1.4,1.3-1.9,2.9-1.7,4.9c0.2,1.9,0.9,3.5,2.2,4.9v2.1c-0.7-0.3-1.3-0.9-1.7-1.8c-0.6-1.5-0.9-2.3-1-2.4
		c-0.9-0.9-1.7-1.8-2.4-2.9c-0.1,1.8-0.5,3.6-1.2,5.4c-0.8,2.1-1.1,4.3-1,6.5c-0.1,0-0.3,0-0.4,0c-0.1,0-0.1,0-0.2,0
		c-0.9,0-1.8,0.1-2.7,0.4c-0.3,0.1-0.6,0.2-0.9,0.4c-1.4,0.6-2.7,1.7-3.8,3.1c0.5-1.5,1.4-3.7,2.7-6.4c1.8-3.9,3.5-6.4,5.1-7.5
		c1-0.7,1.6-1.6,2-2.7c-0.1-0.3-0.3-0.6-0.4-0.9C124.6,41.7,124.8,41.1,125.1,40.5z"/>
	<path class="st9" d="M97.1,92.1c-3.6-0.6-7-2-10.1-4.2c-2.1-1.5-3.6-3.5-4.6-6.2c0-0.1-0.1-0.1,0-0.2c0.4,0.3,0.9,0.6,1.4,1
		c1.7,1.3,3.7,2.1,6.1,2.4c4.1,0.6,7.8,0.6,11-0.1c-1,1.6-1.6,2.5-1.8,2.9c0,0,0,0.1,0,0.1c0,0.1,0,0.2,0,0.4c0,0,0,0,0,0.1
		c0.1,1.2,0.4,2.2,0.9,3c0.1,0.4,0.3,0.8,0.5,1.2C99.3,92.3,98.2,92.2,97.1,92.1z"/>
	<path class="st9" d="M18.6,232.4c4.2,0.3,8.6-0.9,13.3-3.7c2.8-1.6,4.9-3.3,6.4-4.9c0.6-0.6,1.1-1.3,1.4-1.9c0,0,0,0,0,0
		c0.1-0.1,0.3-0.1,0.4-0.2l0.1-0.1c0.3-0.1,0.5-0.3,0.8-0.4c2.7-1.5,4.1-3.4,4.2-5.7c0,0.3,0.1,1.2,0.2,2.7c0.1,1.1,0.2,2.1,0.2,2.8
		c-0.1,1.4-0.4,2.5-1,3.4c-0.4,0.6-0.8,1-1.3,1.4c-1.3,0.5-3.2,1.4-5.6,2.8c-2.7,1.4-4.6,2.4-5.7,2.9c-4.6,2.1-8.8,2.6-12.4,1.3
		c0,0,0,0-0.1,0c-0.3-0.1-0.6-0.2-0.9-0.4C18.5,232.4,18.5,232.4,18.6,232.4z"/>
	<path class="st9" d="M152.1,30.3c0,0.1,0.1,0.2,0.1,0.3c0,0,0,0,0,0c0,0.1,0.1,0.3,0.1,0.4l0.7,3.9c0,0.1,0,0.2,0,0.3
		c0,0.4,0.1,0.8,0.1,1.2c0,4.2-1.4,7.2-4.2,9c0.9-3,1.3-6.1,1.1-9.2c-0.1-1.5-0.3-2.9-0.6-4.3C150.1,31.1,151,30.6,152.1,30.3z"/>
	<path class="st9" d="M96.5,221.4c4.6,0,8.1-3.3,10.6-9.8c1.7-4.3,2.5-8.2,2.5-11.6c0-0.3,0-0.7-0.1-1l0-0.1v0c0,0,0,0,0,0
		c1-3.7,0.6-6.6-1.2-8.8c1.6,0.7,2.9,1.8,3.8,3.2c0.2,0.3,0.3,0.5,0.5,0.8c1.1,1.9,1.2,3.9,0.5,5.8c-0.1,0.4-0.3,0.8-0.4,1.2
		c-0.6,1.8-1.2,4.4-1.7,7.8c-0.7,4-1.5,7-2.3,8.9c-5.1,5.3-9.5,7.1-13.1,5.3c0,0-0.1,0-0.1,0c0,0,0,0,0-0.1c-0.3-0.3-0.5-0.6-0.7-1
		c-0.2-0.3-0.3-0.7-0.4-1.1C95.4,221.2,96.1,221.4,96.5,221.4z"/>
	<path class="st10" d="M119.8,33.4c-0.2,0.6-0.3,1.2-0.2,1.9c0.1,1.5,0.7,2.6,1.8,3.6c0.7,0.6,1.5,1,2.4,1.2c-0.2-0.9-0.4-1.9-0.5-3
		c-0.1-0.5-0.1-1-0.1-1.6l0.6-5.6c-1.1,0.2-2.1,0.8-2.9,1.7C120.3,32.1,120,32.7,119.8,33.4z"/>
	<path class="st11" d="M80.7,146.9c0.1-0.2,0.3-0.3,0.4-0.5c1.5-1.7,3-3.3,4.6-4.9c0.1,0.2,0.1,0.5,0.2,0.7c0.3,1.1,0.6,2.2,0.7,3.2
		c0.1,0.6,0.1,1.3,0.1,1.9c0,0.1,0,0.3,0,0.4c0,1-0.2,2.1-0.4,3.3c-0.6,3.1-2.1,6.6-4.3,10.5c-0.1,0.2-0.2,0.4-0.4,0.6
		c-0.2,0.2-0.4,0.3-0.6,0.5c-0.1,0.1-0.2,0.2-0.3,0.2c-1.1,0.8-2.1,1.7-3,2.6c-1.1,1.1-2.1,2.2-3.1,3.4c-1.7,2.1-3.1,4.4-4.2,6.7
		c-0.4,0.9-0.8,1.7-1.2,2.6c-0.8,1.7-1.5,3.4-2.2,5.1c-1.1,2.7-2.3,5.2-3.4,7.8c-0.1,0.1-0.1,0.2-0.2,0.4c-2.2,3.5-4.6,6.8-7.4,9.8
		c-2.1,2.2-4.2,4.2-6.5,6c-1.7,1.3-4.2,3.5-7.5,6.3c0.3,0.7,0.3,1.4,0.2,2c-0.3,1.3-2.6,3.6-6.8,6.9c-0.5,0.4-1.1,0.7-1.6,1.1
		c-0.1,0.1-0.2,0.1-0.2,0.2c0-0.1-0.1-0.1-0.1-0.2c-0.4-0.5-0.8-1.2-1.4-2.1c-0.8-1.2-1.5-2.1-2.1-2.7c1.1-1.5,2.6-3.3,4.5-5.4
		c1.6-1.7,2.8-2.9,3.5-3.8c0.7-0.8,1.2-1.3,1.3-1.4c2.3-2.8,4.5-5.3,6.4-7.7c3.9-4.8,6.9-8.7,9.2-11.7c5.8-7.8,9.7-15.1,11.8-22
		c1.1-2,2.3-4,3.6-6c2.5-3.8,5.2-7.5,8.1-11.1C79.1,148.7,79.9,147.8,80.7,146.9z"/>
	<path class="st11" d="M162.5,64.3c0.2,0,0.4,0,0.7,0c1,0,2.5,0.4,4.4,1.1c2.2,0.8,3.8,1,4.9,0.7c0.6-0.5,0.9-1.1,0.8-1.7
		c-0.1-0.4-0.3-1.1-0.8-1.9c-0.4-0.9-0.7-1.5-0.7-1.8c-0.1-0.6,0.2-1.1,0.8-1.4c1.8,1.1,2.9,3.1,3.3,5.9c0.1,0.4,0.1,0.8,0.2,1.4
		c0.1,0.6,0.1,1.3,0.2,2.1c0.2,1.4,0.4,2.5,0.8,3.3c1,1,2.3,1.7,4,2.3c0.9,0.3,2.4,0.6,4.5,1.1c1.9,0.4,3.4,0.8,4.4,1.2
		c1.5,0.6,2.8,1.5,3.7,2.6c1.1,2.4,1.6,4.5,1.6,6.4c-1,1.4-2.6,2-4.7,2c-1.8,0-3.5-0.5-5.1-1.6c-0.1-0.1-0.3-0.2-0.4-0.3
		c-1.3-0.9-2.9-2-4.8-3.4c-2.7-2-4.4-3.3-5.2-3.8c-0.7-0.5-1.5-1-2.5-1.5c-1.1-0.5-2.4-1-3.9-1.5c-3.2-1-5.4-1.8-6.6-2.5
		c0-0.5-0.2-1.1-0.4-1.8c-0.2-0.5-0.4-1-0.5-1.3c-0.1-0.2-0.1-0.3-0.1-0.5c-0.4-1.4-0.3-2.6,0.4-3.5c0.2,0,0.5,0.1,0.9,0.3
		c0.5,0.3,1.2,0.7,2,1.2c1.3,0.8,2.3,1.1,3.2,0.9c-0.1-0.2-0.4-0.4-0.7-0.7c-0.5-0.3-1.3-0.7-2.3-1.1c-0.9-0.3-1.5-0.7-1.9-1.2
		C162.6,65,162.5,64.6,162.5,64.3z"/>
	<path class="st11" d="M128.3,44.2c-0.2-2,0.4-3.6,1.7-4.9c1.7-2.3,4.5-4.5,8.4-6.5c1.1-0.6,2.7-1.4,4.8-2.4c1.8-1,3.3-2,4.4-3
		c0.1,0.3,0.3,0.5,0.4,0.8c0.6,1.2,1,2.5,1.3,3.9c0.3,1.3,0.5,2.8,0.6,4.3c0.2,3.1-0.2,6.2-1.1,9.2c-1.6,3.6-3.7,6.2-6.1,7.8
		c-1.9,1.4-4,1.5-6.6,0.3c-1.6-0.8-3.6-2.3-5.7-4.5C129.2,47.7,128.4,46.1,128.3,44.2z"/>
	<path class="st11" d="M101.7,85.2c0.3-0.2,0.8-0.4,1.5-0.6c0.7-0.2,1.9-0.4,3.7-0.8c2.1-0.4,3.3-0.7,3.6-0.8
		c0.2-0.1,0.4-0.1,0.6-0.2c1.7-0.5,4.6-1.2,8.6-2.1c2.7-0.6,5-1.2,6.8-1.7c0.1,0,0.1,0,0.2,0c0.8-0.3,1.5-0.5,2.2-0.7
		c1-0.3,1.9-0.6,2.7-0.9c0.6-0.3,1.2-0.6,1.7-0.8c2.1-1.7,4.5-3.1,7.2-4.1c1.7-0.6,3.4-1.1,5.3-1.4h0c1-0.2,2-0.3,3.1-0.4
		c1.5-0.1,3.1-0.2,4.8-0.2c1.9,0,3.9,0.1,6.1,0.2c0,0.5-0.2,0.9-0.6,1.2c-0.9-0.3-2.4-0.4-4.6-0.3c-0.3,0-0.6,0-0.8,0
		c-3.1,0.1-4.6,0.6-4.6,1.4c0,0.5,0.2,0.8,0.5,0.9c0.4,0.2,1.1,0.3,2.3,0.3c0.2,0.3,0.6,0.6,1,1c0.3,0.3,0.2,1.3-0.3,3
		c-0.2,0.8-0.6,1.5-1,2c-0.4,0.6-0.9,1-1.5,1.3c-0.9,0.3-2.4,0.5-4.3,0.5c-0.8,0-1.8-0.1-2.8-0.1c-1.5-0.1-2.8-0.1-3.9,0
		c-1.1,0.1-2.1,0.3-2.9,0.7c-0.6,0.2-1.3,0.5-2,0.8c-0.7,0.3-1.4,0.6-2.2,1c-3.3,0.6-6.3,1.2-8.9,1.9c-2.6,0.7-5.2,1.5-7.8,2.3
		c-0.1,0-0.3,0.1-0.4,0.1c-1.2,0.4-2.4,0.7-3.4,1c-1,0.3-1.9,0.6-2.7,0.8c-0.3,0.1-0.6,0.2-0.9,0.2c-1.4,0.3-2.6,0.4-3.7,0.2
		c-1.2-0.2-2-0.8-2.5-1.7c-0.1-0.1-0.1-0.2-0.1-0.3c-0.5-1.2-0.6-2.3-0.4-3.4C101.3,85.5,101.5,85.4,101.7,85.2z"/>
	<path class="st11" d="M117.8,131.8c0.1,0,0.2,0.1,0.2,0.1c0.6,0.1,1.4,0.1,2.3-0.1l0.6-0.1c1.4,3,2,6.1,1.9,9.2
		c0,0.2,0,0.4-0.1,0.6c-0.1,0-0.3,0-0.4,0c-5.5-0.6-11.5-1.7-17.9-3.2c-0.6-0.2-1.2-0.5-1.8-0.8c0,0.1,0,0.2,0.1,0.4
		c0.2,0.4,0.2,0.8,0.2,1c0,0.2,0,0.4,0,0.7c0.1,1.3,0.3,2.7,0.7,4.2c0.3,1.1,0.8,2.8,1.5,5.3c0.3,1.1,0.6,2.3,0.8,3.5
		c0.1,0.7,0.3,1.3,0.4,2c0.6,3.9,1,8.1,1,12.7c0,0.1,0,0.3,0,0.4c0,1.1-0.5,4.1-1.6,8.9c-1.1,4.8-1.6,8.2-1.6,10
		c0,2.3,0.5,4.4,1.6,6.2c1.1,1.8,1.6,3.4,1.6,4.6c0,0.6,0,1.2-0.1,1.8c-0.2,2.3-0.9,4.6-2,6.9c-0.2,0.5-0.4,0.9-0.6,1.4
		c-0.6-0.2-1.2-0.3-2-0.6c-1.9-0.5-3.1-0.9-3.8-1.1c-0.1-1.6-0.1-3.4-0.1-5.2c0-3.1,0.1-6.4,0.2-9.9h0c-0.7-2.6-1.4-6.9-1.9-13
		c-0.5-5.6-1.1-9.9-1.7-12.8c-0.1-0.3-0.1-0.5-0.2-0.7c-0.1-0.8-0.3-1.6-0.4-2.4c0-0.2-0.1-0.4-0.1-0.5c-0.6-3.3-1.5-6.6-2.5-9.8
		c-1-3-2-6-3.1-9c-0.4-1.1-0.7-2.2-0.9-3.3c-1-5.3,1-9.1,6.1-11.5L117.8,131.8z"/>
	<path class="st12" d="M152.6,78.2c0.5-1.7,0.6-2.7,0.3-3c-0.5-0.4-0.8-0.7-1-1h0c-0.1-0.3-0.2-0.5-0.2-0.6c0-0.1,0.1-0.1,0.1-0.2
		c0,0,0-0.1,0.1-0.1l0,0c0.3-0.2,0.9-0.4,1.8-0.5c0.3,0,0.5-0.1,0.9-0.1c1.8-0.1,3-0.2,3.6-0.3c0.5-0.1,0.8-0.2,1-0.5
		c0.5-0.3,0.7-0.7,0.6-1.2c-2.2-0.1-4.2-0.2-6.1-0.2c-1.7,0-3.3,0.1-4.8,0.2c0.4-1,0.7-1.8,0.9-2.3l0.1-0.1c0-0.1,0.1-0.1,0.1-0.2
		c0.9-2.1,1.9-3.9,3-5.3c2.5,0.6,3.9,1,4.4,1.1c1.7,0.5,3.1,1.1,4.2,1.7c0.3,0.1,0.6,0.2,0.9,0.3l0,0.1c-0.4-0.2-0.7-0.3-0.9-0.3
		c-0.7,1-0.9,2.1-0.4,3.5c0,0.1,0.1,0.3,0.1,0.5l-1.8,5.6c-0.4,1.3,0,2,1.4,2.1l9.3,0.7c1.2,0.1,2-0.3,2.5-1.3c1,0.5,1.9,1,2.5,1.5
		c0.7,0.5,2.5,1.8,5.2,3.8c1.9,1.4,3.5,2.6,4.8,3.4c-3-0.9-7.5-2.3-13.5-4.4c-6.1-2-10.7-3.5-13.9-4.5c-1.1-0.4-2.1-0.1-3.1,0.8
		c-0.5,0.5-1.3,1.4-2.2,2.6c-0.3,0-0.7,0-1,0C152,79.6,152.3,79,152.6,78.2z"/>
	<path class="st12" d="M139.4,114.3c0.1-0.6,0.2-1.1,0.2-1.5c0-0.4-0.2-1.4-0.5-3c1.9-0.3,3.9-0.8,6-1.2c0.5,1,1.1,2,1.8,3.1
		c-0.2-0.2-0.3-0.3-0.5-0.5l-6.6,3C139.6,114.2,139.5,114.2,139.4,114.3z"/>
	<path class="st13" d="M114.8,92.1c-0.1,0-0.1,0.1-0.2,0.1l-5.1,2.2c-3.5,1.7-6.1,1.6-7.8-0.2c-0.5-0.6-1-1.2-1.3-1.8
		c-0.2-0.4-0.4-0.8-0.5-1.2c-0.3-0.8-0.3-1.6-0.2-2.4c0.4-1.7,0.9-2.7,1.5-3.2c-0.3,1-0.1,2.2,0.4,3.4c0,0.1,0.1,0.2,0.1,0.3
		c0.5,1,1.3,1.6,2.5,1.7c1.1,0.2,2.3,0.1,3.7-0.2c0.3-0.1,0.6-0.1,0.9-0.2c0.8-0.2,1.7-0.5,2.7-0.8c1-0.3,2.2-0.7,3.4-1
		c0.1,0,0.3-0.1,0.4-0.1c2.6-0.8,5.2-1.6,7.8-2.3c2.6-0.7,5.5-1.4,8.9-1.9c-0.2,0.1-0.3,0.2-0.5,0.2c-1,0.5-2.6,1.3-4.6,2.3
		l-3.4,1.6c-0.2,0.1-0.4,0.2-0.5,0.2c-1.6,0.7-4.1,1.8-7.4,3.1C115.3,91.9,115.1,92,114.8,92.1z"/>
	<path class="st13" d="M142.6,54.1c-0.7,2.8-2.7,5.2-6,7.4c-1.8,1.2-4.7,2.7-8.9,4.5c-0.1-0.1-0.1-0.1-0.2-0.2v0
		c-0.1-0.1-0.1-0.2-0.2-0.3c-1-1.5-1.2-3.1-0.8-4.7c0.1-0.3,0.2-0.7,0.3-1c0.1-0.1,0.1-0.2,0.1-0.2c0.2-0.5,0.7-1.5,1.6-3
		c0.7-1.3,1.2-2.3,1.5-3.2c0.2-0.8,0.3-1.5,0.3-2.1v-2.1c2.2,2.2,4.1,3.7,5.7,4.5c2.5,1.3,4.7,1.2,6.6-0.3L142.6,54.1z"/>
	<path class="st13" d="M158.1,72.3c-0.6,0.1-1.8,0.2-3.6,0.3c-0.3,0-0.6,0.1-0.9,0.1c-1,0.1-1.6,0.3-1.8,0.5l0,0
		c0,0.1,0,0.1-0.1,0.1c0,0.1-0.1,0.1-0.1,0.2c0,0.2,0.1,0.4,0.2,0.6h0c-1.2,0-1.9-0.1-2.3-0.3c-0.3-0.1-0.5-0.4-0.5-0.9
		c0-0.8,1.5-1.2,4.6-1.4c0.3,0,0.5,0,0.8,0c2.2-0.1,3.8,0.1,4.6,0.3C158.9,72.1,158.6,72.3,158.1,72.3z"/>
	<path class="st14" d="M145.1,57.4c0.9,1.4,1.3,2.5,1,3.4c-2.4,1.2-5,3-7.7,5.3c-0.6,0.5-2.8,2.6-6.8,6.4c-1-1.7-1.7-2.9-2.2-3.7
		c-0.6-1.1-1.4-1.9-2.2-2.4c-0.3-0.2-0.6-0.3-0.9-0.4c-0.5,0.2-1.2,0.7-2.2,1.3c-0.2,0.1-0.4,0.2-0.6,0.3c-0.7,0.4-1.2,0.7-1.7,0.8
		c0.6-2.5,1.2-4.7,1.8-6.3c0,0,0,0,0,0c0.9-2.3,1.9-4.2,3.1-5.9c0.7-0.8,1.2-1.4,1.5-1.7c0.6-0.6,1.2-1,1.8-1.2
		c-0.3,0.8-0.8,1.9-1.5,3.2c-0.8,1.5-1.4,2.5-1.6,3c0,0.1,0,0.1-0.1,0.2c-0.1,0.3-0.2,0.7-0.3,1c-0.4,1.7-0.2,3.3,0.8,4.7
		c0.1,0.1,0.1,0.2,0.2,0.3v0c0.1,0.1,0.1,0.1,0.2,0.2c4.2-1.8,7.1-3.3,8.9-4.5c3.2-2.2,5.2-4.7,6-7.4
		C143,54.8,143.9,55.9,145.1,57.4z"/>
	<path class="st14" d="M102.1,82.7c0.8-1.3,1.8-2.8,2.9-4.6c2.5-3.9,4.3-7.2,5.5-9.9c1.6-3.8,3.1-6.5,4.5-8.2
		c0.1-0.1,0.1-0.1,0.1-0.2c1.2-1.5,2.5-2.5,3.8-3.1c0.3-0.1,0.6-0.3,0.9-0.4c0.9-0.3,1.8-0.4,2.7-0.4c0.1,0,0.1,0,0.2,0
		c-1.6,1.9-3,4.7-4.1,8.5c-1.5,5-2.5,8-3,9c-0.4,0.6-1,1.5-1.9,2.8c-0.8,1.1-1.4,2.1-1.8,3c-0.2,0.4-0.3,0.9-0.5,1.3v0.1
		c0,0.1-0.1,0.1-0.1,0.2v0c0,0,0,0,0,0.1c-0.2,0.8-0.3,1.5-0.3,2.2c-0.2,0.1-0.4,0.1-0.6,0.2c-0.3,0.1-1.5,0.3-3.6,0.8
		c-1.8,0.3-3,0.6-3.7,0.8c-0.7,0.1-1.2,0.3-1.5,0.6c-0.2,0.2-0.4,0.3-0.5,0.4c-0.6,0.5-1.1,1.5-1.5,3.2c-0.2,0.8-0.1,1.6,0.2,2.4
		c-0.5-0.8-0.8-1.8-0.9-3c0,0,0,0,0-0.1c0-0.1,0-0.3,0-0.4c0-0.1,0-0.1,0-0.1c0.2-0.4,0.8-1.3,1.8-2.9
		C101.2,84.2,101.6,83.5,102.1,82.7z"/>
	<path class="st14" d="M194.3,14c2.7,4.1,3.6,8.4,2.9,12.9c-0.5,4.5-2.6,8.3-6,11.5c-3.5,3.2-7.5,4.7-11.8,4.5
		c-4.1,0.1-7.9-1.2-11.3-4c-3.4-2.8-5.5-6.3-6.3-10.5c-0.9-3.8-0.6-7.7,1-11.6c1.6-3.8,4.1-6.7,7.5-8.7c2-1.2,4.2-1.9,6.6-2.3
		c2.3-0.3,4.7-0.1,7,0.4C188.1,7.4,191.6,9.9,194.3,14z"/>
	<path class="st14" d="M178.2,24.1l-5.5-5.4c-0.2-0.2-0.4-0.1-0.6,0.1l-1.1,1c-0.2,0.2-0.3,0.4-0.1,0.6l7.3,7.1
		c0.2,0.2,0.4,0.1,0.6-0.1l0.5-0.4c0,0,0.1-0.1,0.1-0.1l9.7-8.5c0.2-0.2,0.2-0.4,0-0.7l-1.1-1.3c-0.2-0.3-0.5-0.3-0.7-0.1
		L178.2,24.1z"/>
	<path class="st15" d="M139.3,114.3c0.1-0.6,0.2-1.1,0.2-1.5c0-0.4-0.2-1.4-0.5-3c-9.6,1.7-16.3,1.5-20.3-0.8
		c-0.2-0.1-0.4-0.3-0.6-0.4c-0.3,0.8-0.7,1.6-1.2,2.3c-0.1,0.3-0.2,0.6-0.2,0.8l0.3-0.8c-0.1,2.2,0.8,3.4,2.6,3.8
		c1.8,0.4,5.2,0.7,10.4,1C133,115.8,136.1,115.3,139.3,114.3z"/>
	<path class="st16" d="M114,120.5l4.1,0.7c-1.4-1.1-3-1.7-4.6-1.8l0,0c0,0,0,0,0,0L114,120.5z"/>
	<path class="st17" d="M33.7,223.5c0.5-0.4,1.1-0.8,1.6-1.1c4.2-3.3,6.5-5.6,6.8-6.9c0.2-0.7,0.1-1.3-0.2-2c3.3-2.9,5.8-5,7.5-6.3
		c2.3-1.8,4.5-3.8,6.5-6c2.8-3,5.3-6.2,7.4-9.8c0.1-0.1,0.1-0.3,0.2-0.4c1.2-2.5,2.3-5.1,3.4-7.8c0.7-1.7,1.5-3.4,2.2-5.1
		c0.4-0.9,0.8-1.7,1.2-2.6c1.1-2.4,2.6-4.6,4.2-6.7c1-1.2,2-2.3,3.1-3.4c0.9-0.9,1.9-1.8,3-2.6c0.1-0.1,0.2-0.2,0.3-0.2
		c0.2-0.1,0.4-0.3,0.6-0.5c0.1-0.2,0.3-0.4,0.4-0.6c2.2-3.9,3.6-7.3,4.3-10.5c0.2-1.1,0.4-2.2,0.4-3.3c0-0.1,0-0.3,0-0.4
		c0-0.6,0-1.3-0.1-1.9c-0.1-1-0.4-2.1-0.7-3.2c-0.1-0.3-0.1-0.5-0.2-0.7c0.7-0.7,1.5-1.5,2.2-2.2c0.2,1,0.5,2.1,0.9,3.3
		c1.1,3,2.2,6,3.1,9c1,3.2,1.8,6.5,2.5,9.8c-1.5,1-2.8,2-4.1,2.9c-0.7,0.5-1.4,1-2,1.5c-1.9,1.5-3.3,2.7-4,3.4
		c-0.7,0.8-1.6,1.6-2.6,2.5c-1,0.9-2,2-3.2,3.3c-0.7,0.9-1.3,1.9-1.7,3.1c-0.6,1.5-1,3-1.5,4.6c-0.1,0.3-0.2,0.7-0.3,1
		c-0.8,2.7-2,5.3-3.6,7.8c-1.4,2.2-3.1,4.2-5.1,5.9c-0.1,0.1-0.3,0.2-0.4,0.4c-1.6,1.3-3.3,2.6-4.9,3.9c-2.5,2-5,4-7.4,6.1
		c-0.3,0.3-0.6,0.5-0.9,0.8c-0.6,0.5-1.2,1.1-1.9,1.6c-1.5,1.3-3,2.6-4.5,4c-0.1,0-0.3,0.2-0.8,0.5c-0.3,0.3-0.5,0.5-0.7,0.6
		c0,0,0,0,0,0.1v0c-0.2,2.3-1.6,4.2-4.2,5.7c-0.3,0.1-0.5,0.3-0.8,0.4l-0.1,0.1c-0.1,0.1-0.2,0.1-0.4,0.2c0,0,0,0,0,0
		c-1.1,0.5-2.4,1.1-4,1.8c-0.6,0.2-1.2,0.5-1.8,0.7c-0.1-0.2-0.2-0.4-0.4-0.6C33.6,223.7,33.6,223.6,33.7,223.5z"/>
	<path class="st17" d="M105.2,206.1c1.1-2.4,1.8-4.7,2-6.9c0.1-0.6,0.1-1.2,0.1-1.8c0-1.3-0.5-2.8-1.6-4.6c-1.1-1.8-1.6-3.9-1.6-6.2
		c0-1.9,0.5-5.2,1.6-10c1.1-4.8,1.6-7.8,1.6-8.9c0-0.1,0-0.3,0-0.4c0-4.6-0.4-8.8-1-12.7c-0.1-0.7-0.2-1.4-0.4-2
		c-0.2-1.2-0.5-2.3-0.8-3.5c-0.7-2.5-1.2-4.3-1.5-5.3c-0.4-1.5-0.6-2.9-0.7-4.2c0-0.2,0-0.5,0-0.7c0-0.2-0.1-0.5-0.2-1
		c0,0,0.1,0.1,0.1,0.2c0.1,0.1,0.2,0.3,0.4,0.5c0,0,0,0.1,0.1,0.1c0.4,0.6,0.9,1.5,1.7,2.8c0.1,0.2,0.3,0.4,0.4,0.7
		c0.1,0.3,0.3,0.5,0.4,0.7c0.2,0.4,0.4,0.8,0.5,1.2c0.1,0.1,0.1,0.3,0.2,0.4c0.5,0.8,0.9,1.7,1.3,2.6c0,0,0,0,0,0
		c0.4,1,0.8,2.1,1.1,3.3c0.1,0.2,0.1,0.5,0.2,0.7c0.3,1.2,0.6,2.5,0.8,3.8c0,0.1,0,0.1,0,0.2c0.4,3.2,0.4,6.9,0,11.1
		c0,0,0,0.5-0.1,1.4c-0.2,1.7-0.6,5.1-1.1,10.1c-0.5,4.6-0.9,8.5-1.2,11.6c0.3,0.1,0.5,0.4,0.7,0.8c1.8,2.1,2.2,5,1.2,8.8
		c0,0,0,0,0,0v0l0,0.1c-0.3,0.8-0.8,2.3-1.6,4.5c-0.7,1.9-1.2,3.4-1.4,4.5c-0.5-0.1-1.2-0.2-2-0.5
		C104.8,207.1,105,206.6,105.2,206.1z"/>
	<path class="st18" d="M113.4,119.4L113.4,119.4l3.2-7.7l0.3-0.8c-0.1,2.2,0.8,3.4,2.6,3.8c1.8,0.4,5.2,0.7,10.4,1
		c3,0.1,6.1-0.3,9.4-1.4c0.1,0,0.2-0.1,0.3-0.1c0.4,0.4,0.8,0.7,1.2,1.1c0,0,0,0,0,0c3.3,3.2,5.4,7,6.3,11.5
		c0.1,0.6,0.2,1.2,0.3,1.8l-4.9-0.9c0.5-0.1,0.9-0.5,1-1l-0.1-0.8v-0.1l0-0.1l-0.1-0.1l-0.4-0.2l-24.9-4.2
		C116.7,120.2,115.1,119.5,113.4,119.4z"/>
	<path class="st18" d="M122.8,140.8c0.2-3.1-0.5-6.1-1.9-9.2l9.9-1.8c0,0.5,0.2,1.1,0.6,1.6c0.5,0.7,1.2,1.2,2.1,1.4l8.1,1.5l-1,7.2
		c-5.4,0.6-11.4,0.6-17.9,0C122.7,141.3,122.8,141,122.8,140.8z"/>
	<path class="st19" d="M102.8,137.8c0,0,0.1,0.1,0.1,0.2c0.1,0.1,0.2,0.3,0.4,0.5c0,0,0,0.1,0.1,0.1c0.4,0.6,0.9,1.5,1.7,2.8
		c0.1,0.2,0.3,0.4,0.4,0.7c0.1,0.3,0.3,0.5,0.4,0.7c0.2,0.4,0.4,0.8,0.5,1.2c0.1,0,0.3,0.1,0.4,0.1c2.4,0.8,5.4,1.6,9,2.3
		c1.2,0.3,2.6,0.5,4,0.7c0.1,0,0.1,0,0.2,0c0.4,0.1,0.9,0.2,1.3,0.2c0.1-0.2,0.1-0.4,0.2-0.5c0.1-0.2,0.2-0.5,0.2-0.7
		c0,0,0-0.1,0-0.1c0.1-0.3,0.2-0.6,0.3-0.8c0.1-0.2,0.1-0.5,0.2-0.7c0.2-0.9,0.4-1.7,0.5-2.6c0,0,0-0.1,0-0.1c0-0.2,0-0.4,0-0.5
		c-0.1,0-0.3,0-0.4,0c-5.5-0.6-11.5-1.7-17.9-3.2c-0.6-0.2-1.2-0.5-1.8-0.8C102.6,137.6,102.7,137.7,102.8,137.8z"/>
	<path class="st20" d="M188.1,16.2l1.1,1.3c0.2,0.3,0.2,0.5,0,0.7l-9.7,8.5c-0.1,0-0.1,0.1-0.1,0.1l-0.5,0.4
		c-0.2,0.2-0.4,0.2-0.6,0.1l-7.3-7.1c-0.2-0.2-0.1-0.3,0.1-0.6l1.1-1c0.2-0.2,0.4-0.2,0.6-0.1l5.5,5.4l9.1-8
		C187.6,15.9,187.8,16,188.1,16.2z"/>
	<path class="st16" d="M146.3,111.1c0.2,0.2,0.3,0.3,0.5,0.5c0.3,0.4,0.7,0.7,1,1.1c3,3.2,5.1,6.9,6.2,11.1c0.6,2,0.9,4.1,1.1,6.2
		l-7.5-1.4c-0.1-0.6-0.2-1.2-0.3-1.8c-0.9-4.5-3-8.4-6.3-11.5c0,0,0,0,0,0c-0.4-0.4-0.8-0.8-1.2-1.1L146.3,111.1z"/>
	<path class="st16" d="M139.2,151.3c-0.1,0-0.2,0-0.3,0l-2.2,0.5h-20.6c0.8-0.1,1.5-0.2,2.1-0.5c0.7-0.3,1.4-0.7,1.8-1.2
		c0.5-0.9,0.9-1.7,1.3-2.6c0.1-0.2,0.1-0.4,0.2-0.5c0.1-0.2,0.2-0.5,0.2-0.7c0,0,0-0.1,0-0.1c0.1-0.3,0.2-0.6,0.3-0.8
		c0.1-0.2,0.1-0.5,0.2-0.7c0.2-0.9,0.4-1.7,0.5-2.6c0,0,0-0.1,0-0.1c0-0.2,0-0.4,0-0.5c6.5,0.6,12.5,0.6,17.9,0L139.2,151.3z"/>
	<path class="st16" d="M146.2,149.6l2-14l6.6,1.2c-0.6,3.3-2,6.3-4.2,9c-0.3,0.3-0.6,0.7-0.8,1C148.7,147.9,147.5,148.9,146.2,149.6
		z"/>
	<path class="st21" d="M116.1,151.8c0.8-0.1,1.5-0.2,2.1-0.5c0.7-0.3,1.4-0.7,1.8-1.2c0.5-0.9,0.9-1.7,1.3-2.6
		c-0.4-0.1-0.9-0.1-1.3-0.2c0,0-0.1,0-0.2,0c-1.4-0.2-2.7-0.5-4-0.7c-3.6-0.7-6.6-1.5-9-2.3c-0.1,0-0.3-0.1-0.4-0.1
		c0.1,0.1,0.1,0.3,0.2,0.4c0.5,0.8,0.9,1.7,1.3,2.6c0,0,0,0,0,0c0.4,1,0.8,2.1,1.1,3.3c0.1,0.2,0.1,0.5,0.2,0.7
		C112,151.7,114.2,151.9,116.1,151.8z"/>
	<path class="st16" d="M165,58.6c0.4-1.3,1.3-1.9,2.7-1.8l9.3,0.7c1.4,0.1,1.9,0.8,1.4,2.1l-2.2,7c-0.1-0.6-0.1-1-0.2-1.4
		c-0.4-2.8-1.5-4.8-3.3-5.9c-0.6,0.4-0.9,0.8-0.8,1.4c0.1,0.4,0.3,1,0.7,1.8c0.5,0.8,0.7,1.4,0.8,1.9c0.1,0.7-0.2,1.3-0.8,1.7
		c-1.1,0.3-2.8,0.1-4.9-0.7c-1.9-0.7-3.4-1.1-4.4-1.1L165,58.6z"/>
	<path class="st16" d="M162.9,65.3c0.3,0.5,1,0.9,1.9,1.2c1,0.4,1.8,0.7,2.3,1.1c0.4,0.2,0.6,0.5,0.7,0.7c-0.8,0.2-1.9-0.1-3.2-0.9
		c-0.8-0.6-1.5-1-2-1.2l0-0.1L162.9,65.3z"/>
	<path class="st16" d="M161.9,71.1c0.2,0.7,0.4,1.3,0.4,1.8c1.2,0.7,3.4,1.5,6.6,2.5c1.5,0.5,2.8,1,3.9,1.5
		c-0.5,0.9-1.3,1.4-2.5,1.3l-9.3-0.7c-1.4-0.1-1.9-0.8-1.4-2.1l1.8-5.6C161.5,70.1,161.7,70.6,161.9,71.1z"/>
	<path class="st22" d="M82.1,125.7l-0.4-0.3l-0.4-0.2l-0.6-0.6l-0.5-0.9l35.8,7c0.7,0.1,0.9-0.2,0.5-0.9l-0.4-0.7l1.3,0.3
		c0.1,0,0.1,0,0.2,0l0.5,0.9h0l1.9-0.2h0l10.9-2c-0.1,0.3-0.2,0.5-0.2,0.8c-0.1,0.3-0.1,0.6,0,0.9l-9.9,1.8l-0.6,0.1
		c-0.9,0.2-1.7,0.2-2.3,0.1c-0.1,0-0.1-0.1-0.2-0.1l-23.7-4L83.5,126L82.1,125.7z"/>
	<path class="st22" d="M143.7,126.7c-0.1,0.5-0.5,0.9-1,1l-4.6-0.9l5.4-1h0.2L143.7,126.7z"/>
	<path class="st23" d="M117.5,129.4l-1.3-0.3L103,103c-0.4-0.7-0.9-1.1-1.6-1.3L67,95.1l-0.3-0.5c-0.4-0.7-0.2-1,0.5-0.9l35.8,7
		c0.7,0.1,1.2,0.6,1.6,1.3l8.8,17.5l0.6,1.1l4,8c0.3,0.6,0.2,0.9-0.3,0.9C117.6,129.4,117.6,129.4,117.5,129.4z"/>
	<path class="st23" d="M91.4,117.3c-1.3,0.1-2.6-0.2-3.8-1c-1.2-0.8-2.1-1.8-2.5-3c-0.5-1.2-0.4-2.3,0.2-3.2
		c0.6-0.9,1.5-1.5,2.8-1.6c1.3-0.1,2.5,0.2,3.8,1c1.3,0.8,2.1,1.8,2.6,3c0.5,1.2,0.4,2.3-0.2,3.2C93.7,116.6,92.7,117.1,91.4,117.3z
		"/>
	<path class="st9" d="M23.2,223.7c-1.1,0.9-2.1,1.4-2.9,1.7c-0.8,0.2-1.5,0.6-2.2,1.4c-0.5,0.6-0.9,1.3-1.1,2.2
		c-0.3,1.6,0.2,2.8,1.4,3.5c0,0,0.1,0,0.1,0c4.2,0.3,8.6-0.9,13.3-3.7c2.8-1.6,4.9-3.3,6.4-4.9c0.6-0.6,1.1-1.3,1.4-1.9
		c-1.1,0.5-2.4,1.1-4,1.8c-0.6,0.2-1.2,0.5-1.8,0.7c-0.1-0.2-0.2-0.4-0.4-0.6c0-0.1-0.1-0.1-0.1-0.2c-0.4-0.5-0.8-1.2-1.4-2.1
		c-0.8-1.2-1.5-2.1-2.1-2.7c-1.1,0.1-2.7,1.2-4.6,3.1C24.5,222.5,23.8,223.2,23.2,223.7z"/>
	<path class="st9" d="M94.2,220.9c1.1,0.3,1.9,0.5,2.3,0.5c4.6,0,8.1-3.3,10.6-9.8c1.7-4.3,2.5-8.2,2.5-11.6c0-0.3,0-0.7-0.1-1
		c-0.3,0.8-0.8,2.3-1.6,4.5c-0.7,1.9-1.2,3.4-1.4,4.5c-0.5-0.1-1.2-0.2-2-0.5c-0.6-0.2-1.2-0.3-2-0.6c-1.9-0.5-3.1-0.9-3.8-1.1
		c-0.9-0.2-1.3,0.2-1.4,1.2c0,0.6,0,1.5,0,2.6c1.1-0.2,2.4-0.1,3.9,0.1c0.6,0.1,1.8,0.5,3.8,1c-0.1,0.7-0.6,1.3-1.5,1.8
		c-0.9,0.5-1.9,0.8-3,0.8c-1.1,0.1-2-0.2-2.6-0.6c-0.5-0.4-0.8-0.9-0.8-1.5c-0.1,0.6-0.4,1.3-0.7,2.2c-0.3,0.7-0.8,1.8-1.5,3.3
		C94.2,218.3,94,219.7,94.2,220.9z"/>
	<path class="st24" d="M97.3,209.6c1.1-0.2,2.4-0.1,3.9,0.1c0.6,0.1,1.8,0.5,3.8,1c-0.1,0.7-0.6,1.3-1.5,1.8c-0.9,0.5-1.9,0.8-3,0.8
		c-1.1,0.1-2-0.2-2.6-0.6c-0.5-0.4-0.8-0.9-0.8-1.5L97.3,209.6z"/>
	<path class="st24" d="M25.9,224.6c-0.4-0.3-0.6-0.6-0.7-1c-0.1-0.2,0-0.5,0-0.8c0.3-0.6,1.1-1.1,2.5-1.6c0.9,0.7,1.7,1.5,2.3,2.2
		c0.5,0.6,0.9,1.3,1.2,2c-1,0.3-1.9,0.4-2.9,0.2C27.2,225.5,26.4,225.1,25.9,224.6z"/>
	<path class="st25" d="M118.1,108.5c0.2,0.1,0.4,0.3,0.6,0.4c3.9,2.3,10.7,2.6,20.2,0.8c-0.1-0.5-0.3-1.2-0.4-1.9
		c-0.7-2.8-1.2-4.5-1.5-5.2c-1-2.1-3.1-4.1-6.3-6c-0.3-0.1-0.5-0.3-0.8-0.4c-1-0.2-2.6-0.8-4.7-1.7c-0.4-0.2-0.8-0.4-1.2-0.5
		c-1-0.2-2.1-0.4-3.1-0.5c-0.5,0-1,0-1.5,0c-0.4,0-1.2,0.4-2.5,1.2c-0.2,0.1-0.4,0.2-0.6,0.3c0.3,1.2,0.9,2.9,1.6,5
		C118.9,103.4,119,106.2,118.1,108.5z"/>
	<path class="st25" d="M126.2,56.2c-1.4-0.1-2.4-0.2-3-0.2c-0.1,0-0.3,0-0.4,0c-1.6,1.9-3,4.7-4.1,8.5c-1.5,5-2.5,8-3,9
		c-0.4,0.6-1,1.5-1.9,2.8c-0.8,1.1-1.4,2.1-1.8,3c-0.2,0.4-0.3,0.9-0.5,1.3v0.1c0,0.1-0.1,0.1-0.1,0.2v0c0,0,0,0,0,0.1
		c-0.2,0.8-0.3,1.5-0.3,2.2c1.7-0.5,4.6-1.2,8.6-2.1c2.7-0.6,5-1.2,6.8-1.7c0.1,0,0.1,0,0.2,0c0.8-0.3,1.5-0.5,2.2-0.7
		c1-0.3,1.9-0.6,2.7-0.9c0.6-0.3,1.2-0.6,1.7-0.8c2.1-1.7,4.5-3.1,7.2-4.1c1.2-2.4,3.2-4.9,6-7.4c1.9-1.5,3.5-2.4,4.8-2.9
		c0.1,0,0.2,0.1,0.4,0.1c-0.6-0.2-1.3-0.3-2.1-0.5c-1.3-0.3-2.4-0.6-3.1-0.9c-1,1.2-2.8,3.1-5.2,5.8c-4.6,4.7-7.7,7-9.3,7
		c-0.9,0-1.8-0.9-2.9-2.7c-1.1-1.8-1.8-2.7-2-2.7c-0.2,0-0.8,0.3-1.8,1c-0.7,0.5-1.4,0.8-1.9,1c-0.2,0-0.3,0.1-0.4,0.1
		c-1.1,0-1.6-0.5-1.6-1.6c0-2.1,0.8-4.7,2.5-8.1c0.6-1.1,1.2-2.3,2-3.6C125.8,56.7,126,56.4,126.2,56.2z"/>
	<path class="st25" d="M132,84.4c-0.2,0.1-0.3,0.2-0.5,0.2c-1,0.5-2.6,1.3-4.6,2.3l-3.4,1.6c-0.2,0.1-0.4,0.2-0.5,0.2
		c1,0.3,2.1,0.8,3.1,1.5c1.4,0.9,2.9,1.5,4.3,1.8l1.5,0.3c0.2,0,0.4,0,0.5,0c2.2,0.1,3.9-0.1,5.1-0.8c1.2-0.7,2.1-2.9,2.4-6.6
		c-0.4-0.8-0.6-1.7-0.8-2.6c0-0.2-0.1-0.3-0.1-0.5c-1.1,0.1-2.1,0.3-2.9,0.7c-0.6,0.2-1.3,0.5-2,0.8C133.5,83.7,132.8,84.1,132,84.4
		z"/>
	<path class="st25" d="M139,109.8c-0.1-0.5-0.3-1.2-0.4-1.9c-0.7-2.8-1.2-4.5-1.5-5.2c-1-2.1-3.1-4.1-6.3-6
		c-0.3-0.1-0.5-0.3-0.8-0.4c-1-0.2-2.6-0.8-4.7-1.7c-0.4-0.2-0.8-0.4-1.2-0.5c-1-0.2-2.1-0.4-3.1-0.5c-0.5,0-1-0.1-1.5-0.1
		c-0.4,0-1.2,0.4-2.5,1.2c-0.2,0.1-0.4,0.2-0.6,0.3c0-0.1,0-0.1,0-0.1c0-0.1-0.1-0.2-0.1-0.3c-0.1-0.3-0.2-0.7-0.3-1
		c-0.2-0.6-0.3-1.2-0.4-1.8c3.3-1.3,5.8-2.3,7.4-3.1c1,0.3,2.1,0.8,3.1,1.5c1.4,0.9,2.9,1.5,4.3,1.8l1.5,0.3c0.2,0,0.4,0,0.5,0
		c2.2,0.1,3.9-0.1,5.1-0.8c1.2-0.7,2.1-2.9,2.4-6.6c-0.4-0.8-0.6-1.7-0.8-2.6c0-0.2-0.1-0.3-0.1-0.5c1.1-0.1,2.5-0.1,3.9,0
		c1,0.1,1.9,0.1,2.8,0.1c1.9,0,3.3-0.2,4.3-0.5c0.6-0.3,1.1-0.7,1.5-1.3c0.3,0,0.7,0,1,0c-0.8,1.2-1.6,2.5-2.4,4.1
		c-0.8,1.4-1.5,3-2.3,4.6c-0.7,1.4-1.5,3.3-2.6,5.7c-0.5,1-0.9,2.1-1.5,3.3c-0.9,2.5-0.9,5.2,0.1,8.1c0.3,0.8,0.6,1.7,1.1,2.6
		C142.9,109,140.9,109.4,139,109.8z"/>
	<path class="st25" d="M146.5,65.1c1.9-1.5,3.5-2.4,4.8-2.9c0.1,0,0.2,0.1,0.4,0.1l0.6,0.1c0.3,0.1,0.6,0.2,0.8,0.3h0.1
		c-1.1,1.5-2.1,3.2-3,5.3c0,0.1-0.1,0.1-0.1,0.2l-0.1,0.1c-0.2,0.5-0.5,1.3-0.9,2.3c-1.1,0.1-2.1,0.2-3.1,0.4h0
		c-1.9,0.3-3.7,0.8-5.3,1.4C141.7,70.1,143.7,67.7,146.5,65.1z"/>
	<path class="st25" d="M123.8,62.1C123.8,62.1,123.8,62.1,123.8,62.1c-0.6,1.7-1.2,3.8-1.9,6.4c0.4-0.1,1-0.4,1.7-0.8
		c0.2-0.1,0.4-0.2,0.6-0.3c1-0.7,1.7-1.1,2.2-1.3c0.3,0.1,0.6,0.3,0.9,0.4c0.8,0.5,1.6,1.3,2.2,2.4c0.5,0.8,1.2,2.1,2.2,3.7
		c4-3.8,6.2-6,6.8-6.4c2.7-2.3,5.2-4.1,7.7-5.3l0.2,0.1c0.1,0,0.1,0,0.1,0.1c-1,1.2-2.8,3.1-5.2,5.8c-4.6,4.7-7.7,7-9.3,7
		c-0.9,0-1.8-0.9-2.9-2.7c-1.1-1.8-1.8-2.7-2-2.7c-0.2,0-0.8,0.3-1.8,1c-0.7,0.5-1.4,0.8-1.9,1c-0.2,0-0.3,0.1-0.4,0.1
		c-1.1,0-1.6-0.5-1.6-1.6c0-2.1,0.8-4.7,2.5-8.1c0.6-1.1,1.2-2.3,2-3.6c0.2-0.3,0.4-0.6,0.6-0.9c0.2,0,0.4,0,0.7,0
		C125.7,57.8,124.6,59.8,123.8,62.1z"/>
	<g>
		<path class="st26" d="M132.3,199.4l4.3-30l1.7-11.6l0.4-3.1l0.5-3.3l1.4-9.9l1-7.2l-8.1-1.5c-0.9-0.2-1.6-0.6-2.1-1.4
			c-0.3-0.5-0.5-1-0.6-1.6c0-0.3,0-0.6,0-0.9c0.1-0.3,0.1-0.6,0.2-0.8c0.2-0.5,0.6-1,1.1-1.3c0.8-0.5,1.6-0.7,2.5-0.5l3.3,0.6
			l4.6,0.9l4.9,0.9l7.5,1.4l13.7,2.5l9.4,1.7l1.9,0.4c0.1,0,0.2,0,0.3,0l0.1,0c0.2,0,0.4,0.1,0.6,0.1l5.6,1l0,0l6.9,1.8
			c0,0,0,0,0.1,0.1c0.1,0.1,0.2,0.3,0.3,0.4c0,0,0,0,0,0c0.8,1.1,2,3.4-1.1,4.8c-0.4,0.2-0.8,0.4-1.3,0.4l-3.7-0.5l0,0l-0.1,0
			l-4.4-0.8v19.1v47.1v1.2c0,0.9-0.3,1.7-1,2.4c-0.7,0.7-1.4,1-2.4,1c-0.9,0-1.7-0.3-2.4-1c-0.7-0.7-1-1.4-1-2.4v-2.3v-44.7v-18.6
			v-3l-9.2-1.7l-12.8-2.4l-6.6-1.2l-2,14l-0.5,3.3l-0.5,3.7l-1.7,11.6l-4.6,32.4l-2.7,18.8c-0.1,0.9-0.6,1.6-1.3,2.2
			c-0.7,0.5-1.6,0.8-2.5,0.6c-0.9-0.1-1.6-0.6-2.2-1.3c-0.5-0.7-0.8-1.6-0.6-2.5L132.3,199.4z"/>
		<path class="st26" d="M118.8,197.5L118.8,197.5L118.8,197.5l0,1.8c0,0.9-0.3,1.7-1,2.4c-0.7,0.7-1.4,1-2.4,1c-0.9,0-1.7-0.3-2.4-1
			c-0.2-0.2-0.3-0.4-0.5-0.6c0.1-0.5,0.3-0.9,0.4-1.2c0.7-1.9,0.6-3.9-0.5-5.8c-0.2-0.3-0.3-0.6-0.5-0.8V168l6.7,1.1V197.5z"/>
		<path class="st26" d="M64.9,208.3l0.3-1.8l1.3-9c2-1.7,3.7-3.7,5.1-5.9c1.6-2.4,2.8-5,3.6-7.8l-3.1,21.6l-0.6,3.9
			c-0.1,0.9-0.6,1.6-1.3,2.2c-0.7,0.5-1.6,0.8-2.5,0.6c-0.9-0.1-1.6-0.6-2.2-1.3C65,210,64.8,209.2,64.9,208.3z"/>
		<path class="st26" d="M77,124.2l-8.1-1.5c-0.9-0.2-1.6-0.6-2.1-1.4c-0.5-0.8-0.7-1.6-0.5-2.5c0.2-0.9,0.6-1.6,1.4-2.1
			c0.8-0.5,1.6-0.7,2.5-0.5l6,1.1l2.6,5.2c0.4,0.7,0.9,1.1,1.6,1.3l0.5,0.9l0.6,0.6l0.4,0.2l0.4,0.3l1.3,0.2l-2.9,20.6l-1.1,0.2
			l-5.8,1L77,124.2z"/>
	</g>
	<g>
		<polygon class="st27" points="175.7,151.2 176.7,143.8 176.7,162.4 143.5,168.2 145.2,156.6 		"/>
		<polygon class="st27" points="185.2,160.9 183.4,161.2 183.4,142.1 187.8,142.9 		"/>
		<path class="st27" d="M182.8,101.1c3.5-6.5,7.4-9.5,11.8-9.1c0.2,0,0.4,0,0.6,0.1l-3.4,24c0,0,0,0,0,0l-0.4,2.4c0,0,0,0,0,0
			l-0.3,1.8c0,0,0,0,0,0l-0.6,3.9l0,0l-0.2,1.2h0l-0.6,4.4c0,0,0,0,0,0l-0.6,4.3l0,0l-0.3,2.3l-10.3-2.1l-0.3-0.1L182.8,101.1z"/>
		<path class="st27" d="M150.6,145.8c2.2-2.7,3.6-5.7,4.2-9l12.8,2.4c-1.1,3.3-3.1,6.5-5.8,9.7l-12-2.1
			C150,146.5,150.3,146.1,150.6,145.8z"/>
		<path class="st27" d="M110,155.1l15.9,2.8c-2.4,1.8-3.6,5.8-3.4,11.9l-3.7-0.6l-6.7-1.1l-2.2-0.4c0.1-0.9,0.1-1.4,0.1-1.4
			C110.4,162,110.4,158.3,110,155.1z"/>
		<path class="st27" d="M145.3,94.6l27.4,4.7c-4.4,2.2-8.5,5.8-12.4,10.8c-3.1,4.2-4.8,8.7-4.9,13.5c0,0.6,0,1.2,0,1.8h12.3
			c0.7,2.4,1,4.8,1,7.1l-13.7-2.5c-0.1-2.1-0.5-4.1-1.1-6.2c-1.1-4.2-3.2-7.9-6.2-11.1c-0.3-0.4-0.7-0.7-1-1.1
			c-0.7-1.1-1.3-2.1-1.8-3.1c-0.4-0.9-0.8-1.7-1.1-2.6c-1-2.9-1-5.6-0.1-8.1C144.3,96.7,144.8,95.6,145.3,94.6z"/>
		<path class="st27" d="M94.7,161.9c0.1,0.8,0.3,1.6,0.4,2.4c0.1,0.2,0.1,0.5,0.2,0.7l-0.6-0.1C94.6,163.9,94.6,162.8,94.7,161.9z"
			/>
		<path class="st27" d="M131.9,158.9l6.4-1.1l-1.7,11.6l-8.1,1.4C128.3,164.7,129.5,160.7,131.9,158.9z"/>
	</g>
</g>
</svg>
