<?xml version="1.0" encoding="utf-8"?>
<!-- Generator: Adobe Illustrator 25.4.1, SVG Export Plug-In . SVG Version: 6.00 Build 0)  -->
<svg version="1.0" id="Layer_1" xmlns="http://www.w3.org/2000/svg" xmlns:xlink="http://www.w3.org/1999/xlink" x="0px" y="0px"
	 viewBox="0 0 76.7 70.9" style="enable-background:new 0 0 76.7 70.9;" xml:space="preserve">
<style type="text/css">
	.st0{fill:none;stroke:#FFFFFF;stroke-width:2;stroke-miterlimit:10;}
	.st1{fill:#7CB25F;stroke:#FFFFFF;stroke-width:2;stroke-miterlimit:10;}
	.st2{fill:#4973B6;stroke:#FFFFFF;stroke-width:2;stroke-miterlimit:10;}
	.st3{fill:none;stroke:#BCC0C4;stroke-width:2;stroke-miterlimit:10;}
</style>
<line class="st0" x1="37.8" y1="18" x2="33.8" y2="18"/>
<line class="st0" x1="47.8" y1="18" x2="51.8" y2="18"/>
<path class="st1" d="M35.7,39c1.8,0,5.2,2,6.3,2c3.8,0,3.8,0,5.8,0c1.2,0,2.2,0.4,2.8,1.1l0.2-0.1l5.4-2.6c0.2-0.3,0.4-0.7,0.6-1V13
	h-28v26C31,39,35,39,35.7,39z"/>
<path class="st0" d="M36.8,48c0,0,9,0,11,0c5,0,5-7,0-7c-2,0-2,0-5.8,0c-1.1,0-4.5-2-6.3-2c-0.8,0-5.6,0-7.4,0
	c-1.9,0-4.2,0.6-5.5,1.9c-2.1,2.1-7.3,7-7.9,7.5c3.3,2.8,10.1,9.3,11.6,10.6c2-2,2.8-3.9,4.5-3.9c1.7,0,16.6,0,18.3,0
	c1.5,0,9.8-7.6,10.9-8.8c1-1.1,6.5-8.2,7.7-11.1c-0.8-1.1-2.9-1.5-5.4-0.9c-2.4,0.6-4.5,2-6.2,5.2L50.8,42"/>
<rect x="15" y="44.4" transform="matrix(0.707 -0.7072 0.7072 0.707 -33.1266 30.1226)" class="st2" width="9.6" height="21.3"/>
<line class="st0" x1="14.4" y1="50" x2="17.1" y2="52.6"/>
<line class="st3" x1="64.8" y1="19" x2="64.8" y2="21"/>
<line class="st3" x1="64.8" y1="23" x2="64.8" y2="25"/>
<line class="st3" x1="63.8" y1="22" x2="61.8" y2="22"/>
<line class="st3" x1="67.8" y1="22" x2="65.8" y2="22"/>
<line class="st3" x1="58.8" y1="58" x2="55.8" y2="58"/>
<line class="st3" x1="65.8" y1="58" x2="62.8" y2="58"/>
<line class="st3" x1="60.8" y1="60" x2="60.8" y2="63"/>
<line class="st3" x1="60.8" y1="53" x2="60.8" y2="56"/>
<line class="st3" x1="15.8" y1="21" x2="13.8" y2="23"/>
<line class="st3" x1="20.8" y1="16" x2="18.8" y2="18"/>
<line class="st3" x1="18.8" y1="21" x2="20.8" y2="23"/>
<line class="st3" x1="13.8" y1="16" x2="15.8" y2="18"/>
<path class="st0" d="M49.8,18v-7.2c0-3.2-3.7-5.8-7-5.8c-3.3,0-7,2.5-7,5.8V18"/>
</svg>
