<?xml version="1.0" encoding="utf-8"?>
<!-- Generator: Adobe Illustrator 25.4.1, SVG Export Plug-In . SVG Version: 6.00 Build 0)  -->
<svg version="1.0" id="Layer_1" xmlns="http://www.w3.org/2000/svg" xmlns:xlink="http://www.w3.org/1999/xlink" x="0px" y="0px"
	 viewBox="0 0 76.7 70.9" style="enable-background:new 0 0 76.7 70.9;" xml:space="preserve">
<style type="text/css">
	.st0{opacity:0.3;fill:#4973B6;}
	.st1{fill:#4973B6;}
	.st2{fill:none;stroke:#000000;stroke-width:2;stroke-miterlimit:10;}
	.st3{fill:#FFFFFF;stroke:#000000;stroke-width:2;stroke-miterlimit:10;}
	.st4{fill:none;stroke:#BCC0C4;stroke-width:2;stroke-miterlimit:10;}
</style>
<g>
	<polygon class="st0" points="39.2,47.5 56.2,38.5 39.2,29.5 22.2,38.5 	"/>
	<polygon class="st1" points="22.2,47.5 22.2,57 39.2,66.5 57.2,57 57.2,47.5 	"/>
	<polyline class="st2" points="57.2,47.5 57.2,57 39.2,66.5 22.2,57 22.2,47.5 	"/>
	<polygon class="st3" points="13.2,45.5 30.2,54.5 39.2,48.5 39.2,47.5 22.2,38.5 13.2,44.5 	"/>
	<polygon class="st3" points="65.2,45.5 48.2,54.5 39.2,48.5 39.2,47.5 56.2,38.5 65.2,44.5 	"/>
	<polygon class="st3" points="13.2,31.5 30.2,22.5 30.2,34.2 22.2,38.5 13.2,32.5 	"/>
	<polygon class="st3" points="65.2,31.5 48.2,22.5 48.2,34.5 56.2,38.5 65.2,32.5 	"/>
	<line class="st2" x1="39.2" y1="48.5" x2="39.2" y2="66.5"/>
	<line class="st4" x1="61.2" y1="18.5" x2="58.2" y2="18.5"/>
	<line class="st4" x1="68.2" y1="18.5" x2="65.2" y2="18.5"/>
	<line class="st4" x1="63.2" y1="20.5" x2="63.2" y2="23.5"/>
	<line class="st4" x1="63.2" y1="13.5" x2="63.2" y2="16.5"/>
	<line class="st4" x1="15.2" y1="12.5" x2="13.2" y2="14.5"/>
	<line class="st4" x1="20.2" y1="7.5" x2="18.2" y2="9.5"/>
	<line class="st4" x1="18.2" y1="12.5" x2="20.2" y2="14.5"/>
	<line class="st4" x1="13.2" y1="7.5" x2="15.2" y2="9.5"/>
	<line class="st4" x1="10.2" y1="19.5" x2="10.2" y2="21.5"/>
	<line class="st4" x1="10.2" y1="23.5" x2="10.2" y2="25.5"/>
	<line class="st4" x1="9.2" y1="22.5" x2="7.2" y2="22.5"/>
	<line class="st4" x1="13.2" y1="22.5" x2="11.2" y2="22.5"/>
	<line class="st2" x1="30.2" y1="19.5" x2="30.2" y2="38.5"/>
	<line class="st2" x1="42.2" y1="15.5" x2="42.2" y2="36.5"/>
	<path class="st2" d="M56.2,11.5c0-2.2-1.8-4-4-4c-2.2,0-4,1.8-4,4v27"/>
	<path class="st2" d="M28.7,10.5c-0.3-0.6-0.5-1.3-0.5-2c0-2.2,1.8-4,4-4c2.2,0,4,1.8,4,4v33"/>
	<line class="st2" x1="30.2" y1="15.5" x2="30.2" y2="17.5"/>
	<line class="st2" x1="42.2" y1="13.5" x2="42.2" y2="11.5"/>
	<line class="st2" x1="42.2" y1="9.5" x2="42.2" y2="7.5"/>
	<line class="st2" x1="42.2" y1="38.5" x2="42.2" y2="40.5"/>
</g>
</svg>
