<?xml version="1.0" encoding="utf-8"?>
<!-- Generator: Adobe Illustrator 27.0.0, SVG Export Plug-In . SVG Version: 6.00 Build 0)  -->
<svg version="1.1" id="Layer_1" xmlns="http://www.w3.org/2000/svg" xmlns:xlink="http://www.w3.org/1999/xlink" x="0px" y="0px"
	 viewBox="0 0 62 62" style="enable-background:new 0 0 62 62;" xml:space="preserve">
<style type="text/css">
	.st0{opacity:0.2;fill:#4B90B7;}
	.st1{fill:#FFFFFF;}
	.st2{fill:#A8E2E2;}
	.st3{fill:none;stroke:#295675;stroke-width:1.9032;stroke-miterlimit:10;}
	.st4{fill:#FFFFFF;stroke:#295675;stroke-width:1.9032;stroke-miterlimit:10;}
	.st5{fill:#00FB15;}
</style>
<g>
	<circle class="st0" cx="19.1" cy="22.9" r="17.6"/>
	<g>
		<path class="st1" d="M52.1,16.7H10.4c-2.6,0-4.2,1.9-4.2,4.4V50h50.4V21.2C56.7,18.7,54.7,16.7,52.1,16.7z M53.6,49.9H9.9V20.4
			h43.8V49.9z"/>
		<rect x="9.9" y="20.4" class="st2" width="43.8" height="29.5"/>
	</g>
	<path class="st3" d="M52.1,16.7c2.6,0,4.6,2,4.6,4.4V50H6.3V21.2c0-2.5,1.6-4.4,4.2-4.4H52.1z"/>
	<path class="st4" d="M60.5,50h-59V51c0,3.3,2.7,6.7,6,6.7h46.9c3.3,0,6-3.3,6-6.7V50z"/>
	<line class="st3" x1="27.2" y1="53.8" x2="37.7" y2="53.8"/>
	<polyline class="st3" points="10.1,47.2 10.1,20.5 19.6,20.5 44.3,20.5 52.9,20.5 52.9,47.2 	"/>
	<path class="st4" d="M60.5,7.2v15.3c0,1.5-1.3,2.8-2.8,2.8H42.3l-5.8,7.4c-0.6,0.7-1.7,0.3-1.7-0.6v-6.8h-1.9
		c-1.6,0-2.9-1.3-2.9-2.9V7.2c0-1.6,1.3-2.9,2.9-2.9h24.7C59.2,4.4,60.5,5.6,60.5,7.2z"/>
	<line class="st3" x1="40.5" y1="14.8" x2="42.4" y2="14.8"/>
	<line class="st3" x1="44.3" y1="14.8" x2="46.2" y2="14.8"/>
	<line class="st3" x1="48.1" y1="14.8" x2="50" y2="14.8"/>
	<path class="st4" d="M24.3,34.8c2.3,0,3.8-1.9,3.8-4.2v-1.4c0-2.3-1.5-4.2-3.8-4.2c-2.3,0-3.8,1.9-3.8,4.2v1.4
		C20.5,33,22,34.8,24.3,34.8z"/>
	<path class="st5" d="M22.4,37.7c-4.5,0-6.7,1.4-6.7,5.7v3.8H30v-4.8h5.7c2.9,0,4.8-2.6,4.8-4.8C39,37.7,24.2,37.7,22.4,37.7z"/>
	<path class="st3" d="M30,47.2v-4.8h5.7c2.9,0,4.8-2.6,4.8-4.8c-1.5,0-16.3,0-18.1,0c-4.5,0-6.7,1.4-6.7,5.7v3.8"/>
	<line class="st3" x1="20.5" y1="42.4" x2="20.5" y2="47.2"/>
</g>
</svg>
