<?xml version="1.0" encoding="utf-8"?>
<!-- Generator: Adobe Illustrator 26.5.0, SVG Export Plug-In . SVG Version: 6.00 Build 0)  -->
<svg version="1.1" id="Layer_1" xmlns="http://www.w3.org/2000/svg" xmlns:xlink="http://www.w3.org/1999/xlink" x="0px" y="0px"
	 viewBox="0 0 150 150" style="enable-background:new 0 0 150 150;" xml:space="preserve">
<style type="text/css">
	.st0{opacity:0.2;fill:#4B90B7;}
	.st1{fill:#FFFFFF;}
	.st2{fill:#A8E2E2;}
	.st3{fill:none;stroke:#295675;stroke-width:4.5161;stroke-miterlimit:10;}
	.st4{fill:#FFFFFF;stroke:#295675;stroke-width:4.5161;stroke-miterlimit:10;}
	.st5{fill:#00FB15;}
</style>
<g>
	<circle class="st0" cx="46.8" cy="55.8" r="41.8"/>
	<g>
		<path class="st1" d="M125,41.1H26.2c-6.2,0-9.9,4.5-9.9,10.5v68.5H136V51.7C136,45.9,131.2,41.1,125,41.1z M128.7,119.9H24.8v-70
			h103.9V119.9z"/>
		<rect x="24.8" y="49.9" class="st2" width="103.9" height="70"/>
	</g>
	<path class="st3" d="M125,41.1c6.2,0,10.9,4.7,10.9,10.5v68.5H16.3V51.7c0-6,3.7-10.5,9.9-10.5H125z"/>
	<path class="st4" d="M145,120.2H5v2.2c0,7.9,6.4,15.8,14.3,15.8h111.4c7.9,0,14.3-7.9,14.3-15.8V120.2z"/>
	<line class="st3" x1="66" y1="129.2" x2="90.8" y2="129.2"/>
	<polyline class="st3" points="25.3,113.4 25.3,50.2 47.9,50.2 106.6,50.2 126.9,50.2 126.9,113.4 	"/>
	<path class="st4" d="M145,18.5v36.2c0,3.7-3,6.7-6.7,6.7h-36.5L88.1,78.9c-1.3,1.7-4,0.7-4-1.4V61.5h-4.5c-3.7,0-6.8-3.1-6.8-6.8
		V18.5c0-3.7,3-6.8,6.8-6.8h58.7C142,11.8,145,14.8,145,18.5z"/>
	<line class="st3" x1="97.6" y1="36.6" x2="102.1" y2="36.6"/>
	<line class="st3" x1="106.6" y1="36.6" x2="111.1" y2="36.6"/>
	<line class="st3" x1="115.6" y1="36.6" x2="120.2" y2="36.6"/>
	<path class="st4" d="M59.2,84.1c5.5,0,9-4.5,9-10v-3.3c0-5.5-3.6-10-9-10c-5.5,0-9,4.5-9,10v3.3C50.2,79.7,53.7,84.1,59.2,84.1z"/>
	<path class="st5" d="M54.7,90.8c-10.7,0-15.8,3.4-15.8,13.5v9h33.9v-11.3h13.5c6.8,0,11.3-6.3,11.3-11.3
		C94.1,90.8,58.8,90.8,54.7,90.8z"/>
	<path class="st3" d="M72.7,113.4v-11.3h13.5c6.8,0,11.3-6.3,11.3-11.3c-3.5,0-38.7,0-42.9,0c-10.7,0-15.8,3.4-15.8,13.5v9"/>
	<line class="st3" x1="50.2" y1="102.1" x2="50.2" y2="113.4"/>
</g>
</svg>
