<?xml version="1.0" encoding="utf-8"?>
<!-- Generator: Adobe Illustrator 25.4.1, SVG Export Plug-In . SVG Version: 6.00 Build 0)  -->
<svg version="1.0" id="Layer_1" xmlns="http://www.w3.org/2000/svg" xmlns:xlink="http://www.w3.org/1999/xlink" x="0px" y="0px"
	 viewBox="0 0 76.7 70.9" style="enable-background:new 0 0 76.7 70.9;" xml:space="preserve">
<style type="text/css">
	.st0{fill:none;stroke:#BCC0C4;stroke-width:2;stroke-miterlimit:10;}
	.st1{fill:#E9EAEB;}
	.st2{fill:none;stroke:#000000;stroke-width:2;stroke-miterlimit:10;}
	.st3{fill:#4973B6;}
	.st4{fill:#FFFFFF;}
	.st5{fill:#7CB25F;stroke:#000000;stroke-width:2;stroke-miterlimit:10;}
</style>
<line class="st0" x1="13.9" y1="14.8" x2="11.9" y2="16.8"/>
<line class="st0" x1="18.9" y1="9.8" x2="16.9" y2="11.8"/>
<line class="st0" x1="16.9" y1="14.8" x2="18.9" y2="16.8"/>
<line class="st0" x1="11.9" y1="9.8" x2="13.9" y2="11.8"/>
<line class="st0" x1="62.9" y1="4.8" x2="62.9" y2="6.8"/>
<line class="st0" x1="62.9" y1="8.8" x2="62.9" y2="10.8"/>
<line class="st0" x1="61.9" y1="7.8" x2="59.9" y2="7.8"/>
<line class="st0" x1="65.9" y1="7.8" x2="63.9" y2="7.8"/>
<polyline class="st0" points="52.9,9.8 52.9,6.8 31.9,6.8 31.9,15.8 "/>
<rect x="27.9" y="18.8" class="st1" width="18" height="7"/>
<polyline class="st2" points="45.9,25.8 45.9,18.8 27.9,18.8 27.9,25.8 "/>
<polygon class="st3" points="38.9,12.8 38.9,18.8 45.9,18.8 45.9,25.8 58.9,25.8 58.9,12.8 "/>
<polyline class="st2" points="58.9,25.8 58.9,12.8 38.9,12.8 38.9,18.8 45.9,18.8 45.9,25.8 "/>
<path class="st4" d="M61.9,28.8h-43l9,21h26c2.1,0,4-1.3,4.6-3.3L63.6,31C63.9,30,62.9,28.8,61.9,28.8z"/>
<path class="st2" d="M22.9,28.8h39c1.1,0,2.1,1.1,1.8,2.1l-5.1,15.5c-0.7,2-2.5,3.3-4.6,3.3h-26"/>
<line class="st0" x1="33.9" y1="31.8" x2="33.9" y2="45.8"/>
<line class="st0" x1="41.9" y1="31.8" x2="41.9" y2="45.8"/>
<line class="st0" x1="49.9" y1="31.8" x2="49.9" y2="45.8"/>
<line class="st0" x1="52.9" y1="41.8" x2="30.9" y2="41.8"/>
<line class="st0" x1="54.9" y1="35.8" x2="27.9" y2="35.8"/>
<path class="st2" d="M55.9,56.8h-23c-1.3,0-2.4-0.7-3-2c-0.7-1.4-8.9-20.5-11.9-27.5c-0.7-1.5-2.2-2.5-3.9-2.5H6.9"/>
<circle class="st5" cx="30.9" cy="62.8" r="3"/>
<path class="st5" d="M56.9,62.8c0,1.7-1.3,3-3,3c-1.7,0-3-1.3-3-3s1.3-3,3-3C55.6,59.8,56.9,61.2,56.9,62.8z"/>
</svg>
