<?xml version="1.0" encoding="utf-8"?>
<!-- Generator: Adobe Illustrator 27.0.1, SVG Export Plug-In . SVG Version: 6.00 Build 0)  -->
<svg version="1.1" id="Layer_1" xmlns="http://www.w3.org/2000/svg" xmlns:xlink="http://www.w3.org/1999/xlink" x="0px" y="0px"
	 viewBox="0 0 62 62" style="enable-background:new 0 0 62 62;" xml:space="preserve">
<style type="text/css">
	.st0{opacity:0.2;fill:#4B90B7;}
	.st1{fill:#FFFFFF;}
	.st2{fill:#A8E2E2;}
	.st3{fill:#00FB15;stroke:#295675;stroke-width:1.871;stroke-miterlimit:10;}
	.st4{fill:none;stroke:#295675;stroke-width:1.871;stroke-miterlimit:10;}
</style>
<g>
	
		<ellipse transform="matrix(0.7051 -0.7091 0.7091 0.7051 -16.6793 28.4401)" class="st0" cx="25.9" cy="34.3" rx="23.9" ry="23.9"/>
	<path class="st1" d="M52.5,18.8V7.6c0-2.1-1.7-3.7-3.7-3.7H25.4c-2.1,0-3.7,1.7-3.7,3.7v4.7H8.5c-2.1,0-3.7,1.7-3.7,3.7v16.8
		c0,2.1,1.7,3.7,3.7,3.7h3.7v6.1c0,0.8,1,1.3,1.6,0.7l6.5-6.8h6.8l0,0v2.8c0,2.1,1.7,3.7,3.7,3.7h14.3l6.5,6.8
		c0.6,0.6,1.6,0.2,1.6-0.7v-6.1h2.8c2.1,0,3.7-1.7,3.7-3.7V22.6c0-2.1-1.7-3.7-3.7-3.7H52.5z"/>
	<path class="st2" d="M52.5,18.8v4.7c0,2-1.7,3.7-3.7,3.7h-1.9v6.5H46l-6.5-6.5h-4.7v-8.4H52.5z"/>
	<path class="st3" d="M8.5,12.3H31c2.1,0,3.7,1.7,3.7,3.7v16.8c0,2.1-1.7,3.7-3.7,3.7H20.4l-6.5,6.8c-0.6,0.6-1.6,0.2-1.6-0.7v-6.1
		H8.5c-2.1,0-3.7-1.7-3.7-3.7V16C4.8,14,6.5,12.3,8.5,12.3z"/>
	<path class="st4" d="M21.6,15.1v8.4c0,2.1,1.7,3.7,3.7,3.7h6.5"/>
	<path class="st4" d="M52.5,18.8V7.6c0-2.1-1.7-3.7-3.7-3.7H25.4c-2.1,0-3.7,1.7-3.7,3.7v4.7"/>
	<path class="st4" d="M27.3,36.6v2.8c0,2.1,1.7,3.7,3.7,3.7h14.3l6.5,6.8c0.6,0.6,1.6,0.2,1.6-0.7v-6.1h2.8c2.1,0,3.7-1.7,3.7-3.7
		V22.6c0-2.1-1.7-3.7-3.7-3.7H34.7"/>
	<line class="st4" x1="27.3" y1="27.3" x2="27.3" y2="33.8"/>
	<path class="st4" d="M31.9,18.8H31c-2.1,0-3.7,1.7-3.7,3.7v1.9"/>
	<path class="st4" d="M34.7,27.3h4.7l5.9,6.6c0.6,0.6,1.6,0.2,1.6-0.6l0-6h1.8c2.1,0,3.7-1.7,3.7-3.7v-1.9"/>
</g>
</svg>
