<?xml version="1.0" encoding="utf-8"?>
<!-- Generator: Adobe Illustrator 25.4.1, SVG Export Plug-In . SVG Version: 6.00 Build 0)  -->
<svg version="1.0" id="Layer_1" xmlns="http://www.w3.org/2000/svg" xmlns:xlink="http://www.w3.org/1999/xlink" x="0px" y="0px"
	 viewBox="0 0 76.7 70.9" style="enable-background:new 0 0 76.7 70.9;" xml:space="preserve">
<style type="text/css">
	.st0{fill:#7CB35F;}
	.st1{fill:none;stroke:#FFFFFF;stroke-width:2;stroke-miterlimit:10;}
	.st2{fill:#1C51A5;}
</style>
<g>
	<path class="st0" d="M66.4,12.5h-32c-1.7,0-3,1.3-3,3v3v8v9c0,1.7,1.3,3,3,3h32c1.7,0,3-1.3,3-3v-20C69.4,13.8,68,12.5,66.4,12.5z"
		/>
	<path class="st1" d="M31.4,23.5v-8c0-1.7,1.3-3,3-3h32c1.7,0,3,1.3,3,3v20c0,1.7-1.3,3-3,3h-32c-1.7,0-3-1.3-3-3v-9"/>
	<path class="st1" d="M66.4,15.5L53.9,26.2c-1,0.8-2.2,1.3-3.5,1.3l0,0c-1.3,0-2.5-0.5-3.5-1.3L34.4,15.5"/>
	<line class="st1" x1="55.4" y1="24.5" x2="66.4" y2="35.5"/>
	<line class="st1" x1="45.4" y1="24.5" x2="40.4" y2="29.5"/>
	<path class="st2" d="M42.4,32.5h-32c-1.7,0-3,1.3-3,3v20c0,1.7,1.3,3,3,3h32c1.7,0,3-1.3,3-3v-20C45.4,33.8,44,32.5,42.4,32.5z"/>
	<path class="st1" d="M45.4,45.5v-10l0,0c0-1.7-1.3-3-3-3h-32c-1.7,0-3,1.3-3,3v20c0,1.7,1.3,3,3,3h32c1.7,0,3-1.3,3-3v-6"/>
	<path class="st1" d="M41.4,35.5L29.9,46.2c-1,0.8-2.2,1.3-3.5,1.3l0,0c-1.3,0-2.5-0.5-3.5-1.3L10.4,35.5"/>
	<line class="st1" x1="31.4" y1="44.5" x2="42.4" y2="55.5"/>
	<line class="st1" x1="20.9" y1="45" x2="10.4" y2="55.5"/>
	<line class="st1" x1="35.4" y1="23.5" x2="23.4" y2="23.5"/>
	<line class="st1" x1="27.4" y1="12.5" x2="16.4" y2="12.5"/>
	<line class="st1" x1="41.4" y1="46.5" x2="53.4" y2="46.5"/>
	<line class="st1" x1="49.4" y1="58.5" x2="60.4" y2="58.5"/>
	<line class="st1" x1="14.4" y1="12.5" x2="12.4" y2="12.5"/>
	<line class="st1" x1="10.4" y1="12.5" x2="8.4" y2="12.5"/>
	<line class="st1" x1="21.4" y1="23.5" x2="19.4" y2="23.5"/>
	<line class="st1" x1="62.4" y1="58.5" x2="64.4" y2="58.5"/>
	<line class="st1" x1="66.4" y1="58.5" x2="68.4" y2="58.5"/>
	<line class="st1" x1="54.4" y1="46.5" x2="56.4" y2="46.5"/>
</g>
</svg>
