<?xml version="1.0" encoding="utf-8"?>
<!-- Generator: Adobe Illustrator 25.4.1, SVG Export Plug-In . SVG Version: 6.00 Build 0)  -->
<svg version="1.0" id="Layer_1" xmlns="http://www.w3.org/2000/svg" xmlns:xlink="http://www.w3.org/1999/xlink" x="0px" y="0px"
	 viewBox="0 0 76.7 70.9" style="enable-background:new 0 0 76.7 70.9;" xml:space="preserve">
<style type="text/css">
	.st0{fill:none;stroke:currentColor;stroke-width:2;stroke-linecap:round;stroke-linejoin:round;stroke-miterlimit:10;}
	.st1{fill:none;stroke:#BCC0C4;stroke-width:2;stroke-linecap:round;stroke-linejoin:round;stroke-miterlimit:10;}
	.st2{fill:#3B967C;stroke:currentColor;stroke-width:2;stroke-linecap:round;stroke-linejoin:round;stroke-miterlimit:10;}
	.st3{fill:none;stroke:currentColor;stroke-width:2.4585;stroke-linecap:round;stroke-linejoin:round;stroke-miterlimit:10;}
</style>
<g>
	<path class="st0" d="M32.3,60.9c-0.5-0.2-0.9-0.4-1.4-0.6c-11.7-5.2-19.3-17-19.3-30.1V13.7l3.7-1.5c6.4-2.6,13.7-3,17.4-3
		c0,0,1.4,0,1.8,0c0.4,0,1.8,0,1.8,0c3.7,0,11,0.4,17.4,3l3.7,1.5v16.6c0,13.1-7.6,24.9-19.3,30.1c-0.4,0.2-0.9,0.4-1.4,0.6
		l-2.2,0.9L32.3,60.9z"/>
	<path class="st1" d="M33.3,15.1c-2.8,0-9.8,0.2-15.7,2.6v12.6c0,10.6,6.1,20.4,15.7,24.6c0.4,0.2,0.8,0.3,1.2,0.5
		c0.4-0.2,0.8-0.3,1.2-0.5c9.7-4.3,15.7-14.1,15.7-24.6V17.7c-5.9-2.4-12.9-2.6-15.7-2.6C35,15.1,34.1,15.1,33.3,15.1z"/>
	<circle class="st2" cx="52.3" cy="39.4" r="12.8"/>
	<polyline class="st3" points="46.6,39.3 49.9,42.7 58.1,34.5 	"/>
</g>
</svg>
