<?xml version="1.0" encoding="utf-8"?>
<!-- Generator: Adobe Illustrator 27.0.1, SVG Export Plug-In . SVG Version: 6.00 Build 0)  -->
<svg version="1.1" id="Layer_1" xmlns="http://www.w3.org/2000/svg" xmlns:xlink="http://www.w3.org/1999/xlink" x="0px" y="0px"
	 viewBox="0 0 419.9 241.4" style="enable-background:new 0 0 419.9 241.4;" xml:space="preserve">
<style type="text/css">
	.st0{opacity:0.2;fill:#4B90B7;enable-background:new    ;}
	.st1{opacity:0.8;fill:#42EBC0;}
	.st2{fill:url(#SVGID_1_);}
	.st3{fill:#00FB15;}
	.st4{opacity:0.47;fill:#13AA19;}
	.st5{fill:#9DFB15;}
	.st6{opacity:0.6;fill:#42EBC0;}
	.st7{opacity:0.4;fill:#42EBC0;}
	.st8{fill:none;stroke:#00FB15;stroke-width:4.9812;stroke-miterlimit:10;}
	.st9{fill:none;stroke:#FFFFFF;stroke-width:4.9812;stroke-miterlimit:10;}
	.st10{fill:none;stroke:#A8E2E2;stroke-width:4.9812;stroke-miterlimit:10;}
</style>
<circle class="st0" cx="297.5" cy="117.5" r="113.2"/>
<g>
	<g>
		<path class="st1" d="M203.4,196.4h-89.1c-6,0-11-4.9-11-11v0c0-6,4.9-11,11-11h53.5c2.8-2,4.6-5.3,4.6-8.9v0
			c0-2.8-1.1-5.4-2.8-7.3h-69.3c-6,0-11-4.9-11-11v0c0-6,4.9-11,11-11h40.8c3.1-1.9,5.2-5.4,5.2-9.3v0c0-6-4.9-10.9-11-10.9h-119
			c-6,0-11,4.9-11,10.9v0c0,6,4.9,11,11,11h38.8c6.1,3.8,6.2,12.8,0.2,16.7H42.5c-6,0-11,4.9-11,10.9v0c0,6,4.9,11,11,11h40.6
			c6.7,4,6.3,14.2-1,17.5h-4.5c-6,0-11,4.9-11,11v0c0,6,4.9,10.9,11,10.9h119c6,0,11-4.9,11-10.9v0
			C207.5,201.4,205.9,198.4,203.4,196.4z"/>
		<g>
			<linearGradient id="SVGID_1_" gradientUnits="userSpaceOnUse" x1="214.2865" y1="103.1157" x2="214.8715" y2="230.0723">
				<stop  offset="0" style="stop-color:#00FB15"/>
				<stop  offset="1" style="stop-color:#00BA80"/>
			</linearGradient>
			<path class="st2" d="M291,230.1H138.2c-11,0-19.9-8.9-19.9-19.9V123c0-11,8.9-19.9,19.9-19.9H291c11,0,19.9,8.9,19.9,19.9v87.3
				C310.8,221.2,301.9,230.1,291,230.1z"/>
			<path class="st3" d="M307,111.4c-3.3-4.4-8.3-8.3-14.3-8.3H136.5c-4.1,0-8,1.4-11,3.7l90.7,54.8L307,111.4z"/>
			<path class="st4" d="M303.6,107c-3.9-3.1-4.8,3.5-10.8,3.1H136.5c-4.1,0-7.9-5.5-10.9-3.1l74.9,63.8c8.8,6.7,20.9,6.6,29.6-0.1
				L303.6,107z"/>
			<path class="st5" d="M303.6,106.8c-3.9-3.1-4.9-3.4-10.9-3.7H136.5c-4.1,0-8,1.4-11,3.7l75,56.9c8.8,6.7,20.9,6.6,29.6-0.1
				L303.6,106.8z"/>
		</g>
		<path class="st6" d="M48.8,213.9H24.3c-4.8,0-8.6-3.9-8.6-8.6v0c0-4.8,3.9-8.6,8.6-8.6h24.5c4.8,0,8.6,3.9,8.6,8.6v0
			C57.4,210.1,53.5,213.9,48.8,213.9z"/>
		<circle class="st7" cx="12.8" cy="165.3" r="8.2"/>
	</g>
</g>
<g>
	<line class="st8" x1="299.5" y1="73" x2="299.5" y2="87.9"/>
	<line class="st8" x1="292" y1="80.4" x2="307" y2="80.4"/>
</g>
<g>
	<line class="st9" x1="339" y1="141" x2="339" y2="155.9"/>
	<line class="st9" x1="331.5" y1="148.4" x2="346.5" y2="148.4"/>
</g>
<g>
	<line class="st10" x1="331.5" y1="102.9" x2="326.6" y2="107.9"/>
	<line class="st10" x1="344" y1="90.5" x2="339" y2="95.4"/>
	<line class="st10" x1="339" y1="102.9" x2="344" y2="107.9"/>
	<line class="st10" x1="326.6" y1="90.5" x2="331.5" y2="95.4"/>
</g>
</svg>
