<?xml version="1.0" encoding="utf-8"?>
<!-- Generator: Adobe Illustrator 27.0.0, SVG Export Plug-In . SVG Version: 6.00 Build 0)  -->
<svg version="1.1" id="Layer_1" xmlns="http://www.w3.org/2000/svg" xmlns:xlink="http://www.w3.org/1999/xlink" x="0px" y="0px"
	 viewBox="0 0 62 62" style="enable-background:new 0 0 62 62;" xml:space="preserve">
<style type="text/css">
	.st0{opacity:0.2;fill:#4B90B7;}
	.st1{fill:#A8E2E2;}
	.st2{fill:none;stroke:#A8E2E2;stroke-width:2;stroke-miterlimit:10;}
	.st3{fill:none;stroke:#295675;stroke-width:2;stroke-miterlimit:10;}
	.st4{fill:#00FB15;}
	.st5{fill:#FFFFFF;stroke:#295675;stroke-width:2;stroke-miterlimit:10;}
</style>
<g>
	<polygon class="st0" points="57.5,35.9 57.5,47.9 31.5,59.9 6.5,48.9 6.5,40.9 8.5,39.9 30,49.4 	"/>
	<polygon class="st1" points="43,25.4 57,32.4 60,34.4 59,36.4 57,37.4 33,48.4 29,48.4 8,39.4 7,40.4 7,50.4 3,46.4 2,40.4 4,36.4 
		34,23.4 	"/>
	<g>
		<line class="st2" x1="51.5" y1="9.9" x2="51.5" y2="15.9"/>
		<line class="st2" x1="54.5" y1="12.9" x2="48.5" y2="12.9"/>
		<line class="st2" x1="5.5" y1="16.9" x2="5.5" y2="22.9"/>
		<line class="st2" x1="8.5" y1="19.9" x2="2.5" y2="19.9"/>
		<line class="st3" x1="57.5" y1="44.9" x2="57.5" y2="36.9"/>
		<path class="st3" d="M59.5,46.9L31.9,59.8c-0.7,0.3-1.5,0.3-2.1,0L6,49"/>
		<path class="st3" d="M6.1,49.3c-2.1-0.9-3.6-2.6-3.6-4.9v-4c0-2.1,1.4-4.1,3.2-4.9L31.2,24c2.5-1.1,5.4-1.1,7.9,0l19.8,8.9
			c1.5,0.7,1.5,2.8,0,3.5L31.4,48.9c-0.8,0.3-1.6,0.3-2.4,0L9,39.8c-1.3-0.6-2.5,0.3-2.5,1.6v4.5"/>
		<path class="st4" d="M29.6,12.9c0.3,0.1,0.7,0.2,1,0.2c0.5,0.1,1.1,0,1.9-0.2c0.9-0.2,2-0.4,3.3-0.4c1,0,2,0.1,3.1,0.4
			c2.2,0.6,3.9,2,5,4c1.6,2.9,1.7,7,0.4,11.3c-1.5,5-5.3,8.8-9.5,9.5c-0.3,0.1-0.7,0.1-1,0.1c-0.9,0-1.9-0.2-2.6-0.5
			c-0.7-0.2-1.4-0.2-2,0c-0.8,0.3-1.7,0.5-2.6,0.5h0c-0.3,0-0.7,0-1-0.1c-4.2-0.7-8-4.6-9.5-9.5c-2.8-9.1,1.2-13.2,5.1-14.9
			c1.4-0.6,2.8-0.9,4.4-0.9"/>
		<path class="st3" d="M29.6,12.9c0.3,0.1,0.7,0.2,1,0.2c0.5,0.1,1.1,0,1.9-0.2c0.9-0.2,2-0.4,3.3-0.4c1,0,2,0.1,3.1,0.4
			c2.2,0.6,3.9,2,5,4c1.6,2.9,1.7,7,0.4,11.3c-1.5,5-5.3,8.8-9.5,9.5c-0.3,0.1-0.7,0.1-1,0.1c-0.9,0-1.9-0.2-2.6-0.5
			c-0.7-0.2-1.4-0.2-2,0c-0.8,0.3-1.7,0.5-2.6,0.5h0c-0.3,0-0.7,0-1-0.1c-4.2-0.7-8-4.6-9.5-9.5c-2.8-9.1,1.2-13.2,5.1-14.9
			c1.4-0.6,2.8-0.9,4.4-0.9"/>
		<path class="st3" d="M18.9,23.2c0-2.8,1-4.6,2.4-5.9 M19.6,27.4c-0.3-0.8-0.4-1.6-0.5-2.3"/>
		<path class="st3" d="M26.4,15.4c2.4,2.4,6.3,2.4,8.8,0"/>
		<path class="st5" d="M36.6,9.5c-2,3.3-6.3,4.4-6.3,4.4s-1-4.3,1-7.6c2-3.3,6.3-4.4,6.3-4.4S38.6,6.2,36.6,9.5z"/>
		<path class="st3" d="M30.5,16.7c0-2.7-1.1-6.1-4.4-8.8"/>
		<circle class="st2" cx="11.5" cy="5.9" r="3"/>
	</g>
</g>
</svg>
