<?xml version="1.0" encoding="utf-8"?>
<!-- Generator: Adobe Illustrator 27.0.0, SVG Export Plug-In . SVG Version: 6.00 Build 0)  -->
<svg version="1.1" id="Layer_1" xmlns="http://www.w3.org/2000/svg" xmlns:xlink="http://www.w3.org/1999/xlink" x="0px" y="0px"
	 viewBox="0 0 62 62" style="enable-background:new 0 0 62 62;" xml:space="preserve">
<style type="text/css">
	.st0{opacity:0.2;fill:#4B90B7;}
	.st1{fill:none;stroke:#00FB15;stroke-width:1.934;stroke-miterlimit:10;}
	.st2{fill:none;stroke:#A8E2E2;stroke-width:1.934;stroke-miterlimit:10;}
	.st3{fill:none;stroke:#FFFFFF;stroke-width:1.934;stroke-miterlimit:10;}
	.st4{fill:#00FB15;}
	.st5{fill:none;stroke:#295675;stroke-width:1.934;stroke-miterlimit:10;}
	.st6{fill:#A8E2E2;}
	.st7{fill:#FFFFFF;}
	.st8{fill:#A8E2E2;stroke:#295675;stroke-width:1.934;stroke-miterlimit:10;}
</style>
<g>
	
		<ellipse transform="matrix(0.6837 -0.7297 0.7297 0.6837 -21.4684 26.9547)" class="st0" cx="20.4" cy="38.2" rx="18.4" ry="18.4"/>
	<line class="st1" x1="6.8" y1="40.2" x2="3.9" y2="40.2"/>
	<line class="st1" x1="13.6" y1="40.2" x2="10.7" y2="40.2"/>
	<line class="st1" x1="8.8" y1="42.1" x2="8.8" y2="45"/>
	<line class="st1" x1="8.8" y1="35.3" x2="8.8" y2="38.2"/>
	<line class="st2" x1="9.7" y1="11.2" x2="7.8" y2="13.1"/>
	<line class="st2" x1="14.6" y1="6.3" x2="12.6" y2="8.3"/>
	<line class="st2" x1="12.6" y1="11.2" x2="14.6" y2="13.1"/>
	<line class="st2" x1="7.8" y1="6.3" x2="9.7" y2="8.3"/>
	<line class="st3" x1="57.1" y1="1.5" x2="57.1" y2="3.4"/>
	<line class="st3" x1="57.1" y1="5.4" x2="57.1" y2="7.3"/>
	<line class="st3" x1="56.1" y1="4.4" x2="54.2" y2="4.4"/>
	<line class="st3" x1="60" y1="4.4" x2="58.1" y2="4.4"/>
	<polyline class="st3" points="47.4,6.3 47.4,3.4 27.1,3.4 27.1,12.1 	"/>
	<rect x="23.3" y="15" class="st4" width="17.4" height="6.8"/>
	<polyline class="st5" points="40.7,21.8 40.7,15 23.3,15 23.3,21.8 	"/>
	<polygon class="st6" points="33.9,9.2 33.9,15 40.7,15 40.7,21.8 53.2,21.8 53.2,9.2 	"/>
	<polyline class="st5" points="53.2,21.8 53.2,9.2 33.9,9.2 33.9,15 40.7,15 40.7,21.8 	"/>
	<path class="st7" d="M56.1,24.7H14.6L23.3,45h25.2c2,0,3.8-1.3,4.5-3.2l4.9-15C58.2,25.8,57.2,24.7,56.1,24.7z"/>
	<path class="st5" d="M18.4,24.7h37.7c1,0,2,1.1,1.7,2.1l-4.9,15c-0.6,1.9-2.4,3.2-4.5,3.2H23.3"/>
	<line class="st2" x1="29.1" y1="27.6" x2="29.1" y2="41.1"/>
	<line class="st2" x1="36.8" y1="27.6" x2="36.8" y2="41.1"/>
	<line class="st2" x1="44.5" y1="27.6" x2="44.5" y2="41.1"/>
	<line class="st2" x1="47.4" y1="37.3" x2="26.2" y2="37.3"/>
	<line class="st2" x1="49.4" y1="31.5" x2="23.3" y2="31.5"/>
	<path class="st5" d="M50.3,51.8H28.1c-1.2,0-2.3-0.6-2.9-1.9c-0.6-1.4-8.6-19.8-11.5-26.6c-0.6-1.5-2.1-2.4-3.7-2.4H3"/>
	<circle class="st8" cx="26.2" cy="57.6" r="2.9"/>
	<path class="st8" d="M51.4,57.6c0,1.6-1.3,2.9-2.9,2.9c-1.6,0-2.9-1.3-2.9-2.9s1.3-2.9,2.9-2.9C50.1,54.7,51.4,56,51.4,57.6z"/>
</g>
</svg>
