<?xml version="1.0" encoding="utf-8"?>
<!-- Generator: Adobe Illustrator 27.0.0, SVG Export Plug-In . SVG Version: 6.00 Build 0)  -->
<svg version="1.1" id="Layer_1" xmlns="http://www.w3.org/2000/svg" xmlns:xlink="http://www.w3.org/1999/xlink" x="0px" y="0px"
	 viewBox="0 0 62 62" style="enable-background:new 0 0 62 62;" xml:space="preserve">
<style type="text/css">
	.st0{opacity:0.2;fill:#4B90B7;}
	.st1{fill:#A8E2E2;}
	.st2{fill:#00FB15;}
	.st3{fill:none;stroke:#295675;stroke-width:1.9032;stroke-miterlimit:10;}
	.st4{fill:#FFFFFF;stroke:#295675;stroke-width:1.9032;stroke-miterlimit:10;}
	.st5{fill:none;stroke:#A8E2E2;stroke-width:1.9032;stroke-miterlimit:10;}
	.st6{fill:none;stroke:#FFFFFF;stroke-width:1.9032;stroke-miterlimit:10;}
	.st7{fill:none;stroke:#00FB15;stroke-width:1.9032;stroke-miterlimit:10;}
</style>
<g>
	<circle class="st0" cx="31.5" cy="26.2" r="20"/>
	<polygon class="st1" points="32.4,42.4 48.6,33.9 32.4,25.3 16.2,33.9 	"/>
	<polyline class="st2" points="32.4,60.5 49.6,51.5 49.6,42.4 16.2,42.4 16.2,51.5 32.4,60.5 	"/>
	<polyline class="st3" points="32.4,60.5 16.2,51.5 16.2,42.4 	"/>
	<polyline class="st3" points="49.6,42.4 49.6,51.5 32.4,60.5 	"/>
	<polygon class="st4" points="7.7,40.5 23.9,49.1 32.4,43.4 32.4,42.4 16.2,33.9 7.7,39.6 	"/>
	<polygon class="st4" points="57.2,40.5 41,49.1 32.4,43.4 32.4,42.4 48.6,33.9 57.2,39.6 	"/>
	<polygon class="st4" points="7.7,27.2 23.9,18.6 23.9,29.8 16.2,33.9 7.7,28.1 	"/>
	<polygon class="st4" points="57.2,27.2 41,18.6 41,30 48.6,33.9 57.2,28.1 	"/>
	<line class="st3" x1="32.4" y1="43.4" x2="32.4" y2="60.5"/>
	<line class="st5" x1="53.4" y1="14.8" x2="50.5" y2="14.8"/>
	<line class="st5" x1="60" y1="14.8" x2="57.2" y2="14.8"/>
	<line class="st5" x1="55.3" y1="16.7" x2="55.3" y2="19.6"/>
	<line class="st5" x1="55.3" y1="10.1" x2="55.3" y2="12.9"/>
	<line class="st5" x1="9.6" y1="9.1" x2="7.7" y2="11"/>
	<line class="st5" x1="14.3" y1="4.4" x2="12.4" y2="6.3"/>
	<line class="st5" x1="12.4" y1="9.1" x2="14.3" y2="11"/>
	<line class="st5" x1="7.7" y1="4.4" x2="9.6" y2="6.3"/>
	<line class="st6" x1="4.8" y1="15.8" x2="4.8" y2="17.7"/>
	<line class="st6" x1="4.8" y1="19.6" x2="4.8" y2="21.5"/>
	<line class="st6" x1="3.9" y1="18.6" x2="2" y2="18.6"/>
	<line class="st6" x1="7.7" y1="18.6" x2="5.8" y2="18.6"/>
	<line class="st3" x1="23.9" y1="15.8" x2="23.9" y2="33.9"/>
	<line class="st3" x1="35.3" y1="12" x2="35.3" y2="32"/>
	<path class="st3" d="M48.6,8.2c0-2.1-1.7-3.8-3.8-3.8c-2.1,0-3.8,1.7-3.8,3.8v25.7"/>
	<path class="st3" d="M22.5,7.2C22.1,6.7,22,6,22,5.3c0-2.1,1.7-3.8,3.8-3.8s3.8,1.7,3.8,3.8v31.4"/>
	<line class="st7" x1="23.9" y1="12" x2="23.9" y2="13.9"/>
	<line class="st7" x1="35.3" y1="10.1" x2="35.3" y2="8.2"/>
	<line class="st6" x1="35.3" y1="6.3" x2="35.3" y2="4.4"/>
	<line class="st3" x1="35.3" y1="33.9" x2="35.3" y2="35.8"/>
</g>
</svg>
