<?xml version="1.0" encoding="utf-8"?>
<!-- Generator: Adobe Illustrator 28.2.0, SVG Export Plug-In . SVG Version: 6.00 Build 0)  -->
<svg version="1.1" id="Layer_1" xmlns="http://www.w3.org/2000/svg" xmlns:xlink="http://www.w3.org/1999/xlink" x="0px" y="0px"
	 viewBox="0 0 20 20" style="enable-background:new 0 0 20 20;" xml:space="preserve">
<style type="text/css">
	.st0{fill: currentColor;}
</style>
<path class="st0" d="M15.5,9.7C15.4,8.3,14.9,7,13.8,6c-1-1-2.3-1.6-3.8-1.7v-1c0.9,0,1.7,0.2,2.5,0.6c0.8,0.3,1.4,0.8,2,1.4
	c0.6,0.6,1,1.3,1.4,2c0.3,0.8,0.5,1.6,0.6,2.5H15.5z M12.5,9.7c-0.1-0.7-0.3-1.2-0.8-1.7c-0.5-0.5-1-0.7-1.7-0.8v-1
	c0.9,0.1,1.7,0.4,2.4,1.1c0.7,0.7,1,1.5,1.1,2.4C13.5,9.7,12.5,9.7,12.5,9.7z M15.3,16.4c-1.5-0.1-2.9-0.5-4.2-1.2
	c-1.4-0.7-2.6-1.5-3.7-2.7c-1.1-1.1-2-2.3-2.6-3.7c-0.7-1.4-1-2.8-1.2-4.2c0-0.3,0.1-0.5,0.3-0.8C4,3.7,4.3,3.6,4.6,3.6h2.1
	c0.3,0,0.5,0.1,0.6,0.2c0.2,0.1,0.3,0.3,0.4,0.6l0.4,1.7c0,0.2,0,0.3,0,0.5C8,6.7,7.9,6.9,7.8,7L5.9,8.8c0.3,0.6,0.7,1.1,1,1.6
	c0.4,0.5,0.8,1,1.2,1.4c0.4,0.4,0.9,0.8,1.4,1.2c0.5,0.4,1.1,0.7,1.7,1l2-1.9c0.1-0.1,0.2-0.2,0.3-0.2c0.1,0,0.3,0,0.4,0l1.6,0.4
	c0.3,0.1,0.5,0.2,0.6,0.4c0.1,0.2,0.2,0.4,0.2,0.7v2c0,0.3-0.1,0.5-0.3,0.7C15.9,16.3,15.6,16.4,15.3,16.4z"/>
</svg>
