<?xml version="1.0" encoding="utf-8"?>
<!-- Generator: Adobe Illustrator 26.5.0, SVG Export Plug-In . SVG Version: 6.00 Build 0)  -->
<svg version="1.1" id="Layer_1" xmlns="http://www.w3.org/2000/svg" xmlns:xlink="http://www.w3.org/1999/xlink" x="0px" y="0px"
	 viewBox="0 0 24 24" style="enable-background:new 0 0 24 24;" xml:space="preserve">
<style type="text/css">
	.st0{fill:#FFFFFF;}
	.st1{fill:#4D5152;}
	.st2{fill:#B8D376;}
	.st3{fill:#67DDE0;}
	.st4{fill:#4A6EB5;}
</style>
<polygon class="st0" points="20.8,23.5 3.2,23.5 3.2,0.5 17.6,0.5 20.8,3.6 "/>
<polygon class="st1" points="20.8,4 17.2,4 17.2,0.5 18,0.5 18,3.2 20.8,3.2 "/>
<path class="st1" d="M21.2,23.9H2.8V0.1h14.9l3.4,3.4V23.9z M3.6,23.1h16.7V3.8l-3-3H3.6V23.1z"/>
<path class="st2" d="M8.4,8.8c0,0.9-0.7,1.6-1.6,1.6c-0.9,0-1.6-0.7-1.6-1.6c0-0.9,0.7-1.6,1.6-1.6C7.7,7.2,8.4,7.9,8.4,8.8"/>
<polygon class="st1" points="6.8,9.8 5.7,8.7 6.3,8.1 6.8,8.7 8.1,7.3 8.7,7.9 "/>
<path class="st2" d="M8.4,13.6c0,0.9-0.7,1.6-1.6,1.6c-0.9,0-1.6-0.7-1.6-1.6c0-0.9,0.7-1.6,1.6-1.6C7.7,12,8.4,12.7,8.4,13.6"/>
<polygon class="st1" points="6.8,14.6 5.7,13.5 6.3,12.9 6.8,13.4 8.1,12.1 8.7,12.7 "/>
<path class="st3" d="M8.4,18.4c0,0.9-0.7,1.6-1.6,1.6c-0.9,0-1.6-0.7-1.6-1.6c0-0.9,0.7-1.6,1.6-1.6C7.7,16.8,8.4,17.5,8.4,18.4"/>
<rect x="10.8" y="7.6" class="st1" width="8" height="0.8"/>
<rect x="10.8" y="9.2" class="st1" width="4.8" height="0.8"/>
<rect x="10.8" y="12.4" class="st1" width="2.4" height="0.8"/>
<rect x="14" y="12.4" class="st1" width="4.8" height="0.8"/>
<rect x="10.8" y="14" class="st1" width="6.4" height="0.8"/>
<rect x="10.8" y="17.2" class="st1" width="8" height="0.8"/>
<rect x="10.8" y="18.8" class="st1" width="2.4" height="0.8"/>
<rect x="14" y="18.8" class="st1" width="2.4" height="0.8"/>
<rect x="5.2" y="2.1" class="st4" width="10.3" height="3.2"/>
<rect x="6" y="17.6" transform="matrix(0.7071 -0.7071 0.7071 0.7071 -10.5077 10.6738)" class="st1" width="3.2" height="0.8"/>
<polygon class="st1" points="8.4,19.4 6.2,17.2 6.8,16.6 9,18.8 "/>
</svg>
