<?xml version="1.0" encoding="utf-8"?>
<!-- Generator: Adobe Illustrator 27.0.0, SVG Export Plug-In . SVG Version: 6.00 Build 0)  -->
<svg version="1.1" id="Layer_1" xmlns="http://www.w3.org/2000/svg" xmlns:xlink="http://www.w3.org/1999/xlink" x="0px" y="0px"
	 viewBox="0 0 55 55" style="enable-background:new 0 0 55 55;" xml:space="preserve">
<style type="text/css">
	.st0{fill:#FFFFFF;}
	.st1{fill:#00FB15;}
	.st2{fill:#FFFFFF;stroke:#295675;stroke-width:1.7241;stroke-linecap:round;stroke-linejoin:round;stroke-miterlimit:10;}
	.st3{fill:none;stroke:#295675;stroke-width:1.7241;stroke-linecap:round;stroke-linejoin:round;stroke-miterlimit:10;}
	.st4{fill:#A8E2E2;stroke:#295675;stroke-width:1.7241;stroke-linecap:round;stroke-linejoin:round;stroke-miterlimit:10;}
</style>
<g>
	<polygon class="st0" points="20.1,36.1 13.6,49.1 24.4,49.1 30.8,36.1 	"/>
	<path class="st1" d="M15.7,30.9h-5.5c-3.9,0-6.6,1.7-6.6,6.6v4.7c0,2.9,2.3,5.2,5.2,5.2h5.6L20,36.1h2.2v-3
		C20.8,32.4,17.9,31,15.7,30.9z"/>
	<path class="st1" d="M27.4,44.7h-4l2.2-4.3h3.6c0.8,0,1.3,0.9,1,1.6l-0.8,1.5C29,44.3,28.2,44.7,27.4,44.7z"/>
	<polygon class="st1" points="13.6,49.1 14.5,47.3 8,47.3 8,52.5 20,52.5 20,49.1 	"/>
	<path class="st2" d="M13.1,27.5c2.5,0,4.3-2.2,4.3-4.8v-1.6c0-2.7-1.8-4.8-4.3-4.8c-2.5,0-4.3,2.2-4.3,4.8v1.6
		C8.8,25.3,10.7,27.5,13.1,27.5z"/>
	<path class="st3" d="M22.2,33.1c-1.5-0.8-4.3-2.1-6.6-2.2c-3.7,0-4.7,0-5.5,0c-3.9,0-6.6,1.7-6.6,6.6v4.7c0,2.9,2.3,5.2,5.2,5.2
		h5.6"/>
	<path class="st3" d="M8.8,37v4.1c0,0.6,0.3,0.9,1.8,1.3c1.4,0.4,5.6,1.4,5.6,1.4"/>
	<line class="st3" x1="8" y1="47.3" x2="8" y2="52.5"/>
	<line class="st3" x1="20" y1="49.1" x2="20" y2="52.5"/>
	<path class="st3" d="M27.4,44.7h-4l2.2-4.3h3.6c0.8,0,1.3,0.9,1,1.6l-0.8,1.5C29,44.3,28.2,44.7,27.4,44.7z"/>
	<line class="st3" x1="15.1" y1="38.5" x2="17.4" y2="41.4"/>
	<polyline class="st3" points="28.7,40.4 30.8,36.1 20.1,36.1 13.6,49.1 24.4,49.1 26.5,44.7 	"/>
	<path class="st4" d="M24.4,2.5h23.6c1.8,0,3.3,1.5,3.3,3.3v16.5c0,2.4-2,4.4-4.4,4.4H32.6l-4.2,6c-0.6,0.9-2,0.4-2-0.6v-5.3h-1.9
		c-1.8,0-3.3-1.5-3.3-3.3V5.8C21.2,4,22.6,2.5,24.4,2.5z"/>
	<polyline class="st2" points="42.7,15.4 42.7,21.5 29.8,21.5 29.8,8.5 39.3,8.5 	"/>
	<polyline class="st3" points="32.8,14.9 36.1,18.2 43.7,9.2 	"/>
</g>
</svg>
