<?xml version="1.0" encoding="utf-8"?>
<!-- Generator: Adobe Illustrator 26.5.0, SVG Export Plug-In . SVG Version: 6.00 Build 0)  -->
<svg version="1.1" id="Layer_1" xmlns="http://www.w3.org/2000/svg" xmlns:xlink="http://www.w3.org/1999/xlink" x="0px" y="0px"
	 viewBox="0 0 24 24" style="enable-background:new 0 0 24 24;" xml:space="preserve">
<style type="text/css">
	.st0{fill:#67DDE0;}
	.st1{fill:#FFFFFF;}
	.st2{fill:#4D5152;}
	.st3{fill:#ECEB96;}
	.st4{fill:#B8D376;}
	.st5{fill:#ACF0F2;}
	.st6{fill:#486EB4;}
</style>
<rect x="1.5" y="1.1" class="st0" width="16.3" height="22.5"/>
<rect x="3.4" y="1.1" class="st1" width="12.4" height="18.7"/>
<polygon class="st2" points="16.3,20.2 3.1,20.2 3.1,1.1 3.8,1.1 3.8,19.4 15.5,19.4 15.5,1.1 16.3,1.1 "/>
<path class="st2" d="M18.2,24H1.1V0.7h17.1V24z M1.9,23.3h15.5V1.5H1.9V23.3z"/>
<rect x="5.8" y="0.3" class="st3" width="7.8" height="3.1"/>
<path class="st2" d="M13.9,3.8H5.4V0h8.6V3.8z M6.2,3.1h7V0.7h-7V3.1z"/>
<rect x="20.2" y="11.6" class="st3" width="2.3" height="5.8"/>
<rect x="20.2" y="3.4" class="st4" width="2.3" height="8.2"/>
<rect x="20.2" y="1.1" class="st1" width="2.3" height="2.3"/>
<rect x="19.8" y="3.4" class="st2" width="0.8" height="14"/>
<rect x="22.1" y="3.4" class="st2" width="0.8" height="14"/>
<path class="st2" d="M22.9,3.8h-3.1V0.7h3.1V3.8z M20.6,3.1h1.6V1.5h-1.6V3.1z"/>
<polygon class="st5" points="22.5,17.4 22.5,19.4 21.3,20.6 20.2,19.4 20.2,17.4 "/>
<path class="st2" d="M21.3,21.1l-1.6-1.6v-2.5h3.1v2.5L21.3,21.1z M20.6,19.2l0.8,0.8l0.8-0.8v-1.4h-1.6V19.2z"/>
<rect x="20.9" y="0" class="st2" width="0.8" height="1.2"/>
<rect x="20.9" y="20.6" class="st2" width="0.8" height="0.8"/>
<rect x="20.9" y="14.7" class="st2" width="0.8" height="0.8"/>
<rect x="20.9" y="13.2" class="st2" width="0.8" height="0.8"/>
<rect x="7.7" y="21.3" class="st2" width="0.8" height="0.8"/>
<rect x="9.3" y="21.3" class="st2" width="0.8" height="0.8"/>
<rect x="10.8" y="21.3" class="st2" width="0.8" height="0.8"/>
<rect x="6.9" y="1.5" class="st2" width="5.4" height="0.8"/>
<path class="st6" d="M8.7,12.1c0-0.1,0-0.1,0-0.4c0-0.6,0.1-0.9,0.4-1.3c0.2-0.2,0.3-0.3,0.9-0.7c0.4-0.3,0.6-0.4,0.6-0.7
	c0-0.4-0.3-0.7-0.8-0.7c-0.4,0-0.7,0.1-0.8,0.4C8.8,8.9,8.8,9,8.7,9.3L7,9.1c0.1-0.6,0.2-1,0.6-1.3C8,7.2,8.8,6.9,9.8,6.9
	c1.6,0,2.6,0.8,2.6,2c0,0.5-0.2,0.9-0.5,1.3c-0.2,0.2-0.3,0.3-1.1,0.7c-0.4,0.2-0.5,0.5-0.5,0.9c0,0.1,0,0.2,0,0.3H8.7z M10.4,14.3
	H8.7v-1.6h1.8V14.3z"/>
</svg>
