<?xml version="1.0" encoding="utf-8"?>
<!-- Generator: Adobe Illustrator 27.0.0, SVG Export Plug-In . SVG Version: 6.00 Build 0)  -->
<svg version="1.1" id="Layer_1" xmlns="http://www.w3.org/2000/svg" xmlns:xlink="http://www.w3.org/1999/xlink" x="0px" y="0px"
	 viewBox="0 0 55 55" style="enable-background:new 0 0 55 55;" xml:space="preserve">
<style type="text/css">
	.st0{fill:#FFFFFF;stroke:#295675;stroke-width:0.9568;stroke-miterlimit:10;}
	.st1{fill:#A8E2E2;}
	.st2{fill:none;stroke:#295675;stroke-width:1.6949;stroke-miterlimit:10;}
	.st3{fill:#FFFFFF;stroke:#295675;stroke-width:1.6949;stroke-miterlimit:10;}
	.st4{fill:#00FB15;stroke:#295675;stroke-width:1.6949;stroke-miterlimit:10;}
	.st5{fill:none;stroke:#295675;stroke-width:1.6949;stroke-linecap:round;stroke-linejoin:round;stroke-miterlimit:10;}
</style>
<g>
	<path class="st0" d="M51.7,10.6H3.3c-0.5,0-0.8,0.4-0.8,0.8v32.2c0,0.5,0.4,0.8,0.8,0.8h48.3c0.5,0,0.8-0.4,0.8-0.8V11.4
		C52.5,10.9,52.1,10.6,51.7,10.6z"/>
	<path class="st1" d="M52.5,15.6v-4.2c0-0.5-0.4-0.8-0.8-0.8H3.3c-0.5,0-0.8,0.4-0.8,0.8v4.2H52.5z"/>
	<path class="st2" d="M51.7,10.6H3.3c-0.5,0-0.8,0.4-0.8,0.8v32.2c0,0.5,0.4,0.8,0.8,0.8h48.3c0.5,0,0.8-0.4,0.8-0.8V11.4
		C52.5,10.9,52.1,10.6,51.7,10.6z"/>
	<line class="st2" x1="4.2" y1="15.6" x2="50.8" y2="15.6"/>
	<line class="st2" x1="5" y1="13.1" x2="6.7" y2="13.1"/>
	<line class="st2" x1="8.4" y1="13.1" x2="10.1" y2="13.1"/>
	<line class="st2" x1="11.8" y1="13.1" x2="13.5" y2="13.1"/>
	<rect x="30.5" y="22.4" class="st3" width="15.2" height="15.3"/>
	<rect x="9.3" y="22.4" class="st4" width="15.3" height="15.3"/>
	<line class="st5" x1="34.7" y1="26.7" x2="41.5" y2="33.4"/>
	<line class="st5" x1="41.5" y1="26.7" x2="34.7" y2="33.4"/>
	<polyline class="st5" points="21.1,26.7 15.8,33.4 13.5,30 	"/>
</g>
</svg>
