<?xml version="1.0" encoding="utf-8"?>
<!-- Generator: Adobe Illustrator 27.0.0, SVG Export Plug-In . SVG Version: 6.00 Build 0)  -->
<svg version="1.1" id="Layer_1" xmlns="http://www.w3.org/2000/svg" xmlns:xlink="http://www.w3.org/1999/xlink" x="0px" y="0px"
	 viewBox="0 0 55 55" style="enable-background:new 0 0 55 55;" xml:space="preserve">
<style type="text/css">
	.st0{fill:none;stroke:#295675;stroke-width:1.6721;stroke-miterlimit:10;}
	.st1{fill:#FFFFFF;stroke:#295675;stroke-width:1.6721;stroke-miterlimit:10;}
	.st2{fill:#A8E2E2;stroke:#295675;stroke-width:1.6721;stroke-miterlimit:10;}
	.st3{fill:#00FB15;stroke:#295675;stroke-width:0.9439;stroke-miterlimit:10;}
	.st4{fill:#FFFFFF;stroke:#295675;stroke-width:0.9439;stroke-miterlimit:10;}
	.st5{fill:#A8E2E2;stroke:#295675;stroke-width:0.9439;stroke-miterlimit:10;}
</style>
<g>
	<polyline class="st0" points="50.5,7 53,7 53,22.9 50.5,22.9 	"/>
	<polyline class="st0" points="45.5,5.3 48,5.3 48,24.6 45.5,24.6 	"/>
	<polyline class="st0" points="4.5,7 2,7 2,22.9 4.5,22.9 	"/>
	<polyline class="st0" points="9.5,5.3 7,5.3 7,24.6 9.5,24.6 	"/>
	<rect x="12" y="3.7" class="st1" width="30.9" height="22.6"/>
	<circle class="st2" cx="35.4" cy="10.4" r="2.5"/>
	<polygon class="st3" points="32.1,16.2 29.2,19.1 22.9,12.9 12,23.7 12,26.2 42.1,26.2 	"/>
	<polyline class="st0" points="32.1,22.1 22.9,12.9 12,23.7 12,26.2 42.1,26.2 32.1,16.2 29.6,18.7 	"/>
	<path class="st4" d="M33.8,32.1h-1.7c0-0.9-0.9-1.7-1.7-1.7h-1.7c-0.3-0.5-1.1-0.8-1.7-0.8h-1.7v-6.7c0-0.9-0.7-1.7-1.7-1.7
		c-0.9,0-1.7,0.7-1.7,1.7v11.7l-1.1,1.1l-2.2-3.4c-1.3-1.8-3.4-0.8-3.4,0c0,0,2.5,8.1,2.9,8.7c0.6,0.9,3,3,3,3.7c0,0.7,0,3.3,0,3.3
		h12.5c0,0,0-1.4,0-2.5c0-1.1,1.7-2.5,1.7-4.2v-7.5C35.4,32.8,34.6,32.1,33.8,32.1z"/>
	<path class="st0" d="M25.4,29.6h1.7c0.5,0,1.4,0.3,1.7,0.8h1.7c0.8,0,1.7,0.7,1.7,1.7h1.7c0.8,0,1.7,0.7,1.7,1.7v7.5
		c0,1.7-1.7,3.1-1.7,4.2c0,1.1,0,2.5,0,2.5H21.2c0,0,0-2.6,0-3.3c0-0.7-2.4-2.8-3-3.7c-0.4-0.6-2.9-8.7-2.9-8.7c0-0.8,2-1.8,3.4,0
		l2.2,3.4l1.1-1.1V22.9c0-0.9,0.7-1.7,1.7-1.7l0,0c0.9,0,1.7,0.7,1.7,1.7v9.2"/>
	<line class="st0" x1="28.8" y1="30.4" x2="28.8" y2="32.9"/>
	<line class="st0" x1="32.1" y1="32.1" x2="32.1" y2="33.8"/>
	<rect x="19.6" y="47.1" class="st5" width="15.9" height="4.2"/>
	<polyline class="st0" points="35.4,51.3 35.4,47.1 19.6,47.1 19.6,51.3 	"/>
	<line class="st0" x1="22.1" y1="50.5" x2="24.6" y2="50.5"/>
</g>
</svg>
