<?xml version="1.0" encoding="utf-8"?>
<!-- Generator: Adobe Illustrator 26.5.0, SVG Export Plug-In . SVG Version: 6.00 Build 0)  -->
<svg version="1.1" id="Layer_1" xmlns="http://www.w3.org/2000/svg" xmlns:xlink="http://www.w3.org/1999/xlink" x="0px" y="0px"
	 viewBox="0 0 24 24" style="enable-background:new 0 0 24 24;" xml:space="preserve">
<style type="text/css">
	.st0{fill:#76E1E5;}
	.st1{fill:#5F6465;}
	.st2{fill:#B8D376;}
	.st3{fill:#ECEB96;}
	.st4{fill:#4D5152;}
</style>
<g>
	<polygon class="st0" points="23.6,10.2 19.7,10.2 17.4,12 17.4,10.2 15.6,10.2 15.6,3.7 23.6,3.7 	"/>
	<path class="st1" d="M17.4,12.3c0,0-0.1,0-0.1,0c-0.1-0.1-0.2-0.2-0.2-0.3v-1.5h-1.5c-0.2,0-0.3-0.1-0.3-0.3V3.7
		c0-0.2,0.1-0.3,0.3-0.3h8c0.2,0,0.3,0.1,0.3,0.3v6.5c0,0.2-0.1,0.3-0.3,0.3h-3.8l-2.3,1.7C17.5,12.3,17.4,12.3,17.4,12.3 M15.9,9.9
		h1.5c0.2,0,0.3,0.1,0.3,0.3v1.2l1.9-1.4c0.1,0,0.1-0.1,0.2-0.1h3.6V4h-7.4V9.9z"/>
	<rect x="18.2" y="6.6" class="st1" width="0.6" height="0.6"/>
	<rect x="19.4" y="6.6" class="st1" width="0.6" height="0.6"/>
	<rect x="20.6" y="6.6" class="st1" width="0.6" height="0.6"/>
	<path class="st2" d="M12.9,9c0-3.4-2.8-6.2-6.2-6.2c-0.5,0-1,0.1-1.5,0.2C7.9,3.6,9.9,6.1,9.9,9c0,3.4-2.4,5.9-2.4,8.9v3.6h1.8
		v-3.6h1.8c1,0,1.8-0.8,1.8-1.8v-2.7h1.5v-0.6L12.9,9z"/>
	<path class="st3" d="M9.9,9c0-2.9-2-5.4-4.8-6.1C2.4,3.6,0.4,6.1,0.4,9c0,3.4,2.4,5.9,2.4,8.9v3.6h4.8v-3.6C7.5,15,9.9,12.5,9.9,9"
		/>
	<rect x="8.4" y="17.7" class="st1" width="0.9" height="0.6"/>
	<path class="st1" d="M9.6,21.5H9v-3.6c0-0.2,0.1-0.3,0.3-0.3h1.8c0.8,0,1.5-0.7,1.5-1.5v-2.7c0-0.2,0.1-0.3,0.3-0.3h1.2v-0.2
		l-1.5-3.8c0,0,0-0.1,0-0.1c0-3.3-2.7-5.9-5.9-5.9C3.4,3.1,0.7,5.7,0.7,9c0,1.7,0.6,3.2,1.2,4.7c0.6,1.4,1.1,2.7,1.1,4.2v3.6H2.5
		v-3.6c0-1.4-0.5-2.7-1.1-4C0.8,12.4,0.1,10.9,0.1,9c0-3.6,2.9-6.5,6.5-6.5c3.6,0,6.5,2.9,6.5,6.5l1.5,3.8c0,0,0,0.1,0,0.1v0.6
		c0,0.2-0.1,0.3-0.3,0.3h-1.2v2.4c0,1.1-0.9,2.1-2.1,2.1H9.6V21.5z"/>
	<path class="st4" d="M15.4,16.4L15,16c0.2-0.2,0.2-0.6,0-0.8l0.4-0.4C15.8,15.2,15.8,15.9,15.4,16.4"/>
	<path class="st4" d="M16.2,17.3l-0.4-0.4c0.7-0.7,0.7-1.8,0-2.5l0.4-0.4C17.1,14.8,17.1,16.3,16.2,17.3"/>
	<path class="st4" d="M17.1,18.1l-0.4-0.4c1.2-1.2,1.2-3,0-4.2l0.4-0.4C18.4,14.4,18.4,16.7,17.1,18.1"/>
</g>
</svg>
