<?xml version="1.0" encoding="utf-8"?>
<!-- Generator: Adobe Illustrator 27.0.0, SVG Export Plug-In . SVG Version: 6.00 Build 0)  -->
<svg version="1.1" id="Layer_1" xmlns="http://www.w3.org/2000/svg" xmlns:xlink="http://www.w3.org/1999/xlink" x="0px" y="0px"
	 viewBox="0 0 55 55" style="enable-background:new 0 0 55 55;" xml:space="preserve">
<style type="text/css">
	.st0{fill:#FFFFFF;}
	.st1{fill:#00FB15;stroke:#295675;stroke-width:0.8413;stroke-miterlimit:10;}
	.st2{fill:#A8E2E2;stroke:#295675;stroke-width:0.9498;stroke-miterlimit:10;}
	.st3{fill:#FFFFFF;stroke:#295675;stroke-width:0.9498;stroke-miterlimit:10;}
	.st4{fill:none;stroke:#295675;stroke-width:1.6825;stroke-miterlimit:10;}
	.st5{fill:#00FB15;stroke:#295675;stroke-width:1.6825;stroke-miterlimit:10;}
	.st6{fill:none;stroke:#295675;stroke-width:1.6825;stroke-linecap:round;stroke-miterlimit:10;}
</style>
<g>
	<path class="st0" d="M44.5,40.8l-4.8-1.1l-3.4-3.4L34.7,38v-5.9H20.3V38l-1.7-1.7l-3.4,3.4l-4.8,1.1c-4.3,0.9-5.1,4-6.2,9
		c0,0,8.4,4.2,23.6,4.2s22.7-4.2,22.7-4.2C49.5,44.8,48.8,41.7,44.5,40.8z"/>
	
		<rect x="18.8" y="36.3" transform="matrix(0.7071 -0.7071 0.7071 0.7071 -23.6491 27.3505)" class="st1" width="4.8" height="11.9"/>
	
		<rect x="27.9" y="39.8" transform="matrix(0.7071 -0.7071 0.7071 0.7071 -19.953 36.2735)" class="st1" width="11.9" height="4.8"/>
	<path class="st2" d="M27.5,1c-7.7,0-13.9,6.7-13.9,12.9v5.6c0,0,3.4,5,14.3,5s13.5-5,13.5-5v-5.6C41.4,7.7,35.2,1,27.5,1z"/>
	<path class="st3" d="M23.7,11.9c-2.6,0-5.9,3.4-6.7,5.9v5.9c0,4.9,2.6,9.9,6.8,12.4c0.1,0,0.2,0.1,0.2,0.1c2.2,1.3,5,1.3,7.2,0
		c0,0,0.1-0.1,0.1-0.1c4.2-2.5,6.7-7.5,6.7-12.4V21C33.4,20.2,26.7,16.2,23.7,11.9z"/>
	<path class="st4" d="M41.4,24.6V13.9C41.4,7.7,35.2,1,27.5,1S13.6,7.7,13.6,13.9v9"/>
	<line class="st4" x1="20.3" y1="33.1" x2="20.3" y2="38"/>
	<line class="st4" x1="34.7" y1="33.2" x2="34.7" y2="38"/>
	
		<rect x="27.9" y="39.8" transform="matrix(0.7071 -0.7071 0.7071 0.7071 -19.953 36.2735)" class="st4" width="11.9" height="4.8"/>
	
		<rect x="18.8" y="36.3" transform="matrix(0.7071 -0.7071 0.7071 0.7071 -23.6491 27.3505)" class="st4" width="4.8" height="11.9"/>
	<path class="st5" d="M13,26.2h0.6v-8.4H13c-1.9,0-3.6,1.8-3.6,3.6v1.2C9.4,24.5,11.2,26.2,13,26.2z"/>
	<path class="st5" d="M42,26.2h-0.6v-8.4H42c2,0,3.6,1.6,3.6,3.6v1.2C45.6,24.6,44,26.2,42,26.2z"/>
	<path class="st6" d="M22,7.7c0,5.7,11.1,13.1,17.2,13.4"/>
	<path class="st4" d="M38,21v2.7c0,4.9-2.5,9.9-6.7,12.4c0,0-0.1,0.1-0.1,0.1c-2.2,1.3-5,1.3-7.2,0c-0.1,0-0.2-0.1-0.2-0.1
		c-4.2-2.5-6.8-7.5-6.8-12.4v-5.9c0.8-2.5,4.1-5.9,6.7-5.9"/>
	<path class="st4" d="M30.4,31.3h6.7c1.9,0,4.2-1.7,4.2-4.2c0-1.7,0-1.7,0-1.7"/>
	<path class="st5" d="M28.8,33h-2.5c-0.9,0-1.7-0.8-1.7-1.7v-0.8c0-0.9,0.8-1.7,1.7-1.7h2.5c0.9,0,1.7,0.8,1.7,1.7v0.8
		C30.4,32.2,29.7,33,28.8,33z"/>
	<path class="st6" d="M15.3,39.7l-4.8,1.1c-4.3,0.9-5.1,4-6.2,9"/>
	<path class="st6" d="M39.7,39.7l4.8,1.1c4.3,0.9,5.1,4,6.2,9"/>
</g>
</svg>
